<?xml version="1.0" encoding="utf-8"?>
<!-- Generator: Adobe Illustrator 16.0.0, SVG Export Plug-In . SVG Version: 6.00 Build 0)  -->
<!DOCTYPE svg PUBLIC "-//W3C//DTD SVG 1.1//EN" "http://www.w3.org/Graphics/SVG/1.1/DTD/svg11.dtd">
<svg version="1.1" id="Layer_1" xmlns="http://www.w3.org/2000/svg" xmlns:xlink="http://www.w3.org/1999/xlink" x="0px" y="0px"
	 width="50px" height="50px" viewBox="0 0 50 50" enable-background="new 0 0 50 50" xml:space="preserve">
<g>
	<g>
		<polygon fill="#282727" points="15.056,29.68 17.211,28.064 17.211,32.557 12.895,32.557 12.895,28.062 		"/>
	</g>
	<g>
		<polygon fill="#282727" points="19.373,23.923 19.373,23.925 15.056,27.158 10.74,23.925 10.74,23.923 		"/>
	</g>
	<g>
		<polygon fill="#951B81" points="19.376,23.923 19.373,23.925 15.056,27.158 10.74,23.925 10.736,23.923 		"/>
		<polygon fill="#951B81" points="17.211,28.064 17.211,32.557 12.895,32.557 12.895,28.062 15.056,29.68 		"/>
	</g>
	<g>
		<rect x="4.242" y="23.923" fill="#009FE3" width="4.317" height="3.238"/>
		<rect x="4.242" y="29.319" fill="#009FE3" width="4.317" height="3.237"/>
	</g>
	<g>
		<g>
			<rect x="10.736" y="17.443" fill="#E6007E" width="3.237" height="4.317"/>
		</g>
		<g>
			<rect x="16.132" y="17.443" fill="#E6007E" width="3.237" height="4.317"/>
		</g>
	</g>
	<g>
		<rect x="4.242" y="17.443" fill="#312783" width="4.322" height="2.161"/>
		<rect x="4.242" y="21.766" fill="#312783" width="4.322" height="2.161"/>
	</g>
	<g>
		<path fill="#312783" d="M24.826,17.71h0.465l0.96,2.495h-0.468l-0.234-0.66h-0.996l-0.234,0.66h-0.451L24.826,17.71z
			 M24.671,19.213h0.762l-0.374-1.073h-0.01L24.671,19.213z"/>
		<path fill="#312783" d="M28.174,18.503c-0.02-0.072-0.045-0.138-0.078-0.199c-0.031-0.061-0.074-0.113-0.125-0.158
			s-0.111-0.078-0.18-0.103c-0.068-0.024-0.148-0.037-0.24-0.037c-0.133,0-0.246,0.027-0.344,0.081
			c-0.097,0.053-0.176,0.125-0.236,0.215c-0.061,0.09-0.104,0.191-0.135,0.306c-0.029,0.115-0.043,0.231-0.043,0.349
			c0,0.12,0.014,0.236,0.043,0.35c0.03,0.115,0.074,0.216,0.135,0.306s0.14,0.161,0.236,0.215c0.098,0.054,0.211,0.081,0.344,0.081
			c0.098,0,0.185-0.017,0.26-0.051c0.074-0.033,0.138-0.08,0.191-0.139s0.096-0.128,0.127-0.208
			c0.029-0.078,0.049-0.164,0.059-0.255h0.426c-0.01,0.149-0.041,0.286-0.096,0.409c-0.055,0.123-0.129,0.23-0.223,0.32
			c-0.093,0.089-0.202,0.159-0.328,0.208c-0.125,0.049-0.264,0.073-0.416,0.073c-0.186,0-0.354-0.034-0.501-0.103
			c-0.147-0.068-0.273-0.163-0.376-0.282c-0.103-0.119-0.181-0.257-0.236-0.416c-0.054-0.158-0.082-0.328-0.082-0.507
			c0-0.176,0.028-0.344,0.082-0.503c0.056-0.158,0.134-0.297,0.236-0.416c0.103-0.119,0.229-0.213,0.376-0.283
			c0.147-0.069,0.315-0.105,0.501-0.105c0.141,0,0.271,0.019,0.395,0.058c0.124,0.039,0.233,0.094,0.327,0.168
			c0.095,0.073,0.171,0.162,0.229,0.268c0.058,0.104,0.094,0.225,0.107,0.359H28.174z"/>
		<path fill="#312783" d="M29.68,17.71h0.465l0.961,2.495h-0.469l-0.234-0.66h-0.996l-0.233,0.66h-0.45L29.68,17.71z M29.525,19.213
			h0.762l-0.373-1.073h-0.011L29.525,19.213z"/>
		<path fill="#312783" d="M31.344,17.71h1.033c0.191,0,0.357,0.033,0.496,0.098c0.141,0.065,0.254,0.154,0.344,0.268
			c0.088,0.113,0.154,0.245,0.197,0.396s0.064,0.313,0.064,0.485c0,0.173-0.021,0.335-0.064,0.486
			c-0.043,0.152-0.109,0.284-0.197,0.397c-0.09,0.112-0.203,0.202-0.344,0.267c-0.139,0.065-0.305,0.097-0.496,0.097h-1.033V17.71z
			 M31.779,19.849h0.43c0.17,0,0.309-0.023,0.418-0.068c0.107-0.046,0.193-0.108,0.254-0.189c0.064-0.081,0.105-0.174,0.127-0.283
			c0.023-0.108,0.033-0.225,0.033-0.352c0-0.125-0.01-0.242-0.033-0.351c-0.021-0.108-0.062-0.203-0.127-0.283
			c-0.061-0.081-0.146-0.143-0.254-0.189c-0.109-0.045-0.248-0.068-0.418-0.068h-0.43V19.849z"/>
		<path fill="#312783" d="M33.865,17.71h1.797v0.377h-1.359v0.653h1.258v0.357h-1.258v0.73h1.385v0.377h-1.822V17.71z"/>
		<path fill="#312783" d="M36.061,17.71h0.615l0.688,1.954h0.008l0.672-1.954h0.607v2.495h-0.416V18.28h-0.008l-0.691,1.925h-0.361
			l-0.691-1.925h-0.006v1.925h-0.416V17.71z"/>
		<path fill="#312783" d="M39.824,19.227l-0.936-1.517h0.506l0.66,1.119l0.65-1.119h0.488l-0.934,1.517v0.978h-0.436V19.227z"/>
	</g>
	<g>
		<path fill="#009FE3" d="M43.213,17.969c0.141,0,0.268,0.027,0.379,0.08c0.111,0.053,0.207,0.125,0.285,0.214
			c0.076,0.09,0.137,0.195,0.178,0.315c0.043,0.12,0.062,0.247,0.062,0.381c0,0.136-0.02,0.263-0.062,0.383
			c-0.041,0.12-0.102,0.225-0.178,0.315c-0.078,0.09-0.174,0.161-0.285,0.213c-0.111,0.052-0.238,0.078-0.379,0.078
			c-0.143,0-0.268-0.026-0.379-0.078c-0.111-0.052-0.207-0.123-0.285-0.213s-0.137-0.195-0.178-0.315
			c-0.043-0.12-0.062-0.247-0.062-0.383c0-0.134,0.02-0.261,0.062-0.381c0.041-0.12,0.1-0.225,0.178-0.315
			c0.078-0.089,0.174-0.161,0.285-0.214C42.945,17.996,43.07,17.969,43.213,17.969z M43.213,18.239c-0.102,0-0.188,0.02-0.262,0.061
			c-0.072,0.041-0.131,0.095-0.178,0.163c-0.047,0.068-0.078,0.145-0.102,0.231c-0.021,0.086-0.033,0.175-0.033,0.265
			c0,0.089,0.012,0.178,0.033,0.264c0.023,0.086,0.055,0.164,0.102,0.231c0.047,0.068,0.105,0.122,0.178,0.163
			c0.074,0.041,0.16,0.061,0.262,0.061c0.1,0,0.188-0.021,0.262-0.061c0.072-0.041,0.131-0.095,0.178-0.163
			c0.045-0.067,0.078-0.145,0.102-0.231c0.021-0.086,0.033-0.174,0.033-0.264c0-0.09-0.012-0.179-0.033-0.265
			c-0.023-0.086-0.057-0.163-0.102-0.231c-0.047-0.068-0.105-0.123-0.178-0.163C43.4,18.259,43.312,18.239,43.213,18.239z"/>
		<path fill="#009FE3" d="M44.418,18.014h1.305v0.286H44.75v0.495h0.854v0.27H44.75v0.838h-0.332V18.014z"/>
	</g>
	<g>
		<path fill="#E6007E" d="M23.868,21.622h0.437v2.496h-0.437V21.622z"/>
		<path fill="#E6007E" d="M24.822,21.622h0.461l1.139,1.839h0.008v-1.839h0.416v2.496h-0.462l-1.135-1.834h-0.01v1.834h-0.417
			V21.622z"/>
		<path fill="#E6007E" d="M27.125,21.622h2.02V22h-0.793v2.118h-0.438V22h-0.789V21.622z"/>
		<path fill="#E6007E" d="M29.435,21.622h1.796V22h-1.359v0.653h1.258v0.357h-1.258v0.731h1.385v0.377h-1.821V21.622z"/>
		<path fill="#E6007E" d="M33.812,24.118h-0.279l-0.066-0.293c-0.115,0.133-0.232,0.225-0.348,0.276
			c-0.117,0.052-0.252,0.077-0.404,0.077c-0.186,0-0.354-0.035-0.5-0.104c-0.148-0.068-0.273-0.163-0.375-0.282
			c-0.104-0.119-0.182-0.257-0.236-0.416c-0.055-0.158-0.082-0.327-0.082-0.506c0-0.177,0.027-0.345,0.082-0.503
			c0.055-0.158,0.133-0.297,0.236-0.416c0.102-0.119,0.227-0.213,0.375-0.283c0.146-0.07,0.314-0.105,0.5-0.105
			c0.135,0,0.266,0.018,0.389,0.054c0.121,0.037,0.229,0.089,0.324,0.161s0.176,0.16,0.238,0.267
			c0.062,0.107,0.104,0.231,0.119,0.371h-0.426c-0.012-0.082-0.037-0.153-0.076-0.215c-0.037-0.062-0.086-0.113-0.145-0.156
			c-0.059-0.042-0.123-0.073-0.195-0.094c-0.072-0.021-0.148-0.032-0.229-0.032c-0.133,0-0.246,0.027-0.344,0.081
			c-0.096,0.054-0.174,0.125-0.234,0.214c-0.061,0.09-0.105,0.192-0.135,0.307c-0.029,0.114-0.045,0.23-0.045,0.349
			c0,0.119,0.016,0.235,0.045,0.35c0.029,0.114,0.074,0.216,0.135,0.305c0.061,0.09,0.139,0.162,0.234,0.216
			c0.098,0.053,0.211,0.08,0.344,0.08c0.113,0.002,0.211-0.012,0.297-0.044c0.088-0.031,0.16-0.076,0.219-0.136
			c0.061-0.06,0.105-0.132,0.137-0.218c0.029-0.086,0.045-0.182,0.049-0.287h-0.664v-0.332h1.061V24.118z"/>
		<path fill="#E6007E" d="M34.289,21.622h1.191c0.273,0,0.48,0.06,0.619,0.179c0.137,0.119,0.205,0.284,0.205,0.496
			c0,0.119-0.018,0.218-0.053,0.295s-0.074,0.141-0.121,0.189c-0.049,0.047-0.094,0.082-0.139,0.103
			c-0.045,0.021-0.08,0.035-0.1,0.042v0.007c0.037,0.004,0.076,0.016,0.121,0.034c0.041,0.019,0.082,0.049,0.121,0.089
			c0.035,0.041,0.066,0.094,0.09,0.159c0.025,0.065,0.037,0.147,0.037,0.245c0,0.146,0.012,0.28,0.035,0.4
			c0.021,0.12,0.055,0.205,0.102,0.257H35.93c-0.031-0.054-0.051-0.113-0.057-0.178c-0.006-0.065-0.008-0.128-0.008-0.188
			c0-0.114-0.008-0.213-0.021-0.296c-0.014-0.083-0.041-0.151-0.076-0.206c-0.037-0.055-0.088-0.095-0.152-0.12
			s-0.146-0.039-0.248-0.039h-0.643v1.027h-0.436V21.622z M34.725,22.758h0.717c0.139,0,0.246-0.033,0.318-0.1
			s0.109-0.166,0.109-0.299c0-0.078-0.012-0.144-0.035-0.194c-0.023-0.05-0.057-0.089-0.098-0.117
			c-0.041-0.027-0.088-0.046-0.139-0.056c-0.053-0.009-0.107-0.014-0.162-0.014h-0.711V22.758z"/>
		<path fill="#E6007E" d="M37.416,21.622h0.465l0.961,2.496h-0.469l-0.234-0.661h-0.996l-0.234,0.661h-0.449L37.416,21.622z
			 M37.262,23.125h0.762l-0.373-1.073h-0.01L37.262,23.125z"/>
		<path fill="#E6007E" d="M38.521,21.622h2.02V22h-0.795v2.118h-0.436V22h-0.789V21.622z"/>
		<path fill="#E6007E" d="M40.83,21.622h0.438v2.496H40.83V21.622z"/>
		<path fill="#E6007E" d="M41.518,21.622h0.455l0.625,1.975h0.008l0.639-1.975h0.445l-0.854,2.496H42.35L41.518,21.622z"/>
		<path fill="#E6007E" d="M43.936,21.622h1.797V22h-1.359v0.653h1.258v0.357h-1.258v0.731h1.385v0.377h-1.822V21.622z"/>
	</g>
	<g>
		<path fill="#009FE3" d="M24.019,25.538h0.437v0.992h1.136v-0.992h0.437v2.494h-0.437v-1.125h-1.136v1.125h-0.437V25.538z"/>
		<path fill="#009FE3" d="M26.553,25.538h1.796v0.377h-1.359v0.652h1.258v0.357h-1.258v0.73h1.384v0.377h-1.82V25.538z"/>
		<path fill="#009FE3" d="M29.421,25.538h0.465l0.96,2.494h-0.467l-0.234-0.66h-0.996l-0.234,0.66h-0.451L29.421,25.538z
			 M29.268,27.04h0.762l-0.375-1.073h-0.01L29.268,27.04z"/>
		<path fill="#009FE3" d="M31.084,25.538h0.438v2.117h1.27v0.377h-1.707V25.538z"/>
		<path fill="#009FE3" d="M32.531,25.538h2.02v0.377h-0.793v2.117H33.32v-2.117h-0.789V25.538z"/>
		<path fill="#009FE3" d="M34.83,25.538h0.438v0.992h1.135v-0.992h0.438v2.494h-0.438v-1.125h-1.135v1.125H34.83V25.538z"/>
	</g>
	<path fill="#E6007E" d="M39.885,27.661c-0.08,0.1-0.17,0.173-0.268,0.219c-0.1,0.046-0.213,0.067-0.34,0.067
		c-0.102,0-0.193-0.014-0.277-0.044c-0.084-0.029-0.156-0.07-0.217-0.126c-0.062-0.055-0.109-0.122-0.143-0.202
		c-0.033-0.081-0.051-0.171-0.051-0.273c0-0.077,0.016-0.147,0.043-0.21c0.027-0.063,0.066-0.121,0.113-0.173s0.1-0.098,0.158-0.139
		c0.061-0.04,0.123-0.077,0.186-0.11c-0.027-0.036-0.055-0.071-0.082-0.108c-0.027-0.035-0.051-0.072-0.07-0.11
		c-0.021-0.038-0.037-0.079-0.049-0.122s-0.02-0.087-0.02-0.134c0-0.08,0.016-0.15,0.043-0.214c0.027-0.062,0.064-0.117,0.113-0.163
		s0.105-0.081,0.172-0.105c0.064-0.024,0.135-0.037,0.207-0.037c0.068,0,0.137,0.011,0.203,0.032s0.123,0.054,0.174,0.097
		c0.049,0.044,0.09,0.099,0.119,0.164c0.031,0.065,0.047,0.141,0.047,0.229c0,0.064-0.012,0.125-0.033,0.18s-0.049,0.105-0.084,0.15
		c-0.035,0.047-0.078,0.088-0.127,0.124c-0.047,0.037-0.098,0.068-0.15,0.098l0.34,0.408c0.012-0.035,0.023-0.074,0.035-0.119
		c0.012-0.044,0.023-0.103,0.031-0.173h0.305c-0.01,0.095-0.029,0.188-0.057,0.28c-0.025,0.092-0.064,0.175-0.113,0.252l0.416,0.508
		h-0.426L39.885,27.661z M39.273,26.899c-0.033,0.021-0.068,0.04-0.107,0.061s-0.076,0.046-0.107,0.076
		c-0.035,0.03-0.062,0.067-0.086,0.11c-0.023,0.042-0.035,0.096-0.035,0.161c0,0.118,0.033,0.209,0.1,0.271
		c0.064,0.062,0.148,0.094,0.252,0.094c0.062,0,0.117-0.008,0.162-0.025c0.043-0.018,0.082-0.038,0.113-0.062
		c0.031-0.025,0.057-0.052,0.08-0.08c0.02-0.028,0.039-0.054,0.055-0.076L39.273,26.899z M39.414,25.936
		c-0.066,0-0.121,0.021-0.166,0.066c-0.043,0.043-0.066,0.102-0.066,0.174c0,0.037,0.006,0.071,0.02,0.103
		c0.014,0.032,0.029,0.062,0.049,0.092s0.041,0.059,0.064,0.087s0.045,0.056,0.064,0.082c0.033-0.022,0.064-0.045,0.096-0.067
		c0.031-0.023,0.059-0.049,0.082-0.077c0.023-0.027,0.043-0.059,0.059-0.094c0.014-0.034,0.021-0.072,0.021-0.115
		c0-0.07-0.021-0.131-0.062-0.178C39.533,25.959,39.48,25.936,39.414,25.936z"/>
	<g>
		<path fill="#951B81" d="M24,29.497h0.615l0.689,1.954h0.006l0.672-1.954h0.607v2.495h-0.416v-1.926h-0.007l-0.692,1.926h-0.359
			l-0.692-1.926h-0.006v1.926H24V29.497z"/>
		<path fill="#951B81" d="M27.113,29.497h1.797v0.377h-1.359v0.654h1.258v0.356h-1.258v0.729h1.383v0.378h-1.82V29.497z"/>
		<path fill="#951B81" d="M29.316,29.497h1.033c0.191,0,0.355,0.032,0.496,0.098s0.254,0.154,0.342,0.268
			c0.09,0.112,0.156,0.245,0.197,0.396c0.045,0.151,0.066,0.313,0.066,0.486c0,0.171-0.021,0.335-0.066,0.484
			c-0.041,0.152-0.107,0.284-0.197,0.397c-0.088,0.113-0.201,0.202-0.342,0.267c-0.141,0.065-0.305,0.099-0.496,0.099h-1.033V29.497
			z M29.752,31.635h0.431c0.17,0,0.31-0.021,0.417-0.067s0.193-0.108,0.256-0.188c0.062-0.081,0.104-0.175,0.125-0.283
			s0.033-0.226,0.033-0.351c0-0.126-0.012-0.243-0.033-0.352s-0.062-0.203-0.125-0.282c-0.062-0.081-0.148-0.145-0.256-0.189
			c-0.107-0.046-0.247-0.068-0.417-0.068h-0.431V31.635z"/>
		<path fill="#951B81" d="M31.838,29.497h0.438v2.495h-0.438V29.497z"/>
		<path fill="#951B81" d="M34.494,30.29c-0.018-0.072-0.043-0.139-0.076-0.198c-0.033-0.061-0.074-0.114-0.125-0.157
			c-0.053-0.045-0.113-0.08-0.182-0.104c-0.068-0.024-0.148-0.036-0.238-0.036c-0.135,0-0.248,0.026-0.346,0.079
			c-0.096,0.054-0.176,0.126-0.234,0.215c-0.061,0.09-0.105,0.192-0.135,0.306c-0.029,0.115-0.043,0.231-0.043,0.351
			s0.014,0.235,0.043,0.349c0.029,0.114,0.074,0.216,0.135,0.306c0.059,0.091,0.139,0.161,0.234,0.215
			c0.098,0.054,0.211,0.081,0.346,0.081c0.098,0,0.182-0.017,0.258-0.051c0.074-0.034,0.139-0.08,0.193-0.14
			c0.053-0.06,0.096-0.129,0.125-0.208s0.049-0.165,0.061-0.255h0.426c-0.01,0.148-0.043,0.285-0.098,0.409
			c-0.055,0.123-0.127,0.229-0.221,0.318c-0.094,0.091-0.203,0.16-0.328,0.208c-0.127,0.05-0.266,0.073-0.416,0.073
			c-0.188,0-0.355-0.034-0.502-0.102c-0.148-0.069-0.273-0.164-0.375-0.282c-0.104-0.119-0.182-0.257-0.236-0.416
			c-0.055-0.158-0.082-0.327-0.082-0.506c0-0.178,0.027-0.345,0.082-0.503s0.133-0.299,0.236-0.416
			c0.102-0.12,0.227-0.215,0.375-0.284c0.146-0.069,0.314-0.104,0.502-0.104c0.139,0,0.271,0.02,0.395,0.058
			s0.232,0.095,0.326,0.168s0.172,0.163,0.229,0.268c0.059,0.104,0.094,0.225,0.109,0.359H34.494z"/>
		<path fill="#951B81" d="M35.332,29.497h0.439v2.495h-0.439V29.497z"/>
		<path fill="#951B81" d="M36.287,29.497h0.461l1.141,1.839h0.006v-1.839h0.416v2.495H37.85l-1.137-1.834h-0.01v1.834h-0.416V29.497
			z"/>
		<path fill="#951B81" d="M38.828,29.497h1.797v0.377h-1.361v0.654h1.26v0.356h-1.26v0.729h1.385v0.378h-1.82V29.497z"/>
	</g>
</g>
<rect fill="none" width="50" height="50"/>
<rect fill="none" width="50" height="50"/>
</svg>
