<?xml version="1.0" encoding="utf-8"?>
<!-- Generator: Adobe Illustrator 22.0.0, SVG Export Plug-In . SVG Version: 6.00 Build 0)  -->
<svg version="1.1" id="Layer_1" xmlns="http://www.w3.org/2000/svg" xmlns:xlink="http://www.w3.org/1999/xlink" x="0px" y="0px"
	 viewBox="0 0 50 50" style="enable-background:new 0 0 50 50;" xml:space="preserve">
<style type="text/css">
	.st0{fill:#282727;}
	.st1{fill:#951B81;}
	.st2{fill:#009FE3;}
	.st3{fill:#E6007E;}
	.st4{fill:#312783;}
	.st5{fill:none;}
</style>
<g>
	<g>
		<polygon class="st0" points="15.1,29.7 17.2,28.1 17.2,32.6 12.9,32.6 12.9,28.1 		"/>
	</g>
	<g>
		<polygon class="st0" points="19.4,23.9 19.4,23.9 15.1,27.2 10.7,23.9 10.7,23.9 		"/>
	</g>
	<g>
		<polygon class="st1" points="19.4,23.9 19.4,23.9 15.1,27.2 10.7,23.9 10.7,23.9 		"/>
		<polygon class="st1" points="17.2,28.1 17.2,32.6 12.9,32.6 12.9,28.1 15.1,29.7 		"/>
	</g>
	<g>
		<rect x="4.2" y="23.9" class="st2" width="4.3" height="3.2"/>
		<rect x="4.2" y="29.3" class="st2" width="4.3" height="3.2"/>
	</g>
	<g>
		<g>
			<rect x="10.7" y="17.4" class="st3" width="3.2" height="4.3"/>
		</g>
		<g>
			<rect x="16.1" y="17.4" class="st3" width="3.2" height="4.3"/>
		</g>
	</g>
	<g>
		<rect x="4.2" y="17.4" class="st4" width="4.3" height="2.2"/>
		<rect x="4.2" y="21.8" class="st4" width="4.3" height="2.2"/>
	</g>
	<g>
		<path class="st4" d="M24.8,17.7h0.5l1,2.5h-0.5l-0.2-0.7h-1l-0.2,0.7h-0.5L24.8,17.7z M24.7,19.2h0.8l-0.4-1.1h0L24.7,19.2z"/>
		<path class="st4" d="M28.2,18.5c0-0.1,0-0.1-0.1-0.2c0-0.1-0.1-0.1-0.1-0.2s-0.1-0.1-0.2-0.1c-0.1,0-0.1,0-0.2,0
			c-0.1,0-0.2,0-0.3,0.1c-0.1,0.1-0.2,0.1-0.2,0.2c-0.1,0.1-0.1,0.2-0.1,0.3c0,0.1,0,0.2,0,0.3c0,0.1,0,0.2,0,0.4
			c0,0.1,0.1,0.2,0.1,0.3s0.1,0.2,0.2,0.2c0.1,0.1,0.2,0.1,0.3,0.1c0.1,0,0.2,0,0.3-0.1c0.1,0,0.1-0.1,0.2-0.1s0.1-0.1,0.1-0.2
			c0-0.1,0-0.2,0.1-0.3h0.4c0,0.1,0,0.3-0.1,0.4c-0.1,0.1-0.1,0.2-0.2,0.3c-0.1,0.1-0.2,0.2-0.3,0.2c-0.1,0-0.3,0.1-0.4,0.1
			c-0.2,0-0.4,0-0.5-0.1c-0.1-0.1-0.3-0.2-0.4-0.3c-0.1-0.1-0.2-0.3-0.2-0.4c-0.1-0.2-0.1-0.3-0.1-0.5c0-0.2,0-0.3,0.1-0.5
			c0.1-0.2,0.1-0.3,0.2-0.4c0.1-0.1,0.2-0.2,0.4-0.3c0.1-0.1,0.3-0.1,0.5-0.1c0.1,0,0.3,0,0.4,0.1c0.1,0,0.2,0.1,0.3,0.2
			c0.1,0.1,0.2,0.2,0.2,0.3c0.1,0.1,0.1,0.2,0.1,0.4L28.2,18.5L28.2,18.5z"/>
		<path class="st4" d="M29.7,17.7h0.5l1,2.5h-0.5l-0.2-0.7h-1l-0.2,0.7h-0.5L29.7,17.7z M29.5,19.2h0.8l-0.4-1.1h0L29.5,19.2z"/>
		<path class="st4" d="M31.3,17.7h1c0.2,0,0.4,0,0.5,0.1c0.1,0.1,0.3,0.2,0.3,0.3c0.1,0.1,0.2,0.2,0.2,0.4s0.1,0.3,0.1,0.5
			c0,0.2,0,0.3-0.1,0.5c0,0.2-0.1,0.3-0.2,0.4C33.1,20,33,20,32.9,20.1c-0.1,0.1-0.3,0.1-0.5,0.1h-1C31.3,20.2,31.3,17.7,31.3,17.7z
			 M31.8,19.8h0.4c0.2,0,0.3,0,0.4-0.1c0.1,0,0.2-0.1,0.3-0.2c0.1-0.1,0.1-0.2,0.1-0.3c0-0.1,0-0.2,0-0.4c0-0.1,0-0.2,0-0.4
			c0-0.1-0.1-0.2-0.1-0.3c-0.1-0.1-0.1-0.1-0.3-0.2c-0.1,0-0.2-0.1-0.4-0.1h-0.4V19.8z"/>
		<path class="st4" d="M33.9,17.7h1.8v0.4h-1.4v0.7h1.3v0.4h-1.3v0.7h1.4v0.4h-1.8L33.9,17.7L33.9,17.7z"/>
		<path class="st4" d="M36.1,17.7h0.6l0.7,2h0l0.7-2h0.6v2.5h-0.4v-1.9h0l-0.7,1.9h-0.4l-0.7-1.9h0v1.9h-0.4L36.1,17.7L36.1,17.7z"
			/>
		<path class="st4" d="M39.8,19.2l-0.9-1.5h0.5l0.7,1.1l0.7-1.1h0.5l-0.9,1.5v1h-0.4L39.8,19.2L39.8,19.2z"/>
	</g>
	<g>
		<path class="st2" d="M43.2,18c0.1,0,0.3,0,0.4,0.1s0.2,0.1,0.3,0.2c0.1,0.1,0.1,0.2,0.2,0.3c0,0.1,0.1,0.2,0.1,0.4
			c0,0.1,0,0.3-0.1,0.4c0,0.1-0.1,0.2-0.2,0.3c-0.1,0.1-0.2,0.2-0.3,0.2s-0.2,0.1-0.4,0.1c-0.1,0-0.3,0-0.4-0.1s-0.2-0.1-0.3-0.2
			s-0.1-0.2-0.2-0.3c0-0.1-0.1-0.2-0.1-0.4c0-0.1,0-0.3,0.1-0.4c0-0.1,0.1-0.2,0.2-0.3c0.1-0.1,0.2-0.2,0.3-0.2
			C42.9,18,43.1,18,43.2,18z M43.2,18.2c-0.1,0-0.2,0-0.3,0.1c-0.1,0-0.1,0.1-0.2,0.2s-0.1,0.1-0.1,0.2c0,0.1,0,0.2,0,0.3
			c0,0.1,0,0.2,0,0.3c0,0.1,0.1,0.2,0.1,0.2c0,0.1,0.1,0.1,0.2,0.2c0.1,0,0.2,0.1,0.3,0.1c0.1,0,0.2,0,0.3-0.1
			c0.1,0,0.1-0.1,0.2-0.2c0-0.1,0.1-0.1,0.1-0.2c0-0.1,0-0.2,0-0.3s0-0.2,0-0.3c0-0.1-0.1-0.2-0.1-0.2c0-0.1-0.1-0.1-0.2-0.2
			C43.4,18.3,43.3,18.2,43.2,18.2z"/>
		<path class="st2" d="M44.4,18h1.3v0.3h-1v0.5h0.9v0.3h-0.9v0.8h-0.3V18z"/>
	</g>
	<g>
		<path class="st3" d="M23.9,21.6h0.4v2.5h-0.4V21.6z"/>
		<path class="st3" d="M24.8,21.6h0.5l1.1,1.8h0v-1.8h0.4v2.5h-0.5l-1.1-1.8h0v1.8h-0.4V21.6z"/>
		<path class="st3" d="M27.1,21.6h2V22h-0.8v2.1h-0.4V22h-0.8C27.1,22,27.1,21.6,27.1,21.6z"/>
		<path class="st3" d="M29.4,21.6h1.8V22h-1.4v0.7h1.3V23h-1.3v0.7h1.4v0.4h-1.8L29.4,21.6L29.4,21.6z"/>
		<path class="st3" d="M33.8,24.1h-0.3l-0.1-0.3c-0.1,0.1-0.2,0.2-0.3,0.3c-0.1,0.1-0.3,0.1-0.4,0.1c-0.2,0-0.4,0-0.5-0.1
			c-0.1-0.1-0.3-0.2-0.4-0.3c-0.1-0.1-0.2-0.3-0.2-0.4c-0.1-0.2-0.1-0.3-0.1-0.5c0-0.2,0-0.3,0.1-0.5s0.1-0.3,0.2-0.4
			c0.1-0.1,0.2-0.2,0.4-0.3c0.1-0.1,0.3-0.1,0.5-0.1c0.1,0,0.3,0,0.4,0.1c0.1,0,0.2,0.1,0.3,0.2s0.2,0.2,0.2,0.3s0.1,0.2,0.1,0.4
			h-0.4c0-0.1,0-0.2-0.1-0.2c0-0.1-0.1-0.1-0.1-0.2C33.1,22,33,22,32.9,22s-0.1,0-0.2,0c-0.1,0-0.2,0-0.3,0.1
			c-0.1,0.1-0.2,0.1-0.2,0.2c-0.1,0.1-0.1,0.2-0.1,0.3c0,0.1,0,0.2,0,0.3c0,0.1,0,0.2,0,0.4c0,0.1,0.1,0.2,0.1,0.3
			c0.1,0.1,0.1,0.2,0.2,0.2c0.1,0.1,0.2,0.1,0.3,0.1c0.1,0,0.2,0,0.3,0c0.1,0,0.2-0.1,0.2-0.1c0.1-0.1,0.1-0.1,0.1-0.2
			c0-0.1,0-0.2,0-0.3h-0.7v-0.3h1.1L33.8,24.1L33.8,24.1z"/>
		<path class="st3" d="M34.3,21.6h1.2c0.3,0,0.5,0.1,0.6,0.2c0.1,0.1,0.2,0.3,0.2,0.5c0,0.1,0,0.2-0.1,0.3s-0.1,0.1-0.1,0.2
			c0,0-0.1,0.1-0.1,0.1s-0.1,0-0.1,0v0c0,0,0.1,0,0.1,0c0,0,0.1,0,0.1,0.1c0,0,0.1,0.1,0.1,0.2c0,0.1,0,0.1,0,0.2c0,0.1,0,0.3,0,0.4
			c0,0.1,0.1,0.2,0.1,0.3h-0.5c0-0.1-0.1-0.1-0.1-0.2c0-0.1,0-0.1,0-0.2c0-0.1,0-0.2,0-0.3c0-0.1,0-0.2-0.1-0.2
			c0-0.1-0.1-0.1-0.2-0.1s-0.1,0-0.2,0h-0.6v1h-0.4C34.3,24.1,34.3,21.6,34.3,21.6z M34.7,22.8h0.7c0.1,0,0.2,0,0.3-0.1
			s0.1-0.2,0.1-0.3c0-0.1,0-0.1,0-0.2c0,0-0.1-0.1-0.1-0.1c0,0-0.1,0-0.1-0.1c-0.1,0-0.1,0-0.2,0h-0.7L34.7,22.8L34.7,22.8z"/>
		<path class="st3" d="M37.4,21.6h0.5l1,2.5h-0.5l-0.2-0.7h-1l-0.2,0.7h-0.4L37.4,21.6z M37.3,23.1H38l-0.4-1.1h0L37.3,23.1z"/>
		<path class="st3" d="M38.5,21.6h2V22h-0.8v2.1h-0.4V22h-0.8V21.6z"/>
		<path class="st3" d="M40.8,21.6h0.4v2.5h-0.4V21.6z"/>
		<path class="st3" d="M41.5,21.6H42l0.6,2h0l0.6-2h0.4l-0.9,2.5h-0.5L41.5,21.6z"/>
		<path class="st3" d="M43.9,21.6h1.8V22h-1.4v0.7h1.3V23h-1.3v0.7h1.4v0.4h-1.8L43.9,21.6L43.9,21.6z"/>
	</g>
	<g>
		<path class="st2" d="M24,25.5h0.4v1h1.1v-1H26V28h-0.4v-1.1h-1.1V28H24V25.5z"/>
		<path class="st2" d="M26.6,25.5h1.8v0.4H27v0.7h1.3v0.4H27v0.7h1.4V28h-1.8L26.6,25.5L26.6,25.5z"/>
		<path class="st2" d="M29.4,25.5h0.5l1,2.5h-0.5l-0.2-0.7h-1L28.9,28h-0.5L29.4,25.5z M29.3,27H30L29.7,26h0L29.3,27z"/>
		<path class="st2" d="M31.1,25.5h0.4v2.1h1.3V28h-1.7L31.1,25.5L31.1,25.5z"/>
		<path class="st2" d="M32.5,25.5h2v0.4h-0.8V28h-0.4v-2.1h-0.8V25.5z"/>
		<path class="st2" d="M34.8,25.5h0.4v1h1.1v-1h0.4V28h-0.4v-1.1h-1.1V28h-0.4V25.5z"/>
	</g>
	<path class="st3" d="M39.9,27.7c-0.1,0.1-0.2,0.2-0.3,0.2c-0.1,0-0.2,0.1-0.3,0.1c-0.1,0-0.2,0-0.3,0c-0.1,0-0.2-0.1-0.2-0.1
		c-0.1-0.1-0.1-0.1-0.1-0.2c0-0.1-0.1-0.2-0.1-0.3c0-0.1,0-0.1,0-0.2s0.1-0.1,0.1-0.2s0.1-0.1,0.2-0.1c0.1,0,0.1-0.1,0.2-0.1
		c0,0-0.1-0.1-0.1-0.1c0,0-0.1-0.1-0.1-0.1c0,0,0-0.1,0-0.1s0-0.1,0-0.1c0-0.1,0-0.1,0-0.2c0-0.1,0.1-0.1,0.1-0.2s0.1-0.1,0.2-0.1
		c0.1,0,0.1,0,0.2,0c0.1,0,0.1,0,0.2,0s0.1,0.1,0.2,0.1c0,0,0.1,0.1,0.1,0.2c0,0.1,0,0.1,0,0.2c0,0.1,0,0.1,0,0.2s0,0.1-0.1,0.1
		c0,0-0.1,0.1-0.1,0.1c0,0-0.1,0.1-0.2,0.1l0.3,0.4c0,0,0-0.1,0-0.1c0,0,0-0.1,0-0.2h0.3c0,0.1,0,0.2-0.1,0.3c0,0.1-0.1,0.2-0.1,0.3
		l0.4,0.5h-0.4L39.9,27.7z M39.3,26.9c0,0-0.1,0-0.1,0.1s-0.1,0-0.1,0.1c0,0-0.1,0.1-0.1,0.1c0,0,0,0.1,0,0.2c0,0.1,0,0.2,0.1,0.3
		c0.1,0.1,0.1,0.1,0.3,0.1c0.1,0,0.1,0,0.2,0c0,0,0.1,0,0.1-0.1c0,0,0.1-0.1,0.1-0.1c0,0,0-0.1,0.1-0.1L39.3,26.9z M39.4,25.9
		c-0.1,0-0.1,0-0.2,0.1c0,0-0.1,0.1-0.1,0.2c0,0,0,0.1,0,0.1c0,0,0,0.1,0,0.1s0,0.1,0.1,0.1s0,0.1,0.1,0.1c0,0,0.1,0,0.1-0.1
		c0,0,0.1,0,0.1-0.1c0,0,0-0.1,0.1-0.1c0,0,0-0.1,0-0.1c0-0.1,0-0.1-0.1-0.2C39.5,26,39.5,25.9,39.4,25.9z"/>
	<g>
		<path class="st1" d="M24,29.5h0.6l0.7,2h0l0.7-2h0.6V32h-0.4v-1.9h0L25.5,32h-0.4l-0.7-1.9h0V32H24V29.5z"/>
		<path class="st1" d="M27.1,29.5h1.8v0.4h-1.4v0.7h1.3v0.4h-1.3v0.7h1.4V32h-1.8L27.1,29.5L27.1,29.5z"/>
		<path class="st1" d="M29.3,29.5h1c0.2,0,0.4,0,0.5,0.1s0.3,0.2,0.3,0.3c0.1,0.1,0.2,0.2,0.2,0.4c0,0.2,0.1,0.3,0.1,0.5
			c0,0.2,0,0.3-0.1,0.5c0,0.2-0.1,0.3-0.2,0.4c-0.1,0.1-0.2,0.2-0.3,0.3C30.7,32,30.5,32,30.3,32h-1C29.3,32,29.3,29.5,29.3,29.5z
			 M29.8,31.6h0.4c0.2,0,0.3,0,0.4-0.1s0.2-0.1,0.3-0.2c0.1-0.1,0.1-0.2,0.1-0.3s0-0.2,0-0.4c0-0.1,0-0.2,0-0.4s-0.1-0.2-0.1-0.3
			c-0.1-0.1-0.1-0.1-0.3-0.2c-0.1,0-0.2-0.1-0.4-0.1h-0.4V31.6z"/>
		<path class="st1" d="M31.8,29.5h0.4V32h-0.4C31.8,32,31.8,29.5,31.8,29.5z"/>
		<path class="st1" d="M34.5,30.3c0-0.1,0-0.1-0.1-0.2c0-0.1-0.1-0.1-0.1-0.2c-0.1,0-0.1-0.1-0.2-0.1c-0.1,0-0.1,0-0.2,0
			c-0.1,0-0.2,0-0.3,0.1c-0.1,0.1-0.2,0.1-0.2,0.2c-0.1,0.1-0.1,0.2-0.1,0.3c0,0.1,0,0.2,0,0.4s0,0.2,0,0.3s0.1,0.2,0.1,0.3
			c0.1,0.1,0.1,0.2,0.2,0.2c0.1,0.1,0.2,0.1,0.3,0.1c0.1,0,0.2,0,0.3-0.1c0.1,0,0.1-0.1,0.2-0.1c0.1-0.1,0.1-0.1,0.1-0.2
			s0-0.2,0.1-0.3h0.4c0,0.1,0,0.3-0.1,0.4c-0.1,0.1-0.1,0.2-0.2,0.3c-0.1,0.1-0.2,0.2-0.3,0.2c-0.1,0-0.3,0.1-0.4,0.1
			c-0.2,0-0.4,0-0.5-0.1c-0.1-0.1-0.3-0.2-0.4-0.3c-0.1-0.1-0.2-0.3-0.2-0.4c-0.1-0.2-0.1-0.3-0.1-0.5c0-0.2,0-0.3,0.1-0.5
			s0.1-0.3,0.2-0.4c0.1-0.1,0.2-0.2,0.4-0.3c0.1-0.1,0.3-0.1,0.5-0.1c0.1,0,0.3,0,0.4,0.1s0.2,0.1,0.3,0.2s0.2,0.2,0.2,0.3
			c0.1,0.1,0.1,0.2,0.1,0.4L34.5,30.3L34.5,30.3z"/>
		<path class="st1" d="M35.3,29.5h0.4V32h-0.4V29.5z"/>
		<path class="st1" d="M36.3,29.5h0.5l1.1,1.8h0v-1.8h0.4V32h-0.5l-1.1-1.8h0V32h-0.4V29.5z"/>
		<path class="st1" d="M38.8,29.5h1.8v0.4h-1.4v0.7h1.3v0.4h-1.3v0.7h1.4V32h-1.8L38.8,29.5L38.8,29.5z"/>
	</g>
</g>
<rect class="st5" width="50" height="50"/>
<rect class="st5" width="50" height="50"/>
</svg>
