<?xml version="1.0" encoding="utf-8"?>
<!-- Generator: Adobe Illustrator 22.0.0, SVG Export Plug-In . SVG Version: 6.00 Build 0)  -->
<svg version="1.1" id="Layer_1" xmlns="http://www.w3.org/2000/svg" xmlns:xlink="http://www.w3.org/1999/xlink" x="0px" y="0px"
	 viewBox="0 0 50 50" style="enable-background:new 0 0 50 50;" xml:space="preserve">
<style type="text/css">
	.st0{fill:none;}
	.st1{fill:#404041;}
	.st2{fill:url(#SVGID_1_);}
</style>
<rect class="st0" width="50" height="50"/>
<path class="st1" d="M35,14.7c-0.9-2.3-3.1-3.7-5.5-3.7c-1.8,0-3.4,0.8-4.6,2.1c-1.1-1.3-2.8-2.1-4.6-2.1c-2.4,0-4.6,1.5-5.5,3.7
	c-0.3,0.7-0.4,1.5-0.4,2.3v6.2l0.1,0.1c0.6,0.4,1.3,0.7,2.1,0.8h0.6V17c0-1.7,1.4-3.1,3.1-3.1c1.7,0,3,1.3,3.1,3c0,0.1,0,0.1,0,0.2
	v7l0,0v0.1h2.8v-6.9h0c0-0.1,0-0.1,0-0.2c0-0.1,0-0.1,0-0.2c0.1-1.7,1.5-3,3.1-3c1.7,0,3.1,1.4,3.1,3.1v6.9l0.4,0v0.2h0.2h0
	c0.8,0,1.5-0.3,2.1-0.7l0.1-0.1V17C35.5,16.2,35.3,15.4,35,14.7z"/>
<linearGradient id="SVGID_1_" gradientUnits="userSpaceOnUse" x1="24.9305" y1="24.0128" x2="24.9305" y2="10.9478">
	<stop  offset="0" style="stop-color:#FFFFFF;stop-opacity:0.2"/>
	<stop  offset="0.6935" style="stop-color:#000000;stop-opacity:0"/>
</linearGradient>
<path class="st2" d="M35,14.7c-0.9-2.3-3.1-3.7-5.5-3.7c-1.8,0-3.4,0.8-4.6,2.1c-1.1-1.3-2.8-2.1-4.6-2.1c-2.4,0-4.6,1.5-5.5,3.7
	c-0.3,0.7-0.4,1.5-0.4,2.3v6.2l0.1,0.1c0.6,0.4,1.3,0.7,2.1,0.8h0.6v-7.1c0-1.7,1.4-3.1,3.1-3.1c1.7,0,3,1.3,3.1,3
	c0,0.1,0,0.1,0,0.2v7l0,0V24h2.8v-6.9h0c0-0.1,0-0.1,0-0.2c0-0.1,0-0.1,0-0.2c0.1-1.7,1.5-3,3.1-3c1.7,0,3.1,1.4,3.1,3.1v6.9l0.4,0
	V24h0.2h0c0.8,0,1.5-0.3,2.1-0.7l0.1-0.1v-6.2C35.5,16.1,35.3,15.4,35,14.7z"/>
<g>
	<g>
		<path class="st1" d="M14.9,38.6c1.4-0.2,2.5-1.2,2.9-2.6c0.1-0.3,0.1-0.6,0.1-0.9h-1.8c0,1-0.8,1.8-1.8,1.8v1.8
			C14.6,38.7,14.8,38.7,14.9,38.6z"/>
		<path class="st1" d="M17.9,34.6c-0.2-1.4-1.2-2.5-2.6-2.9c-0.3-0.1-0.6-0.1-0.9-0.1v1.8c1,0,1.8,0.8,1.8,1.8h1.8
			C17.9,35,17.9,34.8,17.9,34.6z"/>
		<path class="st1" d="M13.9,31.7c-1.4,0.2-2.5,1.2-2.9,2.6c-0.1,0.3-0.1,0.6-0.1,0.9h1.8c0-1,0.8-1.8,1.8-1.8v-1.8
			C14.2,31.6,14,31.7,13.9,31.7z"/>
		<path class="st1" d="M10.9,35.7c0.2,1.4,1.2,2.5,2.6,2.9c0.3,0.1,0.6,0.1,0.9,0.1v-1.8c-1,0-1.8-0.8-1.8-1.8h-1.8
			C10.9,35.3,10.9,35.5,10.9,35.7z"/>
		<rect x="16.2" y="35.2" class="st1" width="1.8" height="3.5"/>
	</g>
	<g>
		<rect x="18.8" y="35.2" class="st1" width="1.8" height="3.5"/>
		<rect x="24.1" y="35.2" class="st1" width="1.8" height="3.5"/>
		<path class="st1" d="M21.8,31.7c-1.4,0.2-2.5,1.2-2.9,2.6c-0.1,0.3-0.1,0.6-0.1,0.9h1.8c0-1,0.8-1.8,1.8-1.8v-1.8
			C22.2,31.6,22,31.7,21.8,31.7z"/>
		<path class="st1" d="M25.8,34.6c-0.2-1.4-1.2-2.5-2.6-2.9c-0.3-0.1-0.6-0.1-0.9-0.1v1.8c1,0,1.8,0.8,1.8,1.8h1.8
			C25.9,35,25.9,34.8,25.8,34.6z"/>
		<rect x="24.1" y="35.2" class="st1" width="1.8" height="3.5"/>
		<rect x="29.4" y="35.2" class="st1" width="1.8" height="3.5"/>
		<path class="st1" d="M27.1,31.7c-1.4,0.2-2.5,1.2-2.9,2.6c-0.1,0.3-0.1,0.6-0.1,0.9h1.8c0-1,0.8-1.8,1.8-1.8v-1.8
			C27.5,31.6,27.3,31.7,27.1,31.7z"/>
		<path class="st1" d="M31.1,34.6c-0.2-1.4-1.2-2.5-2.6-2.9c-0.3-0.1-0.6-0.1-0.9-0.1v1.8c1,0,1.8,0.8,1.8,1.8h1.8
			C31.2,35,31.1,34.8,31.1,34.6z"/>
	</g>
	<g>
		<path class="st1" d="M32.1,35.7c0.2,1.4,1.2,2.5,2.6,2.9c0.3,0.1,0.6,0.1,0.9,0.1v-1.8c-1,0-1.8-0.8-1.8-1.8h-1.8
			C32.1,35.3,32.1,35.5,32.1,35.7z"/>
		<path class="st1" d="M36.1,38.6c1.4-0.2,2.5-1.2,2.9-2.6c0.1-0.3,0.1-0.6,0.1-0.9h-1.8c0,1-0.8,1.8-1.8,1.8v1.8
			C35.8,38.7,36,38.7,36.1,38.6z"/>
		<path class="st1" d="M39.1,34.6c-0.2-1.4-1.2-2.5-2.6-2.9c-0.3-0.1-0.6-0.1-0.9-0.1v1.8c1,0,1.8,0.8,1.8,1.8h1.8
			C39.1,35,39.1,34.8,39.1,34.6z"/>
		<path class="st1" d="M35.1,31.7c-1.4,0.2-2.5,1.2-2.9,2.6c-0.1,0.3-0.1,0.6-0.1,0.9h1.8c0-1,0.8-1.8,1.8-1.8v-1.8
			C35.4,31.6,35.2,31.7,35.1,31.7z"/>
		<rect x="32.1" y="35.2" class="st1" width="1.8" height="3.5"/>
		<rect x="32.1" y="36.9" class="st1" width="1.8" height="1.8"/>
	</g>
</g>
<path class="st1" d="M39,20.5c0,2.5-1.6,4.7-3.9,5.6C34.2,28.4,32,30,29.5,30c-1.8,0-3.4-0.8-4.6-2.1c-1.1,1.3-2.8,2.1-4.6,2.1
	c-2.5,0-4.7-1.5-5.6-3.9c-0.5-0.2-1-0.4-1.4-0.8c-1.6-1.1-2.5-2.9-2.5-4.9c0-2.6,1.7-4.9,4.1-5.6c0,0.1-0.1,0.1-0.1,0.2
	c-0.3,0.7-0.4,3.5-0.4,3.5c-0.4,0.5-0.7,1.2-0.7,2c0,0.7,0.2,1.4,0.7,2c0.5,0.7,1.3,1.1,2.2,1.2h0.6V24c0,1.7,1.4,3.1,3.1,3.1
	c1.6,0,3-1.2,3.1-2.8v0c0,0,0-0.1,0-0.1c0-0.1,0-0.1,0-0.2l2.8,0v0.2c0.1,1.7,1.5,3,3.1,3c1.7,0,3.1-1.4,3.1-3.1v-0.4h0.5
	c0.9,0,1.8-0.5,2.3-1.2c0.4-0.5,0.7-1.2,0.7-2s-0.2-1.4-0.7-2c0,0-0.2-2.8-0.4-3.5c0-0.1-0.1-0.1-0.1-0.2c0.5,0.2,1.1,0.5,1.6,0.8
	C38,16.8,39,18.6,39,20.5z"/>
</svg>
