<?xml version="1.0" encoding="utf-8"?>
<!-- Generator: Adobe Illustrator 22.0.0, SVG Export Plug-In . SVG Version: 6.00 Build 0)  -->
<svg version="1.1" id="Layer_1" xmlns="http://www.w3.org/2000/svg" xmlns:xlink="http://www.w3.org/1999/xlink" x="0px" y="0px"
	 viewBox="0 0 50 50" style="enable-background:new 0 0 50 50;" xml:space="preserve">
<style type="text/css">
	.st0{fill:none;}
	.st1{fill:#00FFA5;}
	.st2{fill:url(#SVGID_1_);}
</style>
<rect class="st0" width="50" height="50"/>
<path class="st1" d="M36.293,16.339c-0.871-0.633-1.93-1.013-3.075-1.048H33.2c-0.053-0.004-0.106-0.004-0.16-0.004
	c0,0.002-0.001,0.005-0.001,0.007c0,0,0,0,0.001,0v2.09c0.053,0,0.107,0,0.16,0.004h0.018c1.841,0.096,3.309,1.621,3.309,3.483
	c0,1.868-1.477,3.392-3.323,3.479h-0.186c0,1.923-1.564,3.487-3.487,3.487c-1.863,0-3.388-1.468-3.484-3.309V24.51
	c0.004-0.053,0.004-0.106,0.004-0.16v-0.003c-0.002-0.001-0.005-0.001-0.007-0.002v0.005h-2.09v-0.004
	c-0.002,0.002-0.004,0.004-0.007,0.005c0,0.053,0,0.106,0.003,0.158v0.018c-0.096,1.841-1.621,3.309-3.484,3.309
	c-1.923,0-3.487-1.564-3.487-3.487h-0.242c-1.82-0.118-3.265-1.632-3.265-3.479c0-1.923,1.564-3.487,3.487-3.487v-2.097
	c-3.078,0-5.584,2.506-5.584,5.584c0,1.866,0.921,3.522,2.332,4.532c0.449,0.326,0.95,0.584,1.485,0.763
	c0.756,2.188,2.833,3.768,5.274,3.768c1.866,0,3.522-0.922,4.532-2.332c1.01,1.411,2.666,2.332,4.532,2.332
	c2.442,0,4.52-1.581,5.276-3.771c2.215-0.742,3.818-2.833,3.818-5.293C38.625,19.005,37.704,17.349,36.293,16.339z"/>
<path class="st1" d="M35.115,17.668v6.025c-0.537,0.398-1.194,0.643-1.905,0.675h-0.185c0,0.061,0,0.121-0.004,0.178v-6.878
	c0-1.923-1.568-3.487-3.491-3.487c-1.859,0-3.384,1.468-3.483,3.31v0.018c0.003,0.053,0.003,0.106,0.003,0.16
	c0,0.053,0,0.107-0.003,0.16v-0.16h-0.004v6.7H23.96c0-0.053,0-0.106-0.003-0.16c-0.004,0.054-0.004,0.107-0.004,0.16
	c0,0.054,0,0.107,0.004,0.16v0.018c-0.004,0.043-0.007,0.085-0.011,0.128v-7.006c0-0.054,0-0.107,0.007-0.16V17.49
	c-0.1-1.842-1.624-3.31-3.487-3.31c-1.919,0-3.483,1.564-3.483,3.487v6.7h-0.238c-0.697-0.046-1.333-0.292-1.859-0.682v-6.018
	c0-0.747,0.145-1.461,0.416-2.112c0.832-2.033,2.836-3.473,5.165-3.473c1.866,0,3.523,0.921,4.532,2.332
	c1.013-1.411,2.666-2.332,4.532-2.332c2.332,0,4.334,1.436,5.165,3.469C34.965,16.206,35.115,16.921,35.115,17.668z"/>
<linearGradient id="SVGID_1_" gradientUnits="userSpaceOnUse" x1="25.0001" y1="24.6736" x2="25.0001" y2="12.0832">
	<stop  offset="0.2025" style="stop-color:#FFFFFF;stop-opacity:0.75"/>
	<stop  offset="1" style="stop-color:#FFFFFF;stop-opacity:0"/>
</linearGradient>
<path class="st2" d="M35.115,17.668v6.025c-0.537,0.398-1.194,0.643-1.905,0.675h-0.185c0,0.061,0,0.121-0.004,0.178v-6.878
	c0-1.923-1.568-3.487-3.491-3.487c-1.859,0-3.384,1.468-3.483,3.31v0.018c0.003,0.053,0.003,0.106,0.003,0.16
	c0,0.053,0,0.107-0.003,0.16v-0.16h-0.004v6.7H23.96c0-0.053,0-0.106-0.003-0.16c-0.004,0.054-0.004,0.107-0.004,0.16
	c0,0.054,0,0.107,0.004,0.16v0.018c-0.004,0.043-0.007,0.085-0.011,0.128v-7.006c0-0.054,0-0.107,0.007-0.16V17.49
	c-0.1-1.842-1.624-3.31-3.487-3.31c-1.919,0-3.483,1.564-3.483,3.487v6.7h-0.238c-0.697-0.046-1.333-0.292-1.859-0.682v-6.018
	c0-0.747,0.145-1.461,0.416-2.112c0.832-2.033,2.836-3.473,5.165-3.473c1.866,0,3.523,0.921,4.532,2.332
	c1.013-1.411,2.666-2.332,4.532-2.332c2.332,0,4.334,1.436,5.165,3.469C34.965,16.206,35.115,16.921,35.115,17.668z"/>
<path class="st1" d="M18.236,34.445c-0.211-1.383-1.222-2.506-2.575-2.86c-0.254-0.066-0.515-0.099-0.777-0.108V31.47h-0.115h-0.115
	v0.009c-0.139,0.005-0.278,0.011-0.417,0.032c-1.383,0.21-2.506,1.221-2.861,2.574c-0.066,0.253-0.099,0.515-0.108,0.777H11.26
	v0.115v0.115h0.009c0.005,0.14,0.011,0.28,0.031,0.417c0.21,1.383,1.222,2.506,2.576,2.861c0.254,0.066,0.515,0.099,0.777,0.108
	v0.007h0.115h0.115v-0.009c0.139-0.005,0.278-0.011,0.416-0.032c0.373-0.057,0.725-0.175,1.05-0.34v0.381h1.927v-3.394v-0.114
	v-0.001v-0.114v-0.001h-0.009C18.263,34.723,18.256,34.583,18.236,34.445z M13.187,34.978c0-0.872,0.709-1.581,1.582-1.581
	s1.581,0.709,1.581,1.581v0.001c0,0.872-0.709,1.581-1.581,1.581S13.187,35.85,13.187,34.978z"/>
<path class="st1" d="M31.012,34.445c-0.21-1.383-1.221-2.506-2.574-2.86c-0.255-0.066-0.516-0.099-0.777-0.108V31.47h-0.115H27.43
	v0.009c-0.139,0.005-0.278,0.011-0.417,0.032c-0.788,0.12-1.485,0.505-2.01,1.06c-0.441-0.466-1.007-0.816-1.655-0.986
	c-0.254-0.066-0.515-0.099-0.777-0.108V31.47h-0.115H22.34v0.009c-0.139,0.005-0.278,0.011-0.417,0.032
	c-1.383,0.21-2.506,1.221-2.861,2.574c-0.066,0.253-0.099,0.515-0.108,0.777h-0.007v0.115v0.115v3.394h1.927v-3.394v-0.115
	c0-0.872,0.709-1.581,1.582-1.581s1.581,0.709,1.581,1.581v0.115v3.394h1.927v-3.394v-0.115c0-0.872,0.709-1.581,1.582-1.581
	s1.581,0.709,1.581,1.581v0.115v3.394h1.927v-3.394v-0.115v-0.115h-0.009C31.039,34.721,31.033,34.579,31.012,34.445z"/>
<path class="st1" d="M38.731,34.862c-0.005-0.142-0.011-0.283-0.032-0.417c-0.21-1.382-1.221-2.505-2.574-2.86
	c-0.255-0.066-0.516-0.099-0.777-0.108V31.47h-0.115h-0.115v0.009c-0.139,0.005-0.278,0.011-0.417,0.032
	c-1.383,0.21-2.506,1.221-2.861,2.574c-0.066,0.255-0.099,0.516-0.108,0.777h-0.007v0.115v0.115v1.467v1.927h1.928v-0.386
	c0.218,0.11,0.445,0.207,0.688,0.27c0.254,0.066,0.515,0.099,0.777,0.108v0.007h0.115h0.115v-0.009
	c0.139-0.005,0.278-0.011,0.417-0.032c1.383-0.21,2.506-1.221,2.86-2.575c0.066-0.254,0.099-0.515,0.108-0.777h0.007v-0.115v-0.115
	H38.731z M33.651,34.978c0-0.872,0.709-1.581,1.581-1.581s1.581,0.709,1.581,1.581s-0.709,1.582-1.581,1.582
	S33.651,35.85,33.651,34.978z"/>
</svg>
