<?xml version="1.0" encoding="utf-8"?>
<!-- Generator: Adobe Illustrator 22.0.0, SVG Export Plug-In . SVG Version: 6.00 Build 0)  -->
<svg version="1.1" id="Layer_1" xmlns="http://www.w3.org/2000/svg" xmlns:xlink="http://www.w3.org/1999/xlink" x="0px" y="0px"
	 viewBox="0 0 50 50" style="enable-background:new 0 0 50 50;" xml:space="preserve">
<style type="text/css">
	.st0{fill:none;}
	.st1{fill:#1D1D1B;}
	.st2{fill:#FF6E00;}
</style>
<rect class="st0" width="50" height="50"/>
<g>
	<path class="st1" d="M15.781,26.098c-0.678,0-1.156,0.235-1.419,0.699c-0.196,0.342-0.291,0.86-0.291,1.583
		c0,0.724,0.095,1.241,0.291,1.583c0.263,0.464,0.741,0.699,1.419,0.699c0.646,0,1.1-0.172,1.349-0.513
		c0.155-0.213,0.23-0.509,0.23-0.905v-0.138h-0.833v0.138c0,0.192-0.031,0.336-0.093,0.429c-0.107,0.156-0.327,0.235-0.652,0.235
		c-0.355,0-0.587-0.112-0.709-0.342c-0.114-0.216-0.171-0.615-0.171-1.187s0.058-0.971,0.171-1.186
		c0.122-0.23,0.354-0.342,0.709-0.342c0.325,0,0.544,0.079,0.651,0.234c0.063,0.093,0.094,0.236,0.094,0.428v0.139h0.833v-0.139
		c0-0.391-0.078-0.694-0.23-0.904C16.88,26.27,16.426,26.098,15.781,26.098z"/>
	<path class="st1" d="M21.426,27.042c-0.617,0-1.028,0.19-1.222,0.565c-0.115,0.224-0.17,0.631-0.17,1.245s0.056,1.021,0.17,1.241
		c0.194,0.377,0.605,0.568,1.222,0.568s1.028-0.191,1.222-0.568c0.115-0.221,0.17-0.627,0.17-1.241s-0.056-1.021-0.17-1.246
		C22.454,27.232,22.043,27.042,21.426,27.042z M20.88,27.95c0.027-0.059,0.108-0.236,0.546-0.236s0.52,0.178,0.546,0.236
		c0.039,0.085,0.085,0.312,0.085,0.902c0,0.531-0.047,0.756-0.086,0.851c-0.053,0.123-0.167,0.288-0.545,0.288
		c-0.438,0-0.52-0.18-0.546-0.24c-0.039-0.084-0.085-0.31-0.085-0.898C20.795,28.261,20.841,28.035,20.88,27.95z"/>
	<path class="st1" d="M24.543,27.017c-0.417,0-0.718,0.073-0.923,0.225c-0.227,0.171-0.341,0.449-0.341,0.826
		c0,0.36,0.125,0.635,0.37,0.813c0.166,0.124,0.44,0.227,0.841,0.315c0.25,0.056,0.356,0.103,0.4,0.132
		c0.09,0.061,0.132,0.149,0.132,0.28c0,0.146-0.037,0.25-0.109,0.307c-0.05,0.038-0.159,0.084-0.394,0.084
		c-0.188,0-0.32-0.037-0.396-0.114c-0.074-0.071-0.111-0.198-0.111-0.379v-0.137h-0.778v0.137c0,0.403,0.113,0.705,0.336,0.896
		c0.209,0.173,0.528,0.261,0.949,0.261c0.415,0,0.717-0.074,0.922-0.228c0.229-0.172,0.346-0.448,0.346-0.823
		c0-0.357-0.126-0.632-0.374-0.813c-0.175-0.13-0.454-0.236-0.856-0.326c-0.284-0.06-0.369-0.103-0.395-0.119
		c-0.054-0.034-0.125-0.1-0.125-0.282c0-0.156,0.036-0.262,0.106-0.312c0.048-0.036,0.157-0.078,0.4-0.078
		c0.185,0,0.312,0.037,0.38,0.109c0.065,0.069,0.099,0.202,0.099,0.384v0.137h0.782v-0.137c0-0.403-0.108-0.702-0.32-0.89
		C25.279,27.106,24.963,27.017,24.543,27.017z"/>
	<path class="st1" d="M27.529,27.017c-0.418,0-0.719,0.073-0.924,0.225c-0.227,0.171-0.342,0.449-0.342,0.826
		c0,0.36,0.125,0.634,0.371,0.813c0.165,0.124,0.439,0.227,0.84,0.315c0.251,0.056,0.357,0.103,0.4,0.131
		c0.091,0.061,0.133,0.15,0.133,0.281c0,0.146-0.037,0.25-0.109,0.307c-0.051,0.038-0.158,0.084-0.395,0.084
		c-0.188,0-0.32-0.037-0.396-0.114c-0.073-0.071-0.11-0.198-0.11-0.379v-0.137h-0.779v0.137c0,0.403,0.113,0.705,0.336,0.896
		c0.209,0.173,0.529,0.261,0.949,0.261c0.416,0,0.717-0.074,0.922-0.228c0.23-0.172,0.346-0.448,0.346-0.823
		c0-0.357-0.126-0.631-0.373-0.814c-0.174-0.129-0.455-0.236-0.855-0.325c-0.285-0.061-0.37-0.103-0.396-0.119
		c-0.054-0.034-0.126-0.1-0.126-0.282c0-0.156,0.037-0.262,0.106-0.313c0.049-0.035,0.157-0.077,0.401-0.077
		c0.184,0,0.312,0.037,0.379,0.109c0.064,0.069,0.1,0.202,0.1,0.384v0.137h0.781v-0.137c0-0.403-0.107-0.702-0.32-0.89
		C28.265,27.106,27.948,27.017,27.529,27.017z"/>
	<polygon class="st1" points="29.217,30.662 30.047,30.662 30.047,28.777 31.768,28.777 31.768,27.982 30.047,27.982 30.047,26.896 
		32.027,26.896 32.027,26.098 29.217,26.098 	"/>
	<rect x="32.465" y="27.301" class="st1" width="0.76" height="3.361"/>
	<rect x="32.451" y="26.098" class="st1" width="0.787" height="0.894"/>
	<path class="st1" d="M34.487,29.873c-0.006-0.007-0.062-0.081-0.062-0.438v-1.698h0.771v-0.698h-0.771v-0.593h-0.761v0.593v0.698
		v1.698c0,0.44,0.059,0.718,0.186,0.874c0.195,0.237,0.59,0.353,1.207,0.353H35.2v-0.685h-0.143
		C34.615,29.978,34.508,29.896,34.487,29.873z"/>
	<path class="st1" d="M19.611,27.057l-0.131-0.011c-0.029-0.002-0.061-0.004-0.095-0.004c-0.232,0-0.51,0.062-0.842,0.186v-0.121
		H18.25h-0.467v3.556h0.761v-2.678c0,0,0.556-0.243,0.95-0.171l0,0l0.118,0.021v-0.778H19.611z"/>
</g>
<path class="st2" d="M35.016,24.335h-3.092c-0.438,0-0.66-0.346-0.688-0.389c-0.001-0.004-0.002-0.005-0.002-0.005l-2.25-3.856
	h-6.113c0,0-0.476-0.028-0.215-0.477l1.696-2.908h6.083c0,0,0.463,0.015,0.707,0.435l4,6.855c0.004,0.007,0.009,0.015,0.012,0.022
	C35.289,24.273,35.016,24.335,35.016,24.335z"/>
<path class="st2" d="M29.1,14.42h-4.793l-0.704,1.207H20.09c-0.344,0-0.196-0.29-0.188-0.309c0-0.001,0-0.001,0-0.001l1.9-3.257
	l0.438-0.752l0.001-0.003c0.019-0.03,0.179-0.271,0.498-0.271h4.46c0,0,0.39,0.01,0.568,0.316l1.578,2.705l0.022,0.039
	c0,0,0.002,0.004,0.006,0.012C29.402,14.164,29.502,14.42,29.1,14.42z"/>
<path class="st2" d="M22.173,21.655C22.172,21.656,22.172,21.656,22.173,21.655l-1.243,2.13c-0.319,0.549-0.878,0.55-0.878,0.55
	h-4.927c0,0-0.416-0.114-0.14-0.586l0.689-1.182l0.819-1.403l2.474-4.242c0,0,0.002-0.004,0.006-0.01
	c0.028-0.043,0.153-0.212,0.366-0.212h3.637l-2.604,4.464h1.515C22.407,21.164,22.187,21.628,22.173,21.655z"/>
<g>
	<rect x="31.758" y="32.273" class="st2" width="0.988" height="0.995"/>
	<g>
		<path class="st2" d="M34.35,36.854c-0.008-0.009-0.078-0.102-0.078-0.548v-2.13h0.967v-0.875h-0.967v-0.743h-0.954v0.743v0.875
			v2.13c0,0.552,0.075,0.9,0.234,1.096c0.243,0.298,0.737,0.442,1.511,0.442h0.181v-0.858h-0.181
			C34.511,36.986,34.377,36.885,34.35,36.854z"/>
		<rect x="31.775" y="33.63" class="st2" width="0.954" height="4.215"/>
		<path class="st2" d="M11.859,32.273l-1.666,5.557h1.083l0.347-1.194h1.596l0.347,1.194h1.083l-1.665-5.557H11.859z M11.906,35.665
			l0.517-1.79l0.519,1.79H11.906z"/>
		<path class="st2" d="M17.823,36.78c-0.561,0.254-1,0.324-1.294,0.202c-0.152-0.062-0.249-0.195-0.298-0.41
			c-0.025-0.108-0.056-0.37-0.056-0.994v-2.255h-0.954v2.255c0,0.646,0.038,1.088,0.115,1.348c0.129,0.45,0.418,0.751,0.858,0.891
			c0.2,0.064,0.408,0.097,0.621,0.097c0.169,0,0.345-0.021,0.519-0.063c0.169-0.039,0.408-0.126,0.726-0.266l-0.002,0.245h0.724
			v-4.51h-0.958L17.823,36.78L17.823,36.78z"/>
		<path class="st2" d="M21.954,33.392c-0.32-0.067-0.607-0.102-0.856-0.102c-0.774,0-1.289,0.245-1.532,0.726
			c-0.143,0.284-0.213,0.804-0.213,1.589c0,0.64,0.038,1.075,0.116,1.332c0.129,0.445,0.418,0.742,0.858,0.881
			c0.203,0.064,0.412,0.096,0.624,0.096c0.17,0,0.345-0.021,0.52-0.062c0.168-0.039,0.408-0.126,0.728-0.264l-0.003,0.243h0.718
			v-5.557h-0.958v1.118H21.954z M21.098,34.149c0.219,0,0.507,0.04,0.856,0.117v2.526c-0.561,0.251-0.998,0.321-1.295,0.2
			c-0.154-0.062-0.25-0.193-0.296-0.405c-0.026-0.108-0.056-0.366-0.056-0.983c0-0.757,0.058-1.042,0.107-1.15
			C20.446,34.379,20.549,34.149,21.098,34.149z"/>
		<path class="st2" d="M29.467,33.295c-0.773,0-1.289,0.238-1.531,0.71c-0.145,0.28-0.214,0.792-0.214,1.565
			c0,0.772,0.069,1.283,0.214,1.561c0.242,0.474,0.758,0.714,1.531,0.714c1.422,0,1.721-0.775,1.721-1.427v-0.171h-0.973v0.171
			c0,0.271-0.084,0.583-0.748,0.583c-0.549,0-0.65-0.226-0.684-0.301c-0.049-0.106-0.107-0.39-0.107-1.13
			c0-0.744,0.059-1.028,0.107-1.135c0.033-0.074,0.135-0.297,0.684-0.297c0.282,0,0.484,0.049,0.604,0.144
			c0.105,0.088,0.158,0.229,0.158,0.436v0.171h0.959v-0.171C31.188,34.068,30.889,33.295,29.467,33.295z"/>
		<path class="st2" d="M25.5,33.327c-0.576,0-1.092,0.138-1.535,0.409l-0.062,0.038v1.029l0.219-0.179
			c0.391-0.318,0.834-0.48,1.318-0.48c0.309,0,0.715,0.087,0.75,0.819l-1.172,0.158c-1.019,0.137-1.535,0.637-1.535,1.483
			c0,0.397,0.136,0.723,0.405,0.967c0.268,0.241,0.637,0.363,1.098,0.363c0.496,0,0.998-0.203,1.3-0.591l0.004,0.493h0.859v-2.832
			C27.15,33.907,26.58,33.327,25.5,33.327z M26.195,35.755v0.266c0,0.324-0.098,0.583-0.299,0.792
			c-0.198,0.206-0.443,0.306-0.75,0.306c-0.218,0-0.385-0.052-0.511-0.161c-0.121-0.103-0.181-0.234-0.181-0.4
			c0-0.236,0.062-0.393,0.187-0.478c0.145-0.097,0.369-0.166,0.665-0.207L26.195,35.755z"/>
		<polygon class="st2" points="38.783,33.295 37.822,35.9 36.845,33.323 36.834,33.295 35.814,33.295 37.312,37.263 36.682,38.965 
			37.701,38.965 39.784,33.353 39.807,33.295 		"/>
	</g>
</g>
</svg>
