<?xml version="1.0" encoding="utf-8"?>
<!-- Generator: Adobe Illustrator 16.0.0, SVG Export Plug-In . SVG Version: 6.00 Build 0)  -->
<!DOCTYPE svg PUBLIC "-//W3C//DTD SVG 1.1//EN" "http://www.w3.org/Graphics/SVG/1.1/DTD/svg11.dtd">
<svg version="1.1" id="Layer_1" xmlns="http://www.w3.org/2000/svg" xmlns:xlink="http://www.w3.org/1999/xlink" x="0px" y="0px"
	 width="50px" height="50px" viewBox="0 0 50 50" enable-background="new 0 0 50 50" xml:space="preserve">
<rect fill="none" width="50" height="50"/>
<rect fill="none" width="50" height="50"/>
<g>
	<g>
		<path d="M16.04,18.08c2.294,0,4.155,1.861,4.155,4.155h4.156c0-0.428-0.032-0.85-0.095-1.26c-0.501-3.291-2.932-5.947-6.102-6.778
			c-0.675-0.178-1.384-0.272-2.115-0.272c-0.428,0-0.85,0.032-1.261,0.095c-1.041,0.158-2.019,0.511-2.895,1.018v-1.112H7.729v4.155
			v4.155l0,0c0,0.429,0.032,0.85,0.095,1.261c0.501,3.291,2.932,5.947,6.102,6.778c0.675,0.178,1.384,0.272,2.115,0.272l0,0
			c0.428,0,0.85-0.032,1.26-0.095c3.291-0.501,5.947-2.932,6.778-6.102c0.178-0.676,0.272-1.384,0.272-2.114h-4.156
			c0,2.294-1.86,4.155-4.155,4.155l0,0c-2.295,0-4.156-1.861-4.156-4.156l0,0C11.884,19.941,13.745,18.08,16.04,18.08z"/>
		<path d="M42.342,20.976c-0.501-3.291-2.932-5.947-6.102-6.778c-0.675-0.178-1.384-0.272-2.114-0.272
			c-0.429,0-0.85,0.032-1.261,0.095c-3.291,0.501-5.947,2.932-6.778,6.102c-0.178,0.675-0.272,1.384-0.272,2.114l0,0
			c0,0.429,0.032,0.85,0.095,1.261c0.501,3.291,2.932,5.947,6.102,6.778c0.676,0.178,1.384,0.272,2.115,0.272l0,0
			c0.428,0,0.85-0.032,1.26-0.095c1.042-0.158,2.019-0.511,2.896-1.018v1.112h4.155v-8.312
			C42.437,21.808,42.404,21.387,42.342,20.976z M38.281,22.236c0,2.294-1.861,4.155-4.155,4.155l0,0
			c-2.295,0-4.156-1.861-4.156-4.156l0,0c0-2.294,1.861-4.155,4.156-4.155C36.42,18.08,38.281,19.941,38.281,22.236L38.281,22.236z"
			/>
	</g>
	<g>
		<path d="M16.637,33.998c-0.131-0.857-0.764-1.55-1.59-1.766c-0.176-0.047-0.361-0.071-0.551-0.071
			c-0.112,0-0.222,0.009-0.329,0.024c-0.857,0.131-1.549,0.764-1.766,1.59c-0.046,0.176-0.071,0.36-0.071,0.551l0,0
			c0,0.112,0.008,0.222,0.024,0.329c0.131,0.857,0.764,1.549,1.59,1.766c0.176,0.046,0.361,0.071,0.551,0.071l0,0
			c0.111,0,0.221-0.009,0.328-0.024c0.271-0.042,0.526-0.134,0.754-0.266v0.29h1.083v-2.166
			C16.661,34.215,16.653,34.105,16.637,33.998z M14.496,35.409L14.496,35.409c-0.598,0-1.083-0.484-1.083-1.083l0,0
			c0-0.598,0.485-1.082,1.083-1.082c0.598,0,1.083,0.484,1.083,1.082l0,0C15.579,34.925,15.094,35.409,14.496,35.409z"/>
		<path d="M27.192,33.998c-0.131-0.857-0.764-1.55-1.589-1.766c-0.176-0.047-0.361-0.071-0.551-0.071
			c-0.112,0-0.222,0.009-0.329,0.024c-0.857,0.131-1.549,0.764-1.766,1.59c-0.046,0.176-0.071,0.36-0.071,0.551l0,0
			c0,0.112,0.008,0.222,0.024,0.329c0.131,0.857,0.764,1.549,1.59,1.766c0.176,0.047,0.36,0.071,0.551,0.071l0,0
			c0.111,0,0.221-0.009,0.328-0.024c0.271-0.042,0.526-0.134,0.754-0.266v0.29h1.083v-2.166
			C27.218,34.215,27.209,34.105,27.192,33.998z M25.052,35.409L25.052,35.409c-0.598,0-1.083-0.484-1.083-1.083l0,0
			c0-0.598,0.485-1.082,1.083-1.082c0.598,0,1.083,0.484,1.083,1.082l0,0C26.135,34.925,25.65,35.409,25.052,35.409z"/>
		<path d="M9.895,35.409L9.895,35.409c-0.598,0-1.083-0.484-1.083-1.083h0c0-0.598,0.485-1.082,1.083-1.082
			c0.598,0,1.083,0.484,1.083,1.082h1.083c0-0.111-0.009-0.221-0.025-0.328c-0.13-0.857-0.764-1.55-1.59-1.766
			c-0.176-0.047-0.36-0.071-0.551-0.071c-0.112,0-0.222,0.009-0.329,0.024c-0.271,0.042-0.526,0.133-0.754,0.266v-0.29H7.729v1.083
			v1.082l0,0c0,0.112,0.008,0.222,0.025,0.329c0.13,0.857,0.764,1.549,1.589,1.766c0.176,0.046,0.361,0.071,0.551,0.071l0,0
			c0.111,0,0.221-0.009,0.328-0.024c0.857-0.131,1.55-0.765,1.766-1.59c0.046-0.177,0.071-0.361,0.071-0.552h-1.083
			C10.977,34.925,10.492,35.409,9.895,35.409z"/>
		<path d="M20.18,32.161v0.29c-0.165-0.095-0.343-0.169-0.532-0.219c-0.176-0.047-0.36-0.071-0.551-0.071
			c-0.111,0-0.221,0.009-0.328,0.024c-0.858,0.131-1.55,0.764-1.766,1.59c-0.046,0.176-0.071,0.36-0.071,0.551l0,0
			c0,0.112,0.008,0.222,0.024,0.329c0.13,0.857,0.764,1.549,1.59,1.766c0.176,0.046,0.36,0.071,0.551,0.071l0,0
			c0.112,0,0.221-0.009,0.329-0.024c0.857-0.131,1.549-0.765,1.766-1.59c0.046-0.177,0.071-0.361,0.071-0.552H20.18
			c0,0.599-0.484,1.083-1.083,1.083l0,0c-0.598,0-1.083-0.484-1.083-1.083l0,0c0-0.598,0.485-1.082,1.083-1.082
			c0.598,0,1.083,0.484,1.083,1.082h1.083v-1.082v-1.083H20.18z"/>
		<path d="M31.794,33.998c-0.13-0.857-0.764-1.55-1.59-1.766c-0.176-0.047-0.36-0.071-0.551-0.071c-0.111,0-0.221,0.009-0.328,0.024
			c-0.857,0.131-1.549,0.764-1.766,1.59c-0.047,0.176-0.071,0.36-0.071,0.551v2.166h1.083v-2.166c0-0.598,0.484-1.082,1.082-1.082
			s1.083,0.484,1.083,1.082v2.166h1.083v-2.166C31.819,34.215,31.811,34.105,31.794,33.998z"/>
		<path d="M35.338,35.409c-0.094,0-0.185-0.012-0.271-0.034c-0.466-0.12-0.812-0.544-0.812-1.049h1.083V35.409z"/>
		<path d="M35.338,34.326c0,0.197-0.053,0.383-0.146,0.542c-0.187,0.323-0.537,0.541-0.938,0.541v1.083
			c0.111,0,0.222-0.009,0.328-0.024c0.857-0.131,1.55-0.765,1.767-1.59c0.001-0.004,0.001-0.007,0.002-0.01
			c0.045-0.173,0.068-0.354,0.068-0.542H35.338z"/>
		<path d="M33.927,32.186c-0.857,0.131-1.55,0.764-1.767,1.59c-0.046,0.176-0.071,0.36-0.071,0.551h1.083
			c0-0.598,0.485-1.082,1.083-1.082v-1.083C34.144,32.161,34.033,32.17,33.927,32.186z"/>
		<path d="M32.114,34.655c0.131,0.857,0.764,1.549,1.59,1.766c0.176,0.047,0.36,0.071,0.551,0.071v-1.083
			c-0.598,0-1.083-0.484-1.083-1.083H32.09C32.09,34.438,32.098,34.548,32.114,34.655z"/>
		<path d="M35.536,32.58c-0.253-0.187-0.538-0.311-0.833-0.372c-0.147-0.031-0.297-0.047-0.447-0.047h-0.001v1.082
			c0.012,0,0.023,0,0.034,0.001c0.266,0.008,0.528,0.114,0.731,0.316l0.766-0.766C35.707,32.716,35.623,32.645,35.536,32.58z"/>
		<rect x="36.691" y="32.161" width="1.082" height="4.331"/>
		<path d="M42.375,33.244h-1.083v-1.083c0.505,0,0.929,0.346,1.049,0.812C42.363,33.06,42.375,33.15,42.375,33.244z"/>
		<path d="M42.375,33.785c0,0.094-0.012,0.185-0.034,0.271c-0.12,0.467-0.544,0.812-1.049,0.812v-1.083H42.375z"/>
		<path d="M41.292,34.868c-0.094,0-0.184-0.012-0.271-0.034c-0.467-0.12-0.812-0.545-0.812-1.049h1.082V34.868z"/>
		<path d="M39.881,32.186c-0.857,0.131-1.549,0.764-1.766,1.59c-0.046,0.176-0.071,0.36-0.071,0.551h1.083
			c0-0.598,0.484-1.082,1.083-1.082v-1.083C40.098,32.161,39.988,32.17,39.881,32.186z"/>
		<path d="M38.069,34.655c0.13,0.857,0.764,1.549,1.589,1.766c0.177,0.047,0.361,0.071,0.552,0.071v-1.083
			c-0.599,0-1.083-0.484-1.083-1.083h-1.083C38.044,34.438,38.053,34.548,38.069,34.655z"/>
		<rect x="40.21" y="32.161" width="1.082" height="1.083"/>
		<rect x="41.292" y="33.244" width="1.083" height="0.541"/>
		<rect x="40.21" y="35.409" width="1.082" height="1.083"/>
		<rect x="41.292" y="35.409" width="1.083" height="1.083"/>
	</g>
</g>
</svg>
