<?xml version="1.0" encoding="utf-8"?>
<!-- Generator: Adobe Illustrator 22.0.0, SVG Export Plug-In . SVG Version: 6.00 Build 0)  -->
<svg version="1.1" id="Layer_1" xmlns="http://www.w3.org/2000/svg" xmlns:xlink="http://www.w3.org/1999/xlink" x="0px" y="0px"
	 viewBox="0 0 50 50" style="enable-background:new 0 0 50 50;" xml:space="preserve">
<style type="text/css">
	.st0{fill:none;}
	.st1{fill:#FF0000;}
</style>
<rect class="st0" width="50" height="50"/>
<rect class="st0" width="50" height="50"/>
<g>
	<g>
		<polygon class="st1" points="23.39,13.34 11.167,18.889 23.39,24.438 35.611,18.889 		"/>
	</g>
	<polygon class="st1" points="11.167,28.112 11.167,31.111 23.39,36.66 35.611,31.111 35.611,28.112 23.39,33.658 	"/>
	<polygon class="st1" points="11.167,22.001 11.167,25 23.39,30.549 35.611,25 35.611,22.001 23.39,27.547 	"/>
	<polygon class="st1" points="11.167,18.889 11.167,22.001 14.245,23.398 14.245,20.286 	"/>
	<polygon class="st1" points="33.574,29.037 35.611,28.112 35.611,25 33.561,25.932 	"/>
</g>
<g>
	<g>
		<path class="st1" d="M37.752,29.248c0.025-0.042,0.057-0.08,0.094-0.117c0.111-0.113,0.248-0.17,0.408-0.17
			c0.158,0,0.295,0.057,0.408,0.17s0.17,0.249,0.17,0.409v1.504c0,0.022-0.008,0.04-0.021,0.056
			c-0.016,0.015-0.033,0.021-0.055,0.021H36.75c-0.023,0-0.041-0.007-0.057-0.021c-0.014-0.016-0.021-0.033-0.021-0.056V29.54
			c0-0.16,0.057-0.296,0.17-0.409s0.25-0.17,0.408-0.17c0.16,0,0.297,0.057,0.41,0.17C37.697,29.168,37.729,29.206,37.752,29.248z
			 M37.676,29.54c0-0.117-0.043-0.218-0.125-0.301s-0.184-0.124-0.301-0.124s-0.217,0.041-0.299,0.124
			c-0.084,0.083-0.125,0.184-0.125,0.301v1.427h0.85V29.54z M38.678,30.967V29.54c0-0.117-0.041-0.218-0.123-0.301
			c-0.084-0.083-0.184-0.124-0.301-0.124s-0.217,0.041-0.301,0.124c-0.082,0.083-0.123,0.184-0.123,0.301v1.427
			C37.83,30.967,38.678,30.967,38.678,30.967z"/>
		<path class="st1" d="M36.672,28.575v-2.007c0-0.021,0.008-0.04,0.021-0.055c0.016-0.015,0.033-0.022,0.057-0.022
			c0.02,0,0.039,0.008,0.055,0.022c0.014,0.015,0.021,0.033,0.021,0.055v1.93h0.85v-1.93c0-0.021,0.006-0.04,0.021-0.055
			s0.033-0.022,0.055-0.022s0.039,0.008,0.055,0.022s0.023,0.033,0.023,0.055v1.93h0.848v-1.93c0-0.021,0.008-0.04,0.023-0.055
			c0.014-0.015,0.033-0.022,0.055-0.022s0.039,0.008,0.055,0.022c0.014,0.015,0.021,0.033,0.021,0.055v2.007
			c0,0.021-0.008,0.04-0.021,0.055c-0.016,0.015-0.033,0.022-0.055,0.022H36.75c-0.023,0-0.041-0.008-0.057-0.022
			C36.68,28.615,36.672,28.597,36.672,28.575z"/>
		<path class="st1" d="M36.672,26.105V24.1c0-0.021,0.008-0.04,0.021-0.055c0.016-0.016,0.033-0.022,0.057-0.022
			c0.02,0,0.039,0.007,0.055,0.022c0.014,0.015,0.021,0.033,0.021,0.055v1.929h0.85V24.1c0-0.021,0.006-0.04,0.021-0.055
			c0.016-0.016,0.033-0.022,0.055-0.022s0.039,0.007,0.055,0.022s0.023,0.033,0.023,0.055v1.929h0.848V24.1
			c0-0.021,0.008-0.04,0.023-0.055c0.014-0.016,0.033-0.022,0.055-0.022s0.039,0.007,0.055,0.022
			c0.014,0.015,0.021,0.033,0.021,0.055v2.006c0,0.022-0.008,0.04-0.021,0.055c-0.016,0.016-0.033,0.022-0.055,0.022H36.75
			c-0.023,0-0.041-0.007-0.057-0.022C36.68,26.146,36.672,26.128,36.672,26.105z"/>
		<path class="st1" d="M36.672,21.63c0-0.021,0.008-0.039,0.021-0.055c0.016-0.015,0.033-0.022,0.057-0.022
			c0.02,0,0.039,0.008,0.055,0.022c0.014,0.016,0.021,0.033,0.021,0.055v1.505c0,0.117,0.041,0.218,0.125,0.301
			c0.082,0.082,0.182,0.124,0.299,0.124s0.219-0.042,0.301-0.124c0.082-0.083,0.125-0.184,0.125-0.301v-1.003
			c0-0.159,0.057-0.296,0.168-0.409c0.113-0.113,0.25-0.17,0.41-0.17c0.158,0,0.295,0.057,0.408,0.17s0.17,0.25,0.17,0.409v1.505
			c0,0.021-0.008,0.04-0.021,0.055c-0.016,0.015-0.033,0.022-0.055,0.022s-0.041-0.008-0.055-0.022
			c-0.016-0.015-0.023-0.033-0.023-0.055v-1.505c0-0.117-0.041-0.218-0.123-0.3c-0.084-0.083-0.184-0.125-0.301-0.125
			s-0.217,0.042-0.301,0.125c-0.082,0.082-0.123,0.183-0.123,0.3v1.003c0,0.159-0.057,0.296-0.17,0.409s-0.25,0.17-0.41,0.17
			c-0.158,0-0.295-0.057-0.408-0.17s-0.17-0.25-0.17-0.409V21.63z"/>
		<path class="st1" d="M36.75,21.244c-0.023,0-0.041-0.007-0.057-0.022c-0.014-0.015-0.021-0.033-0.021-0.055
			s0.008-0.04,0.021-0.055c0.016-0.015,0.033-0.022,0.057-0.022h2.006c0.021,0,0.039,0.008,0.055,0.022
			c0.014,0.015,0.021,0.033,0.021,0.055s-0.008,0.04-0.021,0.055c-0.016,0.016-0.033,0.022-0.055,0.022H36.75z"/>
	</g>
	<g>
		<path class="st1" d="M38.178,18.271c0.01,0,0.018,0.003,0.023,0.009s0.01,0.014,0.01,0.023s-0.004,0.017-0.01,0.023
			c-0.002,0.002-0.004,0.003-0.004,0.004l-0.412,0.412v0.38h0.393c0.01,0,0.018,0.003,0.023,0.009s0.01,0.014,0.01,0.023
			s-0.004,0.017-0.01,0.023c-0.006,0.007-0.014,0.009-0.023,0.009h-0.852c-0.008,0-0.016-0.002-0.023-0.009
			c-0.006-0.006-0.01-0.014-0.01-0.023v-0.639c0-0.067,0.025-0.125,0.072-0.173c0.049-0.048,0.105-0.072,0.174-0.072
			s0.127,0.024,0.174,0.072c0.049,0.048,0.072,0.106,0.072,0.173v0.133l0.369-0.37C38.16,18.274,38.168,18.271,38.178,18.271z
			 M37.719,18.517c0-0.049-0.018-0.092-0.053-0.127s-0.076-0.053-0.127-0.053c-0.049,0-0.092,0.018-0.127,0.053
			s-0.053,0.078-0.053,0.127v0.606h0.359L37.719,18.517L37.719,18.517z"/>
		<path class="st1" d="M38.805,18.727c0,0.581-0.473,1.053-1.053,1.053s-1.053-0.473-1.053-1.053s0.473-1.052,1.053-1.052
			S38.805,18.146,38.805,18.727z M36.779,18.727c0,0.537,0.436,0.974,0.973,0.974s0.975-0.437,0.975-0.974s-0.438-0.974-0.975-0.974
			S36.779,18.19,36.779,18.727z"/>
	</g>
</g>
</svg>
