<?xml version="1.0" encoding="utf-8"?>
<!-- Generator: Adobe Illustrator 16.0.0, SVG Export Plug-In . SVG Version: 6.00 Build 0)  -->
<!DOCTYPE svg PUBLIC "-//W3C//DTD SVG 1.1//EN" "http://www.w3.org/Graphics/SVG/1.1/DTD/svg11.dtd">
<svg version="1.1" id="Layer_1" xmlns="http://www.w3.org/2000/svg" xmlns:xlink="http://www.w3.org/1999/xlink" x="0px" y="0px"
	 width="50px" height="50px" viewBox="0 0 50 50" enable-background="new 0 0 50 50" xml:space="preserve">
<rect fill="none" width="50" height="50"/>
<rect fill="none" width="50" height="50"/>
<g>
	<g>
		<path fill="#E30613" d="M21.718,24.946h1.539c0,0.271-0.035,0.533-0.101,0.783c-0.308,1.174-1.291,2.073-2.51,2.259
			c-0.152,0.022-0.308,0.035-0.466,0.035l0,0c-0.271,0-0.533-0.035-0.783-0.101c-1.174-0.308-2.074-1.291-2.259-2.51
			c-0.023-0.152-0.035-0.308-0.035-0.466l0,0v-1.538V21.87h1.538v0.412c0.325-0.188,0.687-0.319,1.072-0.377
			c0.152-0.023,0.308-0.034,0.467-0.034c0.27,0,0.533,0.034,0.783,0.101c1.173,0.308,2.074,1.291,2.259,2.509
			c0.023,0.152,0.035,0.309,0.035,0.467H21.718c0-0.85-0.688-1.538-1.538-1.538c-0.85,0-1.539,0.688-1.539,1.538l0,0
			c0,0.85,0.689,1.539,1.539,1.539l0,0C21.03,26.485,21.718,25.796,21.718,24.946z M44.573,28.068c0.717,0,1.319-0.491,1.491-1.154
			c0.03-0.123,0.048-0.253,0.048-0.385v-2.352h-1.539V28.068z M44.958,21.918c-0.122-0.032-0.251-0.048-0.385-0.048v1.538h1.539
			C46.112,22.691,45.622,22.088,44.958,21.918z M26.839,24.178L26.839,24.178c-0.426,0-0.769,0.344-0.769,0.769
			c0,0.425,0.343,0.77,0.769,0.77l0,0h1.538c0.717,0,1.319-0.491,1.49-1.154c0.032-0.124,0.048-0.251,0.048-0.384h-1.538H26.839z
			 M26.839,26.485c-0.85,0-1.539-0.689-1.539-1.539l0,0c0-0.85,0.689-1.538,1.539-1.538h1.538l0,0h1.538
			c0-0.133-0.016-0.262-0.048-0.384c-0.171-0.663-0.773-1.154-1.49-1.154h-1.538c-0.158,0-0.314,0.011-0.467,0.034
			c-1.218,0.187-2.202,1.085-2.509,2.26c-0.066,0.25-0.101,0.512-0.101,0.782l0,0c0,0.159,0.011,0.314,0.035,0.466
			c0.186,1.219,1.085,2.203,2.259,2.51c0.25,0.065,0.512,0.101,0.783,0.101l0,0h1.538c0.717,0,1.319-0.49,1.49-1.153
			c0.032-0.124,0.048-0.252,0.048-0.385h-1.538H26.839z M33.556,24.178v1.538h1.538c0.718,0,1.32-0.491,1.49-1.154
			c0.032-0.124,0.048-0.251,0.048-0.384h-1.538H33.556z M33.556,26.485c-0.85,0-1.539-0.689-1.539-1.539l0,0
			c0-0.85,0.688-1.538,1.539-1.538h1.538l0,0h1.538c0-0.133-0.016-0.262-0.048-0.384c-0.17-0.663-0.772-1.154-1.49-1.154h-1.538
			c-0.158,0-0.314,0.011-0.466,0.034c-1.22,0.187-2.203,1.085-2.509,2.26c-0.066,0.25-0.102,0.512-0.102,0.782l0,0
			c0,0.159,0.012,0.314,0.035,0.466c0.185,1.219,1.085,2.203,2.258,2.51c0.251,0.065,0.513,0.101,0.783,0.101l0,0h1.538
			c0.718,0,1.32-0.49,1.49-1.153c0.032-0.124,0.048-0.252,0.048-0.385h-1.538H33.556z M41.511,23.866
			c0.508,0.506,1.28,0.585,1.871,0.238c0.108-0.065,0.211-0.144,0.306-0.238L42.6,22.777c-0.044-0.042-0.087-0.083-0.131-0.122
			c-0.073-0.064-0.148-0.126-0.224-0.183c-0.033-0.024-0.066-0.047-0.1-0.07c-0.011-0.006-0.02-0.013-0.028-0.018
			c-0.025-0.016-0.049-0.031-0.071-0.046c-0.014-0.008-0.027-0.016-0.04-0.024c-0.021-0.013-0.042-0.025-0.062-0.037
			c-0.015-0.008-0.03-0.016-0.044-0.024c-0.021-0.012-0.041-0.023-0.062-0.033c-0.014-0.008-0.03-0.015-0.045-0.023
			c-0.021-0.01-0.04-0.02-0.061-0.03c-0.016-0.007-0.031-0.014-0.046-0.021c-0.021-0.009-0.042-0.019-0.063-0.027
			c-0.014-0.007-0.03-0.013-0.045-0.019c-0.021-0.009-0.044-0.017-0.065-0.026c-0.015-0.004-0.029-0.01-0.043-0.016
			c-0.023-0.008-0.048-0.016-0.071-0.024c-0.014-0.004-0.026-0.009-0.039-0.013c-0.027-0.009-0.054-0.017-0.08-0.025
			c-0.011-0.002-0.021-0.006-0.03-0.008c-0.033-0.011-0.067-0.019-0.102-0.026c-0.003-0.001-0.007-0.002-0.01-0.002
			c-0.759-0.181-1.574-0.069-2.266,0.335c-0.223,0.129-0.433,0.291-0.625,0.481l0,0c-0.506,0.507-0.586,1.281-0.238,1.87
			c0.065,0.11,0.145,0.213,0.238,0.307l1.089-1.087l0,0C39.936,23.264,40.91,23.264,41.511,23.866z M41.479,26.071
			c-0.6,0.602-1.574,0.602-2.176,0c-0.506-0.506-1.278-0.585-1.869-0.236c-0.109,0.064-0.212,0.143-0.306,0.236l1.088,1.089l0,0
			c0.112,0.112,0.23,0.214,0.354,0.306c0.993,0.729,2.324,0.789,3.372,0.176c0.198-0.115,0.389-0.257,0.562-0.422l0.002,0.001
			c0.008-0.009,0.016-0.019,0.025-0.027c0.011-0.011,0.022-0.021,0.034-0.033l-0.001-0.002c0.454-0.507,0.514-1.241,0.18-1.807
			c-0.065-0.11-0.145-0.213-0.238-0.307L41.479,26.071L41.479,26.071z M41.479,26.071l1.028-1.027l-3.172-1.179l-1.089,1.087
			L41.479,26.071z"/>
		<g>
			<linearGradient id="SVGID_1_" gradientUnits="userSpaceOnUse" x1="42.4775" y1="33.2598" x2="18.5307" y2="19.434">
				<stop  offset="0" style="stop-color:#00A0DB"/>
				<stop  offset="0.2" style="stop-color:#362983"/>
				<stop  offset="0.4" style="stop-color:#E4007D"/>
				<stop  offset="0.6" style="stop-color:#E31F21"/>
				<stop  offset="0.8" style="stop-color:#FFE900"/>
				<stop  offset="1" style="stop-color:#009447"/>
			</linearGradient>
			<path opacity="0.3" fill="url(#SVGID_1_)" d="M26.839,25.748h1.477c0.445-0.508,0.889-1.019,1.319-1.54h-2.796
				c-0.426,0-0.769,0.344-0.769,0.77C26.07,25.404,26.413,25.748,26.839,25.748z"/>
			<linearGradient id="SVGID_2_" gradientUnits="userSpaceOnUse" x1="40.6738" y1="36.416" x2="16.7083" y2="22.5795">
				<stop  offset="0" style="stop-color:#00A0DB"/>
				<stop  offset="0.2" style="stop-color:#362983"/>
				<stop  offset="0.4" style="stop-color:#E4007D"/>
				<stop  offset="0.6" style="stop-color:#E31F21"/>
				<stop  offset="0.8" style="stop-color:#FFE900"/>
				<stop  offset="1" style="stop-color:#009447"/>
			</linearGradient>
			<path opacity="0.3" fill="url(#SVGID_2_)" d="M20.907,26.333c0.463,0.296,0.932,0.582,1.403,0.862
				c0.402-0.386,0.7-0.879,0.846-1.435c0.065-0.249,0.101-0.511,0.101-0.782h-1.538C21.719,25.565,21.39,26.074,20.907,26.333z"/>
			<linearGradient id="SVGID_3_" gradientUnits="userSpaceOnUse" x1="41.1045" y1="35.6553" x2="17.1464" y2="21.8231">
				<stop  offset="0" style="stop-color:#00A0DB"/>
				<stop  offset="0.2" style="stop-color:#362983"/>
				<stop  offset="0.4" style="stop-color:#E4007D"/>
				<stop  offset="0.6" style="stop-color:#E31F21"/>
				<stop  offset="0.8" style="stop-color:#FFE900"/>
				<stop  offset="1" style="stop-color:#009447"/>
			</linearGradient>
			<path opacity="0.3" fill="url(#SVGID_3_)" d="M18.648,24.839c0.071-0.785,0.729-1.4,1.532-1.4c0.85,0,1.539,0.689,1.539,1.54
				h1.538c0-0.159-0.012-0.315-0.035-0.467c-0.185-1.219-1.085-2.203-2.259-2.51c-0.25-0.065-0.513-0.101-0.783-0.101
				c-0.159,0-0.314,0.013-0.467,0.036c-0.386,0.058-0.747,0.188-1.072,0.377v-0.413h-1.538v1.935
				C17.623,24.163,18.137,24.499,18.648,24.839z"/>
			<linearGradient id="SVGID_4_" gradientUnits="userSpaceOnUse" x1="47.6436" y1="24.3232" x2="23.6779" y2="10.4866">
				<stop  offset="0" style="stop-color:#00A0DB"/>
				<stop  offset="0.2" style="stop-color:#362983"/>
				<stop  offset="0.4" style="stop-color:#E4007D"/>
				<stop  offset="0.6" style="stop-color:#E31F21"/>
				<stop  offset="0.8" style="stop-color:#FFE900"/>
				<stop  offset="1" style="stop-color:#009447"/>
			</linearGradient>
			<path opacity="0.3" fill="url(#SVGID_4_)" d="M44.958,21.949c-0.122-0.031-0.251-0.048-0.385-0.048v1.538h1.539
				C46.112,22.723,45.622,22.121,44.958,21.949z"/>
			<linearGradient id="SVGID_5_" gradientUnits="userSpaceOnUse" x1="42.2988" y1="33.5791" x2="18.3449" y2="19.7493">
				<stop  offset="0" style="stop-color:#00A0DB"/>
				<stop  offset="0.2" style="stop-color:#362983"/>
				<stop  offset="0.4" style="stop-color:#E4007D"/>
				<stop  offset="0.6" style="stop-color:#E31F21"/>
				<stop  offset="0.8" style="stop-color:#FFE900"/>
				<stop  offset="1" style="stop-color:#009447"/>
			</linearGradient>
			<path opacity="0.3" fill="url(#SVGID_5_)" d="M26.056,27.954c0.096,0.024,0.193,0.044,0.291,0.061
				c0.424-0.506,0.857-1.003,1.293-1.498h-0.801c-0.85,0-1.539-0.688-1.539-1.538c0-0.85,0.689-1.54,1.539-1.54h3.076
				c0-0.132-0.016-0.261-0.048-0.384c-0.171-0.663-0.773-1.154-1.49-1.154h-1.538c-0.158,0-0.314,0.013-0.467,0.036
				c-1.218,0.185-2.202,1.085-2.509,2.258c-0.066,0.25-0.101,0.512-0.101,0.784c0,0.158,0.012,0.314,0.035,0.466
				C23.982,26.663,24.882,27.646,26.056,27.954z"/>
			<linearGradient id="SVGID_6_" gradientUnits="userSpaceOnUse" x1="47.04" y1="25.3682" x2="23.0787" y2="11.5341">
				<stop  offset="0" style="stop-color:#00A0DB"/>
				<stop  offset="0.2" style="stop-color:#362983"/>
				<stop  offset="0.4" style="stop-color:#E4007D"/>
				<stop  offset="0.6" style="stop-color:#E31F21"/>
				<stop  offset="0.8" style="stop-color:#FFE900"/>
				<stop  offset="1" style="stop-color:#009447"/>
			</linearGradient>
			<path opacity="0.3" fill="url(#SVGID_6_)" d="M46.112,25.455v-1.247h-1.315C45.233,24.626,45.671,25.041,46.112,25.455z"/>
			<linearGradient id="SVGID_7_" gradientUnits="userSpaceOnUse" x1="43.1191" y1="32.1572" x2="19.1663" y2="18.3281">
				<stop  offset="0" style="stop-color:#00A0DB"/>
				<stop  offset="0.2" style="stop-color:#362983"/>
				<stop  offset="0.4" style="stop-color:#E4007D"/>
				<stop  offset="0.6" style="stop-color:#E31F21"/>
				<stop  offset="0.8" style="stop-color:#FFE900"/>
				<stop  offset="1" style="stop-color:#009447"/>
			</linearGradient>
			<path opacity="0.3" fill="url(#SVGID_7_)" d="M32.753,26.289c-0.341,0.389-0.682,0.775-1.02,1.166
				c0.308,0.228,0.658,0.399,1.039,0.499c0.251,0.066,0.513,0.102,0.783,0.102h1.538c0.718,0,1.32-0.492,1.49-1.154
				c0.032-0.123,0.048-0.252,0.048-0.385h-3.076C33.261,26.517,32.987,26.433,32.753,26.289z"/>
			<linearGradient id="SVGID_8_" gradientUnits="userSpaceOnUse" x1="45.2734" y1="28.4219" x2="21.3235" y2="14.5944">
				<stop  offset="0" style="stop-color:#00A0DB"/>
				<stop  offset="0.2" style="stop-color:#362983"/>
				<stop  offset="0.4" style="stop-color:#E4007D"/>
				<stop  offset="0.6" style="stop-color:#E31F21"/>
				<stop  offset="0.8" style="stop-color:#FFE900"/>
				<stop  offset="1" style="stop-color:#009447"/>
			</linearGradient>
			<path opacity="0.3" fill="url(#SVGID_8_)" d="M36.026,22.218c-0.287,0.412-0.579,0.821-0.883,1.221h1.488
				c0-0.132-0.016-0.261-0.048-0.384C36.497,22.716,36.297,22.423,36.026,22.218z"/>
			<linearGradient id="SVGID_9_" gradientUnits="userSpaceOnUse" x1="44.998" y1="28.9062" x2="21.0399" y2="15.074">
				<stop  offset="0" style="stop-color:#00A0DB"/>
				<stop  offset="0.2" style="stop-color:#362983"/>
				<stop  offset="0.4" style="stop-color:#E4007D"/>
				<stop  offset="0.6" style="stop-color:#E31F21"/>
				<stop  offset="0.8" style="stop-color:#FFE900"/>
				<stop  offset="1" style="stop-color:#009447"/>
			</linearGradient>
			<path opacity="0.3" fill="url(#SVGID_9_)" d="M42.743,26.946c-1.061-0.97-2.115-1.95-3.146-2.953l-0.261-0.097
				c0.027-0.026,0.055-0.051,0.083-0.076c-0.248-0.242-0.495-0.486-0.739-0.73c-0.117-0.119-0.233-0.238-0.351-0.357
				c-0.027,0.025-0.055,0.049-0.082,0.076c-0.506,0.506-0.586,1.279-0.238,1.87c0.065,0.11,0.145,0.211,0.238,0.305l3.232,1.12
				c-0.6,0.601-1.574,0.601-2.176,0c-0.506-0.506-1.278-0.585-1.869-0.238c-0.109,0.065-0.212,0.144-0.306,0.238l1.088,1.089l0,0
				c0.112,0.11,0.23,0.214,0.354,0.304c0.993,0.731,2.324,0.789,3.372,0.178c0.198-0.117,0.389-0.258,0.562-0.423l0.002,0.002
				c0.008-0.01,0.016-0.019,0.025-0.027c0.011-0.012,0.022-0.021,0.034-0.033l-0.001-0.003
				C42.635,27.113,42.693,27.031,42.743,26.946z"/>
			<linearGradient id="SVGID_10_" gradientUnits="userSpaceOnUse" x1="44.2188" y1="30.2471" x2="20.2691" y2="16.4198">
				<stop  offset="0" style="stop-color:#00A0DB"/>
				<stop  offset="0.2" style="stop-color:#362983"/>
				<stop  offset="0.4" style="stop-color:#E4007D"/>
				<stop  offset="0.6" style="stop-color:#E31F21"/>
				<stop  offset="0.8" style="stop-color:#FFE900"/>
				<stop  offset="1" style="stop-color:#009447"/>
			</linearGradient>
			<path opacity="0.3" fill="url(#SVGID_10_)" d="M33.556,25.373v0.375h1.538c0.718,0,1.32-0.491,1.49-1.155
				c0.032-0.122,0.048-0.25,0.048-0.384H34.54C34.217,24.602,33.888,24.989,33.556,25.373z"/>
		</g>
	</g>
	<g>
		<g>
			<path fill="#E30613" d="M7.03,24.218L7.03,24.218c-0.432,0-0.782,0.35-0.782,0.782s0.351,0.782,0.782,0.782l0,0h1.565
				c0.729,0,1.343-0.499,1.517-1.173c0.004-0.014,0.006-0.029,0.01-0.043c0.003,0.015,0.006,0.03,0.009,0.043
				c0.174,0.675,0.788,1.173,1.517,1.173h1.565l0,0c0.432,0,0.783-0.35,0.783-0.782s-0.351-0.782-0.783-0.782l0,0h-1.565h-1.487
				h-0.079H8.596H7.03z"/>
			<path fill="#E30613" d="M16.242,24.204c-0.313-1.195-1.314-2.11-2.554-2.3c-0.154-0.023-0.313-0.035-0.475-0.035H12.04h-0.392
				h-1.174c0,0.729,0.499,1.342,1.174,1.516c0.125,0.032,0.256,0.049,0.392,0.049h1.174c0.865,0,1.565,0.701,1.565,1.565l0,0
				c0,0.865-0.701,1.565-1.565,1.565h-1.565h-1.487h-0.079H8.596H7.031c-0.864,0-1.565-0.701-1.565-1.565l0,0
				c0-0.865,0.7-1.565,1.565-1.565h1.096h0.392h1.174c0-0.135-0.017-0.266-0.049-0.391c-0.142-0.55-0.575-0.982-1.125-1.124
				c-0.126-0.033-0.256-0.05-0.392-0.05H6.952v0.001c-0.135,0.003-0.267,0.016-0.396,0.034c-1.24,0.19-2.24,1.105-2.554,2.3
				C3.935,24.458,3.9,24.726,3.9,25l0,0c0,0.161,0.013,0.32,0.036,0.475c0.188,1.24,1.104,2.24,2.298,2.554
				c0.254,0.067,0.521,0.103,0.796,0.103l0,0h1.565h1.487h0.079h1.487h1.565l0,0c0.275,0,0.542-0.035,0.796-0.103
				c1.194-0.313,2.11-1.313,2.299-2.554c0.023-0.154,0.035-0.313,0.035-0.475l0,0C16.344,24.726,16.309,24.458,16.242,24.204z"/>
		</g>
		<g opacity="0.3">
			<linearGradient id="SVGID_11_" gradientUnits="userSpaceOnUse" x1="7.9092" y1="25" x2="13.3135" y2="25">
				<stop  offset="0" style="stop-color:#00A0DB"/>
				<stop  offset="0.2" style="stop-color:#362983"/>
				<stop  offset="0.4" style="stop-color:#E4007D"/>
				<stop  offset="0.6" style="stop-color:#E31F21"/>
				<stop  offset="0.8" style="stop-color:#FFE900"/>
				<stop  offset="1" style="stop-color:#009447"/>
			</linearGradient>
			<path fill="url(#SVGID_11_)" d="M13.313,24.226l-2.145,1.487c-0.514-0.16-0.915-0.579-1.05-1.104
				c-0.003-0.014-0.006-0.029-0.01-0.043c-0.003,0.015-0.006,0.03-0.01,0.043c-0.174,0.675-0.787,1.174-1.516,1.174H7.909v-1.566
				h5.292C13.239,24.217,13.277,24.22,13.313,24.226z"/>
			<linearGradient id="SVGID_12_" gradientUnits="userSpaceOnUse" x1="3.8872" y1="25.0005" x2="16.3315" y2="25.0005">
				<stop  offset="0" style="stop-color:#00A0DB"/>
				<stop  offset="0.2" style="stop-color:#362983"/>
				<stop  offset="0.4" style="stop-color:#E4007D"/>
				<stop  offset="0.6" style="stop-color:#E31F21"/>
				<stop  offset="0.8" style="stop-color:#FFE900"/>
				<stop  offset="1" style="stop-color:#009447"/>
			</linearGradient>
			<path fill="url(#SVGID_12_)" d="M16.332,25c0,0.161-0.012,0.32-0.036,0.475c-0.188,1.24-1.104,2.24-2.298,2.554
				c-0.255,0.067-0.521,0.103-0.797,0.103H7.018c-0.275,0-0.542-0.035-0.797-0.103c-1.193-0.313-2.109-1.313-2.298-2.554
				C3.899,25.32,3.887,25.161,3.887,25c0-0.274,0.036-0.542,0.103-0.796c0.313-1.195,1.314-2.11,2.553-2.3
				c0.13-0.02,0.262-0.031,0.396-0.034l0,0h0.022c-0.515,0.609-1.095,1.462-1.336,2.417C5.515,24.5,5.453,24.743,5.453,25l0,0
				c0,0.164,0.025,0.32,0.071,0.468c0.199,0.636,0.793,1.098,1.495,1.098h6.183c0.13,0,0.257-0.016,0.378-0.046
				c0.002-0.001,0.005-0.001,0.006-0.001c0.053-0.014,0.104-0.029,0.154-0.048c0.216-0.079,0.41-0.205,0.569-0.363
				c0.283-0.284,0.459-0.675,0.459-1.107c0-0.541-0.275-1.019-0.694-1.3c-0.25-0.167-0.549-0.265-0.872-0.265h-1.174
				c-0.135,0-0.266-0.016-0.392-0.049c-0.675-0.174-1.174-0.787-1.174-1.515h2.74c0.162,0,0.32,0.011,0.475,0.034
				c0.67,0.103,1.271,0.417,1.73,0.873c0.391,0.389,0.68,0.878,0.824,1.427c0.018,0.067,0.034,0.137,0.047,0.207
				C16.312,24.602,16.332,24.799,16.332,25z"/>
		</g>
	</g>
</g>
</svg>
