<?xml version="1.0" encoding="utf-8"?>
<!-- Generator: Adobe Illustrator 16.0.0, SVG Export Plug-In . SVG Version: 6.00 Build 0)  -->
<!DOCTYPE svg PUBLIC "-//W3C//DTD SVG 1.1//EN" "http://www.w3.org/Graphics/SVG/1.1/DTD/svg11.dtd">
<svg version="1.1" id="Layer_1" xmlns="http://www.w3.org/2000/svg" xmlns:xlink="http://www.w3.org/1999/xlink" x="0px" y="0px"
	 width="50px" height="50px" viewBox="0 0 50 50" enable-background="new 0 0 50 50" xml:space="preserve">
<rect fill="none" width="50" height="50"/>
<rect fill="none" width="50" height="50"/>
<g>
	<g>
		<rect x="30.859" y="30.691" fill="#EB008B" width="4.395" height="4.219"/>
	</g>
	<g>
		<path fill="#EB008B" d="M32.251,13.008c-2-2.002-4.42-3.003-7.252-3.003c-0.5,0-0.989,0.031-1.464,0.094v4.472
			c0.465-0.113,0.953-0.171,1.464-0.171c1.621,0,3.003,0.572,4.146,1.714c1.144,1.142,1.715,2.524,1.715,4.147
			c0,1.622-0.571,3.001-1.715,4.144c-1.144,1.144-2.525,1.714-4.146,1.714s-3.003-0.57-4.146-1.714
			c-1.142-1.143-1.713-2.522-1.713-4.144c0-0.177,0.006-0.35,0.021-0.521h-0.023v-7.914c-0.483,0.345-0.947,0.739-1.389,1.182
			c-2.003,2.002-3.004,4.419-3.004,7.253V34.91h4.396v-6.211c1.697,1.211,3.651,1.816,5.858,1.816c2.832,0,5.252-1,7.252-3.004
			c2.003-2.002,3.003-4.418,3.003-7.251C35.254,17.427,34.254,15.01,32.251,13.008z"/>
	</g>
	<g>
		<g>
			<g>
				<rect x="34.588" y="39.33" fill="#EB008B" width="0.666" height="0.666"/>
			</g>
			<g>
				<rect x="34.586" y="36.125" fill="#EB008B" width="0.668" height="2.85"/>
			</g>
		</g>
		<g>
			<path fill="#EB008B" d="M14.745,36.008h0.464v0.654c0.179-0.127,0.385-0.191,0.618-0.191c0.299,0,0.553,0.105,0.765,0.316
				c0.211,0.211,0.316,0.467,0.316,0.766s-0.105,0.555-0.316,0.766c-0.212,0.211-0.466,0.314-0.765,0.314
				c-0.3,0-0.554-0.104-0.766-0.314c-0.211-0.211-0.316-0.467-0.316-0.766V36.008z M15.39,37.115
				c-0.121,0.121-0.181,0.266-0.181,0.438s0.06,0.316,0.181,0.438c0.12,0.121,0.266,0.18,0.438,0.18c0.171,0,0.316-0.059,0.438-0.18
				c0.12-0.121,0.18-0.266,0.18-0.438s-0.06-0.316-0.18-0.438c-0.121-0.119-0.267-0.182-0.438-0.182
				C15.655,36.934,15.51,36.996,15.39,37.115z"/>
			<path fill="#EB008B" d="M18.628,37.939h0.53c-0.053,0.139-0.136,0.266-0.249,0.379c-0.211,0.211-0.466,0.314-0.765,0.314
				s-0.554-0.104-0.766-0.314c-0.21-0.211-0.316-0.467-0.316-0.766s0.106-0.555,0.316-0.766c0.212-0.211,0.467-0.316,0.766-0.316
				s0.554,0.105,0.765,0.316s0.317,0.467,0.317,0.766c0,0.08-0.009,0.158-0.023,0.232H17.57c0.029,0.074,0.075,0.143,0.137,0.205
				c0.12,0.121,0.267,0.18,0.438,0.18s0.316-0.059,0.438-0.18C18.598,37.975,18.613,37.957,18.628,37.939z M18.719,37.322
				c-0.029-0.076-0.075-0.146-0.137-0.207c-0.121-0.119-0.267-0.182-0.438-0.182s-0.317,0.062-0.438,0.182
				c-0.062,0.061-0.107,0.131-0.137,0.207H18.719z"/>
		</g>
		<g>
			<path fill="#EB008B" d="M21.934,36.543c-0.277-0.277-0.613-0.418-1.006-0.418c-0.394,0-0.729,0.141-1.008,0.418
				s-0.417,0.613-0.417,1.008v2.033h0.61v-0.861c0.236,0.168,0.508,0.252,0.814,0.252c0.393,0,0.729-0.141,1.006-0.418
				c0.278-0.277,0.418-0.615,0.418-1.006C22.352,37.156,22.212,36.82,21.934,36.543z M21.503,38.125
				c-0.158,0.16-0.351,0.238-0.575,0.238c-0.226,0-0.417-0.078-0.577-0.238c-0.158-0.16-0.237-0.35-0.237-0.574
				c0-0.227,0.079-0.42,0.237-0.576c0.16-0.16,0.352-0.238,0.577-0.238c0.225,0,0.417,0.078,0.575,0.238
				c0.158,0.156,0.238,0.35,0.238,0.576C21.741,37.775,21.661,37.965,21.503,38.125z"/>
			<path fill="#EB008B" d="M24.793,36.125v1.426c0,0.225-0.079,0.414-0.238,0.574c-0.158,0.16-0.351,0.238-0.575,0.238
				c-0.226,0-0.417-0.078-0.576-0.238s-0.238-0.35-0.238-0.574v-1.426h-0.611v1.426c0,0.391,0.141,0.729,0.418,1.006
				c0.278,0.277,0.614,0.418,1.008,0.418c0.393,0,0.729-0.141,1.006-0.418c0.278-0.277,0.418-0.615,0.418-1.006v-1.426H24.793z"/>
			<path fill="#EB008B" d="M27.605,38.125c-0.158,0.16-0.35,0.238-0.575,0.238c-0.225,0-0.417-0.078-0.575-0.238
				c-0.159-0.16-0.239-0.35-0.239-0.574c0-0.227,0.08-0.42,0.239-0.576c0.158-0.16,0.351-0.238,0.575-0.238
				c0.226,0,0.417,0.078,0.575,0.238c0.073,0.07,0.129,0.15,0.168,0.236h0.644c-0.058-0.25-0.184-0.475-0.38-0.668
				c-0.277-0.277-0.614-0.418-1.007-0.418c-0.394,0-0.729,0.141-1.007,0.418s-0.418,0.613-0.418,1.008
				c0,0.391,0.14,0.729,0.418,1.006s0.613,0.418,1.007,0.418c0.393,0,0.729-0.141,1.007-0.418c0.196-0.195,0.322-0.418,0.38-0.67
				h-0.644C27.734,37.973,27.679,38.053,27.605,38.125z"/>
			<path fill="#EB008B" d="M31.1,36.432v-0.307h-0.611v0.307c0,0.225-0.079,0.416-0.237,0.576c-0.159,0.156-0.351,0.236-0.576,0.236
				h-0.406v-1.119h-0.611v2.85h0.611v-1.119h0.406c0.226,0,0.417,0.078,0.576,0.238c0.158,0.158,0.237,0.35,0.237,0.574v0.307H31.1
				v-0.307c0-0.393-0.14-0.729-0.417-1.006c-0.04-0.041-0.082-0.08-0.125-0.111c0.043-0.035,0.085-0.072,0.125-0.113
				C30.96,37.158,31.1,36.822,31.1,36.432z"/>
			<path fill="#EB008B" d="M33.748,36.543c-0.277-0.277-0.614-0.418-1.008-0.418c-0.392,0-0.729,0.141-1.006,0.418
				c-0.278,0.277-0.418,0.613-0.418,1.008v1.424h0.611v-0.914h1.627v0.914h0.61v-1.424C34.165,37.156,34.025,36.82,33.748,36.543z
				 M31.934,37.449c0.021-0.182,0.098-0.342,0.231-0.475c0.16-0.16,0.35-0.238,0.575-0.238s0.417,0.078,0.576,0.238
				c0.135,0.133,0.212,0.293,0.232,0.475H31.934z"/>
		</g>
	</g>
	<path fill="#FBE2EF" d="M23.531,10.099v4.452c-2.507,0.638-4.359,2.887-4.391,5.591v-8.311
		C19.141,11.832,20.767,10.479,23.531,10.099z"/>
</g>
</svg>
