<?xml version="1.0" encoding="utf-8"?>
<!-- Generator: Adobe Illustrator 16.0.0, SVG Export Plug-In . SVG Version: 6.00 Build 0)  -->
<!DOCTYPE svg PUBLIC "-//W3C//DTD SVG 1.1//EN" "http://www.w3.org/Graphics/SVG/1.1/DTD/svg11.dtd">
<svg version="1.1" id="Layer_1" xmlns="http://www.w3.org/2000/svg" xmlns:xlink="http://www.w3.org/1999/xlink" x="0px" y="0px"
	 width="50px" height="50px" viewBox="0 0 50 50" enable-background="new 0 0 50 50" xml:space="preserve">
<rect fill="none" width="50" height="50"/>
<g>
	<g>
		<rect x="17.389" y="26.266" fill="#724E9E" width="2.532" height="2.532"/>
		<rect x="19.921" y="23.734" fill="#724E9E" width="2.532" height="2.532"/>
		<rect x="22.454" y="23.734" fill="#724E9E" width="2.531" height="2.532"/>
		<rect x="19.921" y="28.798" fill="#724E9E" width="2.532" height="2.532"/>
		<rect x="22.454" y="28.798" fill="#724E9E" width="2.531" height="2.532"/>
		<rect x="24.985" y="23.734" fill="#724E9E" width="2.533" height="2.532"/>
		<rect x="27.518" y="23.734" fill="#724E9E" width="2.532" height="2.532"/>
		<rect x="27.518" y="21.201" fill="#724E9E" width="2.532" height="2.533"/>
		<rect x="30.05" y="21.201" fill="#724E9E" width="2.533" height="2.533"/>
		<rect x="32.583" y="23.734" fill="#724E9E" width="2.531" height="2.532"/>
		<rect x="35.114" y="23.734" fill="#724E9E" width="2.532" height="2.532"/>
		<rect x="32.583" y="18.669" fill="#724E9E" width="2.531" height="2.532"/>
		<rect x="35.114" y="18.669" fill="#724E9E" width="2.532" height="2.532"/>
		<rect x="30.05" y="31.33" fill="#724E9E" width="2.533" height="2.533"/>
		<rect x="32.583" y="33.863" fill="#724E9E" width="2.531" height="2.531"/>
		<rect x="35.114" y="33.863" fill="#724E9E" width="2.532" height="2.531"/>
		<rect x="32.583" y="28.798" fill="#724E9E" width="2.531" height="2.532"/>
		<rect x="35.114" y="28.798" fill="#724E9E" width="2.532" height="2.532"/>
		<rect x="24.985" y="28.798" fill="#724E9E" width="2.533" height="2.532"/>
		<rect x="27.518" y="28.798" fill="#724E9E" width="2.532" height="2.532"/>
		<rect x="27.518" y="31.33" fill="#724E9E" width="2.532" height="2.533"/>
		<rect x="14.856" y="23.734" fill="#724E9E" width="2.533" height="2.532"/>
		<rect x="14.856" y="26.266" fill="#724E9E" width="2.533" height="2.532"/>
		<rect x="12.325" y="21.201" fill="#724E9E" width="2.532" height="2.533"/>
		<rect x="14.856" y="16.137" fill="#724E9E" width="2.533" height="2.532"/>
		<rect x="12.325" y="16.137" fill="#724E9E" width="2.532" height="2.532"/>
		<rect x="12.325" y="23.734" fill="#724E9E" width="2.532" height="2.532"/>
		<rect x="17.389" y="13.605" fill="#724E9E" width="2.532" height="2.532"/>
		<rect x="19.921" y="13.605" fill="#724E9E" width="2.532" height="2.532"/>
		<rect x="14.856" y="13.605" fill="#724E9E" width="2.533" height="2.532"/>
		<rect x="19.921" y="16.137" fill="#724E9E" width="2.532" height="2.532"/>
		<rect x="12.325" y="18.669" fill="#724E9E" width="2.532" height="2.532"/>
		<rect x="30.05" y="26.225" fill="#84C9E5" width="2.533" height="2.531"/>
	</g>
	<g>
		<g>
			<g>
				<path fill="#724E9E" d="M23.864,15.335c0.189,0,0.338,0.069,0.444,0.207s0.159,0.33,0.159,0.58s-0.053,0.444-0.161,0.583
					c-0.107,0.139-0.256,0.208-0.448,0.208c-0.193,0-0.343-0.068-0.448-0.208h-0.022l-0.059,0.181h-0.243v-2.143h0.324v0.509
					c0,0.039-0.001,0.095-0.005,0.169c-0.004,0.074-0.007,0.122-0.009,0.142h0.014C23.512,15.411,23.664,15.335,23.864,15.335z
					 M23.78,15.6c-0.131,0-0.225,0.038-0.282,0.114c-0.058,0.077-0.086,0.206-0.088,0.385v0.022c0,0.185,0.029,0.32,0.087,0.402
					c0.059,0.083,0.155,0.125,0.288,0.125c0.114,0,0.202-0.046,0.261-0.136c0.06-0.091,0.088-0.223,0.088-0.394
					C24.135,15.773,24.017,15.6,23.78,15.6z"/>
			</g>
			<g>
				<path fill="#724E9E" d="M25.917,16.886l-0.045-0.2h-0.018c-0.045,0.071-0.109,0.126-0.192,0.167
					c-0.083,0.04-0.177,0.06-0.283,0.06c-0.185,0-0.323-0.046-0.414-0.137c-0.09-0.091-0.135-0.23-0.135-0.417v-0.996h0.325v0.939
					c0,0.116,0.024,0.204,0.071,0.262c0.048,0.059,0.123,0.087,0.226,0.087c0.135,0,0.235-0.04,0.299-0.121
					c0.063-0.082,0.096-0.218,0.096-0.408v-0.759h0.324v1.523H25.917z"/>
			</g>
			<g>
				<path fill="#724E9E" d="M27.919,15.362v0.178l-0.262,0.048c0.023,0.031,0.046,0.071,0.061,0.118
					c0.015,0.047,0.023,0.097,0.023,0.149c0,0.157-0.055,0.28-0.163,0.37c-0.108,0.09-0.258,0.135-0.447,0.135
					c-0.049,0-0.093-0.003-0.133-0.011c-0.069,0.043-0.104,0.093-0.104,0.151c0,0.035,0.017,0.062,0.05,0.079
					c0.032,0.017,0.093,0.025,0.179,0.025h0.267c0.168,0,0.296,0.037,0.381,0.108c0.088,0.072,0.133,0.175,0.133,0.31
					c0,0.172-0.071,0.305-0.214,0.399c-0.143,0.095-0.349,0.141-0.616,0.141c-0.209,0-0.366-0.037-0.477-0.11
					c-0.108-0.073-0.163-0.178-0.163-0.314c0-0.094,0.03-0.173,0.089-0.236c0.059-0.063,0.144-0.108,0.249-0.133
					c-0.044-0.018-0.08-0.048-0.105-0.089c-0.03-0.041-0.044-0.084-0.044-0.128c0-0.058,0.016-0.106,0.049-0.145
					c0.031-0.039,0.079-0.078,0.144-0.117c-0.081-0.034-0.144-0.089-0.193-0.165c-0.048-0.077-0.073-0.167-0.073-0.27
					c0-0.166,0.052-0.293,0.157-0.385c0.103-0.09,0.252-0.136,0.445-0.136c0.043,0,0.088,0.003,0.135,0.009
					c0.047,0.005,0.084,0.012,0.108,0.018H27.919z M26.722,17.122c0,0.07,0.033,0.124,0.096,0.162
					c0.062,0.038,0.15,0.056,0.264,0.056c0.177,0,0.308-0.024,0.394-0.076c0.086-0.05,0.13-0.117,0.13-0.2
					c0-0.066-0.023-0.114-0.072-0.142c-0.046-0.028-0.134-0.042-0.264-0.042h-0.244c-0.092,0-0.165,0.022-0.221,0.066
					C26.749,16.989,26.722,17.048,26.722,17.122z M26.861,15.856c0,0.095,0.024,0.169,0.073,0.22c0.05,0.051,0.12,0.077,0.211,0.077
					c0.188,0,0.281-0.1,0.281-0.3c0-0.099-0.022-0.176-0.069-0.23c-0.046-0.053-0.116-0.08-0.212-0.08
					c-0.093,0-0.163,0.026-0.212,0.079C26.886,15.676,26.861,15.754,26.861,15.856z"/>
			</g>
		</g>
		<g>
			<g>
				<path fill="#84C9E5" d="M28.977,15.335c0.192,0,0.34,0.069,0.444,0.207c0.107,0.138,0.16,0.33,0.16,0.58
					s-0.055,0.444-0.161,0.583c-0.108,0.139-0.256,0.208-0.446,0.208c-0.193,0-0.342-0.068-0.45-0.208h-0.021l-0.058,0.181h-0.242
					v-2.143h0.321v0.509c0,0.039-0.001,0.095-0.004,0.169c-0.005,0.074-0.008,0.122-0.009,0.142h0.013
					C28.627,15.411,28.778,15.335,28.977,15.335z M28.895,15.6c-0.13,0-0.224,0.038-0.282,0.114
					c-0.057,0.077-0.086,0.206-0.089,0.385v0.022c0,0.185,0.031,0.32,0.089,0.402c0.059,0.083,0.153,0.125,0.287,0.125
					c0.114,0,0.202-0.046,0.261-0.136c0.059-0.091,0.09-0.223,0.09-0.394C29.25,15.773,29.131,15.6,28.895,15.6z"/>
			</g>
			<g>
				<path fill="#84C9E5" d="M30.622,16.912c-0.237,0-0.422-0.068-0.556-0.207c-0.133-0.138-0.2-0.328-0.2-0.57
					c0-0.249,0.062-0.443,0.186-0.586c0.125-0.143,0.294-0.213,0.511-0.213c0.201,0,0.36,0.062,0.476,0.183
					c0.118,0.122,0.176,0.291,0.176,0.504v0.174H30.2c0.004,0.148,0.044,0.262,0.119,0.342c0.075,0.079,0.181,0.119,0.318,0.119
					c0.09,0,0.173-0.008,0.251-0.025c0.076-0.017,0.161-0.045,0.251-0.084v0.262c-0.08,0.038-0.16,0.064-0.24,0.081
					C30.818,16.906,30.727,16.912,30.622,16.912z M30.562,15.58c-0.103,0-0.186,0.032-0.247,0.098
					c-0.062,0.066-0.098,0.161-0.109,0.286h0.69c-0.003-0.125-0.032-0.221-0.092-0.287C30.746,15.612,30.665,15.58,30.562,15.58z"/>
			</g>
			<g>
				<path fill="#84C9E5" d="M32.534,16.886l-0.065-0.212h-0.01c-0.073,0.093-0.149,0.156-0.223,0.189
					c-0.074,0.034-0.169,0.05-0.285,0.05c-0.151,0-0.268-0.04-0.351-0.121c-0.085-0.08-0.126-0.194-0.126-0.342
					c0-0.157,0.058-0.275,0.175-0.355c0.116-0.08,0.294-0.123,0.532-0.13l0.263-0.008v-0.082c0-0.097-0.023-0.169-0.066-0.217
					c-0.047-0.048-0.118-0.073-0.214-0.073c-0.076,0-0.152,0.012-0.223,0.034c-0.072,0.023-0.143,0.05-0.207,0.082l-0.105-0.231
					c0.083-0.043,0.173-0.075,0.272-0.098c0.098-0.022,0.19-0.034,0.278-0.034c0.192,0,0.339,0.042,0.438,0.126
					c0.101,0.084,0.148,0.216,0.148,0.398v1.026H32.534z M32.052,16.665c0.118,0,0.212-0.033,0.282-0.099
					c0.072-0.065,0.108-0.158,0.108-0.276v-0.132l-0.197,0.009c-0.15,0.005-0.262,0.031-0.331,0.076
					c-0.069,0.045-0.104,0.115-0.104,0.208c0,0.068,0.02,0.121,0.061,0.159C31.91,16.647,31.973,16.665,32.052,16.665z"/>
			</g>
			<g>
				<path fill="#84C9E5" d="M33.831,16.912c-0.23,0-0.405-0.066-0.525-0.201c-0.119-0.135-0.18-0.328-0.18-0.579
					c0-0.256,0.062-0.453,0.188-0.59c0.127-0.138,0.306-0.207,0.543-0.207c0.161,0,0.306,0.03,0.435,0.089l-0.099,0.26
					c-0.136-0.054-0.249-0.08-0.338-0.08c-0.265,0-0.396,0.174-0.396,0.524c0,0.17,0.033,0.299,0.1,0.385
					c0.065,0.085,0.162,0.128,0.288,0.128c0.143,0,0.28-0.036,0.409-0.107v0.282c-0.06,0.035-0.12,0.058-0.186,0.073
					C34.004,16.906,33.925,16.912,33.831,16.912z"/>
			</g>
			<g>
				<path fill="#84C9E5" d="M35.964,16.122c0,0.249-0.064,0.442-0.192,0.582c-0.127,0.14-0.306,0.208-0.533,0.208
					c-0.141,0-0.268-0.031-0.377-0.096c-0.108-0.064-0.192-0.157-0.252-0.277c-0.059-0.12-0.087-0.259-0.087-0.418
					c0-0.247,0.064-0.44,0.189-0.578c0.127-0.139,0.306-0.208,0.534-0.208c0.221,0,0.397,0.07,0.524,0.212
					C35.898,15.69,35.964,15.88,35.964,16.122z M34.855,16.122c0,0.352,0.13,0.527,0.389,0.527c0.258,0,0.387-0.176,0.387-0.527
					c0-0.348-0.13-0.522-0.389-0.522c-0.135,0-0.234,0.045-0.296,0.134C34.887,15.824,34.855,15.953,34.855,16.122z"/>
			</g>
			<g>
				<path fill="#84C9E5" d="M37.675,16.886H37.35v-0.937c0-0.118-0.024-0.205-0.07-0.263c-0.049-0.058-0.123-0.086-0.226-0.086
					c-0.137,0-0.237,0.04-0.301,0.121s-0.094,0.216-0.094,0.406v0.759h-0.323v-1.523h0.251l0.046,0.2h0.019
					c0.044-0.072,0.11-0.128,0.194-0.168s0.179-0.059,0.279-0.059c0.367,0,0.55,0.186,0.55,0.557V16.886z"/>
			</g>
		</g>
	</g>
</g>
</svg>
