<?xml version="1.0" encoding="utf-8"?>
<!-- Generator: Adobe Illustrator 16.0.0, SVG Export Plug-In . SVG Version: 6.00 Build 0)  -->
<!DOCTYPE svg PUBLIC "-//W3C//DTD SVG 1.1//EN" "http://www.w3.org/Graphics/SVG/1.1/DTD/svg11.dtd">
<svg version="1.1" id="Layer_1" xmlns="http://www.w3.org/2000/svg" xmlns:xlink="http://www.w3.org/1999/xlink" x="0px" y="0px"
	 width="50px" height="50px" viewBox="0 0 50 50" enable-background="new 0 0 50 50" xml:space="preserve">
<rect fill="none" width="50" height="50"/>
<g>
	<path fill="#312783" d="M25,12.19L14.623,22.569l4.296,4.296l-0.009,0.01l2.968,2.967l3.109-3.108l3.109,3.108l2.21-2.21
		l0.005,0.004l5.068-5.067L25,12.19z M25.436,24.461l0.205-0.204l1.631,1.631l-0.203,0.204L25.436,24.461z M27.455,26.479
		l0.204-0.204l1.631,1.631l-0.204,0.204L27.455,26.479z M20.64,27.906l1.631-1.631l0.204,0.204l-1.632,1.631L20.64,27.906z
		 M22.862,26.093l-0.204-0.204l1.631-1.631l0.204,0.204L22.862,26.093z M19.47,26.314l-0.245-0.246l2.167-2.167l0.246,0.245
		l0.025,0.025l-2.167,2.167L19.47,26.314z M17.577,24.333l2.785-2.786l0.349,0.348l-2.786,2.786L17.577,24.333z M32.35,24.333
		l-0.349,0.348l-2.785-2.786l0.348-0.348L32.35,24.333z M28.902,20.885l-0.348,0.349l-2.786-2.786l0.349-0.348L28.902,20.885z
		 M25.869,21.22l2.167,2.167l-0.229,0.231l-0.041,0.041l-2.168-2.168l0.041-0.04L25.869,21.22z M24.345,21.49l-2.168,2.168
		l-0.025-0.025l-0.246-0.246l2.167-2.167l0.246,0.245L24.345,21.49z M21.372,21.233l-0.348-0.349L23.81,18.1l0.348,0.348
		L21.372,21.233z M28.321,24.132l0.229-0.23l2.167,2.167l-0.229,0.23l-0.04,0.041l-2.168-2.167L28.321,24.132z"/>
	<g>
		<path fill="#312783" d="M17.52,32.559h-0.385c-0.248-0.29-0.563-0.435-0.944-0.435c-0.344,0-0.637,0.12-0.878,0.362
			c-0.243,0.242-0.364,0.535-0.364,0.878c0,0.344,0.121,0.638,0.364,0.88c0.242,0.242,0.535,0.363,0.878,0.363
			c0.381,0,0.696-0.146,0.944-0.435h0.385c-0.141,0.228-0.329,0.408-0.562,0.543c-0.234,0.135-0.49,0.201-0.767,0.201
			c-0.426,0-0.792-0.15-1.096-0.456c-0.304-0.304-0.456-0.669-0.456-1.097c0-0.425,0.152-0.791,0.456-1.095
			c0.305-0.305,0.67-0.456,1.096-0.456c0.277,0,0.533,0.066,0.767,0.201C17.191,32.149,17.379,32.33,17.52,32.559z"/>
		<path fill="#312783" d="M18.507,32.868h-0.124c-0.087,0-0.161,0.03-0.221,0.09c-0.06,0.061-0.09,0.134-0.09,0.221v1.614h-0.31
			v-2.234h0.31v0.08c0.095-0.054,0.199-0.08,0.311-0.08h0.124V32.868z"/>
		<path fill="#312783" d="M21.24,33.677c0,0.343-0.121,0.636-0.364,0.878c-0.242,0.242-0.535,0.362-0.878,0.362
			s-0.637-0.12-0.878-0.362c-0.243-0.242-0.364-0.535-0.364-0.878c0-0.344,0.121-0.638,0.364-0.88
			c0.242-0.242,0.535-0.363,0.878-0.363s0.637,0.121,0.878,0.363C21.119,33.039,21.24,33.333,21.24,33.677z M20.929,33.677
			c0-0.258-0.091-0.478-0.273-0.659c-0.182-0.183-0.401-0.273-0.658-0.273s-0.476,0.091-0.658,0.273
			c-0.182,0.182-0.273,0.401-0.273,0.659c0,0.256,0.091,0.476,0.273,0.657s0.401,0.273,0.658,0.273s0.476-0.092,0.658-0.273
			S20.929,33.933,20.929,33.677z"/>
		<path fill="#312783" d="M22.885,33.135h-0.309c0-0.107-0.038-0.199-0.114-0.275c-0.077-0.077-0.168-0.115-0.275-0.115
			s-0.197,0.038-0.272,0.115c-0.074,0.076-0.111,0.168-0.111,0.275c0,0.108,0.037,0.199,0.112,0.273s0.166,0.113,0.273,0.113
			c0.19,0,0.354,0.067,0.491,0.203c0.136,0.138,0.205,0.302,0.205,0.491c0,0.191-0.067,0.355-0.201,0.494
			c-0.134,0.139-0.297,0.207-0.491,0.207s-0.358-0.067-0.495-0.205c-0.136-0.136-0.204-0.301-0.204-0.496h0.309
			c0,0.108,0.038,0.2,0.115,0.277c0.076,0.075,0.167,0.114,0.274,0.114s0.198-0.039,0.271-0.114
			c0.074-0.077,0.111-0.169,0.111-0.277c0-0.107-0.037-0.198-0.112-0.272c-0.074-0.075-0.166-0.112-0.273-0.112
			c-0.19,0-0.354-0.069-0.491-0.205c-0.137-0.137-0.205-0.3-0.205-0.491c0-0.189,0.067-0.354,0.201-0.493
			c0.134-0.139,0.297-0.208,0.491-0.208c0.193,0,0.359,0.068,0.495,0.205C22.817,32.775,22.885,32.94,22.885,33.135z"/>
		<path fill="#312783" d="M24.531,33.135h-0.309c0-0.107-0.038-0.199-0.114-0.275c-0.076-0.077-0.168-0.115-0.275-0.115
			s-0.197,0.038-0.271,0.115c-0.074,0.076-0.111,0.168-0.111,0.275c0,0.108,0.038,0.199,0.112,0.273
			c0.075,0.074,0.166,0.113,0.273,0.113c0.19,0,0.354,0.067,0.491,0.203c0.136,0.138,0.205,0.302,0.205,0.491
			c0,0.191-0.067,0.355-0.201,0.494c-0.134,0.139-0.298,0.207-0.492,0.207s-0.358-0.067-0.495-0.205
			c-0.136-0.136-0.204-0.301-0.204-0.496h0.309c0,0.108,0.039,0.2,0.115,0.277c0.076,0.075,0.167,0.114,0.274,0.114
			s0.198-0.039,0.271-0.114c0.075-0.077,0.111-0.169,0.111-0.277c0-0.107-0.037-0.198-0.111-0.272
			c-0.075-0.075-0.166-0.112-0.273-0.112c-0.19,0-0.354-0.069-0.491-0.205c-0.137-0.137-0.205-0.3-0.205-0.491
			c0-0.189,0.067-0.354,0.201-0.493c0.134-0.139,0.298-0.208,0.491-0.208c0.194,0,0.359,0.068,0.495,0.205
			C24.463,32.775,24.531,32.94,24.531,33.135z"/>
		<path fill="#312783" d="M25.524,32.868H25.4c-0.087,0-0.161,0.03-0.22,0.09c-0.061,0.061-0.09,0.134-0.09,0.221v1.614h-0.311
			v-2.234h0.311v0.08c0.095-0.054,0.199-0.08,0.311-0.08h0.124V32.868z"/>
		<path fill="#312783" d="M28.257,33.677c0,0.343-0.121,0.636-0.363,0.878s-0.535,0.362-0.879,0.362s-0.636-0.12-0.879-0.362
			c-0.242-0.242-0.363-0.535-0.363-0.878c0-0.344,0.121-0.638,0.363-0.88c0.243-0.242,0.535-0.363,0.879-0.363
			s0.637,0.121,0.879,0.363S28.257,33.333,28.257,33.677z M27.946,33.677c0-0.258-0.091-0.478-0.272-0.659
			c-0.184-0.183-0.402-0.273-0.659-0.273s-0.476,0.091-0.658,0.273c-0.182,0.182-0.272,0.401-0.272,0.659
			c0,0.256,0.091,0.476,0.272,0.657c0.183,0.182,0.401,0.273,0.658,0.273s0.476-0.092,0.659-0.273
			C27.855,34.152,27.946,33.933,27.946,33.677z"/>
		<path fill="#312783" d="M30.989,34.793h-0.311v-0.298c-0.249,0.281-0.559,0.422-0.932,0.422c-0.344,0-0.637-0.12-0.879-0.362
			s-0.362-0.535-0.362-0.878c0-0.344,0.12-0.638,0.362-0.88s0.535-0.363,0.879-0.363c0.373,0,0.683,0.142,0.932,0.422v-0.297h0.311
			V34.793z M30.679,33.677c0-0.258-0.091-0.478-0.273-0.659c-0.183-0.183-0.401-0.273-0.658-0.273s-0.477,0.091-0.658,0.273
			c-0.182,0.182-0.273,0.401-0.273,0.659c0,0.256,0.092,0.476,0.273,0.657s0.401,0.273,0.658,0.273s0.476-0.092,0.658-0.273
			S30.679,33.933,30.679,33.677z"/>
		<path fill="#312783" d="M33.722,34.793h-0.311v-0.298c-0.248,0.281-0.56,0.422-0.932,0.422c-0.344,0-0.637-0.12-0.879-0.362
			c-0.241-0.242-0.363-0.535-0.363-0.878c0-0.344,0.122-0.638,0.363-0.88c0.242-0.242,0.535-0.363,0.879-0.363
			c0.372,0,0.684,0.142,0.932,0.422v-0.919h0.311V34.793z M33.411,33.677c0-0.258-0.091-0.478-0.273-0.659
			c-0.182-0.183-0.401-0.273-0.658-0.273s-0.477,0.091-0.658,0.273c-0.183,0.182-0.273,0.401-0.273,0.659
			c0,0.256,0.091,0.476,0.273,0.657c0.182,0.182,0.401,0.273,0.658,0.273s0.477-0.092,0.658-0.273
			C33.32,34.152,33.411,33.933,33.411,33.677z"/>
		<path fill="#312783" d="M35.367,33.135h-0.309c0-0.107-0.038-0.199-0.114-0.275c-0.076-0.077-0.168-0.115-0.275-0.115
			c-0.106,0-0.197,0.038-0.271,0.115c-0.073,0.076-0.11,0.168-0.11,0.275c0,0.108,0.037,0.199,0.111,0.273s0.165,0.113,0.273,0.113
			c0.189,0,0.354,0.067,0.49,0.203c0.137,0.138,0.205,0.302,0.205,0.491c0,0.191-0.067,0.355-0.201,0.494s-0.297,0.207-0.491,0.207
			s-0.358-0.067-0.494-0.205c-0.137-0.136-0.204-0.301-0.204-0.496h0.309c0,0.108,0.038,0.2,0.113,0.277
			c0.077,0.075,0.168,0.114,0.275,0.114s0.197-0.039,0.271-0.114c0.074-0.077,0.111-0.169,0.111-0.277
			c0-0.107-0.037-0.198-0.111-0.272c-0.075-0.075-0.166-0.112-0.273-0.112c-0.191,0-0.354-0.069-0.491-0.205
			c-0.137-0.137-0.204-0.3-0.204-0.491c0-0.189,0.066-0.354,0.2-0.493c0.135-0.139,0.299-0.208,0.492-0.208s0.358,0.068,0.494,0.205
			S35.367,32.94,35.367,33.135z"/>
	</g>
	<g>
		<path fill="#9B9B9A" d="M16.553,36.064h-0.217c-0.139-0.162-0.316-0.244-0.531-0.244c-0.193,0-0.357,0.067-0.494,0.203
			c-0.136,0.137-0.204,0.302-0.204,0.495c0,0.192,0.068,0.358,0.204,0.494s0.301,0.203,0.494,0.203c0.214,0,0.392-0.08,0.531-0.243
			h0.217c-0.079,0.128-0.185,0.229-0.316,0.305c-0.131,0.076-0.275,0.114-0.432,0.114c-0.24,0-0.445-0.086-0.616-0.258
			c-0.171-0.17-0.257-0.375-0.257-0.615c0-0.239,0.085-0.446,0.257-0.616c0.171-0.171,0.376-0.257,0.616-0.257
			c0.156,0,0.3,0.037,0.432,0.113C16.368,35.834,16.474,35.937,16.553,36.064z"/>
		<path fill="#9B9B9A" d="M17.911,36.693c0,0.193-0.068,0.357-0.205,0.493c-0.136,0.136-0.3,0.205-0.494,0.205
			s-0.358-0.069-0.494-0.205s-0.205-0.3-0.205-0.493s0.068-0.357,0.205-0.494s0.301-0.205,0.494-0.205s0.357,0.068,0.494,0.205
			C17.843,36.336,17.911,36.5,17.911,36.693z M17.736,36.693c0-0.146-0.051-0.269-0.153-0.371s-0.226-0.153-0.37-0.153
			c-0.145,0-0.268,0.051-0.37,0.153s-0.154,0.226-0.154,0.371c0,0.144,0.051,0.268,0.154,0.37c0.103,0.102,0.226,0.152,0.37,0.152
			c0.144,0,0.268-0.051,0.37-0.152C17.686,36.961,17.736,36.837,17.736,36.693z"/>
		<path fill="#9B9B9A" d="M18.47,36.239H18.4c-0.049,0-0.09,0.017-0.124,0.05c-0.034,0.035-0.05,0.076-0.05,0.125v0.907h-0.175
			v-1.257h0.175v0.045c0.053-0.03,0.112-0.045,0.174-0.045h0.07V36.239z"/>
		<path fill="#9B9B9A" d="M20.006,36.693c0,0.193-0.068,0.357-0.204,0.493s-0.301,0.205-0.495,0.205
			c-0.209,0-0.384-0.079-0.523-0.238v0.656h-0.175v-1.745h0.175v0.167c0.14-0.157,0.314-0.237,0.523-0.237
			c0.193,0,0.358,0.068,0.495,0.205S20.006,36.5,20.006,36.693z M19.832,36.693c0-0.146-0.051-0.269-0.153-0.371
			c-0.103-0.103-0.226-0.153-0.371-0.153c-0.144,0-0.268,0.051-0.37,0.153c-0.102,0.103-0.153,0.226-0.153,0.371
			c0,0.144,0.051,0.268,0.153,0.37c0.103,0.102,0.226,0.152,0.37,0.152c0.145,0,0.268-0.051,0.371-0.152
			C19.78,36.961,19.832,36.837,19.832,36.693z"/>
		<path fill="#9B9B9A" d="M21.543,36.693c0,0.193-0.068,0.357-0.205,0.493s-0.301,0.205-0.494,0.205
			c-0.193,0-0.358-0.069-0.494-0.205s-0.204-0.3-0.204-0.493s0.068-0.357,0.204-0.494s0.301-0.205,0.494-0.205
			c0.193,0,0.358,0.068,0.494,0.205S21.543,36.5,21.543,36.693z M21.368,36.693c0-0.146-0.051-0.269-0.154-0.371
			c-0.102-0.103-0.226-0.153-0.37-0.153s-0.268,0.051-0.37,0.153s-0.154,0.226-0.154,0.371c0,0.144,0.051,0.268,0.154,0.37
			c0.103,0.102,0.226,0.152,0.37,0.152s0.268-0.051,0.37-0.152C21.317,36.961,21.368,36.837,21.368,36.693z"/>
		<path fill="#9B9B9A" d="M22.137,36.239h-0.14v1.082h-0.174v-1.082h-0.14v-0.175h0.14v-0.35h0.174v0.35h0.14V36.239z"/>
		<path fill="#9B9B9A" d="M23.673,37.321h-0.175v-0.168c-0.139,0.159-0.314,0.238-0.523,0.238c-0.193,0-0.358-0.069-0.494-0.205
			s-0.205-0.3-0.205-0.493s0.068-0.357,0.205-0.494s0.301-0.205,0.494-0.205c0.209,0,0.384,0.08,0.523,0.237v-0.167h0.175V37.321z
			 M23.498,36.693c0-0.146-0.051-0.269-0.153-0.371c-0.103-0.103-0.226-0.153-0.37-0.153c-0.145,0-0.268,0.051-0.371,0.153
			c-0.102,0.103-0.153,0.226-0.153,0.371c0,0.144,0.051,0.268,0.153,0.37c0.103,0.102,0.226,0.152,0.371,0.152
			c0.144,0,0.268-0.051,0.37-0.152C23.447,36.961,23.498,36.837,23.498,36.693z"/>
		<path fill="#9B9B9A" d="M24.267,36.239h-0.14v1.082h-0.175v-1.082h-0.14v-0.175h0.14v-0.35h0.175v0.35h0.14V36.239z"/>
		<path fill="#9B9B9A" d="M25.803,36.693h-1.222c0,0.144,0.051,0.268,0.153,0.37c0.103,0.102,0.226,0.152,0.371,0.152
			c0.114,0,0.216-0.031,0.307-0.099c0.091-0.066,0.154-0.152,0.189-0.256h0.182c-0.037,0.152-0.119,0.279-0.245,0.381
			c-0.125,0.1-0.27,0.149-0.433,0.149c-0.193,0-0.358-0.069-0.494-0.205s-0.205-0.3-0.205-0.493s0.068-0.357,0.205-0.494
			s0.301-0.205,0.494-0.205c0.193,0,0.358,0.068,0.494,0.205C25.734,36.336,25.803,36.5,25.803,36.693z M25.597,36.519
			c-0.035-0.103-0.098-0.187-0.189-0.251c-0.09-0.065-0.191-0.099-0.303-0.099s-0.213,0.033-0.304,0.099
			c-0.09,0.064-0.153,0.148-0.188,0.251H25.597z"/>
		<path fill="#9B9B9A" d="M27.968,35.89h-1.152v0.542h0.803v0.175h-0.803v0.715h-0.174v-1.606h1.326V35.89z"/>
		<path fill="#9B9B9A" d="M28.282,35.925h-0.175v-0.21h0.175V35.925z M28.282,37.321h-0.175v-1.257h0.175V37.321z"/>
		<path fill="#9B9B9A" d="M29.54,37.321h-0.176v-0.768c0-0.108-0.037-0.197-0.111-0.273c-0.074-0.074-0.165-0.111-0.272-0.111
			s-0.198,0.037-0.272,0.111c-0.074,0.076-0.111,0.165-0.111,0.273v0.768h-0.175v-1.257h0.175v0.084
			c0.107-0.103,0.235-0.154,0.384-0.154c0.154,0,0.285,0.056,0.395,0.164c0.109,0.109,0.165,0.241,0.165,0.396V37.321z"/>
		<path fill="#9B9B9A" d="M31.075,37.321h-0.174v-0.168c-0.14,0.159-0.314,0.238-0.523,0.238c-0.194,0-0.358-0.069-0.495-0.205
			c-0.136-0.136-0.204-0.3-0.204-0.493s0.068-0.357,0.204-0.494c0.137-0.137,0.301-0.205,0.495-0.205
			c0.209,0,0.384,0.08,0.523,0.237v-0.167h0.174V37.321z M30.901,36.693c0-0.146-0.052-0.269-0.154-0.371s-0.226-0.153-0.369-0.153
			c-0.146,0-0.269,0.051-0.371,0.153c-0.102,0.103-0.153,0.226-0.153,0.371c0,0.144,0.052,0.268,0.153,0.37
			c0.103,0.102,0.226,0.152,0.371,0.152c0.144,0,0.267-0.051,0.369-0.152C30.85,36.961,30.901,36.837,30.901,36.693z"/>
		<path fill="#9B9B9A" d="M32.333,37.321h-0.175v-0.768c0-0.108-0.037-0.197-0.112-0.273c-0.074-0.074-0.164-0.111-0.272-0.111
			c-0.106,0-0.197,0.037-0.271,0.111c-0.075,0.076-0.112,0.165-0.112,0.273v0.768h-0.175v-1.257h0.175v0.084
			c0.107-0.103,0.235-0.154,0.384-0.154c0.154,0,0.286,0.056,0.396,0.164c0.109,0.109,0.164,0.241,0.164,0.396V37.321z"/>
		<path fill="#9B9B9A" d="M33.81,36.973c-0.053,0.126-0.138,0.227-0.253,0.304s-0.244,0.115-0.386,0.115
			c-0.193,0-0.358-0.069-0.494-0.205c-0.137-0.136-0.204-0.3-0.204-0.493s0.067-0.357,0.204-0.494
			c0.136-0.137,0.301-0.205,0.494-0.205c0.14,0,0.267,0.039,0.383,0.115c0.115,0.077,0.2,0.178,0.256,0.301H33.61
			c-0.102-0.16-0.249-0.241-0.439-0.241c-0.145,0-0.268,0.051-0.37,0.153s-0.154,0.226-0.154,0.371c0,0.144,0.052,0.268,0.154,0.37
			c0.103,0.102,0.226,0.152,0.37,0.152c0.193,0,0.341-0.08,0.443-0.243H33.81z"/>
		<path fill="#9B9B9A" d="M35.336,36.693h-1.223c0,0.144,0.052,0.268,0.154,0.37c0.103,0.102,0.226,0.152,0.37,0.152
			c0.113,0,0.217-0.031,0.307-0.099c0.091-0.066,0.154-0.152,0.189-0.256h0.182c-0.038,0.152-0.119,0.279-0.245,0.381
			c-0.126,0.1-0.271,0.149-0.433,0.149c-0.193,0-0.358-0.069-0.494-0.205c-0.137-0.136-0.204-0.3-0.204-0.493
			s0.067-0.357,0.204-0.494c0.136-0.137,0.301-0.205,0.494-0.205s0.358,0.068,0.494,0.205S35.336,36.5,35.336,36.693z M35.13,36.519
			c-0.035-0.103-0.098-0.187-0.188-0.251c-0.091-0.065-0.192-0.099-0.304-0.099c-0.112,0-0.213,0.033-0.305,0.099
			c-0.09,0.064-0.152,0.148-0.188,0.251H35.13z"/>
	</g>
</g>
</svg>
