<?xml version="1.0" encoding="utf-8"?>
<!-- Generator: Adobe Illustrator 16.0.0, SVG Export Plug-In . SVG Version: 6.00 Build 0)  -->
<!DOCTYPE svg PUBLIC "-//W3C//DTD SVG 1.1//EN" "http://www.w3.org/Graphics/SVG/1.1/DTD/svg11.dtd">
<svg version="1.1" id="Layer_1" xmlns="http://www.w3.org/2000/svg" xmlns:xlink="http://www.w3.org/1999/xlink" x="0px" y="0px"
	 width="50px" height="50px" viewBox="0 0 50 50" enable-background="new 0 0 50 50" xml:space="preserve">
<rect fill="none" width="50" height="50"/>
<g>
	<g>
		<polygon fill="#1D1D1B" points="16.87,15.369 16.87,30.562 27.585,27.834 27.585,29.758 14.097,33.354 14.097,12.671 
			27.585,15.369 27.585,17.292 		"/>
	</g>
	<path fill="#1D1D1B" d="M33.658,13.383v16.88l-6.07-2.43v1.92l8.261,3.6v-20.68L33.658,13.383z M35.208,24.133
		c0,0.36-0.18,0.57-0.47,0.57c-0.36,0-0.48-0.31-0.48-0.57v-1.79c0-0.35,0.181-0.56,0.48-0.56c0.35,0,0.47,0.3,0.47,0.56V24.133z"/>
	<g>
		<g>
			<g>
				<path fill="#1D1D1B" d="M15.363,36.832l-0.06-0.053c-0.007-0.004-0.01-0.006-0.011-0.006c-0.004,0-0.011,0.004-0.028,0.023
					c-0.116,0.127-0.296,0.199-0.479,0.199c-0.337,0-0.564-0.213-0.564-0.531v-1.211c0-0.301,0.232-0.518,0.553-0.518
					c0.195,0,0.391,0.084,0.488,0.209c0.007,0.008,0.015,0.012,0.02,0.012c0.001,0,0.003,0,0.005-0.002l0.073-0.062
					c0.012-0.012,0.006-0.018,0.003-0.02c-0.13-0.16-0.339-0.246-0.589-0.246c-0.396,0-0.683,0.262-0.683,0.623v1.223
					c0,0.383,0.272,0.631,0.694,0.631c0.235,0,0.438-0.086,0.584-0.25c0.007-0.006,0.008-0.01,0.008-0.01
					C15.376,36.844,15.375,36.842,15.363,36.832z"/>
			</g>
			<g>
				<path fill="#1D1D1B" d="M17.14,34.654h-0.111c-0.008,0-0.011,0.002-0.011,0.002c-0.001,0-0.001,0.002-0.001,0.006v1.799
					c0,0.32-0.228,0.535-0.564,0.535c-0.35,0-0.576-0.211-0.576-0.539v-1.795c0-0.008-0.001-0.008-0.007-0.008h-0.112
					c-0.007,0-0.01,0.002-0.011,0.002c0,0-0.001,0.002-0.001,0.006v1.803c0,0.391,0.276,0.643,0.703,0.643
					c0.418,0,0.699-0.258,0.699-0.643v-1.803C17.147,34.654,17.146,34.654,17.14,34.654z"/>
			</g>
			<g>
				<path fill="#1D1D1B" d="M19.164,37.066L18.7,36.068c-0.03-0.059-0.016-0.084,0.025-0.115c0.22-0.166,0.345-0.402,0.345-0.652
					c0-0.402-0.247-0.643-0.659-0.643h-0.724c-0.012,0-0.02,0.006-0.02,0.016v2.402c-0.001,0.002,0.002,0.004,0.012,0.004h0.111
					c0.004,0,0.007-0.002,0.007-0.002s0.001-0.002,0.001-0.006V36h0.722l0.489,1.051c0.009,0.023,0.012,0.029,0.045,0.029h0.1
					c0.01,0,0.013-0.004,0.013-0.004S19.168,37.072,19.164,37.066z M18.547,35.895h-0.748v-1.129h0.568
					c0.498,0,0.572,0.348,0.572,0.555c0,0.121-0.035,0.352-0.272,0.529C18.621,35.887,18.597,35.895,18.547,35.895z"/>
			</g>
			<g>
				<path fill="#1D1D1B" d="M19.719,34.654h-0.112c-0.008,0-0.01,0.002-0.011,0.002c0,0-0.001,0.002-0.001,0.006v2.41
					c0,0.002,0,0.008,0.012,0.008h0.112c0.011,0,0.011-0.002,0.011-0.008v-2.41C19.729,34.656,19.726,34.654,19.719,34.654z"/>
			</g>
			<g>
				<path fill="#1D1D1B" d="M21.014,34.627c-0.41,0-0.695,0.264-0.695,0.643v1.17c0,0.412,0.268,0.668,0.699,0.668
					c0.425,0,0.698-0.254,0.698-0.646V35.27C21.716,34.885,21.434,34.627,21.014,34.627z M21.586,36.451
					c0,0.338-0.219,0.545-0.568,0.545c-0.419,0-0.569-0.291-0.569-0.562v-1.156c0-0.268,0.177-0.537,0.569-0.537
					c0.419,0,0.568,0.289,0.568,0.537V36.451z"/>
			</g>
			<g>
				<path fill="#1D1D1B" d="M23.62,34.654h-0.112c-0.007,0-0.01,0.002-0.011,0.002c0,0,0,0.002,0,0.006v1.799
					c0,0.32-0.228,0.535-0.565,0.535c-0.35,0-0.576-0.211-0.576-0.539v-1.795c0-0.008-0.001-0.008-0.007-0.008h-0.112
					c-0.007,0-0.011,0.002-0.011,0.002s-0.001,0.002-0.001,0.006v1.803c0,0.391,0.276,0.643,0.703,0.643
					c0.418,0,0.699-0.258,0.699-0.643v-1.803C23.627,34.654,23.626,34.654,23.62,34.654z"/>
			</g>
			<g>
				<path fill="#1D1D1B" d="M24.768,35.756c-0.244-0.094-0.577-0.223-0.577-0.514c0-0.371,0.293-0.502,0.544-0.502
					c0.179,0,0.381,0.062,0.513,0.16c0.007,0.006,0.013,0.008,0.018,0.008c0.001,0,0.004,0,0.008-0.006l0.049-0.072
					c0.005-0.01,0.008-0.016,0.008-0.018c0,0-0.001-0.002-0.006-0.006c-0.155-0.117-0.37-0.18-0.604-0.18
					c-0.318,0-0.659,0.191-0.659,0.615c0,0.369,0.364,0.512,0.656,0.625l0.046,0.02c0.291,0.115,0.532,0.238,0.532,0.586
					c0,0.322-0.244,0.523-0.637,0.523c-0.203,0-0.427-0.109-0.548-0.213c-0.013-0.01-0.016-0.01-0.017-0.01c0,0-0.003,0-0.012,0.01
					l-0.052,0.051c-0.011,0.01-0.014,0.016-0.014,0.018c0,0,0.001,0.002,0.006,0.006c0.136,0.146,0.387,0.242,0.641,0.242
					c0.369,0,0.763-0.168,0.763-0.643C25.426,36.051,25.114,35.893,24.768,35.756z"/>
			</g>
		</g>
		<g>
			<g>
				<path fill="#1D1D1B" d="M28.132,34.465h-0.103c-0.01,0-0.013,0.004-0.013,0.012v1.955c0,0.4-0.051,0.607-0.513,0.77
					c-0.021,0.008-0.021,0.008-0.016,0.027l0.024,0.088c0.003,0.01,0.006,0.012,0.014,0.012c0.004,0,0.01,0,0.014-0.002
					c0.523-0.18,0.607-0.375,0.607-0.912v-1.938C28.147,34.471,28.147,34.465,28.132,34.465z"/>
			</g>
			<g>
				<path fill="#1D1D1B" d="M29.431,34.434c-0.408,0-0.693,0.264-0.693,0.643v1.17c0,0.412,0.267,0.668,0.698,0.668
					c0.424,0,0.698-0.254,0.698-0.646v-1.191C30.134,34.691,29.852,34.434,29.431,34.434z M30.004,36.26
					c0,0.334-0.218,0.543-0.568,0.543c-0.42,0-0.569-0.291-0.569-0.562v-1.156c0-0.268,0.177-0.537,0.569-0.537
					c0.42,0,0.568,0.289,0.568,0.537V36.26z"/>
			</g>
			<g>
				<path fill="#1D1D1B" d="M32.11,34.461h-0.112c-0.012,0-0.012,0.004-0.012,0.008v1.111h-1.204v-1.111
					c0-0.008-0.001-0.008-0.008-0.008h-0.112c-0.011,0-0.011,0-0.011,0.008v2.41c0,0.004,0.001,0.006,0.001,0.006
					s0.003,0.002,0.01,0.002h0.112c0.007,0,0.008-0.002,0.008-0.008v-1.189h1.204v1.189c0,0.002,0,0.008,0.012,0.008h0.116
					c0.005,0,0.007-0.002,0.007-0.008v-2.41C32.121,34.463,32.121,34.461,32.11,34.461z"/>
			</g>
			<g>
				<path fill="#1D1D1B" d="M34.114,34.461c0,0-0.002,0-0.006,0H34c-0.007,0-0.012,0-0.012,0.012v2.119h-0.04l-1.161-2.105
					c-0.01-0.016-0.017-0.025-0.042-0.025h-0.088c-0.014,0-0.026,0.002-0.026,0.031v2.387c0,0.004,0,0.006,0,0.008
					c0-0.002,0.003,0,0.007,0h0.111c0.011,0,0.011-0.002,0.011-0.008v-2.107h0.042l0.005,0.01c0.275,0.502,0.566,1.023,0.848,1.529
					c0.104,0.186,0.207,0.371,0.309,0.555c0.009,0.016,0.014,0.021,0.037,0.021h0.093c0.008,0,0.022-0.004,0.022-0.023v-2.391
					C34.115,34.465,34.114,34.461,34.114,34.461z"/>
			</g>
			<g>
				<path fill="#1D1D1B" d="M35.252,35.562c-0.243-0.094-0.577-0.223-0.577-0.514c0-0.369,0.293-0.502,0.545-0.502
					c0.18,0,0.38,0.062,0.511,0.16c0.008,0.004,0.015,0.008,0.019,0.008c0.002,0,0.005,0,0.01-0.006l0.047-0.072
					c0.006-0.01,0.009-0.016,0.008-0.018c0,0-0.001-0.004-0.006-0.006c-0.155-0.117-0.369-0.18-0.604-0.18
					c-0.316,0-0.659,0.191-0.659,0.615c0,0.369,0.364,0.51,0.656,0.625l0.047,0.018c0.292,0.117,0.533,0.24,0.533,0.588
					c0,0.324-0.243,0.523-0.636,0.523c-0.206,0-0.429-0.109-0.55-0.213c-0.013-0.01-0.016-0.01-0.017-0.01c0,0-0.003,0-0.012,0.01
					l-0.052,0.051c-0.01,0.012-0.013,0.014-0.014,0.018c0,0,0.001,0.002,0.006,0.006c0.136,0.146,0.387,0.242,0.641,0.242
					c0.368,0,0.763-0.17,0.763-0.645C35.91,35.857,35.599,35.699,35.252,35.562z"/>
			</g>
		</g>
		<g>
			<path fill="#1D1D1B" d="M26.974,35.926c0,0.006-0.003,0.01-0.007,0.014c-0.004,0.006-0.009,0.008-0.015,0.008
				s-0.012-0.002-0.015-0.008c-0.001,0-0.002-0.002-0.002-0.002l-0.266-0.266h-0.245v0.254c0,0.006-0.002,0.01-0.006,0.014
				c-0.004,0.006-0.009,0.008-0.016,0.008c-0.005,0-0.01-0.002-0.014-0.008c-0.005-0.004-0.007-0.008-0.007-0.014v-0.549
				c0-0.006,0.002-0.012,0.007-0.016c0.004-0.004,0.009-0.006,0.014-0.006h0.412c0.044,0,0.081,0.016,0.111,0.047
				c0.031,0.031,0.047,0.068,0.047,0.111s-0.016,0.08-0.047,0.111c-0.03,0.031-0.067,0.047-0.111,0.047h-0.086l0.238,0.238
				C26.971,35.914,26.974,35.92,26.974,35.926z M26.815,35.631c0.032,0,0.06-0.012,0.082-0.035c0.022-0.021,0.034-0.049,0.034-0.082
				c0-0.031-0.012-0.059-0.034-0.082c-0.022-0.021-0.05-0.033-0.082-0.033h-0.391v0.232H26.815z"/>
			<path fill="#1D1D1B" d="M26.68,36.33c-0.374,0-0.678-0.305-0.678-0.68c0-0.373,0.304-0.678,0.678-0.678s0.679,0.305,0.679,0.678
				C27.358,36.025,27.054,36.33,26.68,36.33z M26.68,35.023c-0.347,0-0.627,0.281-0.627,0.627s0.28,0.629,0.627,0.629
				c0.346,0,0.628-0.283,0.628-0.629S27.025,35.023,26.68,35.023z"/>
		</g>
	</g>
</g>
</svg>
