<?xml version="1.0" encoding="utf-8"?>
<!-- Generator: Adobe Illustrator 22.0.0, SVG Export Plug-In . SVG Version: 6.00 Build 0)  -->
<svg version="1.1" id="Layer_1" xmlns="http://www.w3.org/2000/svg" xmlns:xlink="http://www.w3.org/1999/xlink" x="0px" y="0px"
	 viewBox="0 0 50 50" style="enable-background:new 0 0 50 50;" xml:space="preserve">
<style type="text/css">
	.st0{fill:#E7E3E3;}
	.st1{fill:none;}
	.st2{fill:#1D1D1B;}
	.st3{fill:#352927;}
	.st4{fill:#877571;}
	.st5{fill:#A59894;}
	.st6{fill:#4F3E3A;}
</style>
<polygon class="st0" points="27.585,15.369 35.85,12.67 35.849,14.981 27.585,17.292 "/>
<rect class="st1" width="50" height="50"/>
<g>
	<polygon class="st2" points="16.87,15.369 16.87,30.562 27.585,27.834 27.585,29.758 14.097,33.354 14.097,12.671 27.585,15.369 
		27.585,17.292 	"/>
</g>
<g>
	<g>
		<g>
			<path class="st3" d="M15.363,36.832l-0.06-0.053c-0.007-0.004-0.01-0.006-0.011-0.006c-0.004,0-0.011,0.004-0.028,0.023
				c-0.116,0.127-0.296,0.199-0.479,0.199c-0.337,0-0.564-0.213-0.564-0.531v-1.211c0-0.301,0.232-0.518,0.553-0.518
				c0.195,0,0.391,0.084,0.488,0.209c0.007,0.008,0.015,0.012,0.02,0.012c0.001,0,0.003,0,0.005-0.002l0.073-0.062
				c0.012-0.012,0.006-0.018,0.003-0.02c-0.13-0.16-0.339-0.246-0.589-0.246c-0.396,0-0.683,0.262-0.683,0.623v1.223
				c0,0.383,0.272,0.631,0.694,0.631c0.235,0,0.438-0.086,0.584-0.25c0.007-0.006,0.008-0.01,0.008-0.01
				C15.376,36.844,15.375,36.842,15.363,36.832z"/>
		</g>
		<g>
			<path class="st3" d="M17.14,34.654h-0.111c-0.008,0-0.011,0.002-0.011,0.002c-0.001,0-0.001,0.002-0.001,0.006v1.799
				c0,0.32-0.228,0.535-0.564,0.535c-0.35,0-0.576-0.211-0.576-0.539v-1.795c0-0.008-0.001-0.008-0.007-0.008h-0.112
				c-0.007,0-0.01,0.002-0.011,0.002c0,0-0.001,0.002-0.001,0.006v1.803c0,0.391,0.276,0.643,0.703,0.643
				c0.418,0,0.699-0.258,0.699-0.643v-1.803C17.147,34.654,17.146,34.654,17.14,34.654z"/>
		</g>
		<g>
			<path class="st3" d="M19.16,37.07l-0.46-1c-0.03-0.06-0.02-0.09,0.03-0.12c0.21-0.16,0.34-0.4,0.34-0.65
				c0-0.4-0.25-0.64-0.66-0.64h-0.72c-0.01,0-0.02,0-0.02,0.01v2.41c0,0,0,0,0.01,0h0.12c0,0,0,0,0-0.01V36h0.72l0.49,1.05
				c0.01,0.02,0.01,0.03,0.04,0.03h0.1c0.01,0,0.02,0,0.02,0S19.17,37.07,19.16,37.07z M18.55,35.9H17.8v-1.13h0.57
				c0.5,0,0.57,0.34,0.57,0.55c0,0.12-0.04,0.35-0.27,0.53C18.62,35.89,18.6,35.9,18.55,35.9z"/>
		</g>
		<g>
			<path class="st3" d="M19.719,34.654h-0.112c-0.008,0-0.01,0.002-0.011,0.002c0,0-0.001,0.002-0.001,0.006v2.41
				c0,0.002,0,0.008,0.012,0.008h0.112c0.011,0,0.011-0.002,0.011-0.008v-2.41C19.729,34.656,19.726,34.654,19.719,34.654z"/>
		</g>
		<g>
			<path class="st3" d="M21.01,34.63c-0.41,0-0.69,0.26-0.69,0.64v1.17c0,0.41,0.27,0.67,0.7,0.67c0.42,0,0.7-0.26,0.7-0.65v-1.19
				C21.72,34.88,21.43,34.63,21.01,34.63z M21.59,36.45c0,0.34-0.22,0.55-0.57,0.55c-0.42,0-0.57-0.3-0.57-0.57v-1.15
				c0-0.27,0.18-0.54,0.57-0.54c0.42,0,0.57,0.29,0.57,0.54V36.45z M21.01,34.63c-0.41,0-0.69,0.26-0.69,0.64v1.17
				c0,0.41,0.27,0.67,0.7,0.67c0.42,0,0.7-0.26,0.7-0.65v-1.19C21.72,34.88,21.43,34.63,21.01,34.63z M21.59,36.45
				c0,0.34-0.22,0.55-0.57,0.55c-0.42,0-0.57-0.3-0.57-0.57v-1.15c0-0.27,0.18-0.54,0.57-0.54c0.42,0,0.57,0.29,0.57,0.54V36.45z"/>
		</g>
		<g>
			<path class="st3" d="M23.62,34.654h-0.112c-0.007,0-0.01,0.002-0.011,0.002c0,0,0,0.002,0,0.006v1.799
				c0,0.32-0.228,0.535-0.565,0.535c-0.35,0-0.576-0.211-0.576-0.539v-1.795c0-0.008-0.001-0.008-0.007-0.008h-0.112
				c-0.007,0-0.011,0.002-0.011,0.002s-0.001,0.002-0.001,0.006v1.803c0,0.391,0.276,0.643,0.703,0.643
				c0.418,0,0.699-0.258,0.699-0.643v-1.803C23.627,34.654,23.626,34.654,23.62,34.654z"/>
		</g>
		<g>
			<path class="st3" d="M24.768,35.756c-0.244-0.094-0.577-0.223-0.577-0.514c0-0.371,0.293-0.502,0.544-0.502
				c0.179,0,0.381,0.062,0.513,0.16c0.007,0.006,0.013,0.008,0.018,0.008c0.001,0,0.004,0,0.008-0.006l0.049-0.072
				c0.005-0.01,0.008-0.016,0.008-0.018c0,0-0.001-0.002-0.006-0.006c-0.155-0.117-0.37-0.18-0.604-0.18
				c-0.318,0-0.659,0.191-0.659,0.615c0,0.369,0.364,0.512,0.656,0.625l0.046,0.02c0.291,0.115,0.532,0.238,0.532,0.586
				c0,0.322-0.244,0.523-0.637,0.523c-0.203,0-0.427-0.109-0.548-0.213c-0.013-0.01-0.016-0.01-0.017-0.01c0,0-0.003,0-0.012,0.01
				l-0.052,0.051c-0.011,0.01-0.014,0.016-0.014,0.018c0,0,0.001,0.002,0.006,0.006c0.136,0.146,0.387,0.242,0.641,0.242
				c0.369,0,0.763-0.168,0.763-0.643C25.426,36.051,25.114,35.893,24.768,35.756z"/>
		</g>
	</g>
	<g>
		<g>
			<path class="st3" d="M28.132,34.465h-0.103c-0.01,0-0.013,0.004-0.013,0.012v1.955c0,0.4-0.051,0.607-0.513,0.77
				c-0.021,0.008-0.021,0.008-0.016,0.027l0.024,0.088c0.003,0.01,0.006,0.012,0.014,0.012c0.004,0,0.01,0,0.014-0.002
				c0.523-0.18,0.607-0.375,0.607-0.912v-1.938C28.147,34.471,28.147,34.465,28.132,34.465z"/>
		</g>
		<g>
			<path class="st3" d="M29.43,34.43c-0.41,0-0.69,0.27-0.69,0.65v1.17c0,0.41,0.26,0.66,0.7,0.66c0.42,0,0.69-0.25,0.69-0.64v-1.19
				C30.13,34.69,29.85,34.43,29.43,34.43z M30,36.26c0,0.33-0.21,0.54-0.56,0.54c-0.42,0-0.57-0.29-0.57-0.56v-1.16
				c0-0.26,0.17-0.53,0.57-0.53c0.42,0,0.56,0.29,0.56,0.53V36.26z"/>
		</g>
		<g>
			<path class="st3" d="M32.11,34.461h-0.112c-0.012,0-0.012,0.004-0.012,0.008v1.111h-1.204v-1.111
				c0-0.008-0.001-0.008-0.008-0.008h-0.112c-0.011,0-0.011,0-0.011,0.008v2.41c0,0.004,0.001,0.006,0.001,0.006
				s0.003,0.002,0.01,0.002h0.112c0.007,0,0.008-0.002,0.008-0.008V35.69h1.204v1.189c0,0.002,0,0.008,0.012,0.008h0.116
				c0.005,0,0.007-0.002,0.007-0.008v-2.41C32.121,34.463,32.121,34.461,32.11,34.461z"/>
		</g>
		<g>
			<path class="st3" d="M34.114,34.461c0,0-0.002,0-0.006,0H34c-0.007,0-0.012,0-0.012,0.012v2.119h-0.04l-1.161-2.105
				c-0.01-0.016-0.017-0.025-0.042-0.025h-0.088c-0.014,0-0.026,0.002-0.026,0.031v2.387c0,0.004,0,0.006,0,0.008
				c0-0.002,0.003,0,0.007,0h0.111c0.011,0,0.011-0.002,0.011-0.008v-2.107h0.042l0.005,0.01c0.275,0.502,0.566,1.023,0.848,1.529
				c0.104,0.186,0.207,0.371,0.309,0.555c0.009,0.016,0.014,0.021,0.037,0.021h0.093c0.008,0,0.022-0.004,0.022-0.023v-2.391
				C34.115,34.465,34.114,34.461,34.114,34.461z"/>
		</g>
		<g>
			<path class="st3" d="M35.252,35.562c-0.243-0.094-0.577-0.223-0.577-0.514c0-0.369,0.293-0.502,0.545-0.502
				c0.18,0,0.38,0.062,0.511,0.16c0.008,0.004,0.015,0.008,0.019,0.008c0.002,0,0.005,0,0.01-0.006l0.047-0.072
				c0.006-0.01,0.009-0.016,0.008-0.018c0,0-0.001-0.004-0.006-0.006c-0.155-0.117-0.369-0.18-0.604-0.18
				c-0.316,0-0.659,0.191-0.659,0.615c0,0.369,0.364,0.51,0.656,0.625l0.047,0.018c0.292,0.117,0.533,0.24,0.533,0.588
				c0,0.324-0.243,0.523-0.636,0.523c-0.206,0-0.429-0.109-0.55-0.213c-0.013-0.01-0.016-0.01-0.017-0.01c0,0-0.003,0-0.012,0.01
				l-0.052,0.051c-0.01,0.012-0.013,0.014-0.014,0.018c0,0,0.001,0.002,0.006,0.006c0.136,0.146,0.387,0.242,0.641,0.242
				c0.368,0,0.763-0.17,0.763-0.645C35.91,35.857,35.599,35.699,35.252,35.562z"/>
		</g>
	</g>
	<g>
		<path class="st3" d="M26.81,35.67c0.05,0,0.08-0.01,0.11-0.05c0.04-0.03,0.05-0.06,0.05-0.11c0-0.04-0.01-0.08-0.05-0.11
			c-0.03-0.03-0.06-0.04-0.11-0.04h-0.42c-0.01,0.01-0.01,0.01-0.01,0.02v0.55c0,0,0,0.01,0.01,0.01c0,0.01,0.01,0.01,0.01,0.01
			c0.01,0,0.01,0,0.02-0.01v-0.27h0.25l0.27,0.27c0,0.01,0.01,0.01,0.01,0.01c0.01,0,0.01,0,0.02-0.01v-0.01c0-0.01,0-0.02,0-0.02
			l-0.24-0.24H26.81z M26.42,35.63V35.4h0.4c0.03,0,0.06,0.01,0.08,0.03c0.02,0.03,0.03,0.05,0.03,0.08c0,0.04-0.01,0.07-0.03,0.09
			c-0.02,0.02-0.05,0.03-0.08,0.03H26.42z"/>
		<path class="st3" d="M26.68,34.97c-0.37,0-0.68,0.31-0.68,0.68c0,0.38,0.31,0.68,0.68,0.68s0.68-0.3,0.68-0.68
			C27.36,35.28,27.05,34.97,26.68,34.97z M26.68,36.28c-0.35,0-0.63-0.28-0.63-0.63c0-0.35,0.28-0.63,0.63-0.63
			c0.34,0,0.63,0.28,0.63,0.63C27.31,36,27.03,36.28,26.68,36.28z"/>
	</g>
</g>
<polygon class="st4" points="14.097,12.671 16.87,15.369 27.585,17.292 27.585,15.369 "/>
<polygon class="st5" points="14.097,33.354 16.87,30.562 16.87,15.369 14.097,12.671 "/>
<polygon class="st4" points="16.87,30.562 27.588,27.833 27.588,29.753 14.097,33.354 "/>
<polygon class="st6" points="35.849,33.353 33.658,30.263 27.588,27.833 27.588,29.753 "/>
<path class="st3" d="M33.66,13.38v16.88l2.19,3.09V12.67L33.66,13.38z M35.21,24.13c0,0.36-0.18,0.57-0.47,0.57
	c-0.36,0-0.48-0.31-0.48-0.57v-1.79c0-0.35,0.18-0.56,0.48-0.56c0.35,0,0.47,0.3,0.47,0.56V24.13z"/>
</svg>
