<?xml version="1.0" encoding="utf-8"?>
<!-- Generator: Adobe Illustrator 16.0.0, SVG Export Plug-In . SVG Version: 6.00 Build 0)  -->
<!DOCTYPE svg PUBLIC "-//W3C//DTD SVG 1.1//EN" "http://www.w3.org/Graphics/SVG/1.1/DTD/svg11.dtd">
<svg version="1.1" id="Layer_1" xmlns="http://www.w3.org/2000/svg" xmlns:xlink="http://www.w3.org/1999/xlink" x="0px" y="0px"
	 width="50px" height="50px" viewBox="0 0 50 50" enable-background="new 0 0 50 50" xml:space="preserve">
<rect fill="none" width="50" height="50"/>
<g>
	<g>
		<path fill="#BCCD30" d="M12.771,35.2v0.689c0,0.286,0.26,0.431,0.78,0.431c0.521,0,0.781-0.145,0.781-0.431v-0.396
			c0-0.085,0.074-0.128,0.221-0.128c0.148,0,0.221,0.043,0.221,0.128v0.342c0,0.306-0.111,0.527-0.332,0.666
			c-0.221,0.137-0.516,0.205-0.885,0.205s-0.667-0.068-0.891-0.205c-0.225-0.139-0.336-0.36-0.336-0.666V35.2
			c0-0.378,0.162-0.607,0.485-0.684c-0.287-0.089-0.43-0.313-0.43-0.673V33.33c0-0.306,0.112-0.528,0.337-0.665
			c0.224-0.138,0.51-0.207,0.857-0.207c0.348,0,0.623,0.069,0.825,0.21c0.202,0.14,0.303,0.359,0.303,0.662v0.083
			c0,0.084-0.073,0.126-0.221,0.126s-0.221-0.042-0.221-0.126v-0.139c0-0.287-0.24-0.43-0.72-0.43c-0.48,0-0.72,0.143-0.72,0.43
			v0.569c0,0.322,0.198,0.484,0.596,0.484h0.414c0.074,0,0.11,0.063,0.11,0.194c0,0.127-0.037,0.192-0.11,0.192h-0.469
			C12.969,34.715,12.771,34.876,12.771,35.2z"/>
		<path fill="#BCCD30" d="M17.625,35.89v-0.623c0-0.122-0.048-0.21-0.143-0.265c-0.096-0.056-0.261-0.111-0.497-0.166l-0.491-0.11
			c-0.225-0.051-0.394-0.107-0.507-0.172c-0.243-0.127-0.364-0.396-0.364-0.799V33.33c0-0.306,0.109-0.528,0.328-0.665
			c0.219-0.138,0.508-0.207,0.869-0.207c0.36,0,0.649,0.069,0.866,0.207c0.217,0.137,0.326,0.359,0.326,0.665v0.243
			c0,0.083-0.073,0.126-0.221,0.126c-0.147,0-0.221-0.043-0.221-0.126v-0.299c0-0.287-0.251-0.43-0.753-0.43
			c-0.502,0-0.752,0.143-0.752,0.43v0.468c0,0.204,0.03,0.343,0.091,0.418c0.06,0.075,0.173,0.131,0.339,0.168l0.491,0.111
			c0.354,0.077,0.554,0.128,0.604,0.157c0.05,0.027,0.108,0.058,0.174,0.091c0.066,0.032,0.111,0.066,0.135,0.102
			c0.023,0.034,0.053,0.077,0.085,0.13c0.055,0.085,0.083,0.216,0.083,0.393v0.523c0,0.301-0.121,0.522-0.361,0.662
			s-0.544,0.209-0.91,0.209c-0.366,0-0.666-0.069-0.9-0.209c-0.233-0.14-0.35-0.361-0.35-0.662v-0.243
			c0-0.083,0.074-0.127,0.221-0.127s0.221,0.044,0.221,0.127v0.298c0,0.151,0.076,0.261,0.229,0.327
			c0.153,0.069,0.346,0.104,0.58,0.104s0.43-0.035,0.59-0.105C17.545,36.146,17.625,36.037,17.625,35.89z"/>
		<path fill="#BCCD30" d="M19.833,34.691h0.479c0.5,0,0.75-0.143,0.75-0.429v-0.988c0-0.287-0.251-0.43-0.753-0.43
			s-0.753,0.143-0.753,0.43v3.25c0,0.085-0.073,0.126-0.22,0.126s-0.221-0.041-0.221-0.126V33.33c0-0.306,0.109-0.528,0.325-0.665
			c0.217-0.138,0.506-0.207,0.867-0.207s0.65,0.069,0.869,0.207c0.219,0.137,0.328,0.359,0.328,0.665v0.877
			c0,0.306-0.108,0.528-0.325,0.666c-0.217,0.138-0.506,0.206-0.867,0.206h-0.479c-0.074,0-0.11-0.064-0.11-0.193
			S19.759,34.691,19.833,34.691z"/>
		<path fill="#BCCD30" d="M25.052,33.33v3.194c0,0.085-0.074,0.126-0.221,0.126s-0.22-0.041-0.22-0.126v-1.496h-1.672v1.496
			c0,0.085-0.074,0.126-0.221,0.126s-0.221-0.041-0.221-0.126V33.33c0-0.207,0.061-0.376,0.182-0.511
			c0.122-0.134,0.276-0.229,0.463-0.281s0.409-0.08,0.662-0.08C24.636,32.458,25.052,32.748,25.052,33.33z M22.938,33.274v1.368
			h1.672v-1.368c0-0.287-0.279-0.43-0.836-0.43S22.938,32.987,22.938,33.274z"/>
		<path fill="#BCCD30" d="M26.651,33.274v2.615c0,0.286,0.271,0.431,0.809,0.431s0.809-0.145,0.809-0.431v-0.396
			c0-0.085,0.073-0.128,0.221-0.128s0.22,0.043,0.22,0.128v0.342c0,0.58-0.409,0.871-1.23,0.871c-0.382,0-0.688-0.068-0.921-0.205
			c-0.231-0.139-0.348-0.36-0.348-0.666V33.33c0-0.306,0.116-0.528,0.348-0.665c0.232-0.138,0.539-0.207,0.921-0.207
			c0.821,0,1.23,0.29,1.23,0.872v0.342c0,0.085-0.072,0.127-0.22,0.127s-0.221-0.042-0.221-0.127v-0.397
			c0-0.287-0.271-0.43-0.809-0.43S26.651,32.987,26.651,33.274z"/>
		<path fill="#BCCD30" d="M30.254,32.641v3.884c0,0.085-0.072,0.126-0.221,0.126c-0.146,0-0.221-0.041-0.221-0.126v-3.884
			c0-0.085,0.074-0.128,0.221-0.128C30.182,32.513,30.254,32.556,30.254,32.641z"/>
		<path fill="#BCCD30" d="M34.022,33.33v2.505c0,0.306-0.118,0.527-0.355,0.666c-0.237,0.137-0.551,0.205-0.941,0.205
			c-0.839,0-1.257-0.291-1.257-0.871V33.33c0-0.306,0.119-0.528,0.355-0.665c0.237-0.138,0.55-0.207,0.94-0.207
			C33.604,32.458,34.022,32.748,34.022,33.33z M31.91,33.274v2.615c0,0.286,0.278,0.431,0.835,0.431s0.836-0.145,0.836-0.431v-2.615
			c0-0.287-0.279-0.43-0.836-0.43S31.91,32.987,31.91,33.274z"/>
		<path fill="#BCCD30" d="M37.096,35.89v-0.623c0-0.122-0.048-0.21-0.143-0.265c-0.096-0.056-0.261-0.111-0.497-0.166l-0.491-0.11
			c-0.223-0.051-0.394-0.107-0.508-0.172c-0.243-0.127-0.363-0.396-0.363-0.799V33.33c0-0.306,0.107-0.528,0.327-0.665
			c0.219-0.138,0.509-0.207,0.869-0.207s0.649,0.069,0.866,0.207c0.218,0.137,0.325,0.359,0.325,0.665v0.243
			c0,0.083-0.072,0.126-0.221,0.126c-0.146,0-0.221-0.043-0.221-0.126v-0.299c0-0.287-0.249-0.43-0.752-0.43
			s-0.753,0.143-0.753,0.43v0.468c0,0.204,0.03,0.343,0.09,0.418c0.062,0.075,0.176,0.131,0.34,0.168l0.491,0.111
			c0.352,0.077,0.555,0.128,0.604,0.157c0.05,0.027,0.108,0.058,0.174,0.091c0.066,0.032,0.112,0.066,0.136,0.102
			c0.023,0.034,0.052,0.077,0.086,0.13c0.055,0.085,0.081,0.216,0.081,0.393v0.523c0,0.301-0.12,0.522-0.36,0.662
			c-0.241,0.14-0.545,0.209-0.91,0.209s-0.667-0.069-0.898-0.209c-0.234-0.14-0.352-0.361-0.352-0.662v-0.243
			c0-0.083,0.074-0.127,0.221-0.127s0.221,0.044,0.221,0.127v0.298c0,0.151,0.076,0.261,0.229,0.327
			c0.152,0.069,0.346,0.104,0.579,0.104c0.234,0,0.431-0.035,0.591-0.105C37.017,36.146,37.096,36.037,37.096,35.89z"/>
	</g>
	<g>
		<path fill="#023514" d="M15.921,39.696v0.397c0,0.165,0.15,0.248,0.449,0.248c0.301,0,0.451-0.083,0.451-0.248v-0.229
			c0-0.05,0.042-0.074,0.127-0.074c0.084,0,0.126,0.024,0.126,0.074v0.196c0,0.177-0.063,0.305-0.191,0.384
			c-0.126,0.079-0.296,0.118-0.509,0.118c-0.213,0-0.384-0.039-0.513-0.118c-0.13-0.079-0.194-0.207-0.194-0.384v-0.365
			c0-0.219,0.093-0.35,0.279-0.395c-0.165-0.051-0.248-0.179-0.248-0.387V38.62c0-0.177,0.065-0.305,0.194-0.384
			c0.129-0.08,0.294-0.119,0.495-0.119s0.358,0.04,0.475,0.121c0.117,0.081,0.174,0.207,0.174,0.382v0.047
			c0,0.05-0.042,0.073-0.126,0.073c-0.085,0-0.127-0.023-0.127-0.073v-0.08c0-0.164-0.138-0.247-0.415-0.247
			c-0.277,0-0.415,0.083-0.415,0.247v0.328c0,0.186,0.115,0.279,0.343,0.279h0.239c0.042,0,0.063,0.037,0.063,0.111
			s-0.021,0.111-0.063,0.111h-0.271C16.035,39.417,15.921,39.511,15.921,39.696z"/>
		<path fill="#023514" d="M18.991,39.064v1.396c0,0.048-0.043,0.072-0.127,0.072s-0.127-0.024-0.127-0.072v-1.428
			c0-0.165-0.145-0.248-0.435-0.248c-0.289,0-0.433,0.083-0.433,0.248v1.428c0,0.048-0.042,0.072-0.127,0.072
			s-0.127-0.024-0.127-0.072v-1.396c0-0.177,0.062-0.303,0.188-0.383c0.125-0.08,0.291-0.119,0.499-0.119
			c0.208,0,0.375,0.039,0.5,0.119C18.928,38.762,18.991,38.888,18.991,39.064z"/>
		<path fill="#023514" d="M20.865,40.46v-1.396c0-0.173,0.061-0.302,0.183-0.382c0.122-0.081,0.291-0.12,0.507-0.12
			c0.215,0,0.38,0.056,0.495,0.168c0.112-0.112,0.276-0.168,0.493-0.168c0.461,0,0.693,0.167,0.693,0.502v1.396
			c0,0.048-0.043,0.072-0.127,0.072c-0.085,0-0.127-0.024-0.127-0.072v-1.428c0-0.165-0.134-0.248-0.401-0.248
			c-0.269,0-0.402,0.085-0.402,0.255v1.421c0,0.048-0.042,0.072-0.127,0.072s-0.127-0.024-0.127-0.072v-1.428
			c0-0.165-0.133-0.248-0.401-0.248c-0.269,0-0.402,0.083-0.402,0.248v1.428c0,0.048-0.042,0.072-0.127,0.072
			C20.908,40.532,20.865,40.508,20.865,40.46z"/>
		<path fill="#023514" d="M24.739,40.518h-0.372c-0.187,0-0.321-0.039-0.404-0.115c-0.082-0.077-0.124-0.206-0.124-0.389v-0.024
			c0-0.18,0.037-0.304,0.111-0.373c0.074-0.066,0.207-0.11,0.397-0.13l0.55-0.054V39.08c0-0.165-0.144-0.247-0.432-0.247H24.03
			c-0.042,0-0.063-0.037-0.063-0.112c0-0.074,0.021-0.111,0.063-0.111h0.436c0.208,0,0.373,0.04,0.498,0.119
			c0.125,0.079,0.188,0.208,0.188,0.384v0.938c0,0.137,0.024,0.247,0.073,0.327c0.015,0.025,0.022,0.041,0.022,0.048
			c0,0.025-0.021,0.052-0.061,0.08c-0.04,0.03-0.075,0.044-0.101,0.044c-0.047,0-0.09-0.044-0.129-0.132
			c-0.039-0.089-0.059-0.201-0.059-0.335v-0.428l-0.531,0.056c-0.114,0.013-0.189,0.037-0.222,0.076
			c-0.034,0.038-0.051,0.105-0.051,0.203v0.024c0,0.102,0.018,0.174,0.052,0.216c0.035,0.042,0.109,0.063,0.221,0.063h0.372
			c0.042,0,0.063,0.037,0.063,0.111C24.802,40.479,24.781,40.518,24.739,40.518z"/>
		<path fill="#023514" d="M27.195,38.047v2.015c0,0.177-0.062,0.305-0.188,0.384c-0.125,0.079-0.29,0.118-0.499,0.118
			c-0.207,0-0.374-0.039-0.5-0.118s-0.189-0.207-0.189-0.384v-0.949c0-0.176,0.062-0.305,0.188-0.384
			c0.124-0.079,0.291-0.119,0.499-0.119h0.275c0.042,0,0.063,0.037,0.063,0.111c0,0.075-0.021,0.112-0.063,0.112h-0.275
			c-0.289,0-0.433,0.082-0.433,0.247v1.014c0,0.165,0.144,0.248,0.434,0.248c0.289,0,0.434-0.083,0.434-0.248v-2.047
			c0-0.049,0.042-0.073,0.127-0.073S27.195,37.998,27.195,38.047z"/>
		<path fill="#023514" d="M29.254,39.059v0.095c0,0.181-0.038,0.304-0.112,0.372c-0.074,0.067-0.208,0.111-0.405,0.129l-0.62,0.062
			v0.378c0,0.165,0.138,0.248,0.412,0.248c0.314,0,0.472-0.071,0.472-0.216v-0.121c0-0.049,0.041-0.073,0.126-0.073
			c0.086,0,0.128,0.024,0.128,0.073v0.089c0,0.313-0.233,0.47-0.699,0.47c-0.206,0-0.372-0.039-0.501-0.12
			c-0.127-0.081-0.191-0.208-0.191-0.382v-0.997c0-0.177,0.067-0.303,0.203-0.383s0.312-0.119,0.531-0.119
			c0.218,0,0.382,0.038,0.492,0.114C29.198,38.753,29.254,38.88,29.254,39.059z M28.116,39.032v0.461l0.598-0.061
			c0.12-0.013,0.198-0.038,0.232-0.076C28.981,39.318,29,39.251,29,39.153v-0.121c0-0.165-0.147-0.248-0.442-0.248
			C28.264,38.784,28.116,38.867,28.116,39.032z"/>
		<path fill="#023514" d="M30.767,39.192v-0.16c0-0.165-0.1-0.248-0.297-0.248c-0.196,0-0.295,0.083-0.295,0.248v1.458
			c0,0.05-0.043,0.073-0.127,0.073s-0.127-0.023-0.127-0.073v-1.426c0-0.177,0.051-0.303,0.15-0.383
			c0.101-0.08,0.234-0.119,0.398-0.119c0.367,0,0.55,0.165,0.55,0.496v0.134c0,0.048-0.042,0.072-0.127,0.072
			S30.767,39.24,30.767,39.192z"/>
		<path fill="#023514" d="M32.237,40.518h-0.371c-0.188,0-0.321-0.039-0.405-0.115c-0.082-0.077-0.124-0.206-0.124-0.389v-0.024
			c0-0.18,0.038-0.304,0.112-0.373c0.075-0.066,0.207-0.11,0.397-0.13l0.55-0.054V39.08c0-0.165-0.145-0.247-0.433-0.247h-0.436
			c-0.042,0-0.062-0.037-0.062-0.112c0-0.074,0.021-0.111,0.062-0.111h0.436c0.207,0,0.375,0.04,0.499,0.119
			c0.125,0.079,0.187,0.208,0.187,0.384v0.938c0,0.137,0.025,0.247,0.074,0.327c0.015,0.025,0.021,0.041,0.021,0.048
			c0,0.025-0.021,0.052-0.061,0.08c-0.04,0.03-0.074,0.044-0.102,0.044c-0.046,0-0.088-0.044-0.127-0.132
			c-0.041-0.089-0.06-0.201-0.06-0.335v-0.428l-0.53,0.056c-0.115,0.013-0.188,0.037-0.223,0.076
			c-0.034,0.038-0.051,0.105-0.051,0.203v0.024c0,0.102,0.018,0.174,0.053,0.216c0.033,0.042,0.107,0.063,0.221,0.063h0.371
			c0.043,0,0.063,0.037,0.063,0.111C32.301,40.479,32.28,40.518,32.237,40.518z"/>
	</g>
	<path fill="#023514" d="M37.34,13.513c-0.205-0.142-0.469-0.175-0.704-0.087l-6.257,2.348l-4.691-6.041
		c-0.199-0.257-0.54-0.36-0.848-0.257l-11.822,3.94c-0.313,0.104-0.523,0.397-0.523,0.727v15.763c0,0.246,0.118,0.478,0.318,0.621
		c0.199,0.145,0.457,0.183,0.689,0.105l11.581-3.859l3.103,1.033c0.233,0.079,0.491,0.039,0.69-0.104
		c0.199-0.145,0.317-0.376,0.317-0.622v-4.858l1.729,0.577v5.369c0,0.331,0.211,0.623,0.523,0.728l5.216,1.737
		c0.08,0.026,0.161,0.039,0.243,0.039c0.158,0,0.315-0.05,0.449-0.145c0.198-0.144,0.317-0.375,0.317-0.621V14.143
		C37.671,13.892,37.547,13.656,37.34,13.513z M25.158,14.143v1.97l-10.706,3.57l0.011-1.976L25.158,14.143z M25.158,20.056v1.969
		L14.45,25.594v-1.97L25.158,20.056z"/>
</g>
</svg>
