<?xml version="1.0" encoding="utf-8"?>
<!-- Generator: Adobe Illustrator 22.0.0, SVG Export Plug-In . SVG Version: 6.00 Build 0)  -->
<svg version="1.1" id="Layer_1" xmlns="http://www.w3.org/2000/svg" xmlns:xlink="http://www.w3.org/1999/xlink" x="0px" y="0px"
	 viewBox="0 0 50 50" style="enable-background:new 0 0 50 50;" xml:space="preserve">
<style type="text/css">
	.st0{fill:none;}
	.st1{fill:#231F20;}
	.st2{fill:#AFCA0B;}
</style>
<rect class="st0" width="50" height="50"/>
<path class="st1" d="M32.919,11.685c-2.159-1.758-4.916-2.81-7.919-2.81c-3.002,0-5.759,1.052-7.919,2.81H8.003l0.264,0.458
	l0.266,0.458l4.038,6.995c-0.09,0.601-0.136,1.217-0.136,1.844c0,0.902,0.095,1.78,0.277,2.627c0.044,0.218,0.097,0.432,0.154,0.647
	c0.055,0.204,0.115,0.405,0.18,0.605c0.565,1.741,1.499,3.318,2.711,4.632c0.145,0.156,0.291,0.31,0.444,0.458
	c0.159,0.158,0.324,0.31,0.493,0.458c1.081,0.955,2.328,1.725,3.692,2.262L25,41.125l4.616-7.996
	c1.364-0.537,2.61-1.307,3.692-2.262c0.169-0.149,0.334-0.301,0.493-0.458c0.152-0.149,0.299-0.303,0.444-0.458
	c1.179-1.28,2.095-2.804,2.663-4.491c0.068-0.196,0.128-0.394,0.185-0.596c0.06-0.209,0.114-0.422,0.161-0.636
	c0.203-0.896,0.312-1.829,0.312-2.788c0-0.627-0.046-1.243-0.136-1.844l4.038-6.995l0.266-0.458l0.264-0.458H32.919z M19.712,12.143
	h10.564l0.268,0.458l0.893,1.532h3.787h2.531l-1.27,2.2l-1.78,3.085l-0.114,0.196l0.905,1.498l0.253,0.418l-5.283,9.147h-0.493
	h-1.769l-0.029,0.051l-0.081,0.139l-1.773,3.07L25,36.225l-1.322-2.288l-1.772-3.07l-0.035-0.062l-0.075-0.128l-1.78-0.018
	l-0.513-0.005l-5.281-9.149l0.257-0.436l0.891-1.523l-0.024-0.042l-0.011-0.02l-1.818-3.149l-1.27-2.2h2.531h3.767l0.898-1.532
	L19.712,12.143z"/>
<path class="st2" d="M21.638,21.464h2.599v-2.231h-2.599v-1.986h2.936c0.343-0.96,1.035-1.756,1.923-2.233h-7.09v11.334h2.231
	V21.464z"/>
<path class="st2" d="M24.826,18.627c0,1.888,1.458,3.444,3.307,3.597l-2.152,4.122h2.529l1.945-3.75l1.315-2.544
	c0.192-0.453,0.29-0.931,0.29-1.425c0-0.298-0.053-0.576-0.1-0.782c-0.174-0.79-0.617-1.507-1.249-2.021
	c-0.641-0.519-1.449-0.807-2.276-0.807C26.445,15.016,24.826,16.636,24.826,18.627z M28.434,17.249c0.641,0,1.205,0.453,1.347,1.078
	c0.022,0.098,0.031,0.198,0.031,0.3c0,0.188-0.035,0.371-0.11,0.541c-0.025,0.061-0.057,0.12-0.092,0.177
	c-0.165,0.269-0.416,0.474-0.712,0.58c-0.143,0.051-0.296,0.079-0.465,0.08c-0.761,0-1.378-0.617-1.378-1.378
	C27.056,17.869,27.674,17.249,28.434,17.249z"/>
</svg>
