<?xml version="1.0" encoding="utf-8"?>
<!-- Generator: Adobe Illustrator 16.0.0, SVG Export Plug-In . SVG Version: 6.00 Build 0)  -->
<!DOCTYPE svg PUBLIC "-//W3C//DTD SVG 1.1//EN" "http://www.w3.org/Graphics/SVG/1.1/DTD/svg11.dtd">
<svg version="1.1" id="Layer_1" xmlns="http://www.w3.org/2000/svg" xmlns:xlink="http://www.w3.org/1999/xlink" x="0px" y="0px"
	 width="50px" height="50px" viewBox="0 0 50 50" enable-background="new 0 0 50 50" xml:space="preserve">
<rect fill="none" width="50" height="50"/>
<g>
	<path fill="#E6007E" d="M26.125,30.041c-2.1,0.002-3.804,1.706-3.804,3.802v0.497h-0.497c-2.644,0-4.795-2.152-4.795-4.796
		c0-2.479,1.887-4.523,4.299-4.773v-0.002c1.445,0,2.617-1.174,2.617-2.622c0-1.448-1.171-2.622-2.617-2.622v0c0,0,0,0,0,0
		c0,0-0.001,0-0.001,0c-0.128,0-0.254,0.013-0.377,0.031c-1.546,0.133-3.039,0.62-4.363,1.432c-3.001,1.841-4.793,5.04-4.793,8.558
		c0,0.644,0.062,1.292,0.185,1.926c0.278,1.437,0.886,2.823,1.758,4.008c1.887,2.566,4.911,4.097,8.089,4.097
		c5.363,0,9.76-4.233,10.021-9.533H26.125z"/>
	<path fill="#554596" d="M31.972,26.496c-0.013,0.396,0.095,2.478,4.102-1.322c0,0,1.17-0.898,1.17,0.85
		c0,1.748-0.91,3.147-5.366,3.147h-7.266c-1.585,0-3.35,1.568-3.4,3.832C21.201,33.002,21.192,33,21.185,33c0,0,0,0.002,0,0.004
		c-1.101-0.089-2.702-1.621-2.702-3.638c0-1.718,1.529-3.342,3.145-3.342h-0.112c0,0,2.763-0.014,3.495-2.01
		c0.017-0.071,0.093-0.403,0.187-0.935c0.01-0.067,0.02-0.129,0.034-0.189c0.405-2.396,0.999-8.084-1.199-12.465
		c5.996,0.687,11.153,4.127,14.176,9.027c-0.19,0.024-0.383,0.049-0.577,0.072C33.972,19.973,32.354,21.598,31.972,26.496z"/>
	<g>
		<g>
			<path fill="#E6007E" d="M28.355,38.649h0.231c0.076,0,0.114,0.038,0.114,0.116c0,0.076-0.038,0.114-0.113,0.111l-0.231,0.003
				c-0.04,0-0.077,0.009-0.114,0.029c-0.036,0.02-0.064,0.048-0.087,0.086c-0.021,0.036-0.031,0.076-0.031,0.115
				c0,0.041,0.011,0.079,0.031,0.115c0.021,0.037,0.049,0.066,0.086,0.087c0.036,0.02,0.075,0.029,0.115,0.029
				s0.08-0.01,0.122-0.028c0.04-0.02,0.07-0.048,0.089-0.089H28.47c-0.076,0-0.116-0.037-0.116-0.113s0.038-0.116,0.115-0.116h0.232
				c0.077,0.003,0.116,0.041,0.117,0.116c0,0.08-0.02,0.157-0.062,0.231c-0.04,0.074-0.098,0.131-0.17,0.171
				c-0.074,0.041-0.151,0.061-0.231,0.061s-0.157-0.02-0.229-0.061c-0.074-0.04-0.132-0.097-0.173-0.171
				c-0.04-0.074-0.061-0.151-0.061-0.231s0.021-0.156,0.062-0.231c0.04-0.074,0.098-0.131,0.172-0.171S28.276,38.649,28.355,38.649z
				"/>
			<path fill="#E6007E" d="M29.051,38.649h0.405c0.075,0,0.142,0.029,0.2,0.088c0.058,0.059,0.087,0.124,0.087,0.2
				c0,0.079-0.016,0.146-0.044,0.201c-0.029,0.056-0.072,0.084-0.132,0.085l0.145,0.146c0.021,0.022,0.033,0.052,0.033,0.09
				c-0.002,0.076-0.04,0.114-0.115,0.114c-0.04,0.001-0.079-0.018-0.116-0.057l-0.231-0.287c-0.04-0.04-0.06-0.08-0.06-0.119
				c0-0.077,0.039-0.115,0.117-0.115h0.082c0.061,0,0.091-0.019,0.09-0.057c0-0.039-0.03-0.058-0.091-0.058h-0.084h-0.171v0.578
				c0.001,0.075-0.038,0.114-0.115,0.114c-0.078,0-0.116-0.038-0.116-0.114v-0.696C28.936,38.688,28.974,38.649,29.051,38.649z"/>
			<path fill="#E6007E" d="M29.975,38.648l0.585,0.001c0.072,0,0.108,0.038,0.108,0.112c0,0.079-0.039,0.118-0.116,0.119h-0.461
				v0.46h0.459c0.078,0.001,0.117,0.04,0.117,0.118c0,0.075-0.038,0.113-0.114,0.114h-0.578c-0.077,0-0.115-0.038-0.115-0.112
				v-0.696C29.859,38.688,29.897,38.649,29.975,38.648z"/>
			<path fill="#E6007E" d="M29.925,39.115c0.001-0.078,0.058-0.117,0.169-0.118h0.344c0.113,0.001,0.171,0.039,0.174,0.115
				c-0.004,0.078-0.062,0.116-0.173,0.116h-0.344C29.982,39.229,29.926,39.19,29.925,39.115z"/>
			<path fill="#E6007E" d="M31.244,38.649h0.233c0.075,0,0.113,0.038,0.114,0.116c-0.001,0.076-0.039,0.114-0.114,0.111
				l-0.231,0.003c-0.04,0-0.078,0.009-0.114,0.029c-0.036,0.02-0.065,0.048-0.087,0.086c-0.02,0.036-0.03,0.076-0.03,0.115
				c0,0.041,0.01,0.079,0.029,0.115c0.021,0.037,0.05,0.066,0.087,0.087c0.035,0.02,0.075,0.029,0.115,0.029s0.081-0.01,0.122-0.028
				c0.04-0.02,0.07-0.048,0.089-0.089H31.36c-0.078,0-0.117-0.037-0.118-0.113c0-0.076,0.039-0.116,0.117-0.116h0.231
				c0.078,0.003,0.117,0.041,0.117,0.116c0,0.08-0.021,0.157-0.061,0.231c-0.041,0.074-0.099,0.131-0.172,0.171
				c-0.073,0.041-0.149,0.061-0.231,0.061c-0.078,0-0.156-0.02-0.229-0.061c-0.073-0.04-0.131-0.097-0.172-0.171
				c-0.04-0.074-0.06-0.151-0.06-0.231s0.02-0.156,0.061-0.231c0.042-0.074,0.1-0.131,0.173-0.171
				C31.091,38.669,31.166,38.649,31.244,38.649z"/>
		</g>
		<g>
			<path fill="#E6007E" d="M32.862,38.649h0.232c0.075,0,0.113,0.038,0.114,0.116c-0.001,0.076-0.038,0.114-0.113,0.111
				l-0.232,0.003c-0.039,0-0.078,0.009-0.114,0.029c-0.036,0.02-0.065,0.048-0.086,0.086c-0.021,0.036-0.032,0.076-0.032,0.115
				c0,0.041,0.012,0.079,0.031,0.115c0.021,0.037,0.05,0.066,0.086,0.087c0.037,0.02,0.075,0.029,0.115,0.029
				s0.081-0.01,0.122-0.028c0.04-0.02,0.071-0.048,0.089-0.089h-0.097c-0.077,0-0.116-0.037-0.116-0.113s0.037-0.116,0.115-0.116
				h0.232c0.077,0.003,0.116,0.041,0.116,0.116c0,0.08-0.02,0.157-0.06,0.231c-0.042,0.074-0.099,0.131-0.173,0.171
				c-0.072,0.041-0.15,0.061-0.23,0.061s-0.156-0.02-0.23-0.061c-0.072-0.04-0.13-0.097-0.171-0.171
				c-0.04-0.074-0.061-0.151-0.061-0.231s0.021-0.156,0.062-0.231c0.042-0.074,0.099-0.131,0.173-0.171S32.784,38.649,32.862,38.649
				z"/>
			<path fill="#E6007E" d="M33.557,38.648l0.585,0.001c0.072,0,0.108,0.038,0.108,0.112c0,0.079-0.038,0.118-0.116,0.119h-0.461
				v0.46h0.459c0.079,0.001,0.117,0.04,0.117,0.118c0,0.075-0.037,0.113-0.114,0.114h-0.578c-0.077,0-0.115-0.038-0.115-0.112
				v-0.696C33.441,38.688,33.479,38.649,33.557,38.648z"/>
			<path fill="#E6007E" d="M33.499,39.115c0.001-0.078,0.058-0.117,0.171-0.118h0.347c0.115,0.001,0.174,0.039,0.177,0.115
				c-0.004,0.078-0.062,0.116-0.176,0.116H33.67C33.557,39.229,33.499,39.19,33.499,39.115z"/>
			<path fill="#E6007E" d="M34.48,38.648l0.585,0.001c0.072,0,0.108,0.038,0.108,0.112c0,0.079-0.038,0.118-0.116,0.119h-0.173
				v0.578c0,0.075-0.039,0.113-0.116,0.114c-0.076,0-0.114-0.038-0.114-0.112v-0.58H34.48c-0.076,0-0.115-0.039-0.115-0.116
				C34.365,38.688,34.405,38.649,34.48,38.648z"/>
			<path fill="#E6007E" d="M35.421,38.649c0.042,0.005,0.075,0.02,0.1,0.049l0.346,0.441v-0.388c0.003-0.065,0.035-0.1,0.099-0.103
				c0.087,0.003,0.13,0.037,0.131,0.104l0.002,0.721c-0.001,0.065-0.045,0.099-0.133,0.1c-0.04-0.001-0.071-0.016-0.096-0.048
				l-0.349-0.439v0.388c0,0.065-0.033,0.099-0.1,0.1c-0.088,0-0.131-0.034-0.132-0.102v-0.721
				C35.289,38.686,35.332,38.65,35.421,38.649z"/>
			<path fill="#E6007E" d="M36.329,38.648l0.584,0.001c0.073,0,0.109,0.038,0.109,0.112c0,0.079-0.039,0.118-0.116,0.119h-0.461
				v0.46h0.459c0.078,0.001,0.117,0.04,0.117,0.118c0,0.075-0.039,0.113-0.114,0.114h-0.578c-0.076,0-0.115-0.038-0.115-0.112
				v-0.696C36.214,38.688,36.253,38.649,36.329,38.648z"/>
			<path fill="#E6007E" d="M36.214,39.115c0.002-0.078,0.062-0.117,0.185-0.118h0.376c0.125,0.001,0.188,0.039,0.191,0.115
				c-0.004,0.078-0.066,0.116-0.189,0.116H36.4C36.276,39.229,36.214,39.19,36.214,39.115z"/>
			<path fill="#E6007E" d="M37.254,38.649h0.405c0.075,0,0.142,0.029,0.2,0.088c0.058,0.059,0.087,0.124,0.087,0.2
				c0,0.079-0.015,0.146-0.043,0.201c-0.029,0.056-0.073,0.084-0.133,0.085l0.145,0.146c0.022,0.022,0.033,0.052,0.033,0.09
				c-0.002,0.076-0.04,0.114-0.115,0.114c-0.039,0.001-0.078-0.018-0.116-0.057l-0.231-0.287c-0.039-0.04-0.059-0.08-0.059-0.119
				c0-0.077,0.038-0.115,0.117-0.115h0.082c0.06,0,0.091-0.019,0.09-0.057c0-0.039-0.031-0.058-0.091-0.058H37.54h-0.17v0.578
				c0,0.075-0.038,0.114-0.116,0.114c-0.077,0-0.116-0.038-0.116-0.114v-0.696C37.139,38.688,37.177,38.649,37.254,38.649z"/>
		</g>
	</g>
</g>
</svg>
