<?xml version="1.0" encoding="utf-8"?>
<!-- Generator: Adobe Illustrator 22.0.0, SVG Export Plug-In . SVG Version: 6.00 Build 0)  -->
<svg version="1.1" id="Layer_1" xmlns="http://www.w3.org/2000/svg" xmlns:xlink="http://www.w3.org/1999/xlink" x="0px" y="0px"
	 viewBox="0 0 50 50" style="enable-background:new 0 0 50 50;" xml:space="preserve">
<style type="text/css">
	.st0{fill:none;}
	.st1{fill:#323031;}
	.st2{fill-rule:evenodd;clip-rule:evenodd;fill:#D6AF2E;}
	.st3{fill:#D6AF2E;}
</style>
<rect x="0" class="st0" width="50" height="50"/>
<g>
	<path class="st1" d="M15.259,27.634H14.6v-1.976h0.353c-0.014-0.217-0.021-0.438-0.021-0.659c0-0.221,0.007-0.441,0.021-0.659H14.6
		v-1.976h0.659v-1.318H14.48c-0.458,1.231-0.708,2.563-0.708,3.952s0.251,2.72,0.708,3.951h0.779V27.634z"/>
	<path class="st1" d="M17.731,17.985c1.861-1.965,4.493-3.192,7.408-3.192c2.859,0,5.448,1.182,7.302,3.083
		c0.473,0.484,0.898,1.015,1.268,1.585c0.525,0.15,1.05,0.288,1.566,0.399c-0.249-0.489-0.532-0.958-0.847-1.403
		c-2.06-2.916-5.457-4.823-9.289-4.823c-3.46,0-6.564,1.554-8.651,4.001c-0.271,0.318-0.525,0.651-0.76,0.998
		c0.394,0.102,0.792,0.213,1.188,0.326C17.167,18.617,17.439,18.292,17.731,17.985z"/>
	<path class="st1" d="M32.54,32.019c-1.861,1.963-4.491,3.187-7.402,3.187c-2.859,0-5.447-1.182-7.302-3.082
		c-0.466-0.477-0.886-1.001-1.252-1.561c-0.526-0.145-1.051-0.279-1.567-0.391c0.251,0.488,0.535,0.955,0.851,1.399
		c2.061,2.9,5.448,4.795,9.269,4.795c3.452,0,6.549-1.547,8.635-3.984c0.272-0.316,0.527-0.648,0.762-0.994
		c-0.391-0.104-0.787-0.22-1.182-0.337C33.102,31.391,32.83,31.714,32.54,32.019z"/>
	<path class="st1" d="M35.796,21.048h-1.247c0.179,0.425,0.33,0.865,0.451,1.318h1.196C36.089,21.916,35.955,21.476,35.796,21.048z"
		/>
</g>
<g>
	<g>
		<path class="st1" d="M41.129,23.517c-0.078-0.867-0.231-1.743-0.455-2.604c-0.162-0.621-0.364-1.241-0.602-1.845l-0.028-0.068
			c-0.036-0.09-0.072-0.18-0.11-0.268c-0.137-0.324-0.285-0.645-0.443-0.96c-0.008-0.016-0.016-0.032-0.024-0.049
			c-0.017-0.033-0.034-0.066-0.051-0.099c-0.269-0.524-0.567-1.034-0.891-1.523c-2.009-3.043-5.012-5.346-8.458-6.485
			c-1.577-0.52-3.222-0.793-4.888-0.81h-0.011c-0.051-0.002-0.104-0.002-0.155-0.002H25c-2.992,0-5.917,0.826-8.458,2.389
			c-1.002,0.615-1.935,1.339-2.773,2.149c-0.864,0.831-1.635,1.759-2.295,2.758c-0.613,0.927-1.134,1.926-1.546,2.968
			c-0.563,1.428-0.919,2.925-1.057,4.448C8.826,24.003,8.803,24.502,8.803,25c0,0.497,0.023,0.997,0.068,1.483
			c0.138,1.524,0.494,3.022,1.057,4.451c0.162,0.408,0.341,0.812,0.537,1.207c0.01,0.022,0.021,0.042,0.032,0.063
			c0.022,0.044,0.044,0.089,0.067,0.133c0.274,0.537,0.578,1.059,0.909,1.562c2.032,3.077,5.071,5.392,8.556,6.515
			c1.597,0.52,3.269,0.783,4.971,0.783c0.124,0,0.241-0.001,0.348-0.005c2.893-0.06,5.716-0.897,8.168-2.419
			c0.994-0.617,1.921-1.342,2.757-2.153c0.842-0.815,1.601-1.73,2.255-2.72c0.614-0.93,1.134-1.928,1.545-2.966
			c0.563-1.428,0.919-2.926,1.057-4.448c0.045-0.488,0.068-0.987,0.068-1.485C41.197,24.502,41.174,24.003,41.129,23.517z
			 M37.113,32.583c-0.355,0.567-0.754,1.113-1.187,1.626c-0.777,0.92-1.668,1.741-2.649,2.439c-2.428,1.732-5.29,2.648-8.277,2.648
			c-0.215,0-0.434-0.005-0.65-0.014c-3.961-0.179-7.708-2.028-10.278-5.075c-0.819-0.97-1.503-2.041-2.035-3.186
			c-0.02-0.042-0.039-0.084-0.059-0.126c-0.002-0.004-0.003-0.007-0.005-0.011c-0.131-0.288-0.253-0.582-0.362-0.875
			c-0.016-0.041-0.032-0.083-0.046-0.124c-0.002-0.005-0.004-0.012-0.006-0.017c-0.006-0.017-0.012-0.035-0.019-0.053
			c-0.142-0.394-0.268-0.8-0.374-1.209c-0.287-1.098-0.442-2.233-0.46-3.377c-0.001-0.067-0.002-0.135-0.002-0.203
			c0-0.078,0.001-0.156,0.002-0.234c0.001-0.078,0.003-0.156,0.005-0.234c0.003-0.078,0.005-0.156,0.009-0.234
			c0.003-0.078,0.008-0.156,0.012-0.234c0.005-0.078,0.011-0.155,0.017-0.233c0.004-0.053,0.009-0.107,0.013-0.16
			c0.071-0.779,0.206-1.55,0.403-2.305c0.106-0.408,0.231-0.811,0.374-1.209c0.156-0.437,0.335-0.865,0.533-1.284
			c0.025-0.052,0.049-0.103,0.075-0.155c0.032-0.066,0.064-0.131,0.097-0.196c0.162-0.32,0.34-0.639,0.53-0.952
			c0.034-0.056,0.068-0.112,0.104-0.168c0.017-0.028,0.035-0.056,0.053-0.084c0.34-0.536,0.724-1.059,1.14-1.551
			c0.788-0.934,1.695-1.767,2.695-2.474c2.423-1.711,5.27-2.616,8.234-2.616c0.401,0,0.797,0.016,1.176,0.05
			c3.807,0.309,7.271,2.098,9.75,5.038c0.813,0.963,1.494,2.027,2.024,3.162c0.014,0.029,0.028,0.058,0.041,0.087
			c0.002,0.003,0.002,0.005,0.004,0.008c0.139,0.3,0.267,0.608,0.383,0.915c0.01,0.026,0.02,0.053,0.03,0.08
			c0.003,0.005,0.005,0.012,0.007,0.017c0,0.001,0.001,0.001,0.001,0.002c0.141,0.379,0.266,0.77,0.373,1.161
			c0.216,0.789,0.364,1.597,0.442,2.414c0.005,0.054,0.01,0.109,0.015,0.163c0.006,0.081,0.012,0.162,0.018,0.244
			c0.005,0.081,0.01,0.162,0.014,0.244c0.005,0.082,0.008,0.163,0.01,0.245c0.003,0.082,0.005,0.163,0.005,0.245
			c0.002,0.082,0.002,0.164,0.002,0.246c0,0.071-0.001,0.142-0.002,0.213c-0.019,1.199-0.189,2.388-0.504,3.537
			c-0.107,0.392-0.232,0.779-0.373,1.161c-0.133,0.359-0.28,0.712-0.441,1.059c-0.035,0.076-0.07,0.151-0.108,0.225
			c-0.023,0.05-0.048,0.1-0.073,0.149c-0.164,0.327-0.34,0.648-0.526,0.957c-0.045,0.075-0.09,0.149-0.137,0.223
			C37.126,32.562,37.119,32.573,37.113,32.583z"/>
	</g>
</g>
<polygon class="st2" points="29.748,21.048 29.748,22.366 30.407,22.366 30.407,27.634 29.748,27.634 29.748,28.951 32.383,28.951 
	32.383,27.634 31.724,27.634 31.724,25.659 34.358,25.659 34.358,24.341 31.724,24.341 31.724,22.366 36.335,22.366 36.335,23.024 
	37.651,23.024 37.651,21.048 "/>
<polygon class="st2" points="19.869,27.634 19.869,25 19.87,25 19.87,22.366 20.528,22.366 20.528,21.048 17.893,21.048 
	17.893,22.366 18.552,22.366 18.552,24.341 14.6,24.341 14.6,22.366 15.259,22.366 15.259,21.048 12.624,21.048 12.624,22.366 
	13.283,22.366 13.283,25 13.283,27.634 12.624,27.634 12.624,28.951 15.259,28.951 15.259,27.634 14.6,27.634 14.6,25.659 
	18.552,25.659 18.552,25 18.552,25 18.552,27.634 17.893,27.634 17.893,28.951 20.528,28.951 20.528,27.634 "/>
<path class="st3" d="M29.257,23.556c-0.61-1.793-2.293-2.997-4.188-2.997c-0.482,0-0.96,0.079-1.42,0.236
	c-0.454,0.154-0.875,0.379-1.254,0.666c-1.514,1.153-2.12,3.138-1.507,4.941c0.38,1.118,1.172,2.02,2.232,2.542
	c0.615,0.303,1.271,0.457,1.948,0.457c0.483,0,0.964-0.08,1.428-0.238c0.454-0.154,0.875-0.379,1.254-0.667
	C29.265,27.344,29.87,25.358,29.257,23.556z M25.069,28.454c-0.532,0-1.047-0.121-1.53-0.359c-0.378-0.186-0.715-0.436-1.001-0.741
	l-0.072-0.077l0.098,0.038c0.674,0.259,1.328,0.39,1.945,0.39c1.004,0,1.715-0.342,2.134-0.63l0.021-0.014l0.013,0.021
	c0.147,0.236,0.267,0.484,0.357,0.739l0.006,0.018l-0.015,0.01c-0.261,0.178-0.541,0.318-0.834,0.417
	C25.827,28.391,25.449,28.454,25.069,28.454z M26.58,21.89c-1.42,1.194-1.71,2.423-1.756,3.05l-0.001,0.015l-0.014,0.005
	c-0.311,0.117-0.674,0.109-1.071-0.023l-0.017-0.006l0-0.017c-0.003-0.42,0.122-1.894,1.835-3.197
	c0.061-0.046,0.123-0.092,0.186-0.136l0.009-0.006l0.01,0.002c0.281,0.057,0.555,0.149,0.814,0.273l0.034,0.016L26.58,21.89z
	 M25.243,25.731l0.012-0.005l0.011,0.006c0.305,0.179,0.582,0.389,0.823,0.623l0.022,0.021l-0.026,0.016
	c-0.294,0.188-0.795,0.415-1.513,0.427c-0.863,0.017-1.816-0.283-2.829-0.887l-0.008-0.005l-0.003-0.009
	c-0.114-0.404-0.154-0.821-0.119-1.238l0.004-0.048l0.036,0.032c0.534,0.471,1.594,1.26,2.69,1.26
	C24.659,25.925,24.962,25.86,25.243,25.731z M25.703,24.953c0.022-0.234,0.097-0.607,0.332-1.057l0.01-0.019l0.02,0.008
	c0.545,0.226,1.559,0.834,2.23,2.37l0.004,0.009l-0.004,0.009c-0.132,0.329-0.312,0.634-0.536,0.907l-0.025,0.03l-0.016-0.035
	c-0.286-0.635-0.866-1.532-2.004-2.2l-0.013-0.008L25.703,24.953z M26.555,23.141l0.021-0.024c0.221-0.251,0.484-0.495,0.784-0.725
	l0.016-0.012l0.015,0.013c0.444,0.397,0.78,0.904,0.971,1.468c0.101,0.295,0.161,0.608,0.178,0.932l0.005,0.085l-0.048-0.069
	c-0.645-0.924-1.396-1.409-1.912-1.653L26.555,23.141z M24.316,21.634c-1.027,1.041-1.352,2.106-1.443,2.817l-0.005,0.039
	l-0.033-0.022c-0.401-0.275-0.743-0.591-0.959-0.807l-0.011-0.011l0.006-0.015c0.236-0.562,0.616-1.053,1.098-1.42
	c0.298-0.227,0.63-0.403,0.986-0.524c0.106-0.036,0.22-0.069,0.339-0.097l0.082-0.019L24.316,21.634z"/>
<path class="st1" d="M39.468,17.722c-0.017-0.033-0.034-0.066-0.051-0.099l-0.844,0.868c-0.173,0.179-0.364,0.324-0.577,0.44
	c-0.015,0.008-0.029,0.016-0.045,0.023c-0.098,0.051-0.202,0.096-0.31,0.134c-0.34,0.12-0.73,0.179-1.179,0.179
	c-0.825,0-1.77-0.204-2.741-0.475c-0.491-0.136-0.988-0.288-1.481-0.44c-0.121-0.036-0.241-0.073-0.362-0.11
	c-1.424-0.436-2.878-0.851-4.169-0.851c-1.028,0-1.86,0.257-2.528,0.787c-0.121,0.095-0.236,0.199-0.346,0.312
	c-0.508,0.522-1.216,0.776-2.167,0.776c-0.33,0-0.68-0.031-1.044-0.084c-1.055-0.154-2.225-0.497-3.367-0.833
	c-0.006-0.002-0.013-0.003-0.019-0.005c-0.382-0.113-0.768-0.226-1.153-0.333c-1.224-0.341-2.441-0.621-3.535-0.621
	c-0.099,0-0.197,0.002-0.292,0.007c-0.13,0.006-0.256,0.015-0.379,0.03c-0.035,0.005-0.07,0.009-0.104,0.014
	c-0.882,0.123-1.591,0.47-2.154,1.048l-0.157,0.16v13.49c0.01,0.022,0.021,0.042,0.032,0.063c0.022,0.044,0.044,0.089,0.067,0.133
	l0.821-0.845c0.172-0.177,0.368-0.324,0.588-0.439c0.021-0.011,0.042-0.022,0.063-0.032c0.094-0.046,0.191-0.085,0.293-0.121
	c0.353-0.124,0.759-0.183,1.222-0.183c0.886,0,1.911,0.219,2.961,0.502c0.482,0.13,0.969,0.272,1.451,0.414
	c0.124,0.036,0.25,0.073,0.374,0.11c1.486,0.434,3.001,0.849,4.332,0.849c1.061,0,1.911-0.259,2.583-0.789
	c0.121-0.094,0.237-0.197,0.346-0.311c0.514-0.529,1.186-0.776,2.112-0.776c0.288,0,0.59,0.026,0.904,0.069
	c1.038,0.145,2.193,0.5,3.319,0.846c0.013,0.004,0.026,0.008,0.039,0.012c0.379,0.117,0.762,0.234,1.143,0.344
	c1.155,0.332,2.305,0.604,3.349,0.605c0,0,0,0,0.001,0c0.11,0,0.217-0.003,0.323-0.009c0.118-0.007,0.233-0.017,0.346-0.032
	c0.046-0.005,0.092-0.012,0.137-0.019c0.834-0.13,1.515-0.473,2.066-1.04l0.156-0.159V17.771
	C39.483,17.755,39.475,17.738,39.468,17.722z M39.293,25.24c-0.017,1.239-0.186,2.467-0.504,3.655
	c-0.107,0.401-0.232,0.797-0.373,1.188v0.782c-0.136,0.119-0.282,0.22-0.441,0.303c-0.036,0.019-0.071,0.036-0.108,0.053
	c-0.131,0.062-0.271,0.113-0.418,0.153c-0.293,0.079-0.619,0.118-0.987,0.118h-0.001c-0.797,0-1.707-0.19-2.643-0.447
	c-0.363-0.099-0.73-0.209-1.096-0.319c-0.161-0.05-0.322-0.098-0.483-0.148c-0.828-0.254-1.672-0.513-2.494-0.698
	c-0.477-0.107-0.947-0.19-1.402-0.231c-0.215-0.02-0.428-0.031-0.636-0.031c-1.205,0-2.14,0.354-2.857,1.083
	c-0.005,0.005-0.012,0.012-0.018,0.018c-0.435,0.447-1.018,0.697-1.774,0.759c-0.126,0.011-0.256,0.015-0.392,0.015
	c-1.291,0-2.877-0.466-4.41-0.916c-0.36-0.105-0.721-0.213-1.083-0.313c-0.488-0.137-0.974-0.264-1.453-0.37
	c-0.753-0.166-1.486-0.275-2.172-0.275c-0.611,0-1.151,0.087-1.629,0.26c-0.107,0.038-0.21,0.082-0.311,0.131
	c-0.015,0.006-0.031,0.014-0.046,0.022c-0.008,0.004-0.016,0.008-0.025,0.012v-0.083c-0.142-0.404-0.268-0.82-0.374-1.238
	c-0.29-1.135-0.445-2.309-0.46-3.492c-0.001-0.067-0.002-0.135-0.002-0.203c0-0.078,0.001-0.156,0.002-0.234
	c0.002-0.078,0.003-0.156,0.005-0.234c0.003-0.078,0.005-0.156,0.009-0.234c0.004-0.077,0.008-0.155,0.012-0.234
	c0.005-0.078,0.011-0.155,0.017-0.233c0.004-0.053,0.009-0.107,0.013-0.16c0.071-0.801,0.206-1.592,0.403-2.366
	c0.106-0.418,0.231-0.831,0.374-1.239V19.12c0.16-0.138,0.337-0.251,0.533-0.343c0.025-0.012,0.049-0.022,0.075-0.032
	c0.138-0.06,0.285-0.109,0.442-0.147c0.288-0.073,0.608-0.107,0.96-0.107c0.849,0,1.826,0.201,2.83,0.468
	c0.365,0.097,0.735,0.202,1.103,0.309c0.159,0.046,0.319,0.093,0.478,0.139c0.839,0.247,1.693,0.498,2.522,0.681
	c0.479,0.105,0.949,0.189,1.403,0.236c0.267,0.027,0.527,0.043,0.782,0.043c1.233,0,2.182-0.35,2.899-1.069
	c0.01-0.01,0.02-0.021,0.03-0.031c0.414-0.426,0.929-0.668,1.597-0.747c0.162-0.019,0.334-0.029,0.515-0.029
	c1.243,0,2.757,0.465,4.222,0.914c0.373,0.115,0.749,0.23,1.124,0.339c0.487,0.142,0.973,0.273,1.452,0.377
	c0.675,0.148,1.334,0.244,1.955,0.244c0.595,0,1.123-0.087,1.591-0.261c0.111-0.043,0.22-0.088,0.326-0.14
	c0.01-0.005,0.02-0.009,0.03-0.015c0.002-0.002,0.005-0.002,0.008-0.004v0.024c0.141,0.388,0.266,0.789,0.373,1.188
	c0.217,0.811,0.366,1.641,0.442,2.48c0.005,0.054,0.01,0.109,0.015,0.163c0.006,0.081,0.012,0.162,0.018,0.244
	c0.005,0.081,0.01,0.162,0.014,0.244c0.005,0.082,0.008,0.163,0.01,0.245c0.003,0.082,0.005,0.163,0.005,0.245
	c0.002,0.082,0.002,0.164,0.002,0.246C39.295,25.098,39.295,25.169,39.293,25.24z"/>
<g>
	<path class="st3" d="M14.901,34.043l0.503-0.421l-0.457-0.546l-0.503,0.422l-0.2-0.238l1.256-1.051l0.2,0.238l-0.514,0.43
		l0.457,0.546l0.276-0.231l-0.133-0.158l0.238-0.2l0.332,0.397L15.1,34.281L14.901,34.043z"/>
	<path class="st3" d="M16.931,35.314c-0.102,0.047-0.207,0.073-0.315,0.079c-0.108,0.006-0.215-0.009-0.322-0.044
		c-0.107-0.035-0.204-0.092-0.291-0.17c-0.087-0.077-0.153-0.167-0.2-0.269c-0.047-0.102-0.073-0.207-0.079-0.315
		c-0.006-0.108,0.008-0.215,0.044-0.322c0.035-0.107,0.092-0.204,0.17-0.291c0.077-0.086,0.167-0.153,0.269-0.2
		c0.102-0.047,0.207-0.073,0.315-0.079c0.108-0.006,0.215,0.008,0.322,0.044c0.107,0.035,0.203,0.091,0.29,0.169
		c0.088,0.078,0.155,0.168,0.202,0.27c0.047,0.101,0.074,0.206,0.08,0.314c0.006,0.108-0.009,0.215-0.044,0.322
		c-0.035,0.107-0.092,0.204-0.17,0.291C17.123,35.2,17.033,35.267,16.931,35.314z M17.077,34.722
		c0.023-0.067,0.032-0.135,0.028-0.204c-0.004-0.069-0.021-0.135-0.051-0.2c-0.03-0.064-0.073-0.121-0.128-0.171
		c-0.055-0.05-0.117-0.086-0.184-0.108c-0.067-0.023-0.135-0.032-0.204-0.028c-0.069,0.004-0.135,0.021-0.2,0.051
		c-0.064,0.03-0.121,0.073-0.171,0.128c-0.05,0.056-0.086,0.117-0.108,0.184c-0.023,0.067-0.032,0.135-0.028,0.204
		c0.004,0.069,0.021,0.135,0.051,0.2c0.03,0.064,0.073,0.121,0.128,0.171c0.055,0.05,0.117,0.086,0.184,0.108
		c0.067,0.023,0.135,0.032,0.204,0.028c0.069-0.004,0.135-0.021,0.2-0.051c0.064-0.03,0.121-0.073,0.171-0.128
		C17.018,34.85,17.054,34.789,17.077,34.722z"/>
	<path class="st3" d="M18.297,36.388c-0.075,0.048-0.154,0.081-0.238,0.098c-0.084,0.017-0.17,0.018-0.257,0.002
		c-0.088-0.016-0.17-0.05-0.247-0.101c-0.077-0.051-0.14-0.114-0.188-0.188c-0.048-0.074-0.081-0.153-0.097-0.237
		c-0.016-0.084-0.017-0.17-0.002-0.257c0.015-0.087,0.049-0.17,0.1-0.247l0.553-0.833l0.259,0.172l-0.553,0.833
		c-0.027,0.041-0.045,0.085-0.054,0.133c-0.008,0.047-0.008,0.094,0.001,0.139c0.009,0.045,0.027,0.087,0.052,0.127
		c0.026,0.039,0.059,0.073,0.101,0.1c0.041,0.027,0.085,0.045,0.133,0.054c0.047,0.008,0.094,0.008,0.139-0.001
		c0.045-0.009,0.088-0.026,0.128-0.052c0.04-0.025,0.074-0.059,0.101-0.1l0.381-0.574L18.42,35.33l0.172-0.259l0.446,0.296
		l-0.553,0.833C18.434,36.278,18.371,36.341,18.297,36.388z"/>
	<path class="st3" d="M19.572,37.135c-0.051,0.043-0.107,0.074-0.167,0.094c-0.06,0.02-0.124,0.028-0.19,0.024
		c-0.066-0.004-0.131-0.022-0.193-0.053l-0.421-0.212l0.14-0.278l0.421,0.212c0.047,0.024,0.095,0.027,0.145,0.011
		c0.05-0.016,0.087-0.048,0.11-0.095c0.024-0.047,0.027-0.095,0.01-0.144c-0.017-0.049-0.049-0.086-0.096-0.109l-0.043-0.022
		c-0.064-0.032-0.12-0.072-0.17-0.121c-0.05-0.049-0.089-0.103-0.117-0.162c-0.028-0.059-0.043-0.122-0.044-0.188
		c-0.001-0.066,0.016-0.134,0.05-0.203c0.04-0.08,0.09-0.141,0.15-0.182c0.06-0.041,0.124-0.066,0.193-0.077
		c0.069-0.01,0.141-0.007,0.216,0.01c0.075,0.017,0.147,0.043,0.218,0.078c0.035,0.017,0.069,0.036,0.104,0.057
		c0.034,0.021,0.068,0.042,0.1,0.064c0.032,0.022,0.062,0.043,0.088,0.064c0.027,0.021,0.048,0.04,0.066,0.058l-0.226,0.216
		c-0.009-0.01-0.022-0.022-0.04-0.036c-0.018-0.014-0.039-0.03-0.064-0.046c-0.025-0.017-0.051-0.034-0.081-0.051
		c-0.029-0.017-0.059-0.033-0.088-0.048c-0.03-0.015-0.062-0.029-0.096-0.042s-0.067-0.019-0.1-0.021
		c-0.033-0.001-0.064,0.005-0.092,0.018c-0.028,0.013-0.052,0.039-0.071,0.076c-0.014,0.028-0.019,0.054-0.014,0.08
		c0.004,0.026,0.015,0.05,0.031,0.073c0.016,0.023,0.036,0.043,0.058,0.06c0.022,0.017,0.045,0.032,0.069,0.044l0.044,0.022
		c0.062,0.031,0.115,0.072,0.157,0.123c0.043,0.051,0.074,0.107,0.094,0.167c0.02,0.06,0.028,0.123,0.024,0.189
		c-0.004,0.066-0.021,0.13-0.052,0.192C19.664,37.04,19.623,37.092,19.572,37.135z"/>
	<path class="st3" d="M19.925,37.617l0.467-1.242l-0.193-0.073l0.109-0.291l1.055,0.397l-0.109,0.291l-0.571-0.215l-0.122,0.324
		l0.571,0.215l-0.109,0.291l-0.571-0.215l-0.127,0.337l0.571,0.215l-0.109,0.291L19.925,37.617z"/>
	<path class="st3" d="M24.783,38.15c-0.053,0.099-0.121,0.183-0.203,0.254c-0.082,0.07-0.177,0.123-0.283,0.16
		c-0.106,0.036-0.218,0.05-0.335,0.04c-0.116-0.009-0.223-0.041-0.322-0.094c-0.099-0.053-0.183-0.121-0.253-0.203
		c-0.07-0.083-0.123-0.177-0.16-0.283c-0.036-0.106-0.05-0.218-0.04-0.335c0.009-0.116,0.041-0.223,0.094-0.322
		c0.053-0.099,0.121-0.183,0.203-0.253c0.082-0.07,0.177-0.123,0.283-0.16c0.106-0.036,0.217-0.05,0.333-0.041
		c0.117,0.01,0.225,0.04,0.324,0.093c0.099,0.052,0.183,0.12,0.254,0.202c0.07,0.082,0.123,0.177,0.16,0.283
		c0.036,0.106,0.05,0.218,0.04,0.335C24.868,37.944,24.836,38.052,24.783,38.15z M24.542,37.591
		c-0.023-0.067-0.056-0.127-0.101-0.18c-0.045-0.053-0.098-0.095-0.161-0.129c-0.063-0.033-0.131-0.053-0.205-0.059
		c-0.074-0.006-0.145,0.002-0.212,0.025c-0.067,0.023-0.127,0.056-0.18,0.101c-0.053,0.045-0.095,0.098-0.128,0.161
		c-0.033,0.063-0.053,0.131-0.059,0.205c-0.006,0.074,0.002,0.145,0.025,0.212c0.023,0.067,0.056,0.127,0.101,0.18
		c0.045,0.053,0.098,0.095,0.161,0.128c0.063,0.033,0.131,0.053,0.205,0.059c0.074,0.006,0.145-0.002,0.212-0.025
		c0.067-0.022,0.127-0.056,0.18-0.101c0.053-0.045,0.095-0.098,0.129-0.161c0.033-0.063,0.053-0.131,0.059-0.205
		C24.573,37.728,24.565,37.658,24.542,37.591z"/>
	<path class="st3" d="M25.439,37.948l0.024,0.67l-0.311,0.011l-0.047-1.326l-0.204,0.007l-0.011-0.311l1.124-0.04l0.011,0.311
		l-0.61,0.022l0.012,0.345l0.61-0.022l0.011,0.311L25.439,37.948z"/>
	<path class="st3" d="M28.63,37.452l0.189,0.643l-0.298,0.087l-0.373-1.273l-0.196,0.058l-0.087-0.298l1.08-0.317l0.087,0.298
		l-0.585,0.172l0.097,0.332l0.585-0.172l0.087,0.298L28.63,37.452z"/>
	<path class="st3" d="M30.85,36.931c-0.001,0.089-0.017,0.173-0.048,0.253c-0.031,0.08-0.078,0.152-0.139,0.216
		c-0.062,0.064-0.135,0.115-0.22,0.151c-0.085,0.037-0.172,0.055-0.261,0.055c-0.088,0-0.172-0.016-0.252-0.049
		c-0.079-0.032-0.152-0.079-0.216-0.139c-0.065-0.061-0.115-0.134-0.152-0.219l-0.394-0.919l0.286-0.122l0.394,0.919
		c0.02,0.046,0.047,0.085,0.082,0.118c0.035,0.033,0.074,0.058,0.117,0.075c0.043,0.017,0.088,0.026,0.135,0.026
		c0.047,0,0.093-0.01,0.139-0.029c0.045-0.02,0.085-0.047,0.118-0.082c0.033-0.035,0.058-0.074,0.075-0.117
		c0.017-0.043,0.026-0.088,0.027-0.135c0.001-0.047-0.009-0.094-0.028-0.139l-0.271-0.633l-0.207,0.089l-0.122-0.286l0.493-0.211
		l0.394,0.919C30.833,36.756,30.851,36.843,30.85,36.931z"/>
	<path class="st3" d="M31.37,35.559l0.666,1.145l-0.269,0.156l-0.666-1.145l-0.405,0.235l-0.156-0.269l1.073-0.624l0.156,0.269
		L31.37,35.559z"/>
	<path class="st3" d="M33.462,35.384c0.012,0.074,0.008,0.146-0.012,0.217c-0.02,0.071-0.053,0.137-0.1,0.2
		c-0.047,0.063-0.103,0.118-0.167,0.166c-0.066,0.049-0.135,0.09-0.207,0.122c-0.072,0.033-0.147,0.061-0.225,0.086l-0.753-1.012
		l-0.162,0.121l-0.186-0.249l0.577-0.429c0.052-0.039,0.109-0.065,0.17-0.08c0.061-0.015,0.122-0.018,0.181-0.009
		c0.06,0.009,0.117,0.029,0.171,0.061c0.054,0.032,0.101,0.074,0.14,0.126c0.061,0.082,0.092,0.172,0.095,0.271
		c0.076-0.001,0.148,0.016,0.213,0.05c0.066,0.034,0.122,0.082,0.168,0.144C33.418,35.237,33.45,35.31,33.462,35.384z
		 M32.532,34.825c-0.044-0.006-0.084,0.004-0.121,0.03l-0.164,0.122l0.194,0.261l0.171-0.127c0.035-0.026,0.054-0.061,0.058-0.104
		c0.004-0.044-0.007-0.083-0.032-0.117C32.612,34.853,32.576,34.832,32.532,34.825z M33.049,35.299
		c-0.025-0.009-0.052-0.013-0.081-0.011c-0.029,0.002-0.057,0.009-0.085,0.021c-0.028,0.012-0.054,0.027-0.078,0.045l-0.179,0.133
		l0.231,0.311c0.023-0.008,0.047-0.019,0.07-0.033c0.023-0.014,0.044-0.028,0.061-0.041c0.03-0.022,0.059-0.047,0.086-0.075
		c0.027-0.028,0.048-0.058,0.063-0.09c0.015-0.032,0.022-0.066,0.02-0.1c-0.001-0.035-0.016-0.07-0.042-0.106
		C33.097,35.326,33.074,35.308,33.049,35.299z"/>
	<path class="st3" d="M34.715,33.921c0.039,0.105,0.058,0.212,0.056,0.32c-0.002,0.108-0.024,0.214-0.067,0.318
		c-0.043,0.104-0.106,0.196-0.191,0.278c-0.083,0.081-0.178,0.141-0.283,0.18c-0.105,0.039-0.212,0.058-0.32,0.056
		c-0.108-0.002-0.214-0.024-0.318-0.067c-0.104-0.043-0.196-0.106-0.278-0.191c-0.081-0.083-0.141-0.178-0.18-0.283
		c-0.039-0.105-0.058-0.212-0.056-0.32c0.002-0.108,0.024-0.214,0.067-0.318s0.106-0.196,0.189-0.277
		c0.084-0.082,0.179-0.142,0.284-0.182c0.104-0.04,0.211-0.059,0.319-0.057c0.108,0.002,0.214,0.024,0.318,0.067
		c0.104,0.043,0.196,0.106,0.278,0.191C34.615,33.721,34.676,33.816,34.715,33.921z M34.135,33.732
		c-0.065-0.027-0.132-0.042-0.201-0.043c-0.069-0.001-0.137,0.011-0.203,0.036c-0.066,0.025-0.126,0.064-0.179,0.115
		c-0.053,0.052-0.094,0.11-0.121,0.176c-0.027,0.065-0.042,0.133-0.043,0.202c-0.001,0.069,0.011,0.137,0.036,0.203
		c0.025,0.066,0.064,0.126,0.115,0.179c0.052,0.053,0.11,0.094,0.175,0.121c0.065,0.027,0.132,0.042,0.202,0.043
		c0.069,0.001,0.137-0.011,0.203-0.036c0.066-0.025,0.126-0.064,0.179-0.115c0.053-0.052,0.094-0.11,0.121-0.175
		c0.027-0.065,0.042-0.133,0.043-0.202c0.001-0.069-0.011-0.137-0.036-0.203c-0.025-0.066-0.064-0.126-0.115-0.179
		C34.259,33.8,34.201,33.759,34.135,33.732z"/>
	<path class="st3" d="M35.314,33.962l-1.026-0.842l-0.128,0.156l-0.24-0.197l0.325-0.396l1.026,0.841l0.394-0.481l0.24,0.197
		L35.314,33.962z"/>
</g>
<g>
	<path class="st3" d="M22.28,12.379l-1.29-0.236c-0.032-0.006-0.066,0.001-0.093,0.02c-0.027,0.019-0.045,0.047-0.051,0.08
		l-0.028,0.153c-0.012,0.067,0.032,0.131,0.099,0.144l0.704,0.13l-0.544,0.459c-0.052,0.044-0.059,0.122-0.015,0.174l0.101,0.119
		c0.024,0.029,0.059,0.044,0.095,0.044c0.028,0,0.056-0.01,0.08-0.029l0.999-0.842c0.037-0.031,0.052-0.08,0.04-0.126
		C22.365,12.423,22.327,12.388,22.28,12.379z"/>
	<path class="st3" d="M20.545,12.881l-1.31-0.052c-0.068-0.003-0.126,0.05-0.128,0.119L19.1,13.104
		c-0.003,0.068,0.05,0.126,0.118,0.129l0.716,0.03l-0.474,0.531c-0.022,0.025-0.033,0.057-0.031,0.09
		c0.002,0.033,0.017,0.064,0.041,0.085l0.117,0.104c0.024,0.021,0.053,0.031,0.082,0.031c0.034,0,0.068-0.014,0.092-0.041
		l0.871-0.974c0.032-0.036,0.04-0.087,0.022-0.131S20.593,12.883,20.545,12.881z"/>
	<path class="st3" d="M18.902,13.62l-1.304,0.129c-0.033,0.003-0.063,0.019-0.084,0.045c-0.021,0.025-0.031,0.058-0.027,0.091
		l0.015,0.155c0.007,0.068,0.068,0.117,0.135,0.111l0.713-0.069l-0.396,0.592c-0.038,0.057-0.023,0.134,0.034,0.172l0.129,0.087
		c0.021,0.014,0.045,0.021,0.069,0.021c0.04,0,0.079-0.019,0.103-0.055l0.728-1.086c0.027-0.04,0.028-0.091,0.003-0.132
		C18.995,13.638,18.95,13.615,18.902,13.62z"/>
	<path class="st3" d="M17.374,14.579L16.1,14.888c-0.032,0.008-0.059,0.028-0.077,0.056c-0.017,0.028-0.022,0.062-0.014,0.094
		l0.037,0.152c0.016,0.066,0.083,0.107,0.149,0.091l0.696-0.168l-0.31,0.641c-0.03,0.061-0.004,0.135,0.057,0.165l0.14,0.068
		c0.017,0.008,0.036,0.012,0.054,0.012c0.014,0,0.027-0.002,0.04-0.007c0.031-0.011,0.057-0.033,0.071-0.063l0.571-1.176
		c0.021-0.043,0.015-0.094-0.015-0.132C17.469,14.584,17.42,14.568,17.374,14.579z"/>
	<path class="st3" d="M15.995,15.741l-1.218,0.485c-0.031,0.012-0.055,0.036-0.068,0.066c-0.013,0.03-0.013,0.064-0.001,0.095
		l0.058,0.145c0.025,0.063,0.097,0.094,0.16,0.069l0.665-0.263l-0.217,0.678c-0.01,0.031-0.007,0.065,0.008,0.094
		c0.015,0.029,0.041,0.051,0.072,0.061l0.148,0.047c0.012,0.004,0.025,0.006,0.038,0.006c0.052,0,0.101-0.033,0.118-0.086l0.4-1.244
		c0.015-0.046,0.002-0.096-0.033-0.128C16.09,15.733,16.039,15.723,15.995,15.741z"/>
	<path class="st3" d="M35.38,16.453c-0.012-0.03-0.036-0.055-0.067-0.067l-1.209-0.506c-0.044-0.018-0.095-0.01-0.131,0.022
		c-0.036,0.032-0.049,0.082-0.036,0.128l0.376,1.25c0.016,0.054,0.065,0.088,0.118,0.088c0.012,0,0.024-0.002,0.036-0.005
		l0.149-0.045c0.031-0.009,0.058-0.031,0.073-0.06c0.016-0.029,0.019-0.063,0.01-0.094l-0.205-0.682l0.662,0.276
		c0.063,0.026,0.135-0.003,0.162-0.066l0.06-0.144C35.392,16.518,35.392,16.483,35.38,16.453z"/>
	<path class="st3" d="M34.072,15.341l0.039-0.151c0.017-0.066-0.022-0.134-0.088-0.151l-1.268-0.333
		c-0.046-0.012-0.095,0.003-0.126,0.04c-0.031,0.037-0.038,0.088-0.018,0.131l0.547,1.185c0.014,0.03,0.039,0.053,0.07,0.064
		c0.014,0.005,0.028,0.008,0.043,0.008c0.018,0,0.036-0.004,0.052-0.012l0.142-0.066c0.062-0.029,0.089-0.102,0.06-0.164
		l-0.298-0.646l0.695,0.182C33.987,15.447,34.055,15.407,34.072,15.341z"/>
	<path class="st3" d="M32.65,14.177l0.018-0.155c0.004-0.033-0.005-0.065-0.026-0.091c-0.02-0.026-0.05-0.042-0.083-0.046
		l-1.302-0.155c-0.048-0.006-0.094,0.017-0.119,0.057c-0.025,0.041-0.025,0.092,0.001,0.132l0.704,1.098
		c0.024,0.037,0.064,0.057,0.104,0.057c0.023,0,0.046-0.006,0.067-0.02l0.131-0.084c0.028-0.018,0.047-0.046,0.054-0.078
		c0.007-0.032,0.001-0.066-0.017-0.093l-0.384-0.599l0.714,0.084C32.581,14.294,32.642,14.245,32.65,14.177z"/>
	<path class="st3" d="M30.956,12.942c-0.001,0-0.002,0-0.002,0l-1.311,0.024c-0.048,0.001-0.091,0.029-0.111,0.073
		c-0.02,0.044-0.012,0.095,0.019,0.131l0.848,0.992c0.021,0.025,0.052,0.04,0.084,0.043c0.003,0,0.006,0,0.01,0
		c0.029,0,0.058-0.01,0.08-0.03l0.118-0.101c0.052-0.044,0.058-0.122,0.014-0.174l-0.462-0.541l0.718-0.014
		c0.033-0.001,0.064-0.014,0.087-0.038c0.023-0.024,0.035-0.055,0.035-0.088l-0.003-0.156
		C31.078,12.996,31.023,12.942,30.956,12.942z"/>
	<path class="st3" d="M29.371,12.332c-0.005-0.032-0.023-0.062-0.049-0.081c-0.027-0.019-0.06-0.027-0.092-0.022l-1.295,0.206
		c-0.047,0.008-0.086,0.042-0.099,0.088c-0.013,0.046,0.001,0.096,0.037,0.127l0.978,0.864c0.023,0.021,0.053,0.031,0.082,0.031
		c0.034,0,0.068-0.014,0.093-0.042l0.103-0.116c0.022-0.025,0.033-0.057,0.031-0.09c-0.002-0.033-0.017-0.063-0.042-0.085
		l-0.533-0.472l0.709-0.114c0.067-0.011,0.113-0.074,0.103-0.141L29.371,12.332z"/>
</g>
<circle class="st1" cx="22.203" cy="37.607" r="0.478"/>
<path class="st1" d="M27.617,37.607c0,0.264-0.214,0.478-0.478,0.478c-0.264,0-0.478-0.214-0.478-0.478
	c0-0.264,0.214-0.478,0.478-0.478C27.403,37.129,27.617,37.343,27.617,37.607z"/>
</svg>
