<?xml version="1.0" encoding="utf-8"?>
<!-- Generator: Adobe Illustrator 16.0.0, SVG Export Plug-In . SVG Version: 6.00 Build 0)  -->
<!DOCTYPE svg PUBLIC "-//W3C//DTD SVG 1.1//EN" "http://www.w3.org/Graphics/SVG/1.1/DTD/svg11.dtd">
<svg version="1.1" id="Layer_1" xmlns="http://www.w3.org/2000/svg" xmlns:xlink="http://www.w3.org/1999/xlink" x="0px" y="0px"
	 width="50px" height="50px" viewBox="0 0 50 50" enable-background="new 0 0 50 50" xml:space="preserve">
<pattern  x="0.5" y="50.5" width="8.88" height="8.87" patternUnits="userSpaceOnUse" id="New_Pattern" viewBox="0 -8.87 8.88 8.87" overflow="visible">
	<g>
		<polygon fill="none" points="0,-8.87 8.88,-8.87 8.88,0 0,0 		"/>
		<path fill="#E30825" d="M1.62,0H0v-1.62C0.9-1.62,1.62-0.891,1.62,0z"/>
		<path fill="#E30825" d="M0-8.87h1.62C1.62-7.98,0.9-7.25,0-7.25V-8.87z"/>
		<path fill="#E30825" d="M6.06-4.43c0,0.89-0.73,1.619-1.62,1.619c-0.9,0-1.63-0.729-1.63-1.619c0-0.9,0.73-1.631,1.63-1.631
			C5.33-6.061,6.06-5.33,6.06-4.43z"/>
		<path fill="#E30825" d="M8.88-8.87v1.62c-0.9,0-1.63-0.73-1.63-1.62H8.88z"/>
		<path fill="#E30825" d="M8.88-1.62V0H7.25C7.25-0.891,7.98-1.62,8.88-1.62z"/>
		<path fill="#E30825" d="M8.88-8.87v1.62c-0.9,0-1.63-0.73-1.63-1.62H8.88z"/>
		<path fill="#E30825" d="M1.62,0H0v-1.62C0.9-1.62,1.62-0.891,1.62,0z"/>
		<path fill="#E30825" d="M8.88-1.62V0H7.25C7.25-0.891,7.98-1.62,8.88-1.62z"/>
		<path fill="#E30825" d="M6.06-4.43c0,0.89-0.73,1.619-1.62,1.619c-0.9,0-1.63-0.729-1.63-1.619c0-0.9,0.73-1.631,1.63-1.631
			C5.33-6.061,6.06-5.33,6.06-4.43z"/>
	</g>
</pattern>
<rect x="0" fill="none" width="50" height="50"/>
<g>
	<pattern  id="SVGID_1_" xlink:href="#New_Pattern" patternTransform="matrix(0.023 0 0 0.023 -7978.9717 -8033.0366)">
	</pattern>
	<polygon fill="url(#SVGID_1_)" points="9.329,21.601 9.579,21.007 11.579,19.444 13.954,19.554 15.438,20.522 16.36,23.179 
		14.422,24.272 11.829,24.397 9.532,23.194 	"/>
	<path fill="#1D1D1B" d="M17.301,18.939l-2.261,0.965l-1.409-0.818l-0.195-0.112l-0.223,0.019l-1.688,0.146l-0.199,0.018
		l-0.161,0.118l-0.783,0.577l-2.136-0.911L6.313,20.87v10.191h4.36v-6.299l2.1,0.895l2.099-0.895v6.299h4.36V20.87L17.301,18.939z
		 M11.141,20.173l0.445-0.327l1.687-0.145l0.949,0.551l0.767,0.443l0.67,1.722l-0.503,0.873l-2.086,0.708l-1.768-1.163l-0.831-0.056
		l-0.586-0.648l0.217-1.191l0.095-0.07L11.141,20.173z"/>
	<g>
		<rect x="21.549" y="21.407" fill="#E30613" width="0.494" height="2.407"/>
		<polygon fill="#E30613" points="23.928,23.014 22.932,21.407 22.435,21.407 22.435,23.814 22.91,23.814 22.91,22.205 
			23.906,23.814 24.403,23.814 24.403,21.407 23.928,21.407 		"/>
		<polygon fill="#E30613" points="24.575,21.846 25.308,21.846 25.308,23.814 25.803,23.814 25.803,21.846 26.539,21.846 
			26.539,21.407 24.575,21.407 		"/>
		<polygon fill="#E30613" points="27.215,22.785 28.385,22.785 28.385,22.365 27.215,22.365 27.215,21.846 28.479,21.846 
			28.479,21.407 26.721,21.407 26.721,23.814 28.502,23.814 28.502,23.375 27.215,23.375 		"/>
		<polygon fill="#E30613" points="29.26,21.407 28.766,21.407 28.766,23.814 30.439,23.814 30.439,23.375 29.26,23.375 		"/>
		<rect x="30.629" y="21.407" fill="#E30613" width="0.496" height="2.407"/>
		<path fill="#E30613" d="M32.568,22.901h0.615c-0.006,0.075-0.02,0.146-0.041,0.208c-0.025,0.073-0.064,0.136-0.115,0.186
			c-0.051,0.051-0.113,0.09-0.186,0.117c-0.07,0.025-0.15,0.038-0.24,0.038c-0.006,0-0.014-0.001-0.021-0.001
			c-0.115,0-0.217-0.022-0.299-0.068c-0.084-0.046-0.152-0.109-0.203-0.187c-0.055-0.078-0.094-0.169-0.119-0.27
			c-0.027-0.103-0.039-0.208-0.039-0.314c0-0.105,0.012-0.211,0.039-0.313c0.025-0.101,0.064-0.191,0.119-0.271
			c0.051-0.077,0.119-0.14,0.203-0.186c0.082-0.046,0.184-0.069,0.299-0.069c0.068,0,0.137,0.01,0.199,0.028
			c0.061,0.018,0.117,0.044,0.168,0.08c0.049,0.036,0.09,0.08,0.123,0.133c0.031,0.052,0.053,0.113,0.062,0.182l0.006,0.038h0.484
			l-0.006-0.049c-0.016-0.136-0.055-0.257-0.115-0.361c-0.062-0.104-0.141-0.192-0.232-0.262c-0.094-0.068-0.201-0.121-0.318-0.156
			c-0.117-0.034-0.242-0.052-0.371-0.052c-0.18,0-0.342,0.034-0.484,0.102s-0.266,0.159-0.365,0.274
			c-0.098,0.113-0.174,0.248-0.227,0.4c-0.053,0.15-0.078,0.312-0.078,0.481c0,0.172,0.025,0.335,0.078,0.485
			c0.053,0.152,0.129,0.287,0.227,0.401c0.1,0.114,0.223,0.206,0.365,0.272s0.305,0.1,0.484,0.1c0.145,0,0.277-0.025,0.391-0.075
			c0.094-0.041,0.189-0.11,0.283-0.205l0.051,0.226h0.34v-1.31h-1.076V22.901z"/>
		<polygon fill="#E30613" points="34.49,22.785 35.66,22.785 35.66,22.365 34.49,22.365 34.49,21.846 35.754,21.846 35.754,21.407 
			33.996,21.407 33.996,23.814 35.777,23.814 35.777,23.375 34.49,23.375 		"/>
		<polygon fill="#E30613" points="37.52,23.014 36.523,21.407 36.025,21.407 36.025,23.814 36.5,23.814 36.5,22.204 37.484,23.792 
			37.496,23.814 37.994,23.814 37.994,21.407 37.52,21.407 		"/>
		<path fill="#E30613" d="M39.965,22.881c-0.01,0.081-0.027,0.157-0.053,0.226c-0.027,0.07-0.062,0.129-0.109,0.18
			c-0.045,0.051-0.1,0.091-0.164,0.119c-0.062,0.029-0.137,0.043-0.221,0.043c-0.115,0-0.217-0.022-0.299-0.068
			c-0.084-0.047-0.152-0.109-0.205-0.187c-0.053-0.078-0.092-0.169-0.117-0.27c-0.027-0.103-0.039-0.208-0.039-0.314
			c0-0.105,0.012-0.211,0.039-0.313c0.025-0.101,0.064-0.192,0.117-0.271c0.053-0.077,0.121-0.14,0.205-0.186
			c0.082-0.046,0.184-0.069,0.299-0.069c0.078,0,0.148,0.011,0.207,0.032c0.059,0.021,0.109,0.05,0.152,0.087
			c0.045,0.038,0.08,0.083,0.107,0.134c0.029,0.053,0.051,0.112,0.066,0.175l0.01,0.033h0.488l-0.004-0.048
			c-0.014-0.131-0.049-0.249-0.105-0.352s-0.133-0.19-0.225-0.262s-0.199-0.126-0.318-0.164c-0.119-0.036-0.246-0.055-0.379-0.055
			c-0.18,0-0.342,0.034-0.486,0.102c-0.143,0.067-0.264,0.159-0.363,0.273c-0.098,0.114-0.174,0.249-0.227,0.401
			c-0.053,0.15-0.08,0.312-0.08,0.481c0,0.172,0.027,0.335,0.08,0.485c0.053,0.152,0.129,0.287,0.227,0.401
			c0.1,0.114,0.223,0.206,0.363,0.272c0.145,0.066,0.307,0.1,0.486,0.1c0.145,0,0.281-0.024,0.402-0.071s0.229-0.115,0.318-0.202
			c0.092-0.087,0.164-0.191,0.217-0.312c0.053-0.118,0.084-0.251,0.094-0.395l0.002-0.047h-0.482L39.965,22.881z"/>
		<rect x="40.73" y="21.407" fill="#E30613" width="0.494" height="2.407"/>
		<path fill="#E30613" d="M42.266,21.407l-0.922,2.407h0.514l0.217-0.614h0.863l0.219,0.614h0.529l-0.926-2.407H42.266z
			 M42.799,22.803h-0.582l0.293-0.833L42.799,22.803z"/>
	</g>
	<g>
		<polygon fill="#1D1D1B" points="22.807,26.744 22.196,25.009 21.549,25.009 21.549,27.416 22.023,27.416 22.023,25.82 
			22.597,27.416 22.994,27.416 23.568,25.818 23.568,27.416 24.042,27.416 24.042,25.009 23.402,25.009 		"/>
		<polygon fill="#1D1D1B" points="24.936,26.387 26.105,26.387 26.105,25.967 24.936,25.967 24.936,25.449 26.199,25.449 
			26.199,25.009 24.442,25.009 24.442,27.416 26.221,27.416 26.221,26.977 24.936,26.977 		"/>
		<path fill="#1D1D1B" d="M28.553,26.445H28.07l-0.004,0.039c-0.01,0.08-0.027,0.156-0.055,0.225
			c-0.025,0.068-0.061,0.129-0.107,0.18c-0.045,0.051-0.1,0.092-0.164,0.119c-0.062,0.029-0.139,0.043-0.223,0.043
			c-0.115,0-0.215-0.021-0.297-0.068c-0.084-0.047-0.152-0.107-0.205-0.186s-0.094-0.17-0.119-0.27
			c-0.025-0.104-0.039-0.209-0.039-0.314s0.014-0.211,0.039-0.314c0.025-0.1,0.066-0.191,0.119-0.27s0.121-0.14,0.205-0.186
			c0.082-0.046,0.182-0.069,0.297-0.069c0.08,0,0.15,0.011,0.209,0.032c0.057,0.021,0.109,0.05,0.152,0.087
			c0.043,0.037,0.08,0.082,0.107,0.134s0.051,0.111,0.066,0.174l0.01,0.035h0.488l-0.004-0.049c-0.014-0.131-0.049-0.25-0.107-0.352
			c-0.057-0.103-0.133-0.19-0.223-0.262c-0.092-0.071-0.199-0.127-0.318-0.164c-0.119-0.036-0.246-0.056-0.381-0.056
			c-0.178,0-0.342,0.035-0.484,0.103s-0.264,0.159-0.363,0.273c-0.098,0.114-0.174,0.249-0.229,0.401
			c-0.051,0.15-0.078,0.312-0.078,0.482c0,0.172,0.027,0.334,0.078,0.484c0.055,0.152,0.131,0.287,0.229,0.402
			c0.1,0.113,0.223,0.205,0.363,0.271c0.143,0.066,0.307,0.1,0.484,0.1c0.146,0,0.281-0.023,0.402-0.07
			c0.123-0.047,0.23-0.115,0.32-0.203c0.09-0.086,0.164-0.191,0.217-0.311s0.084-0.252,0.092-0.395L28.553,26.445z"/>
		<path fill="#1D1D1B" d="M29.465,25.009l-0.924,2.407h0.516l0.217-0.613h0.863l0.217,0.613h0.531l-0.928-2.407H29.465z
			 M29.998,26.406h-0.584l0.295-0.834L29.998,26.406z"/>
		<polygon fill="#1D1D1B" points="32.475,26.617 31.479,25.009 30.98,25.009 30.98,27.416 31.455,27.416 31.455,25.809 
			32.451,27.416 32.949,27.416 32.949,25.009 32.475,25.009 		"/>
		<rect x="33.342" y="25.009" fill="#1D1D1B" width="0.494" height="2.407"/>
		<path fill="#1D1D1B" d="M36.309,26.445h-0.482l-0.004,0.039c-0.01,0.08-0.027,0.156-0.053,0.225s-0.062,0.129-0.109,0.18
			c-0.045,0.051-0.1,0.092-0.164,0.119c-0.062,0.029-0.137,0.043-0.221,0.043c-0.115,0-0.217-0.021-0.299-0.068
			c-0.084-0.047-0.152-0.107-0.205-0.186c-0.053-0.08-0.092-0.17-0.117-0.27c-0.027-0.104-0.039-0.209-0.039-0.314
			s0.012-0.211,0.039-0.314c0.025-0.1,0.064-0.191,0.117-0.27s0.121-0.14,0.205-0.186c0.082-0.046,0.184-0.069,0.299-0.069
			c0.078,0,0.148,0.011,0.207,0.032c0.059,0.021,0.109,0.05,0.152,0.087c0.043,0.039,0.08,0.083,0.107,0.134
			c0.029,0.053,0.051,0.111,0.068,0.174l0.008,0.035h0.488l-0.004-0.051c-0.014-0.131-0.049-0.248-0.105-0.35
			c-0.059-0.103-0.133-0.191-0.225-0.262c-0.092-0.071-0.199-0.127-0.318-0.164c-0.119-0.036-0.246-0.056-0.379-0.056
			c-0.18,0-0.342,0.035-0.486,0.103c-0.143,0.067-0.264,0.159-0.363,0.273c-0.098,0.114-0.174,0.249-0.227,0.401
			s-0.078,0.314-0.078,0.482c0,0.17,0.025,0.334,0.078,0.484c0.053,0.152,0.129,0.287,0.227,0.402
			c0.1,0.113,0.223,0.205,0.365,0.271s0.305,0.1,0.484,0.1c0.145,0,0.279-0.023,0.402-0.07c0.121-0.047,0.229-0.115,0.318-0.203
			c0.092-0.086,0.164-0.191,0.217-0.311s0.084-0.252,0.094-0.395L36.309,26.445z"/>
		<path fill="#1D1D1B" d="M37.715,25.009h-0.494l-0.922,2.407h0.514l0.217-0.613h0.863l0.217,0.613h0.531L37.715,25.009z
			 M37.754,26.406h-0.582l0.293-0.834L37.754,26.406z"/>
	</g>
	<g>
		<path fill="#E30613" d="M21.439,28.254h0.654v0.121h-0.257v0.686h-0.141v-0.686h-0.256V28.254z"/>
		<path fill="#E30613" d="M22.144,28.801c0,0.023,0.003,0.045,0.01,0.066s0.016,0.039,0.029,0.055
			c0.013,0.018,0.029,0.029,0.049,0.039c0.019,0.01,0.042,0.014,0.07,0.014c0.038,0,0.068-0.008,0.091-0.023
			c0.023-0.018,0.041-0.041,0.052-0.074h0.122c-0.007,0.033-0.019,0.061-0.035,0.086s-0.037,0.045-0.06,0.062
			s-0.049,0.029-0.079,0.039c-0.029,0.008-0.059,0.012-0.091,0.012c-0.046,0-0.086-0.008-0.122-0.021
			c-0.036-0.016-0.065-0.037-0.09-0.064s-0.043-0.059-0.056-0.098c-0.012-0.037-0.019-0.078-0.019-0.123
			c0-0.041,0.006-0.082,0.02-0.119c0.013-0.037,0.032-0.07,0.057-0.098c0.024-0.029,0.054-0.051,0.088-0.068
			c0.035-0.016,0.074-0.023,0.118-0.023c0.046,0,0.087,0.01,0.124,0.027c0.037,0.02,0.067,0.045,0.091,0.076
			c0.024,0.033,0.042,0.068,0.053,0.109c0.011,0.041,0.014,0.084,0.008,0.127H22.144z M22.445,28.717
			c-0.001-0.02-0.006-0.039-0.013-0.059c-0.007-0.02-0.017-0.035-0.029-0.049c-0.012-0.014-0.027-0.025-0.045-0.035
			c-0.018-0.008-0.038-0.012-0.06-0.012c-0.022,0-0.043,0.004-0.062,0.012s-0.034,0.02-0.048,0.033
			c-0.013,0.014-0.023,0.029-0.031,0.049c-0.008,0.018-0.012,0.039-0.013,0.061H22.445z"/>
		<path fill="#E30613" d="M23.067,28.672c-0.005-0.037-0.02-0.064-0.044-0.082c-0.023-0.018-0.053-0.027-0.09-0.027
			c-0.016,0-0.034,0.002-0.053,0.008c-0.019,0.006-0.036,0.016-0.052,0.031c-0.016,0.016-0.029,0.037-0.04,0.064
			s-0.016,0.064-0.016,0.109c0,0.023,0.003,0.047,0.008,0.072c0.006,0.023,0.015,0.045,0.027,0.064
			c0.013,0.018,0.029,0.033,0.048,0.045s0.043,0.018,0.071,0.018c0.038,0,0.069-0.012,0.093-0.035s0.04-0.057,0.046-0.098h0.129
			c-0.012,0.076-0.041,0.135-0.087,0.174c-0.045,0.041-0.106,0.061-0.181,0.061c-0.046,0-0.086-0.008-0.122-0.023
			s-0.064-0.035-0.089-0.062c-0.024-0.027-0.042-0.059-0.055-0.096c-0.013-0.037-0.019-0.076-0.019-0.119
			c0-0.045,0.006-0.086,0.018-0.125c0.012-0.037,0.03-0.07,0.054-0.1c0.024-0.027,0.054-0.051,0.09-0.066s0.078-0.023,0.126-0.023
			c0.034,0,0.066,0.004,0.097,0.012c0.031,0.01,0.058,0.021,0.082,0.039s0.043,0.039,0.058,0.066
			c0.015,0.025,0.023,0.057,0.027,0.094H23.067z"/>
		<path fill="#E30613" d="M23.301,28.254h0.129v0.299h0.002c0.016-0.025,0.039-0.049,0.07-0.066s0.066-0.025,0.105-0.025
			c0.063,0,0.113,0.016,0.15,0.049s0.056,0.084,0.056,0.15v0.4h-0.129v-0.367c-0.001-0.047-0.011-0.08-0.029-0.1
			c-0.019-0.021-0.046-0.031-0.085-0.031c-0.021,0-0.041,0.004-0.059,0.012s-0.031,0.02-0.044,0.033s-0.021,0.029-0.028,0.049
			c-0.007,0.018-0.01,0.039-0.01,0.059v0.346h-0.129V28.254z"/>
		<path fill="#E30613" d="M23.95,28.477h0.122v0.086l0.003,0.002c0.02-0.033,0.045-0.059,0.076-0.076
			c0.031-0.02,0.066-0.027,0.105-0.027c0.064,0,0.114,0.016,0.151,0.049s0.056,0.084,0.056,0.15v0.4h-0.129v-0.367
			c-0.002-0.047-0.012-0.08-0.029-0.1c-0.019-0.021-0.047-0.031-0.085-0.031c-0.022,0-0.042,0.004-0.06,0.012
			c-0.017,0.008-0.031,0.02-0.043,0.033c-0.013,0.014-0.021,0.029-0.029,0.049c-0.006,0.018-0.01,0.039-0.01,0.059v0.346H23.95
			V28.477z"/>
		<path fill="#E30613" d="M24.867,29.076c-0.047,0-0.088-0.008-0.125-0.023c-0.036-0.016-0.067-0.035-0.093-0.062
			s-0.045-0.061-0.058-0.098s-0.02-0.08-0.02-0.125s0.007-0.086,0.02-0.123s0.032-0.07,0.058-0.098s0.057-0.047,0.093-0.062
			c0.037-0.016,0.078-0.023,0.125-0.023s0.088,0.008,0.125,0.023s0.067,0.035,0.093,0.062s0.044,0.061,0.058,0.098
			s0.02,0.078,0.02,0.123s-0.006,0.088-0.02,0.125s-0.032,0.07-0.058,0.098s-0.056,0.047-0.093,0.062S24.914,29.076,24.867,29.076z
			 M24.867,28.975c0.029,0,0.054-0.006,0.074-0.018c0.021-0.012,0.039-0.027,0.053-0.047s0.023-0.043,0.029-0.066
			c0.007-0.025,0.01-0.051,0.01-0.076s-0.003-0.049-0.01-0.074c-0.006-0.025-0.016-0.047-0.029-0.066s-0.031-0.035-0.053-0.047
			c-0.021-0.012-0.045-0.018-0.074-0.018s-0.053,0.006-0.074,0.018s-0.039,0.027-0.052,0.047c-0.014,0.02-0.023,0.041-0.031,0.066
			c-0.006,0.025-0.009,0.049-0.009,0.074s0.003,0.051,0.009,0.076c0.008,0.023,0.018,0.047,0.031,0.066
			c0.013,0.02,0.03,0.035,0.052,0.047S24.837,28.975,24.867,28.975z"/>
		<path fill="#E30613" d="M25.273,28.254h0.129v0.807h-0.129V28.254z"/>
		<path fill="#E30613" d="M25.811,29.076c-0.047,0-0.088-0.008-0.125-0.023s-0.068-0.035-0.094-0.062s-0.043-0.061-0.057-0.098
			s-0.02-0.08-0.02-0.125s0.006-0.086,0.02-0.123s0.031-0.07,0.057-0.098s0.057-0.047,0.094-0.062s0.078-0.023,0.125-0.023
			s0.088,0.008,0.125,0.023c0.035,0.016,0.066,0.035,0.092,0.062s0.045,0.061,0.059,0.098c0.012,0.037,0.02,0.078,0.02,0.123
			s-0.008,0.088-0.02,0.125c-0.014,0.037-0.033,0.07-0.059,0.098s-0.057,0.047-0.092,0.062
			C25.898,29.068,25.857,29.076,25.811,29.076z M25.811,28.975c0.027,0,0.053-0.006,0.074-0.018s0.039-0.027,0.053-0.047
			s0.023-0.043,0.029-0.066c0.006-0.025,0.01-0.051,0.01-0.076s-0.004-0.049-0.01-0.074s-0.016-0.047-0.029-0.066
			s-0.031-0.035-0.053-0.047s-0.047-0.018-0.074-0.018c-0.029,0-0.055,0.006-0.074,0.018c-0.021,0.012-0.039,0.027-0.053,0.047
			s-0.023,0.041-0.029,0.066c-0.008,0.025-0.01,0.049-0.01,0.074s0.002,0.051,0.01,0.076c0.006,0.023,0.016,0.047,0.029,0.066
			s0.031,0.035,0.053,0.047C25.756,28.969,25.781,28.975,25.811,28.975z"/>
		<path fill="#E30613" d="M26.754,29.029c0,0.09-0.025,0.154-0.074,0.199c-0.051,0.043-0.121,0.062-0.215,0.062
			c-0.029,0-0.059-0.002-0.088-0.008s-0.057-0.016-0.082-0.029c-0.023-0.016-0.045-0.033-0.061-0.057
			c-0.018-0.023-0.027-0.053-0.029-0.086h0.129c0.004,0.018,0.01,0.031,0.02,0.043c0.008,0.012,0.02,0.02,0.031,0.027
			c0.012,0.006,0.025,0.01,0.041,0.012s0.031,0.004,0.049,0.004c0.051,0,0.09-0.014,0.113-0.039s0.037-0.062,0.037-0.111v-0.09
			h-0.004c-0.018,0.033-0.043,0.059-0.074,0.076s-0.064,0.027-0.1,0.027c-0.047,0-0.088-0.008-0.119-0.023
			c-0.033-0.018-0.061-0.039-0.082-0.066c-0.021-0.029-0.037-0.062-0.047-0.1s-0.016-0.076-0.016-0.117
			c0-0.039,0.006-0.076,0.02-0.113c0.012-0.035,0.029-0.066,0.051-0.092c0.023-0.027,0.051-0.049,0.084-0.064
			s0.07-0.023,0.111-0.023c0.037,0,0.07,0.008,0.102,0.023s0.055,0.039,0.07,0.072h0.004v-0.08h0.129V29.029z M26.467,28.959
			c0.029,0,0.053-0.006,0.072-0.018c0.021-0.012,0.037-0.027,0.049-0.047c0.014-0.02,0.021-0.041,0.027-0.064
			c0.006-0.025,0.01-0.049,0.01-0.074s-0.004-0.049-0.01-0.072s-0.016-0.045-0.027-0.062c-0.014-0.018-0.029-0.033-0.049-0.043
			s-0.045-0.016-0.072-0.016c-0.029,0-0.053,0.006-0.072,0.018s-0.035,0.027-0.047,0.047s-0.021,0.041-0.027,0.066
			c-0.004,0.023-0.008,0.049-0.008,0.072s0.004,0.047,0.01,0.07s0.016,0.043,0.027,0.062c0.014,0.018,0.029,0.033,0.047,0.043
			C26.416,28.953,26.439,28.959,26.467,28.959z"/>
		<path fill="#E30613" d="M26.818,28.477h0.141l0.154,0.436h0.002l0.148-0.436h0.133l-0.227,0.615
			c-0.012,0.027-0.021,0.053-0.031,0.076s-0.023,0.045-0.037,0.064c-0.016,0.018-0.033,0.033-0.055,0.043s-0.049,0.016-0.084,0.016
			c-0.029,0-0.059-0.002-0.09-0.006v-0.107c0.012,0,0.021,0.002,0.031,0.004s0.02,0.004,0.031,0.004
			c0.014,0,0.027-0.002,0.037-0.006s0.018-0.01,0.023-0.018c0.008-0.006,0.012-0.016,0.018-0.025c0.004-0.01,0.008-0.02,0.012-0.033
			l0.016-0.045L26.818,28.477z"/>
		<path fill="#E30613" d="M27.725,28.477h0.098v-0.176h0.129v0.176h0.117v0.096h-0.117v0.312c0,0.014,0.002,0.025,0.002,0.035
			c0.002,0.01,0.004,0.018,0.008,0.025c0.004,0.006,0.01,0.012,0.02,0.014c0.008,0.004,0.02,0.006,0.033,0.006
			c0.01,0,0.018,0,0.027,0c0.01-0.002,0.018-0.002,0.027-0.004v0.098c-0.014,0.002-0.029,0.004-0.043,0.006
			s-0.027,0.002-0.041,0.002c-0.033,0-0.061-0.004-0.082-0.01s-0.037-0.016-0.049-0.027c-0.012-0.014-0.02-0.029-0.023-0.047
			c-0.004-0.02-0.006-0.041-0.008-0.064v-0.346h-0.098V28.477z"/>
		<path fill="#E30613" d="M28.16,28.254h0.129v0.299h0.002c0.018-0.025,0.041-0.049,0.072-0.066s0.064-0.025,0.104-0.025
			c0.064,0,0.115,0.016,0.152,0.049s0.055,0.084,0.055,0.15v0.4h-0.129v-0.367c-0.002-0.047-0.012-0.08-0.029-0.1
			c-0.018-0.021-0.047-0.031-0.084-0.031c-0.023,0-0.043,0.004-0.059,0.012c-0.018,0.008-0.033,0.02-0.045,0.033
			s-0.021,0.029-0.029,0.049c-0.006,0.018-0.01,0.039-0.01,0.059v0.346H28.16V28.254z"/>
		<path fill="#E30613" d="M29.299,28.932c0,0.016,0.002,0.025,0.006,0.033c0.006,0.006,0.014,0.01,0.025,0.01
			c0.004,0,0.008,0,0.014,0s0.012,0,0.018-0.002v0.09c-0.004,0.002-0.01,0.002-0.018,0.004c-0.006,0.002-0.014,0.004-0.021,0.006
			s-0.016,0.002-0.023,0.004c-0.008,0-0.014,0-0.02,0c-0.025,0-0.047-0.004-0.064-0.016c-0.018-0.01-0.029-0.029-0.035-0.055
			c-0.025,0.023-0.057,0.043-0.094,0.053c-0.037,0.012-0.072,0.018-0.107,0.018c-0.027,0-0.053-0.004-0.076-0.01
			c-0.023-0.008-0.045-0.018-0.064-0.033c-0.018-0.014-0.033-0.031-0.043-0.053c-0.012-0.021-0.018-0.047-0.018-0.074
			c0-0.037,0.008-0.066,0.021-0.088c0.012-0.023,0.029-0.041,0.051-0.055c0.021-0.012,0.045-0.021,0.072-0.027
			s0.055-0.01,0.082-0.012c0.023-0.006,0.045-0.008,0.066-0.01s0.039-0.006,0.055-0.01c0.018-0.006,0.029-0.012,0.039-0.021
			s0.014-0.023,0.014-0.043c0-0.016-0.004-0.029-0.012-0.039c-0.008-0.012-0.018-0.02-0.029-0.025s-0.023-0.01-0.039-0.012
			c-0.014-0.002-0.027-0.002-0.041-0.002c-0.035,0-0.064,0.008-0.088,0.021c-0.023,0.016-0.037,0.039-0.041,0.07h-0.129
			c0.004-0.037,0.012-0.068,0.027-0.094c0.016-0.023,0.037-0.045,0.061-0.061c0.025-0.014,0.053-0.025,0.084-0.031
			s0.062-0.008,0.094-0.008c0.029,0,0.059,0.002,0.086,0.008s0.053,0.016,0.074,0.029c0.023,0.014,0.041,0.031,0.055,0.053
			s0.02,0.049,0.02,0.08V28.932z M29.17,28.768c-0.02,0.014-0.043,0.021-0.072,0.023c-0.027,0.002-0.057,0.006-0.086,0.012
			c-0.014,0.002-0.027,0.006-0.039,0.01c-0.014,0.004-0.023,0.01-0.033,0.018c-0.01,0.006-0.018,0.016-0.023,0.027
			s-0.01,0.025-0.01,0.043c0,0.014,0.006,0.025,0.014,0.035s0.018,0.018,0.029,0.023s0.025,0.01,0.039,0.012
			c0.014,0.004,0.025,0.004,0.037,0.004c0.014,0,0.029-0.002,0.047-0.006c0.016-0.004,0.031-0.01,0.047-0.02
			c0.014-0.008,0.027-0.02,0.037-0.033s0.014-0.031,0.014-0.053V28.768z"/>
		<path fill="#E30613" d="M29.379,28.477h0.098v-0.176h0.129v0.176h0.117v0.096h-0.117v0.312c0,0.014,0,0.025,0.002,0.035
			s0.004,0.018,0.008,0.025c0.004,0.006,0.01,0.012,0.02,0.014c0.008,0.004,0.02,0.006,0.033,0.006c0.01,0,0.018,0,0.027,0
			c0.01-0.002,0.018-0.002,0.027-0.004v0.098c-0.016,0.002-0.029,0.004-0.043,0.006s-0.027,0.002-0.041,0.002
			c-0.033,0-0.061-0.004-0.082-0.01s-0.037-0.016-0.049-0.027c-0.012-0.014-0.02-0.029-0.023-0.047
			c-0.004-0.02-0.008-0.041-0.008-0.064v-0.346h-0.098V28.477z"/>
		<path fill="#E30613" d="M30.523,28.672c-0.004-0.037-0.02-0.064-0.043-0.082s-0.055-0.027-0.09-0.027
			c-0.018,0-0.035,0.002-0.053,0.008c-0.02,0.006-0.037,0.016-0.053,0.031s-0.029,0.037-0.039,0.064
			c-0.012,0.027-0.016,0.064-0.016,0.109c0,0.023,0.002,0.047,0.008,0.072c0.006,0.023,0.016,0.045,0.027,0.064
			c0.012,0.018,0.029,0.033,0.049,0.045s0.043,0.018,0.07,0.018c0.037,0,0.068-0.012,0.094-0.035
			c0.023-0.023,0.039-0.057,0.045-0.098h0.129c-0.012,0.076-0.041,0.135-0.086,0.174c-0.045,0.041-0.105,0.061-0.182,0.061
			c-0.047,0-0.086-0.008-0.121-0.023s-0.064-0.035-0.09-0.062c-0.023-0.027-0.041-0.059-0.055-0.096
			c-0.012-0.037-0.018-0.076-0.018-0.119c0-0.045,0.006-0.086,0.018-0.125c0.012-0.037,0.029-0.07,0.055-0.1
			c0.023-0.027,0.053-0.051,0.09-0.066c0.035-0.016,0.078-0.023,0.125-0.023c0.035,0,0.066,0.004,0.098,0.012
			c0.029,0.01,0.057,0.021,0.082,0.039c0.023,0.018,0.043,0.039,0.057,0.066c0.016,0.025,0.025,0.057,0.027,0.094H30.523z"/>
		<path fill="#E30613" d="M30.758,28.254h0.129v0.299h0.002c0.016-0.025,0.039-0.049,0.07-0.066s0.066-0.025,0.105-0.025
			c0.064,0,0.115,0.016,0.152,0.049c0.035,0.033,0.055,0.084,0.055,0.15v0.4h-0.129v-0.367c-0.002-0.047-0.012-0.08-0.029-0.1
			c-0.018-0.021-0.047-0.031-0.086-0.031c-0.021,0-0.041,0.004-0.059,0.012s-0.031,0.02-0.043,0.033s-0.021,0.029-0.029,0.049
			c-0.006,0.018-0.01,0.039-0.01,0.059v0.346h-0.129V28.254z"/>
		<path fill="#E30613" d="M31.896,28.932c0,0.016,0.002,0.025,0.006,0.033c0.004,0.006,0.014,0.01,0.025,0.01
			c0.004,0,0.008,0,0.014,0c0.004,0,0.01,0,0.018-0.002v0.09c-0.004,0.002-0.01,0.002-0.018,0.004s-0.016,0.004-0.021,0.006
			c-0.008,0.002-0.016,0.002-0.023,0.004c-0.008,0-0.014,0-0.02,0c-0.025,0-0.047-0.004-0.064-0.016
			c-0.018-0.01-0.029-0.029-0.035-0.055c-0.025,0.023-0.057,0.043-0.094,0.053c-0.037,0.012-0.074,0.018-0.107,0.018
			c-0.027,0-0.053-0.004-0.076-0.01c-0.025-0.008-0.045-0.018-0.064-0.033c-0.018-0.014-0.033-0.031-0.043-0.053
			c-0.012-0.021-0.018-0.047-0.018-0.074c0-0.037,0.008-0.066,0.02-0.088c0.014-0.023,0.031-0.041,0.053-0.055
			c0.021-0.012,0.045-0.021,0.072-0.027s0.053-0.01,0.08-0.012c0.023-0.006,0.047-0.008,0.066-0.01
			c0.021-0.002,0.041-0.006,0.057-0.01c0.016-0.006,0.029-0.012,0.039-0.021s0.014-0.023,0.014-0.043
			c0-0.016-0.004-0.029-0.012-0.039c-0.008-0.012-0.018-0.02-0.029-0.025s-0.025-0.01-0.039-0.012s-0.027-0.002-0.041-0.002
			c-0.035,0-0.066,0.008-0.09,0.021c-0.023,0.016-0.035,0.039-0.039,0.07h-0.129c0.002-0.037,0.012-0.068,0.027-0.094
			c0.016-0.023,0.035-0.045,0.061-0.061c0.025-0.014,0.053-0.025,0.084-0.031c0.029-0.006,0.062-0.008,0.094-0.008
			c0.029,0,0.057,0.002,0.086,0.008c0.027,0.006,0.053,0.016,0.074,0.029c0.023,0.014,0.041,0.031,0.055,0.053s0.02,0.049,0.02,0.08
			V28.932z M31.768,28.768c-0.02,0.014-0.043,0.021-0.072,0.023s-0.057,0.006-0.086,0.012c-0.014,0.002-0.027,0.006-0.039,0.01
			c-0.014,0.004-0.025,0.01-0.035,0.018c-0.01,0.006-0.018,0.016-0.023,0.027c-0.004,0.012-0.008,0.025-0.008,0.043
			c0,0.014,0.004,0.025,0.012,0.035c0.01,0.01,0.02,0.018,0.031,0.023s0.023,0.01,0.039,0.012c0.014,0.004,0.025,0.004,0.037,0.004
			c0.014,0,0.029-0.002,0.047-0.006c0.016-0.004,0.031-0.01,0.047-0.02c0.014-0.008,0.025-0.02,0.035-0.033
			c0.012-0.014,0.016-0.031,0.016-0.053V28.768z"/>
		<path fill="#E30613" d="M32.035,28.477h0.123v0.086l0.002,0.002c0.02-0.033,0.045-0.059,0.076-0.076
			c0.031-0.02,0.066-0.027,0.105-0.027c0.064,0,0.115,0.016,0.152,0.049s0.055,0.084,0.055,0.15v0.4H32.42v-0.367
			c-0.002-0.047-0.012-0.08-0.029-0.1c-0.018-0.021-0.047-0.031-0.084-0.031c-0.023,0-0.043,0.004-0.061,0.012
			c-0.016,0.008-0.031,0.02-0.043,0.033s-0.021,0.029-0.029,0.049c-0.006,0.018-0.01,0.039-0.01,0.059v0.346h-0.129V28.477z"/>
		<path fill="#E30613" d="M33.225,29.029c0,0.09-0.023,0.154-0.074,0.199c-0.049,0.043-0.119,0.062-0.213,0.062
			c-0.029,0-0.059-0.002-0.088-0.008s-0.057-0.016-0.082-0.029c-0.025-0.016-0.045-0.033-0.061-0.057
			c-0.018-0.023-0.027-0.053-0.029-0.086h0.127c0.004,0.018,0.012,0.031,0.02,0.043c0.01,0.012,0.02,0.02,0.033,0.027
			c0.012,0.006,0.025,0.01,0.041,0.012s0.031,0.004,0.047,0.004c0.053,0,0.09-0.014,0.115-0.039
			c0.023-0.025,0.035-0.062,0.035-0.111v-0.09h-0.002c-0.018,0.033-0.043,0.059-0.074,0.076s-0.064,0.027-0.102,0.027
			c-0.047,0-0.086-0.008-0.119-0.023c-0.033-0.018-0.059-0.039-0.08-0.066c-0.021-0.029-0.037-0.062-0.047-0.1
			s-0.016-0.076-0.016-0.117c0-0.039,0.006-0.076,0.018-0.113c0.014-0.035,0.029-0.066,0.053-0.092
			c0.023-0.027,0.051-0.049,0.084-0.064c0.031-0.016,0.068-0.023,0.111-0.023c0.035,0,0.07,0.008,0.102,0.023
			c0.029,0.016,0.055,0.039,0.07,0.072h0.002v-0.08h0.129V29.029z M32.939,28.959c0.027,0,0.053-0.006,0.072-0.018
			s0.037-0.027,0.049-0.047s0.021-0.041,0.027-0.064c0.006-0.025,0.008-0.049,0.008-0.074s-0.002-0.049-0.008-0.072
			s-0.016-0.045-0.029-0.062c-0.012-0.018-0.027-0.033-0.047-0.043c-0.021-0.01-0.045-0.016-0.072-0.016
			c-0.029,0-0.053,0.006-0.072,0.018s-0.035,0.027-0.049,0.047c-0.012,0.02-0.02,0.041-0.025,0.066
			c-0.006,0.023-0.008,0.049-0.008,0.072s0.004,0.047,0.01,0.07s0.016,0.043,0.027,0.062c0.012,0.018,0.027,0.033,0.047,0.043
			C32.889,28.953,32.912,28.959,32.939,28.959z"/>
		<path fill="#E30613" d="M33.455,28.801c0,0.023,0.004,0.045,0.01,0.066c0.008,0.021,0.016,0.039,0.029,0.055
			c0.014,0.018,0.029,0.029,0.049,0.039s0.043,0.014,0.07,0.014c0.037,0,0.068-0.008,0.09-0.023
			c0.023-0.018,0.041-0.041,0.053-0.074h0.121c-0.006,0.033-0.018,0.061-0.035,0.086c-0.016,0.025-0.035,0.045-0.059,0.062
			s-0.051,0.029-0.08,0.039c-0.027,0.008-0.059,0.012-0.09,0.012c-0.047,0-0.088-0.008-0.123-0.021
			c-0.035-0.016-0.064-0.037-0.09-0.064c-0.023-0.027-0.043-0.059-0.055-0.098c-0.012-0.037-0.02-0.078-0.02-0.123
			c0-0.041,0.008-0.082,0.02-0.119c0.014-0.037,0.033-0.07,0.057-0.098c0.025-0.029,0.055-0.051,0.09-0.068
			c0.035-0.016,0.074-0.023,0.117-0.023c0.047,0,0.088,0.01,0.123,0.027c0.037,0.02,0.068,0.045,0.092,0.076
			c0.023,0.033,0.041,0.068,0.053,0.109s0.014,0.084,0.008,0.127H33.455z M33.756,28.717c0-0.02-0.006-0.039-0.012-0.059
			c-0.008-0.02-0.018-0.035-0.029-0.049c-0.014-0.014-0.027-0.025-0.047-0.035c-0.018-0.008-0.037-0.012-0.059-0.012
			s-0.043,0.004-0.061,0.012c-0.02,0.008-0.035,0.02-0.049,0.033c-0.012,0.014-0.023,0.029-0.031,0.049
			c-0.008,0.018-0.012,0.039-0.014,0.061H33.756z"/>
		<path fill="#E30613" d="M34.08,28.873c0.004,0.037,0.02,0.064,0.045,0.08c0.023,0.014,0.055,0.021,0.088,0.021
			c0.012,0,0.025,0,0.041-0.002s0.031-0.006,0.045-0.012s0.023-0.014,0.033-0.023c0.008-0.01,0.012-0.023,0.012-0.039
			c-0.002-0.018-0.008-0.031-0.018-0.041c-0.012-0.012-0.027-0.02-0.045-0.025s-0.037-0.012-0.061-0.018
			c-0.021-0.004-0.045-0.008-0.068-0.014s-0.047-0.012-0.07-0.02c-0.021-0.008-0.041-0.018-0.059-0.031
			c-0.018-0.012-0.033-0.027-0.043-0.049c-0.01-0.02-0.016-0.045-0.016-0.074c0-0.031,0.008-0.057,0.023-0.078
			s0.035-0.039,0.059-0.053s0.049-0.023,0.078-0.027c0.029-0.006,0.057-0.008,0.084-0.008c0.029,0,0.059,0.002,0.086,0.01
			c0.027,0.006,0.053,0.016,0.074,0.029c0.023,0.016,0.041,0.033,0.057,0.057c0.014,0.023,0.023,0.051,0.027,0.084h-0.135
			c-0.006-0.031-0.02-0.053-0.043-0.062c-0.021-0.01-0.047-0.016-0.076-0.016c-0.008,0-0.02,0-0.031,0.002
			c-0.014,0.002-0.025,0.004-0.035,0.008c-0.012,0.004-0.021,0.012-0.027,0.02c-0.008,0.008-0.012,0.018-0.012,0.031
			c0,0.016,0.006,0.027,0.016,0.037c0.012,0.01,0.025,0.018,0.043,0.025c0.018,0.006,0.039,0.012,0.061,0.016
			c0.023,0.004,0.047,0.01,0.07,0.014c0.023,0.006,0.047,0.014,0.07,0.02c0.021,0.008,0.043,0.018,0.061,0.031
			s0.031,0.029,0.043,0.049s0.016,0.043,0.016,0.072c0,0.035-0.008,0.064-0.023,0.088c-0.016,0.025-0.035,0.043-0.061,0.059
			s-0.055,0.025-0.086,0.033c-0.031,0.006-0.061,0.01-0.092,0.01c-0.037,0-0.07-0.004-0.102-0.012s-0.059-0.021-0.082-0.039
			c-0.023-0.016-0.041-0.037-0.055-0.062s-0.02-0.055-0.02-0.09H34.08z"/>
		<path fill="#E30613" d="M34.82,28.477h0.141l0.154,0.436h0.002l0.148-0.436h0.133l-0.227,0.615
			c-0.012,0.027-0.021,0.053-0.031,0.076s-0.023,0.045-0.037,0.064c-0.016,0.018-0.033,0.033-0.055,0.043S35,29.291,34.965,29.291
			c-0.029,0-0.061-0.002-0.09-0.006v-0.107c0.012,0,0.021,0.002,0.031,0.004s0.02,0.004,0.031,0.004
			c0.014,0,0.027-0.002,0.037-0.006s0.018-0.01,0.023-0.018c0.008-0.006,0.012-0.016,0.018-0.025c0.004-0.01,0.008-0.02,0.012-0.033
			l0.016-0.045L34.82,28.477z"/>
		<path fill="#E30613" d="M35.74,29.076c-0.047,0-0.09-0.008-0.125-0.023c-0.037-0.016-0.068-0.035-0.094-0.062
			s-0.043-0.061-0.057-0.098s-0.02-0.08-0.02-0.125s0.006-0.086,0.02-0.123s0.031-0.07,0.057-0.098s0.057-0.047,0.094-0.062
			c0.035-0.016,0.078-0.023,0.125-0.023s0.088,0.008,0.125,0.023c0.035,0.016,0.066,0.035,0.092,0.062s0.045,0.061,0.059,0.098
			c0.012,0.037,0.02,0.078,0.02,0.123s-0.008,0.088-0.02,0.125c-0.014,0.037-0.033,0.07-0.059,0.098s-0.057,0.047-0.092,0.062
			C35.828,29.068,35.787,29.076,35.74,29.076z M35.74,28.975c0.027,0,0.053-0.006,0.074-0.018s0.039-0.027,0.053-0.047
			s0.023-0.043,0.029-0.066c0.006-0.025,0.01-0.051,0.01-0.076s-0.004-0.049-0.01-0.074s-0.016-0.047-0.029-0.066
			s-0.031-0.035-0.053-0.047s-0.047-0.018-0.074-0.018c-0.029,0-0.055,0.006-0.074,0.018c-0.021,0.012-0.039,0.027-0.053,0.047
			s-0.023,0.041-0.029,0.066c-0.008,0.025-0.01,0.049-0.01,0.074s0.002,0.051,0.01,0.076c0.006,0.023,0.016,0.047,0.029,0.066
			s0.031,0.035,0.053,0.047C35.686,28.969,35.711,28.975,35.74,28.975z"/>
		<path fill="#E30613" d="M36.656,29.061h-0.127v-0.082h-0.002c-0.016,0.031-0.041,0.055-0.072,0.072s-0.062,0.025-0.094,0.025
			c-0.078,0-0.133-0.02-0.168-0.057c-0.033-0.039-0.051-0.096-0.051-0.172v-0.371h0.129v0.357c0,0.053,0.01,0.088,0.029,0.109
			s0.047,0.031,0.082,0.031c0.027,0,0.051-0.004,0.068-0.012s0.033-0.02,0.043-0.033c0.012-0.016,0.02-0.031,0.025-0.051
			c0.004-0.02,0.008-0.041,0.008-0.064v-0.338h0.129V29.061z"/>
		<path fill="#E30613" d="M36.791,28.477h0.121v0.113h0.002c0.004-0.016,0.012-0.031,0.023-0.047
			c0.01-0.016,0.023-0.029,0.039-0.041c0.016-0.014,0.033-0.023,0.051-0.031c0.02-0.006,0.039-0.01,0.059-0.01
			c0.014,0,0.025,0,0.031,0c0.004,0.002,0.01,0.002,0.018,0.002v0.125c-0.01-0.002-0.02-0.002-0.029-0.004
			c-0.008,0-0.018-0.002-0.027-0.002c-0.021,0-0.043,0.004-0.061,0.014c-0.02,0.008-0.037,0.021-0.051,0.039
			c-0.014,0.016-0.025,0.037-0.035,0.062c-0.008,0.023-0.012,0.053-0.012,0.086v0.277h-0.129V28.477z"/>
		<path fill="#E30613" d="M37.506,28.254h0.129v0.299h0.004c0.008-0.016,0.02-0.027,0.031-0.039
			c0.014-0.012,0.027-0.021,0.043-0.029s0.031-0.014,0.049-0.018s0.033-0.006,0.051-0.006c0.045,0,0.086,0.008,0.119,0.023
			c0.035,0.016,0.064,0.039,0.086,0.066c0.023,0.029,0.039,0.062,0.051,0.1s0.018,0.078,0.018,0.121
			c0,0.039-0.006,0.076-0.016,0.113s-0.025,0.07-0.047,0.098c-0.02,0.029-0.047,0.051-0.078,0.068s-0.068,0.025-0.111,0.025
			c-0.02,0-0.039-0.002-0.061-0.004c-0.02-0.002-0.039-0.008-0.057-0.016s-0.035-0.016-0.049-0.029
			c-0.016-0.012-0.027-0.027-0.037-0.047h-0.002v0.08h-0.123V28.254z M37.957,28.77c0-0.027-0.004-0.053-0.01-0.078
			c-0.008-0.023-0.018-0.047-0.031-0.064c-0.014-0.02-0.031-0.035-0.051-0.047s-0.043-0.018-0.07-0.018
			c-0.055,0-0.096,0.018-0.123,0.057c-0.027,0.037-0.041,0.088-0.041,0.15c0,0.029,0.004,0.057,0.012,0.082
			c0.006,0.025,0.018,0.047,0.031,0.064c0.016,0.018,0.031,0.033,0.053,0.043c0.02,0.01,0.043,0.016,0.068,0.016
			c0.029,0,0.055-0.006,0.074-0.018c0.021-0.012,0.037-0.027,0.051-0.047s0.023-0.041,0.029-0.066
			C37.953,28.82,37.957,28.795,37.957,28.77z"/>
		<path fill="#E30613" d="M38.707,29.061H38.58v-0.082h-0.002c-0.016,0.031-0.039,0.055-0.07,0.072s-0.062,0.025-0.096,0.025
			c-0.076,0-0.133-0.02-0.166-0.057c-0.035-0.039-0.053-0.096-0.053-0.172v-0.371h0.129v0.357c0,0.053,0.01,0.088,0.031,0.109
			c0.018,0.021,0.047,0.031,0.082,0.031c0.027,0,0.049-0.004,0.068-0.012c0.018-0.008,0.031-0.02,0.043-0.033
			c0.012-0.016,0.02-0.031,0.025-0.051c0.004-0.02,0.006-0.041,0.006-0.064v-0.338h0.129V29.061z"/>
		<path fill="#E30613" d="M38.939,28.873c0.004,0.037,0.02,0.064,0.045,0.08c0.023,0.014,0.055,0.021,0.088,0.021
			c0.012,0,0.027,0,0.041-0.002c0.016-0.002,0.031-0.006,0.045-0.012s0.023-0.014,0.033-0.023c0.008-0.01,0.012-0.023,0.012-0.039
			c0-0.018-0.008-0.031-0.018-0.041c-0.012-0.012-0.027-0.02-0.045-0.025s-0.037-0.012-0.061-0.018
			c-0.021-0.004-0.045-0.008-0.068-0.014s-0.047-0.012-0.07-0.02c-0.021-0.008-0.041-0.018-0.059-0.031
			c-0.018-0.012-0.033-0.027-0.043-0.049c-0.01-0.02-0.016-0.045-0.016-0.074c0-0.031,0.008-0.057,0.023-0.078
			s0.035-0.039,0.059-0.053s0.051-0.023,0.078-0.027c0.029-0.006,0.057-0.008,0.084-0.008c0.029,0,0.059,0.002,0.086,0.01
			c0.027,0.006,0.053,0.016,0.074,0.029c0.023,0.016,0.041,0.033,0.057,0.057c0.014,0.023,0.023,0.051,0.027,0.084h-0.135
			c-0.006-0.031-0.02-0.053-0.043-0.062c-0.021-0.01-0.047-0.016-0.076-0.016c-0.008,0-0.02,0-0.031,0.002
			c-0.014,0.002-0.025,0.004-0.035,0.008c-0.012,0.004-0.02,0.012-0.027,0.02s-0.012,0.018-0.012,0.031
			c0,0.016,0.006,0.027,0.016,0.037c0.012,0.01,0.025,0.018,0.043,0.025c0.018,0.006,0.039,0.012,0.061,0.016
			c0.023,0.004,0.047,0.01,0.07,0.014c0.023,0.006,0.047,0.014,0.07,0.02c0.021,0.008,0.043,0.018,0.061,0.031
			s0.031,0.029,0.043,0.049s0.016,0.043,0.016,0.072c0,0.035-0.008,0.064-0.023,0.088c-0.016,0.025-0.035,0.043-0.061,0.059
			s-0.055,0.025-0.086,0.033c-0.031,0.006-0.061,0.01-0.092,0.01c-0.037,0-0.07-0.004-0.102-0.012s-0.059-0.021-0.082-0.039
			c-0.023-0.016-0.041-0.037-0.055-0.062s-0.02-0.055-0.02-0.09H38.939z"/>
		<path fill="#E30613" d="M39.527,28.873c0.004,0.037,0.018,0.064,0.043,0.08c0.025,0.014,0.055,0.021,0.09,0.021
			c0.012,0,0.025,0,0.041-0.002s0.029-0.006,0.043-0.012s0.025-0.014,0.033-0.023c0.01-0.01,0.014-0.023,0.012-0.039
			c0-0.018-0.006-0.031-0.018-0.041c-0.012-0.012-0.025-0.02-0.043-0.025s-0.039-0.012-0.061-0.018
			c-0.023-0.004-0.047-0.008-0.07-0.014s-0.047-0.012-0.068-0.02c-0.023-0.008-0.043-0.018-0.061-0.031
			c-0.018-0.012-0.031-0.027-0.043-0.049c-0.01-0.02-0.016-0.045-0.016-0.074c0-0.031,0.008-0.057,0.023-0.078
			s0.035-0.039,0.059-0.053s0.051-0.023,0.08-0.027c0.029-0.006,0.057-0.008,0.082-0.008c0.031,0,0.061,0.002,0.088,0.01
			c0.027,0.006,0.051,0.016,0.074,0.029c0.021,0.016,0.041,0.033,0.055,0.057c0.016,0.023,0.023,0.051,0.027,0.084h-0.133
			c-0.006-0.031-0.021-0.053-0.043-0.062c-0.023-0.01-0.049-0.016-0.076-0.016c-0.01,0-0.02,0-0.033,0.002
			c-0.012,0.002-0.023,0.004-0.035,0.008c-0.01,0.004-0.02,0.012-0.027,0.02s-0.012,0.018-0.012,0.031
			c0,0.016,0.006,0.027,0.018,0.037c0.01,0.01,0.025,0.018,0.043,0.025c0.018,0.006,0.037,0.012,0.061,0.016
			c0.021,0.004,0.047,0.01,0.07,0.014c0.023,0.006,0.047,0.014,0.068,0.02c0.023,0.008,0.043,0.018,0.061,0.031
			s0.033,0.029,0.043,0.049c0.012,0.02,0.018,0.043,0.018,0.072c0,0.035-0.008,0.064-0.023,0.088
			c-0.016,0.025-0.037,0.043-0.062,0.059s-0.053,0.025-0.084,0.033c-0.031,0.006-0.062,0.01-0.092,0.01
			c-0.037,0-0.072-0.004-0.104-0.012s-0.059-0.021-0.08-0.039c-0.023-0.016-0.043-0.037-0.055-0.062
			c-0.014-0.025-0.021-0.055-0.021-0.09H39.527z"/>
		<path fill="#E30613" d="M40.02,28.254h0.129v0.121H40.02V28.254z M40.02,28.477h0.129v0.584H40.02V28.477z"/>
		<path fill="#E30613" d="M40.289,28.477h0.123v0.086l0.002,0.002c0.02-0.033,0.045-0.059,0.076-0.076
			c0.031-0.02,0.066-0.027,0.105-0.027c0.064,0,0.115,0.016,0.152,0.049s0.055,0.084,0.055,0.15v0.4h-0.129v-0.367
			c-0.002-0.047-0.012-0.08-0.029-0.1c-0.018-0.021-0.047-0.031-0.084-0.031c-0.023,0-0.043,0.004-0.061,0.012
			c-0.016,0.008-0.031,0.02-0.043,0.033s-0.021,0.029-0.029,0.049c-0.006,0.018-0.01,0.039-0.01,0.059v0.346h-0.129V28.477z"/>
		<path fill="#E30613" d="M41.039,28.801c0,0.023,0.004,0.045,0.01,0.066s0.016,0.039,0.029,0.055
			c0.012,0.018,0.029,0.029,0.049,0.039s0.043,0.014,0.07,0.014c0.037,0,0.066-0.008,0.09-0.023
			c0.023-0.018,0.041-0.041,0.051-0.074h0.123c-0.008,0.033-0.02,0.061-0.035,0.086s-0.037,0.045-0.061,0.062
			s-0.049,0.029-0.078,0.039c-0.029,0.008-0.059,0.012-0.09,0.012c-0.047,0-0.088-0.008-0.123-0.021
			c-0.035-0.016-0.066-0.037-0.09-0.064c-0.025-0.027-0.043-0.059-0.055-0.098c-0.014-0.037-0.02-0.078-0.02-0.123
			c0-0.041,0.006-0.082,0.02-0.119s0.033-0.07,0.057-0.098c0.025-0.029,0.055-0.051,0.088-0.068
			c0.035-0.016,0.074-0.023,0.119-0.023s0.086,0.01,0.123,0.027c0.037,0.02,0.066,0.045,0.092,0.076
			c0.023,0.033,0.041,0.068,0.053,0.109c0.01,0.041,0.014,0.084,0.008,0.127H41.039z M41.34,28.717
			c-0.002-0.02-0.006-0.039-0.014-0.059c-0.006-0.02-0.016-0.035-0.029-0.049c-0.012-0.014-0.027-0.025-0.045-0.035
			c-0.018-0.008-0.037-0.012-0.059-0.012c-0.023,0-0.043,0.004-0.062,0.012c-0.018,0.008-0.033,0.02-0.047,0.033
			s-0.023,0.029-0.031,0.049c-0.008,0.018-0.014,0.039-0.014,0.061H41.34z"/>
		<path fill="#E30613" d="M41.664,28.873c0.004,0.037,0.018,0.064,0.043,0.08c0.025,0.014,0.055,0.021,0.09,0.021
			c0.012,0,0.025,0,0.041-0.002s0.029-0.006,0.043-0.012s0.025-0.014,0.033-0.023c0.01-0.01,0.014-0.023,0.012-0.039
			c0-0.018-0.006-0.031-0.018-0.041c-0.012-0.012-0.025-0.02-0.043-0.025s-0.037-0.012-0.061-0.018
			c-0.023-0.004-0.045-0.008-0.068-0.014c-0.025-0.006-0.049-0.012-0.07-0.02s-0.043-0.018-0.061-0.031
			c-0.018-0.012-0.031-0.027-0.041-0.049c-0.012-0.02-0.016-0.045-0.016-0.074c0-0.031,0.008-0.057,0.021-0.078
			c0.016-0.021,0.035-0.039,0.061-0.053c0.023-0.014,0.049-0.023,0.078-0.027c0.029-0.006,0.057-0.008,0.084-0.008
			c0.029,0,0.059,0.002,0.086,0.01c0.027,0.006,0.053,0.016,0.074,0.029c0.021,0.016,0.041,0.033,0.055,0.057
			c0.016,0.023,0.025,0.051,0.029,0.084h-0.135c-0.006-0.031-0.021-0.053-0.043-0.062s-0.047-0.016-0.076-0.016
			c-0.01,0-0.02,0-0.033,0.002c-0.012,0.002-0.023,0.004-0.035,0.008c-0.01,0.004-0.02,0.012-0.027,0.02s-0.01,0.018-0.01,0.031
			c0,0.016,0.004,0.027,0.016,0.037s0.025,0.018,0.043,0.025c0.018,0.006,0.037,0.012,0.061,0.016s0.047,0.01,0.07,0.014
			c0.023,0.006,0.047,0.014,0.068,0.02c0.023,0.008,0.043,0.018,0.062,0.031c0.018,0.014,0.031,0.029,0.043,0.049
			c0.01,0.02,0.016,0.043,0.016,0.072c0,0.035-0.008,0.064-0.023,0.088c-0.016,0.025-0.037,0.043-0.062,0.059
			s-0.053,0.025-0.084,0.033c-0.031,0.006-0.062,0.01-0.092,0.01c-0.037,0-0.07-0.004-0.102-0.012
			c-0.033-0.008-0.059-0.021-0.082-0.039c-0.023-0.016-0.041-0.037-0.055-0.062s-0.02-0.055-0.021-0.09H41.664z"/>
	</g>
</g>
</svg>
