<?xml version="1.0" encoding="utf-8"?>
<!-- Generator: Adobe Illustrator 16.0.0, SVG Export Plug-In . SVG Version: 6.00 Build 0)  -->
<!DOCTYPE svg PUBLIC "-//W3C//DTD SVG 1.1//EN" "http://www.w3.org/Graphics/SVG/1.1/DTD/svg11.dtd">
<svg version="1.1" id="Layer_1" xmlns="http://www.w3.org/2000/svg" xmlns:xlink="http://www.w3.org/1999/xlink" x="0px" y="0px"
	 width="50px" height="50px" viewBox="0 0 50 50" enable-background="new 0 0 50 50" xml:space="preserve">
<rect fill="none" width="50" height="50"/>
<g>
	<g>
		<path fill="#005BA0" d="M15.204,16.546c0.122,0.005,0.228,0.027,0.315,0.064s0.156,0.088,0.203,0.149
			c0.047,0.062,0.073,0.135,0.074,0.215c0,0.081-0.024,0.168-0.077,0.26c-0.053,0.092-0.13,0.179-0.223,0.257
			c-0.094,0.078-0.204,0.147-0.323,0.205c-0.12,0.057-0.249,0.102-0.379,0.129c-0.131,0.028-0.262,0.041-0.388,0.033
			c-0.125-0.008-0.232-0.034-0.318-0.075s-0.151-0.096-0.193-0.161c-0.042-0.065-0.062-0.14-0.056-0.221
			c0.006-0.081,0.036-0.168,0.093-0.257c0.057-0.089,0.135-0.171,0.227-0.246c0.092-0.074,0.199-0.139,0.313-0.193
			c0.114-0.053,0.237-0.096,0.36-0.123C14.957,16.554,15.083,16.542,15.204,16.546z"/>
		<path fill="#0068AC" d="M17.951,16.659c0.132,0.005,0.249,0.029,0.347,0.067c0.099,0.038,0.179,0.091,0.237,0.156
			c0.059,0.065,0.095,0.141,0.104,0.225c0.01,0.084-0.006,0.176-0.052,0.272c-0.047,0.096-0.12,0.187-0.211,0.269
			c-0.092,0.082-0.203,0.154-0.325,0.214s-0.256,0.106-0.394,0.135c-0.137,0.029-0.278,0.042-0.415,0.033
			c-0.135-0.009-0.254-0.037-0.352-0.08c-0.097-0.043-0.174-0.101-0.227-0.169c-0.053-0.068-0.083-0.147-0.086-0.232
			c-0.003-0.084,0.019-0.176,0.07-0.269c0.051-0.093,0.125-0.18,0.217-0.257c0.091-0.078,0.198-0.145,0.315-0.201
			c0.117-0.056,0.244-0.099,0.374-0.128C17.686,16.667,17.82,16.653,17.951,16.659z"/>
		<path fill="#0070B3" d="M20.924,16.781c0.143,0.005,0.271,0.03,0.382,0.07c0.111,0.041,0.204,0.097,0.275,0.164
			c0.071,0.068,0.12,0.148,0.141,0.236c0.022,0.088,0.016,0.185-0.023,0.285c-0.039,0.101-0.106,0.196-0.195,0.282
			c-0.089,0.086-0.201,0.162-0.326,0.224c-0.126,0.062-0.265,0.111-0.41,0.141c-0.145,0.03-0.295,0.043-0.444,0.034
			c-0.148-0.009-0.279-0.038-0.39-0.084c-0.11-0.045-0.2-0.106-0.266-0.178c-0.065-0.072-0.106-0.154-0.12-0.244
			c-0.014-0.089,0-0.184,0.044-0.282c0.044-0.098,0.114-0.188,0.203-0.269c0.089-0.081,0.196-0.152,0.316-0.21
			c0.12-0.059,0.251-0.104,0.389-0.133C20.638,16.789,20.781,16.775,20.924,16.781z"/>
		<path fill="#007DC0" d="M24.165,16.914c0.157,0.006,0.299,0.033,0.425,0.075s0.234,0.101,0.319,0.172
			c0.086,0.071,0.149,0.155,0.184,0.248s0.041,0.194,0.012,0.3c-0.028,0.106-0.09,0.206-0.176,0.296
			c-0.087,0.09-0.197,0.17-0.325,0.235c-0.129,0.065-0.274,0.116-0.428,0.147c-0.154,0.032-0.315,0.044-0.478,0.035
			s-0.31-0.042-0.436-0.089c-0.125-0.048-0.23-0.112-0.311-0.188c-0.079-0.076-0.135-0.163-0.16-0.256
			c-0.026-0.093-0.023-0.193,0.013-0.296c0.035-0.103,0.1-0.197,0.187-0.282c0.086-0.084,0.193-0.159,0.315-0.22
			s0.26-0.108,0.404-0.139C23.857,16.921,24.011,16.907,24.165,16.914z"/>
		<path fill="#0076B8" d="M19.996,19.003c0.151,0.011,0.288,0.043,0.403,0.094c0.117,0.05,0.214,0.118,0.287,0.199
			s0.122,0.176,0.141,0.278c0.02,0.104,0.01,0.216-0.035,0.333c-0.044,0.117-0.12,0.227-0.218,0.324
			c-0.098,0.098-0.219,0.184-0.355,0.252s-0.286,0.122-0.441,0.153c-0.156,0.031-0.316,0.041-0.474,0.026
			c-0.157-0.015-0.295-0.054-0.412-0.11c-0.115-0.056-0.208-0.13-0.274-0.216c-0.066-0.085-0.107-0.183-0.118-0.288
			c-0.011-0.104,0.008-0.214,0.059-0.327c0.05-0.112,0.128-0.216,0.226-0.307c0.097-0.091,0.214-0.17,0.343-0.235
			s0.271-0.114,0.417-0.144C19.693,19.004,19.845,18.993,19.996,19.003z"/>
		<path fill="#0085CA" d="M27.699,17.058c0.17,0.007,0.328,0.035,0.471,0.08c0.143,0.045,0.268,0.107,0.371,0.182
			c0.104,0.076,0.184,0.164,0.232,0.262c0.051,0.098,0.07,0.205,0.055,0.316c-0.018,0.112-0.072,0.217-0.154,0.312
			c-0.08,0.095-0.191,0.18-0.322,0.248c-0.131,0.069-0.283,0.122-0.447,0.155c-0.162,0.033-0.338,0.046-0.516,0.036
			s-0.342-0.044-0.486-0.096c-0.143-0.051-0.264-0.119-0.361-0.199c-0.098-0.08-0.168-0.171-0.209-0.271
			c-0.04-0.099-0.05-0.204-0.024-0.312c0.025-0.107,0.081-0.208,0.165-0.296c0.082-0.089,0.189-0.167,0.314-0.23
			c0.125-0.063,0.27-0.113,0.422-0.146C27.363,17.066,27.529,17.051,27.699,17.058z"/>
		<path fill="#0082C5" d="M18.879,21.68c0.161,0.018,0.305,0.061,0.427,0.124c0.123,0.063,0.224,0.146,0.298,0.245
			c0.075,0.099,0.124,0.212,0.14,0.335c0.017,0.124,0.002,0.258-0.05,0.394c-0.053,0.138-0.138,0.266-0.247,0.378
			c-0.109,0.113-0.243,0.211-0.392,0.289c-0.149,0.078-0.312,0.135-0.48,0.167c-0.168,0.032-0.341,0.038-0.508,0.015
			c-0.168-0.023-0.315-0.074-0.437-0.145c-0.121-0.071-0.217-0.162-0.284-0.267c-0.066-0.104-0.104-0.222-0.111-0.346
			c-0.007-0.124,0.018-0.255,0.078-0.387c0.059-0.131,0.147-0.251,0.256-0.357c0.108-0.105,0.236-0.195,0.377-0.267
			c0.141-0.071,0.293-0.125,0.452-0.156C18.555,21.671,18.719,21.662,18.879,21.68z"/>
		<path fill="#007DC4" d="M9.003,26.738c0.148,0.031,0.271,0.092,0.365,0.178C9.465,27,9.533,27.109,9.571,27.234
			c0.038,0.127,0.045,0.27,0.02,0.424c-0.026,0.154-0.086,0.318-0.183,0.486c-0.097,0.168-0.222,0.32-0.365,0.455
			c-0.144,0.135-0.305,0.25-0.473,0.34c-0.169,0.086-0.344,0.148-0.517,0.18c-0.171,0.029-0.339,0.027-0.492-0.01
			c-0.152-0.039-0.274-0.111-0.366-0.207c-0.091-0.094-0.151-0.213-0.179-0.348c-0.028-0.131-0.024-0.281,0.013-0.436
			s0.105-0.314,0.207-0.475c0.102-0.158,0.227-0.303,0.366-0.428c0.139-0.123,0.292-0.229,0.451-0.309
			c0.159-0.082,0.322-0.139,0.483-0.168C8.697,26.709,8.856,26.707,9.003,26.738z"/>
		<path fill="#008BCD" d="M17.626,24.682c0.172,0.027,0.324,0.083,0.452,0.162c0.129,0.079,0.233,0.182,0.31,0.302
			c0.077,0.12,0.124,0.258,0.137,0.405c0.013,0.148-0.009,0.307-0.071,0.471c-0.062,0.162-0.159,0.311-0.282,0.443
			c-0.123,0.131-0.271,0.244-0.433,0.334c-0.164,0.088-0.342,0.15-0.524,0.182c-0.182,0.033-0.369,0.035-0.548,0.002
			c-0.179-0.035-0.334-0.102-0.461-0.191c-0.126-0.088-0.225-0.201-0.292-0.328s-0.102-0.27-0.103-0.42
			c-0.001-0.148,0.032-0.303,0.103-0.457c0.069-0.155,0.169-0.296,0.291-0.417c0.12-0.122,0.262-0.225,0.416-0.305
			c0.153-0.081,0.32-0.139,0.49-0.171C17.28,24.661,17.455,24.656,17.626,24.682z"/>
		<path fill="#0088CF" d="M12.383,27.443c0.165,0.035,0.305,0.102,0.417,0.193c0.114,0.092,0.2,0.211,0.255,0.346
			c0.056,0.137,0.08,0.293,0.068,0.457c-0.011,0.168-0.059,0.346-0.146,0.525c-0.088,0.182-0.207,0.348-0.349,0.492
			s-0.306,0.268-0.48,0.361c-0.175,0.096-0.36,0.16-0.544,0.191c-0.185,0.031-0.368,0.027-0.539-0.016
			c-0.17-0.043-0.312-0.121-0.422-0.225c-0.109-0.104-0.188-0.232-0.233-0.379c-0.044-0.143-0.056-0.303-0.032-0.471
			c0.023-0.166,0.081-0.34,0.175-0.512c0.094-0.172,0.215-0.326,0.354-0.457c0.138-0.133,0.294-0.244,0.458-0.332
			c0.164-0.086,0.337-0.146,0.509-0.176C12.047,27.412,12.22,27.41,12.383,27.443z"/>
		<path fill="#0094D9" d="M16.152,28.232c0.184,0.037,0.345,0.111,0.479,0.211c0.135,0.102,0.244,0.229,0.32,0.377
			c0.077,0.148,0.122,0.318,0.128,0.498c0.007,0.18-0.023,0.373-0.098,0.568c-0.075,0.195-0.187,0.375-0.325,0.531
			c-0.139,0.156-0.305,0.289-0.485,0.389c-0.181,0.102-0.377,0.172-0.576,0.205c-0.199,0.031-0.4,0.027-0.593-0.021
			c-0.192-0.049-0.356-0.135-0.489-0.25c-0.132-0.113-0.232-0.256-0.297-0.414c-0.065-0.156-0.095-0.33-0.088-0.512
			s0.051-0.369,0.135-0.555c0.083-0.184,0.198-0.35,0.334-0.492c0.136-0.143,0.293-0.262,0.463-0.354s0.351-0.156,0.536-0.189
			C15.78,28.193,15.969,28.193,16.152,28.232z"/>
		<path fill="#00A0E3" d="M20.379,29.115c0.207,0.043,0.394,0.123,0.554,0.234c0.161,0.109,0.296,0.25,0.399,0.412
			c0.104,0.162,0.174,0.348,0.204,0.543c0.031,0.197,0.021,0.408-0.037,0.621s-0.16,0.408-0.293,0.578
			c-0.134,0.17-0.301,0.312-0.488,0.422c-0.188,0.109-0.396,0.184-0.612,0.219c-0.215,0.033-0.438,0.025-0.657-0.031
			c-0.217-0.055-0.409-0.15-0.569-0.277c-0.159-0.125-0.286-0.281-0.377-0.455c-0.09-0.172-0.145-0.361-0.159-0.561
			c-0.014-0.197,0.012-0.4,0.082-0.602c0.069-0.201,0.176-0.381,0.309-0.535c0.132-0.152,0.291-0.281,0.466-0.381
			c0.175-0.098,0.367-0.166,0.566-0.199C19.966,29.07,20.174,29.072,20.379,29.115z"/>
		<path fill="#00ADEE" d="M25.157,30.113c0.234,0.049,0.451,0.139,0.643,0.26c0.194,0.123,0.362,0.277,0.497,0.455
			c0.137,0.18,0.238,0.383,0.299,0.598c0.061,0.217,0.078,0.449,0.043,0.682c-0.037,0.234-0.123,0.449-0.25,0.633
			c-0.125,0.188-0.292,0.342-0.485,0.461c-0.194,0.119-0.416,0.199-0.651,0.234s-0.484,0.023-0.734-0.039
			c-0.249-0.062-0.475-0.172-0.669-0.314c-0.192-0.139-0.354-0.311-0.478-0.504c-0.122-0.189-0.207-0.398-0.248-0.617
			c-0.04-0.215-0.037-0.439,0.014-0.658c0.052-0.219,0.146-0.416,0.273-0.582c0.126-0.168,0.286-0.307,0.467-0.412
			s0.384-0.18,0.6-0.213C24.692,30.061,24.923,30.064,25.157,30.113z"/>
	</g>
	<g>
		<path fill="#005BA0" d="M23.696,25.256v-1.824c0-0.061,0.021-0.112,0.063-0.155s0.095-0.064,0.155-0.064
			c0.06,0,0.111,0.021,0.153,0.064c0.041,0.043,0.062,0.095,0.062,0.155v1.824c0,0.061-0.021,0.112-0.062,0.155
			c-0.042,0.043-0.094,0.063-0.153,0.063c-0.061,0-0.112-0.021-0.155-0.063S23.696,25.317,23.696,25.256z"/>
		<path fill="#0068AC" d="M24.557,25.263v-1.828c0-0.044,0.012-0.083,0.036-0.118c0.023-0.034,0.055-0.06,0.095-0.076
			c0.027-0.013,0.057-0.019,0.088-0.019c0.058,0,0.106,0.021,0.144,0.062l1.442,1.442v-1.292c0-0.061,0.021-0.111,0.062-0.152
			s0.092-0.061,0.15-0.061c0.061,0,0.111,0.021,0.152,0.061c0.039,0.041,0.061,0.091,0.061,0.152v1.805
			c0,0.042-0.012,0.081-0.035,0.118c-0.023,0.036-0.055,0.062-0.096,0.079c-0.027,0.011-0.055,0.016-0.078,0.016
			c-0.057,0-0.107-0.021-0.154-0.062l-1.441-1.443v1.314c0,0.06-0.021,0.11-0.062,0.151s-0.092,0.061-0.151,0.061
			s-0.108-0.02-0.15-0.061S24.557,25.323,24.557,25.263z"/>
		<path fill="#0070B3" d="M27.594,23.444v1.311l1.443-1.439c0.041-0.042,0.092-0.062,0.15-0.062c0.027,0,0.053,0.004,0.08,0.014
			c0.025,0.009,0.049,0.025,0.07,0.048c0.023,0.021,0.039,0.045,0.049,0.07c0.008,0.026,0.014,0.053,0.014,0.08
			c0,0.059-0.021,0.108-0.062,0.15l-1.807,1.807c-0.041,0.041-0.092,0.061-0.15,0.061c-0.027,0-0.053-0.005-0.08-0.014
			c-0.041-0.018-0.072-0.044-0.096-0.081c-0.025-0.036-0.037-0.075-0.037-0.117v-1.828c0-0.06,0.021-0.111,0.062-0.152
			c0.043-0.041,0.092-0.061,0.15-0.061c0.061,0,0.111,0.02,0.152,0.061S27.594,23.384,27.594,23.444z"/>
		<path fill="#0076B8" d="M29.988,24.799c0,0.046,0.014,0.091,0.041,0.135c0.02,0.033,0.049,0.059,0.086,0.076
			c0.035,0.018,0.074,0.027,0.111,0.027h1.072c0.061,0,0.113,0.021,0.154,0.064c0.043,0.042,0.064,0.094,0.064,0.155
			s-0.021,0.112-0.064,0.155c-0.041,0.043-0.094,0.063-0.154,0.063h-1.072c-0.072,0-0.139-0.009-0.201-0.03
			s-0.121-0.049-0.176-0.085c-0.109-0.073-0.191-0.172-0.244-0.297c-0.035-0.084-0.053-0.171-0.053-0.263v-0.914
			c0-0.092,0.018-0.18,0.053-0.263c0.053-0.125,0.135-0.224,0.244-0.297c0.055-0.036,0.113-0.064,0.176-0.084
			c0.062-0.021,0.129-0.032,0.201-0.032h1.072c0.061,0,0.113,0.021,0.154,0.064c0.043,0.043,0.064,0.095,0.064,0.155
			s-0.021,0.112-0.064,0.155c-0.041,0.043-0.094,0.064-0.154,0.064h-1.072c-0.037,0-0.076,0.009-0.111,0.026
			c-0.037,0.018-0.066,0.043-0.086,0.077c-0.027,0.044-0.041,0.089-0.041,0.135v0.241h1.299c0.061,0,0.111,0.021,0.154,0.062
			c0.043,0.042,0.064,0.093,0.064,0.154c0,0.06-0.021,0.112-0.064,0.154c-0.043,0.043-0.094,0.064-0.154,0.064h-1.299V24.799z"/>
		<path fill="#0082C5" d="M31.887,25.263v-1.828c0-0.044,0.012-0.083,0.037-0.118c0.023-0.034,0.055-0.06,0.096-0.076
			c0.027-0.013,0.057-0.019,0.088-0.019c0.059,0,0.105,0.021,0.143,0.062l1.443,1.442v-1.292c0-0.061,0.02-0.111,0.062-0.152
			c0.041-0.041,0.092-0.061,0.15-0.061c0.061,0,0.111,0.021,0.152,0.061c0.039,0.041,0.061,0.091,0.061,0.152v1.805
			c0,0.042-0.012,0.081-0.035,0.118c-0.023,0.036-0.055,0.062-0.098,0.079c-0.025,0.011-0.053,0.016-0.076,0.016
			c-0.059,0-0.109-0.021-0.154-0.062l-1.443-1.443v1.314c0,0.06-0.02,0.11-0.061,0.151s-0.092,0.061-0.152,0.061
			c-0.059,0-0.107-0.02-0.148-0.061C31.908,25.373,31.887,25.323,31.887,25.263z"/>
		<path fill="#008BCD" d="M36.621,23.277c0.043,0.043,0.064,0.095,0.064,0.155c0,0.06-0.021,0.112-0.064,0.154
			c-0.043,0.043-0.096,0.064-0.156,0.064h-0.697v1.608c0,0.061-0.021,0.112-0.062,0.154s-0.092,0.062-0.154,0.062
			c-0.059,0-0.111-0.02-0.154-0.062s-0.064-0.093-0.064-0.154v-1.608h-0.697c-0.061,0-0.111-0.021-0.152-0.064
			c-0.043-0.042-0.064-0.094-0.064-0.154c0-0.061,0.021-0.112,0.064-0.155c0.041-0.043,0.092-0.064,0.152-0.064h1.83
			C36.525,23.213,36.578,23.234,36.621,23.277z"/>
		<path fill="#0094D9" d="M36.945,25.256v-1.824c0-0.061,0.02-0.112,0.062-0.155s0.096-0.064,0.156-0.064s0.111,0.021,0.152,0.064
			s0.062,0.095,0.062,0.155v1.824c0,0.061-0.021,0.112-0.062,0.155s-0.092,0.063-0.152,0.063s-0.113-0.021-0.156-0.063
			S36.945,25.317,36.945,25.256z"/>
		<path fill="#00A0E3" d="M38.916,25.475c-0.119,0-0.232-0.017-0.338-0.051c-0.107-0.035-0.205-0.082-0.295-0.143
			c-0.092-0.061-0.172-0.133-0.242-0.218c-0.07-0.084-0.125-0.178-0.168-0.28c-0.029-0.068-0.051-0.139-0.066-0.212
			c-0.016-0.073-0.023-0.149-0.023-0.228c0-0.12,0.018-0.232,0.051-0.338c0.035-0.106,0.082-0.205,0.143-0.294
			c0.061-0.092,0.133-0.173,0.219-0.243c0.084-0.07,0.178-0.125,0.279-0.167c0.139-0.06,0.287-0.091,0.441-0.091h0.436
			c0.119,0,0.23,0.017,0.336,0.052s0.203,0.082,0.295,0.143c0.092,0.06,0.174,0.133,0.242,0.217c0.07,0.084,0.127,0.178,0.168,0.28
			c0.029,0.066,0.051,0.137,0.068,0.211c0.014,0.074,0.023,0.15,0.023,0.23c0,0.119-0.018,0.231-0.053,0.336
			c-0.035,0.105-0.082,0.204-0.143,0.295s-0.133,0.172-0.217,0.242c-0.084,0.07-0.178,0.125-0.281,0.168
			c-0.068,0.029-0.139,0.05-0.213,0.067c-0.072,0.016-0.148,0.022-0.227,0.022H38.916z M39.352,25.037
			c0.072,0,0.141-0.01,0.205-0.031s0.125-0.05,0.182-0.087c0.055-0.038,0.104-0.083,0.146-0.135c0.045-0.052,0.08-0.109,0.107-0.172
			c0.035-0.083,0.053-0.173,0.053-0.269c0-0.074-0.01-0.143-0.031-0.208c-0.02-0.065-0.049-0.126-0.088-0.18
			c-0.076-0.114-0.178-0.199-0.307-0.253c-0.082-0.036-0.172-0.053-0.268-0.053h-0.436c-0.074,0-0.143,0.01-0.209,0.031
			c-0.064,0.021-0.125,0.05-0.18,0.087c-0.115,0.075-0.199,0.177-0.254,0.303c-0.035,0.088-0.053,0.179-0.053,0.273
			c0,0.073,0.01,0.142,0.031,0.206c0.021,0.065,0.051,0.125,0.088,0.182c0.037,0.054,0.082,0.103,0.135,0.147
			s0.109,0.08,0.172,0.106c0.084,0.036,0.174,0.053,0.27,0.053H39.352z"/>
		<path fill="#00ADEE" d="M40.771,25.263v-1.828c0-0.044,0.012-0.083,0.037-0.118c0.023-0.034,0.055-0.06,0.094-0.076
			c0.027-0.013,0.057-0.019,0.088-0.019c0.059,0,0.107,0.021,0.145,0.062l1.441,1.442v-1.292c0-0.061,0.021-0.111,0.062-0.152
			c0.043-0.041,0.092-0.061,0.15-0.061c0.061,0,0.111,0.021,0.152,0.061s0.061,0.091,0.061,0.152v1.805
			c0,0.042-0.012,0.081-0.033,0.118c-0.023,0.036-0.057,0.062-0.098,0.079c-0.027,0.011-0.053,0.016-0.078,0.016
			c-0.057,0-0.107-0.021-0.154-0.062l-1.441-1.443v1.314c0,0.06-0.021,0.11-0.062,0.151c-0.039,0.041-0.09,0.061-0.15,0.061
			c-0.059,0-0.109-0.02-0.15-0.061S40.771,25.323,40.771,25.263z"/>
	</g>
</g>
</svg>
