<?xml version="1.0" encoding="utf-8"?>
<!-- Generator: Adobe Illustrator 22.0.0, SVG Export Plug-In . SVG Version: 6.00 Build 0)  -->
<svg version="1.1" id="Layer_1" xmlns="http://www.w3.org/2000/svg" xmlns:xlink="http://www.w3.org/1999/xlink" x="0px" y="0px"
	 viewBox="0 0 50 50" style="enable-background:new 0 0 50 50;" xml:space="preserve">
<style type="text/css">
	.st0{fill:none;}
	.st1{fill:#FFED00;}
	.st2{fill:#220000;}
</style>
<rect class="st0" width="50" height="50"/>
<path class="st1" d="M33.051,19.849c-2.273-2.274-5.299-3.527-8.515-3.527c-3.217,0-6.241,1.253-8.516,3.527
	c-2.274,2.275-3.527,5.299-3.527,8.516s1.252,6.24,3.527,8.516c2.275,2.273,5.299,3.525,8.516,3.525
	c3.216,0,6.241-1.252,8.515-3.525c2.273-2.275,3.527-5.299,3.527-8.516S35.324,22.124,33.051,19.849z M24.536,38.998
	c-5.863,0-10.633-4.77-10.633-10.633c0-5.806,4.677-10.54,10.462-10.631c0.011,0,0.023,0,0.034,0c0.045,0,0.09-0.001,0.137-0.001
	c5.862,0,10.632,4.77,10.632,10.633S30.398,38.998,24.536,38.998z"/>
<g>
	<path class="st1" d="M27.795,24.444c0.152-0.062,0.287-0.152,0.396-0.262c0.107-0.11,0.191-0.237,0.244-0.378
		c0.051-0.139,0.074-0.29,0.061-0.445c-0.016-0.153-0.061-0.297-0.135-0.427c-0.07-0.127-0.168-0.24-0.283-0.335
		c-0.113-0.093-0.246-0.168-0.391-0.22c-0.145-0.051-0.299-0.08-0.461-0.08h-2.29l-0.047,0.54l-0.152,1.706h2.551
		C27.471,24.542,27.641,24.508,27.795,24.444z"/>
	<path class="st1" d="M28.688,26.805c-0.088-0.18-0.207-0.342-0.346-0.475c-0.135-0.133-0.293-0.237-0.467-0.31
		c-0.17-0.073-0.355-0.112-0.545-0.112h-2.713l-0.285,3.221h3.088c0.219,0,0.426-0.053,0.609-0.145
		c0.186-0.092,0.344-0.223,0.475-0.383c0.041-0.049,0.076-0.102,0.111-0.154c0.076-0.121,0.135-0.254,0.178-0.395
		c0.059-0.199,0.082-0.416,0.062-0.641C28.836,27.193,28.777,26.988,28.688,26.805z"/>
	<path class="st1" d="M31.779,27.832c-0.025-0.178-0.061-0.354-0.105-0.527c-0.043-0.172-0.096-0.344-0.154-0.512
		c-0.113-0.32-0.26-0.629-0.43-0.918c-0.096-0.164-0.201-0.322-0.314-0.475c0.057-0.121,0.107-0.244,0.15-0.37
		c0.1-0.285,0.162-0.582,0.189-0.883c0.029-0.298,0.02-0.603-0.027-0.905V23.24c-0.078-0.531-0.268-1.036-0.559-1.498
		c-0.264-0.419-0.602-0.787-1.006-1.095c-0.383-0.294-0.812-0.522-1.275-0.679c-0.469-0.158-0.961-0.24-1.459-0.24h-4.418
		l-0.994,0.995l-1.561,1.561l-0.328,0.328l-0.069,0.459l-1.675,11.137L17.5,35.829h10.042l0.424-0.539l1.227-1.562l0.164-0.207
		l0.768-0.977l0.547-0.695h0.002l0.561-0.717c0.244-0.41,0.369-0.82,0.471-1.268c0.037-0.152,0.062-0.305,0.086-0.461
		C31.863,28.885,31.859,28.357,31.779,27.832z M28.084,32.855L28.084,32.855l-0.645,0.818l-0.584,0.744h-7.718l1.676-11.137
		l0.555-0.555l0.839-0.84l0.167-0.166l-1.676,11.136h6.349c0.715,0,1.199-0.207,1.199-0.207L28.084,32.855z M30.328,28.744
		c-0.102,0.439-0.287,0.848-0.543,1.201c-0.029,0.043-0.061,0.082-0.094,0.121l-0.008,0.012c-0.246,0.303-0.543,0.557-0.885,0.742
		c-0.396,0.215-0.842,0.336-1.32,0.336h-5.079l1.48-9.84h3.317c0.314,0,0.613,0.052,0.893,0.147c0.279,0.094,0.541,0.234,0.77,0.409
		c0.232,0.178,0.434,0.395,0.59,0.642c0.16,0.252,0.27,0.537,0.316,0.845c0.025,0.17,0.029,0.338,0.014,0.502
		c-0.016,0.167-0.049,0.33-0.104,0.486c-0.055,0.16-0.129,0.312-0.221,0.455c-0.092,0.145-0.203,0.28-0.33,0.402
		c0.156,0.124,0.301,0.264,0.434,0.417c0.135,0.156,0.258,0.328,0.365,0.512c0.109,0.186,0.203,0.385,0.281,0.598
		c0.076,0.217,0.135,0.443,0.17,0.682C30.445,27.869,30.424,28.32,30.328,28.744z"/>
	<path class="st1" d="M24.405,17.693l-0.04,0.041c0.01,0,0.023,0,0.034,0L24.405,17.693z"/>
</g>
<g>
	<polygon class="st2" points="14.119,17.369 11.679,14.643 10.753,15.472 14.023,19.123 16.652,16.769 15.824,15.843 	"/>
	<polygon class="st2" points="17.455,14.912 17.201,14.384 18.554,13.732 18.015,12.613 16.661,13.266 16.405,12.735 18.404,11.771 
		17.865,10.652 14.747,12.157 16.876,16.57 19.995,15.065 19.455,13.947 	"/>
	<path class="st2" d="M25.449,12.566c-0.031-0.101-0.074-0.197-0.127-0.288c-0.055-0.091-0.117-0.175-0.19-0.25
		c-0.02-0.02-0.041-0.039-0.062-0.058c0.018-0.02,0.035-0.04,0.051-0.061c0.063-0.082,0.118-0.172,0.161-0.27
		c0.041-0.095,0.074-0.195,0.094-0.297c0.021-0.104,0.027-0.206,0.023-0.305c-0.014-0.21-0.066-0.409-0.158-0.59
		c-0.092-0.178-0.211-0.335-0.358-0.465c-0.146-0.13-0.315-0.231-0.504-0.3c-0.19-0.07-0.393-0.099-0.604-0.086l-2.446,0.145
		l0.29,4.892l2.446-0.145c0.21-0.013,0.409-0.065,0.59-0.157c0.179-0.091,0.333-0.211,0.464-0.357s0.231-0.315,0.299-0.504
		c0.072-0.19,0.1-0.393,0.086-0.604C25.5,12.768,25.482,12.667,25.449,12.566z M24.142,11.229c-0.013,0.038-0.032,0.07-0.057,0.098
		s-0.055,0.05-0.089,0.068c-0.035,0.017-0.071,0.026-0.113,0.029l-1.207,0.071l-0.035-0.588l1.207-0.071
		c0.042-0.003,0.08,0.002,0.115,0.015c0.038,0.014,0.069,0.032,0.097,0.057c0.029,0.025,0.051,0.054,0.068,0.089
		s0.026,0.072,0.029,0.113C24.16,11.153,24.155,11.192,24.142,11.229z M22.785,13.319l-0.035-0.584l1.206-0.071
		c0.042-0.002,0.081,0.002,0.116,0.015c0.038,0.013,0.069,0.032,0.097,0.057s0.05,0.054,0.067,0.089
		c0.017,0.034,0.027,0.072,0.029,0.113c0.003,0.042-0.002,0.081-0.015,0.116c-0.013,0.038-0.033,0.069-0.057,0.097
		c-0.026,0.029-0.055,0.051-0.09,0.068c-0.034,0.017-0.071,0.026-0.113,0.029L22.785,13.319z"/>
	<path class="st2" d="M30.615,13.823c0.111-0.192,0.197-0.404,0.254-0.627c0.057-0.224,0.082-0.45,0.078-0.674
		c-0.006-0.223-0.037-0.44-0.098-0.647c-0.059-0.207-0.146-0.406-0.258-0.593c-0.109-0.187-0.244-0.358-0.396-0.509
		s-0.328-0.285-0.521-0.396s-0.404-0.197-0.629-0.254s-0.449-0.083-0.674-0.078c-0.221,0.005-0.438,0.038-0.645,0.097
		c-0.209,0.059-0.41,0.146-0.596,0.256c-0.188,0.111-0.359,0.245-0.512,0.397s-0.287,0.329-0.398,0.521
		c-0.111,0.194-0.195,0.406-0.252,0.629c-0.057,0.223-0.084,0.45-0.078,0.672c0.004,0.222,0.039,0.439,0.098,0.647
		c0.061,0.208,0.146,0.408,0.258,0.595s0.246,0.359,0.4,0.512c0.154,0.152,0.328,0.286,0.52,0.396
		c0.193,0.112,0.404,0.197,0.629,0.254C28,15.073,28.209,15.1,28.414,15.1c0.02,0,0.037,0,0.053-0.001
		c0.225-0.005,0.443-0.038,0.65-0.099c0.205-0.06,0.404-0.147,0.592-0.258s0.359-0.246,0.512-0.399
		C30.371,14.19,30.504,14.015,30.615,13.823z M29.672,12.89c-0.043,0.17-0.119,0.325-0.223,0.457
		c-0.104,0.134-0.229,0.245-0.369,0.33s-0.297,0.141-0.467,0.168c-0.064,0.01-0.129,0.015-0.193,0.015
		c-0.104,0-0.211-0.014-0.318-0.041c-0.174-0.044-0.328-0.119-0.463-0.223c-0.133-0.104-0.246-0.229-0.33-0.371
		c-0.084-0.143-0.141-0.299-0.168-0.467c-0.027-0.166-0.018-0.336,0.025-0.507c0.043-0.172,0.117-0.327,0.223-0.461
		c0.105-0.136,0.23-0.247,0.369-0.33c0.143-0.083,0.301-0.14,0.469-0.167c0.064-0.01,0.127-0.015,0.191-0.015
		c0.105,0,0.213,0.014,0.32,0.041c0.174,0.044,0.326,0.119,0.461,0.223c0.137,0.104,0.248,0.229,0.33,0.37
		c0.086,0.141,0.141,0.298,0.168,0.467C29.725,12.547,29.715,12.719,29.672,12.89z"/>
	<path class="st2" d="M34.117,16.274c0.109-0.179,0.18-0.372,0.211-0.572c0.031-0.199,0.023-0.397-0.023-0.588
		s-0.127-0.371-0.244-0.536c-0.117-0.166-0.268-0.306-0.445-0.416l-0.781-0.48c-0.033-0.022-0.062-0.048-0.086-0.08
		c-0.021-0.032-0.037-0.065-0.045-0.102c-0.008-0.036-0.01-0.073-0.004-0.112c0.008-0.039,0.02-0.075,0.041-0.112
		c0.023-0.036,0.049-0.064,0.082-0.086c0.029-0.023,0.064-0.038,0.102-0.047c0.035-0.008,0.074-0.009,0.111-0.003
		c0.037,0.005,0.072,0.019,0.109,0.041l1.926,1.188l0.652-1.058l-1.928-1.187c-0.178-0.11-0.371-0.181-0.572-0.21
		c-0.197-0.028-0.395-0.02-0.586,0.025c-0.189,0.045-0.371,0.126-0.533,0.241c-0.168,0.115-0.309,0.265-0.42,0.445
		s-0.18,0.373-0.209,0.574c-0.031,0.2-0.021,0.397,0.023,0.588s0.127,0.37,0.242,0.535c0.115,0.167,0.264,0.307,0.443,0.417
		l0.779,0.48c0.035,0.022,0.064,0.048,0.088,0.079c0.02,0.032,0.035,0.065,0.045,0.103c0.008,0.037,0.01,0.073,0.004,0.112
		c-0.006,0.038-0.02,0.074-0.041,0.109c-0.021,0.036-0.049,0.064-0.08,0.086c-0.031,0.023-0.064,0.038-0.102,0.047
		s-0.074,0.01-0.111,0.004c-0.039-0.006-0.074-0.019-0.109-0.042l-1.869-1.152l-0.652,1.057l1.867,1.152
		c0.182,0.111,0.373,0.181,0.576,0.21c0.078,0.011,0.154,0.017,0.232,0.017c0.121,0,0.24-0.014,0.355-0.042
		c0.189-0.045,0.371-0.127,0.533-0.242C33.865,16.603,34.006,16.453,34.117,16.274z"/>
	<path class="st2" d="M36.379,15.982c0.031-0.029,0.062-0.049,0.1-0.062c0.033-0.012,0.066-0.019,0.102-0.019h0.01
		c0.035,0.001,0.072,0.009,0.109,0.025c0.033,0.016,0.064,0.038,0.094,0.069l1.551,1.647l0.904-0.851l-1.551-1.647
		c-0.143-0.154-0.312-0.272-0.498-0.352c-0.186-0.079-0.377-0.122-0.574-0.128c-0.195-0.006-0.389,0.025-0.578,0.093
		s-0.365,0.176-0.518,0.321c-0.154,0.145-0.273,0.312-0.354,0.5c-0.082,0.185-0.123,0.378-0.129,0.574
		c-0.006,0.195,0.025,0.39,0.092,0.579c0.066,0.191,0.176,0.366,0.32,0.519l0.627,0.667c0.029,0.031,0.051,0.063,0.062,0.099
		c0.014,0.037,0.02,0.073,0.02,0.111c-0.002,0.037-0.01,0.073-0.025,0.109c-0.014,0.035-0.037,0.066-0.068,0.095
		s-0.062,0.049-0.1,0.062c-0.033,0.012-0.068,0.019-0.102,0.019h-0.008c-0.039-0.001-0.074-0.01-0.109-0.025
		s-0.068-0.038-0.096-0.069l-1.504-1.599l-0.904,0.852l1.504,1.598c0.145,0.154,0.312,0.272,0.498,0.353
		c0.186,0.08,0.381,0.124,0.574,0.13c0.018,0,0.033,0,0.049,0c0.178,0,0.357-0.032,0.531-0.095c0.191-0.069,0.363-0.177,0.518-0.321
		c0.154-0.144,0.273-0.311,0.354-0.498c0.08-0.185,0.125-0.378,0.131-0.574c0.006-0.195-0.027-0.391-0.096-0.581
		c-0.07-0.19-0.18-0.365-0.324-0.518l-0.625-0.667c-0.029-0.031-0.051-0.063-0.064-0.099c-0.014-0.037-0.02-0.073-0.018-0.111
		c0-0.038,0.01-0.073,0.025-0.11C36.324,16.043,36.348,16.011,36.379,15.982z"/>
</g>
</svg>
