<?xml version="1.0" encoding="utf-8"?>
<!-- Generator: Adobe Illustrator 16.0.0, SVG Export Plug-In . SVG Version: 6.00 Build 0)  -->
<!DOCTYPE svg PUBLIC "-//W3C//DTD SVG 1.1//EN" "http://www.w3.org/Graphics/SVG/1.1/DTD/svg11.dtd">
<svg version="1.1" id="Layer_1" xmlns="http://www.w3.org/2000/svg" xmlns:xlink="http://www.w3.org/1999/xlink" x="0px" y="0px"
	 width="50px" height="50px" viewBox="0 0 50 50" enable-background="new 0 0 50 50" xml:space="preserve">
<rect fill="none" width="50" height="50"/>
<g>
	<g>
		<g>
			<path fill="#6DCEF5" d="M32.6,15.622l0.155-0.103l0.087,0.132l0.612-0.403l-0.088-0.132l0.156-0.103l0.335,0.507l-0.158,0.103
				l-0.088-0.135l-0.61,0.403l0.179,0.272l0.286-0.188l0.119,0.179l-0.442,0.292L32.6,15.622z"/>
			<path fill="#6DCEF5" d="M33.184,16.507l0.155-0.103l0.073,0.111l0.61-0.403l-0.073-0.111l0.157-0.103l0.536,0.813l-0.293,0.193
				l-0.116-0.177l0.137-0.09l-0.188-0.286l-0.213,0.14l0.152,0.231l-0.156,0.103l-0.152-0.231l-0.241,0.16l0.188,0.286l0.139-0.091
				l0.116,0.177L33.72,17.32L33.184,16.507z"/>
			<path fill="#6DCEF5" d="M35.071,17.329c0.105,0.159,0.143,0.315,0.109,0.467c-0.032,0.151-0.113,0.271-0.246,0.359
				c-0.132,0.087-0.275,0.115-0.428,0.084c-0.151-0.031-0.28-0.126-0.384-0.285c-0.109-0.165-0.146-0.323-0.11-0.474
				c0.037-0.15,0.119-0.268,0.245-0.352c0.133-0.087,0.274-0.116,0.426-0.085C34.837,17.074,34.966,17.169,35.071,17.329z
				 M34.902,17.44c-0.047-0.071-0.112-0.113-0.198-0.127c-0.085-0.015-0.18,0.012-0.281,0.08c-0.092,0.06-0.147,0.132-0.17,0.216
				s-0.011,0.163,0.037,0.235c0.047,0.071,0.112,0.114,0.199,0.128c0.086,0.014,0.179-0.011,0.28-0.078
				c0.088-0.059,0.146-0.13,0.17-0.215C34.965,17.595,34.952,17.515,34.902,17.44z"/>
			<path fill="#6DCEF5" d="M34.541,18.564l0.154-0.103l0.082,0.124l0.612-0.404l-0.081-0.123l0.155-0.103l0.254,0.388l-0.35,0.719
				l0.419-0.276l-0.079-0.121l0.156-0.103l0.273,0.413L35.98,19.08l-0.084-0.13l-0.774,0.509l-0.136-0.205l0.421-0.849l-0.521,0.345
				l0.077,0.116l-0.156,0.103L34.541,18.564z"/>
			<path fill="#6DCEF5" d="M35.995,20.43l-0.155,0.104l-0.3-0.454l0.155-0.103l0.079,0.119l0.129-0.149l-0.158-0.24l-0.19,0.056
				l0.081,0.123l-0.156,0.103l-0.27-0.409l0.157-0.103l0.074,0.115l0.729-0.223l-0.081-0.124l0.156-0.103l0.398,0.603l-0.156,0.103
				l-0.083-0.124l-0.483,0.597L35.995,20.43z M36.014,19.819l0.228-0.26l-0.331,0.101L36.014,19.819z"/>
			<path fill="#6DCEF5" d="M36.648,21.422l-0.155,0.103l-0.185-0.281l0.266-0.475l-0.069-0.106l-0.248,0.164l0.076,0.116
				l-0.155,0.102l-0.318-0.482l0.156-0.103l0.083,0.127l0.611-0.403l-0.084-0.127l0.155-0.103l0.368,0.557
				c0.069,0.104,0.092,0.197,0.069,0.278s-0.066,0.144-0.133,0.188c-0.106,0.069-0.217,0.066-0.336-0.009l-0.179,0.334
				L36.648,21.422z M36.652,20.566l0.055,0.082c0.066,0.102,0.137,0.128,0.21,0.081c0.036-0.023,0.054-0.053,0.057-0.087
				c0.002-0.035-0.01-0.073-0.036-0.114l-0.069-0.104L36.652,20.566z"/>
			<path fill="#6DCEF5" d="M36.514,21.554l0.155-0.104l0.093,0.141l0.61-0.403l-0.093-0.14l0.157-0.104l0.287,0.437
				c0.061,0.093,0.104,0.17,0.131,0.234c0.024,0.063,0.036,0.133,0.031,0.211c-0.007,0.077-0.029,0.151-0.074,0.225
				s-0.107,0.138-0.187,0.189c-0.063,0.042-0.131,0.072-0.204,0.089c-0.073,0.016-0.138,0.021-0.194,0.011
				c-0.058-0.009-0.11-0.028-0.161-0.059c-0.05-0.03-0.09-0.063-0.121-0.097c-0.032-0.033-0.072-0.089-0.124-0.167L36.514,21.554z
				 M36.919,21.83l0.038,0.057c0.047,0.071,0.092,0.12,0.138,0.149c0.044,0.029,0.097,0.041,0.16,0.035
				c0.062-0.004,0.13-0.033,0.204-0.081c0.07-0.046,0.121-0.098,0.154-0.155c0.032-0.058,0.044-0.114,0.033-0.168
				c-0.009-0.055-0.036-0.116-0.078-0.181l-0.039-0.059L36.919,21.83z"/>
		</g>
		<g>
			<path fill="#6DCEF5" d="M38.393,24.073l-0.156,0.104l-0.299-0.454l0.155-0.103l0.078,0.117l0.129-0.148l-0.157-0.24l-0.191,0.056
				l0.081,0.123l-0.155,0.104l-0.27-0.409l0.155-0.104l0.076,0.115l0.729-0.223l-0.081-0.123l0.155-0.104l0.396,0.603l-0.155,0.103
				l-0.081-0.124l-0.483,0.597L38.393,24.073z M38.411,23.462l0.228-0.26l-0.334,0.1L38.411,23.462z"/>
			<path fill="#6DCEF5" d="M38.26,24.211l0.155-0.103l0.081,0.123l0.612-0.403l-0.081-0.123l0.155-0.103l0.254,0.388l-0.35,0.719
				l0.419-0.277l-0.079-0.119l0.155-0.104l0.272,0.415l-0.155,0.103l-0.085-0.13l-0.773,0.511l-0.135-0.206l0.42-0.849l-0.521,0.343
				l0.078,0.116l-0.157,0.104L38.26,24.211z"/>
			<path fill="#6DCEF5" d="M38.966,25.283l0.155-0.104l0.093,0.142l0.611-0.403l-0.092-0.14l0.155-0.104l0.288,0.438
				c0.062,0.092,0.104,0.169,0.13,0.233c0.026,0.063,0.036,0.133,0.031,0.211c-0.005,0.077-0.029,0.153-0.074,0.226
				c-0.044,0.074-0.105,0.137-0.185,0.189c-0.065,0.041-0.133,0.072-0.205,0.088c-0.073,0.018-0.138,0.021-0.194,0.012
				c-0.057-0.008-0.109-0.027-0.16-0.059c-0.051-0.029-0.092-0.062-0.123-0.096c-0.03-0.033-0.071-0.09-0.124-0.168L38.966,25.283z
				 M39.373,25.559l0.037,0.059c0.046,0.07,0.092,0.119,0.138,0.148c0.045,0.029,0.098,0.041,0.16,0.035s0.13-0.033,0.204-0.082
				c0.07-0.045,0.122-0.098,0.153-0.155c0.033-0.058,0.045-0.114,0.035-0.168c-0.009-0.056-0.036-0.116-0.08-0.182l-0.037-0.058
				L39.373,25.559z"/>
			<path fill="#6DCEF5" d="M39.693,26.385l0.156-0.102l0.073,0.111l0.61-0.404l-0.073-0.111l0.156-0.102l0.536,0.812l-0.293,0.193
				l-0.115-0.178l0.136-0.09l-0.188-0.285l-0.213,0.141l0.151,0.23l-0.155,0.102l-0.153-0.229l-0.241,0.158l0.188,0.287l0.138-0.092
				l0.117,0.176l-0.294,0.195L39.693,26.385z"/>
			<path fill="#6DCEF5" d="M41.073,28.137l-0.157,0.104l-0.185-0.283l0.266-0.473l-0.068-0.107l-0.249,0.166l0.076,0.113L40.6,27.76
				l-0.317-0.482l0.156-0.104l0.082,0.127l0.612-0.402l-0.084-0.127l0.155-0.102l0.368,0.555c0.068,0.105,0.092,0.197,0.069,0.279
				c-0.022,0.08-0.066,0.145-0.134,0.188c-0.104,0.068-0.217,0.066-0.335-0.008l-0.179,0.334L41.073,28.137z M41.075,27.281
				l0.055,0.082c0.066,0.102,0.137,0.129,0.209,0.08c0.036-0.023,0.054-0.053,0.058-0.088c0.002-0.035-0.011-0.072-0.037-0.113
				l-0.068-0.105L41.075,27.281z"/>
			<path fill="#6DCEF5" d="M40.957,28.301l0.314-0.207l0.104,0.156c-0.057,0.041-0.089,0.082-0.098,0.129s-0.001,0.088,0.023,0.125
				c0.019,0.027,0.045,0.045,0.077,0.051c0.031,0.008,0.062,0.002,0.088-0.018c0.028-0.018,0.045-0.043,0.053-0.074
				c0.007-0.031,0.006-0.08-0.003-0.148c-0.02-0.141-0.021-0.242-0.007-0.307c0.014-0.064,0.054-0.117,0.12-0.162
				c0.081-0.053,0.16-0.068,0.238-0.049c0.077,0.021,0.138,0.064,0.18,0.129c0.049,0.072,0.058,0.148,0.026,0.227l0.076-0.051
				l0.104,0.156l-0.28,0.186l-0.104-0.156c0.041-0.033,0.064-0.07,0.071-0.111c0.007-0.039,0-0.078-0.021-0.111
				c-0.017-0.025-0.038-0.041-0.063-0.051c-0.025-0.008-0.049-0.006-0.072,0.01c-0.019,0.012-0.031,0.031-0.039,0.057
				c-0.008,0.027-0.003,0.086,0.012,0.176c0.015,0.088,0.022,0.16,0.021,0.211c0,0.053-0.013,0.104-0.039,0.15
				c-0.024,0.047-0.062,0.088-0.114,0.121c-0.091,0.061-0.177,0.078-0.259,0.057c-0.081-0.023-0.145-0.07-0.192-0.143
				c-0.054-0.082-0.065-0.162-0.033-0.248l-0.079,0.053L40.957,28.301z"/>
			<path fill="#6DCEF5" d="M42.711,28.918c0.104,0.16,0.141,0.314,0.109,0.469c-0.032,0.152-0.114,0.271-0.246,0.357
				c-0.133,0.088-0.275,0.117-0.428,0.084c-0.152-0.029-0.279-0.125-0.386-0.283c-0.107-0.166-0.144-0.322-0.109-0.475
				c0.036-0.15,0.119-0.268,0.246-0.352c0.132-0.086,0.273-0.115,0.426-0.086C42.476,28.664,42.604,28.758,42.711,28.918z
				 M42.541,29.029c-0.047-0.07-0.113-0.113-0.197-0.127c-0.086-0.014-0.181,0.014-0.283,0.08c-0.091,0.061-0.147,0.133-0.169,0.217
				c-0.022,0.084-0.01,0.162,0.037,0.234c0.048,0.07,0.114,0.113,0.199,0.127c0.086,0.016,0.18-0.012,0.28-0.078
				c0.09-0.059,0.146-0.129,0.171-0.213C42.604,29.186,42.592,29.105,42.541,29.029z"/>
			<path fill="#6DCEF5" d="M42.18,30.154l0.156-0.104l0.081,0.125l0.611-0.404l-0.082-0.123l0.156-0.104l0.256,0.389l-0.352,0.719
				l0.419-0.277l-0.078-0.121l0.155-0.102l0.272,0.414L43.62,30.67l-0.085-0.131l-0.773,0.51l-0.136-0.205l0.421-0.85l-0.521,0.344
				l0.075,0.117l-0.155,0.104L42.18,30.154z"/>
		</g>
	</g>
	<path fill="#6DCEF5" d="M39.579,35.1H26.732l2.868-4.467h6.548l-6.548-9.825l-8.452,12.678c-0.644,0.965-1.856,1.613-3.017,1.613
		H8.898c-1.03,0-1.918-0.508-2.375-1.361s-0.388-1.873,0.184-2.73L17.461,14.9l5.362,0.01L12.328,30.633h5.353l9.648-14.472
		c0.521-0.783,1.37-1.25,2.271-1.25c0.9,0,1.75,0.467,2.271,1.25l9.898,14.847c0.57,0.857,0.64,1.877,0.184,2.73
		C41.497,34.592,40.609,35.1,39.579,35.1z"/>
	<path fill="#B8E4FA" d="M36.664,23.35c-1.243,0.667-0.973,2.301-4.089,1.919l-2.975-4.46l-4.667,7.002
		c-0.812,0.213-1.814-0.801-2.655-0.611c-1.28,0.287-2.368,1.746-3.608,1.951l8.66-12.989c0.521-0.783,1.372-1.25,2.271-1.25
		c0.9,0,1.75,0.467,2.272,1.25L36.664,23.35z"/>
	<circle fill="#6DCEF5" cx="29.749" cy="26.916" r="1.407"/>
</g>
</svg>
