<?xml version="1.0" encoding="utf-8"?>
<!-- Generator: Adobe Illustrator 16.0.0, SVG Export Plug-In . SVG Version: 6.00 Build 0)  -->
<!DOCTYPE svg PUBLIC "-//W3C//DTD SVG 1.1//EN" "http://www.w3.org/Graphics/SVG/1.1/DTD/svg11.dtd">
<svg version="1.1" id="Layer_1" xmlns="http://www.w3.org/2000/svg" xmlns:xlink="http://www.w3.org/1999/xlink" x="0px" y="0px"
	 width="50px" height="50px" viewBox="0 0 50 50" enable-background="new 0 0 50 50" xml:space="preserve">
<rect fill="none" width="50" height="50"/>
<rect x="86.271" y="-62.519" fill="#FABDA6" width="158.123" height="148.56"/>
<g>
	<g>
		<polygon fill="#FABDA6" points="11.052,13.978 11.052,13.978 14.067,11.372 11.052,11.372 8.446,11.372 8.446,13.978 
			8.446,33.442 20.747,33.442 23.352,30.837 11.052,30.837 		"/>
		<path fill="#EE7685" d="M24.936,11.372l2.619,2.606h11.392v7.127h-7.252c-0.608-3.141-3.38-5.518-6.694-5.518
			c-3.762,0-6.821,3.059-6.821,6.82c0,3.294,2.346,6.048,5.454,6.683c0.441,0.09,0.899,0.138,1.367,0.138
			c0.423,0,0.836-0.038,1.237-0.113c2.748-0.504,4.927-2.663,5.457-5.405h7.252v7.127H27.503l-2.389,2.605h16.438V11.372H24.936z
			 M25,26.622c-2.324,0-4.216-1.891-4.216-4.215c0-2.323,1.892-4.215,4.216-4.215c1.869,0,3.458,1.225,4.008,2.913
			c0.135,0.411,0.207,0.849,0.207,1.302c0,0.454-0.072,0.892-0.207,1.303C28.458,25.397,26.869,26.622,25,26.622z"/>
		<g>
			<polygon fill="#FABDA6" points="8.959,38.105 8.959,36.432 9.48,35.981 8.446,35.981 8.446,38.617 9.792,38.617 10.305,38.105 
							"/>
			<path fill="#FABDA6" d="M10.424,37.305c0-0.431,0.112-0.76,0.336-0.984c0.225-0.227,0.514-0.339,0.867-0.339
				s0.644,0.111,0.871,0.334c0.228,0.224,0.341,0.553,0.341,0.989c0,0.427-0.111,0.753-0.335,0.981s-0.514,0.342-0.872,0.342
				c-0.34,0-0.627-0.108-0.859-0.324C10.539,38.088,10.424,37.755,10.424,37.305z M10.948,37.305c0,0.291,0.065,0.511,0.194,0.658
				c0.131,0.147,0.295,0.22,0.494,0.22c0.2,0,0.363-0.075,0.489-0.227c0.125-0.151,0.188-0.368,0.188-0.651
				c0-0.282-0.062-0.5-0.188-0.651s-0.29-0.228-0.496-0.228c-0.207,0-0.372,0.076-0.496,0.227
				C11.011,36.804,10.948,37.021,10.948,37.305z"/>
			<path fill="#FABDA6" d="M15.26,37.683c0,0.31-0.085,0.544-0.257,0.704c-0.172,0.161-0.43,0.241-0.775,0.241
				c-0.304,0-0.545-0.077-0.726-0.231c-0.18-0.154-0.27-0.384-0.27-0.687v-1.661h0.537v1.631c0,0.163,0.04,0.288,0.121,0.375
				c0.081,0.086,0.197,0.128,0.349,0.128c0.153,0,0.272-0.039,0.357-0.119c0.086-0.079,0.128-0.199,0.128-0.36v-1.654h0.535V37.683z
				"/>
			<path fill="#FABDA6" d="M16.289,38.562h-0.524v-2.513h0.524V38.562z"/>
			<path fill="#FABDA6" d="M17.195,37.787c0,0.124,0.046,0.223,0.138,0.297c0.092,0.072,0.224,0.109,0.394,0.109
				c0.171,0,0.302-0.027,0.391-0.082c0.09-0.056,0.135-0.137,0.135-0.244c0-0.063-0.023-0.118-0.069-0.166
				c-0.046-0.046-0.155-0.09-0.329-0.132l-0.428-0.099c-0.271-0.063-0.453-0.151-0.551-0.261s-0.146-0.263-0.146-0.456
				c0-0.227,0.081-0.412,0.242-0.556c0.161-0.146,0.403-0.217,0.726-0.217c0.32,0,0.563,0.081,0.729,0.243
				c0.165,0.162,0.249,0.352,0.251,0.568h-0.505c-0.012-0.123-0.06-0.217-0.144-0.28c-0.085-0.064-0.209-0.097-0.371-0.097
				c-0.132,0-0.237,0.027-0.317,0.081s-0.121,0.127-0.121,0.22c0,0.063,0.019,0.116,0.054,0.159
				c0.035,0.041,0.092,0.072,0.171,0.092l0.672,0.165c0.243,0.061,0.41,0.146,0.503,0.257s0.138,0.25,0.138,0.416
				c0,0.273-0.095,0.479-0.284,0.616c-0.19,0.138-0.425,0.206-0.705,0.206c-0.363,0-0.633-0.077-0.81-0.231
				s-0.266-0.358-0.266-0.609H17.195z"/>
			<path fill="#FABDA6" d="M19.455,38.562h-0.554l0.896-2.513h0.608l0.885,2.513h-0.571l-0.16-0.518H19.63L19.455,38.562z
				 M19.77,37.609h0.642l-0.312-0.996h-0.007L19.77,37.609z"/>
		</g>
	</g>
	<g>
		<path fill="#EE7685" d="M25.372,38.106h1.25v0.455h-1.773v-2.513h0.523V38.106z"/>
		<path fill="#EE7685" d="M27.464,38.562h-0.525v-2.513h0.525V38.562z"/>
		<path fill="#EE7685" d="M29.77,38.562h-1.964v-0.444l1.299-1.625h-1.264v-0.443h1.922v0.411l-1.316,1.657h1.323V38.562z"/>
		<path fill="#EE7685" d="M30.454,38.562H29.9l0.896-2.513h0.606l0.886,2.513h-0.57l-0.161-0.518h-0.929L30.454,38.562z
			 M30.769,37.609h0.641l-0.312-0.996H31.09L30.769,37.609z"/>
		<path fill="#EE7685" d="M32.588,36.049h1.22c0.253,0,0.444,0.061,0.576,0.182c0.133,0.121,0.199,0.274,0.199,0.461
			c0,0.256-0.104,0.428-0.309,0.514c0.259,0.1,0.388,0.303,0.388,0.61c0,0.101-0.019,0.196-0.057,0.286s-0.098,0.173-0.178,0.25
			s-0.176,0.132-0.288,0.163c-0.111,0.031-0.274,0.047-0.489,0.047h-1.062V36.049z M33.092,37.031h0.615
			c0.119,0,0.211-0.024,0.275-0.073c0.063-0.049,0.096-0.118,0.096-0.207s-0.029-0.156-0.088-0.202
			c-0.059-0.045-0.158-0.067-0.297-0.067h-0.602V37.031z M33.092,38.127h0.643c0.129,0,0.229-0.029,0.299-0.087
			c0.069-0.059,0.104-0.151,0.104-0.28c0-0.094-0.033-0.167-0.101-0.223c-0.067-0.055-0.159-0.082-0.276-0.082h-0.669V38.127z"/>
		<path fill="#EE7685" d="M36.904,36.492h-1.333v0.528h1.226v0.445h-1.226v0.651h1.393v0.444h-1.907v-2.513h1.848V36.492z"/>
		<path fill="#EE7685" d="M38.453,38.562h-0.525v-2.069h-0.759v-0.443h2.046v0.443h-0.762V38.562z"/>
		<path fill="#EE7685" d="M41.553,36.049v2.513h-0.524v-1.126h-0.981v1.126h-0.525v-2.513h0.525v0.952h0.981v-0.952H41.553z"/>
		<g>
			<path fill="#EE7685" d="M24.015,38.122c-0.054-0.011-0.105-0.028-0.154-0.049h-1.002v-0.512h0.539
				c-0.024-0.078-0.037-0.159-0.037-0.245c0-0.085,0.013-0.167,0.037-0.245h-0.539v-0.511h0.961l0.489-0.489H22.37v2.49h2.086
				L24.015,38.122z"/>
			<path fill="#EE7685" d="M24.505,37.316c0,0.179-0.146,0.323-0.323,0.323c-0.14,0-0.263-0.09-0.308-0.224
				c-0.01-0.032-0.015-0.065-0.015-0.1c0-0.033,0.005-0.067,0.016-0.1c0.044-0.134,0.167-0.224,0.307-0.224
				C24.359,36.993,24.505,37.138,24.505,37.316z"/>
		</g>
	</g>
</g>
</svg>
