<?xml version="1.0" encoding="utf-8"?>
<!-- Generator: Adobe Illustrator 16.0.0, SVG Export Plug-In . SVG Version: 6.00 Build 0)  -->
<!DOCTYPE svg PUBLIC "-//W3C//DTD SVG 1.1//EN" "http://www.w3.org/Graphics/SVG/1.1/DTD/svg11.dtd">
<svg version="1.1" id="Layer_1" xmlns="http://www.w3.org/2000/svg" xmlns:xlink="http://www.w3.org/1999/xlink" x="0px" y="0px"
	 width="50px" height="50px" viewBox="0 0 50 50" enable-background="new 0 0 50 50" xml:space="preserve">
<rect fill="none" width="50" height="50"/>
<path fill="#1D1D1B" d="M26.269,22.461v5.078h-0.634v-5.078H26.269z M43.405,27.539v-5.078h-0.635v5.078H43.405z M35.155,22.461
	v5.078h0.634v-5.078H35.155z M40.866,22.461v5.078h0.635v-5.078H40.866z M6.595,22.461v5.078H7.23v-5.078H6.595z M16.116,22.461
	v5.078h0.633v-5.078H16.116z M9.769,23.73c-0.701,0-1.27,0.568-1.27,1.27v2.539h2.539V25C11.038,24.299,10.47,23.73,9.769,23.73z
	 M13.577,23.73c-0.701,0-1.27,0.568-1.27,1.27v2.539h2.539V25C14.846,24.299,14.277,23.73,13.577,23.73z M16.116,22.461v5.078h0.633
	v-5.078H16.116z M35.155,22.461v5.078h0.634v-5.078H35.155z M23.732,22.461v5.078h0.634v-5.078H23.732z M18.019,22.461v5.078h0.633
	v-5.078H18.019z M18.019,22.461v5.078h0.633v-5.078H18.019z M21.192,23.73c-0.701,0-1.27,0.568-1.27,1.27v2.539h2.539V25
	C22.461,24.299,21.893,23.73,21.192,23.73z M23.732,22.461v5.078h0.634v-5.078H23.732z M28.809,23.73c-0.701,0-1.27,0.568-1.27,1.27
	v2.539h2.538V25C30.077,24.299,29.509,23.73,28.809,23.73z M32.616,23.73c-0.701,0-1.27,0.568-1.27,1.27v2.539h2.539V25
	C33.886,24.299,33.317,23.73,32.616,23.73z M35.155,22.461v5.078h0.634v-5.078H35.155z M38.328,23.73c-0.701,0-1.27,0.568-1.27,1.27
	c0,0.7,0.568,1.269,1.27,1.269v1.271h1.27V25C39.598,24.299,39.029,23.73,38.328,23.73z M40.866,22.461v5.078h0.635v-5.078H40.866z"
	/>
</svg>
