<?xml version="1.0" encoding="utf-8"?>
<!-- Generator: Adobe Illustrator 22.0.0, SVG Export Plug-In . SVG Version: 6.00 Build 0)  -->
<svg version="1.1" id="Layer_1" xmlns="http://www.w3.org/2000/svg" xmlns:xlink="http://www.w3.org/1999/xlink" x="0px" y="0px"
	 viewBox="0 0 50 50" style="enable-background:new 0 0 50 50;" xml:space="preserve">
<style type="text/css">
	.st0{fill:none;}
	.st1{fill:#0071BB;}
	.st2{fill:#8BC53F;}
</style>
<rect x="23.843" y="23.967" class="st0" width="2.987" height="2.987"/>
<path class="st1" d="M6.03,24.911c0,0-0.009-0.009-0.01-0.009l-1.09-0.955c0,0-0.327-0.313-0.659-0.313
	c-0.332,0-0.66,0.313-0.66,0.313l-1.09,0.955c0,0-0.009,0.009-0.009,0.009c-0.04,0.037-0.066,0.091-0.066,0.15
	c0,0.113,0.092,0.205,0.205,0.205c0.048,0,0.091-0.016,0.126-0.043l0.875-0.63c0.292-0.214,0.511-0.235,0.585-0.235h0.067
	c0.075,0,0.294,0.021,0.585,0.235l0.875,0.63C5.8,25.25,5.843,25.266,5.89,25.266c0.113,0,0.205-0.092,0.205-0.205
	C6.095,25.001,6.07,24.948,6.03,24.911z"/>
<path class="st2" d="M4.266,22.15c-1.318,0-2.391,1.082-2.391,2.412c0,1.33,1.073,2.412,2.391,2.412
	c1.319,0,2.391-1.082,2.391-2.412C6.657,23.232,5.585,22.15,4.266,22.15z M4.266,26.661c-1.146,0-2.079-0.942-2.079-2.1
	c0-1.158,0.933-2.1,2.079-2.1c1.147,0,2.079,0.942,2.079,2.1C6.345,25.719,5.413,26.661,4.266,26.661z"/>
<g>
	<path class="st2" d="M48.5,26.971c-0.301,0-0.545,0.245-0.545,0.545c0,0.301,0.245,0.545,0.545,0.545
		c0.301,0,0.545-0.245,0.545-0.545C49.045,27.215,48.8,26.971,48.5,26.971z M48.5,28.026c-0.281,0-0.51-0.229-0.51-0.511
		c0-0.281,0.229-0.511,0.51-0.511c0.282,0,0.511,0.229,0.511,0.511C49.01,27.797,48.781,28.026,48.5,28.026z"/>
	<path class="st2" d="M48.745,27.715c0,0.005-0.002,0.009-0.005,0.012c-0.003,0.003-0.007,0.005-0.012,0.005
		c-0.005,0-0.009-0.002-0.012-0.005c-0.001-0.001-0.002-0.001-0.002-0.002l-0.213-0.213h-0.197v0.203
		c0,0.005-0.002,0.009-0.005,0.012c-0.003,0.003-0.007,0.005-0.012,0.005c-0.005,0-0.009-0.002-0.012-0.005
		c-0.003-0.003-0.005-0.007-0.005-0.012v-0.44c0-0.005,0.002-0.009,0.005-0.012c0.003-0.003,0.007-0.005,0.012-0.005h0.33
		c0.035,0,0.065,0.012,0.09,0.037c0.025,0.025,0.037,0.055,0.037,0.09c0,0.035-0.013,0.065-0.037,0.09
		c-0.025,0.025-0.055,0.037-0.09,0.037h-0.069l0.191,0.191C48.744,27.706,48.745,27.71,48.745,27.715z M48.618,27.478
		c0.026,0,0.048-0.009,0.066-0.027c0.018-0.018,0.027-0.04,0.027-0.066c0-0.026-0.009-0.048-0.027-0.066
		c-0.018-0.018-0.04-0.027-0.066-0.027h-0.313v0.186H48.618z"/>
</g>
<g>
	<g>
		<path class="st2" d="M4.266,22.15c-1.318,0-2.391,1.082-2.391,2.412c0,1.33,1.073,2.412,2.391,2.412
			c1.319,0,2.391-1.082,2.391-2.412C6.657,23.232,5.585,22.15,4.266,22.15z M4.266,26.661c-1.146,0-2.079-0.942-2.079-2.1
			c0-1.158,0.933-2.1,2.079-2.1c1.147,0,2.079,0.942,2.079,2.1C6.345,25.719,5.413,26.661,4.266,26.661z"/>
		<path class="st2" d="M33.704,22.15c-1.315,0-2.386,1.077-2.391,2.402h0v3.509h0.312v-2.311c0.412,0.729,1.189,1.223,2.079,1.223
			c1.319,0,2.391-1.082,2.391-2.412C36.096,23.232,35.023,22.15,33.704,22.15z M33.704,26.661c-1.146,0-2.079-0.942-2.079-2.1
			c0-1.158,0.933-2.1,2.079-2.1c1.147,0,2.079,0.942,2.079,2.1C35.783,25.719,34.851,26.661,33.704,26.661z"/>
	</g>
	<path class="st2" d="M42.025,24.561c0-1.33-1.073-2.412-2.391-2.412c-1.318,0-2.391,1.082-2.391,2.412
		c0,1.33,1.073,2.412,2.391,2.412c0.89,0,1.667-0.493,2.079-1.222v1.222h0.312v-2.398C42.025,24.571,42.025,24.566,42.025,24.561z
		 M39.634,26.661c-1.146,0-2.079-0.942-2.079-2.1c0-1.158,0.933-2.1,2.079-2.1c1.143,0,2.074,0.937,2.079,2.09h0v0.028
		C41.703,25.729,40.774,26.661,39.634,26.661z"/>
	<path class="st2" d="M47.954,22.15h-0.312v1.221c0,0,0,0,0,0v1.191c0,0.536-0.2,1.025-0.529,1.397
		c-0.013,0.015-0.026,0.03-0.039,0.044l-0.007,0.007c-0.031,0.032-0.062,0.064-0.095,0.094c-0.014,0.013-0.029,0.026-0.044,0.039
		c-0.365,0.323-0.843,0.518-1.366,0.518c-1.144,0-2.075-0.938-2.079-2.093V22.15h-0.312v2.407c0,0.002,0,0.004,0,0.005
		c0,0.002,0,0.005,0,0.007v0.003h0c0.005,1.325,1.076,2.402,2.391,2.402c0.213,0,0.42-0.028,0.616-0.081l-1.155,1.169l0.428,0
		l1.692-1.692l0.004-0.004c0.019-0.016,0.036-0.033,0.054-0.05l0.01-0.009c0.027-0.026,0.054-0.054,0.081-0.081l0.001-0.001
		c0.017-0.017,0.033-0.035,0.048-0.053c0.379-0.425,0.61-0.985,0.613-1.6h0V22.15z"/>
</g>
<g>
	<path class="st1" d="M6.03,24.911c0,0-0.009-0.009-0.01-0.009l-1.09-0.955c0,0-0.327-0.313-0.659-0.313
		c-0.332,0-0.66,0.313-0.66,0.313l-1.09,0.955c0,0-0.009,0.009-0.009,0.009c-0.04,0.037-0.066,0.091-0.066,0.15
		c0,0.113,0.092,0.205,0.205,0.205c0.048,0,0.091-0.016,0.126-0.043l0.875-0.63c0.292-0.214,0.511-0.235,0.585-0.235h0.067
		c0.075,0,0.294,0.021,0.585,0.235l0.875,0.63C5.8,25.25,5.843,25.266,5.89,25.266c0.113,0,0.205-0.092,0.205-0.205
		C6.095,25.001,6.07,24.948,6.03,24.911z"/>
	<path class="st1" d="M29.854,22.15v1.221v1.182v0.01c0,1.158-0.933,2.1-2.079,2.1c-1.146,0-2.079-0.942-2.079-2.1v-0.01v-1.182
		l-0.001-1.221l-0.312,0l-0.001,1.221v1.182v0.01c0,1.158-0.933,2.1-2.079,2.1c-1.146,0-2.079-0.942-2.079-2.1v-0.01v-1.182V22.15
		l-0.312,0v2.403v0.01c0,1.33,1.073,2.412,2.391,2.412c1.02,0,1.893-0.647,2.236-1.556c0.343,0.908,1.215,1.556,2.235,1.556
		c1.021,0,1.895-0.649,2.237-1.56c0.1-0.265,0.154-0.552,0.154-0.852v-0.01V22.15L29.854,22.15z"/>
	<path class="st1" d="M19.751,24.405c-0.08-1.257-1.119-2.256-2.386-2.256c-1.318,0-2.391,1.082-2.391,2.412
		c0,1.33,1.073,2.412,2.391,2.412h1.211l-0.154-0.312h-1.003h-0.054v0.001c-1.094,0-1.994-0.858-2.073-1.944h4.147h0.312
		c0.004-0.051,0.005-0.103,0.005-0.156C19.756,24.509,19.755,24.457,19.751,24.405z M15.292,24.405
		c0.079-1.085,0.978-1.943,2.073-1.943c1.094,0,1.993,0.858,2.073,1.943H15.292z"/>
	<path class="st1" d="M11.438,22.15c-1.315,0-2.386,1.077-2.391,2.403v0.01v2.412h0.312v-1.22v-1.201
		c0.005-1.154,0.935-2.09,2.079-2.09c1.143,0,2.073,0.937,2.079,2.09v1.201v1.22h0.312v-2.412v-0.01
		C13.824,23.227,12.754,22.15,11.438,22.15z"/>
</g>
<rect class="st0" width="50" height="50"/>
</svg>
