<?xml version="1.0" encoding="utf-8"?>
<!-- Generator: Adobe Illustrator 16.0.0, SVG Export Plug-In . SVG Version: 6.00 Build 0)  -->
<!DOCTYPE svg PUBLIC "-//W3C//DTD SVG 1.1//EN" "http://www.w3.org/Graphics/SVG/1.1/DTD/svg11.dtd">
<svg version="1.1" id="Layer_1" xmlns="http://www.w3.org/2000/svg" xmlns:xlink="http://www.w3.org/1999/xlink" x="0px" y="0px"
	 width="50px" height="50px" viewBox="0 0 50 50" enable-background="new 0 0 50 50" xml:space="preserve">
<rect x="0" fill="none" width="50" height="50"/>
<g>
	<path fill="#A6A6A5" d="M25.775,27.46h-2.733c-0.128,0-0.23,0.115-0.23,0.261c0,0.145,0.103,0.261,0.23,0.261h2.733
		c0.125,0,0.23-0.116,0.23-0.261C26.006,27.575,25.9,27.46,25.775,27.46z"/>
	<path fill="#A6A6A5" d="M43.891,21.396l-3.322,4.283h-2.209l0.35-1.021l-0.832,1.021h-2.023l1.346-3.915l0.057-0.162
		c0.002-0.003,0.002-0.003,0.002-0.003c0.012-0.019,0.021-0.034,0.035-0.049l0.006-0.004c0.08-0.094,0.195-0.15,0.328-0.15h0.836
		l-1.141,3.254l2.352-3.048c0.004-0.003,0.004-0.003,0.004-0.003l0.041-0.053c0.08-0.094,0.195-0.15,0.326-0.15h1.34l-0.744,0.906
		l-0.828,2.362l2.402-3.114l0.006-0.004c0.08-0.094,0.197-0.15,0.328-0.15H43.891z"/>
	<path fill="#A6A6A5" d="M26.445,26.321c0-0.143-0.104-0.259-0.23-0.259h-2.732c-0.128,0-0.231,0.116-0.231,0.259
		c0,0.146,0.104,0.262,0.231,0.262h2.732C26.342,26.583,26.445,26.467,26.445,26.321z"/>
	<polygon fill="#A6A6A5" points="13.986,25.68 17.492,21.395 15.943,21.395 13.429,24.648 14.569,21.395 13.432,21.395 
		12.307,24.668 9.549,24.668 10.672,21.395 9.511,21.395 8.049,25.68 	"/>
	<path fill="#A6A6A5" d="M31.244,24.551c-0.082,0.219-0.123,0.41-0.123,0.575c0,0.369,0.215,0.554,0.645,0.554h3.113
		c0.121,0,0.234-0.026,0.338-0.082c0.133-0.07,0.225-0.177,0.273-0.316l0.975-2.753c0.08-0.232,0.117-0.426,0.117-0.58
		c0-0.369-0.211-0.554-0.639-0.554H32.83c-0.121,0-0.236,0.027-0.344,0.085c-0.133,0.072-0.223,0.178-0.27,0.318l-0.881,2.526
		L31.244,24.551z M32.496,24.336l0.561-1.607c0.076-0.216,0.217-0.323,0.424-0.323h1.559c0.129,0,0.195,0.074,0.195,0.226
		c0,0.036-0.01,0.071-0.023,0.107l-0.562,1.613c-0.041,0.104-0.082,0.178-0.125,0.222c-0.068,0.062-0.166,0.095-0.295,0.095h-1.561
		c-0.127,0-0.193-0.072-0.193-0.22C32.475,24.409,32.482,24.371,32.496,24.336z"/>
	<path fill="#A6A6A5" d="M16.628,25.088c0,0.395,0.316,0.592,0.946,0.592h3.329l0.354-1.012h-3.086
		c-0.144,0-0.215-0.056-0.215-0.167c0-0.048,0.013-0.105,0.038-0.174l0.091-0.276h3.388l0.559-1.578
		c0.071-0.208,0.107-0.381,0.107-0.521c0-0.372-0.226-0.558-0.677-0.558h-3.156c-0.305,0-0.496,0.11-0.575,0.333l-0.984,2.85
		C16.668,24.807,16.628,24.977,16.628,25.088z M18.596,22.592c0.025-0.078,0.076-0.131,0.151-0.159
		c0.054-0.019,0.146-0.027,0.274-0.027h1.505c0.175,0,0.264,0.068,0.264,0.209c0,0.024-0.003,0.047-0.011,0.068l-0.118,0.356h-2.209
		L18.596,22.592z"/>
	<polygon fill="#A6A6A5" points="7.74,21.384 6.224,25.68 7.396,25.68 8.912,21.384 	"/>
	<path fill="#A6A6A5" d="M6.362,23.6c0-0.189-0.07-0.337-0.207-0.438c-0.138-0.103-0.317-0.153-0.535-0.153H3.668
		c-0.417-0.011-0.125-0.494-0.085-0.522c0.071-0.053,0.173-0.08,0.306-0.08h2.538l0.355-1.011H3.158
		c-0.33,0-0.535,0.158-0.613,0.476c-0.008,0.029-0.147,0.438-0.42,1.228c-0.04,0.114-0.059,0.221-0.059,0.32
		c0,0.193,0.072,0.343,0.215,0.449c0.132,0.102,0.307,0.151,0.522,0.151h1.952c0.183,0,0.274,0.057,0.274,0.17
		c0,0.015,0.02,0.479-0.548,0.479H1.948l-0.36,1.012h3.624c0.175,0,0.312-0.045,0.409-0.135c0.079-0.068,0.147-0.184,0.204-0.346
		c0.208-0.556,0.366-0.979,0.473-1.271C6.34,23.811,6.362,23.7,6.362,23.6z"/>
	<path fill="#A6A6A5" d="M48.703,21.947c0,0.155-0.037,0.351-0.117,0.579l-1.119,3.152h-1.162l1.031-2.941
		c0.01-0.034,0.016-0.071,0.016-0.105c0-0.15-0.064-0.226-0.189-0.226h-1.559c-0.215,0-0.354,0.104-0.426,0.322l-1.025,2.95h-1.176
		l1.383-3.941l0.029-0.086c0.068-0.15,0.219-0.256,0.396-0.256h3.279C48.492,21.396,48.703,21.58,48.703,21.947z"/>
	<path fill="#A6A6A5" d="M31.777,21.384l-0.361,1.022h-1.709l-0.373,1.049h0.004l-1.018,2.866l-0.301,0.85l-0.375,1.06v0.004
		l-0.043,0.116l-0.004,0.004c-0.059,0.139-0.188,0.236-0.346,0.255c-0.012,0.004-0.021,0.008-0.029,0.004h-0.887l0.512-1.442
		l0.299-0.85l0.23-0.643l1.158-3.272h-4.379c-0.124,0-0.232,0.026-0.326,0.083c-0.094,0.056-0.155,0.12-0.181,0.195l-1.063,2.994
		l-0.23,0.643l-0.3,0.85l-0.379,1.071l-0.042,0.116c-0.061,0.139-0.192,0.24-0.35,0.259h-0.92l0.515-1.446l0.3-0.85l1.007-2.841
		l0.515-1.462c0.15-0.417,0.469-0.623,0.965-0.623h3.465l0.004-0.012H31.777z"/>
	<path fill="#A6A6A5" d="M27.088,23.798c0.127,0,0.23-0.117,0.23-0.261s-0.104-0.261-0.23-0.261h-2.733
		c-0.128,0-0.23,0.117-0.23,0.261s0.103,0.261,0.23,0.261H27.088z"/>
	<path fill="#A6A6A5" d="M23.667,24.929c0,0.146,0.104,0.262,0.23,0.262h2.732c0.129,0,0.23-0.116,0.23-0.262
		c0-0.144-0.102-0.261-0.23-0.261h-2.732C23.771,24.668,23.667,24.785,23.667,24.929z"/>
	<path fill="#A6A6A5" d="M36.617,21.823c0,0.241-0.191,0.433-0.43,0.433c-0.24,0-0.432-0.191-0.432-0.433
		c0-0.022,0-0.041,0.004-0.06c0-0.011,0.004-0.019,0.004-0.026l0.029-0.086c0.008-0.019,0.016-0.034,0.023-0.05
		c0.004-0.003,0.004-0.003,0.004-0.003c0.012-0.019,0.021-0.034,0.033-0.049l0.008-0.004c0.08-0.094,0.195-0.15,0.326-0.15
		C36.426,21.396,36.617,21.587,36.617,21.823z"/>
	<polygon fill="#A6A6A5" points="22.356,26.321 22.056,27.171 1.298,27.171 1.587,26.321 	"/>
	<polygon fill="#A6A6A5" points="47.389,26.321 47.084,27.171 26.848,27.171 27.146,26.321 	"/>
</g>
</svg>
