<?xml version="1.0" encoding="utf-8"?>
<!-- Generator: Adobe Illustrator 16.0.0, SVG Export Plug-In . SVG Version: 6.00 Build 0)  -->
<!DOCTYPE svg PUBLIC "-//W3C//DTD SVG 1.1//EN" "http://www.w3.org/Graphics/SVG/1.1/DTD/svg11.dtd">
<svg version="1.1" id="Layer_1" xmlns="http://www.w3.org/2000/svg" xmlns:xlink="http://www.w3.org/1999/xlink" x="0px" y="0px"
	 width="50px" height="50px" viewBox="0 0 50 50" enable-background="new 0 0 50 50" xml:space="preserve">
<rect x="0" y="-0.023" fill="none" width="50" height="50.001"/>
<g>
	<g>
		<g>
			<path fill="#50B748" d="M18.061,21.375l3.048,6.096c0.554,1.108,1.461,1.108,2.016,0l3.048-6.096H18.061z"/>
		</g>
		<g>
			<path fill="#50B748" d="M29.645,22.329c0,0.115-0.02,0.227-0.056,0.328l-0.093,0.184l-2.315,4.63c-0.554,1.11-1.462,1.11-2.016,0
				l-1.02-2.039l-2.028-4.058h6.574C29.219,21.375,29.645,21.803,29.645,22.329z"/>
		</g>
	</g>
	<g>
		<g>
			<path fill="#98C93C" d="M9.948,21.375l3.048,6.096c0.554,1.108,1.461,1.108,2.016,0l3.049-6.096H9.948z"/>
		</g>
		<g>
			<path fill="#98C93C" d="M14.003,21.375l3.049,6.096c0.555,1.108,1.461,1.108,2.015,0l3.049-6.096H14.003z"/>
		</g>
	</g>
	<g>
		<g>
			<path fill="#50B748" d="M9.948,21.375l-2.028,4.058l-1.021,2.039c-0.554,1.11-1.461,1.11-2.016,0l-2.312-4.624l-0.099-0.196
				c-0.034-0.101-0.055-0.209-0.055-0.322c0-0.526,0.427-0.954,0.954-0.954H9.948z"/>
		</g>
		<g>
			<path fill="#50B748" d="M5.892,21.375l3.048,6.096c0.555,1.108,1.462,1.108,2.016,0l3.048-6.096H5.892z"/>
		</g>
	</g>
	<g>
		<g>
			<g>
				<path fill="#49B64B" d="M29.074,27.16h-0.368c-0.11,0-0.201-0.055-0.201-0.162c0-0.106,0.091-0.164,0.201-0.164h1.122
					c0.111,0,0.202,0.058,0.202,0.164c0,0.107-0.091,0.162-0.202,0.162h-0.366v1.215c0,0.117-0.075,0.196-0.195,0.196
					c-0.117,0-0.192-0.079-0.192-0.196V27.16z"/>
				<path fill="#49B64B" d="M30.153,26.977c0-0.113,0.069-0.172,0.172-0.172c0.104,0,0.174,0.059,0.174,0.172v0.477h0.004
					c0.069-0.091,0.19-0.184,0.386-0.184c0.208,0,0.438,0.104,0.438,0.455v0.673c0,0.093-0.039,0.174-0.174,0.174
					s-0.172-0.081-0.172-0.174v-0.604c0-0.141-0.069-0.24-0.218-0.24c-0.121,0-0.264,0.1-0.264,0.273v0.57
					c0,0.093-0.037,0.174-0.174,0.174c-0.135,0-0.172-0.081-0.172-0.174V26.977z"/>
				<path fill="#49B64B" d="M31.895,27.985c0,0.183,0.116,0.314,0.318,0.314c0.261,0,0.261-0.17,0.399-0.17
					c0.083,0,0.143,0.071,0.143,0.135c0,0.208-0.334,0.307-0.542,0.307c-0.483,0-0.665-0.328-0.665-0.629
					c0-0.402,0.243-0.673,0.653-0.673c0.397,0,0.625,0.282,0.625,0.567c0,0.117-0.036,0.148-0.152,0.148H31.895z M32.5,27.786
					c-0.021-0.159-0.137-0.273-0.291-0.273c-0.175,0-0.277,0.104-0.314,0.273H32.5z"/>
			</g>
		</g>
		<g>
			<path fill="#98C93C" d="M34.654,28.44c0,0.069-0.056,0.131-0.133,0.131c-0.112,0-0.143-0.069-0.166-0.222
				c-0.11,0.141-0.265,0.229-0.507,0.229c-0.601,0-0.831-0.413-0.831-0.893c0-0.575,0.36-0.893,0.887-0.893
				c0.432,0,0.661,0.258,0.661,0.41c0,0.135-0.099,0.17-0.182,0.17c-0.192,0-0.121-0.267-0.499-0.267
				c-0.27,0-0.479,0.174-0.479,0.605c0,0.336,0.166,0.569,0.482,0.569c0.206,0,0.386-0.141,0.405-0.351h-0.253
				c-0.083,0-0.176-0.029-0.176-0.148c0-0.095,0.055-0.147,0.152-0.147h0.477c0.114,0,0.16,0.057,0.16,0.162V28.44z"/>
			<path fill="#98C93C" d="M34.979,27.432c0-0.105,0.067-0.162,0.156-0.162c0.088,0,0.157,0.057,0.157,0.162v0.133h0.004
				c0.039-0.145,0.118-0.295,0.286-0.295c0.109,0,0.188,0.071,0.188,0.168c0,0.129-0.085,0.174-0.17,0.174h-0.062
				c-0.141,0-0.216,0.097-0.216,0.384v0.402c0,0.093-0.038,0.174-0.172,0.174c-0.135,0-0.173-0.081-0.173-0.174V27.432z"/>
			<path fill="#98C93C" d="M36.188,27.985c0,0.183,0.119,0.314,0.321,0.314c0.259,0,0.259-0.17,0.399-0.17
				c0.083,0,0.143,0.071,0.143,0.135c0,0.208-0.335,0.307-0.542,0.307c-0.483,0-0.667-0.328-0.667-0.629
				c0-0.402,0.243-0.673,0.654-0.673c0.396,0,0.626,0.282,0.626,0.567c0,0.117-0.036,0.148-0.152,0.148H36.188z M36.793,27.786
				c-0.018-0.159-0.136-0.273-0.29-0.273c-0.173,0-0.277,0.104-0.315,0.273H36.793z"/>
			<path fill="#98C93C" d="M37.637,27.985c0,0.183,0.118,0.314,0.32,0.314c0.261,0,0.261-0.17,0.399-0.17
				c0.083,0,0.143,0.071,0.143,0.135c0,0.208-0.335,0.307-0.542,0.307c-0.483,0-0.665-0.328-0.665-0.629
				c0-0.402,0.243-0.673,0.653-0.673c0.397,0,0.625,0.282,0.625,0.567c0,0.117-0.036,0.148-0.152,0.148H37.637z M38.244,27.786
				c-0.021-0.159-0.139-0.273-0.293-0.273c-0.173,0-0.275,0.104-0.314,0.273H38.244z"/>
			<path fill="#98C93C" d="M38.792,27.443c0-0.104,0.047-0.174,0.156-0.174c0.108,0,0.156,0.069,0.156,0.174v0.046h0.006
				c0.097-0.129,0.222-0.22,0.42-0.22c0.207,0,0.435,0.104,0.435,0.455v0.673c0,0.093-0.037,0.174-0.174,0.174
				c-0.135,0-0.172-0.081-0.172-0.174v-0.604c0-0.141-0.069-0.24-0.218-0.24c-0.121,0-0.264,0.1-0.264,0.273v0.57
				c0,0.093-0.037,0.174-0.174,0.174c-0.135,0-0.172-0.081-0.172-0.174V27.443z"/>
			<path fill="#98C93C" d="M40.533,27.985c0,0.183,0.118,0.314,0.318,0.314c0.261,0,0.261-0.17,0.401-0.17
				c0.083,0,0.143,0.071,0.143,0.135c0,0.208-0.334,0.307-0.544,0.307c-0.482,0-0.665-0.328-0.665-0.629
				c0-0.402,0.243-0.673,0.655-0.673c0.396,0,0.623,0.282,0.623,0.567c0,0.117-0.035,0.148-0.15,0.148H40.533z M41.139,27.786
				c-0.018-0.159-0.137-0.273-0.291-0.273c-0.172,0-0.277,0.104-0.314,0.273H41.139z"/>
			<path fill="#98C93C" d="M41.708,27.432c0-0.105,0.067-0.162,0.156-0.162c0.086,0,0.154,0.057,0.154,0.162v0.133h0.007
				c0.039-0.145,0.118-0.295,0.286-0.295c0.109,0,0.188,0.071,0.188,0.168c0,0.129-0.085,0.174-0.17,0.174h-0.062
				c-0.141,0-0.216,0.097-0.216,0.384v0.402c0,0.093-0.038,0.174-0.172,0.174c-0.137,0-0.173-0.081-0.173-0.174V27.432z"/>
		</g>
		<g>
			<g>
				<path fill="#49B64B" d="M44.471,28.385c-0.036,0.135-0.093,0.187-0.235,0.187c-0.146,0-0.198-0.063-0.231-0.194l-0.254-1.038
					h-0.006l-0.253,1.038c-0.029,0.131-0.085,0.194-0.231,0.194c-0.143,0-0.2-0.052-0.233-0.187l-0.335-1.294
					c-0.01-0.035-0.02-0.075-0.02-0.112c0-0.119,0.097-0.174,0.188-0.174c0.099,0,0.158,0.043,0.182,0.158l0.229,1.132h0.004
					l0.266-1.146c0.021-0.095,0.061-0.144,0.203-0.144c0.164,0,0.198,0.077,0.222,0.184l0.258,1.106h0.006l0.231-1.132
					c0.023-0.115,0.083-0.158,0.174-0.158s0.188,0.055,0.188,0.174c0,0.037-0.011,0.077-0.021,0.112L44.471,28.385z"/>
				<path fill="#49B64B" d="M45.203,27.985c0,0.183,0.118,0.314,0.32,0.314c0.259,0,0.259-0.17,0.399-0.17
					c0.083,0,0.143,0.071,0.143,0.135c0,0.208-0.334,0.307-0.542,0.307c-0.483,0-0.665-0.328-0.665-0.629
					c0-0.402,0.243-0.673,0.653-0.673c0.397,0,0.625,0.282,0.625,0.567c0,0.117-0.036,0.148-0.15,0.148H45.203z M45.811,27.786
					c-0.021-0.159-0.137-0.273-0.291-0.273c-0.175,0-0.277,0.104-0.316,0.273H45.811z"/>
				<path fill="#49B64B" d="M46.36,26.977c0-0.113,0.067-0.172,0.172-0.172c0.103,0,0.172,0.059,0.172,0.172v0.469h0.006
					c0.067-0.11,0.187-0.176,0.341-0.176c0.364,0,0.532,0.311,0.532,0.643c0,0.447-0.253,0.659-0.542,0.659
					c-0.168,0-0.309-0.071-0.364-0.22h-0.004v0.056c0,0.106-0.056,0.164-0.156,0.164c-0.107,0-0.156-0.058-0.156-0.164V26.977z
					 M46.964,27.54c-0.212-0.002-0.277,0.206-0.277,0.384c0,0.196,0.075,0.376,0.277,0.376c0.184-0.004,0.272-0.172,0.272-0.376
					C47.236,27.762,47.184,27.54,46.964,27.54z"/>
			</g>
		</g>
	</g>
</g>
</svg>
