<?xml version="1.0" encoding="utf-8"?>
<!-- Generator: Adobe Illustrator 22.0.0, SVG Export Plug-In . SVG Version: 6.00 Build 0)  -->
<svg version="1.1" id="Layer_1" xmlns="http://www.w3.org/2000/svg" xmlns:xlink="http://www.w3.org/1999/xlink" x="0px" y="0px"
	 viewBox="0 0 50 50" style="enable-background:new 0 0 50 50;" xml:space="preserve">
<style type="text/css">
	.st0{fill:none;}
	.st1{fill:#50B748;}
	.st2{fill:#98C93C;}
	.st3{fill:#49B64B;}
</style>
<rect y="0" class="st0" width="50" height="50"/>
<g>
	<g>
		<path class="st1" d="M21.5,19.8l3.7,7.4c0.7,1.4,1.8,1.4,2.5,0l3.7-7.4H21.5z"/>
	</g>
	<g>
		<path class="st1" d="M35.6,21c0,0.1,0,0.3-0.1,0.4l-0.1,0.2l-2.8,5.6c-0.7,1.4-1.8,1.4-2.5,0l-1.2-2.5l-2.5-4.9h8
			C35.1,19.8,35.6,20.3,35.6,21z"/>
	</g>
</g>
<g>
	<g>
		<path class="st2" d="M11.6,19.8l3.7,7.4c0.7,1.4,1.8,1.4,2.5,0l3.7-7.4H11.6z"/>
	</g>
	<g>
		<path class="st2" d="M16.5,19.8l3.7,7.4c0.7,1.4,1.8,1.4,2.5,0l3.7-7.4H16.5z"/>
	</g>
</g>
<g>
	<g>
		<path class="st1" d="M11.6,19.8l-2.5,4.9l-1.2,2.5c-0.7,1.4-1.8,1.4-2.5,0l-2.8-5.6l-0.1-0.2c0-0.1-0.1-0.3-0.1-0.4
			c0-0.6,0.5-1.2,1.2-1.2L11.6,19.8L11.6,19.8z"/>
	</g>
	<g>
		<path class="st1" d="M6.7,19.8l3.7,7.4c0.7,1.4,1.8,1.4,2.5,0l3.7-7.4H6.7z"/>
	</g>
</g>
<g>
	<g>
		<g>
			<path class="st3" d="M34.6,27.5h-0.3c-0.1,0-0.1,0-0.1-0.1c0-0.1,0.1-0.1,0.1-0.1h0.8c0.1,0,0.1,0,0.1,0.1c0,0.1-0.1,0.1-0.1,0.1
				h-0.3v0.9c0,0.1-0.1,0.1-0.1,0.1c-0.1,0-0.1-0.1-0.1-0.1L34.6,27.5L34.6,27.5z"/>
			<path class="st3" d="M35.4,27.4c0-0.1,0.1-0.1,0.1-0.1c0.1,0,0.1,0,0.1,0.1v0.3h0c0.1-0.1,0.1-0.1,0.3-0.1c0.2,0,0.3,0.1,0.3,0.3
				v0.5c0,0.1,0,0.1-0.1,0.1c-0.1,0-0.1-0.1-0.1-0.1V28c0-0.1-0.1-0.2-0.2-0.2c-0.1,0-0.2,0.1-0.2,0.2v0.4c0,0.1,0,0.1-0.1,0.1
				c-0.1,0-0.1-0.1-0.1-0.1C35.4,28.4,35.4,27.4,35.4,27.4z"/>
			<path class="st3" d="M36.7,28.1c0,0.1,0.1,0.2,0.2,0.2c0.2,0,0.2-0.1,0.3-0.1c0.1,0,0.1,0.1,0.1,0.1c0,0.2-0.2,0.2-0.4,0.2
				c-0.4,0-0.5-0.2-0.5-0.5c0-0.3,0.2-0.5,0.5-0.5c0.3,0,0.5,0.2,0.5,0.4c0,0.1,0,0.1-0.1,0.1L36.7,28.1L36.7,28.1z M37.1,28
				c0-0.1-0.1-0.2-0.2-0.2c-0.1,0-0.2,0.1-0.2,0.2H37.1z"/>
		</g>
	</g>
	<g>
		<path class="st2" d="M38.7,28.5C38.7,28.5,38.7,28.6,38.7,28.5c-0.2,0.1-0.2,0-0.2-0.1c-0.1,0.1-0.2,0.2-0.4,0.2
			c-0.4,0-0.6-0.3-0.6-0.7c0-0.4,0.3-0.7,0.6-0.7c0.3,0,0.5,0.2,0.5,0.3c0,0.1-0.1,0.1-0.1,0.1c-0.1,0-0.1-0.2-0.4-0.2
			c-0.2,0-0.4,0.1-0.4,0.4c0,0.2,0.1,0.4,0.4,0.4c0.2,0,0.3-0.1,0.3-0.3h-0.2c-0.1,0-0.1,0-0.1-0.1c0-0.1,0-0.1,0.1-0.1h0.3
			c0.1,0,0.1,0,0.1,0.1L38.7,28.5L38.7,28.5z"/>
		<path class="st2" d="M38.9,27.7c0-0.1,0-0.1,0.1-0.1c0.1,0,0.1,0,0.1,0.1v0.1h0c0-0.1,0.1-0.2,0.2-0.2c0.1,0,0.1,0.1,0.1,0.1
			c0,0.1-0.1,0.1-0.1,0.1h0c-0.1,0-0.2,0.1-0.2,0.3v0.3c0,0.1,0,0.1-0.1,0.1c-0.1,0-0.1-0.1-0.1-0.1L38.9,27.7L38.9,27.7z"/>
		<path class="st2" d="M39.8,28.1c0,0.1,0.1,0.2,0.2,0.2c0.2,0,0.2-0.1,0.3-0.1c0.1,0,0.1,0.1,0.1,0.1c0,0.2-0.2,0.2-0.4,0.2
			c-0.4,0-0.5-0.2-0.5-0.5c0-0.3,0.2-0.5,0.5-0.5c0.3,0,0.5,0.2,0.5,0.4c0,0.1,0,0.1-0.1,0.1L39.8,28.1L39.8,28.1z M40.3,28
			c0-0.1-0.1-0.2-0.2-0.2c-0.1,0-0.2,0.1-0.2,0.2H40.3z"/>
		<path class="st2" d="M40.9,28.1c0,0.1,0.1,0.2,0.2,0.2c0.2,0,0.2-0.1,0.3-0.1c0.1,0,0.1,0.1,0.1,0.1c0,0.2-0.2,0.2-0.4,0.2
			c-0.4,0-0.5-0.2-0.5-0.5c0-0.3,0.2-0.5,0.5-0.5c0.3,0,0.5,0.2,0.5,0.4c0,0.1,0,0.1-0.1,0.1L40.9,28.1L40.9,28.1z M41.3,28
			c0-0.1-0.1-0.2-0.2-0.2c-0.1,0-0.2,0.1-0.2,0.2H41.3z"/>
		<path class="st2" d="M41.7,27.7c0-0.1,0-0.1,0.1-0.1c0.1,0,0.1,0.1,0.1,0.1v0h0c0.1-0.1,0.2-0.2,0.3-0.2c0.2,0,0.3,0.1,0.3,0.3
			v0.5c0,0.1,0,0.1-0.1,0.1c-0.1,0-0.1-0.1-0.1-0.1V28c0-0.1-0.1-0.2-0.2-0.2c-0.1,0-0.2,0.1-0.2,0.2v0.4c0,0.1,0,0.1-0.1,0.1
			c-0.1,0-0.1-0.1-0.1-0.1L41.7,27.7L41.7,27.7z"/>
		<path class="st2" d="M43,28.1c0,0.1,0.1,0.2,0.2,0.2c0.2,0,0.2-0.1,0.3-0.1c0.1,0,0.1,0.1,0.1,0.1c0,0.2-0.2,0.2-0.4,0.2
			c-0.4,0-0.5-0.2-0.5-0.5c0-0.3,0.2-0.5,0.5-0.5c0.3,0,0.5,0.2,0.5,0.4c0,0.1,0,0.1-0.1,0.1L43,28.1L43,28.1z M43.5,28
			c0-0.1-0.1-0.2-0.2-0.2c-0.1,0-0.2,0.1-0.2,0.2H43.5z"/>
		<path class="st2" d="M43.9,27.7c0-0.1,0-0.1,0.1-0.1c0.1,0,0.1,0,0.1,0.1v0.1h0c0-0.1,0.1-0.2,0.2-0.2c0.1,0,0.1,0.1,0.1,0.1
			c0,0.1-0.1,0.1-0.1,0.1h0c-0.1,0-0.2,0.1-0.2,0.3v0.3c0,0.1,0,0.1-0.1,0.1c-0.1,0-0.1-0.1-0.1-0.1L43.9,27.7L43.9,27.7z"/>
	</g>
	<g>
		<g>
			<path class="st3" d="M45.9,28.4c0,0.1-0.1,0.1-0.2,0.1c-0.1,0-0.1,0-0.2-0.1l-0.2-0.8h0l-0.2,0.8c0,0.1-0.1,0.1-0.2,0.1
				c-0.1,0-0.1,0-0.2-0.1l-0.2-0.9c0,0,0-0.1,0-0.1c0-0.1,0.1-0.1,0.1-0.1c0.1,0,0.1,0,0.1,0.1l0.2,0.8h0l0.2-0.8
				c0-0.1,0-0.1,0.1-0.1c0.1,0,0.1,0.1,0.2,0.1l0.2,0.8h0l0.2-0.8c0-0.1,0.1-0.1,0.1-0.1c0.1,0,0.1,0,0.1,0.1c0,0,0,0.1,0,0.1
				L45.9,28.4z"/>
			<path class="st3" d="M46.4,28.1c0,0.1,0.1,0.2,0.2,0.2c0.2,0,0.2-0.1,0.3-0.1c0.1,0,0.1,0.1,0.1,0.1c0,0.2-0.2,0.2-0.4,0.2
				c-0.4,0-0.5-0.2-0.5-0.5c0-0.3,0.2-0.5,0.5-0.5c0.3,0,0.5,0.2,0.5,0.4c0,0.1,0,0.1-0.1,0.1L46.4,28.1L46.4,28.1z M46.9,28
				c0-0.1-0.1-0.2-0.2-0.2c-0.1,0-0.2,0.1-0.2,0.2H46.9z"/>
			<path class="st3" d="M47.3,27.4c0-0.1,0-0.1,0.1-0.1c0.1,0,0.1,0,0.1,0.1v0.3h0c0-0.1,0.1-0.1,0.2-0.1c0.3,0,0.4,0.2,0.4,0.5
				c0,0.3-0.2,0.5-0.4,0.5c-0.1,0-0.2-0.1-0.3-0.2h0v0c0,0.1,0,0.1-0.1,0.1c-0.1,0-0.1,0-0.1-0.1L47.3,27.4L47.3,27.4z M47.7,27.8
				c-0.2,0-0.2,0.2-0.2,0.3c0,0.1,0.1,0.3,0.2,0.3c0.1,0,0.2-0.1,0.2-0.3C47.9,28,47.9,27.8,47.7,27.8z"/>
		</g>
	</g>
</g>
</svg>
