<?xml version="1.0" encoding="utf-8"?>
<!-- Generator: Adobe Illustrator 16.0.0, SVG Export Plug-In . SVG Version: 6.00 Build 0)  -->
<!DOCTYPE svg PUBLIC "-//W3C//DTD SVG 1.1//EN" "http://www.w3.org/Graphics/SVG/1.1/DTD/svg11.dtd">
<svg version="1.1" id="Layer_1" xmlns="http://www.w3.org/2000/svg" xmlns:xlink="http://www.w3.org/1999/xlink" x="0px" y="0px"
	 width="50px" height="50px" viewBox="0 0 50 50" enable-background="new 0 0 50 50" xml:space="preserve">
<rect x="0" y="-0.023" fill="none" width="50" height="50.001"/>
<g>
	<polygon fill="#D6006E" points="39.66,11.889 33.222,11.889 23.321,21.817 23.309,28.239 23.309,28.243 28.544,33.521 
		35.024,33.521 26.526,25.023 	"/>
</g>
<g>
	<polygon fill="#D6006E" points="21.546,27.104 21.547,20.74 24.197,18.069 24.197,18.069 30.378,11.889 24.197,11.889 
		24.197,11.889 18.017,11.889 18.017,11.889 11.836,11.889 11.836,18.069 18.017,18.069 18.017,30.635 	"/>
</g>
<g>
	<polygon fill="#D6006E" points="23.309,33.521 23.309,28.244 18.032,33.521 	"/>
</g>
<g>
	<path fill="#D6006E" d="M10.416,35.104c-0.032,0-0.059-0.011-0.081-0.033c-0.022-0.022-0.033-0.049-0.033-0.08
		c0-0.032,0.011-0.06,0.033-0.082c0.021-0.021,0.049-0.032,0.081-0.032h2.963c0.032,0,0.059,0.011,0.081,0.032
		c0.022,0.022,0.033,0.05,0.033,0.082c0,0.031-0.011,0.058-0.033,0.08s-0.049,0.033-0.081,0.033h-1.368v2.848
		c0,0.032-0.011,0.06-0.033,0.082c-0.022,0.021-0.049,0.032-0.081,0.032s-0.059-0.011-0.081-0.032
		c-0.022-0.022-0.033-0.05-0.033-0.082v-2.848H10.416z"/>
	<path fill="#D6006E" d="M17.138,37.951c0,0.032-0.011,0.06-0.033,0.082c-0.022,0.021-0.049,0.032-0.081,0.032
		s-0.058-0.011-0.08-0.034c-0.006-0.004-0.011-0.009-0.014-0.013l-1.433-1.434h-1.322v1.366c0,0.032-0.011,0.06-0.033,0.082
		c-0.022,0.021-0.049,0.032-0.081,0.032c-0.032,0-0.059-0.011-0.081-0.032c-0.022-0.022-0.033-0.05-0.033-0.082V34.99
		c0-0.032,0.011-0.06,0.033-0.082c0.021-0.021,0.049-0.032,0.081-0.032h2.222c0.235,0,0.437,0.083,0.604,0.25
		c0.167,0.168,0.25,0.368,0.25,0.604c0,0.235-0.083,0.437-0.25,0.604c-0.167,0.167-0.369,0.251-0.604,0.251h-0.462l1.285,1.285
		C17.128,37.893,17.138,37.92,17.138,37.951z M16.284,36.356c0.173,0,0.321-0.061,0.443-0.183c0.123-0.123,0.184-0.271,0.184-0.443
		c0-0.174-0.061-0.321-0.184-0.443c-0.122-0.122-0.27-0.184-0.443-0.184h-2.107v1.253H16.284z"/>
	<path fill="#D6006E" d="M17.806,38.012c-0.005,0.008-0.01,0.014-0.016,0.02c-0.022,0.023-0.05,0.034-0.082,0.034
		c-0.032,0-0.059-0.011-0.082-0.032c-0.022-0.022-0.033-0.05-0.033-0.082c0-0.029,0.01-0.056,0.029-0.077l1.452-2.894
		c0.003-0.029,0.015-0.054,0.034-0.072c0.021-0.021,0.048-0.032,0.08-0.032c0.032,0,0.059,0.011,0.083,0.032
		c0.011,0.012,0.019,0.024,0.025,0.038l0.004-0.003l1.488,2.968l-0.009,0.005c0.002,0.012,0.004,0.023,0.004,0.035
		c0,0.032-0.011,0.06-0.033,0.082c-0.022,0.021-0.049,0.032-0.081,0.032s-0.058-0.011-0.08-0.034
		c-0.023-0.021-0.034-0.047-0.034-0.077l-0.23-0.458h-2.258l-0.259,0.518L17.806,38.012z M19.198,35.244l-1.016,2.024h2.03
		L19.198,35.244z"/>
	<path fill="#D6006E" d="M21.24,34.99c0-0.032,0.011-0.06,0.033-0.082c0.022-0.021,0.049-0.032,0.081-0.032
		c0.032,0,0.059,0.011,0.082,0.032l2.767,2.768V34.99c0-0.032,0.011-0.06,0.033-0.082c0.022-0.021,0.049-0.032,0.081-0.032
		s0.059,0.011,0.081,0.032c0.022,0.022,0.033,0.05,0.033,0.082v2.961c0,0.032-0.011,0.06-0.033,0.082
		c-0.022,0.021-0.049,0.032-0.081,0.032s-0.059-0.011-0.08-0.034c-0.005-0.003-0.009-0.007-0.014-0.011l-2.755-2.758v2.688
		c0,0.032-0.011,0.06-0.033,0.082c-0.022,0.021-0.049,0.032-0.081,0.032c-0.032,0-0.059-0.011-0.081-0.032
		c-0.022-0.022-0.033-0.05-0.033-0.082V34.99z"/>
	<path fill="#D6006E" d="M27.963,34.876c0.032,0,0.058,0.011,0.08,0.032c0.022,0.022,0.033,0.05,0.033,0.082
		c0,0.031-0.011,0.058-0.033,0.08s-0.048,0.033-0.08,0.033h-2.222c-0.174,0-0.322,0.062-0.444,0.184s-0.184,0.27-0.184,0.443
		c0,0.173,0.062,0.32,0.184,0.443c0.122,0.122,0.27,0.183,0.444,0.183h1.48c0.236,0,0.438,0.084,0.604,0.251s0.25,0.368,0.25,0.604
		c0,0.236-0.083,0.437-0.25,0.604c-0.167,0.167-0.368,0.25-0.604,0.25H25c-0.032,0-0.059-0.011-0.081-0.032
		c-0.022-0.022-0.033-0.05-0.033-0.082c0-0.031,0.011-0.058,0.033-0.08s0.049-0.033,0.081-0.033h2.222
		c0.173,0,0.32-0.062,0.443-0.184s0.184-0.27,0.184-0.443c0-0.173-0.061-0.32-0.184-0.443c-0.123-0.122-0.271-0.183-0.443-0.183
		h-1.48c-0.236,0-0.438-0.084-0.604-0.251s-0.25-0.368-0.25-0.604c0-0.236,0.083-0.437,0.25-0.604
		c0.167-0.167,0.368-0.25,0.604-0.25H27.963z"/>
	<path fill="#D6006E" d="M31.255,35.343c0.312,0.312,0.467,0.688,0.467,1.128s-0.155,0.816-0.467,1.128s-0.688,0.467-1.128,0.467
		c-0.439,0-0.815-0.155-1.127-0.467c-0.312-0.312-0.468-0.688-0.468-1.128s0.155-0.816,0.468-1.128
		c0.312-0.312,0.688-0.467,1.127-0.467C30.567,34.876,30.943,35.031,31.255,35.343z M30.127,35.104c-0.379,0-0.701,0.133-0.967,0.4
		c-0.268,0.266-0.399,0.588-0.399,0.967s0.132,0.701,0.399,0.967c0.266,0.268,0.588,0.4,0.967,0.4s0.701-0.133,0.967-0.4
		c0.268-0.266,0.4-0.588,0.4-0.967s-0.133-0.701-0.4-0.967C30.828,35.236,30.506,35.104,30.127,35.104z"/>
	<path fill="#D6006E" d="M32.178,34.99c0-0.032,0.012-0.06,0.033-0.082c0.022-0.021,0.049-0.032,0.081-0.032s0.06,0.011,0.082,0.032
		l2.767,2.768V34.99c0-0.032,0.012-0.06,0.033-0.082c0.021-0.021,0.049-0.032,0.081-0.032c0.031,0,0.058,0.011,0.08,0.032
		c0.022,0.022,0.033,0.05,0.033,0.082v2.961c0,0.032-0.011,0.06-0.033,0.082c-0.022,0.021-0.049,0.032-0.08,0.032
		c-0.032,0-0.06-0.011-0.08-0.034c-0.005-0.003-0.009-0.007-0.014-0.011l-2.756-2.758v2.688c0,0.032-0.011,0.06-0.032,0.082
		c-0.022,0.021-0.049,0.032-0.081,0.032s-0.059-0.011-0.081-0.032c-0.021-0.022-0.033-0.05-0.033-0.082V34.99z"/>
	<path fill="#D6006E" d="M35.824,34.99c0-0.032,0.011-0.06,0.033-0.082c0.021-0.021,0.049-0.032,0.08-0.032
		c0.032,0,0.059,0.011,0.081,0.032c0.022,0.022,0.033,0.05,0.033,0.082v2.961c0,0.032-0.011,0.06-0.033,0.082
		c-0.022,0.021-0.049,0.032-0.081,0.032c-0.031,0-0.059-0.011-0.08-0.032c-0.022-0.022-0.033-0.05-0.033-0.082V34.99z"/>
	<path fill="#D6006E" d="M39.584,34.876c0.031,0,0.059,0.011,0.08,0.032c0.023,0.022,0.033,0.05,0.033,0.082
		c0,0.031-0.01,0.058-0.031,0.079l-1.399,1.399l1.385,1.388l-0.001,0.002c0.005,0.004,0.009,0.007,0.016,0.012
		c0.021,0.022,0.031,0.05,0.031,0.081c0,0.032-0.01,0.06-0.033,0.082c-0.021,0.021-0.049,0.032-0.08,0.032
		c-0.032,0-0.059-0.011-0.079-0.034c-0.007-0.004-0.011-0.009-0.015-0.013l-1.434-1.434h-1.321v1.366
		c0,0.032-0.011,0.06-0.032,0.082c-0.023,0.021-0.049,0.032-0.081,0.032s-0.06-0.011-0.082-0.032
		c-0.021-0.022-0.032-0.05-0.032-0.082V34.99c0-0.032,0.011-0.06,0.032-0.082c0.022-0.021,0.05-0.032,0.082-0.032
		s0.058,0.011,0.081,0.032c0.021,0.022,0.032,0.05,0.032,0.082v1.366h1.319l1.45-1.448C39.525,34.887,39.552,34.876,39.584,34.876z"
		/>
</g>
<polygon fill="#FFFFFF" points="18.017,30.635 18.032,33.521 23.309,28.244 23.321,21.817 33.222,11.889 30.378,11.889 
	21.547,20.74 21.546,27.104 "/>
</svg>
