<?xml version="1.0" encoding="utf-8"?>
<!-- Generator: Adobe Illustrator 22.0.0, SVG Export Plug-In . SVG Version: 6.00 Build 0)  -->
<svg version="1.1" id="Layer_1" xmlns="http://www.w3.org/2000/svg" xmlns:xlink="http://www.w3.org/1999/xlink" x="0px" y="0px"
	 viewBox="0 0 50 50" style="enable-background:new 0 0 50 50;" xml:space="preserve">
<style type="text/css">
	.st0{fill:none;}
	.st1{fill:#512E27;}
	.st2{fill-rule:evenodd;clip-rule:evenodd;fill:#C09849;}
</style>
<rect class="st0" width="50" height="50"/>
<g>
	<rect x="22.885" y="24.507" class="st0" width="2.987" height="2.987"/>
	<g>
		<path class="st1" d="M18.767,12.084c0.009,0,0.018,0,0.027-0.001c0.193-0.004,0.369-0.188,0.447-0.376
			c0.049-0.133,0.041-0.261-0.022-0.351c-0.053-0.076-0.139-0.115-0.236-0.104c-0.178,0.021-0.361,0.185-0.434,0.385
			c-0.053,0.127-0.049,0.251,0.01,0.339C18.603,12.045,18.68,12.084,18.767,12.084z M18.767,11.94L18.767,11.94v0.001V11.94z"/>
		<path class="st1" d="M30.322,14.099c0.076,0.024,0.154,0.084,0.199,0.159c0.008,0.012,0.016,0.032,0.026,0.053
			c0.043,0.096,0.102,0.227,0.23,0.248l0.025,0.002c0.069,0,0.13-0.026,0.177-0.075c0.088-0.091,0.093-0.23,0.09-0.297
			c-0.019-0.154-0.101-0.302-0.212-0.392c-0.173-0.16-0.395-0.241-0.661-0.241c-0.308,0-0.615,0.111-0.816,0.203
			c-0.292,0.125-0.551,0.268-0.791,0.424c0.063-0.079,0.124-0.159,0.183-0.239l0.012-0.019c0.035-0.068,0.037-0.142,0.003-0.209
			c-0.049-0.097-0.158-0.146-0.236-0.158l-0.038-0.002c-0.158,0-0.295,0.066-0.396,0.191l-0.174,0.215
			c-0.079,0.097-0.158,0.195-0.236,0.293L27.7,14.259c-0.133,0.101-0.247,0.201-0.379,0.316c-0.122,0.107-0.245,0.218-0.368,0.328
			c-0.121,0.109-0.242,0.219-0.362,0.324c-0.287,0.251-0.576,0.49-0.881,0.728c-0.138,0.107-0.281,0.218-0.434,0.311
			c0.22-0.387,0.497-0.749,0.765-1.102c0.128-0.169,0.261-0.343,0.384-0.514l0.023-0.03c0.07-0.09,0.166-0.212,0.193-0.353
			l0.003-0.017c0.006-0.086-0.028-0.142-0.057-0.173c-0.031-0.033-0.088-0.072-0.186-0.072c-0.071,0-0.147,0.022-0.207,0.047
			c-0.122,0.066-0.502,0.492-0.502,0.492c-0.113,0.12-0.233,0.235-0.351,0.349c-0.529,0.551-1.596,1.373-2.208,1.386
			c-0.021,0-0.03-0.003-0.031-0.003c-0.029-0.042,0.015-0.265,0.152-0.52c0.192-0.368,0.507-0.897,0.919-1.319
			c0.433-0.43,0.816-0.692,1.211-0.828c0.136-0.05,0.343-0.11,0.557-0.11c0.274,0,0.472,0.099,0.588,0.295
			c0.003,0.007,0.005,0.015,0.008,0.023c0.029,0.083,0.091,0.254,0.257,0.254c0.018,0,0.037-0.003,0.055-0.007
			c0.144-0.037,0.196-0.169,0.152-0.405l-0.006-0.023c-0.101-0.289-0.383-0.444-0.605-0.491c-0.533-0.141-1.179,0.001-1.921,0.426
			c-0.117,0.068-0.234,0.147-0.349,0.233l-0.032-0.03H24.03c-0.085,0-0.085,0-0.858,0.885c-0.129,0.148-0.231,0.264-0.257,0.292
			c-0.448,0.481-0.894,0.933-1.42,1.191c-0.291,0.137-0.567,0.171-0.864,0.114c-0.153-0.033-0.302-0.079-0.444-0.137
			c0.297-0.229,0.58-0.492,0.896-0.802c0.401-0.367,0.786-0.756,1.157-1.132l0.292-0.295c0.018-0.019,0.094-0.085,0.188-0.167
			c0.099-0.087,0.217-0.191,0.313-0.277c0.134-0.091,0.249-0.262,0.207-0.407c-0.011-0.036-0.06-0.155-0.25-0.155h0
			c-0.082,0.003-0.161,0.041-0.244,0.081c-0.047,0.023-0.096,0.047-0.141,0.059c-0.353,0.114-0.733,0.161-1.1,0.207
			c-0.451,0.057-0.918,0.115-1.352,0.291c-0.257,0.092-0.462,0.263-0.548,0.46c-0.017,0.038-0.028,0.077-0.036,0.117
			c-0.136,0.145-0.277,0.341-0.335,0.426l-0.003-0.002l-0.724,0.862c-0.292,0.33-0.558,0.608-0.808,0.849
			c-0.035,0.031-0.072,0.067-0.11,0.104c-0.087,0.083-0.185,0.177-0.284,0.25c0.2-0.539,0.45-1.076,0.693-1.597
			c0.214-0.46,0.436-0.936,0.617-1.403l0.007-0.022c0.002-0.007,0.005-0.015,0.008-0.024c0.022-0.059,0.063-0.169-0.004-0.271
			c-0.037-0.057-0.099-0.09-0.17-0.09s-0.136,0.032-0.192,0.059l-0.022,0.012c-0.155,0.109-0.279,0.271-0.382,0.497
			c-0.099,0.23-0.199,0.46-0.3,0.69c-0.071,0.161-0.142,0.323-0.213,0.487c0,0,0,0,0,0c-0.125,0-0.241,0.005-0.298,0.01
			c-0.094,0.01-0.19,0.02-0.285,0.033c0.08-0.362,0.088-0.812-0.106-1.134c-0.127-0.2-0.35-0.31-0.626-0.31
			c-0.106,0-0.214,0.017-0.322,0.05c-0.603,0.186-1.039,0.744-1.386,1.263c-0.028,0.041-0.055,0.081-0.082,0.123
			c0.16-0.514,0.315-1.026,0.468-1.53c0.108-0.357,0.217-0.714,0.327-1.075c0.381-1.309,0.746-2.476,1.119-3.58
			c0.008-0.034,0.033-0.136-0.029-0.214c-0.033-0.042-0.084-0.066-0.139-0.066c-0.125,0-0.255,0.129-0.297,0.186
			c-0.137,0.165-0.216,0.365-0.278,0.541c-0.468,1.322-0.875,2.682-1.271,4.003c-0.161,0.544-0.324,1.097-0.484,1.653
			c-0.104,0.17-0.284,0.531-0.663,1.301c-0.042,0.085-0.071,0.144-0.079,0.161c-0.045,0.082-0.089,0.163-0.133,0.245
			c-0.134,0.251-0.262,0.487-0.411,0.728c-0.081,0.135-0.264,0.391-0.396,0.541c-0.002-0.139,0.023-0.285,0.046-0.427
			c0.011-0.069,0.022-0.135,0.029-0.192c0.13-0.68,0.335-1.456,0.519-2.127c0.024-0.096,0.056-0.185,0.086-0.272
			c0.027-0.081,0.054-0.156,0.071-0.224c0.026-0.092,0.013-0.178-0.036-0.243c-0.088-0.115-0.282-0.127-0.428-0.026l-0.014,0.011
			c-0.123,0.11-0.223,0.268-0.286,0.451c-0.01,0.036-0.033,0.131-0.06,0.242c-0.039,0.16-0.111,0.458-0.127,0.5l-0.01,0.026
			c-0.108,0.386-0.211,0.706-0.304,0.947c-0.304,0.71-0.589,1.213-0.927,1.634c-0.279,0.353-0.432,0.454-0.511,0.481
			c-0.016-0.059-0.039-0.205-0.021-0.54c0.052-0.591,0.2-1.209,0.457-1.897c0.055-0.19,0.143-0.369,0.235-0.559
			c0.062-0.128,0.126-0.259,0.182-0.399c0.032-0.086,0.028-0.158-0.011-0.216c-0.021-0.03-0.069-0.08-0.161-0.08
			c-0.112,0-0.24,0.077-0.289,0.118c-0.145,0.133-0.257,0.291-0.338,0.479c-0.29,0.593-0.489,1.235-0.59,1.905
			c-0.063,0.368-0.097,0.681-0.056,1.007c0.01,0.067,0.03,0.2,0.086,0.327c0,0-0.001,0-0.002,0
			c-0.815,0.059-1.678,0.326-2.717,0.839c-0.412,0.208-0.843,0.463-1.393,0.825c-0.236,0.151-0.468,0.313-0.692,0.468
			c-0.223,0.155-0.453,0.315-0.673,0.457c-0.011,0.006-0.033,0.019-0.063,0.037c-0.118,0.072-0.204,0.12-0.266,0.152
			c0.126-0.616,0.42-1.197,0.737-1.786c0.51-0.957,1.089-1.834,1.739-2.802l1.845-2.798c0.566-0.884,1.163-1.696,1.795-2.555
			l0.067-0.092c0.016-0.019,0.159-0.193,0.125-0.357c-0.003-0.013-0.007-0.027-0.011-0.039L9.93,11.032
			c-0.012-0.009-0.024-0.016-0.038-0.023c-0.09-0.044-0.208-0.019-0.28,0.005c-0.68,0.244-1.341,0.554-1.898,0.826
			c-0.416,0.207-0.956,0.484-1.454,0.793c-0.531,0.333-0.949,0.657-1.276,0.987c-0.213,0.207-0.38,0.416-0.514,0.648
			c-0.089,0.18-0.255,0.516-0.134,0.819c0.064,0.141,0.172,0.156,0.217,0.156c0.107,0,0.204-0.08,0.253-0.206l0.013-0.032
			c0.04-0.099,0.085-0.21,0.113-0.304c0.151-0.453,0.651-0.994,0.949-1.246c0.507-0.423,1.116-0.808,1.866-1.179
			c0.295-0.156,0.634-0.313,1.036-0.478l0.041-0.017c0.154-0.064,0.305-0.127,0.456-0.185c-0.078,0.094-0.159,0.186-0.243,0.281
			c-0.139,0.159-0.283,0.323-0.41,0.493c-0.633,0.778-1.258,1.651-1.966,2.744c-0.581,0.882-1.202,1.834-1.802,2.826
			c-0.524,0.893-1.118,1.906-1.474,2.97l-0.007,0.022c-0.075,0.229-0.16,0.489-0.167,0.744c-0.016,0.2,0.074,0.354,0.244,0.405
			c0.028,0.007,0.059,0.01,0.09,0.01c0.126,0,0.242-0.055,0.335-0.1l0.035-0.016c0.256-0.139,0.506-0.313,0.747-0.48
			c0.19-0.132,0.386-0.269,0.59-0.391c1.044-0.709,1.884-1.168,2.728-1.487c0.426-0.169,0.871-0.299,1.36-0.398
			c0.094-0.019,0.186-0.035,0.279-0.05c0.097-0.016,0.194-0.033,0.294-0.053l0.02-0.005c0.018-0.006,0.032-0.015,0.045-0.024
			c0.225-0.013,0.401-0.166,0.544-0.317c0.228-0.233,0.425-0.493,0.601-0.787c0.134-0.208,0.253-0.421,0.357-0.631
			c-0.017,0.199-0.023,0.396-0.006,0.587c0.009,0.12,0.063,0.366,0.21,0.45c0.153,0.102,0.339,0.059,0.511-0.131
			c0.215-0.222,0.377-0.515,0.536-0.802c0.151-0.253,0.296-0.516,0.434-0.782c-0.019,0.072-0.039,0.144-0.058,0.216l-0.033,0.118
			c-0.047,0.168-0.096,0.341-0.127,0.523c-0.017,0.138-0.016,0.219,0.036,0.278l0.051,0.053h0.065l0.047-0.003l0.033-0.019
			c0.069-0.039,0.107-0.117,0.162-0.241c0.008-0.018,0.015-0.035,0.022-0.05c0.254-0.544,0.433-0.917,0.537-1.113l0.046-0.094
			c0.257-0.532,0.549-1.135,0.927-1.595c0.24-0.294,0.455-0.487,0.692-0.622c0.122-0.063,0.256-0.1,0.359-0.1
			c0.082,0,0.141,0.022,0.173,0.056c0.091,0.122,0.155,0.405-0.042,1.065c-0.6,0.195-1.113,0.512-1.526,0.942
			c-0.252,0.265-0.444,0.554-0.551,0.824c-0.021,0.044-0.201,0.436-0.063,0.704c0.04,0.077,0.124,0.175,0.305,0.205
			c0.674,0.061,1.509-0.927,1.664-1.121c0.332-0.417,0.584-0.857,0.75-1.309c0.178-0.033,0.36-0.056,0.546-0.072
			c-0.15,0.353-0.296,0.711-0.429,1.069c-0.121,0.376-0.083,0.63,0.108,0.753c0.046,0.032,0.1,0.048,0.16,0.048
			c0.306,0,0.772-0.454,1.23-0.945c0.034-0.036,0.06-0.064,0.078-0.083c0.439-0.467,0.859-0.962,1.247-1.469
			c0.04-0.05,0.075-0.095,0.107-0.138c0.167,0.223,0.454,0.307,0.692,0.307l0.039,0c0.072-0.003,0.245-0.02,0.3-0.117l0.04-0.077
			l-0.028-0.052c-0.031-0.097-0.151-0.102-0.234-0.106c-0.038-0.002-0.079-0.003-0.102-0.006c-0.159-0.034-0.199-0.066-0.273-0.136
			c-0.04-0.037-0.058-0.076-0.054-0.116c0.005-0.051,0.042-0.103,0.1-0.142c0.286-0.132,0.658-0.188,1.018-0.242
			c0.141-0.021,0.283-0.043,0.419-0.068c0.065-0.012,0.13-0.023,0.196-0.035c0.088-0.016,0.177-0.031,0.267-0.048
			c-0.017,0.017-0.034,0.034-0.052,0.051c-0.13,0.133-0.257,0.269-0.385,0.404c-0.188,0.199-0.381,0.405-0.583,0.603l-0.01,0.011
			c-0.401,0.4-0.815,0.813-1.267,1.148c-0.039-0.016-0.077-0.034-0.115-0.05c-0.162-0.073-0.329-0.148-0.51-0.148
			c-0.055,0-0.109,0.007-0.16,0.021c-0.295,0.08-0.638,0.332-0.722,0.661c-0.034,0.145,0.013,0.242,0.058,0.298
			c0.107,0.135,0.298,0.155,0.403,0.155l0.029-0.001c0.211-0.007,0.443-0.089,0.725-0.253c0.047-0.026,0.095-0.056,0.142-0.086
			c0.02-0.013,0.041-0.026,0.061-0.038c0.015,0.008,0.03,0.016,0.045,0.024c0.105,0.057,0.215,0.116,0.325,0.155
			c0.365,0.167,0.667,0.217,0.959,0.163c0.304-0.056,0.596-0.187,0.863-0.385c0.284-0.193,0.54-0.415,0.772-0.644
			c-0.006,0.025-0.013,0.05-0.018,0.075c-0.031,0.132-0.086,0.463,0.076,0.682c0.082,0.111,0.206,0.175,0.359,0.185
			c0.47,0.033,1.258-0.477,1.811-0.889c-0.109,0.212-0.2,0.434-0.202,0.662c-0.002,0.107,0.026,0.191,0.084,0.25
			c0.036,0.036,0.1,0.08,0.204,0.08c0.166,0,0.35-0.112,0.418-0.159c0.402-0.256,0.78-0.568,1.146-0.885
			c-0.209,0.294-0.408,0.59-0.589,0.891l-0.027,0.045l0.009,0.052c0.014,0.085,0.081,0.144,0.164,0.144
			c0.058,0,0.105-0.029,0.149-0.062c0.218-0.188,0.636-0.631,0.942-0.955c0.106-0.112,0.198-0.211,0.261-0.275
			c0.63-0.601,1.311-1.211,2.083-1.475C29.735,14.091,30.066,14.005,30.322,14.099z M15.865,15.623
			c-0.025,0.056-0.052,0.112-0.08,0.168c-0.246,0.507-0.595,1.131-1.112,1.459l-0.015,0.008c-0.072,0.041-0.263,0.151-0.369,0.151
			c-0.014,0-0.019-0.002-0.016-0.002c-0.029-0.068-0.022-0.219,0.181-0.561c0.208-0.365,0.508-0.683,0.89-0.945
			C15.501,15.794,15.678,15.7,15.865,15.623z M19.276,16.267c-0.164,0.094-0.327,0.159-0.482,0.192
			c-0.033,0.008-0.077,0.012-0.113,0.01c0.022-0.034,0.058-0.078,0.097-0.112c0.1-0.097,0.21-0.151,0.308-0.151
			c0.045,0,0.087,0.011,0.136,0.036C19.24,16.25,19.258,16.258,19.276,16.267z"/>
		<path class="st1" d="M33.044,14.787c0.132,0,0.243,0.022,0.346,0.071c0.074,0.03,0.146,0.097,0.185,0.176
			c0.007,0.013,0.013,0.033,0.021,0.054c0.035,0.099,0.082,0.235,0.208,0.267l0.047,0.005c0.155,0,0.266-0.135,0.275-0.348
			c-0.005-0.155-0.074-0.31-0.178-0.409c-0.182-0.2-0.437-0.302-0.758-0.302c-0.27,0-0.537,0.075-0.71,0.137
			c-0.302,0.099-0.573,0.219-0.825,0.354c0.069-0.074,0.137-0.148,0.202-0.222l0.014-0.018c0.041-0.065,0.049-0.138,0.021-0.207
			c-0.04-0.101-0.145-0.159-0.222-0.178l-0.017-0.003c-0.168-0.021-0.316,0.034-0.431,0.154l-0.194,0.201
			c-0.785,0.815-1.597,1.658-2.243,2.547l-0.031,0.043l0.004,0.052c0.007,0.092,0.077,0.158,0.167,0.158
			c0.052,0,0.096-0.023,0.138-0.049c0.232-0.168,0.685-0.571,1.016-0.866c0.117-0.104,0.22-0.196,0.289-0.256
			c0.68-0.545,1.411-1.093,2.203-1.289C32.691,14.827,32.871,14.787,33.044,14.787z"/>
		<path class="st1" d="M46.785,17.709c-0.01-0.078-0.053-0.153-0.551-0.528l-0.042-0.031c-0.261-0.165-0.532-0.32-0.801-0.472
			c-0.547-0.289-1.158-0.565-1.816-0.82c-1.267-0.508-2.418-0.867-3.509-1.091c0.358-0.287,0.722-0.566,1.076-0.838
			c0.321-0.247,0.644-0.495,0.974-0.756c0.342-0.279,0.354-0.38,0.339-0.461c-0.013-0.063-0.058-0.112-0.128-0.133
			c-0.108-0.028-0.233,0.02-0.321,0.059c-0.017,0.008-0.034,0.015-0.049,0.021l-0.023,0.011c-0.636,0.387-1.245,0.862-1.834,1.321
			c-0.266,0.207-0.54,0.421-0.813,0.623c-0.307-0.048-0.695-0.099-1.076-0.099c-0.178,0-0.347,0.011-0.504,0.033
			c-0.136,0.019-0.283,0.068-0.441,0.143c-0.003,0.001-0.274,0.108-0.323,0.294c-0.018,0.072-0.003,0.143,0.045,0.2
			c0.022,0.027,0.062,0.058,0.131,0.058c0.052,0,0.122-0.017,0.232-0.046c0.051-0.013,0.101-0.027,0.137-0.033
			c0.395-0.072,0.768-0.094,1.167-0.071c-0.494,0.388-0.99,0.774-1.486,1.159c-0.123,0.096-0.246,0.192-0.37,0.288h-0.03
			c-0.051,0-0.069,0-1.255,0.597c-0.118,0.059-0.204,0.102-0.221,0.111c-0.554,0.244-1.198,0.51-1.83,0.57
			c-0.071,0.004-0.148,0.008-0.227,0.008c-0.268,0-0.448-0.045-0.565-0.142c-0.041-0.034-0.059-0.116-0.051-0.225
			c0.068-0.301,0.291-0.557,0.477-0.737c0.241,0.067,0.536,0.102,0.861,0.102c0.563,0,1.16-0.105,1.561-0.274
			c0.284-0.123,0.485-0.295,0.596-0.509c0.132-0.249,0.083-0.533-0.119-0.705c-0.181-0.163-0.441-0.182-0.62-0.182
			c-0.025,0-0.05,0.001-0.076,0.002c-0.77,0.03-2.013,0.48-2.678,1.154c-0.294,0.305-0.629,0.716-0.614,1.198
			c0.035,0.503,0.399,0.78,1.024,0.78c0.215,0,0.419-0.033,0.551-0.06c0.569-0.108,1.163-0.31,1.864-0.631
			c-0.015,0.012-0.031,0.024-0.046,0.037c-0.064,0.055-0.132,0.11-0.2,0.165c-0.191,0.154-0.389,0.313-0.541,0.512
			c-0.037,0.045-0.157,0.204-0.127,0.366c0.014,0.079,0.062,0.145,0.135,0.186c0.062,0.036,0.135,0.053,0.224,0.053
			c0.091,0,0.182-0.018,0.263-0.034c0.034-0.007,0.066-0.013,0.108-0.02c0.358-0.088,0.737-0.206,1.223-0.38
			c0.006-0.002,0.013-0.004,0.022-0.007c-0.04,0.042-0.078,0.086-0.112,0.13c-0.086,0.105-0.28,0.379-0.231,0.647
			c0.025,0.136,0.109,0.247,0.242,0.324c0.163,0.093,0.403,0.138,0.737,0.138c0.396,0,0.865-0.065,1.277-0.142
			c-0.19,0.142-0.366,0.302-0.467,0.504c-0.076,0.149-0.048,0.253-0.01,0.314c0.065,0.106,0.201,0.16,0.403,0.16
			c0.055,0,0.115-0.005,0.165-0.011c0.592-0.068,1.187-0.23,1.763-0.388l0.175-0.048c0.295-0.091,0.599-0.174,0.902-0.256
			c0.054-0.018,0.108-0.034,0.163-0.05c0.143-0.042,0.291-0.086,0.429-0.159l0.013-0.007c0.102-0.068,0.084-0.158,0.076-0.184
			c-0.01-0.034-0.048-0.113-0.177-0.113c-0.015,0-0.044,0.001-0.07,0.008l-0.115,0.031c-0.163,0.033-0.309,0.072-0.479,0.119
			c-0.157,0.042-0.315,0.088-0.473,0.134c-0.157,0.046-0.314,0.091-0.469,0.133c-0.367,0.1-0.731,0.188-1.111,0.269
			c-0.172,0.036-0.349,0.073-0.527,0.089c0.367-0.252,0.775-0.456,1.169-0.655c0.19-0.095,0.386-0.194,0.571-0.294l0.033-0.016
			c0.103-0.05,0.243-0.118,0.329-0.233l0.01-0.015c0.041-0.073,0.044-0.152,0.008-0.219c-0.074-0.136-0.274-0.154-0.327-0.156
			c-0.139,0.005-0.274,0.034-0.424,0.09l-0.287,0.106l0.045,0.026c-0.154,0.058-0.312,0.11-0.47,0.161
			c-0.5,0.184-1.328,0.383-1.964,0.383c-0.268,0-0.479-0.035-0.625-0.102c-0.022-0.01-0.029-0.018-0.029-0.018s0,0-0.001,0
			c-0.006-0.052,0.131-0.232,0.365-0.4c0.334-0.247,0.848-0.584,1.404-0.783c0.454-0.155,0.841-0.23,1.183-0.23
			c0.091,0,0.18,0.005,0.268,0.016c0.272,0.027,0.906,0.146,0.949,0.668c-0.001,0.007-0.001,0.015-0.002,0.023
			c-0.009,0.078-0.036,0.317,0.172,0.359c0.216,0.042,0.287-0.2,0.314-0.297l0.004-0.023c0.035-0.304-0.15-0.567-0.329-0.706
			c-0.36-0.311-0.888-0.469-1.568-0.469c-0.11,0-0.225,0.004-0.345,0.012c-0.172,0.013-0.348,0.041-0.527,0.08l-0.027-0.031h-0.068
			c-0.063,0-0.214,0.049-1.094,0.37c-0.198,0.072-0.401,0.146-0.448,0.16c-0.294,0.114-0.604,0.211-0.903,0.304l-0.015,0.005
			c-0.084,0.033-0.414,0.134-0.691,0.198c0.933-0.702,1.872-1.428,2.781-2.131c0.476-0.368,0.952-0.736,1.428-1.102l0.031,0.006
			c0.805,0.161,1.566,0.313,2.337,0.543c1.385,0.41,2.599,0.848,3.652,1.45c1.223,0.698,1.234,0.626,1.234,0.626l0.039-0.056
			L46.785,17.709z M35.73,15.623c0.046,0.096-0.146,0.3-0.352,0.429c-0.421,0.249-0.97,0.38-1.585,0.38
			c-0.067,0-0.133-0.002-0.199-0.005c-0.056-0.003-0.108-0.007-0.157-0.013c0.035-0.029,0.07-0.057,0.105-0.085
			c0.522-0.416,1.093-0.684,1.653-0.773c0.077-0.015,0.178-0.032,0.275-0.032C35.677,15.525,35.719,15.603,35.73,15.623z"/>
	</g>
	<g>
		<path class="st1" d="M7.189,36.458c0.129,0.047,0.278,0.08,0.445,0.099c0.526,0.064,1.103-0.01,1.599-0.207
			c0.432-0.178,0.744-0.415,0.929-0.709c0.15-0.252,0.146-0.566-0.01-0.822c-0.105-0.166-0.258-0.311-0.467-0.441
			c0.012-0.011,0.024-0.023,0.036-0.036c0.026-0.025,0.052-0.062,0.062-0.091c0.017-0.048,0.001-0.082-0.01-0.099
			c-0.012-0.016-0.04-0.044-0.095-0.044c-0.048,0-0.105,0.022-0.121,0.029c-0.055,0.025-0.105,0.058-0.155,0.09l-0.001,0.001
			c-0.436-0.193-0.96-0.302-1.519-0.315L7.81,33.913c-0.565,0-1.077,0.103-1.524,0.308c-0.147,0.068-0.318,0.156-0.464,0.282
			c-0.235,0.19-0.308,0.389-0.201,0.546c0.025,0.039,0.053,0.067,0.086,0.087c0.053,0.036,0.166,0.05,0.207-0.01
			c0.047-0.07-0.01-0.144-0.04-0.183c-0.01-0.015-0.01-0.017-0.008-0.03c0.007-0.065,0.235-0.267,0.355-0.337
			c0.399-0.248,0.904-0.402,1.422-0.432c0.544-0.041,1.044,0.043,1.545,0.257c-0.107,0.087-0.208,0.17-0.316,0.263L8.36,35.09
			c-0.23,0.192-0.458,0.383-0.686,0.573c-0.108,0.092-0.216,0.184-0.326,0.275c-0.087,0.073-0.174,0.146-0.261,0.22
			c-0.033-0.022-0.062-0.046-0.087-0.07c-0.046-0.045-0.067-0.102-0.056-0.152c0.006-0.029,0.027-0.063,0.054-0.093
			c0.007-0.008,0.019-0.019,0.031-0.031c0.056-0.055,0.097-0.095,0.069-0.155l-0.044-0.051H7.018c-0.058,0-0.143,0.076-0.16,0.092
			c-0.034,0.033-0.095,0.1-0.116,0.185c-0.038,0.145,0.018,0.294,0.155,0.41c0.004,0.003,0.008,0.006,0.011,0.01
			c-0.161,0.136-0.321,0.271-0.483,0.404c-0.081,0.073-0.164,0.144-0.246,0.215c-0.153,0.131-0.312,0.267-0.455,0.411
			c-0.015,0.015-0.066,0.065-0.08,0.104l-0.015,0.044l0.053,0.074h0.044c0.042,0,0.097-0.038,0.111-0.048
			c0.277-0.193,0.541-0.404,0.795-0.607c0.181-0.141,0.358-0.284,0.534-0.426L7.189,36.458z M9.695,34.716
			c0.137,0.133,0.295,0.339,0.265,0.569c-0.026,0.178-0.154,0.353-0.381,0.523c-0.18,0.139-0.4,0.257-0.653,0.351
			c-0.332,0.12-0.684,0.183-1.016,0.183c-0.131,0-0.26-0.01-0.377-0.028c-0.045-0.01-0.088-0.02-0.131-0.031
			c0.171-0.138,0.342-0.276,0.508-0.416c0.265-0.216,0.524-0.433,0.784-0.651c0.133-0.112,0.267-0.224,0.403-0.337
			c0.07-0.061,0.142-0.12,0.214-0.18c0.058-0.048,0.115-0.096,0.172-0.144C9.566,34.61,9.637,34.663,9.695,34.716z"/>
		<path class="st1" d="M18.605,39.591c0.041,0.011,0.083,0.04,0.109,0.079c0.005,0.006,0.009,0.016,0.015,0.027
			c0.025,0.048,0.058,0.114,0.134,0.122c0.036-0.001,0.067-0.016,0.089-0.042c0.043-0.048,0.042-0.12,0.039-0.154
			c-0.013-0.078-0.059-0.153-0.119-0.196c-0.086-0.072-0.192-0.108-0.315-0.108c-0.169,0-0.338,0.069-0.449,0.127
			c-0.154,0.075-0.289,0.159-0.413,0.25c0.036-0.049,0.071-0.1,0.105-0.152c0.016-0.036,0.015-0.073-0.003-0.106
			c-0.027-0.048-0.084-0.07-0.133-0.075c-0.086,0.001-0.158,0.039-0.209,0.108l-0.085,0.116c-0.045,0.062-0.091,0.125-0.136,0.186
			c-0.074,0.052-0.213,0.155-0.495,0.367c-0.058,0.044-0.1,0.075-0.109,0.082c-0.261,0.176-0.566,0.37-0.883,0.46
			c-0.149,0.035-0.322,0.058-0.419,0.004c-0.035-0.02-0.045-0.082-0.048-0.108c0.006-0.163,0.098-0.317,0.178-0.427
			c0.358,0.034,0.913-0.109,1.221-0.309c0.133-0.089,0.22-0.195,0.257-0.313c0.044-0.138-0.006-0.277-0.125-0.346
			c-0.086-0.053-0.199-0.064-0.37-0.028c-0.276,0.061-0.651,0.252-0.947,0.501c-0.066,0.04-0.146,0.091-0.249,0.155
			c-0.095,0.06-0.171,0.108-0.194,0.119c-0.138,0.088-0.28,0.178-0.426,0.257c-0.038,0.021-0.075,0.042-0.112,0.063
			c-0.072,0.04-0.141,0.079-0.209,0.113c0.114-0.131,0.23-0.263,0.346-0.394c0.226-0.256,0.459-0.522,0.675-0.78
			c0.233-0.268,0.466-0.532,0.699-0.795c0.412-0.466,0.837-0.948,1.249-1.44l0.019-0.023c0.024-0.028,0.044-0.053,0.059-0.088
			c0.021-0.041,0.022-0.078,0.003-0.108c-0.031-0.051-0.118-0.042-0.166-0.018c-0.1,0.051-0.201,0.135-0.319,0.264
			c-0.522,0.583-1.035,1.168-1.516,1.716c-0.054,0.063-0.109,0.126-0.164,0.191c-0.058,0.067-0.116,0.134-0.175,0.202
			c-0.038-0.207-0.203-0.32-0.464-0.32c-0.119,0-0.238,0.023-0.317,0.043c-0.196,0.051-0.398,0.139-0.586,0.252
			c-0.017,0.003-0.034,0.007-0.044,0.013l-0.055,0.029c-0.076,0.034-0.145,0.071-0.228,0.116c-0.074,0.04-0.149,0.082-0.224,0.123
			c-0.074,0.041-0.148,0.082-0.221,0.122c-0.177,0.094-0.35,0.181-0.53,0.265c-0.087,0.04-0.169,0.078-0.257,0.107l-0.01,0.003
			c0.158-0.174,0.343-0.327,0.523-0.476c0.087-0.072,0.173-0.143,0.254-0.216l0.015-0.011c0.046-0.037,0.108-0.088,0.141-0.164
			c0.011-0.037,0.006-0.074-0.015-0.102c-0.018-0.024-0.055-0.053-0.132-0.053c-0.019,0-0.036,0.002-0.055,0.005
			c-0.069,0.019-0.134,0.049-0.203,0.094l-0.129,0.085l0.026,0.008c-0.072,0.049-0.147,0.094-0.222,0.138
			c-0.268,0.175-0.825,0.453-1.181,0.453c-0.036,0-0.069-0.003-0.098-0.009c-0.014-0.003-0.019-0.008-0.019-0.008
			c-0.011-0.024,0.036-0.132,0.138-0.248c0.14-0.164,0.361-0.394,0.619-0.56c0.269-0.167,0.495-0.255,0.71-0.278
			c0.042-0.005,0.085-0.008,0.128-0.008c0.164,0,0.373,0.042,0.432,0.233l0.002,0.017c0.005,0.043,0.019,0.159,0.126,0.159h0
			c0.075-0.002,0.116-0.062,0.121-0.178l0.001-0.012l-0.001-0.005c-0.017-0.157-0.141-0.267-0.247-0.317
			c-0.254-0.134-0.59-0.138-1.019-0.008c-0.087,0.027-0.174,0.063-0.262,0.105c-0.078,0.01-0.307,0.109-0.311,0.111l-0.216,0.101
			c-0.21,0.098-0.427,0.199-0.645,0.291l-0.056,0.023c-0.165,0.068-0.321,0.133-0.498,0.171c0.043-0.036,0.097-0.075,0.142-0.107
			c0.039-0.028,0.077-0.055,0.103-0.076c0.116-0.086,0.242-0.168,0.363-0.246c0.176-0.114,0.357-0.232,0.522-0.37
			c0.101-0.082,0.312-0.253,0.251-0.445c-0.033-0.11-0.144-0.166-0.328-0.166c-0.04,0-0.078,0.002-0.117,0.005
			c-0.15,0.011-0.308,0.044-0.496,0.105c-0.163,0.051-0.334,0.114-0.503,0.185c0.124-0.092,0.221-0.164,0.307-0.223
			c0.019-0.012,0.116-0.085,0.133-0.13c0.021-0.055,0.003-0.094-0.009-0.112c-0.025-0.037-0.069-0.055-0.132-0.055
			c-0.071,0-0.176,0.027-0.224,0.068C9.883,37.706,9.759,37.8,9.642,37.89c-0.036,0.011-0.072,0.023-0.11,0.036
			c-0.08,0.027-0.16,0.056-0.241,0.085c-0.08,0.029-0.159,0.057-0.238,0.084c-0.187,0.063-0.372,0.121-0.567,0.174
			c-0.092,0.026-0.179,0.049-0.271,0.064l-0.01,0.002c0.185-0.145,0.392-0.266,0.594-0.384c0.097-0.056,0.194-0.113,0.286-0.171
			L9.1,37.771c0.052-0.029,0.122-0.069,0.167-0.139c0.025-0.052,0.009-0.092-0.003-0.111c-0.04-0.065-0.138-0.071-0.172-0.069
			c-0.072,0.007-0.14,0.026-0.216,0.06l-0.137,0.06l0.024,0.012c-0.08,0.037-0.163,0.069-0.246,0.102
			c-0.241,0.106-0.731,0.264-1.093,0.264c-0.1,0-0.18-0.013-0.242-0.036c-0.014-0.005-0.017-0.01-0.017-0.01
			c-0.007-0.025,0.058-0.125,0.177-0.222c0.165-0.139,0.42-0.33,0.702-0.451c0.264-0.109,0.479-0.16,0.678-0.16
			c0.022,0,0.044,0.001,0.067,0.002c0.112,0.004,0.479,0.039,0.516,0.314l-0.001,0.017c-0.002,0.041-0.008,0.163,0.099,0.178
			l0.015,0.001c0.101,0,0.125-0.114,0.133-0.157l0.003-0.017c0.008-0.158-0.095-0.287-0.192-0.353
			c-0.227-0.173-0.559-0.233-1.004-0.175c-0.314,0.043-0.655,0.178-0.961,0.381c-0.174,0.12-0.295,0.235-0.38,0.358
			c-0.041,0.057-0.132,0.204-0.098,0.34c0.017,0.069,0.063,0.124,0.134,0.158c0.069,0.034,0.163,0.05,0.287,0.05
			c0.224,0,0.518-0.058,0.767-0.121c-0.097,0.082-0.188,0.172-0.235,0.283c-0.033,0.076-0.017,0.127,0.002,0.157
			c0.032,0.049,0.093,0.074,0.182,0.074c0.05,0,0.096-0.008,0.117-0.012c0.304-0.054,0.607-0.158,0.9-0.257l0.089-0.03
			c0.006-0.003,0.013-0.004,0.019-0.007c-0.036,0.029-0.072,0.059-0.108,0.088c-0.086,0.069-0.171,0.138-0.25,0.209l-0.013,0.011
			c-0.198,0.173-0.234,0.229-0.235,0.277L8.58,38.88l0.028,0.042h0.047c0.028,0,0.05-0.012,0.122-0.054
			c0.033-0.018,0.074-0.042,0.121-0.067c0.227-0.12,0.998-0.52,1.362-0.649c0.225-0.083,0.487-0.171,0.742-0.171
			c0.03,0.001,0.059,0.005,0.082,0.01c-0.056,0.06-0.156,0.131-0.206,0.166c-0.07,0.052-0.149,0.103-0.227,0.154
			c-0.08,0.053-0.161,0.105-0.24,0.164c-0.139,0.103-0.283,0.209-0.412,0.321c-0.065,0.059-0.279,0.265-0.279,0.428
			c0,0.061,0.025,0.098,0.046,0.12c0.036,0.036,0.09,0.054,0.161,0.054c0.18,0,0.457-0.115,0.648-0.202l0.023-0.01
			c0.136-0.057,0.277-0.119,0.425-0.186c-0.105,0.113-0.179,0.219-0.23,0.327c-0.031,0.063-0.097,0.222-0.042,0.351
			c0.029,0.065,0.083,0.111,0.159,0.134c0.226,0.068,0.698-0.097,1.028-0.243c-0.083,0.097-0.158,0.201-0.186,0.319
			c-0.015,0.06-0.008,0.109,0.021,0.147c0.02,0.025,0.06,0.056,0.136,0.056c0.072,0,0.148-0.026,0.175-0.037
			c0.291-0.103,0.573-0.255,0.845-0.401l0.083-0.045c0.002-0.001,0.003-0.003,0.005-0.003c-0.022,0.029-0.044,0.06-0.062,0.089
			c-0.121,0.187-0.175,0.357-0.162,0.505c0.016,0.175,0.126,0.272,0.312,0.272c0.195,0,0.438-0.106,0.567-0.163l0.02-0.009
			c0.176-0.074,0.348-0.164,0.514-0.266c-0.087,0.104-0.172,0.214-0.247,0.335c-0.011,0.02-0.064,0.124-0.026,0.206
			c0.017,0.037,0.049,0.063,0.091,0.072c0.014,0.003,0.03,0.005,0.047,0.005c0.043,0,0.094-0.011,0.127-0.026
			c0.205-0.075,0.398-0.191,0.584-0.304l0.062-0.037c0.081-0.049,0.162-0.1,0.243-0.152c-0.086,0.156-0.151,0.336-0.112,0.518
			c0.053,0.208,0.203,0.317,0.434,0.317c0.159,0,0.324-0.052,0.433-0.096c0.289-0.111,0.569-0.266,0.91-0.504
			c0.04-0.027,0.078-0.057,0.117-0.086c-0.173,0.253-0.337,0.509-0.476,0.769l-0.013,0.023l0.005,0.026
			c0.009,0.041,0.042,0.068,0.082,0.068c0.035,0,0.062-0.022,0.078-0.035c0.108-0.103,0.313-0.343,0.463-0.518
			c0.053-0.062,0.098-0.115,0.129-0.15c0.312-0.328,0.65-0.661,1.043-0.818C18.301,39.601,18.467,39.547,18.605,39.591z
			 M16.705,39.343c0.034,0.048-0.048,0.17-0.141,0.255c-0.272,0.234-0.627,0.323-0.878,0.356c-0.029,0.004-0.058,0.007-0.087,0.008
			c0.016-0.019,0.032-0.038,0.05-0.058c0.229-0.261,0.496-0.449,0.774-0.547c0.057-0.022,0.13-0.047,0.193-0.047
			C16.673,39.31,16.695,39.331,16.705,39.343z M13.495,39.534c0.299-0.271,0.568-0.443,0.82-0.523
			c0.098-0.03,0.181-0.044,0.253-0.044c0.058,0,0.11,0.01,0.15,0.028c0.11,0.053,0.083,0.187,0.042,0.289
			c-0.025,0.059-0.083,0.129-0.172,0.207c-0.199,0.183-0.448,0.349-0.784,0.523c-0.139,0.076-0.486,0.232-0.673,0.232
			c-0.043,0-0.072-0.008-0.079-0.02c-0.029-0.056,0.011-0.167,0.118-0.328C13.256,39.775,13.365,39.652,13.495,39.534z"/>
		<path class="st1" d="M19.658,38.9c0.01,0.003,0.021,0.003,0.031,0.003c0.094,0,0.186-0.076,0.234-0.15
			c0.039-0.066,0.046-0.133,0.019-0.185c-0.021-0.039-0.059-0.064-0.118-0.068c-0.089,0-0.19,0.064-0.243,0.154
			c-0.041,0.063-0.049,0.127-0.024,0.178C19.577,38.873,19.617,38.898,19.658,38.9z"/>
		<path class="st1" d="M22.084,40.02l-0.025-0.037h-0.04c-0.042,0-0.08,0.034-0.081,0.035l-0.045,0.043
			c-0.065,0.053-0.122,0.108-0.19,0.172c-0.061,0.058-0.122,0.118-0.183,0.177c-0.061,0.059-0.121,0.119-0.181,0.176
			c-0.144,0.137-0.288,0.266-0.442,0.396c-0.069,0.058-0.141,0.119-0.22,0.171L20.67,41.16c0.107-0.209,0.244-0.406,0.379-0.597
			c0.064-0.092,0.128-0.184,0.188-0.275l0.011-0.015c0.034-0.048,0.082-0.113,0.093-0.196c0.001-0.043-0.016-0.069-0.031-0.084
			c-0.015-0.016-0.043-0.035-0.09-0.035c-0.05,0-0.098,0.022-0.113,0.029c-0.061,0.036-0.116,0.082-0.171,0.144l-0.1,0.114
			l0.027,0.001c-0.056,0.065-0.117,0.129-0.18,0.194c-0.263,0.297-0.799,0.747-1.121,0.767c-0.011,0-0.014-0.002-0.014-0.002
			c-0.017-0.02,0-0.137,0.067-0.276c0.092-0.195,0.244-0.476,0.449-0.704c0.216-0.233,0.41-0.377,0.611-0.455
			c0.076-0.032,0.192-0.07,0.31-0.07c0.133,0,0.232,0.049,0.289,0.139l0.006,0.016c0.018,0.043,0.05,0.124,0.131,0.124l0.032-0.004
			c0.073-0.022,0.097-0.091,0.07-0.206l-0.005-0.016c-0.058-0.146-0.206-0.22-0.322-0.24c-0.278-0.062-0.61,0.026-0.984,0.261
			c-0.078,0.05-0.153,0.108-0.227,0.172c-0.077,0.02-0.264,0.189-0.322,0.247l0-0.001l-0.452,0.371
			c-0.18,0.14-0.343,0.257-0.494,0.356c-0.021,0.012-0.043,0.027-0.067,0.042c-0.054,0.035-0.115,0.074-0.176,0.102
			c0.155-0.258,0.335-0.51,0.51-0.755c0.153-0.214,0.311-0.435,0.449-0.655l0.012-0.022c0.016-0.028,0.047-0.079,0.023-0.136
			c-0.017-0.039-0.054-0.063-0.101-0.063c-0.027,0-0.053,0.007-0.07,0.012l-0.019,0.006c-0.088,0.041-0.167,0.111-0.241,0.217
			c-0.072,0.108-0.146,0.216-0.22,0.324c-0.202,0.296-0.411,0.602-0.598,0.914c-0.097,0.178-0.103,0.311-0.018,0.391
			c0.019,0.019,0.054,0.042,0.111,0.042c0.16,0,0.434-0.186,0.68-0.367c0.021-0.015,0.036-0.027,0.048-0.035
			c0.136-0.099,0.269-0.202,0.4-0.308c-0.072,0.138-0.117,0.261-0.137,0.379c-0.013,0.069-0.035,0.24,0.053,0.35
			c0.044,0.055,0.109,0.085,0.197,0.088c0.248-0.001,0.645-0.284,0.918-0.507c-0.054,0.115-0.099,0.235-0.095,0.357
			c0.003,0.12,0.077,0.162,0.146,0.162c0.087,0,0.184-0.064,0.219-0.091c0.255-0.177,0.488-0.399,0.714-0.614l0.064-0.061
			c0.113-0.115,0.233-0.23,0.349-0.34c0.02-0.021,0.041-0.041,0.062-0.062c0.055-0.055,0.111-0.111,0.16-0.185
			C22.104,40.065,22.092,40.034,22.084,40.02z"/>
	</g>
	<g>
		<path class="st1" d="M29.254,38.018c0.011,0,0.023-0.002,0.026-0.003c0.1-0.01,0.181-0.117,0.209-0.219
			c0.016-0.067,0.006-0.129-0.027-0.17c-0.031-0.04-0.082-0.057-0.13-0.045c-0.09,0.021-0.174,0.116-0.199,0.223
			c-0.018,0.065-0.011,0.125,0.02,0.166C29.178,38.001,29.214,38.018,29.254,38.018z"/>
		<path class="st1" d="M36.713,34.602c0.027,0,0.055-0.009,0.072-0.022c0.089-0.048,0.123-0.177,0.11-0.283
			c-0.016-0.098-0.077-0.164-0.152-0.164c-0.027,0-0.053,0.009-0.075,0.025c-0.075,0.054-0.116,0.174-0.098,0.282
			C36.581,34.537,36.639,34.602,36.713,34.602z"/>
		<path class="st1" d="M39.377,33.801c-0.017-0.062-0.067-0.066-0.077-0.066c-0.06,0-0.085,0.063-0.087,0.102l-0.003,0.062
			c-0.01,0.085-0.014,0.164-0.019,0.255c-0.004,0.084-0.007,0.17-0.01,0.256c-0.003,0.084-0.006,0.169-0.01,0.252
			c-0.01,0.196-0.025,0.389-0.047,0.599c-0.01,0.093-0.02,0.18-0.04,0.268l-0.002,0.01c-0.067-0.225-0.103-0.462-0.138-0.692
			c-0.017-0.111-0.034-0.222-0.054-0.33l-0.003-0.019c-0.008-0.058-0.019-0.138-0.067-0.205c-0.03-0.033-0.063-0.04-0.085-0.04
			c-0.09,0-0.136,0.108-0.147,0.136c-0.02,0.068-0.027,0.14-0.024,0.223l0.006,0.153l0.02-0.018
			c0.004,0.087,0.004,0.175,0.004,0.263c0.015,0.397-0.063,1.092-0.278,1.325c-0.01,0.011-0.016,0.013-0.016,0.013
			c-0.026-0.003-0.094-0.099-0.141-0.246c-0.068-0.204-0.152-0.512-0.161-0.819c-0.004-0.317,0.036-0.555,0.128-0.752
			c0.049-0.111,0.187-0.37,0.412-0.37c0.025,0,0.052,0.003,0.069,0.007l0.016,0.007c0.027,0.012,0.064,0.029,0.103,0.029
			c0.042,0,0.078-0.02,0.098-0.055c0.037-0.066,0.006-0.132-0.091-0.196l-0.015-0.009c-0.12-0.056-0.279-0.032-0.399,0.049
			c-0.245,0.148-0.424,0.439-0.532,0.869c-0.023,0.093-0.037,0.192-0.045,0.293l-0.025,0.001l-0.022,0.025
			c-0.039,0.046-0.081,0.312-0.088,0.397l-0.111,0.574c-0.049,0.223-0.098,0.416-0.151,0.589c-0.008,0.023-0.016,0.048-0.024,0.075
			c-0.02,0.062-0.041,0.133-0.07,0.194c-0.046-0.297-0.069-0.607-0.092-0.908c-0.019-0.263-0.039-0.534-0.075-0.792l-0.004-0.024
			c-0.005-0.032-0.014-0.091-0.069-0.12l-0.028-0.012h-0.018c-0.061,0-0.099,0.053-0.119,0.082l-0.011,0.017
			c-0.042,0.088-0.058,0.192-0.047,0.32c0.011,0.105,0.021,0.211,0.031,0.316c-0.003,0.008-0.006,0.016-0.008,0.022
			c-0.025,0.052-0.045,0.108-0.067,0.171c-0.106,0.294-0.213,0.6-0.327,0.948c-0.032-0.465-0.041-0.58-0.057-0.671
			c-0.008-0.051-0.022-0.137-0.092-0.155l-0.02-0.003c-0.056,0-0.094,0.048-0.12,0.15c-0.025,0.098-0.034,0.182-0.044,0.281
			l-0.005,0.051c-0.034,0.313-0.111,0.63-0.223,0.916c-0.065,0.175-0.131,0.31-0.209,0.426c-0.035,0.055-0.075,0.111-0.121,0.146
			c-0.02,0.014-0.029,0.015-0.031,0.015c-0.005,0-0.019-0.011-0.03-0.036c-0.106-0.282-0.091-0.574-0.065-0.872
			c0.028-0.269,0.079-0.611,0.232-0.875c0.072-0.115,0.264-0.384,0.491-0.384c0.02,0,0.042,0.002,0.065,0.007
			c0.035,0.006,0.06,0.021,0.093,0.04c0.021,0.013,0.042,0.024,0.068,0.036c0.061,0.025,0.117,0.005,0.139-0.045
			c0.025-0.056-0.004-0.133-0.035-0.168c-0.065-0.067-0.158-0.103-0.269-0.103c-0.06,0-0.122,0.011-0.177,0.03
			c-0.258,0.082-0.487,0.321-0.68,0.707c-0.052,0.099-0.094,0.209-0.131,0.322c-0.052,0.002-0.064,0.037-0.288,0.708
			c-0.02,0.061-0.035,0.104-0.037,0.114c-0.114,0.292-0.254,0.626-0.465,0.88c-0.082,0.091-0.207,0.229-0.347,0.242
			c-0.029,0-0.065-0.025-0.096-0.062c-0.088-0.138-0.1-0.316-0.097-0.453c0.343-0.191,0.7-0.636,0.828-0.948
			c0.059-0.149,0.07-0.285,0.033-0.404c-0.039-0.13-0.148-0.214-0.278-0.214c-0.008,0-0.016,0-0.021,0.001
			c-0.134,0.006-0.247,0.11-0.32,0.187c-0.177,0.19-0.36,0.518-0.468,0.859c-0.04,0.084-0.095,0.204-0.173,0.374
			c-0.046,0.101-0.082,0.182-0.092,0.199l-0.007,0.015c-0.066,0.146-0.134,0.297-0.21,0.439c-0.019,0.036-0.038,0.074-0.057,0.11
			c-0.038,0.074-0.074,0.146-0.114,0.213c0.023-0.174,0.047-0.349,0.072-0.524c0.047-0.338,0.096-0.685,0.133-1.019
			c0.046-0.353,0.096-0.703,0.145-1.052c0.087-0.614,0.176-1.25,0.248-1.886l0.004-0.029c0.004-0.037,0.008-0.069,0.001-0.107
			c-0.011-0.095-0.08-0.1-0.093-0.1c-0.052,0-0.089,0.045-0.112,0.083c-0.055,0.098-0.094,0.224-0.12,0.397
			c-0.108,0.734-0.208,1.461-0.319,2.267l-0.03,0.233c-0.012,0.093-0.023,0.187-0.036,0.281c-0.075-0.078-0.164-0.117-0.263-0.117
			c-0.207,0-0.408,0.171-0.541,0.315c-0.128,0.142-0.242,0.316-0.334,0.502c-0.063,0.065-0.176,0.272-0.177,0.275l-0.112,0.216
			c-0.106,0.204-0.215,0.416-0.332,0.62l-0.03,0.052c-0.089,0.155-0.174,0.301-0.291,0.438c0.013-0.055,0.032-0.118,0.047-0.171
			c0.014-0.046,0.027-0.09,0.035-0.123c0.04-0.138,0.089-0.279,0.137-0.415c0.07-0.198,0.142-0.403,0.189-0.613
			c0.03-0.127,0.093-0.391-0.072-0.506c-0.035-0.025-0.075-0.037-0.118-0.037c-0.126,0-0.252,0.11-0.334,0.181
			c-0.112,0.1-0.217,0.223-0.329,0.386c-0.098,0.14-0.195,0.294-0.287,0.453c0.042-0.148,0.076-0.265,0.107-0.363
			c0.008-0.021,0.04-0.138,0.027-0.184c-0.016-0.055-0.057-0.089-0.109-0.089c-0.107,0-0.224,0.158-0.241,0.232
			c-0.046,0.15-0.085,0.291-0.121,0.426c-0.031,0.051-0.057,0.099-0.071,0.126l-0.001-0.001l-0.32,0.488
			c-0.134,0.192-0.25,0.347-0.365,0.487c-0.016,0.018-0.033,0.039-0.051,0.06c-0.041,0.051-0.089,0.107-0.138,0.152
			c0.071-0.292,0.167-0.587,0.262-0.873c0.082-0.25,0.167-0.509,0.233-0.761l0.005-0.025c0.007-0.031,0.022-0.09-0.018-0.137
			c-0.02-0.023-0.047-0.036-0.077-0.036c-0.042,0-0.079,0.024-0.102,0.039l-0.016,0.012c-0.073,0.065-0.126,0.155-0.166,0.278
			c-0.03,0.101-0.06,0.202-0.091,0.303c-0.061,0.086-0.159,0.25-0.334,0.563c-0.042,0.065-0.082,0.131-0.12,0.196
			c-0.127,0.209-0.246,0.407-0.428,0.578c-0.044,0.042-0.07,0.046-0.078,0.046c-0.023,0-0.05-0.037-0.067-0.093
			c-0.042-0.153-0.055-0.331-0.04-0.553c0-0.011,0-0.023,0.001-0.035c0.002-0.047,0.004-0.106-0.023-0.156
			c-0.013-0.023-0.03-0.041-0.051-0.052c0.154-0.185,0.338-0.358,0.551-0.515c0.028-0.021,0.057-0.042,0.087-0.063
			c0.03-0.022,0.061-0.044,0.093-0.068c0.01-0.009,0.022-0.018,0.033-0.026c0.051-0.039,0.113-0.087,0.14-0.155
			c0.022-0.049,0.008-0.083-0.002-0.099c-0.01-0.016-0.035-0.043-0.087-0.043c-0.038,0-0.08,0.015-0.092,0.021
			c-0.05,0.016-0.108,0.048-0.179,0.095c-0.348,0.245-0.61,0.597-0.849,0.935c-0.136,0.188-0.254,0.381-0.362,0.588l-0.02,0.037
			c0.1-0.384,0.219-0.76,0.344-1.152l0.075-0.235c0.16-0.494,0.326-0.985,0.492-1.479l0.014-0.043
			c0.28-0.125,0.545-0.261,0.789-0.413c0.106-0.066,0.213-0.141,0.323-0.223c0.037-0.032,0.086-0.08,0.064-0.141l-0.035-0.058
			h-0.061l-0.016,0.003c-0.03,0.009-0.056,0.026-0.079,0.041c-0.01,0.006-0.02,0.013-0.033,0.02
			c-0.064,0.037-0.131,0.078-0.198,0.118c-0.068,0.041-0.136,0.082-0.199,0.119c-0.146,0.081-0.298,0.157-0.453,0.23l0.065-0.193
			l0.028-0.081c0.089-0.249,0.181-0.507,0.256-0.758c0.014-0.047,0.033-0.111,0.01-0.162l-0.008-0.014
			c-0.018-0.024-0.046-0.038-0.075-0.038c-0.064,0-0.11,0.06-0.167,0.145c-0.093,0.135-0.146,0.276-0.197,0.413l-0.023,0.061
			c-0.091,0.259-0.181,0.523-0.273,0.798c-0.166,0.069-0.334,0.136-0.507,0.196c-0.03,0.009-0.061,0.019-0.092,0.029
			c-0.01,0.004-0.021,0.007-0.031,0.01c-0.06-0.164-0.169-0.306-0.305-0.392c-0.119-0.067-0.267-0.082-0.427-0.041
			c-0.119,0.031-0.241,0.095-0.363,0.192c-0.189,0.155-0.213,0.293-0.199,0.386c0.016,0.082,0.083,0.223,0.35,0.241
			c0.252,0.016,0.512-0.037,0.742-0.095c0.003,0.031,0.005,0.062,0.005,0.091c0.007,0.43-0.143,0.898-0.472,1.474
			c-0.286,0.497-0.604,0.919-0.945,1.255c-0.167,0.16-0.369,0.339-0.605,0.449c-0.212,0.092-0.416,0.088-0.54-0.017
			c-0.147-0.126-0.182-0.346-0.189-0.465c-0.014-0.198,0.01-0.406,0.07-0.619c0.106-0.43,0.315-0.874,0.618-1.318
			c0.142-0.203,0.28-0.374,0.424-0.524c0.135-0.146,0.282-0.274,0.483-0.418c0.058-0.048,0.052-0.096,0.043-0.12
			c-0.011-0.03-0.04-0.067-0.115-0.067c-0.017,0-0.034,0.002-0.044,0.003l-0.017,0.003c-0.157,0.049-0.287,0.147-0.404,0.246
			c-0.157,0.133-0.312,0.3-0.462,0.498c-0.308,0.405-0.542,0.843-0.694,1.302c-0.144,0.422-0.189,0.787-0.14,1.115
			c0.023,0.157,0.075,0.304,0.152,0.427c0.118,0.167,0.318,0.267,0.534,0.267c0.03,0,0.061-0.002,0.091-0.006
			c0.296-0.036,0.561-0.212,0.758-0.361c0.2-0.153,0.395-0.336,0.597-0.559c0.369-0.414,0.676-0.892,0.886-1.382
			c0.113-0.268,0.187-0.533,0.222-0.789c0.027-0.219,0.029-0.397,0.004-0.552c0.075-0.023,0.151-0.05,0.223-0.076
			c0.086-0.029,0.168-0.061,0.252-0.093c-0.103,0.31-0.209,0.637-0.321,0.988c-0.035,0.117-0.071,0.234-0.107,0.351
			c-0.07,0.226-0.142,0.461-0.204,0.696l-0.051,0.176c-0.083,0.281-0.168,0.571-0.207,0.873c-0.014,0.098-0.022,0.219,0.036,0.286
			c0.005,0.006,0.011,0.011,0.017,0.016l0.061,0.026c0.006,0.001,0.013,0.002,0.019,0.002l0.009-0.001
			c0.123,0,0.191-0.161,0.235-0.268l0.014-0.033c0.124-0.263,0.243-0.485,0.364-0.68c0,0.17,0.022,0.382,0.11,0.561
			c0.058,0.117,0.153,0.194,0.266,0.21c0.167,0.017,0.305-0.117,0.401-0.234c0.157-0.189,0.282-0.4,0.399-0.609
			c-0.029,0.105-0.057,0.21-0.082,0.315c-0.039,0.2-0.004,0.327,0.101,0.379c0.019,0.01,0.041,0.016,0.065,0.016
			c0.129,0,0.301-0.163,0.593-0.562c0.015-0.021,0.027-0.037,0.035-0.048c0.101-0.137,0.2-0.278,0.295-0.422
			c-0.01,0.042-0.02,0.084-0.03,0.126c-0.025,0.106-0.051,0.216-0.07,0.322l-0.004,0.017c-0.052,0.258-0.046,0.324-0.018,0.363
			l0.026,0.03l0.04,0.004c0.054,0,0.07-0.037,0.11-0.133c0.015-0.035,0.033-0.079,0.055-0.129c0.107-0.234,0.475-1.021,0.684-1.345
			c0.128-0.203,0.282-0.432,0.484-0.588c0.025-0.017,0.051-0.031,0.072-0.042c-0.007,0.082-0.044,0.199-0.062,0.257
			c-0.024,0.084-0.055,0.172-0.086,0.26c-0.032,0.091-0.063,0.182-0.09,0.276c-0.048,0.167-0.097,0.339-0.131,0.507
			c-0.016,0.087-0.059,0.381,0.039,0.51c0.043,0.056,0.094,0.068,0.13,0.068c0.141,0,0.304-0.188,0.53-0.611l0.011-0.022
			c0.075-0.131,0.151-0.27,0.229-0.418c-0.003,0.039-0.003,0.076-0.003,0.113c0.003,0.222,0.051,0.394,0.143,0.51
			c0.063,0.079,0.138,0.119,0.221,0.119c0.24,0,0.464-0.347,0.572-0.513l0.011-0.017c0.106-0.159,0.2-0.329,0.283-0.505
			c-0.016,0.134-0.026,0.273-0.022,0.415c0.009,0.102,0.062,0.205,0.158,0.205c0.017,0,0.033-0.003,0.049-0.009
			c0.055-0.021,0.109-0.076,0.133-0.114c0.129-0.174,0.225-0.377,0.318-0.572l0.033-0.068c0.051-0.108,0.101-0.219,0.15-0.332
			c0.013,0.194,0.056,0.407,0.207,0.549c0.083,0.072,0.173,0.108,0.268,0.108c0.256,0,0.468-0.263,0.571-0.419
			c0.173-0.253,0.319-0.549,0.462-0.932c0.009-0.023,0.016-0.047,0.023-0.07c0.008,0.169,0.026,0.303,0.061,0.42
			c0.098,0.328,0.26,0.375,0.37,0.362c0.166-0.017,0.262-0.186,0.334-0.312c0.107-0.197,0.196-0.394,0.266-0.593
			c0.009,0.126,0.018,0.252,0.022,0.38c-0.103,0.338-0.209,0.688-0.306,1.041c-0.087,0.34-0.168,0.66-0.215,1.003
			c-0.023,0.197-0.033,0.355-0.032,0.515l0.001,0.025c0.004,0.164,0.009,0.332,0.076,0.493c0.032,0.071,0.077,0.15,0.17,0.197
			c0.025,0.01,0.052,0.016,0.078,0.016c0.063,0,0.128-0.03,0.194-0.092c0.12-0.121,0.171-0.293,0.218-0.45
			c0.195-0.655,0.185-1.351,0.175-2.024l-0.001-0.045c-0.006-0.307-0.02-0.624-0.046-1.026c0.027-0.08,0.053-0.159,0.081-0.238
			c0.028-0.084,0.057-0.168,0.084-0.252l0.085-0.24c0.057-0.159,0.114-0.323,0.169-0.489c0.025,0.236,0.051,0.474,0.087,0.708
			c0.04,0.2,0.121,0.304,0.237,0.312l0.013,0.001c0.144,0,0.253-0.212,0.387-0.756c0.006-0.025,0.011-0.045,0.015-0.058
			c0.064-0.257,0.116-0.521,0.16-0.786c0.007,0.044,0.011,0.089,0.021,0.133c0.048,0.206,0.11,0.36,0.193,0.484
			c0.042,0.066,0.157,0.218,0.311,0.218c0.06,0,0.115-0.023,0.166-0.068c0.184-0.166,0.277-0.652,0.322-1.006
			c0.04,0.121,0.091,0.239,0.178,0.325c0.038,0.038,0.079,0.058,0.12,0.058c0.137,0,0.183-0.199,0.193-0.258
			c0.062-0.304,0.077-0.625,0.092-0.936l0.004-0.09c0.003-0.161,0.011-0.327,0.019-0.486c0-0.029,0.001-0.059,0.002-0.088
			C39.39,33.967,39.392,33.887,39.377,33.801z M36.134,40.219c-0.022,0.186-0.054,0.338-0.101,0.481
			c-0.058,0.164-0.1,0.219-0.114,0.236c-0.074-0.112-0.086-0.247-0.099-0.389l-0.003-0.031c-0.006-0.186,0-0.359,0.019-0.516
			c0.038-0.365,0.118-0.708,0.192-0.994c0.048-0.186,0.093-0.358,0.14-0.522c0.01,0.238,0.018,0.47,0.02,0.709
			C36.183,39.533,36.179,39.884,36.134,40.219z M33.947,37.983c-0.023,0.021-0.045,0.04-0.067,0.056
			c0.003-0.025,0.005-0.051,0.008-0.076c0.04-0.345,0.152-0.652,0.326-0.891c0.029-0.043,0.119-0.175,0.202-0.175
			c0.008,0,0.016,0.001,0.022,0.003c0.055,0.02,0.058,0.166,0.029,0.29C34.376,37.537,34.134,37.812,33.947,37.983z M32.586,37.736
			c0.008-0.001,0.015-0.001,0.022-0.001c0.111,0,0.155,0.138,0.172,0.219c0.012,0.063,0.002,0.153-0.029,0.268
			c-0.065,0.263-0.181,0.538-0.366,0.869c-0.131,0.247-0.385,0.591-0.509,0.591c-0.001,0-0.001,0-0.001,0
			c-0.055-0.03-0.083-0.144-0.082-0.338c0.003-0.151,0.026-0.314,0.069-0.483c0.1-0.392,0.23-0.682,0.396-0.889
			C32.375,37.831,32.486,37.752,32.586,37.736z M26.332,37.794c-0.069,0.007-0.141,0.014-0.207,0.014l0,0
			c-0.171,0-0.195-0.049-0.201-0.062c-0.008-0.02,0.006-0.059,0.033-0.091c0.118-0.148,0.306-0.249,0.468-0.249
			c0.044,0,0.085,0.007,0.116,0.018c0.119,0.057,0.183,0.173,0.216,0.281c-0.155,0.043-0.282,0.07-0.402,0.086L26.332,37.794z"/>
	</g>
	<g>
		<path class="st2" d="M22.17,22.856c0.02,0.234,0.044,0.483,0.063,0.731c0.032,0.414-0.17,0.741-0.431,1.023
			c-0.235,0.255-0.512,0.471-0.796,0.727C21.066,24.098,21.45,23.309,22.17,22.856z"/>
		<path class="st2" d="M15.799,26.252c0.138-0.018,0.194-0.018,0.39,0.04c-0.179,0.251-0.347,0.513-0.542,0.753
			c-0.229,0.281-0.558,0.41-0.902,0.464c-0.32,0.05-0.648,0.051-1.022,0.077c0.443-0.435,0.814-0.867,1.352-1.09
			c0.164-0.068,0.332-0.125,0.498-0.188C15.617,26.298,15.755,26.262,15.799,26.252z"/>
		<path class="st2" d="M20.889,24.061c-0.023,0.203-0.062,0.423-0.07,0.644c-0.017,0.486-0.31,0.807-0.655,1.08
			c-0.254,0.202-0.549,0.35-0.848,0.536C19.569,25.175,20.066,24.392,20.889,24.061z"/>
		<path class="st2" d="M17.505,26.992c0.403-0.917,0.907-1.71,1.92-1.967c-0.077,0.266-0.147,0.545-0.238,0.816
			c-0.097,0.29-0.323,0.483-0.559,0.657C18.294,26.743,17.906,26.869,17.505,26.992z"/>
		<path class="st2" d="M15.614,27.409c0.57-0.861,1.179-1.581,2.225-1.675c-0.123,0.258-0.239,0.532-0.381,0.79
			c-0.189,0.345-0.518,0.525-0.872,0.644C16.283,27.27,15.964,27.324,15.614,27.409z"/>
		<path class="st2" d="M19.229,24.641c-0.51,0.63-1.529,0.545-2.264-0.254c0.368-0.068,0.708-0.147,1.052-0.188
			c0.239-0.028,0.463,0.05,0.673,0.186C18.857,24.494,19.053,24.559,19.229,24.641z"/>
		<path class="st2" d="M17.725,25.317c-0.702,0.526-1.529,0.304-2.14-0.65c0.369-0.003,0.712-0.021,1.053-0.006
			c0.239,0.011,0.432,0.142,0.61,0.306C17.395,25.103,17.573,25.207,17.725,25.317z"/>
		<path class="st2" d="M18.251,23.829c0.336-0.121,0.637-0.245,0.948-0.337c0.25-0.075,0.502-0.047,0.752,0.05
			c0.199,0.077,0.411,0.122,0.603,0.178C20.061,24.42,19.175,24.489,18.251,23.829z"/>
		<path class="st2" d="M14.215,24.728c0.287,0.034,0.555,0.049,0.817,0.101c0.313,0.062,0.563,0.227,0.744,0.507
			c0.098,0.151,0.255,0.264,0.382,0.391C15.589,26.042,14.633,25.975,14.215,24.728z"/>
		<path class="st2" d="M21.741,22.595c-0.365,0.647-1.173,1.069-2.26,0.514c0.423-0.455,1.145-0.673,1.734-0.543
			C21.384,22.603,21.564,22.586,21.741,22.595z"/>
	</g>
	<g>
		<path class="st2" d="M24.173,29.7c0.455-0.224,0.763-0.562,0.962-1.008c0.197-0.441,0.188-0.913,0.235-1.409
			c-0.207,0.159-0.394,0.293-0.569,0.443c-0.114,0.097-0.218,0.21-0.311,0.328c-0.225,0.288-0.358,0.605-0.294,0.985
			c0.027,0.154,0.023,0.314,0.023,0.472C24.22,29.57,24.193,29.628,24.173,29.7z"/>
		<g>
			<path class="st2" d="M26.331,28.045c0.416-0.48,0.508-1.074,0.615-1.692c-0.261,0.167-0.517,0.307-0.747,0.48
				c-0.41,0.31-0.669,0.7-0.618,1.252c0.016,0.172-0.043,0.352-0.066,0.517C25.766,28.539,26.114,28.295,26.331,28.045z"/>
			<path class="st2" d="M26.992,27.678c0.618-0.172,1.053-0.564,1.314-1.139c0.131-0.286,0.219-0.592,0.332-0.905
				c-0.109,0.044-0.199,0.079-0.288,0.116c-0.299,0.123-0.588,0.262-0.831,0.481c-0.219,0.2-0.397,0.426-0.426,0.735
				c-0.024,0.251-0.026,0.506-0.211,0.738C26.94,27.69,26.967,27.686,26.992,27.678z"/>
			<path class="st2" d="M29.159,26.733c0.543-0.297,1.033-0.955,1.207-1.622c-0.049,0.014-0.098,0.028-0.147,0.042
				c-0.348,0.095-0.695,0.196-0.996,0.406c-0.268,0.188-0.481,0.415-0.537,0.754c-0.036,0.225-0.093,0.442-0.275,0.64
				C28.697,26.919,28.936,26.854,29.159,26.733z"/>
			<path class="st2" d="M22.993,30.905c0.011,0.005,0.023,0.011,0.034,0.017c0.132-0.119,0.276-0.227,0.393-0.358
				c0.562-0.625,0.562-1.379,0.475-2.186c-0.237,0.257-0.476,0.482-0.674,0.737c-0.246,0.315-0.392,0.677-0.282,1.089
				C23.001,30.435,23.069,30.662,22.993,30.905z"/>
			<path class="st2" d="M23.365,31.255c0.226-0.117,0.444-0.086,0.659-0.025c0.265,0.075,0.517,0.036,0.767-0.063
				c0.357-0.142,0.628-0.406,0.918-0.661c-0.306-0.067-0.611-0.147-0.919-0.164C24.16,30.308,23.606,30.673,23.365,31.255z"/>
			<path class="st2" d="M25.78,29.015c0.228-0.046,0.426,0.034,0.619,0.135c0.226,0.118,0.461,0.157,0.715,0.125
				c0.4-0.051,0.739-0.25,1.098-0.423c-0.354-0.189-0.687-0.402-1.091-0.437C26.568,28.369,26.121,28.566,25.78,29.015z"/>
			<path class="st2" d="M27.158,28.141c0.235-0.032,0.421,0.072,0.6,0.195c0.261,0.18,0.553,0.25,0.86,0.189
				c0.325-0.065,0.642-0.16,0.964-0.242c-0.59-0.497-0.928-0.596-1.208-0.623C27.785,27.603,27.316,27.892,27.158,28.141z"/>
			<path class="st2" d="M24.5,30.072c0.257-0.089,0.476-0.018,0.694,0.064c0.227,0.085,0.457,0.077,0.691,0.021
				c0.389-0.093,0.698-0.334,1.036-0.548c-0.202-0.076-0.391-0.157-0.586-0.218C25.591,29.159,24.892,29.413,24.5,30.072z"/>
			<path class="st2" d="M29.331,27.067c-0.268,0.038-0.505,0.153-0.729,0.349c0.232,0.006,0.398,0.094,0.542,0.228
				c0.273,0.254,0.598,0.364,0.963,0.331c0.305-0.028,0.607-0.088,0.927-0.136C30.551,27.341,30.045,26.966,29.331,27.067z"/>
		</g>
	</g>
	<path class="st1" d="M31.617,32.323c-0.178-0.075-0.369-0.099-0.548-0.084c-0.179,0.016-0.349,0.074-0.484,0.172
		c-0.135,0.096-0.226,0.237-0.258,0.376c-0.032,0.141-0.014,0.273,0.016,0.379c0.03,0.109,0.074,0.197,0.112,0.266
		c0.039,0.07,0.074,0.122,0.098,0.156c0.024,0.035,0.037,0.053,0.037,0.053s-0.012-0.018-0.033-0.054
		c-0.022-0.037-0.052-0.092-0.086-0.162c-0.032-0.072-0.068-0.16-0.089-0.267c-0.021-0.105-0.029-0.23,0.01-0.353
		c0.036-0.122,0.125-0.237,0.249-0.313c0.123-0.076,0.278-0.116,0.436-0.119c0.159-0.003,0.324,0.033,0.469,0.106
		c0.145,0.075,0.267,0.188,0.341,0.329c0.074,0.142,0.101,0.3,0.094,0.463c-0.007,0.165-0.042,0.321-0.105,0.45
		c-0.064,0.126-0.16,0.218-0.273,0.277c-0.11,0.059-0.235,0.086-0.354,0.099c-0.185,0.017-0.354,0-0.486-0.022
		c-0.105-0.027-0.213-0.055-0.326-0.085c-0.379-0.103-0.805-0.242-1.268-0.385c-0.464-0.152-0.966-0.311-1.496-0.492
		c-0.132-0.044-0.267-0.087-0.403-0.13c-0.136-0.046-0.274-0.093-0.413-0.141c-0.279-0.098-0.564-0.186-0.854-0.283
		c-0.577-0.202-1.17-0.389-1.786-0.593c-0.308-0.1-0.616-0.208-0.93-0.303c-0.187-0.057-0.374-0.116-0.562-0.174
		c0.031-0.026,0.063-0.052,0.094-0.077c0.287-0.235,0.586-0.488,0.733-0.639c0.054-0.05,0.105-0.099,0.145-0.141
		c0.015-0.016,0.096-0.107,0.156-0.174c0.053-0.054,0.105-0.11,0.158-0.163c1.652-1.661,3.6-2.836,5.844-3.531
		c0.139-0.036,0.419-0.089,0.669-0.004c0.004,0.003,0.009,0.003,0.011,0.004c0.383,0.136,0.764,0.093,1.124-0.099
		c0.307-0.163,0.588-0.373,0.903-0.576c-0.185-0.073-0.335-0.135-0.488-0.191c-0.328-0.119-0.663-0.175-1.015-0.119
		c-0.408,0.066-0.676,0.304-0.899,0.598l-0.001-0.002c0,0-0.22,0.228-0.451,0.293c-0.016,0.004-0.029,0.009-0.04,0.013
		c-0.722,0.23-1.412,0.508-2.076,0.848c-1.438,0.735-2.698,1.665-3.79,2.778H23.8c-0.025,0.026-0.194,0.191-0.234,0.231
		c-0.219,0.212-0.659,0.58-1.04,0.888c-0.063-0.018-0.127-0.039-0.191-0.058c-0.604-0.177-1.221-0.328-1.838-0.449
		c0.502-0.521,0.974-1.095,1.418-1.702c0.235-0.328,0.467-0.661,0.683-1.01c0.108-0.174,0.213-0.35,0.316-0.528
		c0.105-0.182,0.473-0.884,0.565-1.048c0.095-0.165,0.189-0.33,0.29-0.493c0.199-0.324,0.404-0.647,0.616-0.96
		c0.215-0.31,0.433-0.616,0.656-0.911c0.225-0.293,0.457-0.577,0.689-0.85c0.135-0.157,0.269-0.31,0.408-0.458
		c0.09,0.01,0.181,0.02,0.27,0.03c0.166,0.013,0.332,0.019,0.493,0.029c0.656,0.026,1.299,0,1.91-0.096
		c0.61-0.096,1.187-0.269,1.688-0.521c0.123-0.069,0.245-0.126,0.357-0.204c0.114-0.073,0.224-0.144,0.323-0.228
		c0.203-0.157,0.372-0.337,0.52-0.509c0.293-0.353,0.449-0.722,0.537-1.023c0.053-0.185,0.076-0.349,0.084-0.485
		c0,0,0.003-0.159-0.096-0.303c-0.001-0.003-0.003-0.006-0.004-0.009c-0.003-0.006-0.008-0.008-0.013-0.014
		c-0.004-0.007-0.008-0.013-0.014-0.02c-0.005-0.005-0.009-0.009-0.013-0.013c-0.033-0.036-0.07-0.067-0.115-0.093
		c-0.138-0.081-0.31-0.115-0.389-0.126c-0.026-0.004-0.041-0.006-0.041-0.006c-3.391-0.367-6.228,0.907-8.05,2.084
		c-0.121-0.035-0.241-0.069-0.362-0.105c-0.049-0.014-0.096-0.028-0.145-0.043c-0.053-0.014-0.105-0.03-0.158-0.046
		c-0.528-0.155-1.056-0.318-1.575-0.474c-0.62-0.188-1.237-0.353-1.83-0.523c-0.299-0.079-0.593-0.157-0.879-0.233
		c-0.144-0.037-0.286-0.075-0.426-0.112c-0.142-0.035-0.282-0.068-0.419-0.101c-0.275-0.064-0.542-0.133-0.802-0.189
		c-0.261-0.055-0.514-0.107-0.755-0.159c-0.059-0.011-0.116-0.022-0.174-0.033c-0.011-0.002-0.023-0.004-0.034-0.006l0.022,0.003
		c-0.061-0.013-0.301-0.064-0.324-0.069c-0.023-0.004-0.057-0.01-0.102-0.018c-0.087-0.016-0.212-0.035-0.363-0.049
		c-0.016-0.002-0.032-0.003-0.049-0.005c0,0,0,0-0.002,0c-0.139-0.011-0.298-0.019-0.469-0.011
		c-0.192,0.007-0.401,0.034-0.605,0.113c-0.056,0.024-0.112,0.053-0.164,0.087c-0.042,0.026-0.082,0.056-0.117,0.091
		c-0.083,0.079-0.138,0.18-0.169,0.278c-0.011,0.05-0.026,0.097-0.026,0.146c-0.006,0.047-0.004,0.093,0,0.136
		c0.001,0.044,0.008,0.086,0.017,0.126c0.008,0.039,0.013,0.078,0.026,0.112c0.005,0.02,0.02,0.075,0.024,0.081
		c0.008,0.019,0.027,0.031,0.049,0.031c0.007,0,0.016-0.001,0.022-0.005c0.003,0,0.006-0.002,0.007-0.004
		c0.011-0.007,0.025-0.052,0.022-0.055c0.001-0.002,0.001-0.002,0-0.003c-0.01-0.333,0.086-0.753,0.632-0.765l-0.003-0.001
		c0.09,0.001,0.182,0.008,0.27,0.023c0.042,0.006,0.082,0.013,0.121,0.02c0.003,0.001,0.004,0.001,0.006,0.001
		c0.217,0.058,0.448,0.129,0.693,0.205c0.002,0.002,0.005,0.002,0.006,0.003c0.006,0.002,0.011,0.005,0.016,0.006
		c0.014,0.007,0.342,0.106,0.464,0.144c0.004,0.001,0.01,0.003,0.015,0.004l0.003,0.001c0.006,0.001,0.011,0.003,0.016,0.005
		c0.017,0.005,0.036,0.01,0.053,0.015c0.464,0.151,0.964,0.31,1.495,0.491c0.132,0.046,0.267,0.088,0.403,0.131
		c0.136,0.048,0.274,0.094,0.413,0.142c0.276,0.097,0.564,0.185,0.852,0.281c0.578,0.203,1.17,0.389,1.786,0.594
		c0.308,0.099,0.616,0.207,0.93,0.303c0.109,0.034,0.218,0.067,0.329,0.102c0.049,0.014,0.097,0.03,0.146,0.045
		c0.026,0.008,0.05,0.016,0.076,0.023c-0.086,0.067-0.169,0.132-0.245,0.194c-0.052,0.042-0.101,0.082-0.146,0.121
		c-0.007,0.006-0.014,0.011-0.02,0.017c-0.204,0.171-0.356,0.311-0.455,0.405c-0.006,0.007-0.012,0.011-0.017,0.017
		c-0.003,0.003-0.004,0.005-0.007,0.007c-0.079,0.076-0.141,0.138-0.185,0.181c-0.022,0.023-0.075,0.075-0.122,0.122
		c-0.878,0.854-1.887,1.527-3.026,2.027c-1.058,0.465-2.162,0.742-3.313,0.826c-0.269,0.011-0.518-0.128-0.518-0.128l-0.001,0.002
		c-0.26-0.234-0.545-0.412-0.92-0.376c-0.433,0.04-0.859,0.139-1.327,0.218c0.346,0.392,0.673,0.69,1.148,0.782
		c0.321,0.062,0.591-0.023,0.848-0.161c0.013-0.006,0.027-0.013,0.043-0.024c0.007-0.004,0.016-0.009,0.023-0.013
		c0.003,0,0.004-0.001,0.006-0.003c0.195-0.11,0.507-0.152,0.651-0.165c0.026-0.002,0.048-0.004,0.07-0.005c0.006,0,0.009,0,0.009,0
		v-0.002c0.201-0.018,0.294-0.039,0.525-0.055c0,0,0.227-0.03,0.267-0.037c2.191-0.376,4.038-1.283,5.534-2.726l0.194-0.181
		c0.013-0.015,0.419-0.437,1.145-0.992c0.08,0.025,0.16,0.049,0.24,0.073c0.605,0.177,1.22,0.327,1.836,0.449
		c-0.501,0.521-0.975,1.092-1.415,1.699c-0.235,0.327-0.468,0.662-0.682,1.01c-0.109,0.174-0.518,0.881-0.62,1.086
		c-0.075,0.151-0.171,0.326-0.261,0.49c-0.095,0.165-0.189,0.331-0.29,0.493c-0.199,0.325-0.402,0.648-0.616,0.96
		c-0.215,0.311-0.432,0.617-0.656,0.911c-0.225,0.294-0.455,0.578-0.689,0.851c-0.135,0.158-0.271,0.309-0.407,0.459
		c-0.09-0.01-0.181-0.019-0.271-0.029c-0.165-0.013-0.33-0.02-0.494-0.029c-0.654-0.027-1.297-0.001-1.908,0.095
		c-0.61,0.097-1.188,0.27-1.688,0.522c-0.123,0.069-0.245,0.125-0.357,0.204c-0.114,0.072-0.224,0.142-0.323,0.228
		c-0.204,0.157-0.373,0.337-0.521,0.509c-0.293,0.352-0.448,0.722-0.535,1.022c-0.046,0.16-0.069,0.304-0.081,0.428
		c-0.002,0.013-0.003,0.029-0.005,0.044c0,0.008-0.001,0.016-0.001,0.023c-0.015,0.15,0.042,0.28,0.043,0.284
		c0.029,0.078,0.133,0.154,0.151,0.162c0.01,0.006,0.02,0.008,0.03,0.013c-0.002,0-0.004,0-0.004,0s0.003,0,0.006,0.001
		c0.003,0.001,0.006,0.003,0.008,0.004c0.006,0.003,0.01,0.006,0.017,0.007c0,0,0.006,0.004,0.02,0.009
		c0.478,0.199,1.53,0.193,1.53,0.193h0.002c0.031,0.001,0.063,0.003,0.096,0.004c0.127,0.003,0.26,0.006,0.397,0.01
		c0.138-0.004,0.28-0.009,0.426-0.013c0.293-0.016,0.601-0.041,0.917-0.087c0.317-0.046,0.643-0.105,0.969-0.184
		c0.164-0.039,0.326-0.085,0.491-0.128c0.162-0.052,0.326-0.097,0.487-0.152c0.321-0.114,0.642-0.232,0.947-0.369
		c0.31-0.13,0.603-0.281,0.885-0.43c0.501-0.27,0.969-0.551,1.352-0.824c0.115,0.033,0.214,0.06,0.327,0.095
		c0.629,0.182,1.261,0.376,1.88,0.561c0.62,0.19,1.237,0.355,1.83,0.526c0.299,0.079,0.592,0.156,0.88,0.232
		c0.143,0.037,0.285,0.074,0.426,0.112c0.141,0.033,0.282,0.066,0.419,0.099c0.276,0.065,0.543,0.134,0.803,0.19
		c0.261,0.056,0.512,0.109,0.755,0.159c0.486,0.093,0.933,0.171,1.333,0.216c0.017,0.003,0.034,0.005,0.051,0.006h0.005
		c0.042,0.009,0.092,0.018,0.152,0.026c0.1,0.011,0.225,0.026,0.374,0.025c0.102-0.002,0.215-0.009,0.339-0.03
		c0.148-0.027,0.313-0.075,0.47-0.175c0.007-0.004,0.014-0.008,0.02-0.013c0.148-0.098,0.279-0.251,0.349-0.425
		c0.074-0.183,0.097-0.379,0.09-0.57c-0.003-0.19-0.052-0.399-0.161-0.569C31.96,32.528,31.795,32.398,31.617,32.323z
		 M31.126,19.698c0.314-0.078,1.215-0.23,0.821,0.69c-0.121,0.238-0.299,0.503-0.558,0.75c-0.286,0.269-0.666,0.507-1.118,0.682
		c-0.451,0.177-0.973,0.284-1.529,0.33c-0.557,0.046-1.149,0.031-1.759-0.024c-0.006,0-0.01-0.002-0.016-0.002
		c0.557-0.517,1.121-0.957,1.673-1.307c0.06-0.039,0.119-0.077,0.178-0.116c0.062-0.036,0.121-0.07,0.181-0.105
		c0.119-0.066,0.233-0.139,0.351-0.197c0.118-0.059,0.231-0.118,0.341-0.175c0.114-0.052,0.225-0.098,0.333-0.146
		c0.055-0.023,0.108-0.046,0.16-0.069c0.053-0.019,0.106-0.038,0.158-0.056c0.105-0.036,0.204-0.073,0.3-0.111
		c0.16-0.052,0.314-0.096,0.455-0.136C31.104,19.704,31.114,19.701,31.126,19.698z M23.757,21.501
		c1.619-1.024,4.036-2.108,6.942-2.034c-0.047,0.004-0.092,0.007-0.142,0.013c-0.106,0.016-0.216,0.034-0.332,0.056
		c-0.057,0.01-0.116,0.02-0.175,0.03c-0.059,0.015-0.119,0.029-0.179,0.044c-0.489,0.106-1.029,0.291-1.591,0.551
		c-0.562,0.26-1.145,0.601-1.719,1.02c-0.314,0.23-0.626,0.481-0.933,0.752c-0.171-0.03-0.341-0.063-0.514-0.098
		C24.664,21.735,24.209,21.624,23.757,21.501z M14.061,34.004c-0.059,0.013-0.115,0.024-0.169,0.037
		c-0.986,0.177-0.577-0.716-0.532-0.808c0.119-0.223,0.289-0.467,0.528-0.694c0.285-0.267,0.666-0.507,1.116-0.681
		c0.452-0.175,0.973-0.284,1.531-0.33c0.556-0.045,1.149-0.03,1.759,0.025c0.006,0,0.01,0.001,0.016,0.001
		c-0.067,0.063-0.136,0.125-0.204,0.185c-0.489,0.438-0.984,0.814-1.468,1.121c-0.06,0.04-0.121,0.079-0.179,0.116
		c-0.061,0.035-0.121,0.07-0.181,0.105c-0.12,0.064-0.234,0.139-0.352,0.196c-0.116,0.06-0.231,0.118-0.342,0.175
		c-0.113,0.051-0.225,0.098-0.333,0.145c-0.054,0.024-0.107,0.048-0.159,0.07c-0.055,0.019-0.106,0.037-0.158,0.056
		c-0.105,0.036-0.204,0.073-0.301,0.11c-0.179,0.058-0.347,0.105-0.502,0.151C14.109,33.991,14.086,33.996,14.061,34.004z
		 M21.076,32.443c-0.25,0.145-0.52,0.286-0.798,0.429c-0.281,0.139-0.577,0.276-0.88,0.404c-0.303,0.132-0.617,0.245-0.934,0.354
		c-0.158,0.055-0.319,0.102-0.477,0.152c-0.161,0.044-0.32,0.09-0.479,0.131c-0.32,0.077-0.635,0.149-0.945,0.199
		c-0.309,0.052-0.61,0.09-0.897,0.118c-0.144,0.011-0.283,0.021-0.418,0.031c-0.039,0.002-0.073,0.003-0.111,0.004
		c-0.023,0-0.043,0.001-0.064,0.001c-0.069,0.003-0.139,0.006-0.205,0.007c-0.296,0.007-0.529-0.004-0.713-0.026
		c0.04-0.003,0.082-0.007,0.125-0.011c0.003-0.002,0.004-0.002,0.006-0.002c0.135-0.011,0.277-0.023,0.432-0.04
		c0.106-0.016,0.218-0.033,0.331-0.055c0.059-0.01,0.116-0.02,0.177-0.031c0.059-0.015,0.118-0.029,0.178-0.043
		c0.491-0.108,1.029-0.293,1.592-0.552c0.562-0.26,1.145-0.602,1.719-1.02c0.313-0.228,0.623-0.478,0.927-0.748
		c0.172,0.032,0.347,0.065,0.52,0.099c0.449,0.101,0.904,0.211,1.355,0.335C21.375,32.266,21.231,32.355,21.076,32.443z"/>
</g>
</svg>
