<?xml version="1.0" encoding="utf-8"?>
<!-- Generator: Adobe Illustrator 16.0.0, SVG Export Plug-In . SVG Version: 6.00 Build 0)  -->
<!DOCTYPE svg PUBLIC "-//W3C//DTD SVG 1.1//EN" "http://www.w3.org/Graphics/SVG/1.1/DTD/svg11.dtd">
<svg version="1.1" id="Layer_1" xmlns="http://www.w3.org/2000/svg" xmlns:xlink="http://www.w3.org/1999/xlink" x="0px" y="0px"
	 width="393.166px" height="57.814px" viewBox="0 0 393.166 57.814" enable-background="new 0 0 393.166 57.814"
	 xml:space="preserve">
<g>
	
		<rect x="501.911" y="305.969" transform="matrix(0.7071 -0.7071 0.7071 0.7071 -106.0482 533.1311)" width="177.215" height="177.214"/>
	
		<rect x="546.216" y="350.279" transform="matrix(0.7071 -0.7071 0.7071 0.7071 -106.0514 533.1366)" fill="#FFFFFF" width="88.607" height="88.607"/>
	<polygon fill="#EDEDED" points="715.822,394.573 653.168,394.573 590.512,331.918 590.512,269.262 	"/>
	<polygon points="590.512,519.885 590.512,457.228 527.855,394.573 465.199,394.573 	"/>
	<polygon fill="#C6C6C6" points="715.822,394.573 653.168,394.573 590.512,457.228 590.512,519.885 	"/>
	<polygon points="527.855,394.573 465.199,394.573 590.512,269.262 590.512,331.918 	"/>
	<polygon fill="#3C3C3B" points="590.512,394.573 590.512,331.918 527.855,394.573 	"/>
	<polygon fill="#EDEDED" points="590.51,394.573 590.51,457.228 653.166,394.573 	"/>
	<polygon fill="#FFFFFF" points="590.512,394.573 653.166,394.573 590.512,331.917 	"/>
	<polygon fill="#575756" points="590.512,394.573 527.855,394.573 590.512,457.228 	"/>
</g>
<g>
	
		<rect x="110.499" y="-562.682" transform="matrix(0.7071 -0.7071 0.7071 0.7071 393.5392 1.9369)" width="177.217" height="177.214"/>
	
		<rect x="154.808" y="-518.38" transform="matrix(0.7071 -0.7071 0.7071 0.7071 393.5374 1.9409)" fill="#FFFFFF" width="88.607" height="88.607"/>
	<polygon fill="#EDEDED" points="324.416,-474.069 261.763,-474.069 199.104,-536.723 199.104,-599.379 	"/>
	<polygon points="199.104,-348.756 199.104,-411.413 136.449,-474.069 73.792,-474.069 	"/>
	<polygon fill="#C6C6C6" points="324.416,-474.069 261.763,-474.069 199.104,-411.413 199.104,-348.756 	"/>
	<polygon points="136.449,-474.069 73.792,-474.069 199.104,-599.379 199.104,-536.723 	"/>
	<polygon fill="#3C3C3B" points="199.104,-474.069 199.104,-536.723 136.449,-474.069 	"/>
	<polygon fill="#EDEDED" points="199.103,-474.069 199.103,-411.413 261.76,-474.069 	"/>
	<polygon fill="#FFFFFF" points="199.104,-474.069 261.76,-474.069 199.104,-536.726 	"/>
	<polygon fill="#575756" points="199.104,-474.069 136.449,-474.069 199.104,-411.413 	"/>
</g>
<g>
	<polygon fill="#C6C6C6" points="-1.188,-448.844 -40.533,-448.844 -40.533,-493.809 -35.049,-491.153 -35.049,-454.327 
		-3.845,-454.327 	"/>
	<rect x="7.724" y="-493.809" fill="#C6C6C6" width="5.483" height="44.967"/>
	<g>
		<path fill="#C6C6C6" d="M44.687-448.842h-0.085c-12.397,0-22.482-10.086-22.482-22.484c0-12.396,10.085-22.481,22.482-22.481
			h22.484l-2.656,5.483H44.601c-9.374,0-17,7.625-17,16.999s7.626,17,17,17h2.742L44.687-448.842z"/>
		<polygon fill="#C6C6C6" points="67.085,-451.499 61.601,-448.842 61.601,-468.583 41.86,-468.583 44.516,-474.068 
			67.085,-474.068 		"/>
	</g>
	<polygon fill="#C6C6C6" points="81.479,-474.068 81.479,-493.809 75.996,-493.809 75.996,-474.068 75.996,-468.583 
		75.996,-448.842 81.479,-448.842 81.479,-468.583 98.565,-468.583 101.221,-474.068 	"/>
	<g>
		<rect x="110.268" y="-474.068" fill="#C6C6C6" width="5.484" height="25.226"/>
		<rect x="110.268" y="-493.809" fill="#C6C6C6" width="5.484" height="25.226"/>
	</g>
	<polygon fill="#C6C6C6" points="147.15,-448.842 141.665,-448.842 141.665,-488.325 124.666,-488.325 124.666,-493.809 
		166.892,-493.809 164.234,-488.325 147.15,-488.325 	"/>
</g>
<path d="M256.446-448.842h-2.74v-5.484h2.74c9.373,0,17-7.626,17-17c0-9.373-7.627-16.999-17-16.999h-2.74v-5.483h2.74
	c12.397,0,22.482,10.085,22.482,22.481C278.931-458.928,268.845-448.842,256.446-448.842z"/>
<polygon points="259.188,-448.842 233.965,-448.842 233.965,-493.809 259.188,-493.809 259.188,-488.325 239.446,-488.325 
	239.446,-454.327 259.188,-454.327 "/>
<g>
	<path d="M332.809-468.583h-5.483v-2.743c0-9.373-7.625-16.999-17-16.999c-9.373,0-16.998,7.625-16.998,16.999v2.743h-5.484v-2.743
		c0-12.396,10.086-22.481,22.482-22.481c12.397,0,22.483,10.085,22.483,22.481V-468.583z"/>
	<polygon points="293.326,-448.842 287.842,-448.842 287.842,-468.583 293.548,-474.068 313.067,-474.068 310.42,-468.583 
		293.326,-468.583 	"/>
	<rect x="327.324" y="-468.583" width="5.483" height="19.741"/>
</g>
<rect x="393.743" y="-493.809" width="5.482" height="44.967"/>
<g>
	<path d="M368.326-468.573h-2.741v-5.484h2.741c3.932,0,7.13-3.197,7.13-7.128c0-3.932-3.198-7.129-7.13-7.129h-2.741v-5.484h2.741
		c6.955,0,12.613,5.658,12.613,12.613C380.939-474.231,375.281-468.573,368.326-468.573z"/>
	<g>
		<polygon points="366.955,-493.798 335.973,-493.798 338.317,-488.314 366.955,-488.314 		"/>
		<polygon points="365.075,-468.573 366.955,-468.573 368.335,-474.057 351.836,-474.057 377.049,-448.842 384.805,-448.842 		"/>
	</g>
</g>
<polygon points="430.971,-448.842 408.488,-471.327 430.97,-493.808 438.725,-493.807 416.244,-471.327 438.742,-448.829 "/>
<g>
	<g>
		<rect x="196.363" y="-483.938" fill="#575756" width="5.484" height="15.354"/>
		<rect x="196.363" y="-474.068" fill="#575756" width="5.484" height="15.354"/>
	</g>
	<g>
		<rect x="186.492" y="-474.068" fill="#575756" width="15.354" height="5.483"/>
		<rect x="196.363" y="-474.068" fill="#575756" width="15.355" height="5.483"/>
	</g>
</g>
<rect x="-40.533" y="-622.476" fill="#E30613" width="239.64" height="6.667"/>
<rect x="199.103" y="-622.476" fill="#E30613" width="239.64" height="6.667"/>
<rect x="164.242" y="-610.502" fill="#009FE3" width="34.86" height="8"/>
<rect x="199.104" y="-610.502" fill="#009FE3" width="34.86" height="8"/>
<polygon points="196.583,14.908 211.49,14.908 196.583,0 "/>
<rect x="193.708" y="14.407" width="5.75" height="21.703"/>
<rect x="193.708" y="14.407" fill="#FFFFFF" width="2.875" height="21.703"/>
<polygon fill="#FFFFFF" points="196.583,14.908 196.583,0 181.676,14.908 "/>
</svg>
