<?xml version="1.0" encoding="utf-8"?>
<!-- Generator: Adobe Illustrator 22.0.0, SVG Export Plug-In . SVG Version: 6.00 Build 0)  -->
<svg version="1.1" id="Layer_1" xmlns="http://www.w3.org/2000/svg" xmlns:xlink="http://www.w3.org/1999/xlink" x="0px" y="0px"
	 viewBox="0 0 1000 600" style="enable-background:new 0 0 1000 600;" xml:space="preserve">
<style type="text/css">
	.st0{fill:#FF7BAC;}
	.st1{fill:#D22048;}
	.st2{fill:#CD1F5E;}
	.st3{fill:#C93985;}
	.st4{fill:#D81D54;}
	.st5{fill:#8E287E;}
	.st6{fill:#C02142;}
	.st7{fill:#D02C79;}
	.st8{fill:#981F37;}
	.st9{fill:#D21D5F;}
	.st10{fill:#D31D60;}
	.st11{fill:#EB1558;}
	.st12{fill:#EA1656;}
	.st13{fill:#831C39;}
	.st14{fill:#85276A;}
	.st15{fill:#C53292;}
	.st16{fill:#7E204E;}
	.st17{fill:#BA222D;}
	.st18{fill:#532457;}
	.st19{fill:#9A2359;}
	.st20{fill:#8A3691;}
	.st21{fill:#992876;}
	.st22{fill:#4D1438;}
	.st23{fill:#22001F;}
	.st24{fill:#D51A69;}
	.st25{fill:#592865;}
	.st26{fill:#671B44;}
	.st27{fill:#BB2072;}
	.st28{fill:#8F519C;}
	.st29{fill:#E71758;}
	.st30{fill:#B06EAD;}
	.st31{fill:#8A1E3F;}
	.st32{fill:#D02289;}
	.st33{fill:#D01970;}
	.st34{fill:#A12A78;}
	.st35{fill:#E50D76;}
	.st36{fill:#550618;}
	.st37{fill:#580C25;}
	.st38{fill:#37001E;}
	.st39{fill:#510519;}
	.st40{fill:#1E0000;}
	.st41{fill:#2F092E;}
	.st42{fill:#AD4D9B;}
	.st43{fill:#A658A1;}
	.st44{fill:#78255F;}
	.st45{fill:#824980;}
	.st46{fill:#98509D;}
	.st47{fill:#B172AF;}
	.st48{fill:#E91266;}
	.st49{fill:#623083;}
	.st50{fill:#8F2788;}
	.st51{fill:#8A2888;}
	.st52{fill:#59265F;}
	.st53{fill:#B73090;}
	.st54{fill:#C62A8D;}
	.st55{fill:#B667A7;}
	.st56{fill:#B63A8C;}
	.st57{fill:#974C9B;}
	.st58{fill:#662867;}
	.st59{fill:#6F296C;}
	.st60{fill:#EA1754;}
	.st61{fill:#B162A6;}
	.st62{fill:#B9529B;}
	.st63{fill:#AE5BA3;}
	.st64{fill:#EB0A73;}
	.st65{fill:#EC0B70;}
	.st66{fill:#B42352;}
	.st67{fill:#964F9C;}
	.st68{fill:#DB1865;}
	.st69{fill:#DB156E;}
	.st70{fill:#91529D;}
	.st71{fill:#D41576;}
	.st72{fill:#8F2B7C;}
	.st73{fill:#D52585;}
	.st74{fill:#AE357A;}
	.st75{fill:#621C47;}
	.st76{fill:#742A76;}
	.st77{fill:#8B328F;}
	.st78{fill:#9E4E9C;}
	.st79{fill:#801E48;}
	.st80{fill:#CF1A89;}
	.st81{fill:#A9328A;}
	.st82{fill:#912664;}
	.st83{fill:#380021;}
	.st84{fill:#7D2255;}
	.st85{fill:#AF70AB;}
	.st86{fill:#6A183D;}
	.st87{fill:#300000;}
	.st88{fill:#020000;}
	.st89{fill:#2F0002;}
	.st90{fill:#691329;}
	.st91{fill:#080000;}
	.st92{fill:#8A2885;}
	.st93{fill:#891E40;}
	.st94{fill:#DA1472;}
	.st95{fill:#79286B;}
	.st96{fill:#E6175A;}
	.st97{fill:#E70383;}
	.st98{fill:#BF4699;}
	.st99{fill:#EA1658;}
	.st100{fill:#84356F;}
	.st101{fill:#C11F70;}
	.st102{fill:#E61758;}
	.st103{fill:#EA155B;}
	.st104{fill:#942876;}
	.st105{fill:#D41B67;}
	.st106{fill:#E21073;}
	.st107{fill:#7A2153;}
	.st108{fill:#A8318E;}
	.st109{fill:#A8235A;}
	.st110{fill:#591030;}
	.st111{fill:#190022;}
	.st112{fill:#E4126C;}
	.st113{fill:#8B276A;}
	.st114{fill:#EB1165;}
	.st115{fill:#EB1166;}
	.st116{fill:#C02158;}
	.st117{fill:#D9176B;}
	.st118{fill:#EC0D6D;}
	.st119{fill:#EC0775;}
	.st120{fill:#EA1069;}
	.st121{fill:#EB0D6E;}
	.st122{fill:#D5288D;}
	.st123{fill:#952356;}
	.st124{fill:#C81D6E;}
	.st125{fill:#4B1D4B;}
	.st126{fill:#67173A;}
	.st127{fill:#5C1337;}
	.st128{fill:#5B173F;}
	.st129{fill:#000001;}
	.st130{fill:none;stroke:#231F20;stroke-miterlimit:10;}
	.st131{fill:#5E2051;}
	.st132{fill:#B92074;}
	.st133{fill:#741A3D;}
	.st134{fill:#8B4D9D;}
	.st135{fill:#500620;}
	.st136{fill:#19000C;}
	.st137{fill:#351833;}
	.st138{fill:#A8246E;}
	.st139{fill:#6A1C48;}
	.st140{fill:#80255F;}
	.st141{fill:#B92257;}
	.st142{fill:#200226;}
	.st143{fill:#BD2168;}
	.st144{fill:#DE1766;}
	.st145{fill:#B52254;}
	.st146{fill:#471942;}
	.st147{fill:#BB2071;}
	.st148{fill:#E31955;}
	.st149{fill:#B02254;}
	.st150{fill:#DF1371;}
	.st151{fill:#EC0D6C;}
	.st152{fill:#D02E8E;}
	.st153{fill:#A94F9C;}
	.st154{fill:#DB1A5F;}
	.st155{fill:#A92477;}
	.st156{fill:#9A2038;}
	.st157{fill:#9E256A;}
	.st158{fill:#CA2056;}
	.st159{fill:#A02484;}
	.st160{fill:#8A1F42;}
	.st161{fill:#931F38;}
	.st162{fill:#B2207F;}
	.st163{fill:#691327;}
	.st164{fill:#230329;}
	.st165{fill:#922046;}
	.st166{fill:#6E131F;}
	.st167{fill:#520619;}
	.st168{fill:#530D2C;}
	.st169{fill:#721731;}
	.st170{fill:#5F173C;}
	.st171{fill:#2A0327;}
	.st172{fill:#32133A;}
	.st173{fill:#6B142B;}
	.st174{fill:#42001B;}
	.st175{fill:#550A21;}
	.st176{fill:#3C0000;}
	.st177{fill:#160000;}
	.st178{fill:#37000C;}
	.st179{fill:#38062A;}
	.st180{fill:#7F2A8C;}
	.st181{fill:#672256;}
	.st182{fill:#892666;}
	.st183{fill:#94266A;}
	.st184{fill:#6F2767;}
	.st185{fill:#AD227C;}
	.st186{fill:#952567;}
	.st187{fill:#6F2C77;}
	.st188{fill:#501E4C;}
	.st189{fill:#000003;}
	.st190{fill:#000006;}
	.st191{fill:#741837;}
	.st192{fill:#62183F;}
	.st193{fill:#AB77B2;}
	.st194{fill:#821F48;}
	.st195{fill:#4F051B;}
	.st196{fill:#A22357;}
	.st197{fill:#460B31;}
	.st198{fill:#9D2674;}
	.st199{fill:#B62271;}
	.st200{fill:#270000;}
	.st201{fill:#7D2976;}
	.st202{fill:#4C0215;}
	.st203{fill:#170000;}
	.st204{fill:#4A0624;}
	.st205{fill:#561031;}
	.st206{fill:#631434;}
	.st207{fill:#050000;}
	.st208{fill:#9E6FAB;}
	.st209{fill:#B882B5;}
	.st210{fill:#621537;}
	.st211{fill:#812561;}
	.st212{fill:#4F245A;}
	.st213{fill:#A92359;}
	.st214{fill:#1A0008;}
	.st215{fill:#6D1A3E;}
	.st216{fill:#823691;}
	.st217{fill:#A45A9F;}
	.st218{fill:#500A29;}
	.st219{fill:#3B0018;}
	.st220{fill:#682765;}
	.st221{fill:#95509D;}
	.st222{fill:#2F000F;}
	.st223{fill:#340018;}
	.st224{fill:#3D0021;}
	.st225{fill:#B13891;}
	.st226{fill:#58235A;}
	.st227{fill:#8B2889;}
	.st228{fill:#912784;}
	.st229{fill:#86297F;}
	.st230{fill:#A12571;}
	.st231{fill:#E7106D;}
	.st232{fill:#872980;}
	.st233{fill:#8E245C;}
	.st234{fill:#8E214D;}
	.st235{fill:#D13590;}
	.st236{fill:#B42178;}
	.st237{fill:#D1298A;}
	.st238{fill:#D21184;}
	.st239{fill:#DF3E77;}
	.st240{fill:#DC1769;}
	.st241{fill:#411C48;}
	.st242{fill:#BF4197;}
	.st243{fill:#B7318F;}
	.st244{fill:#8B2882;}
	.st245{fill:#78171E;}
	.st246{fill:#0D0002;}
	.st247{fill:#9B519C;}
	.st248{fill:#7D192D;}
</style>
<polygon class="st0" points="1000,0 1000,600 0,600 "/>
<polygon class="st1" points="348.071,255.225 339.536,260.88 353.192,236.234 "/>
<polygon class="st2" points="353.192,236.234 347.537,223.751 346.364,248.557 "/>
<polygon class="st3" points="347.537,223.751 339.536,260.88 346.364,248.557 "/>
<polygon class="st4" points="339.536,260.88 354.046,266.499 348.071,255.225 "/>
<polygon class="st5" points="337.402,292.247 356.606,295.661 344.55,271.656 "/>
<polygon class="st6" points="337.402,292.247 339.536,260.88 344.55,271.656 "/>
<polygon class="st7" points="339.536,260.88 354.046,266.499 344.55,271.656 "/>
<polygon class="st8" points="344.55,271.656 368.556,278.377 356.606,295.661 "/>
<polygon class="st9" points="353.192,236.234 376.22,249.802 354.046,266.499 "/>
<polygon class="st10" points="348.071,255.225 353.192,236.234 354.046,266.499 "/>
<polygon class="st11" points="344.55,271.656 354.046,266.499 368.556,278.377 "/>
<polygon class="st12" points="376.22,249.802 368.556,278.377 354.046,266.499 "/>
<polygon class="st13" points="353.192,236.234 394.98,232.998 387.734,256.554 "/>
<polygon class="st14" points="375.704,295.661 376.22,249.802 387.734,256.554 "/>
<polygon class="st15" points="376.22,249.802 368.556,278.377 375.704,295.661 "/>
<polygon class="st16" points="356.606,295.661 344.55,322.334 337.402,292.247 "/>
<polygon class="st17" points="337.402,292.247 336.655,308.784 344.55,322.334 "/>
<polygon class="st18" points="344.55,322.334 349.778,322.334 356.606,295.661 "/>
<polygon class="st19" points="356.606,295.661 390.854,323.26 349.778,322.334 "/>
<polygon class="st20" points="390.854,323.26 420.195,329.376 389.361,306.117 "/>
<polygon class="st21" points="356.606,295.661 389.361,306.117 390.854,323.26 "/>
<polygon class="st22" points="356.606,295.661 389.361,306.117 375.704,295.661 "/>
<polygon class="st23" points="368.556,278.377 356.606,295.661 375.704,295.661 "/>
<polygon class="st24" points="375.704,295.661 400.563,263.654 394.98,232.998 "/>
<polygon class="st25" points="400.563,263.654 389.361,306.117 404.778,287.019 "/>
<polygon class="st26" points="375.704,295.661 389.361,306.117 400.563,263.654 "/>
<polygon points="344.55,322.334 368.022,335.031 390.854,323.26 "/>
<polygon points="390.854,323.26 420.195,329.376 368.022,335.031 "/>
<polygon points="368.022,335.031 390.854,344.419 420.195,329.376 "/>
<polygon points="390.854,344.419 431.717,335.031 420.195,329.376 "/>
<polygon class="st27" points="389.361,306.117 400.563,314.567 404.778,287.019 "/>
<polygon class="st28" points="404.778,287.019 435.452,311.078 400.563,314.567 "/>
<polygon class="st29" points="347.537,223.751 370.939,203.195 353.192,236.234 "/>
<polygon class="st30" points="353.192,236.234 373.215,219.715 382.461,229.513 "/>
<polygon class="st31" points="382.461,229.513 394.98,232.998 353.192,236.234 "/>
<polygon class="st4" points="353.192,236.234 373.215,219.715 370.939,203.195 "/>
<polygon class="st32" points="382.461,229.513 407.781,194.945 394.98,232.998 "/>
<polygon class="st33" points="407.781,194.945 441.068,183.708 422.149,210.025 "/>
<polygon class="st34" points="373.215,219.715 407.781,194.945 382.461,229.513 "/>
<polygon class="st35" points="370.939,203.195 396.268,203.195 373.215,219.715 "/>
<polygon class="st36" points="420.195,329.376 448.361,316.999 435.452,311.078 "/>
<polygon class="st37" points="400.563,314.567 435.452,311.078 420.195,329.376 "/>
<polygon class="st38" points="400.636,263.611 414.253,287.062 404.705,287.002 "/>
<polygon class="st39" points="404.705,287.002 414.253,287.062 435.452,311.078 "/>
<polygon class="st40" points="414.253,287.062 447.508,304.41 435.452,311.078 "/>
<polygon class="st41" points="435.452,311.078 448.361,316.999 447.508,304.41 "/>
<polygon class="st42" points="414.253,287.062 424.425,257.11 430.88,276.563 "/>
<polygon class="st43" points="414.253,287.062 412.719,244.325 424.425,257.11 "/>
<polygon class="st44" points="370.939,203.195 389.574,193.024 407.781,194.945 "/>
<polygon class="st45" points="370.939,203.195 396.268,203.195 407.781,194.945 "/>
<polygon class="st46" points="389.574,193.024 441.068,183.708 407.781,194.945 "/>
<polygon class="st47" points="389.574,193.024 441.746,166.458 441.068,183.708 "/>
<polygon class="st48" points="389.574,193.024 435.558,162.51 441.746,166.458 "/>
<polygon class="st49" points="447.508,304.41 472.794,290.54 456.15,287.062 "/>
<polygon class="st50" points="430.88,276.563 439.329,251.367 456.15,287.062 "/>
<polygon class="st51" points="414.253,287.062 456.15,287.062 447.508,304.41 "/>
<polygon class="st52" points="430.88,276.563 414.253,287.062 456.15,287.062 "/>
<polygon class="st53" points="424.425,257.11 439.329,251.367 430.88,276.563 "/>
<polygon class="st54" points="400.636,263.611 412.719,244.325 414.253,287.062 "/>
<polygon class="st55" points="394.98,232.998 422.149,210.025 407.781,194.945 "/>
<polygon class="st56" points="394.98,232.998 400.636,263.611 408.564,231.504 "/>
<polygon class="st57" points="394.98,232.998 422.149,210.025 408.564,231.504 "/>
<polygon class="st58" points="422.149,210.025 463.832,177.448 446.477,202.058 "/>
<polygon class="st59" points="422.149,210.025 408.564,231.504 446.477,202.058 "/>
<polygon class="st60" points="408.564,231.504 400.636,263.611 432.298,213.071 "/>
<polygon class="st61" points="424.425,257.11 412.719,244.324 449.89,208.033 "/>
<polygon class="st62" points="412.719,244.324 432.298,213.071 449.89,208.033 "/>
<polygon class="st63" points="441.746,166.458 469.658,161.59 441.068,183.708 "/>
<polygon class="st64" points="435.558,162.51 460.417,154.828 486.984,161.123 "/>
<polygon class="st65" points="435.558,162.51 441.746,166.458 469.658,161.59 "/>
<polygon class="st66" points="469.658,161.59 478.839,173.321 486.984,161.123 "/>
<polygon class="st67" points="441.068,183.708 478.839,173.321 469.658,161.59 "/>
<polygon class="st68" points="441.068,183.708 422.149,210.025 463.832,177.448 "/>
<polygon class="st69" points="463.832,177.448 478.839,173.321 480.831,191.389 "/>
<polygon class="st70" points="454.001,191.389 480.831,191.389 463.832,177.448 "/>
<polygon class="st71" points="446.477,202.058 473.194,200.771 454.001,191.389 "/>
<polygon class="st72" points="446.477,202.058 449.89,208.033 473.194,200.771 "/>
<polygon class="st73" points="446.477,202.058 432.298,213.071 449.89,208.033 "/>
<polygon class="st74" points="473.194,200.771 480.831,191.389 454.001,191.389 "/>
<polygon class="st75" points="424.425,257.11 449.215,230.793 449.89,208.033 "/>
<polygon class="st76" points="449.215,230.793 468.633,240.075 477.488,222.791 "/>
<polygon class="st77" points="449.89,208.033 477.488,222.791 449.215,230.793 "/>
<polygon class="st78" points="424.425,257.11 468.633,240.075 449.215,230.793 "/>
<polygon class="st79" points="462.765,272.086 456.15,287.062 439.329,251.367 "/>
<polygon class="st80" points="468.633,240.075 462.765,272.086 439.329,251.367 "/>
<polygon class="st81" points="468.633,240.075 475.27,260.047 462.765,272.086 "/>
<polygon class="st82" points="477.488,222.791 468.633,240.075 475.27,260.047 "/>
<polygon class="st83" points="462.765,272.086 472.794,290.54 456.15,287.062 "/>
<polygon class="st84" points="462.765,272.086 500.64,255.545 497.012,239.115 "/>
<polygon class="st85" points="475.27,260.047 477.488,222.791 497.012,239.115 "/>
<polygon class="st86" points="472.794,290.54 500.64,255.545 462.765,272.086 "/>
<polygon class="st87" points="448.361,316.999 482.609,294.096 447.508,304.41 "/>
<polygon class="st88" points="447.508,304.41 472.794,290.54 482.609,294.096 "/>
<polygon class="st89" points="472.794,290.54 497.012,284.885 482.609,294.096 "/>
<polygon class="st90" points="472.794,290.54 500.64,255.545 502.809,278.377 "/>
<polygon class="st91" points="472.794,290.54 502.809,278.377 497.012,284.885 "/>
<polygon class="st92" points="497.012,239.115 529.625,229.157 500.64,255.545 "/>
<polygon class="st93" points="477.488,222.791 491.891,194.945 495.404,228.463 "/>
<polygon class="st94" points="477.488,222.791 513.319,234.136 497.012,239.115 "/>
<polygon class="st95" points="491.891,194.945 509.709,187.689 495.404,228.463 "/>
<polygon class="st96" points="495.404,228.463 509.709,187.689 513.319,234.136 "/>
<polygon class="st97" points="509.709,187.689 521.125,193.737 511.814,214.775 "/>
<polygon class="st98" points="449.89,208.033 491.891,194.945 477.488,222.791 "/>
<polygon class="st99" points="460.417,154.828 485.063,154.828 486.984,161.123 "/>
<polygon class="st100" points="480.831,191.389 491.891,194.945 473.194,200.771 "/>
<polygon class="st101" points="480.831,191.389 509.709,187.689 491.891,194.945 "/>
<polygon class="st102" points="485.063,154.828 513.319,151.13 505.797,164.024 "/>
<polygon class="st103" points="509.709,187.689 532.968,162.894 513.319,151.13 "/>
<polygon class="st104" points="509.709,187.689 532.968,162.894 521.125,193.737 "/>
<polygon class="st105" points="513.319,151.13 570.096,164.645 566.54,182.996 "/>
<polygon class="st106" points="532.968,162.894 548.8,189.258 521.125,193.737 "/>
<polygon class="st107" points="511.814,214.775 548.8,189.258 521.125,193.737 "/>
<polygon class="st108" points="511.814,214.775 529.625,229.157 513.319,234.136 "/>
<polygon class="st109" points="532.968,162.894 566.54,182.996 551.959,194.518 "/>
<polygon class="st110" points="526.539,204.616 549.114,203.763 548.8,189.258 "/>
<polygon class="st111" points="548.8,189.258 549.114,203.763 551.959,194.518 "/>
<polygon class="st112" points="570.096,164.645 580.339,174.673 566.54,182.996 "/>
<polygon class="st113" points="566.54,182.996 605.411,196.08 580.339,174.673 "/>
<polygon class="st114" points="566.54,182.996 551.959,194.518 605.411,196.08 "/>
<polygon class="st115" points="570.096,164.645 597.836,180.007 580.339,174.673 "/>
<polygon class="st116" points="605.411,196.08 597.836,180.007 580.339,174.673 "/>
<polygon class="st117" points="511.814,214.775 549.114,203.763 526.539,204.616 "/>
<polygon class="st118" points="478.839,173.321 505.797,164.024 509.709,187.689 "/>
<polygon class="st119" points="478.839,173.321 480.831,191.389 509.709,187.689 "/>
<polygon class="st120" points="513.319,151.13 505.797,164.024 509.709,187.689 "/>
<polygon class="st118" points="486.984,161.123 478.839,173.321 505.797,164.024 "/>
<polygon class="st121" points="485.063,154.828 486.984,161.123 505.797,164.024 "/>
<polygon class="st122" points="534.962,207.941 529.625,229.157 511.814,214.775 "/>
<polygon class="st123" points="549.114,203.763 547.324,230.793 534.962,207.941 "/>
<polygon class="st124" points="534.962,207.941 555.694,246.263 529.625,229.157 "/>
<polygon class="st125" points="529.625,229.157 532.968,265.148 533.97,232.009 "/>
<polygon class="st126" points="533.97,232.009 532.968,265.148 555.694,246.263 "/>
<polygon class="st127" points="500.64,255.545 532.968,265.148 529.625,229.157 "/>
<polygon class="st128" points="500.64,255.545 502.809,278.377 532.968,265.148 "/>
<polygon class="st129" points="497.012,284.885 502.809,278.377 532.968,265.148 "/>
<polygon class="st130" points="547.782,223.878 573.44,205.293 583.006,227.102 "/>
<polygon class="st131" points="547.782,223.878 547.324,230.793 555.694,246.263 "/>
<polygon class="st132" points="547.782,223.878 568.602,232.607 555.694,246.263 "/>
<polygon points="532.968,265.148 576.924,254.052 555.694,246.263 "/>
<polygon class="st133" points="555.694,246.263 568.602,232.607 576.924,254.052 "/>
<polygon class="st134" points="547.782,223.878 583.006,227.102 568.602,232.607 "/>
<polygon class="st61" points="568.602,232.607 587.541,249.571 583.006,227.102 "/>
<polygon class="st135" points="583.006,227.102 607.652,235.07 593.035,249.144 "/>
<polygon class="st136" points="576.924,254.052 587.541,249.571 568.602,232.607 "/>
<polygon class="st137" points="587.541,249.571 593.035,249.144 583.006,227.102 "/>
<polygon points="607.652,235.07 627.924,214.775 609.359,241.569 593.035,249.144 "/>
<polygon class="st138" points="576.406,212.055 583.006,195.425 597.836,201.232 "/>
<polygon class="st139" points="597.836,201.232 600.61,214.042 612.24,208.708 "/>
<polygon class="st140" points="605.411,196.08 627.924,214.775 612.24,208.708 "/>
<polygon class="st141" points="605.411,196.08 583.006,195.425 597.836,201.232 612.24,208.708 "/>
<polygon class="st142" points="573.44,205.293 583.006,195.425 576.406,212.055 "/>
<polygon class="st143" points="583.006,227.102 600.61,214.042 607.652,235.07 "/>
<polygon class="st144" points="600.61,214.042 627.924,214.775 612.24,208.708 "/>
<polygon class="st145" points="600.61,214.042 627.924,214.775 607.652,235.07 "/>
<polygon class="st146" points="597.836,201.232 593.035,203.657 600.61,214.042 "/>
<polygon class="st117" points="583.006,227.102 593.035,203.657 600.61,214.042 "/>
<polygon class="st147" points="593.035,203.657 583.006,227.102 576.406,212.055 "/>
<polygon class="st148" points="605.411,196.08 620.739,194.945 627.924,214.775 "/>
<polygon class="st149" points="597.836,180.007 620.739,194.945 605.411,196.08 "/>
<polygon class="st120" points="551.959,194.518 573.44,205.293 583.006,195.425 "/>
<polygon class="st150" points="551.959,194.518 549.114,203.763 573.44,205.293 "/>
<polygon class="st151" points="549.114,203.763 573.44,205.293 547.782,223.878 "/>
<polygon class="st152" points="583.006,227.102 576.406,212.055 573.254,205.427 547.782,223.878 "/>
<polygon class="st153" points="627.924,214.775 627.924,233.993 609.359,241.569 "/>
<polygon class="st154" points="620.739,194.945 636.138,212.762 641.153,228.242 "/>
<polygon class="st155" points="620.739,194.945 627.924,214.775 641.153,228.242 "/>
<polygon class="st156" points="627.924,214.775 627.924,233.993 641.153,228.242 "/>
<polygon class="st157" points="636.138,212.762 655.663,239.648 641.153,228.242 "/>
<polygon class="st158" points="641.153,228.242 641.153,242.742 627.924,233.993 "/>
<polygon class="st159" points="614.267,269.06 635.739,276.019 627.924,233.993 "/>
<polygon class="st160" points="641.153,228.242 641.153,242.742 654.596,301.92 "/>
<polygon class="st161" points="641.153,228.242 654.596,258.248 654.596,301.92 "/>
<polygon class="st162" points="641.153,228.242 655.663,239.648 654.596,258.248 "/>
<polygon class="st163" points="655.663,239.648 661.994,268.348 654.596,258.248 "/>
<polygon class="st164" points="654.596,258.248 661.388,288.865 661.994,268.348 "/>
<polygon class="st165" points="654.596,301.92 663.345,297.688 654.596,258.248 "/>
<polygon class="st166" points="654.596,301.92 662.705,319.276 663.345,297.688 "/>
<polygon class="st167" points="634.539,334.781 654.596,301.92 662.705,319.276 "/>
<polygon class="st168" points="634.539,334.781 662.705,319.276 648.622,334.781 "/>
<polygon class="st169" points="603.954,250.851 627.924,233.993 614.267,269.06 "/>
<polygon class="st170" points="608.505,266.961 603.954,250.851 614.267,269.06 "/>
<polygon class="st171" points="608.505,266.961 609.359,286.379 614.267,269.06 "/>
<polygon class="st172" points="634.539,334.781 630.413,351.568 643.927,334.781 "/>
<polygon class="st173" points="634.539,334.781 621.451,348.865 630.413,351.568 "/>
<polygon class="st174" points="630.413,351.568 611.386,362.949 621.451,348.865 "/>
<polygon class="st175" points="611.386,362.949 609.11,357.116 621.451,348.865 "/>
<polygon class="st176" points="630.413,351.568 611.386,362.949 625.008,361.241 "/>
<polygon class="st177" points="611.386,362.949 612.916,374.897 625.008,361.241 "/>
<polygon class="st178" points="630.413,351.568 625.008,361.241 612.916,374.897 626.181,364.371 636.558,343.936 "/>
<polygon class="st179" points="609.11,357.116 593.142,355.907 611.386,362.949 "/>
<polygon class="st180" points="593.142,355.907 621.451,348.865 609.11,357.116 "/>
<polygon class="st181" points="593.142,355.907 596.983,343.936 621.451,348.865 "/>
<polygon class="st182" points="596.983,343.936 634.539,334.781 621.451,348.865 "/>
<polygon class="st183" points="627.924,233.993 641.153,242.742 654.596,301.92 "/>
<polygon class="st184" points="627.924,233.993 639.233,294.808 654.596,301.92 "/>
<polygon class="st185" points="614.267,269.06 609.359,286.379 635.739,276.019 "/>
<polygon class="st186" points="609.359,286.379 632.12,294.239 635.739,276.019 "/>
<polygon class="st187" points="632.12,294.239 635.739,276.019 639.233,294.808 "/>
<polygon class="st188" points="634.539,334.781 632.12,294.239 654.596,301.92 "/>
<polygon class="st189" points="639.233,294.808 632.12,294.239 654.596,301.92 "/>
<polygon class="st190" points="634.539,334.781 625.003,329.661 633.816,322.674 "/>
<polygon class="st191" points="603.384,330.799 621.451,304.324 633.816,322.674 625.003,329.661 "/>
<polygon class="st192" points="633.816,322.674 609.359,286.379 632.12,294.239 "/>
<polygon class="st193" points="599.543,319.276 621.588,304.324 603.384,330.799 "/>
<polygon points="596.983,339.333 603.384,330.799 625.003,329.661 "/>
<polygon points="634.539,334.781 625.003,329.661 596.983,339.333 "/>
<polygon points="552.316,362.949 596.983,339.333 634.539,334.781 596.983,343.936 "/>
<polygon class="st194" points="599.543,319.276 596.983,339.333 603.384,330.799 "/>
<polygon class="st195" points="580.624,290.54 609.359,286.379 608.505,266.961 "/>
<polygon class="st196" points="580.624,290.54 621.588,304.324 609.359,286.379 "/>
<polygon class="st197" points="599.543,319.276 580.624,290.54 621.588,304.324 "/>
<polygon class="st198" points="583.612,317.561 599.543,319.276 596.983,339.333 "/>
<polygon class="st199" points="562.985,331.652 583.612,317.561 596.983,339.333 "/>
<polygon class="st200" points="562.985,331.652 552.316,362.949 596.983,339.333 "/>
<polygon points="528.701,354.413 552.316,362.949 562.985,331.652 "/>
<polygon class="st201" points="552.316,362.949 596.983,343.936 593.142,355.907 "/>
<polygon class="st202" points="611.386,362.949 594.316,366.931 604.344,374.079 "/>
<polygon class="st203" points="604.344,374.079 611.386,362.949 612.916,374.897 "/>
<polygon class="st204" points="472.794,345.913 515.684,362.949 552.316,362.949 "/>
<polygon class="st205" points="594.316,366.931 611.386,362.949 593.142,355.907 "/>
<polygon class="st206" points="552.316,362.949 594.316,366.931 593.142,355.907 "/>
<polygon points="604.344,374.079 591.578,374.897 594.316,366.931 "/>
<polygon points="560.921,374.897 591.578,374.897 575.746,365.171 "/>
<polygon class="st207" points="575.746,365.171 594.316,366.931 591.578,374.897 "/>
<polygon class="st200" points="552.316,362.949 575.746,365.171 567.581,370.494 "/>
<polygon points="552.316,362.949 560.921,374.897 567.633,370.494 "/>
<polygon class="st208" points="591.578,374.897 588.981,380.375 549.185,374.897 "/>
<polygon class="st209" points="549.185,374.897 545.202,368.069 560.921,374.897 "/>
<polygon points="523.65,362.949 532.826,370.034 545.202,368.069 "/>
<polyline points="523.65,362.949 552.316,362.949 560.921,374.897 545.202,368.069 "/>
<polygon class="st210" points="588.981,380.375 568.389,404.807 549.185,374.897 "/>
<polygon class="st211" points="568.389,404.807 588.981,380.375 601.105,448.87 "/>
<polygon class="st212" points="588.981,380.375 591.578,374.897 601.105,448.87 "/>
<polygon class="st213" points="568.389,404.807 587.381,445.67 601.105,448.87 "/>
<polygon class="st214" points="587.381,445.67 582.046,444.283 568.389,404.807 "/>
<polygon class="st215" points="562.985,275.016 580.624,290.54 608.505,266.961 "/>
<polygon class="st216" points="562.985,275.016 537.826,272.438 537.826,298.079 "/>
<polygon class="st217" points="537.826,298.079 541.708,319.276 552.316,295.527 "/>
<polygon class="st218" points="580.624,290.54 537.826,298.079 562.985,275.016 "/>
<polygon class="st219" points="552.314,295.527 549.754,324.824 541.708,319.276 "/>
<polygon class="st220" points="580.624,290.54 552.314,295.527 549.754,324.824 "/>
<polygon class="st221" points="580.624,290.54 585.19,297.475 549.754,324.824 "/>
<polygon class="st222" points="549.754,324.824 583.612,317.561 585.19,297.475 "/>
<polygon class="st223" points="585.19,297.475 599.543,319.276 583.612,317.561 "/>
<polygon class="st224" points="444.2,351.568 460.151,340.472 467.815,351.568 "/>
<polygon points="431.717,335.031 444.2,351.568 460.151,340.472 "/>
<polygon class="st225" points="537.826,298.079 511.814,306.117 541.708,319.276 "/>
<polygon class="st226" points="537.826,272.438 511.814,306.117 537.826,298.079 "/>
<polygon class="st227" points="511.814,306.117 490.433,343.175 516.804,327.029 "/>
<polygon class="st228" points="511.814,306.117 516.804,327.029 541.708,319.276 "/>
<polygon points="516.804,327.029 541.708,319.276 549.754,324.824 "/>
<polygon class="st229" points="516.804,327.029 528.701,354.413 490.433,343.175 "/>
<polygon class="st230" points="516.804,327.029 562.985,331.652 549.754,324.824 "/>
<polygon class="st231" points="583.612,317.561 549.754,324.824 562.985,331.652 "/>
<polygon class="st232" points="562.985,331.652 528.701,354.413 516.804,327.029 "/>
<polygon points="472.794,345.913 490.433,343.175 528.701,354.413 552.316,362.949 "/>
<polygon class="st233" points="466.441,304.908 490.433,343.175 490.433,301.92 "/>
<polygon class="st234" points="497.012,284.885 490.433,301.92 466.441,304.908 482.609,294.096 "/>
<polygon class="st235" points="537.826,272.438 556.501,259.207 562.985,275.016 "/>
<polygon points="593.035,249.144 576.924,254.052 587.541,249.571 "/>
<polygon class="st236" points="627.924,233.993 603.954,250.851 576.924,254.052 593.035,249.144 609.359,241.569 "/>
<polygon class="st237" points="603.954,250.851 608.505,266.961 556.501,259.207 576.924,254.052 "/>
<polygon class="st238" points="556.501,259.207 562.985,275.016 608.505,266.961 "/>
<polygon class="st239" points="490.433,301.92 510.067,277.72 497.012,284.885 "/>
<polygon class="st240" points="510.067,277.72 537.826,272.438 556.501,259.207 "/>
<polygon class="st241" points="510.067,277.72 532.968,265.148 556.501,259.207 "/>
<polygon class="st242" points="537.826,272.438 510.067,277.72 511.814,306.117 "/>
<polygon class="st243" points="490.433,301.92 511.814,306.117 510.067,277.72 "/>
<polygon class="st244" points="490.433,301.92 511.814,306.117 490.433,343.175 "/>
<polygon class="st245" points="460.151,340.472 466.441,304.908 490.433,343.175 "/>
<polygon points="460.151,340.472 490.433,343.175 472.794,345.913 "/>
<polygon points="494.844,362.949 515.684,362.949 467.815,351.568 "/>
<polygon points="460.151,340.472 467.815,351.568 515.684,362.949 472.794,345.913 "/>
<polygon class="st246" points="444.2,351.568 467.815,351.568 464.472,357.258 "/>
<polygon points="464.472,357.258 487.345,359.792 467.815,351.568 "/>
<polygon class="st247" points="431.717,335.031 451.047,328.682 460.151,340.472 "/>
<polygon class="st248" points="466.441,304.908 451.047,328.682 460.151,340.472 "/>
<polygon points="451.047,328.682 431.717,335.031 466.441,304.908 "/>
<polygon points="420.195,329.376 448.361,316.999 431.717,335.031 "/>
<polygon points="448.361,316.999 466.441,304.908 431.717,335.031 "/>
<polygon class="st211" points="601.096,448.864 589.283,448.864 587.371,445.663 "/>
<polygon class="st211" points="582.036,444.276 587.371,445.663 589.283,448.864 "/>
</svg>
