<?xml version="1.0" encoding="utf-8"?>
<!-- Generator: Adobe Illustrator 16.0.0, SVG Export Plug-In . SVG Version: 6.00 Build 0)  -->
<!DOCTYPE svg PUBLIC "-//W3C//DTD SVG 1.1//EN" "http://www.w3.org/Graphics/SVG/1.1/DTD/svg11.dtd">
<svg version="1.1" xmlns="http://www.w3.org/2000/svg" xmlns:xlink="http://www.w3.org/1999/xlink" x="0px" y="0px" width="500px"
	 height="336.333px" viewBox="0 0 500 336.333" enable-background="new 0 0 500 336.333" xml:space="preserve">
<pattern  x="-1.507" y="-150" width="57.386" height="57.386" patternUnits="userSpaceOnUse" id="New_Pattern_Swatch_3" viewBox="0 -57.386 57.386 57.386" overflow="visible">
	<g>
		<polygon fill="none" points="0,-57.386 57.386,-57.386 57.386,0 0,0 		"/>
		<polygon fill="#27253F" points="14.875,-51.585 5.375,-51.585 5.375,-53.085 14.875,-53.085 		"/>
		<polygon fill="#27253F" points="52.094,-14.585 42.594,-14.585 42.594,-16.085 52.094,-16.085 		"/>
		<polygon fill="#27253F" points="22.75,-21.585 13.25,-21.585 13.25,-23.085 22.75,-23.085 		"/>
		<polygon fill="#27253F" points="36.122,-8.576 26.622,-8.576 26.622,-10.076 36.122,-10.076 		"/>
		<polygon fill="#27253F" points="26.027,-44.576 21.858,-44.576 21.858,-46.076 26.027,-46.076 		"/>
		<polygon fill="#27253F" points="39.86,-51.491 35.692,-51.491 35.692,-52.991 39.86,-52.991 		"/>
		<polygon fill="#27253F" points="55.141,-44.288 50.972,-44.288 50.972,-45.788 55.141,-45.788 		"/>
		<polygon fill="#27253F" points="55.499,-6.585 51.33,-6.585 51.33,-8.085 55.499,-8.085 		"/>
		<polygon fill="#27253F" points="10.584,-6.985 6.416,-6.985 6.416,-8.485 10.584,-8.485 		"/>
		<polygon fill="#27253F" points="34.024,-16.085 29.855,-16.085 29.855,-17.585 34.024,-17.585 		"/>
		<polygon fill="#3A4D57" points="38.193,-26.493 34.024,-26.493 34.024,-27.993 38.193,-27.993 		"/>
		<polygon fill="#3A4D57" points="48.389,-34.085 44.221,-34.085 44.221,-35.585 48.389,-35.585 		"/>
		<polygon fill="#3A4D57" points="56.262,-34.085 52.094,-34.085 52.094,-35.585 56.262,-35.585 		"/>
		<polygon fill="#3A4D57" points="27.066,-5.085 22.897,-5.085 22.897,-6.585 27.066,-6.585 		"/>
		<polygon fill="#3A4D57" points="47.344,-9.326 43.175,-9.326 43.175,-10.826 47.344,-10.826 		"/>
		<polygon fill="#27253F" points="18,-36.947 8.5,-36.947 8.5,-38.447 18,-38.447 		"/>
		<polygon fill="#3A4D57" points="46.875,-40.71 37.375,-40.71 37.375,-42.21 46.875,-42.21 		"/>
		<polygon fill="#3A4D57" points="38.193,-36.197 28.693,-36.197 28.693,-37.697 38.193,-37.697 		"/>
		<polygon fill="#3A4D57" points="48.775,-21.206 39.275,-21.206 39.275,-22.706 48.775,-22.706 		"/>
		<path fill="#27253F" d="M43.632-52.241c0,0.574-0.465,1.039-1.039,1.039c-0.574,0-1.039-0.465-1.039-1.039
			c0-0.573,0.465-1.039,1.039-1.039C43.167-53.28,43.632-52.814,43.632-52.241z"/>
		<path fill="#27253F" d="M48.382-52.241c0,0.574-0.465,1.039-1.039,1.039c-0.574,0-1.039-0.465-1.039-1.039
			c0-0.573,0.465-1.039,1.039-1.039C47.917-53.28,48.382-52.814,48.382-52.241z"/>
		<path fill="#27253F" d="M9.539-24.658c0,0.574-0.465,1.039-1.039,1.039c-0.574,0-1.039-0.465-1.039-1.039s0.465-1.039,1.039-1.039
			C9.073-25.696,9.539-25.231,9.539-24.658z"/>
		<path fill="#27253F" d="M15.914-44.576c0,0.574-0.465,1.039-1.039,1.039c-0.574,0-1.039-0.465-1.039-1.039
			c0-0.573,0.465-1.039,1.039-1.039C15.448-45.615,15.914-45.149,15.914-44.576z"/>
		<path fill="#27253F" d="M51.33-3.243c0,0.574-0.465,1.039-1.039,1.039s-1.039-0.465-1.039-1.039s0.465-1.039,1.039-1.039
			S51.33-3.816,51.33-3.243z"/>
		<path fill="#27253F" d="M34.481-45.615c0,0.574-0.465,1.039-1.039,1.039s-1.039-0.465-1.039-1.039
			c0-0.573,0.465-1.039,1.039-1.039S34.481-46.188,34.481-45.615z"/>
		<path fill="#3A4D57" d="M11.705-46.076c0,0.574-0.465,1.039-1.039,1.039s-1.039-0.465-1.039-1.039
			c0-0.573,0.465-1.039,1.039-1.039S11.705-46.649,11.705-46.076z"/>
		<path fill="#3A4D57" d="M26.622-29.796c0,0.574-0.465,1.039-1.039,1.039c-0.573,0-1.039-0.465-1.039-1.039
			s0.465-1.039,1.039-1.039C26.157-30.835,26.622-30.37,26.622-29.796z"/>
		<path fill="#3A4D57" d="M30.895-29.796c0,0.574-0.465,1.039-1.039,1.039c-0.573,0-1.039-0.465-1.039-1.039
			s0.465-1.039,1.039-1.039C30.429-30.835,30.895-30.37,30.895-29.796z"/>
		<path fill="#3A4D57" d="M43.164-29.796c0,0.574-0.465,1.039-1.039,1.039c-0.574,0-1.039-0.465-1.039-1.039
			s0.465-1.039,1.039-1.039C42.698-30.835,43.164-30.37,43.164-29.796z"/>
		<path fill="#3A4D57" d="M23.936-15.335c0,0.574-0.465,1.039-1.039,1.039c-0.573,0-1.039-0.465-1.039-1.039
			c0-0.573,0.465-1.039,1.039-1.039C23.471-16.374,23.936-15.908,23.936-15.335z"/>
		<path fill="#3A4D57" d="M3.711-55.418c0,0.573-0.465,1.039-1.039,1.039c-0.574,0-1.039-0.465-1.039-1.039
			c0-0.574,0.465-1.039,1.039-1.039C3.246-56.457,3.711-55.992,3.711-55.418z"/>
		<path fill="#3A4D57" d="M5.789-30.835c0,0.574-0.465,1.039-1.039,1.039c-0.574,0-1.039-0.465-1.039-1.039
			c0-0.573,0.465-1.039,1.039-1.039C5.323-31.874,5.789-31.408,5.789-30.835z"/>
	</g>
</pattern>
<g id="BACKGROUND">
	<linearGradient id="SVGID_1_" gradientUnits="userSpaceOnUse" x1="250" y1="500" x2="250" y2="4.882812e-04">
		<stop  offset="0" style="stop-color:#E0FAFA"/>
		<stop  offset="0.3448" style="stop-color:#DDFAFA"/>
		<stop  offset="0.5522" style="stop-color:#D5F8F8"/>
		<stop  offset="0.7232" style="stop-color:#C7F6F6"/>
		<stop  offset="0.8735" style="stop-color:#B3F2F2"/>
		<stop  offset="1" style="stop-color:#9BEEEE"/>
	</linearGradient>
	<rect fill="url(#SVGID_1_)" width="500" height="500"/>
	
		<linearGradient id="SVGID_2_" gradientUnits="userSpaceOnUse" x1="1586.9849" y1="500" x2="1586.9849" y2="335" gradientTransform="matrix(1 0 0 1 -1336.9854 0)">
		<stop  offset="0" style="stop-color:#E0FAFA"/>
		<stop  offset="1" style="stop-color:#9BEEEE"/>
	</linearGradient>
	<rect y="335" fill="url(#SVGID_2_)" width="500" height="165"/>
</g>
<g id="OBJECTS">
	<linearGradient id="SVGID_3_" gradientUnits="userSpaceOnUse" x1="232.7324" y1="162.292" x2="232.7324" y2="420.2842">
		<stop  offset="0" style="stop-color:#B6E2E9"/>
		<stop  offset="0.7458" style="stop-color:#E0FAFA"/>
	</linearGradient>
	<path fill="url(#SVGID_3_)" d="M499.788,224.213V182.01h-7.674c-8.587,0-15.548,6.961-15.548,15.547v26.656h-3.87v-70.704
		l-38.704,0.364v53.927h-9.676v-67.995h-21.287V162.3c0,7-5.675,12.676-12.675,12.676h-10.547v-14.068h-21.287v63.306l0,0
		c-5.344,0-9.676-4.332-9.676-9.676v-9.082h-23.222V177.32H310.14v16.413h-7.741v-30.48h-5.806v-4.689H261.76v79.718h-27.093
		v-84.408h-30.963v9.379h-9.676v70.34h-17.417V217.18H165v-40.125l-25.157,0.266v35.282c0,6.413-5.198,11.611-11.611,11.611l0,0
		V182.01H105.01v42.204h-3.87v-51.009c0-10.696-8.677-19.363-19.373-19.352h0c-10.679,0.012-19.331,8.672-19.331,19.352v34.596
		H52.76v-67.995H31.473v35.17H8.25v-14.068h-21.287v63.306h-9.676v-18.757h-23.222V318h185.778h185.778h185.778v-93.787H499.788z"/>
	
		<linearGradient id="SVGID_4_" gradientUnits="userSpaceOnUse" x1="318.7979" y1="200.3262" x2="318.7979" y2="419.5139" gradientTransform="matrix(-1 0 0 1 558.4902 0)">
		<stop  offset="0" style="stop-color:#9BD9E3"/>
		<stop  offset="0.7458" style="stop-color:#E0FAFA"/>
	</linearGradient>
	<path fill="url(#SVGID_4_)" d="M12.802,252.935v-35.856h19.729v35.856h3.288v-60.07l32.883,0.31v45.816h8.221v-57.769h18.085
		v19.111c0,5.948,4.822,10.769,10.77,10.769h8.96V199.15h18.085v53.785l0,0c4.541,0,8.221-3.681,8.221-8.221v-7.715h19.73v-23.904
		h13.153v13.944h6.577v-25.896h4.932v-3.984h29.595v67.729h23.018v-71.713h26.306v7.968h8.221v59.76h14.797v-13.944h9.865v-34.09
		l21.374,0.226v29.976c0,5.448,4.417,9.865,9.865,9.865l0,0v-35.856h19.73v35.856h3.288v-19.92L384.376,211v27.99h8.221v-57.769
		h18.085v29.88h19.729V199.15h18.085v53.785h8.221v-15.936h19.729v95.617H318.61H160.774H2.937v-79.681H12.802z"/>
	<g>
		<rect x="404.732" y="198" fill="#E9E5D9" width="44" height="120"/>
		<rect x="426.732" y="282" fill="#E6E7E8" width="4" height="36"/>
		<rect x="434.732" y="282" fill="#E6E7E8" width="4" height="36"/>
		<rect x="442.732" y="282" fill="#E6E7E8" width="4" height="36"/>
		<rect x="406.732" y="200" fill="#017D78" width="40" height="78"/>
		<path fill="#E6E7E8" d="M446.732,202v-2h-40v78h2v-52h6v52h2v-52h24v52h2v-52h4v-2h-4v-6h4v-2h-4v-6h4v-2h-4v-6H446.732z
			 M414.732,224h-6v-6h6V224z M414.732,216h-6v-6h6V216z M414.732,208h-6v-6h6V208z M440.732,224h-24v-6h24V224z M440.732,216h-24
			v-6h24V216z M440.732,208h-24v-6h24V208z"/>
		<rect x="412.732" y="200" fill="#E9E5D9" width="2" height="78"/>
		<rect x="438.732" y="200" fill="#E9E5D9" width="2" height="78"/>
		<rect x="330.732" y="246" fill="#E9E5D9" width="48" height="72"/>
		<polygon fill="#F1F2F2" points="376.732,248 332.732,292 332.732,318.38 376.732,274 		"/>
		<polygon fill="#F1F2F2" points="374.749,318 376.732,316 376.732,290 348.732,318 		"/>
		<g>
			<rect x="332.732" y="248" fill="#017D78" width="12" height="8"/>
			<rect x="348.732" y="248" fill="#017D78" width="12" height="8"/>
			<rect x="364.732" y="248" fill="#017D78" width="12" height="8"/>
		</g>
		<g>
			<rect x="332.732" y="260" fill="#017D78" width="12" height="8"/>
			<rect x="348.732" y="260" fill="#017D78" width="12" height="8"/>
			<rect x="364.732" y="260" fill="#017D78" width="12" height="8"/>
		</g>
		<g>
			<rect x="332.732" y="272" fill="#017D78" width="12" height="8"/>
			<rect x="348.732" y="272" fill="#017D78" width="12" height="8"/>
			<rect x="364.732" y="272" fill="#017D78" width="12" height="8"/>
		</g>
		<rect x="330.732" y="242" fill="#F9F8F7" width="52" height="4"/>
		<polygon fill="#E6E7E8" points="332.732,256 332.732,248 344.732,248 344.732,250 334.732,250 334.732,256 		"/>
		<polygon fill="#E6E7E8" points="348.732,256 348.732,248 360.732,248 360.732,250 350.732,250 350.732,256 		"/>
		<polygon fill="#E6E7E8" points="364.732,256 364.732,248 376.732,248 376.732,250 366.732,250 366.732,256 		"/>
		<g>
			<polygon fill="#231F20" points="338.732,256 344.732,250 344.732,256 			"/>
			<polygon fill="#231F20" points="334.732,256 334.732,254 338.732,250 340.732,250 			"/>
		</g>
		<g>
			<polygon fill="#231F20" points="354.732,256 360.732,250 360.732,256 			"/>
			<polygon fill="#231F20" points="350.732,256 350.732,254 354.732,250 356.732,250 			"/>
		</g>
		<g>
			<polygon fill="#231F20" points="370.732,256 376.732,250 376.732,256 			"/>
			<polygon fill="#231F20" points="366.732,256 366.732,254 370.732,250 372.732,250 			"/>
		</g>
		<g>
			<polygon fill="#231F20" points="338.732,268 344.732,262 344.732,268 			"/>
			<polygon fill="#231F20" points="334.732,268 334.732,266 338.732,262 340.732,262 			"/>
		</g>
		<g>
			<polygon fill="#231F20" points="354.732,268 360.732,262 360.732,268 			"/>
			<polygon fill="#231F20" points="350.732,268 350.732,266 354.732,262 356.732,262 			"/>
		</g>
		<g>
			<polygon fill="#231F20" points="370.732,268 376.732,262 376.732,268 			"/>
			<polygon fill="#231F20" points="366.732,268 366.732,266 370.732,262 372.732,262 			"/>
		</g>
		<g>
			<polygon fill="#231F20" points="338.732,280 344.732,274 344.732,280 			"/>
			<polygon fill="#231F20" points="334.732,280 334.732,278 338.732,274 340.732,274 			"/>
		</g>
		<g>
			<polygon fill="#231F20" points="354.732,280 360.732,274 360.732,280 			"/>
			<polygon fill="#231F20" points="350.732,280 350.732,278 354.732,274 356.732,274 			"/>
		</g>
		<g>
			<polygon fill="#231F20" points="370.732,280 376.732,274 376.732,280 			"/>
			<polygon fill="#231F20" points="366.732,280 366.732,278 370.732,274 372.732,274 			"/>
		</g>
		<polygon fill="#E6E7E8" points="332.732,268 332.732,260 344.732,260 344.732,262 334.732,262 334.732,268 		"/>
		<polygon fill="#E6E7E8" points="348.732,268 348.732,260 360.732,260 360.732,262 350.732,262 350.732,268 		"/>
		<polygon fill="#E6E7E8" points="364.732,268 364.732,260 376.732,260 376.732,262 366.732,262 366.732,268 		"/>
		<polygon fill="#E6E7E8" points="332.732,280 332.732,272 344.732,272 344.732,274 334.732,274 334.732,280 		"/>
		<polygon fill="#E6E7E8" points="348.732,280 348.732,272 360.732,272 360.732,274 350.732,274 350.732,280 		"/>
		<polygon fill="#E6E7E8" points="364.732,280 364.732,272 376.732,272 376.732,274 366.732,274 366.732,280 		"/>
		<rect x="332.732" y="284" fill="#E6E7E8" width="44" height="2"/>
		<rect x="330.732" y="246" fill="#E6E7E8" width="48" height="2"/>
		<rect x="332.732" y="290" fill="#E6E7E8" width="44" height="2"/>
		<rect x="332.732" y="296" fill="#E6E7E8" width="44" height="2"/>
		<rect x="332.732" y="302" fill="#E6E7E8" width="44" height="2"/>
		<rect x="332.732" y="308" fill="#E6E7E8" width="44" height="2"/>
		<rect x="378.732" y="286" fill="#F9F8F7" width="48" height="32"/>
		<rect x="378.732" y="282" fill="#F9F8F7" width="50" height="4"/>
		<rect x="378.732" y="286" fill="#E6E7E8" width="48" height="2"/>
		<rect x="380.732" y="306" fill="#017D78" width="12" height="12"/>
		<rect x="396.732" y="306" fill="#017D78" width="28" height="12"/>
		<rect x="380.732" y="290" fill="#017D78" width="12" height="12"/>
		<rect x="396.732" y="290" fill="#017D78" width="28" height="12"/>
		<polygon fill="#E6E7E8" points="380.732,302 380.732,290 392.732,290 392.732,292 382.732,292 382.732,302 		"/>
		<polygon fill="#E6E7E8" points="396.732,302 396.732,290 424.732,290 424.732,292 398.732,292 398.732,302 		"/>
		<polygon fill="#E6E7E8" points="380.732,318 380.732,306 392.732,306 392.732,308 382.732,308 382.732,318 		"/>
		<polygon fill="#E6E7E8" points="396.732,318 396.732,306 424.732,306 424.732,308 398.732,308 398.732,318 		"/>
		<g>
			<polygon fill="#231F20" points="392.732,292 382.732,302 392.732,302 			"/>
			<polygon fill="#231F20" points="424.732,292 414.732,302 424.732,302 			"/>
			<polygon fill="#231F20" points="398.732,300 406.732,292 408.732,292 398.732,302 			"/>
			<polygon fill="#231F20" points="402.732,302 412.732,292 418.732,292 408.732,302 			"/>
		</g>
		<g>
			<polygon fill="#231F20" points="392.732,308 382.732,318 392.732,318 			"/>
			<polygon fill="#231F20" points="424.732,308 414.732,318 424.732,318 			"/>
			<polygon fill="#231F20" points="398.732,316 406.732,308 408.732,308 398.732,318 			"/>
			<polygon fill="#231F20" points="402.732,318 412.732,308 418.732,308 408.732,318 			"/>
		</g>
		<rect x="402.732" y="194" fill="#E9E5D9" width="48" height="4"/>
		<rect x="404.732" y="198" fill="#E6E7E8" width="44" height="2"/>
		<rect x="404.732" y="206" fill="#E9E5D9" width="44" height="2"/>
		<rect x="404.732" y="214" fill="#E9E5D9" width="44" height="2"/>
		<rect x="404.732" y="222" fill="#E9E5D9" width="44" height="2"/>
		<g>
			<polygon fill="#231F20" points="438.732,202 434.732,206 438.732,206 			"/>
			<polygon fill="#231F20" points="416.732,204 418.732,202 420.732,202 416.732,206 			"/>
			<polygon fill="#231F20" points="422.732,206 426.732,202 434.732,202 430.732,206 			"/>
		</g>
		<g>
			<polygon fill="#231F20" points="438.732,210 434.732,214 438.732,214 			"/>
			<polygon fill="#231F20" points="416.732,212 418.732,210 420.732,210 416.732,214 			"/>
			<polygon fill="#231F20" points="422.732,214 426.732,210 434.732,210 430.732,214 			"/>
		</g>
		<g>
			<polygon fill="#231F20" points="438.732,218 434.732,222 438.732,222 			"/>
			<polygon fill="#231F20" points="416.732,220 418.732,218 420.732,218 416.732,222 			"/>
			<polygon fill="#231F20" points="422.732,222 426.732,218 434.732,218 430.732,222 			"/>
		</g>
		<polygon fill="#231F20" points="416.732,278 438.732,256 438.732,278 		"/>
		<polygon fill="#231F20" points="438.732,240 416.732,262 416.732,272 438.732,250 		"/>
		<polygon fill="#231F20" points="438.732,226 416.732,248 416.732,254 438.732,232 		"/>
		<g>
			<rect x="448.732" y="222" fill="#F9F8F7" width="56" height="96"/>
			<g>
				<g>
					<rect x="452.732" y="226" fill="#A9465C" width="4" height="6"/>
					<rect x="452.732" y="226" fill="#E6E7E8" width="2" height="6"/>
				</g>
				<g>
					<rect x="458.732" y="226" fill="#A9465C" width="4" height="6"/>
					<rect x="458.732" y="226" fill="#E6E7E8" width="2" height="6"/>
				</g>
				<g>
					<rect x="464.732" y="226" fill="#A9465C" width="4" height="6"/>
					<rect x="464.732" y="226" fill="#E6E7E8" width="2" height="6"/>
				</g>
				<g>
					<rect x="470.732" y="226" fill="#A9465C" width="4" height="6"/>
					<rect x="470.732" y="226" fill="#E6E7E8" width="2" height="6"/>
				</g>
				<g>
					<rect x="476.732" y="226" fill="#A9465C" width="4" height="6"/>
					<rect x="476.732" y="226" fill="#E6E7E8" width="2" height="6"/>
				</g>
			</g>
			<g>
				<g>
					<rect x="452.732" y="236" fill="#A9465C" width="4" height="6"/>
					<rect x="452.732" y="236" fill="#E6E7E8" width="2" height="6"/>
				</g>
				<g>
					<rect x="458.732" y="236" fill="#A9465C" width="4" height="6"/>
					<rect x="458.732" y="236" fill="#E6E7E8" width="2" height="6"/>
				</g>
				<g>
					<rect x="464.732" y="236" fill="#A9465C" width="4" height="6"/>
					<rect x="464.732" y="236" fill="#E6E7E8" width="2" height="6"/>
				</g>
				<g>
					<rect x="470.732" y="236" fill="#A9465C" width="4" height="6"/>
					<rect x="470.732" y="236" fill="#E6E7E8" width="2" height="6"/>
				</g>
				<g>
					<rect x="476.732" y="236" fill="#A9465C" width="4" height="6"/>
					<rect x="476.732" y="236" fill="#E6E7E8" width="2" height="6"/>
				</g>
			</g>
			<g>
				<g>
					<rect x="452.732" y="246" fill="#A9465C" width="4" height="6"/>
					<rect x="452.732" y="246" fill="#E6E7E8" width="2" height="6"/>
				</g>
				<g>
					<rect x="458.732" y="246" fill="#A9465C" width="4" height="6"/>
					<rect x="458.732" y="246" fill="#E6E7E8" width="2" height="6"/>
				</g>
				<g>
					<rect x="464.732" y="246" fill="#A9465C" width="4" height="6"/>
					<rect x="464.732" y="246" fill="#E6E7E8" width="2" height="6"/>
				</g>
				<g>
					<rect x="470.732" y="246" fill="#A9465C" width="4" height="6"/>
					<rect x="470.732" y="246" fill="#E6E7E8" width="2" height="6"/>
				</g>
				<g>
					<rect x="476.732" y="246" fill="#A9465C" width="4" height="6"/>
					<rect x="476.732" y="246" fill="#E6E7E8" width="2" height="6"/>
				</g>
			</g>
			<g>
				<g>
					<rect x="452.732" y="256" fill="#A9465C" width="4" height="6"/>
					<rect x="452.732" y="256" fill="#E6E7E8" width="2" height="6"/>
				</g>
				<g>
					<rect x="458.732" y="256" fill="#A9465C" width="4" height="6"/>
					<rect x="458.732" y="256" fill="#E6E7E8" width="2" height="6"/>
				</g>
				<g>
					<rect x="464.732" y="256" fill="#A9465C" width="4" height="6"/>
					<rect x="464.732" y="256" fill="#E6E7E8" width="2" height="6"/>
				</g>
				<g>
					<rect x="470.732" y="256" fill="#A9465C" width="4" height="6"/>
					<rect x="470.732" y="256" fill="#E6E7E8" width="2" height="6"/>
				</g>
				<g>
					<rect x="476.732" y="256" fill="#A9465C" width="4" height="6"/>
					<rect x="476.732" y="256" fill="#E6E7E8" width="2" height="6"/>
				</g>
			</g>
			<polygon fill="#E6E7E8" points="484.732,222 484.732,262 496.732,274 496.732,318 504.732,318 504.732,222 			"/>
			<rect x="452.732" y="266" fill="#A9465C" width="28" height="12"/>
			<rect x="452.732" y="282" fill="#A9465C" width="28" height="12"/>
			<polygon fill="#E6E7E8" points="452.732,278 452.732,266 480.732,266 480.732,268 454.732,268 454.732,278 			"/>
			<polygon fill="#E6E7E8" points="452.732,294 452.732,282 480.732,282 480.732,284 454.732,284 454.732,294 			"/>
			<rect x="448.732" y="298" fill="#E6E7E8" width="48" height="2"/>
			<rect x="448.732" y="302" fill="#E6E7E8" width="48" height="4"/>
			<rect x="452.732" y="306" fill="#A9465C" width="8" height="12"/>
			<rect x="464.732" y="306" fill="#A9465C" width="8" height="12"/>
			<rect x="476.732" y="306" fill="#A9465C" width="8" height="12"/>
			<g>
				<polygon fill="#231F20" points="480.732,268 470.732,278 480.732,278 				"/>
				<polygon fill="#231F20" points="476.732,268 466.732,278 460.732,278 470.732,268 				"/>
				<polygon fill="#231F20" points="454.732,278 454.732,276 462.732,268 464.732,268 				"/>
			</g>
			<g>
				<polygon fill="#231F20" points="480.732,284 470.732,294 480.732,294 				"/>
				<polygon fill="#231F20" points="476.732,284 466.732,294 460.732,294 470.732,284 				"/>
				<polygon fill="#231F20" points="454.732,294 454.732,292 462.732,284 464.732,284 				"/>
			</g>
			<polygon fill="#E6E7E8" points="452.732,318 452.732,306 460.732,306 460.732,308 454.732,308 454.732,318 			"/>
			<polygon fill="#E6E7E8" points="464.732,318 464.732,306 472.732,306 472.732,308 466.732,308 466.732,318 			"/>
			<polygon fill="#E6E7E8" points="476.732,318 476.732,306 484.732,306 484.732,308 478.732,308 478.732,318 			"/>
			<polygon fill="#231F20" points="460.732,308 454.732,314 454.732,318 460.732,318 			"/>
			<polygon fill="#231F20" points="472.732,308 466.732,314 466.732,318 472.732,318 			"/>
			<polygon fill="#231F20" points="484.732,308 478.732,314 478.732,318 484.732,318 			"/>
		</g>
	</g>
	<rect x="-5.268" y="222" fill="#F9F8F7" width="56" height="195.5"/>
	<g>
		<g>
			<rect x="-1.268" y="226" fill="#017D78" width="4" height="6"/>
			<rect x="-1.268" y="226" fill="#E6E7E8" width="2" height="6"/>
		</g>
		<g>
			<rect x="4.732" y="226" fill="#017D78" width="4" height="6"/>
			<rect x="4.732" y="226" fill="#E6E7E8" width="2" height="6"/>
		</g>
		<g>
			<rect x="10.732" y="226" fill="#017D78" width="4" height="6"/>
			<rect x="10.732" y="226" fill="#E6E7E8" width="2" height="6"/>
		</g>
		<g>
			<rect x="16.732" y="226" fill="#017D78" width="4" height="6"/>
			<rect x="16.732" y="226" fill="#E6E7E8" width="2" height="6"/>
		</g>
		<g>
			<rect x="22.732" y="226" fill="#017D78" width="4" height="6"/>
			<rect x="22.732" y="226" fill="#E6E7E8" width="2" height="6"/>
		</g>
	</g>
	<g>
		<g>
			<rect x="-1.268" y="236" fill="#017D78" width="4" height="6"/>
			<rect x="-1.268" y="236" fill="#E6E7E8" width="2" height="6"/>
		</g>
		<g>
			<rect x="4.732" y="236" fill="#017D78" width="4" height="6"/>
			<rect x="4.732" y="236" fill="#E6E7E8" width="2" height="6"/>
		</g>
		<g>
			<rect x="10.732" y="236" fill="#017D78" width="4" height="6"/>
			<rect x="10.732" y="236" fill="#E6E7E8" width="2" height="6"/>
		</g>
		<g>
			<rect x="16.732" y="236" fill="#017D78" width="4" height="6"/>
			<rect x="16.732" y="236" fill="#E6E7E8" width="2" height="6"/>
		</g>
		<g>
			<rect x="22.732" y="236" fill="#017D78" width="4" height="6"/>
			<rect x="22.732" y="236" fill="#E6E7E8" width="2" height="6"/>
		</g>
	</g>
	<g>
		<g>
			<rect x="-1.268" y="246" fill="#017D78" width="4" height="6"/>
			<rect x="-1.268" y="246" fill="#E6E7E8" width="2" height="6"/>
		</g>
		<g>
			<rect x="4.732" y="246" fill="#017D78" width="4" height="6"/>
			<rect x="4.732" y="246" fill="#E6E7E8" width="2" height="6"/>
		</g>
		<g>
			<rect x="10.732" y="246" fill="#017D78" width="4" height="6"/>
			<rect x="10.732" y="246" fill="#E6E7E8" width="2" height="6"/>
		</g>
		<g>
			<rect x="16.732" y="246" fill="#017D78" width="4" height="6"/>
			<rect x="16.732" y="246" fill="#E6E7E8" width="2" height="6"/>
		</g>
		<g>
			<rect x="22.732" y="246" fill="#017D78" width="4" height="6"/>
			<rect x="22.732" y="246" fill="#E6E7E8" width="2" height="6"/>
		</g>
	</g>
	<g>
		<g>
			<rect x="-1.268" y="256" fill="#017D78" width="4" height="6"/>
			<rect x="-1.268" y="256" fill="#E6E7E8" width="2" height="6"/>
		</g>
		<g>
			<rect x="4.732" y="256" fill="#017D78" width="4" height="6"/>
			<rect x="4.732" y="256" fill="#E6E7E8" width="2" height="6"/>
		</g>
		<g>
			<rect x="10.732" y="256" fill="#017D78" width="4" height="6"/>
			<rect x="10.732" y="256" fill="#E6E7E8" width="2" height="6"/>
		</g>
		<g>
			<rect x="16.732" y="256" fill="#017D78" width="4" height="6"/>
			<rect x="16.732" y="256" fill="#E6E7E8" width="2" height="6"/>
		</g>
		<g>
			<rect x="22.732" y="256" fill="#017D78" width="4" height="6"/>
			<rect x="22.732" y="256" fill="#E6E7E8" width="2" height="6"/>
		</g>
	</g>
	<polygon fill="#E6E7E8" points="30.732,222 30.732,262 42.732,274 42.732,318 50.732,318 50.732,222 	"/>
	<rect x="-1.268" y="266" fill="#017D78" width="28" height="12"/>
	<rect x="-1.268" y="282" fill="#017D78" width="28" height="12"/>
	<polygon fill="#E6E7E8" points="-1.268,278 -1.268,266 26.732,266 26.732,268 0.732,268 0.732,278 	"/>
	<polygon fill="#E6E7E8" points="-1.268,294 -1.268,282 26.732,282 26.732,284 0.732,284 0.732,294 	"/>
	<rect x="-5.268" y="298" fill="#E6E7E8" width="48" height="2"/>
	<rect x="-5.268" y="302" fill="#E6E7E8" width="48" height="4"/>
	<rect x="-1.268" y="306" fill="#017D78" width="8" height="12"/>
	<rect x="10.732" y="306" fill="#017D78" width="8" height="12"/>
	<rect x="22.732" y="306" fill="#017D78" width="8" height="12"/>
	<g>
		<polygon fill="#231F20" points="26.732,268 16.732,278 26.732,278 		"/>
		<polygon fill="#231F20" points="22.732,268 12.732,278 6.732,278 16.732,268 		"/>
		<polygon fill="#231F20" points="0.732,278 0.732,276 8.732,268 10.732,268 		"/>
	</g>
	<g>
		<polygon fill="#231F20" points="26.732,284 16.732,294 26.732,294 		"/>
		<polygon fill="#231F20" points="22.732,284 12.732,294 6.732,294 16.732,284 		"/>
		<polygon fill="#231F20" points="0.732,294 0.732,292 8.732,284 10.732,284 		"/>
	</g>
	<polygon fill="#E6E7E8" points="-1.268,318 -1.268,306 6.732,306 6.732,308 0.732,308 0.732,318 	"/>
	<polygon fill="#E6E7E8" points="10.732,318 10.732,306 18.732,306 18.732,308 12.732,308 12.732,318 	"/>
	<polygon fill="#E6E7E8" points="22.732,318 22.732,306 30.732,306 30.732,308 24.732,308 24.732,318 	"/>
	<polygon fill="#231F20" points="6.732,308 0.732,314 0.732,318 6.732,318 	"/>
	<polygon fill="#231F20" points="18.732,308 12.732,314 12.732,318 18.732,318 	"/>
	<polygon fill="#231F20" points="30.732,308 24.732,314 24.732,318 30.732,318 	"/>
	<g>
		<rect x="86.732" y="246" fill="#E9E5D9" width="48" height="72"/>
		<polygon fill="#F1F2F2" points="132.732,248 88.732,292 88.732,318.38 132.732,274 		"/>
		<polygon fill="#F1F2F2" points="130.749,318 132.732,316 132.732,290 104.732,318 		"/>
		<g>
			<rect x="88.732" y="248" fill="#943359" width="12" height="8"/>
			<rect x="104.732" y="248" fill="#943359" width="12" height="8"/>
			<rect x="120.732" y="248" fill="#943359" width="12" height="8"/>
		</g>
		<g>
			<rect x="88.732" y="260" fill="#943359" width="12" height="8"/>
			<rect x="104.732" y="260" fill="#943359" width="12" height="8"/>
			<rect x="120.732" y="260" fill="#943359" width="12" height="8"/>
		</g>
		<g>
			<rect x="88.732" y="272" fill="#943359" width="12" height="8"/>
			<rect x="104.732" y="272" fill="#943359" width="12" height="8"/>
			<rect x="120.732" y="272" fill="#943359" width="12" height="8"/>
		</g>
		<rect x="86.732" y="242" fill="#F9F8F7" width="52" height="4"/>
		<polygon fill="#E6E7E8" points="88.732,256 88.732,248 100.732,248 100.732,250 90.732,250 90.732,256 		"/>
		<polygon fill="#E6E7E8" points="104.732,256 104.732,248 116.732,248 116.732,250 106.732,250 106.732,256 		"/>
		<polygon fill="#E6E7E8" points="120.732,256 120.732,248 132.732,248 132.732,250 122.732,250 122.732,256 		"/>
		<g>
			<polygon fill="#231F20" points="94.732,256 100.732,250 100.732,256 			"/>
			<polygon fill="#231F20" points="90.732,256 90.732,254 94.732,250 96.732,250 			"/>
		</g>
		<g>
			<polygon fill="#231F20" points="110.732,256 116.732,250 116.732,256 			"/>
			<polygon fill="#231F20" points="106.732,256 106.732,254 110.732,250 112.732,250 			"/>
		</g>
		<g>
			<polygon fill="#231F20" points="126.732,256 132.732,250 132.732,256 			"/>
			<polygon fill="#231F20" points="122.732,256 122.732,254 126.732,250 128.732,250 			"/>
		</g>
		<g>
			<polygon fill="#231F20" points="94.732,268 100.732,262 100.732,268 			"/>
			<polygon fill="#231F20" points="90.732,268 90.732,266 94.732,262 96.732,262 			"/>
		</g>
		<g>
			<polygon fill="#231F20" points="110.732,268 116.732,262 116.732,268 			"/>
			<polygon fill="#231F20" points="106.732,268 106.732,266 110.732,262 112.732,262 			"/>
		</g>
		<g>
			<polygon fill="#231F20" points="126.732,268 132.732,262 132.732,268 			"/>
			<polygon fill="#231F20" points="122.732,268 122.732,266 126.732,262 128.732,262 			"/>
		</g>
		<g>
			<polygon fill="#231F20" points="94.732,280 100.732,274 100.732,280 			"/>
			<polygon fill="#231F20" points="90.732,280 90.732,278 94.732,274 96.732,274 			"/>
		</g>
		<g>
			<polygon fill="#231F20" points="110.732,280 116.732,274 116.732,280 			"/>
			<polygon fill="#231F20" points="106.732,280 106.732,278 110.732,274 112.732,274 			"/>
		</g>
		<g>
			<polygon fill="#231F20" points="126.732,280 132.732,274 132.732,280 			"/>
			<polygon fill="#231F20" points="122.732,280 122.732,278 126.732,274 128.732,274 			"/>
		</g>
		<polygon fill="#E6E7E8" points="88.732,268 88.732,260 100.732,260 100.732,262 90.732,262 90.732,268 		"/>
		<polygon fill="#E6E7E8" points="104.732,268 104.732,260 116.732,260 116.732,262 106.732,262 106.732,268 		"/>
		<polygon fill="#E6E7E8" points="120.732,268 120.732,260 132.732,260 132.732,262 122.732,262 122.732,268 		"/>
		<polygon fill="#E6E7E8" points="88.732,280 88.732,272 100.732,272 100.732,274 90.732,274 90.732,280 		"/>
		<polygon fill="#E6E7E8" points="104.732,280 104.732,272 116.732,272 116.732,274 106.732,274 106.732,280 		"/>
		<polygon fill="#E6E7E8" points="120.732,280 120.732,272 132.732,272 132.732,274 122.732,274 122.732,280 		"/>
		<rect x="88.732" y="284" fill="#E6E7E8" width="44" height="2"/>
		<rect x="86.732" y="246" fill="#E6E7E8" width="48" height="2"/>
		<rect x="88.732" y="290" fill="#E6E7E8" width="44" height="2"/>
		<rect x="88.732" y="296" fill="#E6E7E8" width="44" height="2"/>
		<rect x="88.732" y="302" fill="#E6E7E8" width="44" height="2"/>
		<rect x="88.732" y="308" fill="#E6E7E8" width="44" height="2"/>
	</g>
	<g>
		<rect x="-49.268" y="198" fill="#E9E5D9" width="44" height="220.166"/>
		<rect x="-27.268" y="282" fill="#E6E7E8" width="4" height="36"/>
		<rect x="-19.268" y="282" fill="#E6E7E8" width="4" height="36"/>
		<rect x="-11.268" y="282" fill="#E6E7E8" width="4" height="36"/>
		<rect x="-47.268" y="200" fill="#017D78" width="40" height="78"/>
		<path fill="#E6E7E8" d="M-7.268,202v-2h-40v78h2v-52h6v52h2v-52h24v52h2v-52h4v-2h-4v-6h4v-2h-4v-6h4v-2h-4v-6H-7.268z
			 M-39.268,224h-6v-6h6V224z M-39.268,216h-6v-6h6V216z M-39.268,208h-6v-6h6V208z M-13.268,224h-24v-6h24V224z M-13.268,216h-24
			v-6h24V216z M-13.268,208h-24v-6h24V208z"/>
		<rect x="-41.268" y="200" fill="#E9E5D9" width="2" height="78"/>
		<rect x="-15.268" y="200" fill="#E9E5D9" width="2" height="78"/>
		<rect x="-51.268" y="194" fill="#E9E5D9" width="48" height="4"/>
		<rect x="-49.268" y="198" fill="#E6E7E8" width="44" height="2"/>
		<rect x="-49.268" y="206" fill="#E9E5D9" width="44" height="2"/>
		<rect x="-49.268" y="214" fill="#E9E5D9" width="44" height="2"/>
		<rect x="-49.268" y="222" fill="#E9E5D9" width="44" height="2"/>
		<g>
			<polygon fill="#231F20" points="-15.268,202 -19.268,206 -15.268,206 			"/>
			<polygon fill="#231F20" points="-37.268,204 -35.268,202 -33.268,202 -37.268,206 			"/>
			<polygon fill="#231F20" points="-31.268,206 -27.268,202 -19.268,202 -23.268,206 			"/>
		</g>
		<g>
			<polygon fill="#231F20" points="-15.268,210 -19.268,214 -15.268,214 			"/>
			<polygon fill="#231F20" points="-37.268,212 -35.268,210 -33.268,210 -37.268,214 			"/>
			<polygon fill="#231F20" points="-31.268,214 -27.268,210 -19.268,210 -23.268,214 			"/>
		</g>
		<g>
			<polygon fill="#231F20" points="-15.268,218 -19.268,222 -15.268,222 			"/>
			<polygon fill="#231F20" points="-37.268,220 -35.268,218 -33.268,218 -37.268,222 			"/>
			<polygon fill="#231F20" points="-31.268,222 -27.268,218 -19.268,218 -23.268,222 			"/>
		</g>
		<polygon fill="#231F20" points="-37.268,278 -15.268,256 -15.268,278 		"/>
		<polygon fill="#231F20" points="-15.268,240 -37.268,262 -37.268,272 -15.268,250 		"/>
		<polygon fill="#231F20" points="-15.268,226 -37.268,248 -37.268,254 -15.268,232 		"/>
	</g>
	<g>
		<rect x="36.732" y="286" fill="#F9F8F7" width="48" height="32"/>
		<rect x="36.732" y="282" fill="#F9F8F7" width="50" height="4"/>
		<rect x="36.732" y="286" fill="#E6E7E8" width="48" height="2"/>
		<rect x="38.732" y="306" fill="#017D78" width="12" height="12"/>
		<rect x="54.732" y="306" fill="#017D78" width="28" height="12"/>
		<rect x="38.732" y="290" fill="#017D78" width="12" height="12"/>
		<rect x="54.732" y="290" fill="#017D78" width="28" height="12"/>
		<polygon fill="#E6E7E8" points="38.732,302 38.732,290 50.732,290 50.732,292 40.732,292 40.732,302 		"/>
		<polygon fill="#E6E7E8" points="54.732,302 54.732,290 82.732,290 82.732,292 56.732,292 56.732,302 		"/>
		<polygon fill="#E6E7E8" points="38.732,318 38.732,306 50.732,306 50.732,308 40.732,308 40.732,318 		"/>
		<polygon fill="#E6E7E8" points="54.732,318 54.732,306 82.732,306 82.732,308 56.732,308 56.732,318 		"/>
		<g>
			<polygon fill="#231F20" points="50.732,292 40.732,302 50.732,302 			"/>
			<polygon fill="#231F20" points="82.732,292 72.732,302 82.732,302 			"/>
			<polygon fill="#231F20" points="56.732,300 64.732,292 66.732,292 56.732,302 			"/>
			<polygon fill="#231F20" points="60.732,302 70.732,292 76.732,292 66.732,302 			"/>
		</g>
		<g>
			<polygon fill="#231F20" points="50.732,308 40.732,318 50.732,318 			"/>
			<polygon fill="#231F20" points="82.732,308 72.732,318 82.732,318 			"/>
			<polygon fill="#231F20" points="56.732,316 64.732,308 66.732,308 56.732,318 			"/>
			<polygon fill="#231F20" points="60.732,318 70.732,308 76.732,308 66.732,318 			"/>
		</g>
	</g>
	<g>
		<rect x="140.732" y="270" fill="#F9F8F7" width="44" height="24"/>
		<rect x="186.732" y="246" fill="#E9E5D9" width="48" height="72"/>
		<rect x="188.732" y="248" fill="#017D78" width="44" height="70"/>
		<polygon fill="#E6E7E8" points="232.732,248 188.732,292 188.732,318 232.732,318 		"/>
		<rect x="188.732" y="250" fill="#E6E7E8" width="2" height="68"/>
		<path fill="#E6E7E8" d="M232.732,250v-2h-44v2h8v6h-6v2h6v6h-6v2h6v6h-6v2h6v6h-6v2h6v6h-6v2h6v6h-6v2h6v6h-6v2h6v12h2v-12h28v12
			h2v-12h4v-2h-4v-6h4v-2h-4v-6h4v-2h-4v-6h4v-2h-4v-6h4v-2h-4v-6h4v-2h-4v-6h4v-2h-4v-6H232.732z M226.732,304h-28v-6h28V304z
			 M226.732,296h-28v-6h28V296z M226.732,288h-28v-6h28V288z M226.732,280h-28v-6h28V280z M226.732,272h-28v-6h28V272z M226.732,264
			h-28v-6h28V264z M226.732,256h-28v-6h28V256z"/>
		<rect x="194.732" y="248" fill="#E9E5D9" width="2" height="70"/>
		<rect x="224.732" y="248" fill="#E9E5D9" width="2" height="70"/>
		<rect x="188.732" y="254" fill="#E9E5D9" width="44" height="2"/>
		<rect x="188.732" y="262" fill="#E9E5D9" width="44" height="2"/>
		<rect x="188.732" y="270" fill="#E9E5D9" width="44" height="2"/>
		<rect x="188.732" y="278" fill="#E9E5D9" width="44" height="2"/>
		<rect x="188.732" y="286" fill="#E9E5D9" width="44" height="2"/>
		<rect x="188.732" y="294" fill="#E9E5D9" width="44" height="2"/>
		<rect x="188.732" y="302" fill="#E9E5D9" width="44" height="2"/>
		<polygon fill="#F9F8F7" points="242.732,198 234.732,206 234.732,318 282.732,318 282.732,198 		"/>
		<polygon fill="#E9E5D9" points="236.732,318 236.732,206.828 243.56,200 280.732,200 280.732,318 		"/>
		<polygon fill="#E6E7E8" points="280.732,200 236.732,244 236.732,318 280.732,318 		"/>
		<g>
			<rect x="238.732" y="208" fill="#017D78" width="4" height="6"/>
			<rect x="244.732" y="208" fill="#017D78" width="4" height="6"/>
			<rect x="250.732" y="208" fill="#017D78" width="4" height="6"/>
			<rect x="256.732" y="208" fill="#017D78" width="4" height="6"/>
			<rect x="262.732" y="208" fill="#017D78" width="4" height="6"/>
			<rect x="268.732" y="208" fill="#017D78" width="4" height="6"/>
			<rect x="274.732" y="208" fill="#017D78" width="4" height="6"/>
		</g>
		<g>
			<rect x="238.732" y="218" fill="#017D78" width="4" height="6"/>
			<rect x="244.732" y="218" fill="#017D78" width="4" height="6"/>
			<rect x="250.732" y="218" fill="#017D78" width="4" height="6"/>
			<rect x="256.732" y="218" fill="#017D78" width="4" height="6"/>
			<rect x="262.732" y="218" fill="#017D78" width="4" height="6"/>
			<rect x="268.732" y="218" fill="#017D78" width="4" height="6"/>
			<rect x="274.732" y="218" fill="#017D78" width="4" height="6"/>
		</g>
		<g>
			<rect x="238.732" y="228" fill="#017D78" width="4" height="6"/>
			<rect x="244.732" y="228" fill="#017D78" width="4" height="6"/>
			<rect x="250.732" y="228" fill="#017D78" width="4" height="6"/>
			<rect x="256.732" y="228" fill="#017D78" width="4" height="6"/>
			<rect x="262.732" y="228" fill="#017D78" width="4" height="6"/>
			<rect x="268.732" y="228" fill="#017D78" width="4" height="6"/>
			<rect x="274.732" y="228" fill="#017D78" width="4" height="6"/>
		</g>
		<g>
			<rect x="238.732" y="238" fill="#017D78" width="4" height="6"/>
			<rect x="244.732" y="238" fill="#017D78" width="4" height="6"/>
			<rect x="250.732" y="238" fill="#017D78" width="4" height="6"/>
			<rect x="256.732" y="238" fill="#017D78" width="4" height="6"/>
			<rect x="262.732" y="238" fill="#017D78" width="4" height="6"/>
			<rect x="268.732" y="238" fill="#017D78" width="4" height="6"/>
			<rect x="274.732" y="238" fill="#017D78" width="4" height="6"/>
		</g>
		<g>
			<rect x="238.732" y="248" fill="#017D78" width="4" height="6"/>
			<rect x="244.732" y="248" fill="#017D78" width="4" height="6"/>
			<rect x="250.732" y="248" fill="#017D78" width="4" height="6"/>
			<rect x="256.732" y="248" fill="#017D78" width="4" height="6"/>
			<rect x="262.732" y="248" fill="#017D78" width="4" height="6"/>
			<rect x="268.732" y="248" fill="#017D78" width="4" height="6"/>
			<rect x="274.732" y="248" fill="#017D78" width="4" height="6"/>
		</g>
		<g>
			<rect x="238.732" y="258" fill="#017D78" width="4" height="6"/>
			<rect x="244.732" y="258" fill="#017D78" width="4" height="6"/>
			<rect x="250.732" y="258" fill="#017D78" width="4" height="6"/>
			<rect x="256.732" y="258" fill="#017D78" width="4" height="6"/>
			<rect x="262.732" y="258" fill="#017D78" width="4" height="6"/>
			<rect x="268.732" y="258" fill="#017D78" width="4" height="6"/>
			<rect x="274.732" y="258" fill="#017D78" width="4" height="6"/>
		</g>
		<rect x="238.732" y="268" fill="#017D78" width="16" height="16"/>
		<polygon fill="#E6E7E8" points="240.732,270 254.732,270 254.732,268 238.732,268 238.732,284 240.732,284 		"/>
		<rect x="268.732" y="268" fill="#017D78" width="10" height="16"/>
		<rect x="256.732" y="268" fill="#017D78" width="10" height="16"/>
		<rect x="238.732" y="288" fill="#017D78" width="16" height="16"/>
		<g>
			<polygon fill="#231F20" points="248.732,288 240.732,296 240.732,300 252.732,288 			"/>
			<polygon fill="#231F20" points="254.732,290 240.732,304 254.732,304 			"/>
		</g>
		<rect x="268.732" y="288" fill="#017D78" width="10" height="16"/>
		<rect x="256.732" y="288" fill="#017D78" width="10" height="16"/>
		<g>
			<rect x="238.732" y="208" fill="#E6E7E8" width="2" height="6"/>
			<rect x="244.732" y="208" fill="#E6E7E8" width="2" height="6"/>
			<rect x="250.732" y="208" fill="#E6E7E8" width="2" height="6"/>
			<rect x="256.732" y="208" fill="#E6E7E8" width="2" height="6"/>
			<rect x="262.732" y="208" fill="#E6E7E8" width="2" height="6"/>
			<rect x="268.732" y="208" fill="#E6E7E8" width="2" height="6"/>
			<rect x="274.732" y="208" fill="#E6E7E8" width="2" height="6"/>
		</g>
		<g>
			<rect x="238.732" y="218" fill="#E6E7E8" width="2" height="6"/>
			<rect x="244.732" y="218" fill="#E6E7E8" width="2" height="6"/>
			<rect x="250.732" y="218" fill="#E6E7E8" width="2" height="6"/>
			<rect x="256.732" y="218" fill="#E6E7E8" width="2" height="6"/>
			<rect x="262.732" y="218" fill="#E6E7E8" width="2" height="6"/>
			<rect x="268.732" y="218" fill="#E6E7E8" width="2" height="6"/>
			<rect x="274.732" y="218" fill="#E6E7E8" width="2" height="6"/>
		</g>
		<g>
			<rect x="238.732" y="228" fill="#E6E7E8" width="2" height="6"/>
			<rect x="244.732" y="228" fill="#E6E7E8" width="2" height="6"/>
			<rect x="250.732" y="228" fill="#E6E7E8" width="2" height="6"/>
			<rect x="256.732" y="228" fill="#E6E7E8" width="2" height="6"/>
			<rect x="262.732" y="228" fill="#E6E7E8" width="2" height="6"/>
			<rect x="268.732" y="228" fill="#E6E7E8" width="2" height="6"/>
			<rect x="274.732" y="228" fill="#E6E7E8" width="2" height="6"/>
		</g>
		<g>
			<rect x="238.732" y="238" fill="#E6E7E8" width="2" height="6"/>
			<rect x="244.732" y="238" fill="#E6E7E8" width="2" height="6"/>
			<rect x="250.732" y="238" fill="#E6E7E8" width="2" height="6"/>
			<rect x="256.732" y="238" fill="#E6E7E8" width="2" height="6"/>
			<rect x="262.732" y="238" fill="#E6E7E8" width="2" height="6"/>
			<rect x="268.732" y="238" fill="#E6E7E8" width="2" height="6"/>
			<rect x="274.732" y="238" fill="#E6E7E8" width="2" height="6"/>
		</g>
		<g>
			<rect x="238.732" y="248" fill="#E6E7E8" width="2" height="6"/>
			<rect x="244.732" y="248" fill="#E6E7E8" width="2" height="6"/>
			<rect x="250.732" y="248" fill="#E6E7E8" width="2" height="6"/>
			<rect x="256.732" y="248" fill="#E6E7E8" width="2" height="6"/>
			<rect x="262.732" y="248" fill="#E6E7E8" width="2" height="6"/>
			<rect x="268.732" y="248" fill="#E6E7E8" width="2" height="6"/>
			<rect x="274.732" y="248" fill="#E6E7E8" width="2" height="6"/>
		</g>
		<g>
			<rect x="238.732" y="258" fill="#E6E7E8" width="2" height="6"/>
			<rect x="244.732" y="258" fill="#E6E7E8" width="2" height="6"/>
			<rect x="250.732" y="258" fill="#E6E7E8" width="2" height="6"/>
			<rect x="256.732" y="258" fill="#E6E7E8" width="2" height="6"/>
			<rect x="262.732" y="258" fill="#E6E7E8" width="2" height="6"/>
			<rect x="268.732" y="258" fill="#E6E7E8" width="2" height="6"/>
			<rect x="274.732" y="258" fill="#E6E7E8" width="2" height="6"/>
		</g>
		<polygon fill="#E6E7E8" points="240.732,290 254.732,290 254.732,288 238.732,288 238.732,304 240.732,304 		"/>
		<polygon fill="#E6E7E8" points="256.732,284 256.732,268 266.732,268 266.732,270 258.732,270 258.732,284 		"/>
		<polygon fill="#E6E7E8" points="268.732,284 268.732,268 278.732,268 278.732,270 270.732,270 270.732,284 		"/>
		<polygon fill="#E6E7E8" points="256.732,304 256.732,288 266.732,288 266.732,290 258.732,290 258.732,304 		"/>
		<polygon fill="#E6E7E8" points="268.732,304 268.732,288 278.732,288 278.732,290 270.732,290 270.732,304 		"/>
		<g>
			<polygon fill="#231F20" points="248.732,268 240.732,276 240.732,280 252.732,268 			"/>
			<polygon fill="#231F20" points="254.732,270 240.732,284 254.732,284 			"/>
		</g>
		<g>
			<polygon fill="#231F20" points="266.732,270 258.732,278 258.732,284 266.732,284 			"/>
		</g>
		<g>
			<polygon fill="#231F20" points="278.732,270 270.732,278 270.732,284 278.732,284 			"/>
		</g>
		<g>
			<polygon fill="#231F20" points="266.732,290 258.732,298 258.732,304 266.732,304 			"/>
		</g>
		<g>
			<polygon fill="#231F20" points="278.732,290 270.732,298 270.732,304 278.732,304 			"/>
		</g>
		<g>
			<rect x="282.732" y="214" fill="#F9F8F7" width="48" height="104"/>
			<rect x="284.732" y="216" fill="#E9E5D9" width="44" height="102"/>
			<rect x="286.732" y="218" fill="#007FA4" width="40" height="6"/>
			<polygon fill="#E6E7E8" points="326.732,218 286.732,258 286.732,318 326.732,318 			"/>
			<rect x="286.732" y="228" fill="#007FA4" width="40" height="6"/>
			<rect x="286.732" y="238" fill="#007FA4" width="40" height="6"/>
			<rect x="286.732" y="248" fill="#007FA4" width="40" height="6"/>
			<rect x="286.732" y="258" fill="#007FA4" width="40" height="6"/>
			<rect x="286.732" y="268" fill="#007FA4" width="40" height="6"/>
			<rect x="286.732" y="278" fill="#007FA4" width="40" height="6"/>
			<rect x="286.732" y="288" fill="#007FA4" width="40" height="6"/>
			<polygon fill="#E6E7E8" points="286.732,224 286.732,218 326.732,218 326.732,220 288.732,220 288.732,224 			"/>
			<polygon fill="#E6E7E8" points="286.732,234 286.732,228 326.732,228 326.732,230 288.732,230 288.732,234 			"/>
			<polygon fill="#E6E7E8" points="286.732,244 286.732,238 326.732,238 326.732,240 288.732,240 288.732,244 			"/>
			<polygon fill="#E6E7E8" points="286.732,254 286.732,248 326.732,248 326.732,250 288.732,250 288.732,254 			"/>
			<polygon fill="#E6E7E8" points="286.732,264 286.732,258 326.732,258 326.732,260 288.732,260 288.732,264 			"/>
			<polygon fill="#E6E7E8" points="286.732,274 286.732,268 326.732,268 326.732,270 288.732,270 288.732,274 			"/>
			<polygon fill="#E6E7E8" points="286.732,284 286.732,278 326.732,278 326.732,280 288.732,280 288.732,284 			"/>
			<polygon fill="#E6E7E8" points="286.732,294 286.732,288 326.732,288 326.732,290 288.732,290 288.732,294 			"/>
			<rect x="286.732" y="306" fill="#007FA4" width="12" height="12"/>
			<rect x="314.732" y="306" fill="#007FA4" width="12" height="12"/>
			<rect x="300.732" y="306" fill="#007FA4" width="12" height="12"/>
			<polygon fill="#E6E7E8" points="286.732,318 286.732,306 298.732,306 298.732,308 288.732,308 288.732,318 			"/>
			<polygon fill="#E6E7E8" points="300.732,318 300.732,306 312.732,306 312.732,308 302.732,308 302.732,318 			"/>
			<polygon fill="#E6E7E8" points="314.732,318 314.732,306 326.732,306 326.732,308 316.732,308 316.732,318 			"/>
			<polygon fill="#231F20" points="288.732,318 298.732,308 298.732,318 			"/>
			<polygon fill="#231F20" points="302.732,318 312.732,308 312.732,318 			"/>
			<polygon fill="#231F20" points="316.732,318 326.732,308 326.732,318 			"/>
			<rect x="284.732" y="302" fill="#E9E5D9" width="44" height="4"/>
		</g>
		<rect x="196.732" y="218" fill="#F9F8F7" width="38" height="28"/>
		<rect x="198.732" y="220" fill="#E9E5D9" width="34" height="26"/>
		<g>
			<rect x="200.732" y="222" fill="#E6E7E8" width="4" height="6"/>
			<rect x="206.732" y="222" fill="#E6E7E8" width="4" height="6"/>
			<rect x="212.732" y="222" fill="#E6E7E8" width="4" height="6"/>
			<rect x="218.732" y="222" fill="#E6E7E8" width="12" height="6"/>
		</g>
		<g>
			<rect x="200.732" y="232" fill="#E6E7E8" width="4" height="6"/>
			<rect x="206.732" y="232" fill="#E6E7E8" width="4" height="6"/>
			<rect x="212.732" y="232" fill="#E6E7E8" width="4" height="6"/>
			<rect x="218.732" y="232" fill="#E6E7E8" width="12" height="6"/>
		</g>
		<g>
			<rect x="200.732" y="242" fill="#E6E7E8" width="4" height="4"/>
			<rect x="206.732" y="242" fill="#E6E7E8" width="4" height="4"/>
			<rect x="212.732" y="242" fill="#E6E7E8" width="4" height="4"/>
			<rect x="218.732" y="242" fill="#E6E7E8" width="12" height="4"/>
		</g>
		<polygon fill="#E6E7E8" points="232.732,220 206.732,246 232.732,246 		"/>
		<rect x="138.732" y="266" fill="#F9F8F7" width="48" height="4"/>
		<rect x="140.732" y="270" fill="#E6E7E8" width="44" height="2"/>
		<rect x="140.732" y="294" fill="#F9F8F7" width="44" height="24"/>
		<rect x="138.732" y="290" fill="#F9F8F7" width="48" height="4"/>
		<rect x="140.732" y="294" fill="#E6E7E8" width="44" height="2"/>
		<g>
			<rect x="142.732" y="274" fill="#017D78" width="4" height="6"/>
			<rect x="148.732" y="274" fill="#017D78" width="4" height="6"/>
			<rect x="154.732" y="274" fill="#017D78" width="4" height="6"/>
			<rect x="160.732" y="274" fill="#017D78" width="4" height="6"/>
			<rect x="166.732" y="274" fill="#017D78" width="4" height="6"/>
			<rect x="172.732" y="274" fill="#017D78" width="4" height="6"/>
			<rect x="178.732" y="274" fill="#017D78" width="4" height="6"/>
		</g>
		<g>
			<rect x="142.732" y="274" fill="#E6E7E8" width="2" height="6"/>
			<rect x="148.732" y="274" fill="#E6E7E8" width="2" height="6"/>
			<rect x="154.732" y="274" fill="#E6E7E8" width="2" height="6"/>
			<rect x="160.732" y="274" fill="#E6E7E8" width="2" height="6"/>
			<rect x="166.732" y="274" fill="#E6E7E8" width="2" height="6"/>
			<rect x="172.732" y="274" fill="#E6E7E8" width="2" height="6"/>
			<rect x="178.732" y="274" fill="#E6E7E8" width="2" height="6"/>
		</g>
		<g>
			<rect x="142.732" y="284" fill="#017D78" width="4" height="6"/>
			<rect x="148.732" y="284" fill="#017D78" width="4" height="6"/>
			<rect x="154.732" y="284" fill="#017D78" width="4" height="6"/>
			<rect x="160.732" y="284" fill="#017D78" width="4" height="6"/>
			<rect x="166.732" y="284" fill="#017D78" width="4" height="6"/>
			<rect x="172.732" y="284" fill="#017D78" width="4" height="6"/>
			<rect x="178.732" y="284" fill="#017D78" width="4" height="6"/>
		</g>
		<g>
			<rect x="142.732" y="284" fill="#E6E7E8" width="2" height="6"/>
			<rect x="148.732" y="284" fill="#E6E7E8" width="2" height="6"/>
			<rect x="154.732" y="284" fill="#E6E7E8" width="2" height="6"/>
			<rect x="160.732" y="284" fill="#E6E7E8" width="2" height="6"/>
			<rect x="166.732" y="284" fill="#E6E7E8" width="2" height="6"/>
			<rect x="172.732" y="284" fill="#E6E7E8" width="2" height="6"/>
			<rect x="178.732" y="284" fill="#E6E7E8" width="2" height="6"/>
		</g>
		<rect x="142.732" y="306" fill="#017D78" width="10" height="12"/>
		<rect x="154.732" y="306" fill="#017D78" width="10" height="12"/>
		<rect x="140.732" y="304" fill="#E6E7E8" width="26" height="2"/>
		<rect x="170.732" y="296" fill="#E6E7E8" width="14" height="22"/>
		<polygon fill="#E6E7E8" points="142.732,318 142.732,306 152.732,306 152.732,308 144.732,308 144.732,318 		"/>
		<polygon fill="#E6E7E8" points="154.732,318 154.732,306 164.732,306 164.732,308 156.732,308 156.732,318 		"/>
		<polygon fill="#231F20" points="152.732,308 144.732,316 144.732,318 152.732,318 		"/>
		<polygon fill="#231F20" points="164.732,308 156.732,316 156.732,318 164.732,318 		"/>
	</g>
	<rect y="336.333" fill="url(#New_Pattern_Swatch_3)" width="500" height="163.667"/>
</g>
<g id="Designed_By_Freepik">
</g>
</svg>
