<?xml version="1.0" encoding="utf-8"?>
<!-- Generator: Adobe Illustrator 22.0.0, SVG Export Plug-In . SVG Version: 6.00 Build 0)  -->
<svg version="1.1" id="Layer_1" xmlns="http://www.w3.org/2000/svg" xmlns:xlink="http://www.w3.org/1999/xlink" x="0px" y="0px"
	 viewBox="0 0 1000 600" style="enable-background:new 0 0 1000 600;" xml:space="preserve">
<style type="text/css">
	.st0{fill:#E5E5E5;}
	.st1{fill:#534644;}
	.st2{fill:#C6C7C6;}
	.st3{fill:#CFCFD0;}
	.st4{fill:#9E9D9B;}
	.st5{fill:#CFCFCE;}
	.st6{fill:#B7B6B5;}
	.st7{fill:#B3B0B0;}
	.st8{fill:#D6D6D5;}
	.st9{fill:#D4D4D4;}
	.st10{fill:#D3D2D3;}
	.st11{fill:#C4C3C4;}
	.st12{fill:#CAC9C9;}
	.st13{fill:#BDBCBC;}
	.st14{fill:#CBCAC9;}
	.st15{fill:#B9B9BA;}
	.st16{fill:#B5B5B6;}
	.st17{fill:#C3C2C2;}
	.st18{fill:#CECECF;}
	.st19{fill:#D4D6D5;}
	.st20{fill:#DFDFDF;}
	.st21{fill:#E7E8E7;}
	.st22{fill:#DCDCDB;}
	.st23{fill:#ECEBEC;}
	.st24{fill:#C3C2C0;}
	.st25{fill:#646360;}
	.st26{fill:#8C8B88;}
	.st27{fill:#666766;}
	.st28{fill:#606160;}
	.st29{fill:#5C5C5D;}
	.st30{fill:#5D5F5E;}
	.st31{fill:#757777;}
	.st32{fill:#818181;}
	.st33{fill:#6C6C6C;}
	.st34{fill:#565757;}
	.st35{fill:#666768;}
	.st36{fill:#5F6060;}
	.st37{fill:#858482;}
	.st38{fill:#848685;}
	.st39{fill:#807F7D;}
	.st40{fill:#747371;}
	.st41{fill:#747474;}
	.st42{fill:#636463;}
	.st43{fill:#706B66;}
	.st44{fill:#6C6763;}
	.st45{fill:#75736F;}
	.st46{fill:#696865;}
	.st47{fill:#5E6061;}
	.st48{fill:#6D6D6D;}
	.st49{fill:#908E8D;}
	.st50{fill:#A2A2A0;}
	.st51{fill:#9B9995;}
	.st52{fill:#C6C4C2;}
	.st53{fill:#DEDDDB;}
	.st54{fill:#DEDEDD;}
	.st55{fill:#DAD8D8;}
	.st56{fill:#999794;}
	.st57{fill:#838381;}
	.st58{fill:#BFBBBC;}
	.st59{fill:#ECECED;}
	.st60{fill:#E0DFDF;}
	.st61{fill:#A8A8A6;}
	.st62{fill:#BABAB8;}
	.st63{fill:#A3A19F;}
	.st64{fill:#C6C5C5;}
	.st65{fill:#CCCCCE;}
	.st66{fill:#D0CFCE;}
	.st67{fill:#828281;}
	.st68{fill:#918F8C;}
	.st69{fill:#949391;}
	.st70{fill:#7C7E7E;}
	.st71{fill:#858584;}
	.st72{fill:#908F8D;}
	.st73{fill:#8E8C8B;}
	.st74{fill:#9F9F9E;}
	.st75{fill:#93928F;}
	.st76{fill:#CECBCA;}
	.st77{fill:#E3E3E4;}
	.st78{fill:#CCCBCC;}
	.st79{fill:#C5C4C1;}
	.st80{fill:#C2BFBB;}
	.st81{fill:#B6B6B4;}
	.st82{fill:#D0D0CF;}
	.st83{fill:#D5D3D2;}
	.st84{fill:#C8C7C5;}
	.st85{fill:#BEBBBA;}
	.st86{fill:#AFADAA;}
	.st87{fill:#DADADA;}
	.st88{fill:#D3D4D3;}
	.st89{fill:#D2D0D0;}
	.st90{fill:#ACAAA6;}
	.st91{fill:#ACAAA7;}
	.st92{fill:#B0AFAC;}
	.st93{fill:#A09F9D;}
	.st94{fill:#C0BCBB;}
	.st95{fill:#C1C0C0;}
	.st96{fill:#ABAAA9;}
	.st97{fill:#CECFCD;}
	.st98{fill:#C3C2C1;}
	.st99{fill:#C1BEBD;}
	.st100{fill:#C6C4C4;}
	.st101{fill:#B1B1B0;}
	.st102{fill:#B8B7B6;}
	.st103{fill:#BBBBB9;}
	.st104{fill:#D2D2D2;}
	.st105{fill:#C2C1C1;}
	.st106{fill:#D4D3D1;}
	.st107{fill:#C5C6C6;}
	.st108{fill:#D7D9D7;}
	.st109{fill:#D5D5D6;}
	.st110{fill:#D4D4D3;}
	.st111{fill:#C7C6C6;}
	.st112{fill:#DAD8D9;}
	.st113{fill:#D6D8D8;}
	.st114{fill:#D3D2D1;}
	.st115{fill:#C7C6C5;}
	.st116{fill:#DBDCDD;}
	.st117{fill:#D1CFCE;}
	.st118{fill:#D9DADA;}
	.st119{fill:#CCCBC9;}
	.st120{fill:#B5B5B4;}
	.st121{fill:#CECECC;}
	.st122{fill:#CDCCCA;}
	.st123{fill:#DAD9DB;}
	.st124{fill:#DBDADB;}
	.st125{fill:#D0CECE;}
	.st126{fill:#E0E0DF;}
	.st127{fill:#BCBBB9;}
	.st128{fill:#B1B0AD;}
	.st129{fill:#CBCACA;}
	.st130{fill:#AAA9A8;}
	.st131{fill:#B1AEAC;}
	.st132{fill:#A3A1A0;}
	.st133{fill:#C1BEBE;}
	.st134{fill:#ABA9A7;}
	.st135{fill:#979591;}
	.st136{fill:#A4A4A1;}
	.st137{fill:#A8A6A3;}
	.st138{fill:#8C8A87;}
	.st139{fill:#A6A4A0;}
	.st140{fill:#81827F;}
	.st141{fill:#767575;}
	.st142{fill:#747472;}
	.st143{fill:#6F6D69;}
	.st144{fill:#535250;}
	.st145{fill:#525453;}
	.st146{fill:#646465;}
	.st147{fill:#5F5E5D;}
	.st148{fill:#8A8883;}
	.st149{fill:#959491;}
	.st150{fill:#898984;}
	.st151{fill:#81817F;}
	.st152{fill:#706E6B;}
	.st153{fill:#918D8A;}
	.st154{fill:#8D8B89;}
	.st155{fill:#C6C5C4;}
	.st156{fill:#858686;}
	.st157{fill:#B2B4B4;}
	.st158{fill:#9C9D9B;}
	.st159{fill:#B8B7B8;}
	.st160{fill:#A9A9A9;}
	.st161{fill:#4B4B49;}
	.st162{fill:#4F4B48;}
	.st163{fill:#787879;}
	.st164{fill:#69696A;}
	.st165{fill:#6F7070;}
	.st166{fill:#939393;}
	.st167{fill:#A1A2A2;}
	.st168{fill:#959595;}
	.st169{fill:#999999;}
	.st170{fill:#8C8E8D;}
	.st171{fill:#79797A;}
	.st172{fill:#5C5C5F;}
	.st173{fill:#737374;}
	.st174{fill:#515352;}
	.st175{fill:#4F4F50;}
	.st176{fill:#555555;}
	.st177{fill:#8E8E8E;}
	.st178{fill:#70706F;}
	.st179{fill:#403F3C;}
	.st180{fill:#ABADAC;}
	.st181{fill:#C2BBB9;}
	.st182{fill:#ACA29B;}
	.st183{fill:#9A9A97;}
	.st184{fill:#A59B94;}
	.st185{fill:#C4BEBB;}
	.st186{fill:#C2BDBA;}
	.st187{fill:#D8D4D2;}
	.st188{fill:#E8E8E9;}
	.st189{fill:#E0DAD9;}
	.st190{fill:#F3F4F4;}
	.st191{fill:#C6C6C6;}
	.st192{fill:#795150;}
	.st193{fill:#895955;}
	.st194{fill:#714E48;}
	.st195{fill:#A19B95;}
	.st196{fill:#F5F5F7;}
	.st197{fill:#F6F8F9;}
	.st198{fill:#BBB9B8;}
	.st199{fill:#F5F6F7;}
	.st200{fill:#CDCCCB;}
	.st201{fill:#AFABAA;}
	.st202{fill:#D3D0D0;}
	.st203{fill:#C6C0BF;}
	.st204{fill:#322013;}
	.st205{fill:#4C3933;}
	.st206{fill:#886B5C;}
	.st207{fill:#684E3F;}
	.st208{fill:#3E291F;}
	.st209{fill:#261710;}
	.st210{fill:#24150E;}
	.st211{fill:#4A342C;}
	.st212{fill:#5E5F5D;}
	.st213{fill:#5F5F5E;}
	.st214{fill:#797977;}
	.st215{fill:#A5A6A7;}
	.st216{fill:#ABACAB;}
	.st217{fill:#BFBCBD;}
	.st218{fill:#CAC9C8;}
	.st219{fill:#C0BFBF;}
	.st220{fill:#CBBBB8;}
	.st221{fill:#C19F97;}
	.st222{fill:#917470;}
	.st223{fill:#BF9B9A;}
	.st224{fill:#632F2B;}
	.st225{fill:#D0C1C0;}
	.st226{fill:#926C6B;}
	.st227{fill:#C7C4C3;}
	.st228{fill:#A1A0A0;}
	.st229{fill:#E2E3E3;}
	.st230{fill:#EFF0F0;}
	.st231{fill:#EAEBEC;}
	.st232{fill:#F2F2F3;}
	.st233{fill:#FFFFFF;}
	.st234{fill:#FCFAFB;}
	.st235{fill:#F0F1F4;}
	.st236{fill:#FCFCFD;}
	.st237{fill:#F4F6F7;}
	.st238{fill:#E9EAED;}
	.st239{fill:#E1E3E7;}
	.st240{fill:#E5E7EA;}
	.st241{fill:#BCBEC2;}
	.st242{fill:#DEE1E2;}
	.st243{fill:#B0B3B1;}
	.st244{fill:#F9F9FA;}
	.st245{fill:#EDEDEF;}
	.st246{fill:#EAEAEC;}
	.st247{fill:#F7F7F8;}
	.st248{fill:#D0D2D5;}
	.st249{fill:#D1D4D7;}
	.st250{fill:#D4D5D9;}
	.st251{fill:#DEDFE3;}
	.st252{fill:#F3F3F7;}
	.st253{fill:#D7D8DA;}
	.st254{fill:#DADDE1;}
	.st255{fill:#DAD9DD;}
	.st256{fill:#F0F0F2;}
	.st257{fill:#E4E5E7;}
	.st258{fill:#F9F9F9;}
	.st259{fill:#B2B3B7;}
	.st260{fill:#949596;}
	.st261{fill:#B1AFB4;}
	.st262{fill:#B6B7BC;}
	.st263{fill:#EAE8E9;}
	.st264{fill:#E3E5EA;}
	.st265{fill:#FAFAFA;}
	.st266{fill:#D9DADC;}
	.st267{fill:#908F8C;}
	.st268{fill:#C8C8C6;}
	.st269{fill:#7C7B7A;}
	.st270{fill:#939291;}
	.st271{fill:#B6B6B7;}
	.st272{fill:#C7C8CB;}
	.st273{fill:#939392;}
	.st274{fill:#A3A4A7;}
	.st275{fill:#999998;}
	.st276{fill:#9F9D9E;}
	.st277{fill:#878786;}
	.st278{fill:#EBECEF;}
	.st279{fill:#E7E7E9;}
	.st280{fill:#F5F6F9;}
	.st281{fill:#2B2C2A;}
	.st282{fill:#3B3C3B;}
	.st283{fill:#919190;}
	.st284{fill:#4A4A4B;}
	.st285{fill:#5A5B5B;}
	.st286{fill:#311A18;}
	.st287{fill:none;}
	.st288{fill:#392F2A;}
	.st289{fill:#422A26;}
	.st290{fill:#3C1D1B;}
	.st291{fill:#421D1C;}
	.st292{fill:#462522;}
	.st293{fill:#452725;}
	.st294{fill:#452E2A;}
	.st295{fill:#361817;}
	.st296{fill:#341819;}
	.st297{fill:#2C1E1A;}
	.st298{fill:#55322E;}
	.st299{fill:#684641;}
	.st300{fill:#42261F;}
	.st301{fill:#351714;}
	.st302{fill:#552B30;}
	.st303{fill:#4F2524;}
	.st304{fill:#4D2226;}
	.st305{fill:#794849;}
	.st306{fill:#321513;}
	.st307{fill:#381617;}
	.st308{fill:#4C2B28;}
	.st309{fill:#46201D;}
	.st310{fill:#3B1A1A;}
	.st311{fill:#341A1C;}
	.st312{fill:#23110F;}
	.st313{fill:#301613;}
	.st314{fill:#6C5B55;}
	.st315{fill:#331D19;}
	.st316{fill:#3A1B1E;}
	.st317{fill:#583032;}
	.st318{fill:#4B2627;}
	.st319{fill:#331918;}
	.st320{fill:#311616;}
	.st321{fill:#220F0F;}
	.st322{fill:#3A1E1C;}
	.st323{fill:#422623;}
	.st324{fill:#391717;}
	.st325{fill:#37171B;}
	.st326{fill:#4F2827;}
	.st327{fill:#593032;}
	.st328{fill:#3E302B;}
	.st329{fill:#5C5C5C;}
	.st330{fill:#231F20;}
</style>
<rect class="st0" width="500" height="600"/>
<g>
	<polygon class="st1" points="483.638,463.68 487.751,471.589 487.751,462.954 	"/>
	<polygon class="st1" points="501.102,443.82 508.189,453.535 509.015,444.624 	"/>
	<polygon class="st2" points="286.617,97.042 296.225,128.578 306.851,129.37 	"/>
	<polygon class="st3" points="296.225,128.578 312.163,153.108 306.851,129.37 	"/>
	<polygon class="st4" points="306.851,129.37 321.545,152.09 319.398,160.568 	"/>
	<polygon class="st5" points="306.851,129.37 312.163,153.108 319.398,160.568 	"/>
	<polygon class="st6" points="319.398,160.568 332.99,175.29 321.545,152.09 	"/>
	<polygon class="st7" points="332.99,175.29 338.5,176.392 321.545,152.09 	"/>
	<polygon class="st8" points="312.163,153.108 312.898,158.872 319.398,160.568 	"/>
	<polygon class="st9" points="312.898,158.872 326.194,173.764 319.398,160.568 	"/>
	<polygon class="st10" points="319.398,160.568 332.99,175.29 326.194,173.764 	"/>
	<polygon class="st11" points="309.79,110.379 317.929,140.221 325.05,136.943 	"/>
	<polygon class="st12" points="317.929,140.221 321.545,152.09 325.05,136.943 	"/>
	<polygon class="st13" points="325.05,136.943 332.566,155.198 321.545,152.09 	"/>
	<polygon class="st14" points="332.566,155.198 338.5,176.392 321.545,152.09 	"/>
	<polygon class="st15" points="332.566,155.198 348.419,179.868 338.5,176.392 	"/>
	<polygon class="st16" points="338.5,176.392 350.623,189.533 348.419,179.868 	"/>
	<polygon class="st17" points="348.419,179.868 363.368,196.739 350.623,189.533 	"/>
	<polygon class="st15" points="350.623,189.533 371.338,209.229 363.368,196.739 	"/>
	<polygon class="st18" points="363.368,196.739 384.563,214.541 371.338,209.229 	"/>
	<polygon class="st19" points="371.338,209.229 391.146,223.952 384.563,214.541 	"/>
	<polygon class="st20" points="384.563,214.541 411.323,231.921 391.146,223.952 	"/>
	<polygon class="st21" points="391.146,223.952 422.175,244.722 411.323,231.921 	"/>
	<polygon class="st22" points="411.323,231.921 455.153,256.761 422.175,244.722 	"/>
	<polygon class="st23" points="438.961,247.584 443.284,238.703 455.153,256.761 	"/>
	<polygon class="st24" points="455.153,256.761 476.742,273.49 422.175,244.722 	"/>
	<polygon class="st25" points="476.742,273.49 435.937,262.073 422.175,244.722 	"/>
	<polygon class="st26" points="476.742,273.49 499.067,292.028 458.764,268.46 	"/>
	<polygon class="st27" points="499.067,292.028 535.012,305.422 483.638,292.028 	"/>
	<polygon class="st28" points="435.937,262.073 461.935,286.093 458.764,268.46 	"/>
	<polygon class="st29" points="458.764,268.46 461.935,286.093 483.638,292.028 	"/>
	<polygon class="st30" points="458.764,268.46 499.067,292.028 483.638,292.028 	"/>
	<polygon class="st31" points="535.012,305.422 518.792,314.409 542.416,315.991 	"/>
	<polygon class="st32" points="542.416,315.991 546.825,325.485 518.792,314.409 	"/>
	<polygon class="st33" points="546.825,325.485 543.773,336.223 518.792,314.409 	"/>
	<polygon class="st34" points="543.773,336.223 507.149,325.485 518.792,314.409 	"/>
	<polygon class="st35" points="517.954,328.653 490.307,352.841 507.149,325.485 	"/>
	<polygon class="st28" points="518.792,314.409 483.638,292.028 535.012,305.422 	"/>
	<polygon class="st30" points="483.638,292.028 461.935,286.093 488.724,301.353 	"/>
	<polygon class="st36" points="488.724,301.353 518.792,314.409 483.638,292.028 	"/>
	<polygon class="st29" points="507.149,325.485 488.724,301.353 518.792,314.409 	"/>
	<polygon class="st37" points="391.146,223.952 407.339,242.744 422.175,244.722 	"/>
	<polygon class="st38" points="507.149,325.485 479.738,340.35 490.307,352.841 	"/>
	<polygon class="st39" points="507.149,325.485 479.738,340.35 472.278,336.223 	"/>
	<polygon class="st40" points="472.278,336.223 466.117,327.295 507.149,325.485 	"/>
	<polygon class="st41" points="466.117,327.295 456.622,315.991 507.149,325.485 	"/>
	<polygon class="st42" points="507.149,325.485 456.622,315.991 488.724,301.353 	"/>
	<polygon class="st43" points="407.339,242.744 425.82,269.647 422.175,244.722 	"/>
	<polygon class="st44" points="422.175,244.722 435.937,262.073 425.82,269.647 	"/>
	<polygon class="st45" points="425.82,269.647 438.961,293.723 435.937,262.073 	"/>
	<polygon class="st46" points="438.961,293.723 461.935,286.093 435.937,262.073 	"/>
	<polygon class="st47" points="461.935,286.093 438.961,293.723 488.724,301.353 	"/>
	<polygon class="st48" points="438.961,293.723 456.622,315.991 488.724,301.353 	"/>
	<polygon class="st49" points="490.307,352.841 466.852,375.787 479.738,340.35 	"/>
	<polygon class="st50" points="466.852,375.787 460.748,361.205 479.738,340.35 	"/>
	<polygon class="st51" points="460.748,361.205 472.278,336.223 479.738,340.35 	"/>
	<polygon class="st52" points="460.748,361.205 449.727,359.171 472.278,336.223 	"/>
	<polygon class="st22" points="433.676,328.425 439.17,339.624 420.79,359.736 	"/>
	<polygon class="st53" points="420.79,359.736 432.39,358.606 449.797,327.995 	"/>
	<polygon class="st54" points="432.39,358.606 440.459,362.788 460.239,330.854 	"/>
	<polygon class="st55" points="440.459,362.788 449.727,359.171 472.278,336.223 	"/>
	<polygon class="st56" points="440.459,362.788 460.239,330.854 472.278,336.223 	"/>
	<polygon class="st57" points="460.239,330.854 466.117,327.295 472.278,336.223 	"/>
	<polygon class="st58" points="466.852,375.787 434.863,397.49 460.748,361.205 	"/>
	<polygon class="st59" points="434.863,397.49 422.175,423.601 445.319,408.341 	"/>
	<polygon class="st60" points="420.79,359.736 417.625,347.415 433.676,328.425 	"/>
	<polygon class="st61" points="433.676,328.425 456.622,315.991 449.797,327.995 	"/>
	<polygon class="st62" points="433.676,328.425 449.797,327.995 439.17,339.624 	"/>
	<polygon class="st63" points="456.622,315.991 432.39,358.606 460.239,330.854 	"/>
	<polygon class="st64" points="276.274,104.332 287.973,148.077 292.551,131.8 	"/>
	<polygon class="st65" points="292.551,131.8 312.898,158.872 287.973,148.077 	"/>
	<polygon class="st66" points="287.973,148.077 314.198,177.636 312.898,158.872 	"/>
	<polygon class="st10" points="314.198,177.636 332.99,193.46 312.898,158.872 	"/>
	<polygon class="st62" points="313.124,159.125 326.194,173.764 332.99,193.46 	"/>
	<polygon class="st67" points="456.622,315.991 438.961,293.723 419.207,304.857 	"/>
	<polygon class="st68" points="419.207,304.857 395.583,283.098 438.961,293.723 	"/>
	<polygon class="st69" points="456.622,315.991 419.207,304.857 433.676,328.425 	"/>
	<polygon class="st70" points="395.583,283.098 438.961,293.723 425.82,269.647 	"/>
	<polygon class="st71" points="395.583,283.098 425.82,269.647 387.331,262.073 	"/>
	<polygon class="st72" points="387.331,262.073 425.82,269.647 407.339,242.744 	"/>
	<polygon class="st73" points="387.331,262.073 375.576,228.729 407.339,242.744 	"/>
	<polygon class="st74" points="371.338,209.229 375.576,228.729 391.146,223.952 	"/>
	<polygon class="st75" points="391.146,223.952 375.576,228.729 407.339,242.744 	"/>
	<polygon class="st76" points="433.676,328.425 417.625,347.415 412.086,355.44 395.583,352.841 	"/>
	<polygon class="st77" points="395.583,352.841 396.94,362.223 412.086,355.44 	"/>
	<polygon class="st78" points="276.274,104.332 275.653,122.362 287.973,148.077 	"/>
	<polygon class="st8" points="383.262,343.865 385.072,358.606 422.175,326.165 	"/>
	<polygon class="st79" points="383.262,343.865 424.184,312.963 422.175,326.165 	"/>
	<polygon class="st55" points="385.072,358.606 422.175,326.165 395.583,352.841 	"/>
	<polygon class="st80" points="422.175,326.165 433.676,328.425 395.583,352.841 	"/>
	<polygon class="st81" points="422.175,326.165 424.184,312.963 433.676,328.425 	"/>
	<polygon class="st82" points="383.262,343.865 366.759,338.485 408.491,311.728 	"/>
	<polygon class="st83" points="366.759,338.485 354.326,332.918 405.078,304.857 	"/>
	<polygon class="st84" points="419.207,304.857 405.078,304.857 366.759,338.485 	"/>
	<polygon class="st85" points="383.262,343.865 408.491,311.728 424.184,312.963 	"/>
	<polygon class="st86" points="408.491,311.728 419.207,304.857 424.184,312.963 	"/>
	<polygon class="st87" points="354.326,332.918 354.891,344.08 366.759,338.485 	"/>
	<polygon class="st88" points="366.759,338.485 367.326,352.841 383.262,343.865 	"/>
	<polygon class="st83" points="354.326,332.918 341.214,326.165 390.724,303.897 	"/>
	<polygon class="st89" points="390.724,303.897 354.326,332.918 405.078,304.857 	"/>
	<polygon class="st90" points="405.078,304.857 395.583,283.098 419.207,304.857 	"/>
	<polygon class="st91" points="390.724,303.897 395.583,283.098 405.078,304.857 	"/>
	<polygon class="st92" points="390.724,303.897 376.989,277.898 395.583,283.098 	"/>
	<polygon class="st93" points="376.989,277.898 387.331,262.073 395.583,283.098 	"/>
	<polygon class="st94" points="376.989,277.898 362.464,256.196 387.331,262.073 	"/>
	<polygon class="st95" points="362.464,256.196 349.805,239.24 379.545,239.987 	"/>
	<polygon class="st96" points="362.464,256.196 379.545,239.987 387.331,262.073 	"/>
	<polygon class="st97" points="349.805,239.24 336.692,224.659 379.545,239.987 	"/>
	<polygon class="st98" points="336.692,224.659 332.566,208.156 375.576,228.729 	"/>
	<polygon class="st99" points="336.692,224.659 375.576,228.729 379.545,239.987 	"/>
	<polygon class="st100" points="332.566,208.156 332.99,193.46 373.966,221.319 	"/>
	<polygon class="st101" points="332.566,208.156 373.966,221.319 375.576,228.729 	"/>
	<polygon class="st102" points="332.99,193.46 371.338,209.229 373.966,221.319 	"/>
	<polygon class="st95" points="326.194,173.764 371.338,209.229 332.99,193.46 	"/>
	<polygon class="st103" points="326.194,173.764 332.99,175.29 338.5,176.392 350.623,189.533 371.338,209.229 	"/>
	<polygon class="st104" points="275.653,122.362 269.097,118.857 273.053,154.351 	"/>
	<polygon class="st3" points="275.653,122.362 273.053,154.351 302.668,183.965 287.973,148.077 	"/>
	<polygon class="st9" points="302.668,183.965 332.566,208.156 332.99,193.46 	"/>
	<polygon class="st105" points="287.973,148.077 302.668,183.965 314.198,177.636 	"/>
	<polygon class="st102" points="314.198,177.636 302.668,183.965 332.99,193.46 	"/>
	<polygon class="st88" points="273.053,154.351 263.558,150.957 273.053,187.467 	"/>
	<polygon class="st87" points="273.053,187.467 299.333,206.488 273.053,154.351 	"/>
	<polygon class="st10" points="336.692,224.659 299.333,206.488 332.566,208.156 	"/>
	<polygon class="st106" points="299.333,206.488 302.668,183.965 332.566,208.156 	"/>
	<polygon class="st107" points="273.053,154.351 299.333,206.488 302.668,183.965 	"/>
	<polygon class="st104" points="273.053,187.467 262.767,182.157 272.04,205.64 	"/>
	<polygon class="st108" points="272.04,205.64 306.06,229.405 273.053,187.467 	"/>
	<polygon class="st109" points="272.04,205.64 280.966,231.921 266.836,212.562 	"/>
	<polygon class="st110" points="280.966,231.921 290.686,257.662 273.9,239.24 	"/>
	<polygon class="st82" points="306.06,229.405 349.805,239.24 336.692,224.659 	"/>
	<polygon class="st111" points="273.053,187.467 306.06,229.405 299.333,206.488 	"/>
	<polygon class="st112" points="299.333,206.488 306.06,229.405 336.692,224.659 	"/>
	<polygon class="st113" points="290.686,257.662 301.991,277.898 287.861,264.334 	"/>
	<polygon class="st87" points="341.214,326.165 344.152,336.223 354.326,332.918 	"/>
	<polygon class="st106" points="341.214,326.165 332.566,317.801 384.563,292.819 	"/>
	<polygon class="st8" points="341.214,326.165 384.563,292.819 390.724,303.897 	"/>
	<polygon class="st114" points="376.989,277.898 323.806,307.852 332.566,317.801 	"/>
	<polygon class="st115" points="332.566,317.801 376.989,277.898 384.563,292.819 	"/>
	<polygon class="st116" points="323.806,307.852 323.806,315.991 332.566,317.801 	"/>
	<polygon class="st87" points="332.566,317.801 331.831,324.92 341.214,326.165 	"/>
	<polygon class="st117" points="323.806,307.852 311.287,294.656 376.989,277.898 	"/>
	<polygon class="st118" points="301.991,277.898 311.287,294.656 301.991,287.619 	"/>
	<polygon class="st66" points="301.991,277.898 355.116,267.78 311.287,294.656 	"/>
	<polygon class="st119" points="355.116,267.78 376.989,277.898 311.287,294.656 	"/>
	<polygon class="st120" points="355.116,267.78 362.464,256.196 376.989,277.898 	"/>
	<polygon class="st121" points="349.805,239.24 349.805,254.217 362.464,256.196 	"/>
	<polygon class="st89" points="349.805,254.217 355.116,267.78 362.464,256.196 	"/>
	<polygon class="st10" points="301.991,277.898 290.686,257.662 349.805,254.217 	"/>
	<polygon class="st122" points="301.991,277.898 349.805,254.217 355.116,267.78 	"/>
	<polygon class="st8" points="290.686,257.662 280.966,231.921 336.692,254.981 	"/>
	<polygon class="st106" points="280.966,231.921 272.04,205.64 306.06,229.405 	"/>
	<polygon class="st123" points="306.06,229.405 336.692,254.981 280.966,231.921 	"/>
	<polygon class="st124" points="336.692,254.981 349.805,239.24 306.06,229.405 	"/>
	<polygon class="st125" points="349.805,239.24 336.692,254.981 349.805,254.217 	"/>
	<polygon class="st118" points="311.287,294.656 316.713,305.846 323.806,307.852 	"/>
	<polygon class="st15" points="361.39,478.536 371.733,461.072 400.217,442.478 	"/>
	<polygon class="st126" points="400.217,442.478 422.175,423.601 445.319,408.341 	"/>
	<polygon class="st5" points="361.39,478.536 352.178,487.812 358.395,493.464 	"/>
	<polygon class="st127" points="361.39,478.536 358.395,493.464 405.87,445.764 	"/>
	<polygon class="st128" points="361.39,478.536 400.217,442.478 405.87,445.764 	"/>
	<polygon class="st129" points="358.395,493.464 349.465,506.795 359.412,507.361 	"/>
	<polygon class="st119" points="359.412,507.361 352.969,520.248 360.656,522.735 	"/>
	<polygon class="st130" points="359.412,507.361 358.395,493.464 416.495,439.085 	"/>
	<polygon class="st131" points="358.395,493.464 416.495,439.085 405.87,445.764 	"/>
	<polygon class="st132" points="359.412,507.361 360.656,522.735 403.044,460.507 	"/>
	<polygon class="st62" points="416.495,439.085 403.044,460.507 359.412,507.361 	"/>
	<polygon class="st111" points="360.656,522.735 372.072,519.059 403.044,460.507 	"/>
	<polygon class="st133" points="372.072,519.059 368.455,534.269 379.645,530.538 	"/>
	<polygon class="st134" points="379.645,530.538 407,469.614 372.072,519.059 	"/>
	<polygon class="st97" points="379.645,530.538 389.96,521.857 413.019,491.621 	"/>
	<polygon class="st62" points="372.072,519.059 403.044,460.507 407,469.614 	"/>
	<polygon class="st135" points="379.645,530.538 414.913,469.614 413.019,491.621 	"/>
	<polygon class="st136" points="379.645,530.538 407,469.614 414.913,469.614 	"/>
	<polygon class="st137" points="400.217,442.478 445.319,408.341 405.87,445.764 	"/>
	<polygon class="st138" points="445.319,408.341 445.319,430.129 434.863,418.26 	"/>
	<polygon class="st139" points="434.863,418.26 405.87,445.764 416.495,439.085 	"/>
	<polygon class="st140" points="434.863,418.26 416.495,439.085 445.319,430.129 	"/>
	<polygon class="st141" points="445.319,430.129 428.618,448.186 433.747,457.511 	"/>
	<polygon class="st142" points="416.495,439.085 428.618,448.186 445.319,430.129 	"/>
	<polygon class="st36" points="445.319,430.129 463.376,442.478 440.091,442.499 	"/>
	<polygon class="st143" points="463.376,442.478 479.144,448.186 469.056,450.56 	"/>
	<polygon class="st144" points="469.056,450.56 458.629,448.695 463.376,442.478 	"/>
	<polygon class="st145" points="440.091,442.499 458.629,448.695 463.376,442.478 	"/>
	<polygon class="st146" points="433.747,457.511 447.772,445.066 440.091,442.499 	"/>
	<polygon class="st147" points="433.747,457.511 458.629,448.695 447.772,445.066 	"/>
	<polygon class="st148" points="403.044,460.507 428.618,448.186 416.495,439.085 	"/>
	<polygon class="st68" points="403.044,460.507 407,469.614 428.618,448.186 	"/>
	<polygon class="st149" points="407,469.614 428.618,448.186 414.913,469.614 	"/>
	<polygon class="st150" points="414.913,469.614 428.618,448.186 433.747,457.511 	"/>
	<polygon class="st151" points="414.913,469.614 433.747,457.511 438.282,466.275 	"/>
	<polygon class="st152" points="433.747,457.511 447.772,452.541 438.282,466.275 	"/>
	<polygon class="st153" points="413.019,491.621 420.366,468.834 414.913,469.614 	"/>
	<polygon class="st154" points="413.019,491.621 438.282,466.275 420.366,468.834 	"/>
	<polygon class="st120" points="438.282,466.275 407.932,511.08 413.019,491.621 	"/>
	<polygon class="st155" points="389.96,521.857 413.019,491.621 396.332,521.857 	"/>
	<polygon class="st3" points="413.019,491.621 401.294,512.865 407.932,511.08 	"/>
	<polygon class="st64" points="445.319,408.341 466.852,375.787 434.863,397.49 	"/>
	<polygon class="st156" points="517.954,328.653 490.307,352.841 543.773,336.223 	"/>
	<polygon class="st157" points="445.319,408.341 476.065,396.586 466.852,375.787 	"/>
	<polygon class="st158" points="466.852,375.787 490.307,352.841 509.523,374.766 	"/>
	<polygon class="st159" points="445.319,430.129 476.065,396.586 445.319,408.341 	"/>
	<polygon class="st160" points="445.319,430.129 499.463,405.741 476.065,396.586 	"/>
	<polygon class="st160" points="466.852,375.787 509.523,374.766 476.065,396.586 	"/>
	<polygon class="st161" points="479.144,448.186 488.188,443.099 463.376,442.478 	"/>
	<polygon class="st162" points="488.188,443.099 497.371,443.82 499.463,439.085 	"/>
	<polygon class="st163" points="463.376,442.478 479.738,429.196 445.319,430.129 	"/>
	<polygon class="st164" points="463.376,442.478 479.738,429.196 488.188,443.099 	"/>
	<polygon class="st165" points="479.738,429.196 496.1,429.196 488.188,443.099 	"/>
	<polygon class="st166" points="445.319,430.129 479.738,429.196 499.463,405.741 	"/>
	<polygon class="st166" points="490.307,352.841 543.773,336.223 509.523,374.766 	"/>
	<polygon class="st167" points="476.065,396.586 509.523,374.766 499.463,405.741 	"/>
	<polygon class="st168" points="499.463,405.741 554.511,359.29 509.523,374.766 	"/>
	<polygon class="st169" points="543.773,336.223 582.148,331.759 509.523,374.766 	"/>
	<polygon class="st170" points="479.738,429.196 499.463,405.741 526.988,398.677 	"/>
	<polygon class="st171" points="496.1,429.196 517.04,420.097 479.738,429.196 	"/>
	<polygon class="st34" points="499.463,439.085 510.427,429.196 496.1,429.196 	"/>
	<polygon class="st172" points="517.04,420.097 510.766,429.196 496.1,429.196 	"/>
	<polygon class="st173" points="526.988,398.677 479.738,429.196 517.04,420.097 	"/>
	<polygon class="st174" points="517.04,420.097 564.345,394.099 526.988,398.677 	"/>
	<polygon class="st42" points="499.463,405.741 554.511,359.29 526.988,398.677 	"/>
	<polygon class="st175" points="526.988,398.677 564.345,394.099 554.511,359.29 	"/>
	<polygon class="st176" points="564.345,394.099 598.934,353.262 554.511,359.29 	"/>
	<polygon class="st146" points="598.934,353.262 611.989,334.416 582.148,331.759 	"/>
	<polygon class="st177" points="509.523,374.766 554.511,359.29 582.148,331.759 	"/>
	<polygon class="st178" points="582.148,331.759 554.511,359.29 598.934,353.262 	"/>
	<polygon class="st179" points="667.547,263.543 646.748,266.482 655.988,254.811 	"/>
	<polygon class="st164" points="646.748,266.482 636.123,277.559 621.315,275.298 	"/>
	<polygon class="st180" points="621.315,275.298 607.977,277.559 635.896,259.134 	"/>
	<polygon class="st134" points="634.031,249.555 635.896,259.134 609.192,264.899 	"/>
	<polygon class="st181" points="640.559,249.131 635.896,259.134 634.031,249.555 	"/>
	<polygon class="st182" points="640.559,249.131 643.738,244.086 649.969,250.148 	"/>
	<polygon class="st70" points="621.315,275.298 635.896,259.134 646.748,266.482 	"/>
	<polygon class="st183" points="635.896,259.134 649.969,250.148 646.748,266.482 	"/>
	<polygon class="st184" points="649.969,250.148 655.988,254.811 646.748,266.482 	"/>
	<polygon class="st185" points="640.559,249.131 649.969,250.148 635.896,259.134 	"/>
	<polygon class="st186" points="643.738,244.086 641.945,238.279 655,234.04 	"/>
	<polygon class="st187" points="641.945,238.279 637.507,236.753 647.483,228.671 	"/>
	<polygon class="st188" points="647.483,228.671 655,234.04 641.945,238.279 	"/>
	<polygon class="st189" points="637.507,236.753 633.268,237.432 634.031,227.201 	"/>
	<polygon class="st190" points="634.031,227.201 647.483,228.671 637.507,236.753 	"/>
	<polygon class="st191" points="643.738,244.086 655,234.04 662.009,243.083 	"/>
	<polygon class="st192" points="667.547,263.543 679.812,267.551 672.691,260.646 	"/>
	<polygon class="st193" points="672.442,260.786 660.765,254.439 667.547,263.543 	"/>
	<polygon class="st194" points="649.969,250.148 660.765,254.439 667.547,263.543 655.988,254.811 	"/>
	<polygon class="st195" points="649.969,250.148 643.738,244.086 662.009,243.083 	"/>
	<polygon class="st196" points="608.344,235.452 626.656,227.937 633.268,237.432 	"/>
	<polygon class="st197" points="626.656,227.937 634.031,227.201 633.268,237.432 	"/>
	<polygon class="st198" points="633.268,237.432 629.199,241.077 594.61,247.859 	"/>
	<polygon class="st21" points="608.344,235.452 594.61,247.859 633.268,237.432 	"/>
	<polygon class="st199" points="575.705,264.899 606.479,252.522 594.61,247.859 	"/>
	<polygon class="st200" points="594.61,247.859 629.199,241.077 606.479,252.522 	"/>
	<polygon class="st201" points="629.199,241.077 629.623,246.616 606.479,252.522 	"/>
	<polygon class="st202" points="629.623,246.616 609.192,264.899 606.479,252.522 	"/>
	<polygon class="st203" points="629.623,246.616 634.031,249.555 609.192,264.899 	"/>
	<polygon class="st204" points="629.623,246.616 636.801,243.281 629.199,241.077 	"/>
	<polygon class="st205" points="629.199,241.077 633.268,237.432 636.801,243.281 	"/>
	<polygon class="st206" points="633.268,237.432 637.507,236.753 636.801,243.281 	"/>
	<polygon class="st207" points="637.507,236.753 641.945,238.279 636.801,243.281 	"/>
	<polygon class="st208" points="636.801,243.281 643.738,244.086 641.945,238.279 	"/>
	<polygon class="st209" points="629.623,246.616 634.031,249.555 636.801,243.281 	"/>
	<polygon class="st210" points="634.031,249.555 640.559,249.131 636.801,243.281 	"/>
	<polygon class="st211" points="636.801,243.281 643.738,244.086 640.559,249.131 	"/>
	<polygon class="st212" points="611.989,334.416 619.166,310.706 582.148,331.759 	"/>
	<polygon class="st213" points="619.166,310.706 626.656,293.723 582.148,331.759 	"/>
	<polygon class="st73" points="636.123,277.559 611.989,288.806 621.315,275.298 	"/>
	<polygon class="st214" points="611.989,288.806 582.148,331.759 626.656,293.723 	"/>
	<polygon class="st213" points="636.123,277.559 626.656,293.723 611.989,288.806 	"/>
	<polygon class="st215" points="546.825,325.485 586.556,307.118 543.773,336.223 	"/>
	<polygon class="st216" points="586.556,307.118 582.148,331.759 543.773,336.223 	"/>
	<polygon class="st82" points="535.012,305.422 564.006,301.353 542.416,315.991 	"/>
	<polygon class="st16" points="542.416,315.991 564.006,301.353 546.825,325.485 	"/>
	<polygon class="st217" points="564.006,301.353 586.556,307.118 546.825,325.485 	"/>
	<polygon class="st218" points="476.742,273.49 535.012,305.422 499.067,292.028 	"/>
	<polygon class="st50" points="586.556,307.118 611.989,288.806 582.148,331.759 	"/>
	<polygon class="st219" points="607.977,277.559 611.989,288.806 621.315,275.298 	"/>
	<polygon class="st220" points="662.009,243.083 660.765,254.439 654.559,247.454 	"/>
	<polygon class="st221" points="654.559,247.454 649.969,250.148 660.765,254.439 	"/>
	<polygon class="st222" points="679.812,267.551 681,263.26 672.691,260.646 	"/>
	<polygon class="st223" points="672.691,260.646 672.442,254.133 681,263.26 	"/>
	<polygon class="st224" points="660.765,254.439 672.442,254.133 672.691,260.646 	"/>
	<polygon class="st225" points="662.009,243.083 668.027,248.761 660.765,254.439 	"/>
	<polygon class="st226" points="668.027,248.761 672.442,254.133 660.765,254.439 	"/>
	<polygon class="st11" points="564.006,301.353 611.989,288.806 586.556,307.118 	"/>
	<polygon class="st227" points="607.977,277.559 564.006,301.353 611.989,288.806 	"/>
	<polygon class="st228" points="609.192,264.899 607.977,277.559 635.896,259.134 	"/>
	<polygon class="st229" points="575.705,264.899 609.192,264.899 606.479,252.522 	"/>
	<polygon class="st118" points="564.006,301.353 609.192,264.899 607.977,277.559 	"/>
	<polygon class="st230" points="575.705,264.899 609.192,264.899 565.165,291.349 	"/>
	<polygon class="st231" points="564.006,301.353 565.165,291.349 609.192,264.899 	"/>
	<polygon class="st232" points="565.165,291.349 535.012,305.422 564.006,301.353 	"/>
	<polygon class="st233" points="535.012,305.422 565.165,291.349 550.089,257.227 	"/>
	<polygon class="st234" points="550.089,257.227 575.705,264.899 565.165,291.349 	"/>
	<polygon class="st234" points="535.012,305.422 476.742,273.49 550.089,257.227 	"/>
	<polygon class="st235" points="476.742,273.49 459.675,229.067 550.089,257.227 	"/>
	<polygon class="st236" points="459.675,229.067 547.503,225.789 550.089,257.227 	"/>
	<polygon class="st237" points="459.675,229.067 453.91,210.19 546.825,212.451 	"/>
	<polygon class="st238" points="546.825,212.451 455.153,183.741 453.91,210.19 	"/>
	<polygon class="st239" points="443.284,238.703 458.426,236.718 455.153,256.761 	"/>
	<polygon class="st240" points="455.153,256.761 476.742,273.49 459.675,229.067 	"/>
	<polygon class="st241" points="443.284,238.703 459.675,229.067 458.426,236.718 	"/>
	<polygon class="st242" points="453.91,210.19 452.559,233.251 459.675,229.067 	"/>
	<polygon class="st243" points="448.964,189.957 453.91,210.19 455.153,183.741 	"/>
	<polygon class="st230" points="550.089,257.227 577.231,240.356 575.705,264.899 	"/>
	<polygon class="st244" points="550.089,257.227 577.231,240.356 547.503,225.789 	"/>
	<polygon class="st245" points="547.503,225.789 589.439,211.095 579.944,229.52 	"/>
	<polygon class="st246" points="547.503,225.789 579.944,229.52 577.231,240.356 	"/>
	<polygon class="st247" points="459.675,229.067 546.825,212.451 547.503,225.789 	"/>
	<polygon class="st248" points="578.757,47.702 595.712,46.006 569.431,117.388 	"/>
	<polygon class="st249" points="556.569,37.926 538.912,55.107 556.569,132.876 	"/>
	<polygon class="st250" points="527.382,43.576 515.174,73.643 546.825,150.507 	"/>
	<polygon class="st251" points="497.202,63.47 495.845,104.332 543.773,162.856 	"/>
	<polygon class="st252" points="455.153,183.741 459.675,157.063 546.825,189.533 	"/>
	<polygon class="st253" points="459.675,157.063 465.947,130.388 543.773,168.594 	"/>
	<polygon class="st254" points="481.716,100.321 475.253,134.956 543.773,168.594 	"/>
	<polygon class="st234" points="546.825,212.451 589.439,211.095 547.503,225.789 	"/>
	<polygon class="st255" points="585.878,181.818 589.439,211.095 593.847,195.552 	"/>
	<polygon class="st256" points="585.878,181.818 546.825,212.451 589.439,211.095 	"/>
	<polygon class="st257" points="546.825,212.451 455.153,183.741 546.825,189.533 	"/>
	<polygon class="st258" points="546.825,189.533 585.878,181.818 546.825,212.451 	"/>
	<polygon class="st259" points="459.675,157.063 453.91,164.354 455.153,183.741 	"/>
	<polygon class="st260" points="465.947,130.388 459.675,137.565 459.675,157.063 	"/>
	<polygon class="st261" points="465.947,130.388 478.189,119.217 475.253,134.956 	"/>
	<polygon class="st262" points="473.407,123.582 481.716,100.321 478.189,119.217 	"/>
	<polygon class="st263" points="546.825,189.533 587.97,161.585 585.878,181.818 	"/>
	<polygon class="st197" points="543.773,168.594 546.825,189.533 459.675,157.063 	"/>
	<polygon class="st264" points="481.716,100.321 495.845,104.332 543.773,168.594 	"/>
	<polygon class="st265" points="495.845,104.332 543.773,168.594 543.773,162.856 	"/>
	<polygon class="st266" points="587.97,161.585 569.431,117.388 578.071,93.924 	"/>
	<polygon class="st267" points="595.712,46.006 592.321,77.034 578.071,93.924 	"/>
	<polygon class="st99" points="592.321,77.034 589.863,113.997 578.071,93.924 	"/>
	<polygon class="st268" points="589.863,113.997 587.97,161.585 578.071,93.924 	"/>
	<polygon class="st269" points="578.757,47.702 565.701,73.135 569.431,117.388 	"/>
	<polygon class="st270" points="578.757,47.702 585.196,39.224 595.712,46.006 	"/>
	<polygon class="st271" points="556.569,37.926 545.694,32.951 538.912,55.107 	"/>
	<polygon class="st93" points="556.569,37.926 565.701,73.135 556.569,132.876 	"/>
	<polygon class="st196" points="543.773,168.594 587.97,161.585 546.825,189.533 	"/>
	<polygon class="st272" points="497.202,63.47 515.174,73.643 543.773,162.856 	"/>
	<polygon class="st237" points="515.174,73.643 546.825,150.507 543.773,162.856 	"/>
	<polygon class="st273" points="495.845,104.332 486.464,86.416 497.202,63.47 	"/>
	<polygon class="st274" points="486.464,86.416 488.916,102.365 495.845,104.332 	"/>
	<polygon class="st275" points="497.202,63.47 509.513,65.054 515.174,73.643 	"/>
	<polygon class="st276" points="515.174,73.643 511.783,51.379 527.382,43.576 	"/>
	<polygon class="st236" points="543.773,162.856 587.97,161.585 543.773,168.594 	"/>
	<polygon class="st265" points="546.825,150.507 587.97,161.585 543.773,162.856 	"/>
	<polygon class="st277" points="556.569,132.876 538.912,55.107 527.382,43.576 	"/>
	<polygon class="st278" points="556.569,132.876 546.825,150.507 527.382,43.576 	"/>
	<polygon class="st279" points="565.701,73.135 556.569,132.876 569.431,117.388 	"/>
	<polygon class="st232" points="587.97,161.585 556.569,132.876 569.431,117.388 	"/>
	<polygon class="st280" points="556.569,132.876 546.825,150.507 587.97,161.585 	"/>
	<polygon class="st281" points="509.513,65.054 511.783,51.379 515.174,73.643 	"/>
	<polygon class="st282" points="545.694,32.951 538.912,55.107 534.052,50.246 	"/>
	<polygon class="st283" points="456.622,315.991 460.239,330.854 466.117,327.295 	"/>
	<polygon class="st284" points="638.531,275.048 653.334,265.551 646.748,266.482 	"/>
	<path class="st285" d="M479.144,448.186"/>
	<polygon class="st286" points="499.463,439.085 507.884,436.402 510.766,429.196 	"/>
	<path class="st287" d="M479.144,448.186"/>
	<polygon class="st288" points="488.188,443.099 497.371,443.82 501.102,445.586 	"/>
	<polygon class="st289" points="488.188,443.099 487.919,450.56 498.728,449.315 	"/>
	<polygon class="st290" points="487.919,450.56 492.906,454.12 498.728,449.315 	"/>
	<polygon class="st291" points="492.906,454.12 485.503,458.644 491.663,462.261 	"/>
	<polygon class="st292" points="485.503,458.644 483.638,463.677 491.663,462.261 	"/>
	<polygon class="st293" points="491.663,462.261 498.389,457.511 492.906,454.12 	"/>
	<polygon class="st294" points="498.728,449.315 488.188,443.099 501.102,445.586 	"/>
	<polygon class="st295" points="507.884,436.402 506.57,440.33 517.775,443.099 	"/>
	<polygon class="st296" points="506.57,440.33 501.102,443.82 509.015,444.624 	"/>
	<polygon class="st297" points="498.389,457.511 506.132,461.161 507.375,455.534 	"/>
	<polygon class="st298" points="506.132,461.161 505.058,465.425 510.766,467.742 	"/>
	<polygon class="st299" points="505.058,465.425 500.367,466.835 505.962,473.055 	"/>
	<polygon class="st300" points="500.367,466.835 497.824,473.055 505.962,473.055 	"/>
	<polygon class="st301" points="498.728,449.315 492.906,454.12 498.389,457.511 	"/>
	<polygon class="st302" points="501.102,445.586 510.427,446.207 507.375,455.534 	"/>
	<polygon class="st303" points="498.728,449.315 507.375,455.534 498.389,457.511 	"/>
	<polygon class="st304" points="501.102,445.586 498.728,449.315 507.375,455.534 	"/>
	<polygon class="st305" points="510.427,446.207 516.475,450.56 507.375,455.534 	"/>
	<polygon class="st306" points="516.475,450.56 522.07,459.094 507.375,455.534 	"/>
	<polygon class="st307" points="522.07,459.094 517.775,468.026 507.375,455.534 	"/>
	<polygon class="st308" points="507.375,455.534 506.132,461.161 510.766,467.742 	"/>
	<polygon class="st309" points="505.962,473.055 503.589,480.118 497.824,473.055 	"/>
	<polygon class="st310" points="510.766,467.742 517.775,468.026 507.375,455.534 	"/>
	<polygon class="st311" points="517.775,468.026 511.275,473.392 510.766,467.742 	"/>
	<polygon class="st312" points="503.589,480.118 511.275,473.392 505.962,473.055 	"/>
	<polygon class="st313" points="505.058,465.425 510.766,467.742 511.275,473.392 505.962,473.055 	"/>
	<polygon class="st314" points="497.824,473.055 494.094,481.644 503.589,480.118 	"/>
	<polygon class="st315" points="509.015,444.624 512.576,441.815 506.57,440.33 	"/>
	<polygon class="st316" points="507.884,436.402 510.766,429.196 524.444,430.439 	"/>
	<polygon class="st317" points="524.444,430.439 533.486,439.424 521.223,437.05 	"/>
	<polygon class="st318" points="533.486,439.424 535.747,445.586 527.354,443.608 	"/>
	<polygon class="st319" points="535.747,445.586 527.891,454.826 527.354,443.608 	"/>
	<polygon class="st320" points="527.891,454.826 523.991,458.19 519.47,449.315 	"/>
	<polygon class="st321" points="519.47,449.315 527.354,443.608 527.891,454.826 	"/>
	<polygon class="st322" points="517.775,443.099 520.827,446.207 527.354,443.608 	"/>
	<polygon class="st323" points="520.827,446.207 519.47,449.315 527.354,443.608 	"/>
	<polygon class="st324" points="521.223,437.05 517.775,443.099 527.354,443.608 	"/>
	<polygon class="st325" points="533.486,439.424 527.354,443.608 521.223,437.05 	"/>
	<polygon class="st326" points="507.884,436.402 521.223,437.05 517.775,443.099 	"/>
	<polygon class="st327" points="524.444,430.439 521.223,437.05 507.884,436.402 	"/>
	<polygon class="st328" points="488.188,443.099 479.144,448.186 487.919,450.56 	"/>
	<polygon class="st329" points="496.1,429.196 499.463,439.085 488.188,443.099 	"/>
	<path class="st330" d="M639.283,243.281c0,1.371-1.111,2.482-2.482,2.482c-1.371,0-2.482-1.111-2.482-2.482
		s1.111-2.482,2.482-2.482C638.172,240.799,639.283,241.91,639.283,243.281z"/>
</g>
</svg>
