<?xml version="1.0" encoding="utf-8"?>
<!-- Generator: Adobe Illustrator 22.0.0, SVG Export Plug-In . SVG Version: 6.00 Build 0)  -->
<svg version="1.1" id="Layer_1" xmlns="http://www.w3.org/2000/svg" xmlns:xlink="http://www.w3.org/1999/xlink" x="0px" y="0px"
	 viewBox="0 0 1000 600" style="enable-background:new 0 0 1000 600;" xml:space="preserve">
<style type="text/css">
	.st0{fill:#EBEBEB;}
	.st1{fill:url(#SVGID_1_);}
	.st2{fill:#004F9F;}
	.st3{fill:#8E8E8D;}
	.st4{opacity:0.55;}
	.st5{fill:#FFFFFF;}
	.st6{fill:url(#SVGID_2_);}
	.st7{opacity:0.55;fill:#000087;}
	.st8{fill:#110F3B;}
	.st9{opacity:0.45;}
	.st10{fill:#1A093E;}
	.st11{fill:#00003A;}
	.st12{fill:#8A8989;}
	.st13{opacity:0.5;}
</style>
<path class="st0" d="M472.992,481.42c0,0-5.812,5.812-14.531-3.633s-16.58-24.952-8.29-29.186l27.671,14.642l7.462,3.996
	L472.992,481.42z"/>
<path class="st0" d="M449.675,465.229c0,0-11.557,8.926-17.369,1.661c-5.812-7.265-13.804-16.71-13.804-19.616
	c0-2.906-0.111-9.47,6.483-11.637l18.219,4.372l7.992,3.633l5.812,6.539L449.675,465.229z"/>
<path class="st0" d="M856.961,148.804c0,0-73.379,59.079-169.281,104.85c-95.902,45.771-86.457,45.045-147.485,18.89
	c0,0-7.629-6.902-21.432-3.269c-13.804,3.633-30.514,4.359-40.686,5.086c-10.171,0.727-15.984,9.445-18.89,15.984L627.084,395.29
	l-138.02,73.953c-10.809,0.901-12.44,2.732-15.346,9.997c-2.906,7.265,9.445,9.445,9.445,9.445
	c2.906,2.906,8.718,5.812,20.343,5.086c11.624-0.727,17.073-8.555,17.073-8.555s84.64-76.448,117.771-97.789
	c33.13-21.34,218.975-95.63,218.975-95.63L1000,241.358V55.868L856.961,148.804z"/>
<linearGradient id="SVGID_1_" gradientUnits="userSpaceOnUse" x1="693.0946" y1="440.6375" x2="955.7236" y2="178.0086">
	<stop  offset="0" style="stop-color:#000000;stop-opacity:0.7"/>
	<stop  offset="0.4818" style="stop-color:#000000;stop-opacity:0.1"/>
</linearGradient>
<path class="st1" d="M856.956,248.829L639.282,386.825c35.273-21.9,215.161-93.882,217.988-95.004l0.045-0.022L1000,241.358v-19.073
	L856.956,248.829z"/>
<path class="st2" d="M561.991,380.07c0,0,7.194,15.859,30.741,27.637c21.166,10.586,19.752,6.147,25.565,9.78
	s12.351,7.992,18.163,6.539c5.812-1.453,14.531-10.898,12.351-18.89c-2.18-7.992-9.445-22.522-37.779-37.779
	c-28.335-15.257-92.269-52.31-97.355-56.669s7.265-5.086,21.069-15.984c12.751-10.066-50.13-19.616-75.559-4.359
	c-36.862,22.117-48.677,10.898-68.294,4.359c-19.616-6.539-75.559-41.412-106.799-58.122s-98.808-63.208-98.808-63.208
	l-0.727,163.469c0,0,103.167,34.873,132.228,46.498c29.061,11.624,133.681,64.661,166.375,82.824s55.216,28.335,65.387,25.428
	c10.171-2.906,14.531-14.531,13.078-17.437c-1.453-2.906-12.351-11.624-38.506-19.616c0,0,43.819,10.949,37.087-4.758
	s17.951-2.244,24.682-11.219s15.707-17.951,4.488-26.926C578.16,402.66,561.991,380.07,561.991,380.07z"/>
<path class="st3" d="M536.563,421.482c24.702,15.984,51.22,28.698,59.212,33.057c7.992,4.359-5.812,23.249-15.984,22.522
	c-10.171-0.727-59.939-23.612-59.939-23.612S492.245,428.747,536.563,421.482"/>
<path class="st3" d="M564.171,380.07c10.275,25.687,50.494,35.963,57.759,43.228c7.265,7.265,3.633,21.796-6.539,30.514
	s-46.88-14.476-46.88-14.476s-29.042-16.401-31.948-17.854c-2.906-1.453-8.718-21.069,2.18-29.788
	C549.64,382.976,561.265,372.804,564.171,380.07z"/>
<path class="st3" d="M561.991,380.07c0,0,7.194,15.859,30.741,27.637c21.166,10.586,19.752,6.147,25.565,9.78
	s12.351,7.992,18.163,6.539c5.812-1.453,14.531-10.898,12.351-18.89c-2.18-7.992-9.445-22.522-37.779-37.779
	c-28.335-15.257-92.269-52.31-97.355-56.669s7.265-5.086,21.069-15.984c12.751-10.066-50.13-19.616-75.559-4.359
	c-36.862,22.117-48.677,10.898-68.294,4.359c-19.616-6.539-75.559-41.412-106.799-58.122s-98.808-63.208-98.808-63.208
	l-0.727,163.469c0,0,103.167,34.873,132.228,46.498c29.061,11.624,133.681,64.661,166.375,82.824s55.216,28.335,65.387,25.428
	c10.171-2.906,14.531-14.531,13.078-17.437c-1.453-2.906-12.351-11.624-38.506-19.616c0,0,43.819,10.949,37.087-4.758
	s17.951-2.244,24.682-11.219s15.707-17.951,4.488-26.926C578.16,402.66,561.991,380.07,561.991,380.07z"/>
<path class="st0" d="M423.054,434.652c0,0-19.809,7.536-29.98,2.45c-10.171-5.086-6.09-16.396-1.592-18.369L423.054,434.652z"/>
<path class="st0" d="M519.82,277.006c0,0-52.947,2.261-56.096,5.643c-3.148,3.382-4.537,7.695-4.537,7.695
	s-1.493,9.521-19.584,19.759c0,0-1.823,8.274,5.329,10.939c7.152,2.665,29.03,3.366,35.761-4.768
	c6.731-8.134,10.66-9.778,31.835-7.273l15.145-4.787l18.792-8.414L519.82,277.006z"/>
<g class="st4">
	<g>
		<path class="st5" d="M483.163,488.674c0,0-3.03,1.694-7.448-0.619c-4.418-2.314-3.153-7.133-1.997-8.825
			C473.718,479.229,469.785,486.068,483.163,488.674z"/>
		<path class="st5" d="M454.127,472.465c0,0,4.076,1.005,5.06,0s2.007-1.099,0-7.924c0,0-0.634-2.057-5.06-2.15
			c-4.426-0.094-7.887-3.321-6.717-11.057c0,0-3.567,6.093,3.226,15.692C457.429,476.625,454.127,472.465,454.127,472.465z"/>
		<path class="st5" d="M428.364,461.986c0,0,6.121,1.807,6.191-0.577c0.07-2.384-3.716-6.879-6.661-8.733
			c-2.945-1.855-6.653,2.703-9.392-6.763c0,0,0.053,2.912,2.111,5.845C422.671,454.691,428.364,461.986,428.364,461.986z"/>
		<path class="st5" d="M386.856,426.076c0,0-2.709,7.03,8.331,11.856C395.187,437.932,384.243,436.812,386.856,426.076z"/>
		<path class="st5" d="M439.604,310.091c0,0,8.695-0.094,12.248,0.935c3.553,1.028,9.723-6.077,11.126-7.386
			c1.402-1.309,1.589-5.797-0.748-5.61c-2.337,0.187-3.684-1.151-8.508,2.337C448.898,303.856,446.896,306.071,439.604,310.091z"/>
	</g>
	<path class="st5" d="M474.824,487.497c0,0,8.651,4.59,11.853,3.723l-3.514-2.546L474.824,487.497z"/>
</g>
<polyline class="st3" points="185.287,173.373 0,55.868 0,266.788 184.56,336.841 "/>
<linearGradient id="SVGID_2_" gradientUnits="userSpaceOnUse" x1="9.094947e-13" y1="295.4674" x2="470.9275" y2="295.4674">
	<stop  offset="0" style="stop-color:#000000;stop-opacity:0.1"/>
	<stop  offset="1" style="stop-color:#000000;stop-opacity:0.7"/>
</linearGradient>
<path class="st6" d="M470.927,459.525c-41.197-22.012-128.055-65.744-154.129-76.178c-28.631-11.443-129.02-45.438-132.162-46.492
	L0,266.788L4.862,131.41L470.927,459.525z"/>
<path class="st7" d="M396.784,290.344c0,0,25.43,97.473-59.835,126.338c0,0-48.99-43.444-336.948-139.675V40.535
	C0,40.535,301.795,256.308,396.784,290.344z"/>
<path class="st8" d="M363.874,413.571l-10.254-4.084c55.669-30.067,47.681-95.879,44.226-114.278l11.466,4.218
	C409.312,299.428,423.336,394.499,363.874,413.571z"/>
<path class="st9" d="M639.282,271.649l56.06-31.236c0,0,75.227,34.404,60.361,101.818l-55.255,21.976
	C700.449,364.207,709.379,305.868,639.282,271.649z"/>
<g class="st9">
	<path d="M639.282,271.649c0,0,66.881,25.431,62.06,85.23l-10.084,4.48c4.926,5.566,9.191,2.848,9.191,2.848l0.859-6.767
		c-0.194,2.213-0.461,4.46-0.859,6.767c0,0,213.164-86.376,299.551-109.1V55.868C860.135,150.856,639.282,271.649,639.282,271.649z"
		/>
	<path d="M635.587,278.338l8.853-4.053l-5.158-2.636C639.282,271.649,634.581,274.087,635.587,278.338z"/>
</g>
<path class="st10" d="M366.094,360.228c-0.066,0-0.133-0.007-0.199-0.024c-0.451-0.11-0.729-0.565-0.619-1.017l2.428-9.992
	c0.11-0.449,0.565-0.732,1.016-0.618c0.451,0.11,0.729,0.565,0.619,1.017l-2.428,9.992
	C366.817,359.969,366.473,360.228,366.094,360.228z"/>
<path class="st10" d="M350.25,352.458c-0.066,0-0.133-0.007-0.199-0.024c-0.451-0.11-0.729-0.565-0.619-1.017l2.428-9.992
	c0.111-0.449,0.566-0.732,1.016-0.618c0.451,0.11,0.729,0.565,0.619,1.017l-2.428,9.992
	C350.973,352.199,350.629,352.458,350.25,352.458z"/>
<path class="st10" d="M333.993,344.712c-0.066,0-0.133-0.007-0.199-0.024c-0.451-0.11-0.729-0.565-0.619-1.017l2.427-9.992
	c0.11-0.449,0.566-0.732,1.016-0.618c0.451,0.11,0.729,0.565,0.619,1.017l-2.427,9.992
	C334.717,344.453,334.373,344.712,333.993,344.712z"/>
<path class="st10" d="M316.619,336.547c-0.066,0-0.133-0.007-0.199-0.024c-0.451-0.11-0.729-0.565-0.619-1.017l2.427-9.992
	c0.11-0.449,0.562-0.738,1.016-0.618c0.451,0.11,0.729,0.565,0.619,1.017l-2.427,9.992
	C317.342,336.289,316.998,336.547,316.619,336.547z"/>
<g>
	<g>
		<circle class="st11" cx="363.326" cy="366.976" r="8.525"/>
		<circle class="st12" cx="363.326" cy="366.976" r="5.607"/>
		<circle class="st11" cx="363.326" cy="366.976" r="2.063"/>
	</g>
	<g>
		<circle class="st11" cx="347.069" cy="359.014" r="8.525"/>
		<circle class="st12" cx="347.069" cy="359.014" r="5.607"/>
		<circle class="st11" cx="347.069" cy="359.014" r="2.063"/>
	</g>
	<g>
		<circle class="st11" cx="330.812" cy="351.051" r="8.525"/>
		<circle class="st12" cx="330.812" cy="351.051" r="5.607"/>
		<circle class="st11" cx="330.812" cy="351.051" r="2.063"/>
	</g>
	<g>
		<circle class="st11" cx="314.555" cy="343.089" r="8.525"/>
		<circle class="st12" cx="314.555" cy="343.089" r="5.607"/>
		<circle class="st11" cx="314.555" cy="343.089" r="2.063"/>
	</g>
</g>
<polygon class="st13" points="1000,203.96 856.956,248.829 1000,222.285 "/>
<path class="st9" d="M625.73,433.966c0,0-7.767-11.369-32.997-26.259l25.27,12.828C618.002,420.534,626.179,423.227,625.73,433.966z
	"/>
<path class="st9" d="M596.329,464.941c0,0,5.392-8.176-24.824-23.07l24.27,12.667C595.775,454.539,600.801,456.522,596.329,464.941z
	"/>
<path class="st9" d="M556.489,469.324c0,0,6.51,7.299,4.079,11.394C560.568,480.718,566.232,473.749,556.489,469.324z"/>
<path class="st9" d="M452.872,322.59c0,0,13.097,2.771,28.803-4.662c15.707-7.433,30.854-8.929,30.854-8.929l0,0
	c0,0-21.615-4.495-27.671,2.9C474.523,324.519,452.872,322.59,452.872,322.59z"/>
<path class="st9" d="M391.482,418.733c0,0,26.45,17.574,31.572,15.919L391.482,418.733z"/>
<path class="st9" d="M424.985,435.636c0,0,20.371,9.372,21.673,18.042s-0.866-4.47,3.513-5.077L424.985,435.636z"/>
<path class="st9" d="M477.842,463.244c0,0,3.736,4.784-0.423,9.46c0,0,8.922-4.752,12.994-2.555L477.842,463.244z"/>
<path class="st9" d="M490.413,470.149c0,0,22.99,12.83,22.482,21.18c0,0,4.656-1.643,7.684-6.113L490.413,470.149z"/>
</svg>
