<?xml version="1.0" encoding="utf-8"?>
<!-- Generator: Adobe Illustrator 22.0.0, SVG Export Plug-In . SVG Version: 6.00 Build 0)  -->
<svg version="1.1" id="Layer_1" xmlns="http://www.w3.org/2000/svg" xmlns:xlink="http://www.w3.org/1999/xlink" x="0px" y="0px"
	 viewBox="0 0 1000 600" style="enable-background:new 0 0 1000 600;" xml:space="preserve">
<style type="text/css">
	.st0{fill:#1D1D1B;}
	.st1{fill:none;}
	.st2{fill:#AA1F24;}
	.st3{fill:#841E1A;}
	.st4{fill:#671711;}
	.st5{fill:#8F1B1D;}
	.st6{fill:#351616;}
	.st7{fill:#791617;}
	.st8{fill:#801919;}
	.st9{fill:#9A1F21;}
	.st10{fill:#981F20;}
	.st11{fill:#AC1F25;}
	.st12{fill:#BC2127;}
	.st13{fill:#B92226;}
	.st14{fill:#A81F23;}
	.st15{fill:#911C1D;}
	.st16{fill:#A41E23;}
	.st17{fill:#9D1F21;}
	.st18{fill:#BC2227;}
	.st19{fill:#AE1F25;}
	.st20{fill:#D22228;}
	.st21{fill:#E23939;}
	.st22{fill:#E13232;}
	.st23{fill:#E45150;}
	.st24{fill:#DE393C;}
	.st25{fill:#B92127;}
	.st26{fill:#B62226;}
	.st27{fill:#C02329;}
	.st28{fill:#CE3538;}
	.st29{fill:#A41E22;}
	.st30{fill:#9E2022;}
	.st31{fill:#511619;}
	.st32{fill:#861A1B;}
	.st33{fill:#981E1F;}
	.st34{fill:#AB1F24;}
	.st35{fill:#CE4547;}
	.st36{fill:#C03F3B;}
	.st37{fill:#A61F23;}
	.st38{fill:#E23737;}
	.st39{fill:#E4383A;}
	.st40{fill:#E55252;}
	.st41{fill:#BD2227;}
	.st42{fill:#B02225;}
	.st43{fill:#B12126;}
	.st44{fill:#941F1F;}
	.st45{fill:#9A2122;}
	.st46{fill:#E86C6F;}
	.st47{fill:#EC7277;}
	.st48{fill:#ED7377;}
	.st49{fill:#E45050;}
	.st50{fill:#D62F33;}
	.st51{fill:#841A1A;}
	.st52{fill:#731814;}
	.st53{fill:#BF2127;}
	.st54{fill:#881A1B;}
	.st55{fill:#931E1E;}
	.st56{fill:#C22227;}
	.st57{fill:#DE272C;}
	.st58{fill:#E12E31;}
	.st59{fill:#D72128;}
	.st60{fill:#EA777B;}
	.st61{fill:#E16061;}
	.st62{fill:#EB676A;}
	.st63{fill:#D75656;}
	.st64{fill:#C52128;}
	.st65{fill:#B02125;}
	.st66{fill:#901B1D;}
	.st67{fill:#B22126;}
	.st68{fill:#D92D30;}
	.st69{fill:#CF2028;}
	.st70{fill:#D12229;}
	.st71{fill:#D7212B;}
	.st72{fill:#A91F24;}
	.st73{fill:#6C1114;}
	.st74{fill:#3A1515;}
	.st75{fill:#361516;}
	.st76{fill:#561415;}
	.st77{fill:#631314;}
	.st78{fill:#451615;}
	.st79{fill:#792226;}
	.st80{fill:#3A1411;}
	.st81{fill:#811919;}
	.st82{fill:#351715;}
	.st83{fill:#C44D4D;}
	.st84{fill:#8B1B1C;}
	.st85{fill:#7A1818;}
	.st86{fill:#A31E22;}
	.st87{fill:#A41F23;}
	.st88{fill:#5E1110;}
	.st89{fill:#6F1410;}
	.st90{fill:#A11E22;}
	.st91{fill:#6E1612;}
	.st92{fill:#971D20;}
	.st93{fill:#C12127;}
	.st94{fill:#C82128;}
	.st95{fill:#E12029;}
	.st96{fill:#CB4644;}
	.st97{fill:#2E1413;}
	.st98{fill:#EA7072;}
	.st99{fill:#6E1613;}
	.st100{fill:#9B1F22;}
	.st101{fill:#9E1E22;}
	.st102{fill:#951F22;}
	.st103{fill:#E44144;}
	.st104{fill:#D42028;}
	.st105{fill:#1B1314;}
	.st106{fill:#351516;}
	.st107{fill:#931F1F;}
	.st108{fill:#9D1E22;}
	.st109{fill:#D02028;}
	.st110{fill:#CC2128;}
	.st111{fill:#901A1D;}
	.st112{fill:#B42126;}
	.st113{fill:#AE2F30;}
	.st114{fill:#7C1B18;}
	.st115{fill:#BE2227;}
	.st116{fill:#96211F;}
	.st117{fill:#88191B;}
	.st118{fill:#DE222B;}
	.st119{fill:#8D1A1C;}
	.st120{fill:#A02122;}
	.st121{fill:#9A2021;}
	.st122{fill:#8D1D1D;}
	.st123{fill:#801818;}
	.st124{fill:#661712;}
	.st125{fill:#4D1816;}
	.st126{fill:#3B1416;}
	.st127{fill:#521616;}
	.st128{fill:#160F10;}
	.st129{fill:#411315;}
	.st130{fill:#81191A;}
	.st131{fill:#8C191C;}
	.st132{fill:#87191B;}
	.st133{fill:#381614;}
	.st134{fill:#781316;}
	.st135{fill:#711813;}
	.st136{fill:#9A1D21;}
	.st137{fill:#961D1F;}
	.st138{fill:#701612;}
	.st139{fill:#A81F24;}
	.st140{fill:#AF2025;}
	.st141{fill:#AE2025;}
	.st142{fill:#B82A2C;}
	.st143{fill:#B92C2D;}
	.st144{fill:#B5282B;}
	.st145{fill:#A42528;}
	.st146{fill:#D56868;}
	.st147{fill:#CF5A59;}
	.st148{fill:#E75B5B;}
	.st149{fill:#D4292C;}
	.st150{fill:#EE7376;}
	.st151{fill:#C92E31;}
	.st152{fill:#6B1414;}
	.st153{fill:#661513;}
	.st154{fill:#D02228;}
	.st155{fill:#9B1E21;}
	.st156{fill:#861A1A;}
	.st157{fill:#86191A;}
	.st158{fill:#9E1F22;}
	.st159{fill:#911C1E;}
	.st160{fill:#D43939;}
	.st161{fill:#4C1813;}
	.st162{fill:#B64546;}
	.st163{fill:#CF4E4F;}
	.st164{fill:#721914;}
	.st165{fill:#A02123;}
	.st166{fill:#6A1611;}
	.st167{fill:#A62C2D;}
	.st168{fill:#4C1716;}
	.st169{fill:#9F2122;}
	.st170{fill:#9B1E22;}
	.st171{fill:#7C1618;}
	.st172{fill:#711812;}
	.st173{fill:#140D0F;}
	.st174{fill:#962324;}
	.st175{fill:#481618;}
	.st176{fill:#0F0D0D;}
	.st177{fill:#110D0E;}
	.st178{fill:#8B191C;}
	.st179{fill:#A84B4A;}
	.st180{fill:#A74C4E;}
	.st181{fill:#561412;}
	.st182{fill:#911D1E;}
	.st183{fill:#7A1518;}
	.st184{fill:#521617;}
	.st185{fill:#301515;}
	.st186{fill:#84191A;}
	.st187{fill:#8A1C1B;}
	.st188{fill:#1A1111;}
	.st189{fill:#231112;}
	.st190{fill:#221012;}
	.st191{fill:#571811;}
	.st192{fill:#481812;}
	.st193{fill:#1F1010;}
	.st194{fill:#301717;}
	.st195{fill:#571311;}
	.st196{fill:#3E1314;}
	.st197{fill:#401314;}
	.st198{fill:#230E10;}
	.st199{fill:#4D1619;}
	.st200{fill:#431515;}
	.st201{fill:#2A1110;}
	.st202{fill:#711713;}
	.st203{fill:#3F1313;}
	.st204{fill:#701D13;}
	.st205{fill:#3D1314;}
	.st206{fill:#4A1719;}
	.st207{fill:#843236;}
	.st208{fill:#111016;}
	.st209{fill:#6A1511;}
	.st210{fill:#711712;}
	.st211{fill:#090A0A;}
	.st212{fill:#1E1111;}
</style>
<polygon class="st0" points="0,0 1000,0 0,600 "/>
<rect x="500" class="st1" width="500" height="600"/>
<g>
	<polygon class="st2" points="581.5,472.4 584.6,465.8 555.5,464.2 	"/>
	<polygon class="st3" points="581.5,472.4 606.2,458.2 584.6,465.8 	"/>
	<polygon class="st4" points="584.6,465.8 590.1,461.9 606.2,458.2 	"/>
	<polygon class="st5" points="606.2,458.2 619.4,450.1 622.3,415.1 	"/>
	<polygon class="st6" points="622.3,415.1 627.6,399.9 619.4,450.1 	"/>
	<polygon class="st7" points="555.5,464.2 506.1,458.9 519.9,457 	"/>
	<polygon class="st8" points="519.9,457 490.4,452.5 506.1,458.9 	"/>
	<polygon class="st9" points="606.2,458.2 609.3,417 622.3,415.1 	"/>
	<polygon class="st10" points="609.3,417 627.6,399.9 622.3,415.1 	"/>
	<polygon class="st11" points="606.2,458.2 590.1,461.9 609.3,417 	"/>
	<polygon class="st12" points="590.1,461.9 588.8,435.2 609.3,417 	"/>
	<polygon class="st13" points="590.1,461.9 530,452.5 588.8,435.2 	"/>
	<polygon class="st14" points="530,452.5 519.9,457 555.5,464.2 	"/>
	<polygon class="st15" points="555.5,464.2 584.6,465.8 590.1,461.9 	"/>
	<polygon class="st16" points="530,452.5 555.5,464.2 590.1,461.9 	"/>
	<polygon class="st17" points="490.4,452.5 456.6,432.6 461.7,428 	"/>
	<polygon class="st18" points="461.7,428 497.3,446.9 490.4,452.5 	"/>
	<polygon class="st19" points="497.3,446.9 530,452.5 490.4,452.5 	"/>
	<polygon class="st13" points="490.4,452.5 530,452.5 519.9,457 	"/>
	<polygon class="st20" points="530,452.5 536,427.4 588.8,435.2 	"/>
	<polygon class="st21" points="502.9,403.5 530,452.5 536,427.4 	"/>
	<polygon class="st22" points="502.9,403.5 497.3,446.9 530,452.5 	"/>
	<polygon class="st23" points="536,427.4 540.2,399.9 502.9,403.5 	"/>
	<polygon class="st24" points="540.2,399.9 588.8,435.2 536,427.4 	"/>
	<polygon class="st25" points="609.3,417 606.2,392.6 627.6,399.9 	"/>
	<polygon class="st26" points="606.2,392.6 569.7,405.3 609.3,417 	"/>
	<polygon class="st27" points="569.7,405.3 588.8,435.2 609.3,417 	"/>
	<polygon class="st28" points="540.2,399.9 569.7,405.3 588.8,435.2 	"/>
	<polygon class="st29" points="606.2,392.6 607,337.3 627.6,399.9 	"/>
	<polygon class="st30" points="607,337.3 616.9,335.8 627.6,399.9 	"/>
	<polygon class="st31" points="616.9,335.8 624.4,361.8 627.6,399.9 	"/>
	<polygon class="st5" points="594.9,309.3 607,337.3 616.9,335.8 	"/>
	<polygon class="st32" points="581.5,309.3 594.9,309.3 607,337.3 	"/>
	<polygon class="st33" points="441.8,412 456.6,432.6 461.7,428 	"/>
	<polygon class="st34" points="431.1,407.2 441.8,412 456.6,432.6 	"/>
	<polygon class="st35" points="444.2,420.4 431.1,407.2 422.8,412 	"/>
	<polygon class="st36" points="422.8,412 423.6,387.5 431.1,407.2 	"/>
	<polygon class="st37" points="422.8,412 410.8,379.9 423.6,387.5 	"/>
	<polygon class="st38" points="461.7,428 478.3,395.2 497.3,446.9 	"/>
	<polygon class="st39" points="478.3,395.2 502.9,403.5 497.3,446.9 	"/>
	<polygon class="st40" points="502.9,403.5 529.4,360.4 540.2,399.9 	"/>
	<polygon class="st41" points="529.4,360.4 566.3,383.5 540.2,399.9 	"/>
	<polygon class="st42" points="566.3,383.5 606.2,392.6 569.7,405.3 	"/>
	<polygon class="st19" points="540.2,399.9 566.3,383.5 569.7,405.3 	"/>
	<polygon class="st19" points="606.2,392.6 570.6,356.6 607,337.3 	"/>
	<polygon class="st43" points="529.4,360.4 548.3,345.4 566.3,383.5 	"/>
	<polygon class="st44" points="548.3,345.4 570.6,356.6 566.3,383.5 	"/>
	<polygon class="st45" points="570.6,356.6 566.3,383.5 606.2,392.6 	"/>
	<polygon class="st46" points="478.3,395.2 493.3,340.5 502.9,403.5 	"/>
	<polygon class="st47" points="493.3,340.5 529.4,360.4 502.9,403.5 	"/>
	<polygon class="st48" points="493.3,340.5 518.1,310.3 529.4,360.4 	"/>
	<polygon class="st49" points="518.1,310.3 548.3,345.4 529.4,360.4 	"/>
	<polygon class="st50" points="518.1,310.3 542.3,308.7 548.3,345.4 	"/>
	<polygon class="st51" points="542.3,308.7 554.4,303.2 548.3,345.4 	"/>
	<polygon class="st52" points="570.6,356.6 554.4,303.2 548.3,345.4 	"/>
	<polygon class="st53" points="518.1,310.3 518.7,280.7 542.3,308.7 	"/>
	<polygon class="st41" points="518.7,280.7 534.7,262.1 542.3,308.7 	"/>
	<polygon class="st54" points="534.7,262.1 554.4,303.2 542.3,308.7 	"/>
	<polygon class="st55" points="554.4,303.2 553,271.8 534.7,262.1 	"/>
	<polygon class="st56" points="441.8,412 446,386.9 461.7,428 	"/>
	<polygon class="st57" points="446,386.9 461.7,371.1 478.3,395.2 	"/>
	<polygon class="st58" points="446,386.9 478.3,395.2 461.7,428 	"/>
	<polygon class="st59" points="446,386.9 436,361.5 461.7,371.1 	"/>
	<polygon class="st60" points="461.7,371.1 474.4,337.3 478.3,395.2 	"/>
	<polygon class="st61" points="474.4,337.3 493.3,340.5 478.3,395.2 	"/>
	<polygon class="st62" points="493.3,340.5 487.5,295.5 518.1,310.3 	"/>
	<polygon class="st63" points="474.4,337.3 487.5,295.5 493.3,340.5 	"/>
	<polygon class="st64" points="487.5,295.5 518.7,280.7 518.1,310.3 	"/>
	<polygon class="st64" points="501.5,256.6 487.5,295.5 518.7,280.7 	"/>
	<polygon class="st41" points="501.5,256.6 534.7,262.1 518.7,280.7 	"/>
	<polygon class="st65" points="487.5,295.5 472.5,279.9 501.5,256.6 	"/>
	<polygon class="st66" points="472.5,279.9 442.9,305.8 453,286.6 	"/>
	<polygon class="st67" points="472.5,301.1 472.5,279.9 442.9,305.8 	"/>
	<polygon class="st2" points="472.5,301.1 487.5,295.5 472.5,279.9 	"/>
	<polygon class="st68" points="439.1,339.6 474.4,337.3 461.7,371.1 	"/>
	<polygon class="st69" points="439.1,339.6 436,361.5 461.7,371.1 	"/>
	<polygon class="st34" points="439.1,339.6 448.8,319.9 474.4,337.3 	"/>
	<polygon class="st70" points="448.8,319.9 472.5,301.1 474.4,337.3 	"/>
	<polygon class="st71" points="472.5,301.1 487.5,295.5 474.4,337.3 	"/>
	<polygon class="st72" points="607,337.3 567.7,294.1 570.6,356.6 	"/>
	<polygon class="st73" points="553,271.8 567.7,294.1 570.6,356.6 	"/>
	<polygon class="st74" points="553,271.8 554.4,303.2 570.6,356.6 	"/>
	<polygon class="st75" points="567.7,294.1 578.6,285.4 584.8,293.5 	"/>
	<polygon class="st76" points="567.7,294.1 594.9,309.3 577.9,293.8 	"/>
	<polygon class="st77" points="567.7,294.1 581.5,309.3 594.9,309.3 	"/>
	<polygon class="st78" points="562.6,275.4 586.7,278.9 578.6,285.4 	"/>
	<polygon class="st79" points="578.6,285.4 586.7,278.9 589.5,287 	"/>
	<polygon class="st80" points="578.6,285.4 584.8,293.5 589.5,287 	"/>
	<polygon class="st81" points="562.6,275.4 559.3,251.2 586.7,278.9 	"/>
	<path class="st82" d="M545.1,236.9c0.2,0,15.5,3.9,15.5,3.9l26.2,38L545.1,236.9z"/>
	<polygon class="st83" points="393.5,341.4 416.8,331.8 409.9,375.3 	"/>
	<polygon class="st53" points="393.5,341.4 386.8,359.6 409.9,375.3 	"/>
	<polygon class="st84" points="386.8,359.6 401.7,374.6 409.9,375.3 	"/>
	<polygon class="st85" points="401.7,374.6 409.9,375.3 423.6,387.5 	"/>
	<polygon class="st86" points="410.8,379.9 414.9,404.5 422.8,412 	"/>
	<polygon class="st2" points="409.9,375.3 422.2,355.4 416.8,331.8 	"/>
	<polygon class="st87" points="416.8,331.8 427.7,319.2 439.1,339.6 	"/>
	<polygon class="st18" points="416.8,331.8 422.2,355.4 439.1,339.6 	"/>
	<polygon class="st53" points="422.2,355.4 436,361.5 439.1,339.6 	"/>
	<polygon class="st18" points="436,361.5 425,382 422.2,355.4 	"/>
	<polygon class="st37" points="409.9,375.3 422.2,355.4 425,382 	"/>
	<polygon class="st67" points="425,382 446,386.9 436,361.5 	"/>
	<polygon class="st88" points="409.9,375.3 425,382 423.6,387.5 	"/>
	<polygon class="st89" points="425,382 423.6,387.5 431.1,407.2 	"/>
	<polygon class="st9" points="425,382 446,386.9 441.8,412 	"/>
	<polygon class="st90" points="425,382 431.1,407.2 441.8,412 	"/>
	<polygon class="st91" points="427.7,319.2 393.5,341.4 416.8,331.8 	"/>
	<polygon class="st43" points="386.8,359.6 386.8,331.1 393.5,341.4 	"/>
	<polygon class="st2" points="373.4,323.3 386.8,331.1 386.8,359.6 	"/>
	<polygon class="st37" points="373.4,323.3 376,308.7 386.8,331.1 	"/>
	<polygon class="st92" points="372.4,295.5 376,308.7 373.4,323.3 	"/>
	<polygon class="st93" points="376,308.7 388,301.7 386.8,331.1 	"/>
	<polygon class="st94" points="388,301.7 407,314.5 386.8,331.1 	"/>
	<polygon class="st94" points="386.8,331.1 407,314.5 408.3,331.8 	"/>
	<polygon class="st94" points="386.8,331.1 408.3,331.8 393.5,341.4 	"/>
	<polygon class="st95" points="407,314.5 421.7,307.6 408.3,331.8 	"/>
	<polygon class="st96" points="421.7,307.6 435.5,309.4 408.3,331.8 	"/>
	<polygon class="st97" points="435.5,309.4 427.7,319.2 408.3,331.8 	"/>
	<polygon class="st98" points="421.7,307.6 440.2,281.8 435.5,309.4 	"/>
	<polygon class="st99" points="435.5,309.4 445.2,287.4 440.2,281.8 	"/>
	<polygon class="st100" points="472.5,301.1 442.9,305.8 448.8,319.9 	"/>
	<polygon class="st101" points="439.1,339.6 435.5,309.4 427.7,319.2 	"/>
	<polygon class="st102" points="445.2,287.4 454.5,276.9 440.2,281.8 	"/>
	<polygon class="st103" points="421.7,307.6 399.5,276.8 440.2,281.8 	"/>
	<polygon class="st104" points="388,301.7 399.5,276.8 407,314.5 	"/>
	<polygon class="st59" points="399.5,276.8 407,314.5 421.7,307.6 	"/>
	<polygon class="st105" points="442.9,305.8 435.5,309.4 445.2,287.4 	"/>
	<polygon class="st106" points="445.2,287.4 453,286.6 442.9,305.8 	"/>
	<polygon class="st107" points="435.5,309.4 448.8,319.9 442.9,305.8 	"/>
	<polygon class="st65" points="435.5,309.4 439.1,339.6 448.8,319.9 	"/>
	<polygon class="st53" points="376,308.7 380.1,266.8 388,301.7 	"/>
	<polygon class="st108" points="372.4,295.5 380.1,266.8 376,308.7 	"/>
	<polygon class="st109" points="399.5,276.8 382.4,276.8 388,301.7 	"/>
	<polygon class="st93" points="382.4,276.8 400.9,252.3 399.5,276.8 	"/>
	<polygon class="st53" points="429.9,265.4 399.5,276.8 440.2,281.8 	"/>
	<polygon class="st94" points="429.9,265.4 449.7,265.4 440.2,281.8 	"/>
	<polygon class="st110" points="400.9,252.3 429.9,265.4 399.5,276.8 	"/>
	<polygon class="st16" points="380.1,266.8 400.9,252.3 382.4,276.8 	"/>
	<polygon class="st111" points="380.1,266.8 405.6,238.4 400.9,252.3 	"/>
	<polygon class="st53" points="400.9,252.3 423.6,234.9 429.9,265.4 	"/>
	<polygon class="st53" points="423.6,234.9 446.7,237.6 429.9,265.4 	"/>
	<polygon class="st13" points="446.7,237.6 462.5,257.2 429.9,265.4 	"/>
	<polygon class="st112" points="429.9,265.4 462.5,257.2 449.7,265.4 	"/>
	<polygon class="st113" points="449.7,265.4 454.5,276.9 440.2,281.8 	"/>
	<polygon class="st114" points="449.7,265.4 462.5,257.2 454.5,276.9 	"/>
	<polygon class="st5" points="472.5,279.9 485.5,253.7 501.5,256.6 	"/>
	<polygon class="st115" points="462.5,257.2 469.6,246.7 446.7,237.6 	"/>
	<polygon class="st116" points="405.6,238.4 423.6,234.9 400.9,252.3 	"/>
	<polygon class="st16" points="501.5,256.6 518.1,244.4 534.7,262.1 	"/>
	<polygon class="st117" points="380.1,266.8 391.6,246.2 405.6,238.4 	"/>
	<polygon class="st118" points="405.6,238.4 426.8,231.6 423.6,234.9 	"/>
	<polygon class="st119" points="426.8,231.6 446.7,237.6 423.6,234.9 	"/>
	<polygon class="st120" points="469.6,246.7 474.9,239.4 446.7,237.6 	"/>
	<polygon class="st121" points="426.8,231.6 474.9,239.4 446.7,237.6 	"/>
	<polygon class="st122" points="462.5,257.2 476.3,252.3 469.6,246.7 	"/>
	<polygon class="st123" points="474.9,239.4 476.3,252.3 469.6,246.7 	"/>
	<polygon class="st124" points="476.3,252.3 472.5,279.9 498.4,227.4 	"/>
	<polygon class="st125" points="462.5,257.2 476.3,252.3 454.5,276.9 	"/>
	<polygon class="st126" points="476.3,252.3 472.5,279.9 465.2,275.4 	"/>
	<polygon class="st127" points="465.2,275.4 453,286.6 472.5,279.9 	"/>
	<polygon class="st128" points="445.2,287.4 476.3,252.3 465.2,275.4 	"/>
	<polygon class="st129" points="465.2,275.4 445.2,287.4 453,286.6 	"/>
	<polygon class="st13" points="498.4,227.4 498.4,245 510.8,232.2 	"/>
	<polygon class="st130" points="498.4,227.4 516,216.8 510.8,232.2 	"/>
	<polygon class="st53" points="498.4,245 518.1,244.4 510.8,232.2 	"/>
	<polygon class="st108" points="518.1,244.4 529.1,245.9 534.7,262.1 	"/>
	<polygon class="st131" points="498.4,245 485.5,253.7 498.4,227.4 	"/>
	<polygon class="st132" points="501.5,256.6 493.3,248.4 485.5,253.7 	"/>
	<polygon class="st37" points="493.3,248.4 518.1,244.4 501.5,256.6 	"/>
	<polygon class="st133" points="498.4,245 518.1,244.4 493.3,248.4 	"/>
	<polygon class="st134" points="510.8,232.2 530.3,224.6 516,216.8 	"/>
	<polygon class="st135" points="530.3,224.6 526.4,234.9 510.8,232.2 	"/>
	<polygon class="st136" points="526.4,234.9 518.1,244.4 510.8,232.2 	"/>
	<polygon class="st137" points="526.4,234.9 529.1,245.9 518.1,244.4 	"/>
	<polygon class="st138" points="553,271.8 529.1,245.9 534.7,262.1 	"/>
	<polygon class="st139" points="391.6,246.2 406.2,166.1 399.5,241.8 	"/>
	<polygon class="st140" points="399.5,241.8 407.4,227.4 406.2,166.1 	"/>
	<polygon class="st141" points="406.2,166.1 416.2,157.1 406.8,196.6 	"/>
	<polygon class="st115" points="407.4,227.4 417.5,183.9 406.8,196.6 	"/>
	<polygon class="st94" points="416.2,157.1 417.5,183.9 406.8,196.6 	"/>
	<polygon class="st142" points="407.4,227.4 405.6,238.4 399.5,241.8 	"/>
	<polygon class="st143" points="407.4,227.4 411.4,236.6 405.6,238.4 	"/>
	<polygon class="st144" points="407.4,227.4 419.1,226.9 411.4,236.6 	"/>
	<polygon class="st145" points="419.1,226.9 426.8,231.6 411.4,236.6 	"/>
	<polygon class="st146" points="426.1,182 407.4,227.4 419.1,226.9 	"/>
	<polygon class="st147" points="417.5,183.9 407.4,227.4 426.1,182 	"/>
	<polygon class="st148" points="417.5,183.9 453.4,160.3 416.2,157.1 	"/>
	<polygon class="st26" points="406.2,166.1 407.4,131.1 416.2,157.1 	"/>
	<polygon class="st149" points="407.4,131.1 419.1,131.1 416.2,157.1 	"/>
	<polygon class="st150" points="419.1,131.1 429.7,155.2 416.2,157.1 	"/>
	<polygon class="st139" points="429.7,155.2 453.4,160.3 416.2,157.1 	"/>
	<polygon class="st151" points="419.1,131.1 428.3,132.1 429.7,155.2 	"/>
	<polygon class="st152" points="428.3,132.1 432.8,128.5 440.4,151.6 	"/>
	<polygon class="st153" points="440.4,151.6 429.7,155.2 428.3,132.1 	"/>
	<polygon class="st154" points="463.7,143.6 453.4,160.3 429.7,155.2 	"/>
	<polygon class="st155" points="419.1,226.9 436.4,190.3 426.1,182 	"/>
	<polygon class="st5" points="426.1,182 453.4,160.3 417.5,183.9 	"/>
	<polygon class="st156" points="419.1,226.9 436.4,190.3 429.9,220.3 	"/>
	<polygon class="st157" points="419.1,226.9 429.9,220.3 426.8,231.6 	"/>
	<polygon class="st158" points="436.4,190.3 456,171.4 426.1,182 	"/>
	<polygon class="st159" points="456,171.4 453.4,160.3 426.1,182 	"/>
	<polygon class="st32" points="453.4,160.3 476.1,151.6 456,171.4 	"/>
	<polygon class="st160" points="463.7,143.6 476.1,151.6 453.4,160.3 	"/>
	<polygon class="st161" points="440.4,151.6 436.7,140.3 442.6,131.1 	"/>
	<polygon class="st162" points="442.6,131.1 454.1,146.9 440.4,151.6 	"/>
	<polygon class="st163" points="442.6,131.1 453.4,132.1 454.1,146.9 	"/>
	<polygon class="st87" points="453.4,132.1 463.7,143.6 454.1,146.9 	"/>
	<polygon class="st164" points="453.4,132.1 457.5,131.7 463.7,143.6 	"/>
	<polygon class="st51" points="456,171.4 476.9,164.9 476.1,151.6 	"/>
	<polygon class="st165" points="459.5,200.8 457.4,236.6 468.9,238.4 	"/>
	<polygon class="st166" points="468.9,238.4 481.2,203.9 482.5,245.3 476.3,252.3 474.9,239.4 	"/>
	<polygon class="st167" points="437.3,213.8 459.5,200.8 457.4,236.6 444.3,234.5 	"/>
	<polygon class="st168" points="437.3,213.8 435.5,233 444.3,234.5 	"/>
	<polygon class="st169" points="459.5,200.8 470.3,169 489.2,181.4 	"/>
	<polygon class="st137" points="459.5,200.8 489.2,181.4 468.9,238.4 	"/>
	<polygon class="st170" points="437.3,213.8 456,178 459.5,200.8 	"/>
	<polygon class="st121" points="456,178 470.3,169 459.5,200.8 	"/>
	<polygon class="st171" points="482.5,245.3 487.8,239.4 482.1,231.7 	"/>
	<polygon class="st172" points="481.2,203.9 502,183.9 489.2,181.4 	"/>
	<polygon class="st173" points="436.4,190.3 437.3,213.8 450.6,181.4 	"/>
	<polygon class="st174" points="436.4,190.3 476.9,164.9 456,171.4 	"/>
	<polygon class="st175" points="450.6,181.4 456,178 437.3,213.8 	"/>
	<polygon class="st176" points="436.4,190.3 437.3,213.8 426.8,231.6 429.9,220.3 	"/>
	<polygon class="st177" points="426.8,231.6 437.3,213.8 435.5,233 	"/>
	<polygon class="st81" points="470.3,169 489.2,181.4 476.9,164.9 	"/>
	<polygon class="st178" points="476.9,164.9 485,166.9 489.2,181.4 	"/>
	<polygon class="st179" points="476.9,164.9 475.2,139 485,166.9 	"/>
	<polygon class="st180" points="475.2,139 463.7,143.6 476.1,151.6 	"/>
	<polygon class="st181" points="475.2,139 482.4,142.7 485,166.9 	"/>
	<polygon class="st182" points="482.4,142.7 485,166.9 487.4,146.1 	"/>
	<polygon class="st183" points="487.4,146.1 491.1,169 485,166.9 	"/>
	<polygon class="st184" points="485,166.9 489.2,181.4 502,183.9 	"/>
	<polygon class="st185" points="491.1,169 502,183.9 485,166.9 	"/>
	<polygon class="st186" points="524.9,221.6 544.2,221.6 542.1,231.3 	"/>
	<polygon class="st187" points="562.6,275.4 545.1,236.9 546.7,251.5 	"/>
	<polygon class="st16" points="545.1,236.9 559.3,251.2 562.6,275.4 	"/>
	<polygon class="st188" points="502,183.9 504.6,196.8 494.6,220.5 	"/>
	<polygon class="st189" points="502,183.9 481.6,217.9 493.6,206.7 	"/>
	<polygon class="st190" points="493.6,206.7 494.6,220.5 502,183.9 	"/>
	<polygon class="st191" points="481.2,203.9 502,183.9 481.3,207.7 	"/>
	<polygon class="st192" points="481.3,207.7 481.6,217.9 502,183.9 	"/>
	<polygon class="st193" points="494.6,220.5 481.9,226.7 481.6,217.9 	"/>
	<polygon class="st194" points="481.6,217.9 493.6,206.7 494.6,220.5 	"/>
	<polygon class="st195" points="498.4,227.4 502,219.6 516,216.8 	"/>
	<polygon class="st196" points="502,219.6 481.9,226.7 498.4,227.4 	"/>
	<polygon class="st197" points="494.6,220.5 502,219.6 481.9,226.7 	"/>
	<polygon class="st189" points="494.6,220.5 504.6,196.8 497.8,220.1 	"/>
	<polygon class="st198" points="481.9,226.7 498.4,227.4 487.8,239.4 482.1,231.7 	"/>
	<polygon class="st199" points="530.3,224.6 537.5,255 526.4,234.9 	"/>
	<polygon class="st200" points="526.4,234.9 529.1,245.9 537.5,255 	"/>
	<polygon class="st201" points="542.1,231.3 550.7,236.2 544.2,221.6 	"/>
	<polygon class="st202" points="537.5,255 543.2,249.3 530.3,224.6 	"/>
	<polygon class="st203" points="545.1,236.9 543.2,249.3 530.3,224.6 	"/>
	<polygon class="st204" points="530.3,224.6 550.7,236.2 545.1,236.9 	"/>
	<polygon class="st205" points="543.2,249.3 546.7,262.1 537.5,255 	"/>
	<polygon class="st206" points="546.7,262.1 553,271.8 537.5,255 	"/>
	<polygon class="st207" points="546.7,262.1 555.2,264.3 559.7,279.9 	"/>
	<polygon class="st208" points="553,271.8 559.7,279.9 567.7,294.1 	"/>
	<polygon class="st209" points="546.7,262.1 553,271.8 559.7,279.9 	"/>
	<polygon class="st210" points="567.7,294.1 564.2,288.1 578.6,285.4 	"/>
	<polygon class="st208" points="562.6,275.4 555.2,264.3 559.7,279.9 564.2,288.1 	"/>
	<polygon class="st211" points="562.6,275.4 564.2,288.1 578.6,285.4 	"/>
	<polygon class="st211" points="546.7,251.5 545.1,236.9 543.2,249.3 546.7,262.1 555.2,264.3 	"/>
	<polygon class="st212" points="550.7,236.2 545.1,236.9 551.3,238.5 	"/>
	<polygon class="st153" points="407.4,131.1 417.5,129.6 419.1,131.1 	"/>
	<polygon class="st152" points="417.5,129.6 424.8,127.6 428.3,132.1 	"/>
	<polygon class="st161" points="417.5,129.6 419.1,131.1 428.3,132.1 	"/>
	<polygon class="st161" points="424.8,127.6 432.8,128.5 428.3,132.1 	"/>
	<polygon class="st161" points="442.6,131.1 457.5,131.7 453.4,132.1 	"/>
</g>
</svg>
