<?xml version="1.0" encoding="utf-8"?>
<!-- Generator: Adobe Illustrator 22.0.0, SVG Export Plug-In . SVG Version: 6.00 Build 0)  -->
<svg version="1.1" id="Layer_1" xmlns="http://www.w3.org/2000/svg" xmlns:xlink="http://www.w3.org/1999/xlink" x="0px" y="0px"
	 viewBox="0 0 1000 500" style="enable-background:new 0 0 1000 500;" xml:space="preserve">
<style type="text/css">
	.st0{fill:none;}
	.st1{fill:#AA1F24;}
	.st2{fill:#841E1A;}
	.st3{fill:#671711;}
	.st4{fill:#8F1B1D;}
	.st5{fill:#351616;}
	.st6{fill:#791617;}
	.st7{fill:#801919;}
	.st8{fill:#9A1F21;}
	.st9{fill:#981F20;}
	.st10{fill:#AC1F25;}
	.st11{fill:#BC2127;}
	.st12{fill:#B92226;}
	.st13{fill:#A81F23;}
	.st14{fill:#911C1D;}
	.st15{fill:#A41E23;}
	.st16{fill:#9D1F21;}
	.st17{fill:#BC2227;}
	.st18{fill:#AE1F25;}
	.st19{fill:#D22228;}
	.st20{fill:#E23939;}
	.st21{fill:#E13232;}
	.st22{fill:#E45150;}
	.st23{fill:#DE393C;}
	.st24{fill:#B92127;}
	.st25{fill:#B62226;}
	.st26{fill:#C02329;}
	.st27{fill:#CE3538;}
	.st28{fill:#A41E22;}
	.st29{fill:#9E2022;}
	.st30{fill:#511619;}
	.st31{fill:#861A1B;}
	.st32{fill:#981E1F;}
	.st33{fill:#AB1F24;}
	.st34{fill:#CE4547;}
	.st35{fill:#C03F3B;}
	.st36{fill:#A61F23;}
	.st37{fill:#E23737;}
	.st38{fill:#E4383A;}
	.st39{fill:#E55252;}
	.st40{fill:#BD2227;}
	.st41{fill:#B02225;}
	.st42{fill:#B12126;}
	.st43{fill:#941F1F;}
	.st44{fill:#9A2122;}
	.st45{fill:#E86C6F;}
	.st46{fill:#EC7277;}
	.st47{fill:#ED7377;}
	.st48{fill:#E45050;}
	.st49{fill:#D62F33;}
	.st50{fill:#841A1A;}
	.st51{fill:#731814;}
	.st52{fill:#BF2127;}
	.st53{fill:#881A1B;}
	.st54{fill:#931E1E;}
	.st55{fill:#C22227;}
	.st56{fill:#DE272C;}
	.st57{fill:#E12E31;}
	.st58{fill:#D72128;}
	.st59{fill:#EA777B;}
	.st60{fill:#E16061;}
	.st61{fill:#EB676A;}
	.st62{fill:#D75656;}
	.st63{fill:#C52128;}
	.st64{fill:#B02125;}
	.st65{fill:#901B1D;}
	.st66{fill:#B22126;}
	.st67{fill:#D92D30;}
	.st68{fill:#CF2028;}
	.st69{fill:#D12229;}
	.st70{fill:#D7212B;}
	.st71{fill:#A91F24;}
	.st72{fill:#6C1114;}
	.st73{fill:#3A1515;}
	.st74{fill:#361516;}
	.st75{fill:#561415;}
	.st76{fill:#631314;}
	.st77{fill:#451615;}
	.st78{fill:#792226;}
	.st79{fill:#3A1411;}
	.st80{fill:#811919;}
	.st81{fill:#351715;}
	.st82{fill:#C44D4D;}
	.st83{fill:#8B1B1C;}
	.st84{fill:#7A1818;}
	.st85{fill:#A31E22;}
	.st86{fill:#A41F23;}
	.st87{fill:#5E1110;}
	.st88{fill:#6F1410;}
	.st89{fill:#A11E22;}
	.st90{fill:#6E1612;}
	.st91{fill:#971D20;}
	.st92{fill:#C12127;}
	.st93{fill:#C82128;}
	.st94{fill:#E12029;}
	.st95{fill:#CB4644;}
	.st96{fill:#2E1413;}
	.st97{fill:#EA7072;}
	.st98{fill:#6E1613;}
	.st99{fill:#9B1F22;}
	.st100{fill:#9E1E22;}
	.st101{fill:#951F22;}
	.st102{fill:#E44144;}
	.st103{fill:#D42028;}
	.st104{fill:#1B1314;}
	.st105{fill:#351516;}
	.st106{fill:#931F1F;}
	.st107{fill:#9D1E22;}
	.st108{fill:#D02028;}
	.st109{fill:#CC2128;}
	.st110{fill:#901A1D;}
	.st111{fill:#B42126;}
	.st112{fill:#AE2F30;}
	.st113{fill:#7C1B18;}
	.st114{fill:#BE2227;}
	.st115{fill:#96211F;}
	.st116{fill:#88191B;}
	.st117{fill:#DE222B;}
	.st118{fill:#8D1A1C;}
	.st119{fill:#A02122;}
	.st120{fill:#9A2021;}
	.st121{fill:#8D1D1D;}
	.st122{fill:#801818;}
	.st123{fill:#661712;}
	.st124{fill:#4D1816;}
	.st125{fill:#3B1416;}
	.st126{fill:#521616;}
	.st127{fill:#160F10;}
	.st128{fill:#411315;}
	.st129{fill:#81191A;}
	.st130{fill:#8C191C;}
	.st131{fill:#87191B;}
	.st132{fill:#381614;}
	.st133{fill:#781316;}
	.st134{fill:#711813;}
	.st135{fill:#9A1D21;}
	.st136{fill:#961D1F;}
	.st137{fill:#701612;}
	.st138{fill:#A81F24;}
	.st139{fill:#AF2025;}
	.st140{fill:#AE2025;}
	.st141{fill:#B82A2C;}
	.st142{fill:#B92C2D;}
	.st143{fill:#B5282B;}
	.st144{fill:#A42528;}
	.st145{fill:#D56868;}
	.st146{fill:#CF5A59;}
	.st147{fill:#E75B5B;}
	.st148{fill:#D4292C;}
	.st149{fill:#EE7376;}
	.st150{fill:#C92E31;}
	.st151{fill:#6B1414;}
	.st152{fill:#661513;}
	.st153{fill:#D02228;}
	.st154{fill:#9B1E21;}
	.st155{fill:#861A1A;}
	.st156{fill:#86191A;}
	.st157{fill:#9E1F22;}
	.st158{fill:#911C1E;}
	.st159{fill:#D43939;}
	.st160{fill:#4C1813;}
	.st161{fill:#B64546;}
	.st162{fill:#CF4E4F;}
	.st163{fill:#721914;}
	.st164{fill:#A02123;}
	.st165{fill:#6A1611;}
	.st166{fill:#A62C2D;}
	.st167{fill:#4C1716;}
	.st168{fill:#9F2122;}
	.st169{fill:#9B1E22;}
	.st170{fill:#7C1618;}
	.st171{fill:#711812;}
	.st172{fill:#140D0F;}
	.st173{fill:#962324;}
	.st174{fill:#481618;}
	.st175{fill:#0F0D0D;}
	.st176{fill:#110D0E;}
	.st177{fill:#8B191C;}
	.st178{fill:#A84B4A;}
	.st179{fill:#A74C4E;}
	.st180{fill:#561412;}
	.st181{fill:#911D1E;}
	.st182{fill:#7A1518;}
	.st183{fill:#521617;}
	.st184{fill:#301515;}
	.st185{fill:#84191A;}
	.st186{fill:#8A1C1B;}
	.st187{fill:#1A1111;}
	.st188{fill:#231112;}
	.st189{fill:#221012;}
	.st190{fill:#571811;}
	.st191{fill:#481812;}
	.st192{fill:#1F1010;}
	.st193{fill:#301717;}
	.st194{fill:#571311;}
	.st195{fill:#3E1314;}
	.st196{fill:#401314;}
	.st197{fill:#230E10;}
	.st198{fill:#4D1619;}
	.st199{fill:#431515;}
	.st200{fill:#2A1110;}
	.st201{fill:#711713;}
	.st202{fill:#3F1313;}
	.st203{fill:#701D13;}
	.st204{fill:#3D1314;}
	.st205{fill:#4A1719;}
	.st206{fill:#843236;}
	.st207{fill:#111016;}
	.st208{fill:#6A1511;}
	.st209{fill:#711712;}
	.st210{fill:#090A0A;}
	.st211{fill:#1E1111;}
</style>
<rect class="st0" width="1000" height="500"/>
<g>
	<polygon class="st1" points="631.114,469.25 634.75,461.382 600.239,459.475 	"/>
	<polygon class="st2" points="631.114,469.25 660.44,452.322 634.75,461.382 	"/>
	<polygon class="st3" points="634.75,461.382 641.247,456.733 660.44,452.322 	"/>
	<polygon class="st4" points="660.44,452.322 676.057,442.746 679.474,401.26 	"/>
	<polygon class="st5" points="679.474,401.26 685.832,383.18 676.057,442.746 	"/>
	<polygon class="st6" points="600.239,459.475 541.587,453.157 557.959,450.932 	"/>
	<polygon class="st7" points="557.959,450.932 522.99,445.607 541.587,453.157 	"/>
	<polygon class="st8" points="660.44,452.322 664.136,403.446 679.474,401.26 	"/>
	<polygon class="st9" points="664.136,403.446 685.832,383.18 679.474,401.26 	"/>
	<polygon class="st10" points="660.44,452.322 641.247,456.733 664.136,403.446 	"/>
	<polygon class="st11" points="641.247,456.733 639.737,425.022 664.136,403.446 	"/>
	<polygon class="st12" points="641.247,456.733 569.959,445.607 639.737,425.022 	"/>
	<polygon class="st13" points="569.959,445.607 557.959,450.932 600.239,459.475 	"/>
	<polygon class="st14" points="600.239,459.475 634.75,461.382 641.247,456.733 	"/>
	<polygon class="st15" points="569.959,445.607 600.239,459.475 641.247,456.733 	"/>
	<polygon class="st16" points="522.99,445.607 482.816,422.043 488.896,416.559 	"/>
	<polygon class="st17" points="488.896,416.559 531.216,438.971 522.99,445.607 	"/>
	<polygon class="st18" points="531.216,438.971 569.959,445.607 522.99,445.607 	"/>
	<polygon class="st12" points="522.99,445.607 569.959,445.607 557.959,450.932 	"/>
	<polygon class="st19" points="569.959,445.607 577.112,415.844 639.737,425.022 	"/>
	<polygon class="st20" points="537.853,387.511 569.959,445.607 577.112,415.844 	"/>
	<polygon class="st21" points="537.853,387.511 531.216,438.971 569.959,445.607 	"/>
	<polygon class="st22" points="577.112,415.844 582.119,383.18 537.853,387.511 	"/>
	<polygon class="st23" points="582.119,383.18 639.737,425.022 577.112,415.844 	"/>
	<polygon class="st24" points="664.136,403.446 660.44,374.478 685.832,383.18 	"/>
	<polygon class="st25" points="660.44,374.478 617.048,389.617 664.136,403.446 	"/>
	<polygon class="st26" points="617.048,389.617 639.737,425.022 664.136,403.446 	"/>
	<polygon class="st27" points="582.119,383.18 617.048,389.617 639.737,425.022 	"/>
	<polygon class="st28" points="660.44,374.478 661.354,308.833 685.832,383.18 	"/>
	<polygon class="st29" points="661.354,308.833 673.136,307.084 685.832,383.18 	"/>
	<polygon class="st30" points="673.136,307.084 682.017,337.92 685.832,383.18 	"/>
	<polygon class="st4" points="647.049,275.614 661.354,308.833 673.136,307.084 	"/>
	<polygon class="st31" points="631.05,275.614 647.049,275.614 661.354,308.833 	"/>
	<polygon class="st32" points="465.292,397.525 482.816,422.043 488.896,416.559 	"/>
	<polygon class="st33" points="452.577,391.882 465.292,397.525 482.816,422.043 	"/>
	<polygon class="st34" points="468.194,407.458 452.577,391.882 442.722,397.525 	"/>
	<polygon class="st35" points="442.722,397.525 443.755,368.517 452.577,391.882 	"/>
	<polygon class="st36" points="442.722,397.525 428.46,359.493 443.755,368.517 	"/>
	<polygon class="st37" points="488.896,416.559 508.606,377.657 531.216,438.971 	"/>
	<polygon class="st38" points="508.606,377.657 537.853,387.511 531.216,438.971 	"/>
	<polygon class="st39" points="537.853,387.511 569.323,336.33 582.119,383.18 	"/>
	<polygon class="st40" points="569.323,336.33 613.033,363.667 582.119,383.18 	"/>
	<polygon class="st41" points="613.033,363.667 660.44,374.478 617.048,389.617 	"/>
	<polygon class="st18" points="582.119,383.18 613.033,363.667 617.048,389.617 	"/>
	<polygon class="st18" points="660.44,374.478 618.12,331.8 661.354,308.833 	"/>
	<polygon class="st42" points="569.323,336.33 591.656,318.449 613.033,363.667 	"/>
	<polygon class="st43" points="591.656,318.449 618.12,331.8 613.033,363.667 	"/>
	<polygon class="st44" points="618.12,331.8 613.033,363.667 660.44,374.478 	"/>
	<polygon class="st45" points="508.606,377.657 526.408,312.645 537.853,387.511 	"/>
	<polygon class="st46" points="526.408,312.645 569.323,336.33 537.853,387.511 	"/>
	<polygon class="st47" points="526.408,312.645 555.813,276.883 569.323,336.33 	"/>
	<polygon class="st48" points="555.813,276.883 591.656,318.449 569.323,336.33 	"/>
	<polygon class="st49" points="555.813,276.883 584.583,274.976 591.656,318.449 	"/>
	<polygon class="st50" points="584.583,274.976 598.888,268.46 591.656,318.449 	"/>
	<polygon class="st51" points="618.12,331.8 598.888,268.46 591.656,318.449 	"/>
	<polygon class="st52" points="555.813,276.883 556.608,241.757 584.583,274.976 	"/>
	<polygon class="st40" points="556.608,241.757 575.523,219.663 584.583,274.976 	"/>
	<polygon class="st53" points="575.523,219.663 598.888,268.46 584.583,274.976 	"/>
	<polygon class="st54" points="598.888,268.46 597.259,231.186 575.523,219.663 	"/>
	<polygon class="st55" points="465.292,397.525 470.299,367.802 488.896,416.559 	"/>
	<polygon class="st56" points="470.299,367.802 488.896,349.046 508.606,377.657 	"/>
	<polygon class="st57" points="470.299,367.802 508.606,377.657 488.896,416.559 	"/>
	<polygon class="st58" points="470.299,367.802 458.378,337.602 488.896,349.046 	"/>
	<polygon class="st59" points="488.896,349.046 503.996,308.833 508.606,377.657 	"/>
	<polygon class="st60" points="503.996,308.833 526.408,312.645 508.606,377.657 	"/>
	<polygon class="st61" points="526.408,312.645 519.573,259.32 555.813,276.883 	"/>
	<polygon class="st62" points="503.996,308.833 519.573,259.32 526.408,312.645 	"/>
	<polygon class="st63" points="519.573,259.32 556.608,241.757 555.813,276.883 	"/>
	<polygon class="st63" points="536.104,213.148 519.573,259.32 556.608,241.757 	"/>
	<polygon class="st40" points="536.104,213.148 575.523,219.663 556.608,241.757 	"/>
	<polygon class="st64" points="519.573,259.32 501.771,240.806 536.104,213.148 	"/>
	<polygon class="st65" points="501.771,240.806 466.644,271.482 478.565,248.753 	"/>
	<polygon class="st66" points="501.771,265.92 501.771,240.806 466.644,271.482 	"/>
	<polygon class="st1" points="501.771,265.92 519.573,259.32 501.771,240.806 	"/>
	<polygon class="st67" points="462.074,311.654 503.996,308.833 488.896,349.046 	"/>
	<polygon class="st68" points="462.074,311.654 458.378,337.602 488.896,349.046 	"/>
	<polygon class="st33" points="462.074,311.654 473.637,288.25 503.996,308.833 	"/>
	<polygon class="st69" points="473.637,288.25 501.771,265.92 503.996,308.833 	"/>
	<polygon class="st70" points="501.771,265.92 519.573,259.32 503.996,308.833 	"/>
	<polygon class="st71" points="661.354,308.833 614.663,257.651 618.12,331.8 	"/>
	<polygon class="st72" points="597.259,231.186 614.663,257.651 618.12,331.8 	"/>
	<polygon class="st73" points="597.259,231.186 598.888,268.46 618.12,331.8 	"/>
	<polygon class="st74" points="614.663,257.651 627.657,247.319 635.048,256.936 	"/>
	<polygon class="st75" points="614.663,257.651 647.049,275.614 626.777,257.226 	"/>
	<polygon class="st76" points="614.663,257.651 631.05,275.614 647.049,275.614 	"/>
	<polygon class="st77" points="608.703,235.478 637.313,239.531 627.657,247.319 	"/>
	<polygon class="st78" points="627.657,247.319 637.313,239.531 640.532,249.187 	"/>
	<polygon class="st79" points="627.657,247.319 635.048,256.936 640.532,249.187 	"/>
	<polygon class="st80" points="608.703,235.478 604.721,206.756 637.313,239.531 	"/>
	<path class="st81" d="M587.841,189.781c0.238,0,18.358,4.61,18.358,4.61l31.114,45.141L587.841,189.781z"/>
	<polygon class="st82" points="407.992,313.76 435.629,302.316 427.503,353.973 	"/>
	<polygon class="st52" points="407.992,313.76 400.044,335.377 427.503,353.973 	"/>
	<polygon class="st83" points="400.044,335.377 417.688,353.139 427.503,353.973 	"/>
	<polygon class="st84" points="417.688,353.139 427.503,353.973 443.755,368.517 	"/>
	<polygon class="st85" points="428.46,359.494 433.423,388.623 442.722,397.525 	"/>
	<polygon class="st1" points="427.503,353.973 442.007,330.35 435.629,302.316 	"/>
	<polygon class="st86" points="435.629,302.316 448.524,287.376 462.074,311.654 	"/>
	<polygon class="st17" points="435.629,302.316 442.007,330.35 462.074,311.654 	"/>
	<polygon class="st52" points="442.007,330.35 458.378,337.602 462.074,311.654 	"/>
	<polygon class="st17" points="458.378,337.602 445.384,361.92 442.007,330.35 	"/>
	<polygon class="st36" points="427.503,353.973 442.007,330.35 445.384,361.92 	"/>
	<polygon class="st66" points="445.384,361.92 470.299,367.802 458.378,337.602 	"/>
	<polygon class="st87" points="427.503,353.973 445.384,361.92 443.755,368.517 	"/>
	<polygon class="st88" points="445.384,361.92 443.755,368.517 452.577,391.882 	"/>
	<polygon class="st8" points="445.384,361.92 470.299,367.802 465.292,397.525 	"/>
	<polygon class="st89" points="445.384,361.92 452.577,391.882 465.292,397.525 	"/>
	<polygon class="st90" points="448.524,287.376 407.992,313.76 435.629,302.316 	"/>
	<polygon class="st42" points="400.044,335.377 400.044,301.523 407.992,313.76 	"/>
	<polygon class="st1" points="384.148,292.223 400.044,301.523 400.044,335.377 	"/>
	<polygon class="st36" points="384.148,292.223 387.168,274.976 400.044,301.523 	"/>
	<polygon class="st91" points="382.918,259.32 387.168,274.976 384.148,292.223 	"/>
	<polygon class="st92" points="387.168,274.976 401.515,266.592 400.044,301.523 	"/>
	<polygon class="st93" points="401.515,266.592 424.046,281.851 400.044,301.523 	"/>
	<polygon class="st93" points="400.044,301.523 424.046,281.851 425.573,302.316 	"/>
	<polygon class="st93" points="400.044,301.523 425.573,302.316 407.992,313.76 	"/>
	<polygon class="st94" points="424.046,281.851 441.45,273.625 425.573,302.316 	"/>
	<polygon class="st95" points="441.45,273.625 457.782,275.771 425.573,302.316 	"/>
	<polygon class="st96" points="457.782,275.771 448.524,287.376 425.573,302.316 	"/>
	<polygon class="st97" points="441.45,273.625 463.385,242.988 457.782,275.771 	"/>
	<polygon class="st98" points="457.782,275.771 469.346,249.664 463.385,242.988 	"/>
	<polygon class="st99" points="501.771,265.92 466.644,271.482 473.637,288.25 	"/>
	<polygon class="st100" points="462.074,311.654 457.782,275.771 448.524,287.376 	"/>
	<polygon class="st101" points="469.346,249.664 480.365,237.231 463.385,242.988 	"/>
	<polygon class="st102" points="441.45,273.625 415.145,237.149 463.385,242.988 	"/>
	<polygon class="st103" points="401.515,266.592 415.145,237.149 424.046,281.851 	"/>
	<polygon class="st58" points="415.145,237.149 424.046,281.851 441.45,273.625 	"/>
	<polygon class="st104" points="466.644,271.482 457.782,275.771 469.346,249.664 	"/>
	<polygon class="st105" points="469.346,249.664 478.565,248.753 466.644,271.482 	"/>
	<polygon class="st106" points="457.782,275.771 473.637,288.25 466.644,271.482 	"/>
	<polygon class="st64" points="457.782,275.771 462.074,311.654 473.637,288.25 	"/>
	<polygon class="st52" points="387.168,274.976 392.096,225.226 401.515,266.592 	"/>
	<polygon class="st107" points="382.918,259.32 392.096,225.226 387.168,274.976 	"/>
	<polygon class="st108" points="415.145,237.149 394.811,237.149 401.515,266.592 	"/>
	<polygon class="st92" points="394.811,237.149 416.774,208.06 415.145,237.149 	"/>
	<polygon class="st52" points="451.226,223.557 415.145,237.149 463.385,242.988 	"/>
	<polygon class="st93" points="451.226,223.557 474.71,223.557 463.385,242.988 	"/>
	<polygon class="st109" points="416.774,208.06 451.226,223.557 415.145,237.149 	"/>
	<polygon class="st15" points="392.096,225.226 416.774,208.06 394.811,237.149 	"/>
	<polygon class="st110" points="392.096,225.226 422.377,191.529 416.774,208.06 	"/>
	<polygon class="st52" points="416.774,208.06 443.715,187.317 451.226,223.557 	"/>
	<polygon class="st52" points="443.715,187.317 471.134,190.536 451.226,223.557 	"/>
	<polygon class="st12" points="471.134,190.536 489.85,213.782 451.226,223.557 	"/>
	<polygon class="st111" points="451.226,223.557 489.85,213.782 474.71,223.557 	"/>
	<polygon class="st112" points="474.71,223.557 480.365,237.231 463.385,242.988 	"/>
	<polygon class="st113" points="474.71,223.557 489.85,213.782 480.365,237.231 	"/>
	<polygon class="st4" points="501.771,240.806 517.149,209.651 536.104,213.148 	"/>
	<polygon class="st114" points="489.85,213.782 498.273,201.385 471.134,190.536 	"/>
	<polygon class="st115" points="422.377,191.529 443.715,187.317 416.774,208.06 	"/>
	<polygon class="st15" points="536.104,213.148 555.813,198.605 575.523,219.663 	"/>
	<polygon class="st116" points="392.096,225.226 405.792,200.788 422.377,191.529 	"/>
	<polygon class="st117" points="422.377,191.529 447.53,183.502 443.715,187.317 	"/>
	<polygon class="st118" points="447.53,183.502 471.134,190.536 443.715,187.317 	"/>
	<polygon class="st119" points="498.273,201.385 504.632,192.681 471.134,190.536 	"/>
	<polygon class="st120" points="447.53,183.502 504.632,192.681 471.134,190.536 	"/>
	<polygon class="st121" points="489.85,213.782 506.221,208.06 498.273,201.385 	"/>
	<polygon class="st122" points="504.632,192.681 506.221,208.06 498.273,201.385 	"/>
	<polygon class="st123" points="506.221,208.06 501.771,240.806 532.527,178.495 	"/>
	<polygon class="st124" points="489.85,213.782 506.221,208.06 480.365,237.231 	"/>
	<polygon class="st125" points="506.221,208.06 501.771,240.806 493.108,235.478 	"/>
	<polygon class="st126" points="493.108,235.478 478.565,248.753 501.771,240.806 	"/>
	<polygon class="st127" points="469.346,249.664 506.221,208.06 493.108,235.478 	"/>
	<polygon class="st128" points="493.108,235.478 469.346,249.664 478.565,248.753 	"/>
	<polygon class="st12" points="532.527,178.495 532.527,199.318 547.23,184.217 	"/>
	<polygon class="st129" points="532.527,178.495 553.389,165.859 547.23,184.217 	"/>
	<polygon class="st52" points="532.527,199.318 555.813,198.605 547.23,184.217 	"/>
	<polygon class="st107" points="555.813,198.605 568.886,200.37 575.523,219.663 	"/>
	<polygon class="st130" points="532.527,199.318 517.427,209.651 532.527,178.495 	"/>
	<polygon class="st131" points="536.104,213.148 526.424,203.494 517.427,209.651 	"/>
	<polygon class="st36" points="526.424,203.494 555.813,198.605 536.104,213.148 	"/>
	<polygon class="st132" points="532.527,199.318 555.813,198.605 526.424,203.494 	"/>
	<polygon class="st133" points="547.23,184.217 570.281,175.168 553.389,165.859 	"/>
	<polygon class="st134" points="570.281,175.168 565.668,187.317 547.23,184.217 	"/>
	<polygon class="st135" points="565.668,187.317 555.813,198.605 547.23,184.217 	"/>
	<polygon class="st136" points="565.668,187.317 568.886,200.37 555.813,198.605 	"/>
	<polygon class="st137" points="597.259,231.186 568.886,200.37 575.523,219.663 	"/>
	<polygon class="st138" points="405.792,200.788 423.092,105.699 415.145,195.567 	"/>
	<polygon class="st139" points="415.145,195.567 424.522,178.495 423.092,105.699 	"/>
	<polygon class="st140" points="423.092,105.699 434.953,95.048 423.804,141.939 	"/>
	<polygon class="st114" points="424.522,178.495 436.443,126.836 423.804,141.939 	"/>
	<polygon class="st93" points="434.953,95.048 436.443,126.836 423.804,141.939 	"/>
	<polygon class="st141" points="424.522,178.495 422.377,191.529 415.145,195.567 	"/>
	<polygon class="st142" points="424.522,178.495 429.237,189.34 422.377,191.529 	"/>
	<polygon class="st143" points="424.522,178.495 438.351,177.859 429.237,189.34 	"/>
	<polygon class="st144" points="438.351,177.859 447.53,183.502 429.237,189.34 	"/>
	<polygon class="st145" points="446.696,124.612 424.522,178.495 438.351,177.859 	"/>
	<polygon class="st146" points="436.443,126.836 424.522,178.495 446.696,124.612 	"/>
	<polygon class="st147" points="436.443,126.836 479.121,98.863 434.953,95.048 	"/>
	<polygon class="st25" points="423.092,105.699 424.522,64.172 434.953,95.048 	"/>
	<polygon class="st148" points="424.522,64.172 438.351,64.172 434.953,95.048 	"/>
	<polygon class="st149" points="438.351,64.172 450.987,92.783 434.953,95.048 	"/>
	<polygon class="st138" points="450.987,92.783 479.121,98.863 434.953,95.048 	"/>
	<polygon class="st150" points="438.351,64.172 449.318,65.364 450.987,92.783 	"/>
	<polygon class="st151" points="449.318,65.364 454.683,61.073 463.648,88.475 	"/>
	<polygon class="st152" points="463.648,88.475 450.987,92.783 449.318,65.364 	"/>
	<polygon class="st153" points="491.28,79.074 479.121,98.863 450.987,92.783 	"/>
	<polygon class="st154" points="438.351,177.859 458.855,134.465 446.696,124.612 	"/>
	<polygon class="st4" points="446.696,124.612 479.121,98.863 436.443,126.836 	"/>
	<polygon class="st155" points="438.351,177.859 458.855,134.465 451.226,170.069 	"/>
	<polygon class="st156" points="438.351,177.859 451.226,170.069 447.53,183.502 	"/>
	<polygon class="st157" points="458.855,134.465 482.101,111.976 446.696,124.612 	"/>
	<polygon class="st158" points="482.101,111.976 479.121,98.863 446.696,124.612 	"/>
	<polygon class="st31" points="479.121,98.863 505.974,88.475 482.101,111.976 	"/>
	<polygon class="st159" points="491.28,79.074 505.974,88.475 479.121,98.863 	"/>
	<polygon class="st160" points="463.648,88.475 459.272,75.1 466.246,64.172 	"/>
	<polygon class="st161" points="466.246,64.172 479.883,82.951 463.648,88.475 	"/>
	<polygon class="st162" points="466.246,64.172 479.121,65.364 479.883,82.951 	"/>
	<polygon class="st86" points="479.121,65.364 491.28,79.074 479.883,82.951 	"/>
	<polygon class="st163" points="479.121,65.364 483.969,64.927 491.28,79.074 	"/>
	<polygon class="st50" points="482.101,111.976 507.016,104.267 505.974,88.475 	"/>
	<polygon class="st164" points="486.353,146.864 483.846,189.34 497.465,191.529 	"/>
	<polygon class="st165" points="497.465,191.529 512.035,150.633 513.667,199.692 506.221,208.06 504.632,192.681 	"/>
	<polygon class="st166" points="459.928,162.283 486.353,146.864 483.846,189.34 468.273,186.837 	"/>
	<polygon class="st167" points="459.928,162.283 457.782,185.15 468.273,186.837 	"/>
	<polygon class="st168" points="486.353,146.864 499.115,109.221 521.56,123.897 	"/>
	<polygon class="st136" points="486.353,146.864 521.56,123.897 497.465,191.529 	"/>
	<polygon class="st169" points="459.928,162.283 482.101,119.889 486.353,146.864 	"/>
	<polygon class="st120" points="482.101,119.889 499.115,109.221 486.353,146.864 	"/>
	<polygon class="st170" points="513.667,199.692 519.905,192.681 513.131,183.6 	"/>
	<polygon class="st171" points="512.035,150.633 536.74,126.836 521.56,123.897 	"/>
	<polygon class="st172" points="458.855,134.465 459.928,162.283 475.709,123.897 	"/>
	<polygon class="st173" points="458.855,134.465 507.016,104.267 482.101,111.976 	"/>
	<polygon class="st174" points="475.709,123.897 482.101,119.889 459.928,162.283 	"/>
	<polygon class="st175" points="458.855,134.465 459.928,162.283 447.53,183.502 451.226,170.069 	"/>
	<polygon class="st176" points="447.53,183.502 459.928,162.283 457.782,185.15 	"/>
	<polygon class="st80" points="499.115,109.221 521.56,123.897 507.016,104.267 	"/>
	<polygon class="st177" points="507.016,104.267 516.553,106.611 521.56,123.897 	"/>
	<polygon class="st178" points="507.016,104.267 504.99,73.562 516.553,106.611 	"/>
	<polygon class="st179" points="504.99,73.562 491.28,79.074 505.974,88.477 	"/>
	<polygon class="st180" points="504.99,73.562 513.513,78.001 516.553,106.611 	"/>
	<polygon class="st181" points="513.513,78.001 516.553,106.611 519.414,81.934 	"/>
	<polygon class="st182" points="519.414,81.934 523.865,109.221 516.553,106.611 	"/>
	<polygon class="st183" points="516.553,106.611 521.56,123.897 536.74,126.836 	"/>
	<polygon class="st184" points="523.865,109.221 536.74,126.836 516.553,106.611 	"/>
	<polygon class="st185" points="563.881,171.57 586.887,171.602 584.375,183.091 	"/>
	<polygon class="st186" points="608.703,235.478 587.841,189.781 589.748,207.046 	"/>
	<polygon class="st15" points="587.841,189.781 604.721,206.756 608.703,235.478 	"/>
	<polygon class="st187" points="536.74,126.836 539.878,142.136 527.997,170.27 	"/>
	<polygon class="st188" points="536.74,126.836 512.585,167.171 526.766,153.938 	"/>
	<polygon class="st189" points="526.766,153.938 527.997,170.27 536.74,126.836 	"/>
	<polygon class="st190" points="512.035,150.633 536.74,126.836 512.185,155.133 	"/>
	<polygon class="st191" points="512.185,155.133 512.585,167.171 536.74,126.836 	"/>
	<polygon class="st192" points="527.997,170.27 512.932,177.599 512.585,167.171 	"/>
	<polygon class="st193" points="512.585,167.171 526.766,153.938 527.997,170.27 	"/>
	<polygon class="st194" points="532.527,178.495 536.74,169.196 553.389,165.859 	"/>
	<polygon class="st195" points="536.74,169.196 512.932,177.599 532.527,178.495 	"/>
	<polygon class="st196" points="527.997,170.27 536.74,169.196 512.932,177.599 	"/>
	<polygon class="st188" points="527.997,170.27 539.878,142.136 531.753,169.809 	"/>
	<polygon class="st197" points="512.932,177.599 532.527,178.495 519.905,192.681 513.131,183.6 	"/>
	<polygon class="st198" points="570.281,175.168 578.911,211.258 565.668,187.317 	"/>
	<polygon class="st199" points="565.668,187.317 568.886,200.37 578.911,211.258 	"/>
	<polygon class="st200" points="584.375,183.091 594.517,188.906 586.887,171.602 	"/>
	<polygon class="st201" points="578.911,211.258 585.695,204.484 570.281,175.168 	"/>
	<polygon class="st202" points="587.841,189.781 585.695,204.484 570.281,175.168 	"/>
	<polygon class="st203" points="570.281,175.168 594.517,188.906 587.841,189.781 	"/>
	<polygon class="st204" points="585.695,204.484 589.827,219.663 578.911,211.258 	"/>
	<polygon class="st205" points="589.827,219.663 597.259,231.186 578.911,211.258 	"/>
	<polygon class="st206" points="589.827,219.663 599.912,222.292 605.167,240.806 	"/>
	<polygon class="st207" points="597.259,231.186 605.167,240.806 614.663,257.651 	"/>
	<polygon class="st208" points="589.827,219.663 597.259,231.186 605.167,240.806 	"/>
	<polygon class="st209" points="614.663,257.651 610.617,250.474 627.657,247.319 	"/>
	<polygon class="st207" points="608.703,235.478 599.912,222.292 605.167,240.806 610.617,250.474 	"/>
	<polygon class="st210" points="608.703,235.478 610.617,250.474 627.657,247.319 	"/>
	<polygon class="st210" points="589.748,207.046 587.841,189.781 585.695,204.484 589.827,219.663 599.912,222.292 	"/>
	<polygon class="st211" points="594.517,188.906 587.841,189.781 595.211,191.606 	"/>
	<polygon class="st152" points="424.522,64.172 436.523,62.464 438.351,64.172 	"/>
	<polygon class="st151" points="436.523,62.464 445.186,60 449.318,65.364 	"/>
	<polygon class="st160" points="436.523,62.464 438.351,64.172 449.318,65.364 	"/>
	<polygon class="st160" points="445.186,60 454.683,61.073 449.318,65.364 	"/>
	<polygon class="st160" points="466.246,64.172 483.969,64.927 479.121,65.364 	"/>
</g>
</svg>
