<?xml version="1.0" encoding="utf-8"?>
<!-- Generator: Adobe Illustrator 22.0.0, SVG Export Plug-In . SVG Version: 6.00 Build 0)  -->
<svg version="1.1" id="Layer_1" xmlns="http://www.w3.org/2000/svg" xmlns:xlink="http://www.w3.org/1999/xlink" x="0px" y="0px"
	 viewBox="0 0 1000 600" style="enable-background:new 0 0 1000 600;" xml:space="preserve">
<style type="text/css">
	.st0{fill:#FF1E22;}
	.st1{fill:none;}
	.st2{fill:#AA1F24;}
	.st3{fill:#841E1A;}
	.st4{fill:#671711;}
	.st5{fill:#8F1B1D;}
	.st6{fill:#351616;}
	.st7{fill:#791617;}
	.st8{fill:#801919;}
	.st9{fill:#9A1F21;}
	.st10{fill:#981F20;}
	.st11{fill:#AC1F25;}
	.st12{fill:#BC2127;}
	.st13{fill:#B92226;}
	.st14{fill:#A81F23;}
	.st15{fill:#911C1D;}
	.st16{fill:#A41E23;}
	.st17{fill:#9D1F21;}
	.st18{fill:#BC2227;}
	.st19{fill:#AE1F25;}
	.st20{fill:#D22228;}
	.st21{fill:#E23939;}
	.st22{fill:#E13232;}
	.st23{fill:#E45150;}
	.st24{fill:#DE393C;}
	.st25{fill:#B92127;}
	.st26{fill:#B62226;}
	.st27{fill:#C02329;}
	.st28{fill:#CE3538;}
	.st29{fill:#A41E22;}
	.st30{fill:#9E2022;}
	.st31{fill:#511619;}
	.st32{fill:#861A1B;}
	.st33{fill:#981E1F;}
	.st34{fill:#AB1F24;}
	.st35{fill:#CE4547;}
	.st36{fill:#C03F3B;}
	.st37{fill:#A61F23;}
	.st38{fill:#E23737;}
	.st39{fill:#E4383A;}
	.st40{fill:#E55252;}
	.st41{fill:#BD2227;}
	.st42{fill:#B02225;}
	.st43{fill:#B12126;}
	.st44{fill:#941F1F;}
	.st45{fill:#9A2122;}
	.st46{fill:#E86C6F;}
	.st47{fill:#EC7277;}
	.st48{fill:#ED7377;}
	.st49{fill:#E45050;}
	.st50{fill:#D62F33;}
	.st51{fill:#841A1A;}
	.st52{fill:#731814;}
	.st53{fill:#BF2127;}
	.st54{fill:#881A1B;}
	.st55{fill:#931E1E;}
	.st56{fill:#C22227;}
	.st57{fill:#DE272C;}
	.st58{fill:#E12E31;}
	.st59{fill:#D72128;}
	.st60{fill:#EA777B;}
	.st61{fill:#E16061;}
	.st62{fill:#EB676A;}
	.st63{fill:#D75656;}
	.st64{fill:#C52128;}
	.st65{fill:#B02125;}
	.st66{fill:#901B1D;}
	.st67{fill:#B22126;}
	.st68{fill:#D92D30;}
	.st69{fill:#CF2028;}
	.st70{fill:#D12229;}
	.st71{fill:#D7212B;}
	.st72{fill:#A91F24;}
	.st73{fill:#6C1114;}
	.st74{fill:#3A1515;}
	.st75{fill:#361516;}
	.st76{fill:#561415;}
	.st77{fill:#631314;}
	.st78{fill:#451615;}
	.st79{fill:#792226;}
	.st80{fill:#3A1411;}
	.st81{fill:#811919;}
	.st82{fill:#351715;}
	.st83{fill:#C44D4D;}
	.st84{fill:#8B1B1C;}
	.st85{fill:#7A1818;}
	.st86{fill:#A31E22;}
	.st87{fill:#A41F23;}
	.st88{fill:#5E1110;}
	.st89{fill:#6F1410;}
	.st90{fill:#A11E22;}
	.st91{fill:#6E1612;}
	.st92{fill:#971D20;}
	.st93{fill:#C12127;}
	.st94{fill:#C82128;}
	.st95{fill:#E12029;}
	.st96{fill:#CB4644;}
	.st97{fill:#2E1413;}
	.st98{fill:#EA7072;}
	.st99{fill:#6E1613;}
	.st100{fill:#9B1F22;}
	.st101{fill:#9E1E22;}
	.st102{fill:#951F22;}
	.st103{fill:#E44144;}
	.st104{fill:#D42028;}
	.st105{fill:#1B1314;}
	.st106{fill:#351516;}
	.st107{fill:#931F1F;}
	.st108{fill:#9D1E22;}
	.st109{fill:#D02028;}
	.st110{fill:#CC2128;}
	.st111{fill:#901A1D;}
	.st112{fill:#B42126;}
	.st113{fill:#AE2F30;}
	.st114{fill:#7C1B18;}
	.st115{fill:#BE2227;}
	.st116{fill:#96211F;}
	.st117{fill:#88191B;}
	.st118{fill:#DE222B;}
	.st119{fill:#8D1A1C;}
	.st120{fill:#A02122;}
	.st121{fill:#9A2021;}
	.st122{fill:#8D1D1D;}
	.st123{fill:#801818;}
	.st124{fill:#661712;}
	.st125{fill:#4D1816;}
	.st126{fill:#3B1416;}
	.st127{fill:#521616;}
	.st128{fill:#160F10;}
	.st129{fill:#411315;}
	.st130{fill:#81191A;}
	.st131{fill:#8C191C;}
	.st132{fill:#87191B;}
	.st133{fill:#381614;}
	.st134{fill:#781316;}
	.st135{fill:#711813;}
	.st136{fill:#9A1D21;}
	.st137{fill:#961D1F;}
	.st138{fill:#701612;}
	.st139{fill:#A81F24;}
	.st140{fill:#AF2025;}
	.st141{fill:#AE2025;}
	.st142{fill:#B82A2C;}
	.st143{fill:#B92C2D;}
	.st144{fill:#B5282B;}
	.st145{fill:#A42528;}
	.st146{fill:#D56868;}
	.st147{fill:#CF5A59;}
	.st148{fill:#E75B5B;}
	.st149{fill:#D4292C;}
	.st150{fill:#EE7376;}
	.st151{fill:#C92E31;}
	.st152{fill:#6B1414;}
	.st153{fill:#661513;}
	.st154{fill:#D02228;}
	.st155{fill:#9B1E21;}
	.st156{fill:#861A1A;}
	.st157{fill:#86191A;}
	.st158{fill:#9E1F22;}
	.st159{fill:#911C1E;}
	.st160{fill:#D43939;}
	.st161{fill:#4C1813;}
	.st162{fill:#B64546;}
	.st163{fill:#CF4E4F;}
	.st164{fill:#721914;}
	.st165{fill:#A02123;}
	.st166{fill:#6A1611;}
	.st167{fill:#A62C2D;}
	.st168{fill:#4C1716;}
	.st169{fill:#9F2122;}
	.st170{fill:#9B1E22;}
	.st171{fill:#7C1618;}
	.st172{fill:#711812;}
	.st173{fill:#140D0F;}
	.st174{fill:#962324;}
	.st175{fill:#481618;}
	.st176{fill:#0F0D0D;}
	.st177{fill:#110D0E;}
	.st178{fill:#8B191C;}
	.st179{fill:#A84B4A;}
	.st180{fill:#A74C4E;}
	.st181{fill:#561412;}
	.st182{fill:#911D1E;}
	.st183{fill:#7A1518;}
	.st184{fill:#521617;}
	.st185{fill:#301515;}
	.st186{fill:#84191A;}
	.st187{fill:#8A1C1B;}
	.st188{fill:#1A1111;}
	.st189{fill:#231112;}
	.st190{fill:#221012;}
	.st191{fill:#571811;}
	.st192{fill:#481812;}
	.st193{fill:#1F1010;}
	.st194{fill:#301717;}
	.st195{fill:#571311;}
	.st196{fill:#3E1314;}
	.st197{fill:#401314;}
	.st198{fill:#230E10;}
	.st199{fill:#4D1619;}
	.st200{fill:#431515;}
	.st201{fill:#2A1110;}
	.st202{fill:#711713;}
	.st203{fill:#3F1313;}
	.st204{fill:#701D13;}
	.st205{fill:#3D1314;}
	.st206{fill:#4A1719;}
	.st207{fill:#843236;}
	.st208{fill:#111016;}
	.st209{fill:#6A1511;}
	.st210{fill:#711712;}
	.st211{fill:#090A0A;}
	.st212{fill:#1E1111;}
</style>
<polygon class="st0" points="0,0 1000,0 0,600 "/>
<rect x="500" class="st1" width="500" height="600"/>
<g>
	<polygon class="st2" points="581.517,472.427 584.581,465.797 555.5,464.19 	"/>
	<polygon class="st3" points="581.517,472.427 606.229,458.163 584.581,465.797 	"/>
	<polygon class="st4" points="584.581,465.797 590.056,461.88 606.229,458.163 	"/>
	<polygon class="st5" points="606.229,458.163 619.388,450.093 622.268,415.136 	"/>
	<polygon class="st6" points="622.268,415.136 627.625,399.9 619.388,450.093 	"/>
	<polygon class="st7" points="555.5,464.19 506.077,458.866 519.873,456.991 	"/>
	<polygon class="st8" points="519.873,456.991 490.407,452.504 506.077,458.866 	"/>
	<polygon class="st9" points="606.229,458.163 609.343,416.977 622.268,415.136 	"/>
	<polygon class="st10" points="609.343,416.977 627.625,399.9 622.268,415.136 	"/>
	<polygon class="st11" points="606.229,458.163 590.056,461.88 609.343,416.977 	"/>
	<polygon class="st12" points="590.056,461.88 588.783,435.159 609.343,416.977 	"/>
	<polygon class="st13" points="590.056,461.88 529.985,452.504 588.783,435.159 	"/>
	<polygon class="st14" points="529.985,452.504 519.873,456.991 555.5,464.19 	"/>
	<polygon class="st15" points="555.5,464.19 584.581,465.797 590.056,461.88 	"/>
	<polygon class="st16" points="529.985,452.504 555.5,464.19 590.056,461.88 	"/>
	<polygon class="st17" points="490.407,452.504 456.554,432.648 461.677,428.027 	"/>
	<polygon class="st18" points="461.677,428.027 497.338,446.912 490.407,452.504 	"/>
	<polygon class="st19" points="497.338,446.912 529.985,452.504 490.407,452.504 	"/>
	<polygon class="st13" points="490.407,452.504 529.985,452.504 519.873,456.991 	"/>
	<polygon class="st20" points="529.985,452.504 536.012,427.424 588.783,435.159 	"/>
	<polygon class="st21" points="502.93,403.549 529.985,452.504 536.012,427.424 	"/>
	<polygon class="st22" points="502.93,403.549 497.338,446.912 529.985,452.504 	"/>
	<polygon class="st23" points="536.012,427.424 540.231,399.9 502.93,403.549 	"/>
	<polygon class="st24" points="540.231,399.9 588.783,435.159 536.012,427.424 	"/>
	<polygon class="st25" points="609.343,416.977 606.229,392.567 627.625,399.9 	"/>
	<polygon class="st26" points="606.229,392.567 569.664,405.325 609.343,416.977 	"/>
	<polygon class="st27" points="569.664,405.325 588.783,435.159 609.343,416.977 	"/>
	<polygon class="st28" points="540.231,399.9 569.664,405.325 588.783,435.159 	"/>
	<polygon class="st29" points="606.229,392.567 606.999,337.251 627.625,399.9 	"/>
	<polygon class="st30" points="606.999,337.251 616.927,335.778 627.625,399.9 	"/>
	<polygon class="st31" points="616.927,335.778 624.411,361.762 627.625,399.9 	"/>
	<polygon class="st5" points="594.945,309.26 606.999,337.251 616.927,335.778 	"/>
	<polygon class="st32" points="581.463,309.26 594.945,309.26 606.999,337.251 	"/>
	<polygon class="st33" points="441.788,411.988 456.554,432.648 461.677,428.027 	"/>
	<polygon class="st34" points="431.073,407.233 441.788,411.988 456.554,432.648 	"/>
	<polygon class="st35" points="444.233,420.358 431.073,407.233 422.769,411.988 	"/>
	<polygon class="st36" points="422.769,411.988 423.639,387.544 431.073,407.233 	"/>
	<polygon class="st37" points="422.769,411.988 410.751,379.941 423.639,387.544 	"/>
	<polygon class="st38" points="461.677,428.027 478.286,395.246 497.338,446.912 	"/>
	<polygon class="st39" points="478.286,395.246 502.93,403.549 497.338,446.912 	"/>
	<polygon class="st40" points="502.93,403.549 529.449,360.422 540.231,399.9 	"/>
	<polygon class="st41" points="529.449,360.422 566.281,383.457 540.231,399.9 	"/>
	<polygon class="st42" points="566.281,383.457 606.229,392.567 569.664,405.325 	"/>
	<polygon class="st19" points="540.231,399.9 566.281,383.457 569.664,405.325 	"/>
	<polygon class="st19" points="606.229,392.567 570.568,356.605 606.999,337.251 	"/>
	<polygon class="st43" points="529.449,360.422 548.267,345.354 566.281,383.457 	"/>
	<polygon class="st44" points="548.267,345.354 570.568,356.605 566.281,383.457 	"/>
	<polygon class="st45" points="570.568,356.605 566.281,383.457 606.229,392.567 	"/>
	<polygon class="st46" points="478.286,395.246 493.287,340.464 502.93,403.549 	"/>
	<polygon class="st47" points="493.287,340.464 529.449,360.422 502.93,403.549 	"/>
	<polygon class="st48" points="493.287,340.464 518.065,310.329 529.449,360.422 	"/>
	<polygon class="st49" points="518.065,310.329 548.267,345.354 529.449,360.422 	"/>
	<polygon class="st50" points="518.065,310.329 542.307,308.723 548.267,345.354 	"/>
	<polygon class="st51" points="542.307,308.723 554.362,303.231 548.267,345.354 	"/>
	<polygon class="st52" points="570.568,356.605 554.362,303.231 548.267,345.354 	"/>
	<polygon class="st53" points="518.065,310.329 518.734,280.73 542.307,308.723 	"/>
	<polygon class="st41" points="518.734,280.73 534.673,262.113 542.307,308.723 	"/>
	<polygon class="st54" points="534.673,262.113 554.362,303.231 542.307,308.723 	"/>
	<polygon class="st55" points="554.362,303.231 552.989,271.823 534.673,262.113 	"/>
	<polygon class="st56" points="441.788,411.988 446.007,386.942 461.677,428.027 	"/>
	<polygon class="st57" points="446.007,386.942 461.677,371.137 478.286,395.246 	"/>
	<polygon class="st58" points="446.007,386.942 478.286,395.246 461.677,428.027 	"/>
	<polygon class="st59" points="446.007,386.942 435.961,361.494 461.677,371.137 	"/>
	<polygon class="st60" points="461.677,371.137 474.401,337.251 478.286,395.246 	"/>
	<polygon class="st61" points="474.401,337.251 493.287,340.464 478.286,395.246 	"/>
	<polygon class="st62" points="493.287,340.464 487.527,295.529 518.065,310.329 	"/>
	<polygon class="st63" points="474.401,337.251 487.527,295.529 493.287,340.464 	"/>
	<polygon class="st64" points="487.527,295.529 518.734,280.73 518.065,310.329 	"/>
	<polygon class="st64" points="501.457,256.623 487.527,295.529 518.734,280.73 	"/>
	<polygon class="st41" points="501.457,256.623 534.673,262.113 518.734,280.73 	"/>
	<polygon class="st65" points="487.527,295.529 472.526,279.929 501.457,256.623 	"/>
	<polygon class="st66" points="472.526,279.929 442.926,305.778 452.972,286.626 	"/>
	<polygon class="st67" points="472.526,301.091 472.526,279.929 442.926,305.778 	"/>
	<polygon class="st2" points="472.526,301.091 487.527,295.529 472.526,279.929 	"/>
	<polygon class="st68" points="439.076,339.629 474.401,337.251 461.677,371.137 	"/>
	<polygon class="st69" points="439.076,339.629 435.961,361.494 461.677,371.137 	"/>
	<polygon class="st34" points="439.076,339.629 448.819,319.907 474.401,337.251 	"/>
	<polygon class="st70" points="448.819,319.907 472.526,301.091 474.401,337.251 	"/>
	<polygon class="st71" points="472.526,301.091 487.527,295.529 474.401,337.251 	"/>
	<polygon class="st72" points="606.999,337.251 567.655,294.124 570.568,356.605 	"/>
	<polygon class="st73" points="552.989,271.823 567.655,294.124 570.568,356.605 	"/>
	<polygon class="st74" points="552.989,271.823 554.362,303.231 570.568,356.605 	"/>
	<polygon class="st75" points="567.655,294.124 578.604,285.418 584.832,293.521 	"/>
	<polygon class="st76" points="567.655,294.124 594.945,309.26 577.862,293.765 	"/>
	<polygon class="st77" points="567.655,294.124 581.463,309.26 594.945,309.26 	"/>
	<polygon class="st78" points="562.632,275.439 586.741,278.855 578.604,285.418 	"/>
	<polygon class="st79" points="578.604,285.418 586.741,278.855 589.453,286.991 	"/>
	<polygon class="st80" points="578.604,285.418 584.832,293.521 589.453,286.991 	"/>
	<polygon class="st81" points="562.632,275.439 559.277,251.237 586.741,278.855 	"/>
	<path class="st82" d="M545.053,236.932c0.201,0,15.47,3.884,15.47,3.884l26.218,38.038L545.053,236.932z"/>
	<polygon class="st83" points="393.504,341.403 416.792,331.76 409.944,375.289 	"/>
	<polygon class="st53" points="393.504,341.403 386.807,359.619 409.944,375.289 	"/>
	<polygon class="st84" points="386.807,359.619 401.674,374.586 409.944,375.289 	"/>
	<polygon class="st85" points="401.674,374.586 409.944,375.289 423.639,387.544 	"/>
	<polygon class="st86" points="410.751,379.941 414.933,404.487 422.769,411.988 	"/>
	<polygon class="st2" points="409.944,375.289 422.166,355.383 416.792,331.76 	"/>
	<polygon class="st87" points="416.792,331.76 427.657,319.171 439.076,339.629 	"/>
	<polygon class="st18" points="416.792,331.76 422.166,355.383 439.076,339.629 	"/>
	<polygon class="st53" points="422.166,355.383 435.961,361.494 439.076,339.629 	"/>
	<polygon class="st18" points="435.961,361.494 425.012,381.986 422.166,355.383 	"/>
	<polygon class="st37" points="409.944,375.289 422.166,355.383 425.012,381.986 	"/>
	<polygon class="st67" points="425.012,381.986 446.007,386.942 435.961,361.494 	"/>
	<polygon class="st88" points="409.944,375.289 425.012,381.986 423.639,387.544 	"/>
	<polygon class="st89" points="425.012,381.986 423.639,387.544 431.073,407.233 	"/>
	<polygon class="st9" points="425.012,381.986 446.007,386.942 441.788,411.988 	"/>
	<polygon class="st90" points="425.012,381.986 431.073,407.233 441.788,411.988 	"/>
	<polygon class="st91" points="427.657,319.171 393.504,341.403 416.792,331.76 	"/>
	<polygon class="st43" points="386.807,359.619 386.807,331.092 393.504,341.403 	"/>
	<polygon class="st2" points="373.412,323.256 386.807,331.092 386.807,359.619 	"/>
	<polygon class="st37" points="373.412,323.256 375.957,308.723 386.807,331.092 	"/>
	<polygon class="st92" points="372.375,295.529 375.957,308.723 373.412,323.256 	"/>
	<polygon class="st93" points="375.957,308.723 388.046,301.657 386.807,331.092 	"/>
	<polygon class="st94" points="388.046,301.657 407.031,314.515 386.807,331.092 	"/>
	<polygon class="st94" points="386.807,331.092 407.031,314.515 408.318,331.76 	"/>
	<polygon class="st94" points="386.807,331.092 408.318,331.76 393.504,341.403 	"/>
	<polygon class="st95" points="407.031,314.515 421.697,307.584 408.318,331.76 	"/>
	<polygon class="st96" points="421.697,307.584 435.459,309.392 408.318,331.76 	"/>
	<polygon class="st97" points="435.459,309.392 427.657,319.171 408.318,331.76 	"/>
	<polygon class="st98" points="421.697,307.584 440.18,281.768 435.459,309.392 	"/>
	<polygon class="st99" points="435.459,309.392 445.203,287.393 440.18,281.768 	"/>
	<polygon class="st100" points="472.526,301.091 442.926,305.778 448.819,319.907 	"/>
	<polygon class="st101" points="439.076,339.629 435.459,309.392 427.657,319.171 	"/>
	<polygon class="st102" points="445.203,287.393 454.489,276.917 440.18,281.768 	"/>
	<polygon class="st103" points="421.697,307.584 399.531,276.847 440.18,281.768 	"/>
	<polygon class="st104" points="388.046,301.657 399.531,276.847 407.031,314.515 	"/>
	<polygon class="st59" points="399.531,276.847 407.031,314.515 421.697,307.584 	"/>
	<polygon class="st105" points="442.926,305.778 435.459,309.392 445.203,287.393 	"/>
	<polygon class="st106" points="445.203,287.393 452.972,286.626 442.926,305.778 	"/>
	<polygon class="st107" points="435.459,309.392 448.819,319.907 442.926,305.778 	"/>
	<polygon class="st65" points="435.459,309.392 439.076,339.629 448.819,319.907 	"/>
	<polygon class="st53" points="375.957,308.723 380.109,266.8 388.046,301.657 	"/>
	<polygon class="st108" points="372.375,295.529 380.109,266.8 375.957,308.723 	"/>
	<polygon class="st109" points="399.531,276.847 382.397,276.847 388.046,301.657 	"/>
	<polygon class="st93" points="382.397,276.847 400.904,252.335 399.531,276.847 	"/>
	<polygon class="st53" points="429.934,265.394 399.531,276.847 440.18,281.768 	"/>
	<polygon class="st94" points="429.934,265.394 449.723,265.394 440.18,281.768 	"/>
	<polygon class="st110" points="400.904,252.335 429.934,265.394 399.531,276.847 	"/>
	<polygon class="st16" points="380.109,266.8 400.904,252.335 382.397,276.847 	"/>
	<polygon class="st111" points="380.109,266.8 405.625,238.406 400.904,252.335 	"/>
	<polygon class="st53" points="400.904,252.335 423.606,234.857 429.934,265.394 	"/>
	<polygon class="st53" points="423.606,234.857 446.71,237.569 429.934,265.394 	"/>
	<polygon class="st13" points="446.71,237.569 462.481,257.157 429.934,265.394 	"/>
	<polygon class="st112" points="429.934,265.394 462.481,257.157 449.723,265.394 	"/>
	<polygon class="st113" points="449.723,265.394 454.489,276.917 440.18,281.768 	"/>
	<polygon class="st114" points="449.723,265.394 462.481,257.157 454.489,276.917 	"/>
	<polygon class="st5" points="472.526,279.929 485.485,253.676 501.457,256.623 	"/>
	<polygon class="st115" points="462.481,257.157 469.579,246.711 446.71,237.569 	"/>
	<polygon class="st116" points="405.625,238.406 423.606,234.857 400.904,252.335 	"/>
	<polygon class="st16" points="501.457,256.623 518.065,244.369 534.673,262.113 	"/>
	<polygon class="st117" points="380.109,266.8 391.65,246.208 405.625,238.406 	"/>
	<polygon class="st118" points="405.625,238.406 426.82,231.642 423.606,234.857 	"/>
	<polygon class="st119" points="426.82,231.642 446.71,237.569 423.606,234.857 	"/>
	<polygon class="st120" points="469.579,246.711 474.937,239.377 446.71,237.569 	"/>
	<polygon class="st121" points="426.82,231.642 474.937,239.377 446.71,237.569 	"/>
	<polygon class="st122" points="462.481,257.157 476.277,252.335 469.579,246.711 	"/>
	<polygon class="st123" points="474.937,239.377 476.277,252.335 469.579,246.711 	"/>
	<polygon class="st124" points="476.277,252.335 472.526,279.929 498.443,227.423 	"/>
	<polygon class="st125" points="462.481,257.157 476.277,252.335 454.489,276.917 	"/>
	<polygon class="st126" points="476.277,252.335 472.526,279.929 465.227,275.439 	"/>
	<polygon class="st127" points="465.227,275.439 452.972,286.626 472.526,279.929 	"/>
	<polygon class="st128" points="445.203,287.393 476.277,252.335 465.227,275.439 	"/>
	<polygon class="st129" points="465.227,275.439 445.203,287.393 452.972,286.626 	"/>
	<polygon class="st13" points="498.443,227.423 498.443,244.969 510.832,232.245 	"/>
	<polygon class="st130" points="498.443,227.423 516.022,216.775 510.832,232.245 	"/>
	<polygon class="st53" points="498.443,244.969 518.065,244.369 510.832,232.245 	"/>
	<polygon class="st108" points="518.065,244.369 529.081,245.856 534.673,262.113 	"/>
	<polygon class="st131" points="498.443,244.969 485.485,253.676 498.443,227.423 	"/>
	<polygon class="st132" points="501.457,256.623 493.262,248.45 485.485,253.676 	"/>
	<polygon class="st37" points="493.262,248.45 518.065,244.369 501.457,256.623 	"/>
	<polygon class="st133" points="498.443,244.969 518.065,244.369 493.262,248.45 	"/>
	<polygon class="st134" points="510.832,232.245 530.256,224.619 516.022,216.775 	"/>
	<polygon class="st135" points="530.256,224.619 526.369,234.857 510.832,232.245 	"/>
	<polygon class="st136" points="526.369,234.857 518.065,244.369 510.832,232.245 	"/>
	<polygon class="st137" points="526.369,234.857 529.081,245.856 518.065,244.369 	"/>
	<polygon class="st138" points="552.989,271.823 529.081,245.856 534.673,262.113 	"/>
	<polygon class="st139" points="391.65,246.208 406.228,166.081 399.531,241.808 	"/>
	<polygon class="st140" points="399.531,241.808 407.433,227.423 406.228,166.081 	"/>
	<polygon class="st141" points="406.228,166.081 416.223,157.106 406.828,196.619 	"/>
	<polygon class="st115" points="407.433,227.423 417.478,183.893 406.828,196.619 	"/>
	<polygon class="st94" points="416.223,157.106 417.478,183.893 406.828,196.619 	"/>
	<polygon class="st142" points="407.433,227.423 405.625,238.406 399.531,241.808 	"/>
	<polygon class="st143" points="407.433,227.423 411.406,236.561 405.625,238.406 	"/>
	<polygon class="st144" points="407.433,227.423 419.085,226.887 411.406,236.561 	"/>
	<polygon class="st145" points="419.085,226.887 426.82,231.642 411.406,236.561 	"/>
	<polygon class="st146" points="426.117,182.018 407.433,227.423 419.085,226.887 	"/>
	<polygon class="st147" points="417.478,183.893 407.433,227.423 426.117,182.018 	"/>
	<polygon class="st148" points="417.478,183.893 453.44,160.321 416.223,157.106 	"/>
	<polygon class="st26" points="406.228,166.081 407.433,131.089 416.223,157.106 	"/>
	<polygon class="st149" points="407.433,131.089 419.085,131.089 416.223,157.106 	"/>
	<polygon class="st150" points="419.085,131.089 429.733,155.198 416.223,157.106 	"/>
	<polygon class="st139" points="429.733,155.198 453.44,160.321 416.223,157.106 	"/>
	<polygon class="st151" points="419.085,131.089 428.327,132.094 429.733,155.198 	"/>
	<polygon class="st152" points="428.327,132.094 432.847,128.477 440.402,151.568 	"/>
	<polygon class="st153" points="440.402,151.568 429.733,155.198 428.327,132.094 	"/>
	<polygon class="st154" points="463.686,143.646 453.44,160.321 429.733,155.198 	"/>
	<polygon class="st155" points="419.085,226.887 436.363,190.321 426.117,182.018 	"/>
	<polygon class="st5" points="426.117,182.018 453.44,160.321 417.478,183.893 	"/>
	<polygon class="st156" points="419.085,226.887 436.363,190.321 429.934,220.322 	"/>
	<polygon class="st157" points="419.085,226.887 429.934,220.322 426.82,231.642 	"/>
	<polygon class="st158" points="436.363,190.321 455.952,171.37 426.117,182.018 	"/>
	<polygon class="st159" points="455.952,171.37 453.44,160.321 426.117,182.018 	"/>
	<polygon class="st32" points="453.44,160.321 476.068,151.568 455.952,171.37 	"/>
	<polygon class="st160" points="463.686,143.646 476.068,151.568 453.44,160.321 	"/>
	<polygon class="st161" points="440.402,151.568 436.714,140.297 442.591,131.089 	"/>
	<polygon class="st162" points="442.591,131.089 454.083,146.913 440.402,151.568 	"/>
	<polygon class="st163" points="442.591,131.089 453.44,132.094 454.083,146.913 	"/>
	<polygon class="st87" points="453.44,132.094 463.686,143.646 454.083,146.913 	"/>
	<polygon class="st164" points="453.44,132.094 457.525,131.725 463.686,143.646 	"/>
	<polygon class="st51" points="455.952,171.37 476.946,164.874 476.068,151.568 	"/>
	<polygon class="st165" points="459.534,200.769 457.422,236.561 468.898,238.406 	"/>
	<polygon class="st166" points="468.898,238.406 481.175,203.945 482.55,245.285 476.277,252.335 474.937,239.377 	"/>
	<polygon class="st167" points="437.267,213.761 459.534,200.769 457.422,236.561 444.299,234.452 	"/>
	<polygon class="st168" points="437.267,213.761 435.459,233.031 444.299,234.452 	"/>
	<polygon class="st169" points="459.534,200.769 470.288,169.049 489.201,181.416 	"/>
	<polygon class="st137" points="459.534,200.769 489.201,181.416 468.898,238.406 	"/>
	<polygon class="st170" points="437.267,213.761 455.952,178.039 459.534,200.769 	"/>
	<polygon class="st121" points="455.952,178.039 470.288,169.049 459.534,200.769 	"/>
	<polygon class="st171" points="482.55,245.285 487.807,239.377 482.099,231.724 	"/>
	<polygon class="st172" points="481.175,203.945 501.993,183.893 489.201,181.416 	"/>
	<polygon class="st173" points="436.363,190.321 437.267,213.761 450.566,181.416 	"/>
	<polygon class="st174" points="436.363,190.321 476.946,164.874 455.952,171.37 	"/>
	<polygon class="st175" points="450.566,181.416 455.952,178.039 437.267,213.761 	"/>
	<polygon class="st176" points="436.363,190.321 437.267,213.761 426.82,231.642 429.934,220.322 	"/>
	<polygon class="st177" points="426.82,231.642 437.267,213.761 435.459,233.031 	"/>
	<polygon class="st81" points="470.288,169.049 489.201,181.416 476.946,164.874 	"/>
	<polygon class="st178" points="476.946,164.874 484.982,166.85 489.201,181.416 	"/>
	<polygon class="st179" points="476.946,164.874 475.238,139.001 484.982,166.85 	"/>
	<polygon class="st180" points="475.238,139.001 463.686,143.646 476.068,151.569 	"/>
	<polygon class="st181" points="475.238,139.001 482.421,142.741 484.982,166.85 	"/>
	<polygon class="st182" points="482.421,142.741 484.982,166.85 487.393,146.056 	"/>
	<polygon class="st183" points="487.393,146.056 491.143,169.049 484.982,166.85 	"/>
	<polygon class="st184" points="484.982,166.85 489.201,181.416 501.993,183.893 	"/>
	<polygon class="st185" points="491.143,169.049 501.993,183.893 484.982,166.85 	"/>
	<polygon class="st186" points="524.863,221.588 544.249,221.614 542.133,231.296 	"/>
	<polygon class="st187" points="562.632,275.439 545.053,236.932 546.66,251.481 	"/>
	<polygon class="st16" points="545.053,236.932 559.277,251.237 562.632,275.439 	"/>
	<polygon class="st188" points="501.993,183.893 504.637,196.785 494.626,220.492 	"/>
	<polygon class="st189" points="501.993,183.893 481.639,217.881 493.588,206.73 	"/>
	<polygon class="st190" points="493.588,206.73 494.626,220.492 501.993,183.893 	"/>
	<polygon class="st191" points="481.175,203.945 501.993,183.893 481.302,207.736 	"/>
	<polygon class="st192" points="481.302,207.736 481.639,217.881 501.993,183.893 	"/>
	<polygon class="st193" points="494.626,220.492 481.931,226.667 481.639,217.881 	"/>
	<polygon class="st194" points="481.639,217.881 493.588,206.73 494.626,220.492 	"/>
	<polygon class="st195" points="498.443,227.423 501.993,219.587 516.022,216.775 	"/>
	<polygon class="st196" points="501.993,219.587 481.931,226.667 498.443,227.423 	"/>
	<polygon class="st197" points="494.626,220.492 501.993,219.587 481.931,226.667 	"/>
	<polygon class="st189" points="494.626,220.492 504.637,196.785 497.79,220.103 	"/>
	<polygon class="st198" points="481.931,226.667 498.443,227.423 487.807,239.377 482.099,231.724 	"/>
	<polygon class="st199" points="530.256,224.619 537.528,255.031 526.369,234.857 	"/>
	<polygon class="st200" points="526.369,234.857 529.081,245.856 537.528,255.031 	"/>
	<polygon class="st201" points="542.133,231.296 550.678,236.196 544.249,221.614 	"/>
	<polygon class="st202" points="537.528,255.031 543.245,249.322 530.256,224.619 	"/>
	<polygon class="st203" points="545.053,236.932 543.245,249.322 530.256,224.619 	"/>
	<polygon class="st204" points="530.256,224.619 550.678,236.196 545.053,236.932 	"/>
	<polygon class="st205" points="543.245,249.322 546.727,262.113 537.528,255.031 	"/>
	<polygon class="st206" points="546.727,262.113 552.989,271.823 537.528,255.031 	"/>
	<polygon class="st207" points="546.727,262.113 555.225,264.328 559.652,279.929 	"/>
	<polygon class="st208" points="552.989,271.823 559.652,279.929 567.655,294.124 	"/>
	<polygon class="st209" points="546.727,262.113 552.989,271.823 559.652,279.929 	"/>
	<polygon class="st210" points="567.655,294.124 564.245,288.075 578.604,285.418 	"/>
	<polygon class="st208" points="562.632,275.439 555.225,264.328 559.652,279.929 564.245,288.075 	"/>
	<polygon class="st211" points="562.632,275.439 564.245,288.075 578.604,285.418 	"/>
	<polygon class="st211" points="546.66,251.481 545.053,236.932 543.245,249.322 546.727,262.113 555.225,264.328 	"/>
	<polygon class="st212" points="550.678,236.196 545.053,236.932 551.263,238.471 	"/>
	<polygon class="st153" points="407.433,131.089 417.545,129.649 419.085,131.089 	"/>
	<polygon class="st152" points="417.545,129.649 424.845,127.573 428.327,132.094 	"/>
	<polygon class="st161" points="417.545,129.649 419.085,131.089 428.327,132.094 	"/>
	<polygon class="st161" points="424.845,127.573 432.847,128.477 428.327,132.094 	"/>
	<polygon class="st161" points="442.591,131.089 457.525,131.725 453.44,132.094 	"/>
</g>
</svg>
