<?xml version="1.0" encoding="utf-8"?>
<!-- Generator: Adobe Illustrator 16.0.0, SVG Export Plug-In . SVG Version: 6.00 Build 0)  -->
<!DOCTYPE svg PUBLIC "-//W3C//DTD SVG 1.1//EN" "http://www.w3.org/Graphics/SVG/1.1/DTD/svg11.dtd">
<svg version="1.1" id="Layer_1" xmlns="http://www.w3.org/2000/svg" xmlns:xlink="http://www.w3.org/1999/xlink" x="0px" y="0px"
	 width="250px" height="250px" viewBox="0 0 250 250" enable-background="new 0 0 250 250" xml:space="preserve">
<rect x="82.015" y="82.005" transform="matrix(0.7071 -0.7071 0.7071 0.7071 -51.7756 125.0137)" fill="none" stroke="#000000" stroke-width="5" stroke-linejoin="round" stroke-miterlimit="10" width="86" height="86"/>
<g>
	<g>
		<line fill="none" stroke="#000000" stroke-width="2" stroke-linejoin="round" x1="7.262" y1="181.947" x2="8.322" y2="180.887"/>
		
			<line fill="none" stroke="#000000" stroke-width="2" stroke-linejoin="round" stroke-dasharray="3.0112,3.0112" x1="10.452" y1="178.758" x2="179.727" y2="9.482"/>
		<line fill="none" stroke="#000000" stroke-width="2" stroke-linejoin="round" x1="180.791" y1="8.417" x2="181.852" y2="7.357"/>
	</g>
</g>
<g>
	<g>
		<line fill="none" stroke="#000000" stroke-width="2" stroke-miterlimit="10" x1="68.164" y1="7.342" x2="69.224" y2="8.402"/>
		
			<line fill="none" stroke="#000000" stroke-width="2" stroke-miterlimit="10" stroke-dasharray="3.0111,3.0111" x1="71.354" y1="10.532" x2="240.621" y2="179.799"/>
		
			<line fill="none" stroke="#000000" stroke-width="2" stroke-miterlimit="10" x1="241.686" y1="180.863" x2="242.746" y2="181.924"/>
	</g>
</g>
<g>
	<g>
		<line fill="none" stroke="#000000" stroke-width="2" stroke-miterlimit="10" x1="7.304" y1="68.104" x2="8.364" y2="69.164"/>
		
			<line fill="none" stroke="#000000" stroke-width="2" stroke-miterlimit="10" stroke-dasharray="3.0126,3.0126" x1="10.495" y1="71.294" x2="179.849" y2="240.647"/>
		
			<line fill="none" stroke="#000000" stroke-width="2" stroke-miterlimit="10" x1="180.914" y1="241.713" x2="181.975" y2="242.773"/>
	</g>
</g>
<g>
	<g>
		
			<line fill="none" stroke="#000000" stroke-width="2" stroke-linejoin="round" x1="68.067" y1="242.764" x2="69.128" y2="241.703"/>
		
			<line fill="none" stroke="#000000" stroke-width="2" stroke-linejoin="round" stroke-dasharray="3.0135,3.0135" x1="71.259" y1="239.572" x2="240.663" y2="70.167"/>
		
			<line fill="none" stroke="#000000" stroke-width="2" stroke-linejoin="round" x1="241.729" y1="69.101" x2="242.789" y2="68.041"/>
	</g>
</g>
<g>
	<path stroke="#000000" stroke-miterlimit="10" d="M92.976,132.266h-6.662v-14.419h6.501c2.861,0,4.621,1.462,4.621,3.729v0.041
		c0,1.627-0.84,2.534-1.84,3.11c1.62,0.639,2.621,1.608,2.621,3.544v0.041C98.217,130.947,96.137,132.266,92.976,132.266z
		 M94.376,122.11c0-0.948-0.72-1.483-2.021-1.483h-3.041v3.049h2.84c1.36,0,2.221-0.453,2.221-1.524V122.11z M95.157,127.879
		c0-0.969-0.7-1.566-2.281-1.566h-3.561v3.172h3.661c1.36,0,2.181-0.494,2.181-1.564V127.879z"/>
	<path stroke="#000000" stroke-miterlimit="10" d="M110.256,132.266l-3-4.613h-2.42v4.613h-3.081v-14.419h6.401
		c3.301,0,5.281,1.792,5.281,4.758v0.041c0,2.328-1.22,3.79-3,4.47l3.42,5.15H110.256z M110.316,122.77c0-1.36-0.92-2.06-2.42-2.06
		h-3.061v4.141h3.121c1.5,0,2.36-0.824,2.36-2.04V122.77z"/>
	<path stroke="#000000" stroke-miterlimit="10" d="M127.637,132.266l-1.28-3.234h-5.921l-1.28,3.234h-3.141l6.001-14.522h2.84
		l6.001,14.522H127.637z M123.396,121.554l-1.86,4.676h3.72L123.396,121.554z"/>
	<path stroke="#000000" stroke-miterlimit="10" d="M143.836,132.266l-6.781-9.167v9.167h-3.041v-14.419h2.842l6.561,8.878v-8.878
		h3.041v14.419H143.836z"/>
	<path stroke="#000000" stroke-miterlimit="10" d="M156.275,132.266h-5.461v-14.419h5.461c4.4,0,7.441,3.11,7.441,7.168v0.041
		C163.717,129.113,160.676,132.266,156.275,132.266z M160.496,125.056c0-2.554-1.701-4.346-4.221-4.346h-2.381v8.693h2.381
		c2.52,0,4.221-1.75,4.221-4.306V125.056z"/>
</g>
<line fill="none" stroke="#000000" stroke-width="2" stroke-miterlimit="10" x1="26.944" y1="64.193" x2="221.586" y2="64.193"/>
<line fill="none" stroke="#000000" stroke-width="2" stroke-miterlimit="10" x1="26.944" y1="185.816" x2="221.586" y2="185.816"/>
</svg>
