<?xml version="1.0" encoding="utf-8"?>
<!-- Generator: Adobe Illustrator 22.0.0, SVG Export Plug-In . SVG Version: 6.00 Build 0)  -->
<svg version="1.1" id="Layer_1" xmlns="http://www.w3.org/2000/svg" xmlns:xlink="http://www.w3.org/1999/xlink" x="0px" y="0px"
	 viewBox="0 0 250 250" style="enable-background:new 0 0 250 250;" xml:space="preserve">
<style type="text/css">
	.st0{fill:none;stroke:#000000;stroke-width:5;stroke-linejoin:round;stroke-miterlimit:10;}
	.st1{stroke:#000000;stroke-miterlimit:10;}
</style>
<rect x="82.014" y="82.007" transform="matrix(0.7071 -0.7071 0.7071 0.7071 -51.7774 125.0115)" class="st0" width="85.999" height="85.999"/>
<g>
	<path class="st1" d="M92.976,132.266h-6.662v-14.419h6.501c2.861,0,4.621,1.462,4.621,3.729v0.041c0,1.627-0.84,2.534-1.84,3.11
		c1.62,0.639,2.621,1.608,2.621,3.544v0.041C98.217,130.947,96.137,132.266,92.976,132.266z M94.376,122.11
		c0-0.948-0.72-1.483-2.021-1.483h-3.041v3.049h2.84c1.36,0,2.221-0.453,2.221-1.524v-0.042H94.376z M95.157,127.879
		c0-0.969-0.7-1.566-2.281-1.566h-3.561v3.172h3.661c1.36,0,2.181-0.494,2.181-1.564C95.157,127.921,95.157,127.879,95.157,127.879z
		"/>
	<path class="st1" d="M110.256,132.266l-3-4.613h-2.42v4.613h-3.081v-14.419h6.401c3.301,0,5.281,1.792,5.281,4.758v0.041
		c0,2.328-1.22,3.79-3,4.47l3.42,5.15H110.256z M110.316,122.77c0-1.36-0.92-2.06-2.42-2.06h-3.061v4.141h3.121
		c1.5,0,2.36-0.824,2.36-2.04C110.316,122.811,110.316,122.77,110.316,122.77z"/>
	<path class="st1" d="M127.637,132.266l-1.28-3.234h-5.921l-1.28,3.234h-3.141l6.001-14.522h2.84l6.001,14.522H127.637z
		 M123.396,121.554l-1.86,4.676h3.72L123.396,121.554z"/>
	<path class="st1" d="M143.836,132.266l-6.781-9.167v9.167h-3.041v-14.419h2.842l6.561,8.878v-8.878h3.041v14.419H143.836z"/>
	<path class="st1" d="M156.275,132.266h-5.461v-14.419h5.461c4.4,0,7.441,3.11,7.441,7.168v0.041
		C163.717,129.113,160.676,132.266,156.275,132.266z M160.496,125.056c0-2.554-1.701-4.346-4.221-4.346h-2.381v8.693h2.381
		c2.52,0,4.221-1.75,4.221-4.306V125.056z"/>
</g>
</svg>
