<?xml version="1.0" encoding="utf-8"?>
<!-- Generator: Adobe Illustrator 16.0.0, SVG Export Plug-In . SVG Version: 6.00 Build 0)  -->
<!DOCTYPE svg PUBLIC "-//W3C//DTD SVG 1.1//EN" "http://www.w3.org/Graphics/SVG/1.1/DTD/svg11.dtd">
<svg version="1.1" id="Layer_1" xmlns="http://www.w3.org/2000/svg" xmlns:xlink="http://www.w3.org/1999/xlink" x="0px" y="0px"
	 width="250px" height="250px" viewBox="0 0 250 250" enable-background="new 0 0 250 250" xml:space="preserve">
<line fill="none" stroke="#000000" stroke-width="2" stroke-miterlimit="10" stroke-dasharray="3" x1="7.312" y1="82.093" x2="168.195" y2="242.977"/>
<line fill="none" stroke="#000000" stroke-width="2" stroke-miterlimit="10" stroke-dasharray="3" x1="81.681" y1="7.456" x2="242.757" y2="168.531"/>
<line fill="none" stroke="#000000" stroke-width="2" stroke-miterlimit="10" stroke-dasharray="3" x1="180.973" y1="7.48" x2="7.312" y2="181.141"/>
<line fill="none" stroke="#000000" stroke-width="2" stroke-miterlimit="10" stroke-dasharray="3" x1="242.729" y1="69.253" x2="69.037" y2="242.947"/>
<g>
	
		<polygon fill="none" stroke="#000000" stroke-width="5" stroke-linecap="round" stroke-linejoin="round" stroke-miterlimit="10" points="
		113.328,60.394 62.049,60.394 62.049,111.673 	"/>
	
		<polygon fill="none" stroke="#000000" stroke-width="5" stroke-linecap="round" stroke-linejoin="round" stroke-miterlimit="10" points="
		93.625,68.614 70.268,68.614 70.268,91.971 	"/>
</g>
<g>
	
		<polygon fill="none" stroke="#000000" stroke-width="5" stroke-linecap="round" stroke-linejoin="round" stroke-miterlimit="10" points="
		146.204,55.545 194.2,103.542 226.153,71.587 	"/>
	
		<polygon fill="none" stroke="#000000" stroke-width="5" stroke-linecap="round" stroke-linejoin="round" stroke-miterlimit="10" points="
		171.385,69.101 194.201,91.917 209.756,76.363 	"/>
</g>
<rect x="72.309" y="81.515" transform="matrix(-0.7071 0.7071 -0.7071 -0.7071 301.908 125.3801)" fill="none" stroke="#000000" stroke-width="5" stroke-linejoin="round" stroke-miterlimit="10" width="105.355" height="87.404"/>
<rect x="165.739" y="126.019" transform="matrix(0.7072 0.707 -0.707 0.7072 169.7505 -70.4208)" fill="none" stroke="#000000" stroke-width="5" stroke-linecap="round" stroke-linejoin="round" stroke-miterlimit="10" width="8.304" height="87.404"/>
<g>
	
		<line fill="none" stroke="#000000" stroke-width="0.25" stroke-miterlimit="10" x1="135.627" y1="61.361" x2="61.13" y2="135.857"/>
	
		<line fill="none" stroke="#000000" stroke-width="0.25" stroke-miterlimit="10" x1="140.939" y1="66.673" x2="66.442" y2="141.17"/>
	
		<line fill="none" stroke="#000000" stroke-width="0.25" stroke-miterlimit="10" x1="146.252" y1="71.986" x2="71.755" y2="146.482"/>
	
		<line fill="none" stroke="#000000" stroke-width="0.25" stroke-miterlimit="10" x1="151.627" y1="77.361" x2="77.13" y2="151.857"/>
	
		<line fill="none" stroke="#000000" stroke-width="0.25" stroke-miterlimit="10" x1="156.939" y1="82.673" x2="82.442" y2="157.17"/>
	
		<line fill="none" stroke="#000000" stroke-width="0.25" stroke-miterlimit="10" x1="162.252" y1="87.986" x2="87.755" y2="162.482"/>
	
		<line fill="none" stroke="#000000" stroke-width="0.25" stroke-miterlimit="10" x1="167.564" y1="93.298" x2="93.067" y2="167.795"/>
	
		<line fill="none" stroke="#000000" stroke-width="0.25" stroke-miterlimit="10" x1="172.939" y1="98.673" x2="98.442" y2="173.17"/>
	
		<line fill="none" stroke="#000000" stroke-width="0.25" stroke-miterlimit="10" x1="178.252" y1="103.986" x2="103.755" y2="178.482"/>
	
		<line fill="none" stroke="#000000" stroke-width="0.25" stroke-miterlimit="10" x1="183.531" y1="109.265" x2="109.034" y2="183.762"/>
	
		<line fill="none" stroke="#000000" stroke-width="0.25" stroke-miterlimit="10" x1="188.844" y1="114.578" x2="114.347" y2="189.074"/>
	<polyline fill="none" stroke="#000000" stroke-width="0.25" stroke-miterlimit="10" points="177.185,134.818 172.895,130.527 
		167.584,125.218 162.305,119.938 156.994,114.628 151.614,109.249 146.305,103.938 140.994,98.628 135.675,93.308 130.305,87.938 
		124.994,82.628 119.675,77.318 115.385,73.018 	"/>
	<polyline fill="none" stroke="#000000" stroke-width="0.25" stroke-miterlimit="10" points="171.874,140.139 167.584,135.848 
		162.265,130.527 156.984,125.249 151.675,119.938 146.305,114.568 140.984,109.249 135.675,103.938 130.364,98.628 124.984,93.249 
		119.675,87.938 114.364,82.628 110.074,78.338 	"/>
	<polyline fill="none" stroke="#000000" stroke-width="0.25" stroke-miterlimit="10" points="166.555,145.449 162.265,141.158 
		156.954,135.848 151.675,130.568 146.364,125.258 140.984,119.878 135.675,114.568 130.364,109.258 125.044,103.938 
		119.675,98.568 114.364,93.258 109.044,87.938 104.754,83.648 	"/>
	<polyline fill="none" stroke="#000000" stroke-width="0.25" stroke-miterlimit="10" points="187.824,124.178 183.534,119.888 
		178.225,114.579 172.944,109.298 167.635,103.988 162.254,98.608 156.944,93.298 151.635,87.988 146.314,82.668 140.944,77.298 
		135.635,71.988 130.314,66.668 126.024,62.378 	"/>
	<polyline fill="none" stroke="#000000" stroke-width="0.25" stroke-miterlimit="10" points="182.515,129.488 178.225,125.199 
		172.914,119.888 167.635,114.608 162.324,109.298 156.944,103.918 151.635,98.608 146.324,93.298 141.004,87.978 135.635,82.608 
		130.324,77.298 125.004,71.978 120.715,67.688 	"/>
	<polyline fill="none" stroke="#000000" stroke-width="0.25" stroke-miterlimit="10" points="161.185,150.818 156.895,146.527 
		151.584,141.219 146.305,135.938 140.994,130.629 135.614,125.249 130.305,119.938 124.994,114.628 119.675,109.318 
		114.294,103.938 108.984,98.628 103.675,93.318 99.385,89.018 	"/>
	<polyline fill="none" stroke="#000000" stroke-width="0.25" stroke-miterlimit="10" points="155.874,156.139 151.584,151.848 
		146.265,146.527 140.984,141.248 135.675,135.938 130.305,130.568 124.984,125.249 119.675,119.938 114.364,114.628 
		108.984,109.249 103.675,103.938 98.364,98.628 94.074,94.338 	"/>
	<polyline fill="none" stroke="#000000" stroke-width="0.25" stroke-miterlimit="10" points="150.555,161.449 146.265,157.158 
		140.954,151.848 135.675,146.568 130.364,141.258 124.984,135.879 119.675,130.568 114.364,125.258 109.044,119.938 
		103.675,114.568 98.364,109.258 93.044,103.938 88.754,99.648 	"/>
	<polyline fill="none" stroke="#000000" stroke-width="0.25" stroke-miterlimit="10" points="145.244,166.758 140.954,162.469 
		135.645,157.158 130.364,151.879 125.055,146.568 119.675,141.188 114.364,135.879 109.055,130.568 103.734,125.249 
		98.364,119.878 93.055,114.568 87.734,109.249 83.444,104.958 	"/>
	<polyline fill="none" stroke="#000000" stroke-width="0.25" stroke-miterlimit="10" points="139.874,172.139 135.584,167.848 
		130.265,162.527 124.984,157.248 119.675,151.938 114.305,146.568 108.984,141.248 103.675,135.938 98.364,130.629 92.984,125.249 
		87.675,119.938 82.364,114.628 78.074,110.338 	"/>
	<polyline fill="none" stroke="#000000" stroke-width="0.25" stroke-miterlimit="10" points="134.555,177.449 130.265,173.158 
		124.954,167.848 119.675,162.568 114.364,157.258 108.984,151.879 103.675,146.568 98.364,141.258 93.044,135.938 87.675,130.568 
		82.364,125.258 77.044,119.938 72.754,115.648 	"/>
	<polyline fill="none" stroke="#000000" stroke-width="0.25" stroke-miterlimit="10" points="129.274,182.729 124.984,178.438 
		119.675,173.119 114.395,167.838 109.084,162.527 103.704,157.158 98.395,151.838 93.084,146.527 87.774,141.219 82.395,135.838 
		77.084,130.527 71.774,125.218 67.475,120.928 	"/>
	<polyline fill="none" stroke="#000000" stroke-width="0.25" stroke-miterlimit="10" points="123.965,188.039 119.675,183.748 
		114.364,178.438 109.084,173.158 103.774,167.848 98.395,162.469 93.084,157.158 87.774,151.848 82.454,146.527 77.084,141.158 
		71.774,135.848 66.454,130.527 62.164,126.238 	"/>
</g>
<polygon fill="none" stroke="#000000" stroke-width="2" stroke-miterlimit="10" points="92.987,125.25 119.677,98.571 
	114.364,125.258 130.297,141.191 119.617,151.881 "/>
<g>
	<g>
		<line fill="none" stroke="#000000" stroke-width="2" stroke-miterlimit="10" x1="91.242" y1="116.402" x2="110.832" y2="96.829"/>
		<g>
			<polygon points="94.432,118.149 87.688,119.952 89.498,113.21 			"/>
		</g>
		<g>
			<polygon points="112.576,100.02 114.386,93.279 107.643,95.082 			"/>
		</g>
	</g>
</g>
<g>
	<g>
		
			<line fill="none" stroke="#000000" stroke-width="2" stroke-miterlimit="10" x1="85.948" y1="128.836" x2="110.794" y2="153.705"/>
		<g>
			<polygon points="84.201,132.025 82.398,125.283 89.14,127.092 			"/>
		</g>
		<g>
			<polygon points="107.603,155.449 114.344,157.258 112.541,150.516 			"/>
		</g>
	</g>
</g>
<polygon fill="none" stroke="#000000" stroke-width="2" stroke-miterlimit="10" points="130.305,87.938 124.994,114.628 
	140.994,130.629 156.994,114.628 "/>
</svg>
