<?xml version="1.0" encoding="utf-8"?>
<!-- Generator: Adobe Illustrator 16.0.0, SVG Export Plug-In . SVG Version: 6.00 Build 0)  -->
<!DOCTYPE svg PUBLIC "-//W3C//DTD SVG 1.1//EN" "http://www.w3.org/Graphics/SVG/1.1/DTD/svg11.dtd">
<svg version="1.1" id="Layer_1" xmlns="http://www.w3.org/2000/svg" xmlns:xlink="http://www.w3.org/1999/xlink" x="0px" y="0px"
	 width="250px" height="250px" viewBox="0 0 250 250" enable-background="new 0 0 250 250" xml:space="preserve">
<g>
	<path d="M109.167,57.654c2.707,0,4.373,1.383,4.373,3.528v0.039c0,1.539-0.795,2.396-1.741,2.943
		c1.532,0.603,2.479,1.519,2.479,3.351v0.04c0,2.496-1.969,3.743-4.96,3.743h-6.303V57.654H109.167 M105.854,63.169h2.688
		c1.287,0,2.101-0.428,2.101-1.441v-0.04c0-0.896-0.682-1.402-1.912-1.402h-2.877V63.169 M105.854,68.667h3.463
		c1.288,0,2.064-0.469,2.064-1.482v-0.038c0-0.916-0.663-1.48-2.158-1.48h-3.369V68.667 M109.167,55.654h-6.151h-2v2v13.645v2h2
		h6.303c5.131,0,6.96-2.967,6.96-5.743c0-1.525-0.463-2.77-1.378-3.731c0.497-0.9,0.639-1.833,0.639-2.603
		C115.539,57.875,112.978,55.654,109.167,55.654L109.167,55.654z"/>
</g>
<path d="M124.598,68.985l-0.826-2.886h-1.514l-1.05,2.886h-1.927l3.282-9.018h4.003c2.064,0,2.895,1.121,2.219,2.976l-0.01,0.026
	c-0.529,1.455-1.625,2.369-2.894,2.795l0.968,3.221H124.598z M126.797,63.046c0.31-0.851-0.107-1.288-1.045-1.288h-1.914
	l-0.942,2.589h1.951c0.938,0,1.664-0.515,1.94-1.275L126.797,63.046z"/>
<path d="M135.467,68.985l-0.064-2.023h-3.703l-1.537,2.023h-1.964l7.059-9.082h1.775l0.448,9.082H135.467z M135.252,62.286
	l-2.227,2.924h2.326L135.252,62.286z"/>
<path d="M145.597,68.985l-2.155-5.732l-2.086,5.732h-1.9l3.281-9.018h1.775l2.083,5.553l2.021-5.553h1.902l-3.282,9.018H145.597z"/>
<path d="M153.375,68.985h-3.414l3.281-9.018h3.414c2.752,0,3.945,1.945,3.023,4.482l-0.01,0.025
	C158.746,67.013,156.127,68.985,153.375,68.985z M157.654,64.475c0.582-1.597-0.072-2.717-1.648-2.717h-1.488l-1.979,5.436h1.488
	c1.576,0,3.037-1.095,3.617-2.691L157.654,64.475z"/>
<line fill="none" stroke="#000000" stroke-width="2" stroke-miterlimit="10" stroke-dasharray="3" x1="169.198" y1="7.443" x2="169.198" y2="242.973"/>
<line fill="none" stroke="#000000" stroke-width="2" stroke-miterlimit="10" stroke-dasharray="3" x1="81.794" y1="7.443" x2="81.794" y2="242.973"/>
<rect x="81.794" y="51.985" fill="none" stroke="#000000" stroke-width="5" stroke-linejoin="round" stroke-miterlimit="10" width="87.404" height="146"/>
<polygon points="95.156,61.705 96.186,61.705 96.186,63.615 94.456,63.615 "/>
<path d="M96.186,65.265v1.87c-0.22,0.08-0.48,0.109-0.76,0.109h-2.29l0.72-1.979H96.186z"/>
<line fill="none" stroke="#000000" stroke-miterlimit="10" x1="100.428" y1="79.985" x2="158.346" y2="79.985"/>
<line fill="none" stroke="#000000" stroke-miterlimit="10" x1="100.428" y1="89.985" x2="158.346" y2="89.985"/>
<g>
	<path d="M101.037,103.435v18.97h-5.235v-18.97H88.56v-4.828h19.718v4.828H101.037z"/>
	<path d="M121.531,122.813c-7.343,0-12.613-5.474-12.613-12.239v-0.067c0-6.766,5.338-12.307,12.681-12.307
		c7.344,0,12.613,5.473,12.613,12.238v0.068C134.213,117.271,128.875,122.813,121.531,122.813z M128.738,110.506
		c0-4.08-2.992-7.479-7.207-7.479c-4.216,0-7.139,3.331-7.139,7.411v0.068c0,4.079,2.992,7.479,7.208,7.479
		c4.215,0,7.139-3.331,7.139-7.411V110.506z"/>
	<path d="M139.416,114.347v-4.963h10.471v4.963H139.416z"/>
	<path d="M106.374,153.404l-11.524-15.129v15.129h-5.168v-23.797h4.828l11.15,14.652v-14.652h5.168v23.797H106.374z"/>
	<path d="M117.479,153.404v-23.797h5.235v23.797H117.479z"/>
	<path d="M139.822,153.812c-7.412,0-12.512-5.201-12.512-12.238v-0.068c0-6.766,5.27-12.307,12.477-12.307
		c4.285,0,6.867,1.156,9.35,3.264l-3.297,3.979c-1.836-1.531-3.469-2.414-6.223-2.414c-3.807,0-6.832,3.365-6.832,7.41v0.068
		c0,4.352,2.99,7.547,7.207,7.547c1.904,0,3.604-0.475,4.93-1.428v-3.398h-5.27v-4.521h10.334v10.334
		C147.539,152.113,144.174,153.812,139.822,153.812z"/>
	<path d="M113.956,184.404v-9.553H104.3v9.553h-5.235v-23.797h5.235v9.416h9.655v-9.416h5.235v23.797H113.956z"/>
	<path d="M134.383,165.436v18.969h-5.236v-18.969h-7.24v-4.828h19.717v4.828H134.383z"/>
</g>
<g>
	<g>
		<path d="M155.93,103.46c-0.142-0.18-0.264-0.374-0.363-0.582c-0.101-0.208-0.18-0.43-0.235-0.668s-0.085-0.505-0.085-0.797
			c0-0.464,0.088-0.891,0.263-1.281c0.178-0.392,0.417-0.729,0.724-1.017c0.304-0.288,0.663-0.512,1.078-0.673
			c0.416-0.162,0.861-0.243,1.341-0.243c0.471,0,0.914,0.081,1.329,0.243c0.415,0.161,0.777,0.385,1.09,0.673
			c0.311,0.287,0.556,0.629,0.734,1.024c0.179,0.397,0.269,0.831,0.269,1.301c0,0.293-0.024,0.558-0.075,0.792
			c-0.05,0.235-0.121,0.453-0.212,0.655c-0.091,0.201-0.201,0.387-0.33,0.557c-0.129,0.172-0.272,0.336-0.43,0.496l-0.547-0.496
			c0.265-0.273,0.482-0.568,0.65-0.882c0.17-0.314,0.255-0.691,0.255-1.131c0-0.354-0.069-0.683-0.208-0.984
			c-0.136-0.303-0.328-0.564-0.574-0.786c-0.245-0.225-0.533-0.398-0.863-0.523s-0.687-0.188-1.069-0.188
			c-0.384,0-0.743,0.063-1.076,0.188s-0.622,0.299-0.867,0.523c-0.245,0.222-0.438,0.483-0.58,0.786
			c-0.142,0.302-0.213,0.63-0.213,0.984c0,0.439,0.084,0.817,0.25,1.135c0.167,0.317,0.4,0.628,0.703,0.935l-0.48,0.477
			C156.229,103.813,156.071,103.64,155.93,103.46z"/>
		<path d="M161.28,111.295v-3.91h-2.252v3.498h-0.68v-3.498h-2.312v3.957h-0.678v-4.68h6.602v4.633H161.28z"/>
		<path d="M161.961,118.935v0.704h-6.602v-0.576l5.414-4.139h-5.414v-0.705h6.602v0.677l-5.291,4.039H161.961z"/>
		<path d="M155.359,125.291v-0.723h5.914v-2.151h0.688v5.025h-0.688v-2.151H155.359z"/>
		<path d="M155.359,134.643l2.565-1.859v-1.832h-2.565v-0.723h6.602v2.756c0,0.355-0.048,0.674-0.143,0.957
			s-0.227,0.527-0.399,0.727c-0.174,0.203-0.381,0.359-0.623,0.469c-0.243,0.109-0.513,0.164-0.807,0.164
			c-0.277,0-0.524-0.043-0.741-0.127c-0.217-0.086-0.405-0.205-0.567-0.361c-0.159-0.156-0.294-0.342-0.399-0.557
			c-0.107-0.213-0.183-0.443-0.227-0.693l-2.695,1.967V134.643z M160.927,134.146c0.23-0.287,0.347-0.691,0.347-1.211v-1.984h-2.69
			v1.975c0,0.238,0.033,0.461,0.096,0.66c0.062,0.203,0.154,0.377,0.27,0.523c0.118,0.146,0.261,0.262,0.432,0.344
			c0.169,0.082,0.362,0.125,0.576,0.125C160.373,134.578,160.695,134.434,160.927,134.146z"/>
		<path d="M155.359,144.24v-0.777l1.743-0.752v-3.488l-1.743-0.76v-0.742l6.648,2.92v0.678L155.359,144.24z M161.13,140.971
			l-3.365-1.463v2.92L161.13,140.971z"/>
		<path d="M161.961,146.926v0.723h-5.913v3.609h-0.688v-4.332H161.961z"/>
	</g>
	<g>
		<path d="M158.914,161.135c-0.271-0.135-0.495-0.318-0.679-0.547c-0.182-0.227-0.319-0.494-0.41-0.801
			c-0.092-0.305-0.137-0.629-0.137-0.971v-1.557h-2.329v-0.723h6.602v2.4c0,0.359-0.05,0.688-0.146,0.984
			c-0.099,0.295-0.237,0.549-0.416,0.76c-0.178,0.209-0.399,0.371-0.661,0.484c-0.26,0.113-0.554,0.168-0.881,0.168
			C159.498,161.334,159.186,161.268,158.914,161.135z M160.909,160.139c0.242-0.314,0.364-0.732,0.364-1.252v-1.627h-2.905v1.59
			c0,0.262,0.034,0.502,0.104,0.721c0.068,0.217,0.167,0.402,0.296,0.559c0.128,0.156,0.281,0.275,0.461,0.359
			c0.18,0.082,0.381,0.123,0.599,0.123C160.307,160.611,160.667,160.455,160.909,160.139z"/>
		<path d="M155.359,169.404v-0.777l1.743-0.752v-3.488l-1.743-0.76v-0.742l6.648,2.922v0.676L155.359,169.404z M161.13,166.135
			l-3.365-1.465v2.92L161.13,166.135z"/>
		<path d="M155.359,176.502l2.565-1.857v-1.832h-2.565v-0.723h6.602v2.756c0,0.354-0.048,0.674-0.143,0.957
			s-0.227,0.527-0.399,0.729c-0.174,0.201-0.381,0.357-0.623,0.467c-0.243,0.111-0.513,0.166-0.807,0.166
			c-0.277,0-0.524-0.045-0.741-0.131c-0.217-0.084-0.405-0.205-0.567-0.361c-0.159-0.156-0.294-0.34-0.399-0.553
			c-0.107-0.215-0.183-0.445-0.227-0.697l-2.695,1.969V176.502z M160.927,176.008c0.23-0.287,0.347-0.691,0.347-1.211v-1.984h-2.69
			v1.975c0,0.238,0.033,0.459,0.096,0.66c0.062,0.203,0.154,0.377,0.27,0.523c0.118,0.148,0.261,0.262,0.432,0.344
			c0.169,0.082,0.362,0.123,0.576,0.123C160.373,176.438,160.695,176.295,160.927,176.008z"/>
		<path d="M155.359,182.486v-0.725h5.914v-2.152h0.688v5.027h-0.688v-2.15H155.359z"/>
	</g>
</g>
<circle cx="144.651" cy="179.26" r="5.333"/>
<line fill="none" stroke="#000000" stroke-width="2" stroke-miterlimit="10" x1="28.244" y1="51.985" x2="222.887" y2="51.985"/>
<line fill="none" stroke="#000000" stroke-width="2" stroke-miterlimit="10" x1="28.244" y1="197.984" x2="222.887" y2="197.984"/>
<polygon points="89.746,51.985 89.746,92.651 96.186,92.651 96.186,58.74 96.186,56.678 96.186,54.208 96.186,53.679 96.186,51.985 
	"/>
</svg>
