<?xml version="1.0" encoding="utf-8"?>
<!-- Generator: Adobe Illustrator 16.0.0, SVG Export Plug-In . SVG Version: 6.00 Build 0)  -->
<!DOCTYPE svg PUBLIC "-//W3C//DTD SVG 1.1//EN" "http://www.w3.org/Graphics/SVG/1.1/DTD/svg11.dtd">
<svg version="1.1" id="Layer_1" xmlns="http://www.w3.org/2000/svg" xmlns:xlink="http://www.w3.org/1999/xlink" x="0px" y="0px"
	 width="800px" height="400px" viewBox="0 0 800 400" enable-background="new 0 0 800 400" xml:space="preserve">
<polygon opacity="0.05" points="-122,367 -873,359 -878,93 -155,62 "/>
<polygon opacity="0.05" points="-104,354.824 -854.11,342.934 -897,108.658 -167.9,77.222 "/>
<polygon opacity="0.05" points="-104,316.064 -897,321.303 -859.288,95.03 -204.093,54.176 "/>
<rect x="368.981" y="169.31" transform="matrix(-0.7071 0.7071 -0.7071 -0.7071 823.949 58.9177)" fill="#FFFFFF" width="61.584" height="61.584"/>
<g>
	<polygon fill="#EDEDED" points="486.865,200.102 443.319,200.102 399.772,156.556 399.772,113.009 	"/>
	<polygon points="399.772,287.193 399.772,243.647 356.226,200.102 312.679,200.102 	"/>
	<polygon fill="#C6C6C6" points="486.865,200.102 443.319,200.102 399.772,243.647 399.772,287.193 	"/>
	<polygon points="356.226,200.102 312.679,200.102 399.772,113.009 399.772,156.556 	"/>
	<polygon fill="#3C3C3B" points="399.772,200.102 399.772,156.556 356.226,200.102 	"/>
	<polygon fill="#EDEDED" points="399.771,200.102 399.771,243.647 443.318,200.102 	"/>
	<polygon fill="#FFFFFF" points="399.772,200.102 443.318,200.102 399.772,156.554 	"/>
	<polygon fill="#575756" points="399.772,200.102 356.226,200.102 399.772,243.647 	"/>
</g>
<g>
	<polygon fill="#FFFFFF" points="144.395,228.681 94.228,228.681 94.228,171.349 101.22,174.735 101.22,221.688 141.007,221.688 	
		"/>
	<rect x="155.757" y="171.349" fill="#FFFFFF" width="6.991" height="57.334"/>
	<g>
		<path fill="#FFFFFF" d="M202.884,228.683h-0.109c-15.806,0-28.665-12.86-28.665-28.667c0-15.807,12.859-28.667,28.665-28.667
			h28.667l-3.386,6.991h-25.281c-11.952,0-21.675,9.723-21.675,21.676c0,11.951,9.724,21.673,21.675,21.673h3.496L202.884,228.683z"
			/>
		<polygon fill="#FFFFFF" points="231.442,225.295 224.451,228.683 224.451,203.512 199.281,203.512 202.667,196.519 
			231.442,196.519 		"/>
	</g>
	<polygon fill="#FFFFFF" points="249.795,196.519 249.795,171.349 242.804,171.349 242.804,196.519 242.804,203.512 
		242.804,228.683 249.795,228.683 249.795,203.512 271.58,203.512 274.966,196.519 	"/>
	<g>
		<rect x="286.502" y="196.519" fill="#FFFFFF" width="6.992" height="32.164"/>
		<rect x="286.502" y="171.349" fill="#FFFFFF" width="6.992" height="32.163"/>
	</g>
	<polygon fill="#FFFFFF" points="333.527,228.683 326.533,228.683 326.533,178.339 304.859,178.339 304.859,171.349 
		358.697,171.349 355.31,178.339 333.527,178.339 	"/>
</g>
<g>
	<path d="M472.883,228.683h-3.495v-6.994h3.495c11.951,0,21.675-9.723,21.675-21.673c0-11.953-9.724-21.676-21.675-21.676h-3.495
		v-6.991h3.495c15.807,0,28.666,12.86,28.666,28.667C501.549,215.822,488.689,228.683,472.883,228.683z"/>
	<polygon points="476.378,228.683 444.217,228.683 444.217,171.349 476.378,171.349 476.378,178.339 451.208,178.339 
		451.208,221.688 476.378,221.688 	"/>
	<g>
		<path d="M570.244,203.512h-6.992v-3.497c0-11.953-9.722-21.676-21.677-21.676c-11.949,0-21.672,9.723-21.672,21.676v3.497h-6.991
			v-3.497c0-15.807,12.859-28.667,28.663-28.667c15.811,0,28.669,12.86,28.669,28.667V203.512z"/>
		<polygon points="519.903,228.683 512.912,228.683 512.912,203.512 520.187,196.519 545.073,196.519 541.698,203.512 
			519.903,203.512 		"/>
		<rect x="563.252" y="203.512" width="6.992" height="25.171"/>
	</g>
	<rect x="647.936" y="171.349" width="6.992" height="57.334"/>
	<g>
		<path d="M615.53,203.527h-3.496v-6.993h3.496c5.011,0,9.091-4.078,9.091-9.089c0-5.012-4.08-9.09-9.091-9.09h-3.496v-6.992h3.496
			c8.867,0,16.081,7.213,16.081,16.082C631.611,196.311,624.397,203.527,615.53,203.527z"/>
		<g>
			<polygon points="613.781,171.363 574.278,171.363 577.268,178.355 613.781,178.355 			"/>
			<polygon points="611.385,203.527 613.781,203.527 615.542,196.534 594.505,196.534 626.653,228.683 636.541,228.683 			"/>
		</g>
	</g>
	<polygon points="695.403,228.683 666.736,200.015 695.4,171.351 705.289,171.352 676.627,200.015 705.311,228.7 	"/>
</g>
<g>
	<path d="M472.883,228.683h-3.495v-6.994h3.495c11.951,0,21.675-9.723,21.675-21.673c0-11.953-9.724-21.676-21.675-21.676h-3.495
		v-6.991h3.495c15.807,0,28.666,12.86,28.666,28.667C501.549,215.822,488.689,228.683,472.883,228.683z"/>
	<polygon points="476.378,228.683 444.217,228.683 444.217,171.349 476.378,171.349 476.378,178.339 451.208,178.339 
		451.208,221.688 476.378,221.688 	"/>
	<g>
		<path d="M570.244,203.512h-6.992v-3.497c0-11.953-9.722-21.676-21.677-21.676c-11.949,0-21.672,9.723-21.672,21.676v3.497h-6.991
			v-3.497c0-15.807,12.859-28.667,28.663-28.667c15.811,0,28.669,12.86,28.669,28.667V203.512z"/>
		<polygon points="519.903,228.683 512.912,228.683 512.912,203.512 520.187,196.519 545.073,196.519 541.698,203.512 
			519.903,203.512 		"/>
		<rect x="563.252" y="203.512" width="6.992" height="25.171"/>
	</g>
	<rect x="647.936" y="171.349" width="6.992" height="57.334"/>
	<g>
		<path d="M615.53,203.527h-3.496v-6.993h3.496c5.011,0,9.091-4.078,9.091-9.089c0-5.012-4.08-9.09-9.091-9.09h-3.496v-6.992h3.496
			c8.867,0,16.081,7.213,16.081,16.082C631.611,196.311,624.397,203.527,615.53,203.527z"/>
		<g>
			<polygon points="613.781,171.363 574.278,171.363 577.268,178.355 613.781,178.355 			"/>
			<polygon points="611.385,203.527 613.781,203.527 615.542,196.534 594.505,196.534 626.653,228.683 636.541,228.683 			"/>
		</g>
	</g>
	<polygon points="695.403,228.683 666.736,200.015 695.4,171.351 705.289,171.352 676.627,200.015 705.311,228.7 	"/>
</g>
</svg>
