<?xml version="1.0" encoding="utf-8"?>
<!-- Generator: Adobe Illustrator 16.0.0, SVG Export Plug-In . SVG Version: 6.00 Build 0)  -->
<!DOCTYPE svg PUBLIC "-//W3C//DTD SVG 1.1//EN" "http://www.w3.org/Graphics/SVG/1.1/DTD/svg11.dtd">
<svg version="1.1" id="Layer_1" xmlns="http://www.w3.org/2000/svg" xmlns:xlink="http://www.w3.org/1999/xlink" x="0px" y="0px"
	 width="400px" height="400px" viewBox="0 0 400 400" enable-background="new 0 0 400 400" xml:space="preserve">
<rect x="61.878" y="62.103" transform="matrix(0.7071 -0.7071 0.7071 0.7071 -82.9285 199.8896)" opacity="0.3" fill="#FFFFFF" width="275.889" height="275.89"/>
<polygon fill="#FFFFFF" points="176.706,270.283 53.792,270.283 53.792,129.815 70.924,138.112 70.924,253.153 168.405,253.153 "/>
<g>
	<path d="M350.615,200.051c0,35.828-26.969,65.47-61.671,69.705c-2.809,0.345-5.661,0.524-8.56,0.524h-8.574v-17.133h8.574
		c29.281,0,53.097-23.815,53.097-53.097c0-29.282-23.815-53.112-53.097-53.112h-8.574v-17.134h8.574c2.898,0,5.751,0.181,8.56,0.527
		C323.646,134.565,350.615,164.222,350.615,200.051z"/>
	<path d="M227.272,146.938v106.209h61.672v16.608c-2.809,0.345-5.661,0.524-8.56,0.524h-70.23V129.805h70.23
		c2.898,0,5.751,0.181,8.56,0.527v16.607H227.272z"/>
</g>
<rect x="156.391" y="156.613" transform="matrix(-0.7071 0.7071 -0.7071 -0.7071 482.5794 200.2081)" fill="#FFFFFF" width="86.87" height="86.87"/>
<polygon fill="#EDEDED" points="322.678,200.048 261.253,200.048 199.826,138.623 199.826,77.196 "/>
<polygon points="199.826,322.9 199.826,261.474 138.399,200.048 76.971,200.048 "/>
<polygon fill="#C6C6C6" points="322.678,200.048 261.253,200.048 199.826,261.474 199.826,322.9 "/>
<polygon points="138.399,200.048 76.971,200.048 199.826,77.196 199.826,138.623 "/>
<polygon fill="#3C3C3B" points="199.826,200.048 199.826,138.623 138.399,200.048 "/>
<polygon fill="#EDEDED" points="199.823,200.048 199.823,261.474 261.251,200.048 "/>
<polygon fill="#FFFFFF" points="199.826,200.048 261.251,200.048 199.826,138.619 "/>
<polygon fill="#575756" points="199.826,200.048 138.399,200.048 199.826,261.474 "/>
</svg>
