<?xml version="1.0" encoding="utf-8"?>
<!-- Generator: Adobe Illustrator 22.0.0, SVG Export Plug-In . SVG Version: 6.00 Build 0)  -->
<svg version="1.1" id="Layer_1" xmlns="http://www.w3.org/2000/svg" xmlns:xlink="http://www.w3.org/1999/xlink" x="0px" y="0px"
	 viewBox="0 0 100 67.5" style="enable-background:new 0 0 100 67.5;" xml:space="preserve">
<style type="text/css">
	.st0{fill:#FFFFFF;}
</style>
<path d="M82.821,3.703c-2.421-0.857-4.983-1.289-7.608-1.289H60.807v24.254v22.234l-4.386-5.564l-3.623-4.606l4.252-6.405
	l3.757-5.659h-6.798l-3.757,5.659l-1.14,1.721l-1.281-1.627l-0.071-0.094l-4.456-5.659l-1.132-1.438l-0.684-0.865l0.684-0.503
	l3.262-2.413l0.079-0.063c0.92-0.731,1.698-1.595,2.318-2.554c1.1-1.698,1.698-3.686,1.698-5.769c0-2.122-0.621-4.095-1.698-5.761
	c-0.487-0.762-1.069-1.454-1.729-2.059C44.2,3.49,41.669,2.414,38.879,2.414c-2.02,0-3.906,0.566-5.517,1.54
	c-1.886,1.148-3.395,2.876-4.275,4.928c-0.55,1.281-0.857,2.696-0.857,4.181c0,1.462,0.291,2.876,0.857,4.181
	c0.487,1.163,1.116,1.902,2.091,3.167l2.256,2.869l-0.299,0.22l-2.185,1.611c-0.629,0.472-1.21,0.99-1.737,1.556
	c-1.493,1.595-2.578,3.552-3.136,5.659c-0.299,1.108-0.456,2.256-0.456,3.411c0,2.829,0.888,5.447,2.413,7.6H7.159V2.414H1.5v46.582
	h37.379l0,0c1.132,0,2.24-0.141,3.293-0.417c2.916-0.731,5.494-2.444,7.325-4.896l4.181,5.313h7.128h0.071h14.335
	c1.47,0,2.924-0.134,4.338-0.409c1.108-0.204,2.201-0.503,3.254-0.872C92.197,44.477,98.5,35.627,98.5,25.701
	S92.197,6.933,82.821,3.703z M38.793,8.08c0.031-0.008,0.055-0.008,0.086-0.008c1.258,0,2.413,0.472,3.293,1.25
	c1.037,0.912,1.698,2.248,1.698,3.741c0,1.446-0.613,2.798-1.698,3.741c-0.047,0.047-0.094,0.086-0.141,0.126l-4.04,2.987
	l-2.664-3.348c-1.045-1.289-1.438-2.193-1.438-3.505C33.888,10.344,36.081,8.12,38.793,8.08z M45.371,39.69
	c-0.786,1.289-1.894,2.287-3.199,2.9c-1.006,0.487-2.13,0.747-3.293,0.747h-0.086c-2.264-0.024-4.291-1.045-5.659-2.649
	c-1.155-1.328-1.855-3.065-1.855-4.951c0-1.21,0.275-2.374,0.81-3.411c0.275-0.558,0.629-1.085,1.045-1.564
	c0.346-0.409,0.747-0.778,1.187-1.108l2.617-1.926l1.855,2.358l1.76,2.24l1.619,2.051l3.647,4.637L45.371,39.69z M80.942,42.371
	c-1.815,0.637-3.749,0.967-5.729,0.967h-8.747V8.072h8.747c1.981,0,3.914,0.322,5.745,0.967c7.113,2.452,11.883,9.148,11.883,16.662
	C92.841,33.214,88.071,39.911,80.942,42.371z"/>
<path class="st0" d="M52.8,38.73l4.25-6.4l3.76-5.66h-6.8l-3.76,5.66l-1.14,1.72l-1.28-1.63l-0.07-0.09l-4.46-5.66l-1.13-1.44
	l-0.68-0.87l0.68-0.5l3.26-2.41l0.08-0.06c0.92-0.73,1.7-1.6,2.32-2.56c1.1-1.7,1.7-3.68,1.7-5.77c0-2.12-0.62-4.09-1.7-5.76
	c-0.49-0.76-1.07-1.45-1.73-2.06c-1.9-1.75-4.43-2.83-7.22-2.83c-2.02,0-3.91,0.57-5.52,1.54c-1.88,1.15-3.39,2.88-4.27,4.93
	c-0.55,1.28-0.86,2.7-0.86,4.18c0,1.46,0.29,2.88,0.86,4.18c0.48,1.17,1.11,1.91,2.09,3.17l2.25,2.87l-0.3,0.22l-2.18,1.61
	c-0.63,0.47-1.21,0.99-1.74,1.56c-1.49,1.59-2.58,3.55-3.13,5.66c-0.3,1.1-0.46,2.25-0.46,3.41c0,2.83,0.89,5.44,2.41,7.6H7.16V2.41
	H1.5V49h37.38c1.13,0,2.24-0.15,3.29-0.42c2.92-0.73,5.5-2.44,7.33-4.9L53.68,49h7.13v-0.1l-4.39-5.56L52.8,38.73z M38.79,8.08
	c0.03-0.01,0.06-0.01,0.09-0.01c1.26,0,2.41,0.47,3.29,1.25c1.04,0.91,1.7,2.25,1.7,3.74c0,1.45-0.61,2.8-1.7,3.74
	c-0.05,0.05-0.09,0.09-0.14,0.13l-4.04,2.99l-2.66-3.35c-1.05-1.29-1.44-2.19-1.44-3.51C33.89,10.34,36.08,8.12,38.79,8.08z
	 M45.37,39.69c-0.79,1.29-1.89,2.29-3.2,2.9c-1,0.49-2.13,0.75-3.29,0.75h-0.09c-2.26-0.03-4.29-1.05-5.66-2.65
	c-1.15-1.33-1.85-3.07-1.85-4.95c0-1.21,0.27-2.38,0.81-3.41c0.27-0.56,0.63-1.09,1.04-1.57c0.35-0.41,0.75-0.78,1.19-1.11
	l2.62-1.92l1.85,2.36l1.76,2.24l1.62,2.05l3.65,4.63L45.37,39.69z"/>
<path class="st0" d="M2.96,55.919v8.301h2.844v1.372H1.5v-9.673H2.96z"/>
<path class="st0" d="M10.701,55.919v9.673h-1.46v-9.673H10.701z"/>
<path class="st0" d="M20.053,60.556h3.997v0.319c0,0.727-0.085,1.37-0.257,1.929c-0.167,0.518-0.449,1.003-0.846,1.454
	c-0.898,1.011-2.04,1.516-3.426,1.516c-1.353,0-2.513-0.488-3.477-1.466c-0.965-0.981-1.448-2.159-1.448-3.533
	c0-1.403,0.491-2.594,1.473-3.571c0.981-0.981,2.176-1.472,3.583-1.472c0.756,0,1.462,0.154,2.117,0.463
	c0.627,0.309,1.243,0.81,1.848,1.504l-1.04,0.996c-0.793-1.056-1.76-1.585-2.9-1.585c-1.023,0-1.882,0.353-2.575,1.059
	c-0.693,0.693-1.04,1.562-1.04,2.606c0,1.077,0.387,1.965,1.16,2.662c0.722,0.648,1.505,0.971,2.349,0.971
	c0.718,0,1.363-0.242,1.935-0.727c0.572-0.489,0.892-1.073,0.958-1.754h-2.412V60.556z"/>
<path class="st0" d="M29.399,59.704h4.172v-3.784h1.46v9.673h-1.46v-4.517h-4.172v4.517h-1.46v-9.673h1.46V59.704z"/>
<path class="st0" d="M42.07,57.292v8.301h-1.46v-8.301h-2.223v-1.372h5.901v1.372H42.07z"/>
<path class="st0" d="M51.447,60.211l1.742,2.105l0.057-0.063c0.188-0.205,0.365-0.405,0.533-0.602
	c0.166-0.196,0.328-0.395,0.482-0.595l0.953,0.978c-0.117,0.167-0.27,0.361-0.46,0.582c-0.19,0.221-0.417,0.476-0.68,0.764
	l1.792,2.212h-1.817l-0.964-1.184c-0.886,0.915-1.806,1.372-2.763,1.372c-0.856,0-1.582-0.273-2.18-0.821
	c-0.585-0.551-0.877-1.232-0.877-2.042c0-0.965,0.464-1.767,1.391-2.406l0.633-0.432c0.009-0.004,0.023-0.015,0.044-0.031
	c0.021-0.017,0.05-0.04,0.088-0.069c-0.639-0.681-0.958-1.351-0.958-2.011c0-0.651,0.213-1.182,0.639-1.591
	c0.435-0.409,0.994-0.614,1.679-0.614c0.665,0,1.213,0.198,1.648,0.595c0.434,0.397,0.651,0.898,0.651,1.504
	c0,0.418-0.119,0.796-0.357,1.134C52.485,59.334,52.061,59.739,51.447,60.211z M50.288,61.031l-0.082,0.056
	c-0.597,0.414-1.004,0.746-1.221,0.996c-0.213,0.25-0.32,0.516-0.32,0.796c0,0.401,0.161,0.768,0.483,1.102
	c0.334,0.322,0.702,0.483,1.103,0.483c0.564,0,1.213-0.37,1.949-1.109L50.288,61.031z M50.601,59.183l0.119-0.088
	c0.204-0.155,0.374-0.289,0.507-0.404c0.134-0.115,0.23-0.212,0.289-0.291c0.125-0.154,0.188-0.344,0.188-0.57
	c0-0.255-0.085-0.461-0.257-0.62c-0.171-0.158-0.401-0.238-0.689-0.238c-0.263,0-0.485,0.081-0.665,0.244
	c-0.18,0.155-0.269,0.353-0.269,0.595c0,0.284,0.113,0.564,0.338,0.839l0.363,0.439C50.539,59.111,50.564,59.142,50.601,59.183z"/>
<path d="M59.075,65.592v-9.673h2.03c0.972,0,1.742,0.096,2.305,0.288c0.606,0.188,1.154,0.508,1.647,0.958
	c0.998,0.911,1.498,2.107,1.498,3.59c0,1.487-0.52,2.69-1.56,3.608c-0.522,0.46-1.069,0.779-1.641,0.959
	c-0.534,0.179-1.292,0.269-2.274,0.269H59.075z M60.535,64.22h0.658c0.656,0,1.2-0.069,1.635-0.207
	c0.435-0.146,0.827-0.378,1.178-0.695c0.718-0.656,1.078-1.51,1.078-2.562c0-1.061-0.355-1.921-1.065-2.581
	c-0.639-0.589-1.581-0.883-2.825-0.883h-0.658V64.22z"/>
<path d="M75.65,63.243h-4.141l-1.077,2.349h-1.573l4.786-10.281l4.617,10.281h-1.597L75.65,63.243z M75.055,61.871l-1.434-3.289
	l-1.504,3.289H75.055z"/>
<path d="M84.802,61.47l2.995,4.122h-1.786l-2.763-3.959h-0.263v3.959h-1.46v-9.673h1.711c1.278,0,2.201,0.24,2.769,0.721
	c0.626,0.534,0.939,1.24,0.939,2.117c0,0.685-0.196,1.274-0.589,1.767S85.445,61.332,84.802,61.47z M82.985,60.361h0.463
	c1.382,0,2.074-0.528,2.074-1.585c0-0.99-0.673-1.484-2.018-1.484h-0.519V60.361z"/>
<path d="M92.762,59.779l3.765-3.859h1.948l-4.373,4.379l4.398,5.294h-1.954l-3.483-4.304l-0.301,0.301v4.003h-1.46v-9.673h1.46
	V59.779z"/>
</svg>
