<?xml version="1.0" encoding="utf-8"?>
<!-- Generator: Adobe Illustrator 16.0.0, SVG Export Plug-In . SVG Version: 6.00 Build 0)  -->
<!DOCTYPE svg PUBLIC "-//W3C//DTD SVG 1.1//EN" "http://www.w3.org/Graphics/SVG/1.1/DTD/svg11.dtd">
<svg version="1.1" id="Layer_1" xmlns="http://www.w3.org/2000/svg" xmlns:xlink="http://www.w3.org/1999/xlink" x="0px" y="0px"
	 width="581.333px" height="256.649px" viewBox="0 0 581.333 256.649" enable-background="new 0 0 581.333 256.649"
	 xml:space="preserve">
<g>
	
		<rect x="232.817" y="64.869" transform="matrix(-0.7071 0.7071 -0.7071 -0.7071 582.9791 3.9657)" width="115.703" height="115.702"/>
	
		<rect x="261.743" y="93.795" transform="matrix(-0.7071 0.7071 -0.7071 -0.7071 582.9807 3.966)" fill="#FFFFFF" width="57.851" height="57.851"/>
	<polygon fill="#EDEDED" points="372.482,122.72 331.576,122.72 290.669,81.814 290.669,40.907 	"/>
	<polygon points="290.669,204.534 290.669,163.627 249.762,122.72 208.854,122.72 	"/>
	<polygon fill="#C6C6C6" points="372.482,122.72 331.576,122.72 290.669,163.627 290.669,204.534 	"/>
	<polygon points="249.762,122.72 208.854,122.72 290.669,40.907 290.669,81.814 	"/>
	<polygon fill="#3C3C3B" points="290.669,122.72 290.669,81.814 249.762,122.72 	"/>
	<polygon fill="#EDEDED" points="290.667,122.72 290.667,163.627 331.575,122.72 	"/>
	<polygon fill="#FFFFFF" points="290.669,122.72 331.575,122.72 290.669,81.812 	"/>
	<polygon fill="#575756" points="290.669,122.72 249.762,122.72 290.669,163.627 	"/>
</g>
<g>
	<polygon fill="#C6C6C6" points="159.901,139.189 134.212,139.189 134.212,109.832 137.793,111.566 137.793,135.61 158.166,135.61 	
		"/>
	<rect x="165.719" y="109.832" fill="#C6C6C6" width="3.58" height="29.358"/>
	<g>
		<path fill="#C6C6C6" d="M189.851,139.19h-0.056c-8.094,0-14.678-6.585-14.678-14.68c0-8.094,6.584-14.678,14.678-14.678h14.679
			l-1.734,3.58h-12.945c-6.12,0-11.099,4.979-11.099,11.098c0,6.12,4.979,11.1,11.099,11.1h1.79L189.851,139.19z"/>
		<polygon fill="#C6C6C6" points="204.475,137.456 200.895,139.19 200.895,126.301 188.006,126.301 189.74,122.721 204.475,122.721 
					"/>
	</g>
	<polygon fill="#C6C6C6" points="213.873,122.721 213.873,109.832 210.292,109.832 210.292,122.721 210.292,126.301 210.292,139.19 
		213.873,139.19 213.873,126.301 225.027,126.301 226.761,122.721 	"/>
	<g>
		<rect x="232.668" y="122.721" fill="#C6C6C6" width="3.581" height="16.469"/>
		<rect x="232.668" y="109.832" fill="#C6C6C6" width="3.581" height="16.469"/>
	</g>
	<polygon fill="#C6C6C6" points="256.748,139.19 253.167,139.19 253.167,113.412 242.068,113.412 242.068,109.832 269.637,109.832 
		267.902,113.412 256.748,113.412 	"/>
</g>
<g>
	<path d="M328.106,139.19h-1.79v-3.58h1.79c6.119,0,11.099-4.979,11.099-11.1c0-6.12-4.979-11.098-11.099-11.098h-1.79v-3.58h1.79
		c8.094,0,14.679,6.584,14.679,14.678C342.785,132.605,336.2,139.19,328.106,139.19z"/>
	<polygon points="329.896,139.19 313.428,139.19 313.428,109.832 329.896,109.832 329.896,113.412 317.008,113.412 317.008,135.61 
		329.896,135.61 	"/>
	<g>
		<path d="M377.961,126.301h-3.58v-1.791c0-6.12-4.979-11.098-11.1-11.098c-6.119,0-11.098,4.979-11.098,11.098v1.791h-3.58v-1.791
			c0-8.094,6.585-14.678,14.678-14.678c8.096,0,14.68,6.584,14.68,14.678V126.301z"/>
		<polygon points="352.184,139.19 348.604,139.19 348.604,126.301 352.329,122.721 365.072,122.721 363.344,126.301 
			352.184,126.301 		"/>
		<rect x="374.381" y="126.301" width="3.58" height="12.889"/>
	</g>
	<rect x="417.744" y="109.832" width="3.58" height="29.358"/>
	<g>
		<path d="M401.15,126.309h-1.789v-3.582h1.789c2.566,0,4.656-2.087,4.656-4.654c0-2.566-2.09-4.654-4.656-4.654h-1.789v-3.581
			h1.789c4.541,0,8.234,3.694,8.234,8.235C409.385,122.614,405.691,126.309,401.15,126.309z"/>
		<g>
			<polygon points="400.256,109.839 380.027,109.839 381.559,113.419 400.256,113.419 			"/>
			<polygon points="399.027,126.309 400.256,126.309 401.156,122.728 390.385,122.728 406.846,139.19 411.91,139.19 			"/>
		</g>
	</g>
	<polygon points="442.051,139.19 427.371,124.51 442.049,109.833 447.113,109.833 432.436,124.51 447.125,139.199 	"/>
</g>
<g>
	<path fill="#EACE76" d="M425.176,157.643h-5.365v-10.73h5.365c2.957,0,5.363,2.407,5.363,5.366
		C430.539,155.237,428.133,157.643,425.176,157.643z M421.66,155.793h3.516c1.938,0,3.514-1.577,3.514-3.515
		c0-1.938-1.576-3.516-3.514-3.516h-3.516V155.793z"/>
	<path fill="#EACE76" d="M412.439,157.643c-2.957,0-5.363-2.406-5.363-5.364v-5.366h1.85v5.366c0,1.938,1.576,3.515,3.514,3.515
		c1.939,0,3.516-1.577,3.516-3.515v-5.366h1.85v5.366C417.805,155.237,415.398,157.643,412.439,157.643z"/>
	<path fill="#EACE76" d="M390.117,157.643h-7.586l0.598-1.85h6.988c0.713,0,1.295-0.581,1.295-1.295
		c0-0.715-0.582-1.295-1.295-1.295h-4.441c-1.732,0-3.145-1.412-3.145-3.146c0-1.734,1.412-3.146,3.145-3.146h7.586l-0.598,1.851
		h-6.988c-0.713,0-1.295,0.581-1.295,1.295s0.582,1.296,1.295,1.296h4.441c1.734,0,3.145,1.41,3.145,3.145
		S391.852,157.643,390.117,157.643z"/>
	<polygon fill="#EACE76" points="400.631,157.643 398.781,157.643 398.781,148.763 395.266,148.763 395.266,146.913 405.07,146.913 
		404.475,148.763 400.631,148.763 	"/>
	<rect x="432.545" y="146.913" fill="#EACE76" width="1.85" height="10.73"/>
	<path fill="#EACE76" d="M441.764,157.643c-2.957,0-5.365-2.406-5.365-5.364c0-2.959,2.408-5.366,5.365-5.366
		c2.959,0,5.365,2.407,5.365,5.366C447.129,155.237,444.723,157.643,441.764,157.643z M441.764,148.763
		c-1.938,0-3.516,1.577-3.516,3.516c0,1.938,1.578,3.515,3.516,3.515c1.939,0,3.516-1.577,3.516-3.515
		C445.279,150.34,443.703,148.763,441.764,148.763z"/>
</g>
<line fill="none" stroke="#9D9D9C" stroke-width="0.5" stroke-miterlimit="10" x1="249.762" y1="0" x2="444.91" y2="195.149"/>
<line fill="none" stroke="#000000" stroke-width="0.5" stroke-miterlimit="10" x1="229.336" y1="20.426" x2="424.484" y2="215.575"/>
<line fill="none" stroke="#000000" stroke-width="0.5" stroke-miterlimit="10" x1="406.001" y1="89.202" x2="235.919" y2="259.285"/>
<line fill="none" stroke="#000000" stroke-width="0.5" stroke-miterlimit="10" x1="406.255" y1="48.03" x2="236.173" y2="218.113"/>
<line fill="none" stroke="#E94E1B" stroke-width="0.5" stroke-miterlimit="10" x1="364.951" y1="7.505" x2="194.87" y2="177.588"/>
<line fill="none" stroke="#E6007E" stroke-width="0.5" stroke-miterlimit="10" x1="0.41" y1="109.832" x2="581.743" y2="109.832"/>
<line fill="none" stroke="#9D9D9C" stroke-width="0.5" stroke-miterlimit="10" x1="0.41" y1="139.19" x2="581.743" y2="139.19"/>
<line fill="none" stroke="#9D9D9C" stroke-width="0.5" stroke-miterlimit="10" x1="-0.396" y1="204.534" x2="580.937" y2="204.534"/>
<line fill="none" stroke="#9D9D9C" stroke-width="0.5" stroke-miterlimit="10" x1="0.41" y1="40.907" x2="581.743" y2="40.907"/>
<line fill="none" stroke="#000000" stroke-width="0.5" stroke-miterlimit="10" x1="300.466" y1="31.11" x2="112.938" y2="218.637"/>
<line fill="none" stroke="#000000" stroke-width="0.5" stroke-miterlimit="10" x1="165.292" y1="79.158" x2="342.785" y2="256.649"/>
<line fill="none" stroke="#95C11F" stroke-width="0.5" stroke-miterlimit="10" x1="185.788" y1="58.755" x2="363.281" y2="236.246"/>
<line fill="none" stroke="#000000" stroke-width="0.25" stroke-miterlimit="10" x1="134.212" y1="11.61" x2="134.212" y2="237.61"/>
<line fill="none" stroke="#000000" stroke-width="0.25" stroke-miterlimit="10" x1="447.104" y1="11.61" x2="447.104" y2="237.61"/>
<line fill="none" stroke="#000000" stroke-width="0.25" stroke-miterlimit="10" x1="137.785" y1="100.735" x2="137.785" y2="148.485"/>
<line fill="none" stroke="#000000" stroke-width="0.25" stroke-miterlimit="10" x1="165.722" y1="100.735" x2="165.722" y2="148.485"/>
<line fill="none" stroke="#000000" stroke-width="0.25" stroke-miterlimit="10" x1="169.295" y1="100.735" x2="169.295" y2="148.485"/>
<line fill="none" stroke="#000000" stroke-width="0.25" stroke-miterlimit="10" x1="200.902" y1="100.735" x2="200.902" y2="148.485"/>
<line fill="none" stroke="#000000" stroke-width="0.25" stroke-miterlimit="10" x1="204.475" y1="100.735" x2="204.475" y2="148.485"/>
<line fill="none" stroke="#000000" stroke-width="0.25" stroke-miterlimit="10" x1="210.292" y1="100.735" x2="210.292" y2="148.485"/>
<line fill="none" stroke="#000000" stroke-width="0.25" stroke-miterlimit="10" x1="213.865" y1="100.735" x2="213.865" y2="148.485"/>
<line fill="none" stroke="#000000" stroke-width="0.25" stroke-miterlimit="10" x1="210.292" y1="100.735" x2="210.292" y2="148.485"/>
<line fill="none" stroke="#000000" stroke-width="0.25" stroke-miterlimit="10" x1="213.865" y1="100.735" x2="213.865" y2="148.485"/>
<line fill="none" stroke="#000000" stroke-width="0.25" stroke-miterlimit="10" x1="232.672" y1="100.735" x2="232.672" y2="148.485"/>
<line fill="none" stroke="#000000" stroke-width="0.25" stroke-miterlimit="10" x1="236.245" y1="100.735" x2="236.245" y2="148.485"/>
<line fill="none" stroke="#000000" stroke-width="0.25" stroke-miterlimit="10" x1="253.087" y1="100.735" x2="253.087" y2="148.485"/>
<line fill="none" stroke="#000000" stroke-width="0.25" stroke-miterlimit="10" x1="256.66" y1="100.735" x2="256.66" y2="148.485"/>
<line fill="none" stroke="#000000" stroke-width="0.25" stroke-miterlimit="10" x1="313.428" y1="100.735" x2="313.428" y2="148.485"/>
<line fill="none" stroke="#000000" stroke-width="0.25" stroke-miterlimit="10" x1="317" y1="100.735" x2="317" y2="148.485"/>
<line fill="none" stroke="#000000" stroke-width="0.25" stroke-miterlimit="10" x1="417.748" y1="100.735" x2="417.748" y2="148.485"/>
<line fill="none" stroke="#000000" stroke-width="0.25" stroke-miterlimit="10" x1="421.32" y1="100.735" x2="421.32" y2="148.485"/>
<circle fill="none" stroke="#000000" stroke-width="0.25" stroke-miterlimit="10" cx="189.796" cy="124.51" r="11.106"/>
<circle fill="none" stroke="#000000" stroke-width="0.25" stroke-miterlimit="10" cx="328.106" cy="124.51" r="11.106"/>
<circle fill="none" stroke="#000000" stroke-width="0.25" stroke-miterlimit="10" cx="363.283" cy="124.51" r="11.106"/>
<circle fill="none" stroke="#000000" stroke-width="0.25" stroke-miterlimit="10" cx="401.146" cy="118.067" r="4.61"/>
<line fill="none" stroke="#000000" stroke-width="0.25" stroke-miterlimit="10" x1="184.976" y1="122.693" x2="241.762" y2="122.693"/>
<line fill="none" stroke="#000000" stroke-width="0.25" stroke-miterlimit="10" x1="184.976" y1="126.297" x2="241.762" y2="126.297"/>
<line fill="none" stroke="#000000" stroke-width="0.25" stroke-miterlimit="10" x1="345.413" y1="122.709" x2="402.199" y2="122.709"/>
<line fill="none" stroke="#000000" stroke-width="0.25" stroke-miterlimit="10" x1="345.413" y1="126.313" x2="402.199" y2="126.313"/>
<line fill="none" stroke="#000000" stroke-width="0.25" stroke-miterlimit="10" x1="422.785" y1="129.096" x2="446.188" y2="105.693"/>
<line fill="none" stroke="#000000" stroke-width="0.25" stroke-miterlimit="10" x1="425.389" y1="131.595" x2="448.791" y2="108.193"/>
<line fill="none" stroke="#000000" stroke-width="0.25" stroke-miterlimit="10" x1="425.336" y1="117.343" x2="448.739" y2="140.745"/>
<line fill="none" stroke="#000000" stroke-width="0.25" stroke-miterlimit="10" x1="422.838" y1="119.946" x2="446.24" y2="143.348"/>
<line fill="none" stroke="#000000" stroke-width="0.5" stroke-miterlimit="10" x1="290.667" y1="-57.557" x2="290.667" y2="288.444"/>
<line fill="none" stroke="#9D9D9C" stroke-width="0.5" stroke-miterlimit="10" x1="25.409" y1="122.721" x2="507.078" y2="122.721"/>
<line fill="none" stroke="#000000" stroke-width="0.25" stroke-miterlimit="10" x1="367.285" y1="146.913" x2="458.16" y2="146.913"/>
<line fill="none" stroke="#000000" stroke-width="0.25" stroke-miterlimit="10" x1="367.285" y1="157.643" x2="458.16" y2="157.643"/>
<line fill="none" stroke="#9D9D9C" stroke-width="0.25" stroke-miterlimit="10" x1="400.629" y1="143.364" x2="400.629" y2="161.063"/>
<line fill="none" stroke="#9D9D9C" stroke-width="0.25" stroke-miterlimit="10" x1="398.785" y1="143.364" x2="398.785" y2="161.063"/>
<line fill="none" stroke="#9D9D9C" stroke-width="0.25" stroke-miterlimit="10" x1="419.81" y1="143.364" x2="419.81" y2="161.063"/>
<line fill="none" stroke="#9D9D9C" stroke-width="0.25" stroke-miterlimit="10" x1="415.993" y1="143.364" x2="415.993" y2="161.063"/>
<line fill="none" stroke="#9D9D9C" stroke-width="0.25" stroke-miterlimit="10" x1="408.886" y1="143.364" x2="408.886" y2="161.063"/>
<line fill="none" stroke="#9D9D9C" stroke-width="0.25" stroke-miterlimit="10" x1="432.544" y1="143.364" x2="432.544" y2="161.063"/>
<line fill="none" stroke="#9D9D9C" stroke-width="0.25" stroke-miterlimit="10" x1="434.394" y1="143.364" x2="434.394" y2="161.063"/>
<line fill="none" stroke="#9D9D9C" stroke-width="0.25" stroke-miterlimit="10" x1="393.261" y1="143.348" x2="393.261" y2="161.047"/>
<line fill="none" stroke="#9D9D9C" stroke-width="0.25" stroke-miterlimit="10" x1="382.531" y1="143.348" x2="382.531" y2="161.047"/>
<circle fill="none" stroke="#000000" stroke-width="0.25" stroke-miterlimit="10" cx="441.763" cy="152.278" r="3.554"/>
<circle fill="none" stroke="#000000" stroke-width="0.25" stroke-miterlimit="10" cx="425.174" cy="152.278" r="3.554"/>
<circle fill="none" stroke="#000000" stroke-width="0.25" stroke-miterlimit="10" cx="412.439" cy="152.278" r="3.554"/>
<circle fill="none" stroke="#000000" stroke-width="0.25" stroke-miterlimit="10" cx="441.763" cy="152.278" r="5.399"/>
<line fill="none" stroke="#000000" stroke-width="0.25" stroke-miterlimit="10" x1="379.89" y1="151.354" x2="395.993" y2="151.354"/>
<line fill="none" stroke="#000000" stroke-width="0.25" stroke-miterlimit="10" x1="379.89" y1="153.152" x2="395.993" y2="153.152"/>
<rect y="-36.224" fill="#FFFFFF" width="581.333" height="11.333"/>
<g>
	<g>
		
			<line fill="none" stroke="#000000" stroke-width="0.45" stroke-miterlimit="10" x1="293.896" y1="188.36" x2="443.875" y2="188.36"/>
		<g>
			<polygon points="294.552,190.603 290.667,188.36 294.552,186.117 			"/>
		</g>
		<g>
			<polygon points="443.219,190.603 447.104,188.36 443.219,186.117 			"/>
		</g>
	</g>
</g>
<g>
	<g>
		<line fill="none" stroke="#000000" stroke-width="0.45" stroke-miterlimit="10" x1="303" y1="201.304" x2="303" y2="44.136"/>
		<g>
			<polygon points="305.243,200.648 303,204.534 300.757,200.648 			"/>
		</g>
		<g>
			<polygon points="305.243,44.793 303,40.907 300.757,44.793 			"/>
		</g>
	</g>
</g>
<g>
	<g>
		<line fill="none" stroke="#000000" stroke-width="0.45" stroke-miterlimit="10" x1="120" y1="135.96" x2="120" y2="113.061"/>
		<g>
			<polygon points="122.244,135.304 120,139.19 117.756,135.304 			"/>
		</g>
		<g>
			<polygon points="122.244,113.717 120,109.832 117.756,113.717 			"/>
		</g>
	</g>
</g>
<polygon points="371.643,190.471 369.456,192.659 371.652,194.855 371.068,194.847 370.491,194.847 368.879,193.235 
	367.267,194.847 366.691,194.847 366.12,194.841 368.303,192.659 366.118,190.474 366.691,190.47 367.267,190.47 368.879,192.083 
	370.491,190.47 371.068,190.47 "/>
<g>
	<g>
		
			<line fill="none" stroke="#000000" stroke-width="0.45" stroke-miterlimit="10" x1="137.061" y1="188.36" x2="287.04" y2="188.36"/>
		<g>
			<polygon points="137.717,190.603 133.832,188.36 137.717,186.117 			"/>
		</g>
		<g>
			<polygon points="286.384,190.603 290.27,188.36 286.384,186.117 			"/>
		</g>
	</g>
</g>
<polygon points="214.808,190.471 212.621,192.659 214.817,194.855 214.233,194.847 213.656,194.847 212.044,193.235 
	210.432,194.847 209.856,194.847 209.285,194.841 211.468,192.659 209.283,190.474 209.856,190.47 210.432,190.47 212.044,192.083 
	213.656,190.47 214.233,190.47 "/>
<polygon points="301.063,120.528 300.483,120.528 298.861,122.15 297.239,120.528 296.659,120.528 296.082,120.532 298.434,122.878 
	298.43,123.744 298.43,124.91 299.25,124.914 299.25,123.701 299.25,123.087 299.25,122.937 301.642,120.529 "/>
<g>
	<polygon points="118.393,122.292 118.393,122.447 117.742,123.098 114.917,125.924 114.11,126.731 113.551,126.731 
		113.551,126.122 116.573,123.098 117.38,122.292 	"/>
	<polygon points="118.549,125.924 118.549,126.731 112.942,126.731 113.551,126.122 113.749,125.924 	"/>
	<polygon points="118.549,122.292 118.393,122.447 117.742,123.098 112.942,123.098 112.942,122.292 	"/>
</g>
</svg>
