<?xml version="1.0" encoding="utf-8"?>
<!-- Generator: Adobe Illustrator 16.0.0, SVG Export Plug-In . SVG Version: 6.00 Build 0)  -->
<!DOCTYPE svg PUBLIC "-//W3C//DTD SVG 1.1//EN" "http://www.w3.org/Graphics/SVG/1.1/DTD/svg11.dtd">
<svg version="1.1" id="Layer_1" xmlns="http://www.w3.org/2000/svg" xmlns:xlink="http://www.w3.org/1999/xlink" x="0px" y="0px"
	 width="581.333px" height="256.649px" viewBox="0 0 581.333 256.649" enable-background="new 0 0 581.333 256.649"
	 xml:space="preserve">
<g>
	
		<rect x="232.817" y="64.869" transform="matrix(-0.7071 0.7071 -0.7071 -0.7071 582.9791 3.9657)" width="115.703" height="115.702"/>
	
		<rect x="261.743" y="93.795" transform="matrix(-0.7071 0.7071 -0.7071 -0.7071 582.9807 3.966)" fill="#FFFFFF" width="57.851" height="57.851"/>
	<polygon fill="#EDEDED" points="372.482,122.72 331.576,122.72 290.669,81.814 290.669,40.907 	"/>
	<polygon points="290.669,204.534 290.669,163.627 249.762,122.72 208.854,122.72 	"/>
	<polygon fill="#C6C6C6" points="372.482,122.72 331.576,122.72 290.669,163.627 290.669,204.534 	"/>
	<polygon points="249.762,122.72 208.854,122.72 290.669,40.907 290.669,81.814 	"/>
	<polygon fill="#3C3C3B" points="290.669,122.72 290.669,81.814 249.762,122.72 	"/>
	<polygon fill="#EDEDED" points="290.667,122.72 290.667,163.627 331.575,122.72 	"/>
	<polygon fill="#FFFFFF" points="290.669,122.72 331.575,122.72 290.669,81.812 	"/>
	<polygon fill="#575756" points="290.669,122.72 249.762,122.72 290.669,163.627 	"/>
</g>
<line fill="none" stroke="#000000" stroke-width="0.5" stroke-miterlimit="10" x1="249.762" y1="0" x2="444.91" y2="195.149"/>
<line fill="none" stroke="#000000" stroke-width="0.5" stroke-miterlimit="10" x1="229.336" y1="20.426" x2="424.484" y2="215.575"/>
<line fill="none" stroke="#000000" stroke-width="0.5" stroke-miterlimit="10" x1="406.001" y1="89.202" x2="235.919" y2="259.285"/>
<line fill="none" stroke="#000000" stroke-width="0.5" stroke-miterlimit="10" x1="406.255" y1="48.03" x2="236.173" y2="218.113"/>
<line fill="none" stroke="#000000" stroke-width="0.5" stroke-miterlimit="10" x1="364.951" y1="7.505" x2="194.87" y2="177.588"/>
<line fill="none" stroke="#000000" stroke-width="0.5" stroke-miterlimit="10" x1="0.41" y1="109.832" x2="581.743" y2="109.832"/>
<line fill="none" stroke="#000000" stroke-width="0.5" stroke-miterlimit="10" x1="0.41" y1="139.19" x2="581.743" y2="139.19"/>
<line fill="none" stroke="#000000" stroke-width="0.5" stroke-miterlimit="10" x1="300.466" y1="31.11" x2="112.938" y2="218.637"/>
<line fill="none" stroke="#000000" stroke-width="0.5" stroke-miterlimit="10" x1="165.292" y1="79.158" x2="342.785" y2="256.649"/>
<line fill="none" stroke="#000000" stroke-width="0.5" stroke-miterlimit="10" x1="185.788" y1="58.755" x2="363.281" y2="236.246"/>
<line fill="none" stroke="#000000" stroke-width="0.25" stroke-miterlimit="10" x1="134.212" y1="100.735" x2="134.212" y2="148.485"/>
<line fill="none" stroke="#000000" stroke-width="0.25" stroke-miterlimit="10" x1="137.785" y1="100.735" x2="137.785" y2="148.485"/>
<line fill="none" stroke="#000000" stroke-width="0.25" stroke-miterlimit="10" x1="165.722" y1="100.735" x2="165.722" y2="148.485"/>
<line fill="none" stroke="#000000" stroke-width="0.25" stroke-miterlimit="10" x1="169.295" y1="100.735" x2="169.295" y2="148.485"/>
<line fill="none" stroke="#000000" stroke-width="0.25" stroke-miterlimit="10" x1="200.902" y1="100.735" x2="200.902" y2="148.485"/>
<line fill="none" stroke="#000000" stroke-width="0.25" stroke-miterlimit="10" x1="204.475" y1="100.735" x2="204.475" y2="148.485"/>
<line fill="none" stroke="#000000" stroke-width="0.25" stroke-miterlimit="10" x1="210.292" y1="100.735" x2="210.292" y2="148.485"/>
<line fill="none" stroke="#000000" stroke-width="0.25" stroke-miterlimit="10" x1="213.865" y1="100.735" x2="213.865" y2="148.485"/>
<line fill="none" stroke="#000000" stroke-width="0.25" stroke-miterlimit="10" x1="210.292" y1="100.735" x2="210.292" y2="148.485"/>
<line fill="none" stroke="#000000" stroke-width="0.25" stroke-miterlimit="10" x1="213.865" y1="100.735" x2="213.865" y2="148.485"/>
<line fill="none" stroke="#000000" stroke-width="0.25" stroke-miterlimit="10" x1="232.672" y1="100.735" x2="232.672" y2="148.485"/>
<line fill="none" stroke="#000000" stroke-width="0.25" stroke-miterlimit="10" x1="236.245" y1="100.735" x2="236.245" y2="148.485"/>
<line fill="none" stroke="#000000" stroke-width="0.25" stroke-miterlimit="10" x1="253.087" y1="100.735" x2="253.087" y2="148.485"/>
<line fill="none" stroke="#000000" stroke-width="0.25" stroke-miterlimit="10" x1="256.66" y1="100.735" x2="256.66" y2="148.485"/>
<line fill="none" stroke="#000000" stroke-width="0.25" stroke-miterlimit="10" x1="313.428" y1="100.735" x2="313.428" y2="148.485"/>
<line fill="none" stroke="#000000" stroke-width="0.25" stroke-miterlimit="10" x1="317" y1="100.735" x2="317" y2="148.485"/>
<line fill="none" stroke="#000000" stroke-width="0.25" stroke-miterlimit="10" x1="417.748" y1="100.735" x2="417.748" y2="148.485"/>
<line fill="none" stroke="#000000" stroke-width="0.25" stroke-miterlimit="10" x1="421.32" y1="100.735" x2="421.32" y2="148.485"/>
<circle fill="none" stroke="#000000" stroke-width="0.25" stroke-miterlimit="10" cx="189.796" cy="124.51" r="11.106"/>
<circle fill="none" stroke="#000000" stroke-width="0.25" stroke-miterlimit="10" cx="328.106" cy="124.51" r="11.106"/>
<circle fill="none" stroke="#000000" stroke-width="0.25" stroke-miterlimit="10" cx="363.283" cy="124.51" r="11.106"/>
<circle fill="none" stroke="#000000" stroke-width="0.25" stroke-miterlimit="10" cx="401.146" cy="118.067" r="4.61"/>
<line fill="none" stroke="#000000" stroke-width="0.25" stroke-miterlimit="10" x1="184.976" y1="122.693" x2="241.762" y2="122.693"/>
<line fill="none" stroke="#000000" stroke-width="0.25" stroke-miterlimit="10" x1="184.976" y1="126.297" x2="241.762" y2="126.297"/>
<line fill="none" stroke="#000000" stroke-width="0.25" stroke-miterlimit="10" x1="345.413" y1="122.709" x2="402.199" y2="122.709"/>
<line fill="none" stroke="#000000" stroke-width="0.25" stroke-miterlimit="10" x1="345.413" y1="126.313" x2="402.199" y2="126.313"/>
<line fill="none" stroke="#000000" stroke-width="0.25" stroke-miterlimit="10" x1="422.785" y1="129.096" x2="446.188" y2="105.693"/>
<line fill="none" stroke="#000000" stroke-width="0.25" stroke-miterlimit="10" x1="425.389" y1="131.595" x2="448.791" y2="108.193"/>
<line fill="none" stroke="#000000" stroke-width="0.25" stroke-miterlimit="10" x1="425.336" y1="117.343" x2="448.739" y2="140.745"/>
<line fill="none" stroke="#000000" stroke-width="0.25" stroke-miterlimit="10" x1="422.838" y1="119.946" x2="446.24" y2="143.348"/>
<line fill="none" stroke="#000000" stroke-width="0.5" stroke-miterlimit="10" x1="290.667" y1="-57.557" x2="290.667" y2="288.444"/>
<line fill="none" stroke="#000000" stroke-width="0.5" stroke-miterlimit="10" x1="25.409" y1="122.721" x2="507.078" y2="122.721"/>
<line fill="none" stroke="#000000" stroke-width="0.25" stroke-miterlimit="10" x1="367.285" y1="146.913" x2="458.16" y2="146.913"/>
<line fill="none" stroke="#000000" stroke-width="0.25" stroke-miterlimit="10" x1="367.285" y1="157.643" x2="458.16" y2="157.643"/>
<line fill="none" stroke="#000000" stroke-width="0.25" stroke-miterlimit="10" x1="400.629" y1="143.364" x2="400.629" y2="161.063"/>
<line fill="none" stroke="#000000" stroke-width="0.25" stroke-miterlimit="10" x1="398.785" y1="143.364" x2="398.785" y2="161.063"/>
<line fill="none" stroke="#000000" stroke-width="0.25" stroke-miterlimit="10" x1="419.81" y1="143.364" x2="419.81" y2="161.063"/>
<line fill="none" stroke="#000000" stroke-width="0.25" stroke-miterlimit="10" x1="415.993" y1="143.364" x2="415.993" y2="161.063"/>
<line fill="none" stroke="#000000" stroke-width="0.25" stroke-miterlimit="10" x1="408.886" y1="143.364" x2="408.886" y2="161.063"/>
<line fill="none" stroke="#000000" stroke-width="0.25" stroke-miterlimit="10" x1="432.544" y1="143.364" x2="432.544" y2="161.063"/>
<line fill="none" stroke="#000000" stroke-width="0.25" stroke-miterlimit="10" x1="434.394" y1="143.364" x2="434.394" y2="161.063"/>
<line fill="none" stroke="#000000" stroke-width="0.25" stroke-miterlimit="10" x1="393.261" y1="143.348" x2="393.261" y2="161.047"/>
<line fill="none" stroke="#000000" stroke-width="0.25" stroke-miterlimit="10" x1="382.531" y1="143.348" x2="382.531" y2="161.047"/>
<circle fill="none" stroke="#000000" stroke-width="0.25" stroke-miterlimit="10" cx="441.763" cy="152.278" r="3.554"/>
<circle fill="none" stroke="#000000" stroke-width="0.25" stroke-miterlimit="10" cx="425.174" cy="152.278" r="3.554"/>
<circle fill="none" stroke="#000000" stroke-width="0.25" stroke-miterlimit="10" cx="412.439" cy="152.278" r="3.554"/>
<circle fill="none" stroke="#000000" stroke-width="0.25" stroke-miterlimit="10" cx="441.763" cy="152.278" r="5.399"/>
<line fill="none" stroke="#000000" stroke-width="0.25" stroke-miterlimit="10" x1="379.89" y1="151.354" x2="395.993" y2="151.354"/>
<line fill="none" stroke="#000000" stroke-width="0.25" stroke-miterlimit="10" x1="379.89" y1="153.152" x2="395.993" y2="153.152"/>
<rect y="-36.224" fill="#FFFFFF" width="581.333" height="11.333"/>
</svg>
