<?xml version="1.0" encoding="utf-8"?>
<!-- Generator: Adobe Illustrator 16.0.0, SVG Export Plug-In . SVG Version: 6.00 Build 0)  -->
<!DOCTYPE svg PUBLIC "-//W3C//DTD SVG 1.1//EN" "http://www.w3.org/Graphics/SVG/1.1/DTD/svg11.dtd">
<svg version="1.1" id="Layer_1" xmlns="http://www.w3.org/2000/svg" xmlns:xlink="http://www.w3.org/1999/xlink" x="0px" y="0px"
	 width="19.8px" height="19.8px" viewBox="0 0 19.8 19.8" enable-background="new 0 0 19.8 19.8" xml:space="preserve">
<g>
	<rect x="2.9" y="2.9" transform="matrix(-0.7071 0.7071 -0.7071 -0.7071 23.9009 9.9001)" width="14.001" height="14.001"/>
	<rect x="6.4" y="6.4" transform="matrix(-0.7071 0.7071 -0.7071 -0.7071 23.9013 9.9002)" fill="#FFFFFF" width="7" height="7"/>
	<polygon fill="#EDEDED" points="19.8,9.9 14.851,9.9 9.9,4.95 9.9,0 	"/>
	<polygon points="9.9,19.8 9.9,14.85 4.95,9.9 0,9.9 	"/>
	<polygon fill="#C6C6C6" points="19.8,9.9 14.851,9.9 9.9,14.85 9.9,19.8 	"/>
	<polygon points="4.95,9.9 0,9.9 9.9,0 9.9,4.95 	"/>
	<polygon fill="#3C3C3B" points="9.9,9.9 9.9,4.95 4.95,9.9 	"/>
	<polygon fill="#EDEDED" points="9.9,9.9 9.9,14.85 14.85,9.9 	"/>
	<polygon fill="#FFFFFF" points="9.9,9.9 14.85,9.9 9.9,4.95 	"/>
	<polygon fill="#575756" points="9.9,9.9 4.95,9.9 9.9,14.85 	"/>
</g>
</svg>
