<?xml version="1.0" encoding="utf-8"?>
<!-- Generator: Adobe Illustrator 16.0.0, SVG Export Plug-In . SVG Version: 6.00 Build 0)  -->
<!DOCTYPE svg PUBLIC "-//W3C//DTD SVG 1.1//EN" "http://www.w3.org/Graphics/SVG/1.1/DTD/svg11.dtd">
<svg version="1.1" id="Layer_1" xmlns="http://www.w3.org/2000/svg" xmlns:xlink="http://www.w3.org/1999/xlink" x="0px" y="0px"
	 width="389.92px" height="163.627px" viewBox="0 0 389.92 163.627" enable-background="new 0 0 389.92 163.627"
	 xml:space="preserve">
<g>
	<polygon fill="#EDEDED" points="276.737,81.784 235.848,81.784 194.952,40.893 194.952,0 	"/>
	<polygon points="194.952,163.57 194.952,122.678 154.061,81.784 113.167,81.784 	"/>
	<polygon fill="#C6C6C6" points="276.737,81.784 235.848,81.784 194.952,122.678 194.952,163.57 	"/>
	<polygon points="154.067,81.784 113.174,81.784 194.959,0 194.959,40.893 	"/>
</g>
<g>
	<polygon fill="#3C3C3B" points="194.962,81.784 194.962,40.893 154.07,81.784 	"/>
	<polygon fill="#EDEDED" points="194.956,81.784 194.956,122.678 235.849,81.784 	"/>
	<polygon fill="#FFFFFF" points="194.956,81.784 235.849,81.784 194.956,40.892 	"/>
	<polygon fill="#575756" points="194.956,81.784 154.063,81.784 194.956,122.678 	"/>
</g>
<g>
	
		<rect x="137.132" y="209.957" transform="matrix(0.7071 -0.7071 0.7071 0.7071 -132.2511 216.2946)" width="115.661" height="115.66"/>
	
		<rect x="166.049" y="238.877" transform="matrix(0.7071 -0.7071 0.7071 0.7071 -132.2539 216.2921)" fill="#FFFFFF" width="57.828" height="57.829"/>
	<polygon fill="#EDEDED" points="276.742,267.784 235.853,267.784 194.958,226.893 194.958,186 	"/>
	<polygon points="194.958,349.57 194.958,308.678 154.065,267.784 113.172,267.784 	"/>
	<polygon fill="#C6C6C6" points="276.742,267.784 235.853,267.784 194.958,308.678 194.958,349.57 	"/>
	<polygon points="154.065,267.784 113.172,267.784 194.958,186 194.958,226.893 	"/>
	<polygon fill="#3C3C3B" points="194.958,267.784 194.958,226.893 154.065,267.784 	"/>
	<polygon fill="#EDEDED" points="194.957,267.784 194.957,308.678 235.851,267.784 	"/>
	<polygon fill="#FFFFFF" points="194.958,267.784 235.851,267.784 194.958,226.892 	"/>
	<polygon fill="#575756" points="194.958,267.784 154.065,267.784 194.958,308.678 	"/>
</g>
<g>
	
		<rect x="110.499" y="-504.775" transform="matrix(0.7071 -0.7071 0.7071 0.7071 352.5933 18.8967)" width="177.216" height="177.214"/>
	
		<rect x="154.807" y="-460.472" transform="matrix(0.7071 -0.7071 0.7071 0.7071 352.5907 18.9008)" fill="#FFFFFF" width="88.607" height="88.607"/>
	<polygon fill="#EDEDED" points="324.416,-416.162 261.762,-416.162 199.104,-478.816 199.104,-541.473 	"/>
	<polygon points="199.104,-290.85 199.104,-353.506 136.449,-416.162 73.792,-416.162 	"/>
	<polygon fill="#C6C6C6" points="324.416,-416.162 261.762,-416.162 199.104,-353.506 199.104,-290.85 	"/>
	<polygon points="136.449,-416.162 73.792,-416.162 199.104,-541.473 199.104,-478.816 	"/>
	<polygon fill="#3C3C3B" points="199.104,-416.162 199.104,-478.816 136.449,-416.162 	"/>
	<polygon fill="#EDEDED" points="199.103,-416.162 199.103,-353.506 261.76,-416.162 	"/>
	<polygon fill="#FFFFFF" points="199.104,-416.162 261.76,-416.162 199.104,-478.819 	"/>
	<polygon fill="#575756" points="199.104,-416.162 136.449,-416.162 199.104,-353.506 	"/>
</g>
<g>
	<polygon fill="#C6C6C6" points="-1.188,-390.938 -40.533,-390.938 -40.533,-435.902 -35.049,-433.247 -35.049,-396.42 
		-3.845,-396.42 	"/>
	<rect x="7.724" y="-435.902" fill="#C6C6C6" width="5.483" height="44.967"/>
	<g>
		<path fill="#C6C6C6" d="M44.687-390.936h-0.085c-12.397,0-22.482-10.086-22.482-22.484c0-12.397,10.085-22.482,22.482-22.482
			h22.484l-2.656,5.484H44.601c-9.374,0-17,7.625-17,16.999s7.626,17,17,17h2.742L44.687-390.936z"/>
		<polygon fill="#C6C6C6" points="67.085,-393.592 61.601,-390.936 61.601,-410.677 41.86,-410.677 44.516,-416.161 
			67.085,-416.161 		"/>
	</g>
	<polygon fill="#C6C6C6" points="81.479,-416.161 81.479,-435.902 75.996,-435.902 75.996,-416.161 75.996,-410.677 
		75.996,-390.936 81.479,-390.936 81.479,-410.677 98.565,-410.677 101.221,-416.161 	"/>
	<g>
		<rect x="110.268" y="-416.161" fill="#C6C6C6" width="5.484" height="25.226"/>
		<rect x="110.268" y="-435.902" fill="#C6C6C6" width="5.484" height="25.226"/>
	</g>
	<polygon fill="#C6C6C6" points="147.15,-390.936 141.665,-390.936 141.665,-430.418 124.666,-430.418 124.666,-435.902 
		166.892,-435.902 164.234,-430.418 147.15,-430.418 	"/>
</g>
<path d="M256.447-390.936h-2.741v-5.484h2.741c9.372,0,17-7.626,17-17c0-9.373-7.628-16.999-17-16.999h-2.741v-5.484h2.741
	c12.396,0,22.481,10.085,22.481,22.482C278.93-401.021,268.845-390.936,256.447-390.936z"/>
<polygon points="259.188,-390.936 233.965,-390.936 233.965,-435.902 259.188,-435.902 259.188,-430.418 239.447,-430.418 
	239.447,-396.42 259.188,-396.42 "/>
<g>
	<path d="M332.81-410.677h-5.484v-2.743c0-9.373-7.625-16.999-17-16.999c-9.373,0-16.998,7.625-16.998,16.999v2.743h-5.484v-2.743
		c0-12.397,10.086-22.482,22.482-22.482c12.398,0,22.484,10.085,22.484,22.482V-410.677z"/>
	<polygon points="293.326,-390.936 287.842,-390.936 287.842,-410.677 293.548,-416.161 313.067,-416.161 310.42,-410.677 
		293.326,-410.677 	"/>
	<rect x="327.324" y="-410.677" width="5.483" height="19.741"/>
</g>
<rect x="393.743" y="-435.902" width="5.483" height="44.967"/>
<g>
	<path d="M368.326-410.665h-2.741v-5.485h2.741c3.932,0,7.13-3.197,7.13-7.128s-3.198-7.129-7.13-7.129h-2.741v-5.484h2.741
		c6.955,0,12.612,5.658,12.612,12.613C380.938-416.325,375.281-410.665,368.326-410.665z"/>
	<g>
		<polygon points="366.955,-435.892 335.974,-435.892 338.317,-430.408 366.955,-430.408 		"/>
		<polygon points="365.075,-410.665 366.955,-410.665 368.335,-416.15 351.836,-416.15 377.049,-390.936 384.805,-390.936 		"/>
	</g>
</g>
<polygon points="430.971,-390.936 408.488,-413.42 430.97,-435.901 438.725,-435.9 416.244,-413.42 438.742,-390.922 "/>
<g>
	<g>
		<rect x="196.363" y="-426.032" fill="#575756" width="5.483" height="15.355"/>
		<rect x="196.363" y="-416.161" fill="#575756" width="5.483" height="15.354"/>
	</g>
	<g>
		<rect x="186.492" y="-416.161" fill="#575756" width="15.354" height="5.484"/>
		<rect x="196.363" y="-416.161" fill="#575756" width="15.354" height="5.484"/>
	</g>
</g>
<rect x="-40.533" y="-564.569" fill="#E30613" width="239.64" height="6.667"/>
<rect x="199.103" y="-564.569" fill="#E30613" width="239.64" height="6.667"/>
<rect x="164.242" y="-552.595" fill="#009FE3" width="34.86" height="8"/>
<rect x="199.104" y="-552.595" fill="#009FE3" width="34.86" height="8"/>
<g>
	<polygon fill="#C6C6C6" points="66.651,-87.85 40.962,-87.85 40.962,-117.208 44.543,-115.473 44.543,-91.429 64.916,-91.429 	"/>
	<rect x="72.469" y="-117.208" fill="#C6C6C6" width="3.58" height="29.358"/>
	<g>
		<path fill="#C6C6C6" d="M96.601-87.849h-0.056c-8.094,0-14.678-6.585-14.678-14.681c0-8.094,6.584-14.678,14.678-14.678h14.679
			l-1.734,3.58H96.545c-6.12,0-11.099,4.979-11.099,11.098c0,6.121,4.979,11.1,11.099,11.1h1.79L96.601-87.849z"/>
		<polygon fill="#C6C6C6" points="111.225,-89.583 107.645,-87.849 107.645,-100.737 94.756,-100.737 96.49,-104.318 
			111.225,-104.318 		"/>
	</g>
	<polygon fill="#C6C6C6" points="120.623,-104.318 120.623,-117.208 117.042,-117.208 117.042,-104.318 117.042,-100.737 
		117.042,-87.849 120.623,-87.849 120.623,-100.737 131.777,-100.737 133.511,-104.318 	"/>
	<g>
		<rect x="139.418" y="-104.318" fill="#C6C6C6" width="3.581" height="16.469"/>
		<rect x="139.418" y="-117.208" fill="#C6C6C6" width="3.581" height="16.469"/>
	</g>
	<polygon fill="#C6C6C6" points="163.498,-87.849 159.917,-87.849 159.917,-113.627 148.818,-113.627 148.818,-117.208 
		176.387,-117.208 174.652,-113.627 163.498,-113.627 	"/>
</g>
<g>
	<path d="M234.856-87.849h-1.791v-3.581h1.791c6.119,0,11.099-4.979,11.099-11.1c0-6.12-4.979-11.098-11.099-11.098h-1.791v-3.58
		h1.791c8.094,0,14.679,6.584,14.679,14.678C249.535-94.434,242.95-87.849,234.856-87.849z"/>
	<polygon points="236.646,-87.849 220.178,-87.849 220.178,-117.208 236.646,-117.208 236.646,-113.627 223.758,-113.627 
		223.758,-91.429 236.646,-91.429 	"/>
	<g>
		<path d="M284.711-100.737h-3.58v-1.791c0-6.121-4.979-11.099-11.1-11.099c-6.119,0-11.099,4.979-11.099,11.099v1.791h-3.58v-1.791
			c0-8.095,6.586-14.679,14.679-14.679c8.096,0,14.68,6.584,14.68,14.679V-100.737z"/>
		<polygon points="258.935,-87.849 255.354,-87.849 255.354,-100.737 259.079,-104.318 271.822,-104.318 270.094,-100.737 
			258.935,-100.737 		"/>
		<rect x="281.131" y="-100.737" width="3.58" height="12.889"/>
	</g>
	<rect x="324.494" y="-117.208" width="3.58" height="29.358"/>
	<g>
		<path d="M307.899-100.731h-1.789v-3.582h1.789c2.566,0,4.655-2.087,4.655-4.654c0-2.566-2.089-4.654-4.655-4.654h-1.789v-3.581
			h1.789c4.541,0,8.234,3.694,8.234,8.235C316.135-104.425,312.44-100.731,307.899-100.731z"/>
		<g>
			<polygon points="307.005,-117.2 286.776,-117.2 288.308,-113.62 307.005,-113.62 			"/>
			<polygon points="305.776,-100.731 307.005,-100.731 307.906,-104.311 297.134,-104.311 313.596,-87.849 318.659,-87.849 			"/>
		</g>
	</g>
	<polygon points="348.8,-87.849 334.121,-102.528 348.799,-117.207 353.862,-117.206 339.187,-102.528 353.874,-87.84 	"/>
</g>
<g>
	<path fill="#EACE76" d="M331.925-69.397h-5.365v-10.729h5.365c2.958,0,5.364,2.407,5.364,5.366
		C337.289-71.802,334.883-69.397,331.925-69.397z M328.409-71.247h3.516c1.938,0,3.516-1.576,3.516-3.514s-1.577-3.516-3.516-3.516
		h-3.516V-71.247z"/>
	<path fill="#EACE76" d="M319.188-69.397c-2.957,0-5.363-2.405-5.363-5.363v-5.366h1.85v5.366c0,1.938,1.577,3.514,3.516,3.514
		c1.938,0,3.516-1.576,3.516-3.514v-5.366h1.85v5.366C324.555-71.802,322.147-69.397,319.188-69.397z"/>
	<path fill="#EACE76" d="M296.866-69.397h-7.585l0.598-1.85h6.987c0.714,0,1.295-0.58,1.295-1.295c0-0.714-0.581-1.295-1.295-1.295
		h-4.44c-1.733,0-3.145-1.411-3.145-3.145c0-1.734,1.411-3.146,3.145-3.146h7.585l-0.597,1.852h-6.988
		c-0.714,0-1.295,0.58-1.295,1.295c0,0.714,0.581,1.295,1.295,1.295h4.44c1.734,0,3.145,1.41,3.145,3.145
		C300.011-70.806,298.601-69.397,296.866-69.397z"/>
	<polygon fill="#EACE76" points="307.381,-69.397 305.53,-69.397 305.53,-78.276 302.017,-78.276 302.017,-80.126 311.82,-80.126 
		311.224,-78.276 307.381,-78.276 	"/>
	<rect x="339.294" y="-80.126" fill="#EACE76" width="1.85" height="10.729"/>
	<path fill="#EACE76" d="M348.515-69.397c-2.959,0-5.367-2.405-5.367-5.363c0-2.959,2.408-5.366,5.367-5.366
		c2.957,0,5.363,2.407,5.363,5.366C353.878-71.802,351.472-69.397,348.515-69.397z M348.515-78.276
		c-1.938,0-3.517,1.576-3.517,3.516c0,1.938,1.577,3.514,3.517,3.514c1.938,0,3.515-1.576,3.515-3.514
		C352.028-76.698,350.452-78.276,348.515-78.276z"/>
</g>
<rect y="-25.02" fill="#FFFFFF" width="389.92" height="5"/>
</svg>
