<?xml version="1.0" encoding="utf-8"?>
<!-- Generator: Adobe Illustrator 16.0.0, SVG Export Plug-In . SVG Version: 6.00 Build 0)  -->
<!DOCTYPE svg PUBLIC "-//W3C//DTD SVG 1.1//EN" "http://www.w3.org/Graphics/SVG/1.1/DTD/svg11.dtd">
<svg version="1.1" id="Layer_1" xmlns="http://www.w3.org/2000/svg" xmlns:xlink="http://www.w3.org/1999/xlink" x="0px" y="0px"
	 width="581.333px" height="256.649px" viewBox="0 0 581.333 256.649" enable-background="new 0 0 581.333 256.649"
	 xml:space="preserve">
<g>
	
		<rect x="232.817" y="64.869" transform="matrix(-0.7071 0.7071 -0.7071 -0.7071 582.9791 3.9657)" width="115.703" height="115.702"/>
	
		<rect x="261.743" y="93.795" transform="matrix(-0.7071 0.7071 -0.7071 -0.7071 582.9807 3.966)" fill="#FFFFFF" width="57.851" height="57.851"/>
	<polygon fill="#EDEDED" points="372.482,122.72 331.576,122.72 290.669,81.814 290.669,40.907 	"/>
	<polygon points="290.669,204.534 290.669,163.627 249.762,122.72 208.854,122.72 	"/>
	<polygon fill="#C6C6C6" points="372.482,122.72 331.576,122.72 290.669,163.627 290.669,204.534 	"/>
	<polygon points="249.762,122.72 208.854,122.72 290.669,40.907 290.669,81.814 	"/>
	<polygon fill="#3C3C3B" points="290.669,122.72 290.669,81.814 249.762,122.72 	"/>
	<polygon fill="#EDEDED" points="290.667,122.72 290.667,163.627 331.575,122.72 	"/>
	<polygon fill="#FFFFFF" points="290.669,122.72 331.575,122.72 290.669,81.812 	"/>
	<polygon fill="#575756" points="290.669,122.72 249.762,122.72 290.669,163.627 	"/>
</g>
<g>
	<polygon fill="#C6C6C6" points="159.901,139.189 134.212,139.189 134.212,109.832 137.793,111.566 137.793,135.61 158.166,135.61 	
		"/>
	<rect x="165.719" y="109.832" fill="#C6C6C6" width="3.58" height="29.358"/>
	<g>
		<path fill="#C6C6C6" d="M189.851,139.19h-0.056c-8.094,0-14.678-6.585-14.678-14.68c0-8.094,6.584-14.678,14.678-14.678h14.679
			l-1.734,3.58h-12.945c-6.12,0-11.099,4.979-11.099,11.098c0,6.12,4.979,11.1,11.099,11.1h1.79L189.851,139.19z"/>
		<polygon fill="#C6C6C6" points="204.475,137.456 200.895,139.19 200.895,126.301 188.006,126.301 189.74,122.721 204.475,122.721 
					"/>
	</g>
	<polygon fill="#C6C6C6" points="213.873,122.721 213.873,109.832 210.292,109.832 210.292,122.721 210.292,126.301 210.292,139.19 
		213.873,139.19 213.873,126.301 225.027,126.301 226.761,122.721 	"/>
	<g>
		<rect x="232.668" y="122.721" fill="#C6C6C6" width="3.581" height="16.469"/>
		<rect x="232.668" y="109.832" fill="#C6C6C6" width="3.581" height="16.469"/>
	</g>
	<polygon fill="#C6C6C6" points="256.748,139.19 253.167,139.19 253.167,113.412 242.068,113.412 242.068,109.832 269.637,109.832 
		267.902,113.412 256.748,113.412 	"/>
</g>
<g>
	<path d="M328.106,139.19h-1.79v-3.58h1.79c6.119,0,11.099-4.979,11.099-11.1c0-6.12-4.979-11.098-11.099-11.098h-1.79v-3.58h1.79
		c8.094,0,14.679,6.584,14.679,14.678C342.785,132.605,336.2,139.19,328.106,139.19z"/>
	<polygon points="329.896,139.19 313.428,139.19 313.428,109.832 329.896,109.832 329.896,113.412 317.008,113.412 317.008,135.61 
		329.896,135.61 	"/>
	<g>
		<path d="M377.961,126.301h-3.58v-1.791c0-6.12-4.979-11.098-11.1-11.098c-6.119,0-11.098,4.979-11.098,11.098v1.791h-3.58v-1.791
			c0-8.094,6.585-14.678,14.678-14.678c8.096,0,14.68,6.584,14.68,14.678V126.301z"/>
		<polygon points="352.184,139.19 348.604,139.19 348.604,126.301 352.329,122.721 365.072,122.721 363.344,126.301 
			352.184,126.301 		"/>
		<rect x="374.381" y="126.301" width="3.58" height="12.889"/>
	</g>
	<rect x="417.744" y="109.832" width="3.58" height="29.358"/>
	<g>
		<path d="M401.15,126.309h-1.789v-3.582h1.789c2.566,0,4.656-2.087,4.656-4.654c0-2.566-2.09-4.654-4.656-4.654h-1.789v-3.581
			h1.789c4.541,0,8.234,3.694,8.234,8.235C409.385,122.614,405.691,126.309,401.15,126.309z"/>
		<g>
			<polygon points="400.256,109.839 380.027,109.839 381.559,113.419 400.256,113.419 			"/>
			<polygon points="399.027,126.309 400.256,126.309 401.156,122.728 390.385,122.728 406.846,139.19 411.91,139.19 			"/>
		</g>
	</g>
	<polygon points="442.051,139.19 427.371,124.51 442.049,109.833 447.113,109.833 432.436,124.51 447.125,139.199 	"/>
</g>
<g>
	<path fill="#EACE76" d="M425.176,157.643h-5.365v-10.73h5.365c2.957,0,5.363,2.407,5.363,5.366
		C430.539,155.237,428.133,157.643,425.176,157.643z M421.66,155.793h3.516c1.938,0,3.514-1.577,3.514-3.515
		c0-1.938-1.576-3.516-3.514-3.516h-3.516V155.793z"/>
	<path fill="#EACE76" d="M412.439,157.643c-2.957,0-5.363-2.406-5.363-5.364v-5.366h1.85v5.366c0,1.938,1.576,3.515,3.514,3.515
		c1.939,0,3.516-1.577,3.516-3.515v-5.366h1.85v5.366C417.805,155.237,415.398,157.643,412.439,157.643z"/>
	<path fill="#EACE76" d="M390.117,157.643h-7.586l0.598-1.85h6.988c0.713,0,1.295-0.581,1.295-1.295
		c0-0.715-0.582-1.295-1.295-1.295h-4.441c-1.732,0-3.145-1.412-3.145-3.146c0-1.734,1.412-3.146,3.145-3.146h7.586l-0.598,1.851
		h-6.988c-0.713,0-1.295,0.581-1.295,1.295s0.582,1.296,1.295,1.296h4.441c1.734,0,3.145,1.41,3.145,3.145
		S391.852,157.643,390.117,157.643z"/>
	<polygon fill="#EACE76" points="400.631,157.643 398.781,157.643 398.781,148.763 395.266,148.763 395.266,146.913 405.07,146.913 
		404.475,148.763 400.631,148.763 	"/>
	<rect x="432.545" y="146.913" fill="#EACE76" width="1.85" height="10.73"/>
	<path fill="#EACE76" d="M441.764,157.643c-2.957,0-5.365-2.406-5.365-5.364c0-2.959,2.408-5.366,5.365-5.366
		c2.959,0,5.365,2.407,5.365,5.366C447.129,155.237,444.723,157.643,441.764,157.643z M441.764,148.763
		c-1.938,0-3.516,1.577-3.516,3.516c0,1.938,1.578,3.515,3.516,3.515c1.939,0,3.516-1.577,3.516-3.515
		C445.279,150.34,443.703,148.763,441.764,148.763z"/>
</g>
<rect y="-36.224" fill="#FFFFFF" width="581.333" height="11.333"/>
</svg>
