<?xml version="1.0" encoding="utf-8"?>
<!-- Generator: Adobe Illustrator 16.0.0, SVG Export Plug-In . SVG Version: 6.00 Build 0)  -->
<!DOCTYPE svg PUBLIC "-//W3C//DTD SVG 1.1//EN" "http://www.w3.org/Graphics/SVG/1.1/DTD/svg11.dtd">
<svg version="1.1" id="Layer_1" xmlns="http://www.w3.org/2000/svg" xmlns:xlink="http://www.w3.org/1999/xlink" x="0px" y="0px"
	 width="389.92px" height="163.627px" viewBox="0 0 389.92 163.627" enable-background="new 0 0 389.92 163.627"
	 xml:space="preserve">
<g>
	
		<rect x="501.902" y="363.872" transform="matrix(-0.7071 0.7071 -0.7071 -0.7071 1328.017 354.8825)" width="177.217" height="177.216"/>
	
		<rect x="546.208" y="408.176" transform="matrix(-0.7071 0.7071 -0.7071 -0.7071 1328.0194 354.8874)" fill="#FFFFFF" width="88.608" height="88.608"/>
	<polygon fill="#EDEDED" points="715.822,452.479 653.168,452.479 590.512,389.825 590.512,327.169 	"/>
	<polygon points="590.512,577.792 590.512,515.136 527.855,452.479 465.199,452.479 	"/>
	<polygon fill="#C6C6C6" points="715.822,452.479 653.168,452.479 590.512,515.136 590.512,577.792 	"/>
	<polygon points="527.855,452.479 465.199,452.479 590.512,327.169 590.512,389.825 	"/>
	<polygon fill="#3C3C3B" points="590.512,452.479 590.512,389.825 527.855,452.479 	"/>
	<polygon fill="#EDEDED" points="590.51,452.479 590.51,515.136 653.166,452.479 	"/>
	<polygon fill="#FFFFFF" points="590.512,452.479 653.166,452.479 590.512,389.823 	"/>
	<polygon fill="#575756" points="590.512,452.479 527.855,452.479 590.512,515.136 	"/>
</g>
<g>
	
		<rect x="110.495" y="-504.77" transform="matrix(-0.7071 0.7071 -0.7071 -0.7071 45.6254 -851.2227)" width="177.218" height="177.216"/>
	
		<rect x="154.801" y="-460.466" transform="matrix(-0.7071 0.7071 -0.7071 -0.7071 45.63 -851.2244)" fill="#FFFFFF" width="88.608" height="88.608"/>
	<polygon fill="#EDEDED" points="324.416,-416.162 261.762,-416.162 199.105,-478.816 199.105,-541.473 	"/>
	<polygon points="199.105,-290.85 199.105,-353.506 136.449,-416.162 73.792,-416.162 	"/>
	<polygon fill="#C6C6C6" points="324.416,-416.162 261.762,-416.162 199.105,-353.506 199.105,-290.85 	"/>
	<polygon points="136.449,-416.162 73.792,-416.162 199.105,-541.473 199.105,-478.816 	"/>
	<polygon fill="#3C3C3B" points="199.105,-416.162 199.105,-478.816 136.449,-416.162 	"/>
	<polygon fill="#EDEDED" points="199.103,-416.162 199.103,-353.506 261.76,-416.162 	"/>
	<polygon fill="#FFFFFF" points="199.105,-416.162 261.76,-416.162 199.105,-478.819 	"/>
	<polygon fill="#575756" points="199.105,-416.162 136.449,-416.162 199.105,-353.506 	"/>
</g>
<g>
	<polygon fill="#C6C6C6" points="-1.188,-390.938 -40.533,-390.938 -40.533,-435.902 -35.049,-433.247 -35.049,-396.42 
		-3.845,-396.42 	"/>
	<rect x="7.724" y="-435.902" fill="#C6C6C6" width="5.483" height="44.967"/>
	<g>
		<path fill="#C6C6C6" d="M44.687-390.936h-0.085c-12.397,0-22.482-10.086-22.482-22.484c0-12.397,10.085-22.482,22.482-22.482
			h22.484l-2.656,5.484H44.601c-9.374,0-17,7.625-17,16.999c0,9.374,7.626,17,17,17h2.742L44.687-390.936z"/>
		<polygon fill="#C6C6C6" points="67.085,-393.592 61.601,-390.936 61.601,-410.677 41.86,-410.677 44.516,-416.161 
			67.085,-416.161 		"/>
	</g>
	<polygon fill="#C6C6C6" points="81.479,-416.161 81.479,-435.902 75.996,-435.902 75.996,-416.161 75.996,-410.677 
		75.996,-390.936 81.479,-390.936 81.479,-410.677 98.565,-410.677 101.221,-416.161 	"/>
	<g>
		<rect x="110.268" y="-416.161" fill="#C6C6C6" width="5.484" height="25.226"/>
		<rect x="110.268" y="-435.902" fill="#C6C6C6" width="5.484" height="25.226"/>
	</g>
	<polygon fill="#C6C6C6" points="147.15,-390.936 141.665,-390.936 141.665,-430.418 124.666,-430.418 124.666,-435.902 
		166.892,-435.902 164.234,-430.418 147.15,-430.418 	"/>
</g>
<path d="M256.447-390.936h-2.741v-5.484h2.741c9.373,0,17-7.626,17-17c0-9.373-7.627-16.999-17-16.999h-2.741v-5.484h2.741
	c12.397,0,22.482,10.085,22.482,22.482C278.93-401.021,268.845-390.936,256.447-390.936z"/>
<polygon points="259.188,-390.936 233.965,-390.936 233.965,-435.902 259.188,-435.902 259.188,-430.418 239.447,-430.418 
	239.447,-396.42 259.188,-396.42 "/>
<g>
	<path d="M332.809-410.677h-5.484v-2.743c0-9.373-7.625-16.999-17-16.999c-9.373,0-16.998,7.625-16.998,16.999v2.743h-5.484v-2.743
		c0-12.397,10.086-22.482,22.482-22.482c12.398,0,22.484,10.085,22.484,22.482V-410.677z"/>
	<polygon points="293.326,-390.936 287.842,-390.936 287.842,-410.677 293.548,-416.161 313.067,-416.161 310.42,-410.677 
		293.326,-410.677 	"/>
	<rect x="327.324" y="-410.677" width="5.484" height="19.741"/>
</g>
<rect x="393.743" y="-435.902" width="5.483" height="44.967"/>
<g>
	<path d="M368.326-410.665h-2.741v-5.485h2.741c3.932,0,7.13-3.197,7.13-7.128s-3.198-7.129-7.13-7.129h-2.741v-5.484h2.741
		c6.955,0,12.613,5.658,12.613,12.613C380.939-416.325,375.281-410.665,368.326-410.665z"/>
	<g>
		<polygon points="366.955,-435.892 335.973,-435.892 338.317,-430.408 366.955,-430.408 		"/>
		<polygon points="365.075,-410.665 366.955,-410.665 368.335,-416.15 351.836,-416.15 377.049,-390.936 384.805,-390.936 		"/>
	</g>
</g>
<polygon points="430.971,-390.936 408.488,-413.42 430.97,-435.901 438.725,-435.9 416.244,-413.42 438.742,-390.922 "/>
<g>
	<g>
		<rect x="196.363" y="-426.032" fill="#575756" width="5.484" height="15.355"/>
		<rect x="196.363" y="-416.161" fill="#575756" width="5.484" height="15.354"/>
	</g>
	<g>
		<rect x="186.492" y="-416.161" fill="#575756" width="15.354" height="5.484"/>
		<rect x="196.363" y="-416.161" fill="#575756" width="15.355" height="5.484"/>
	</g>
</g>
<rect x="-40.533" y="-564.569" fill="#E30613" width="239.639" height="6.667"/>
<rect x="199.103" y="-564.569" fill="#E30613" width="239.639" height="6.667"/>
<rect x="164.242" y="-552.595" fill="#009FE3" width="34.861" height="8"/>
<rect x="199.104" y="-552.595" fill="#009FE3" width="34.861" height="8"/>
<g>
	<polygon fill="#C6C6C6" points="66.651,98.282 40.962,98.282 40.962,68.925 44.543,70.659 44.543,94.703 64.916,94.703 	"/>
	<rect x="72.469" y="68.925" fill="#C6C6C6" width="3.58" height="29.358"/>
	<g>
		<path fill="#C6C6C6" d="M96.601,98.283h-0.056c-8.094,0-14.678-6.585-14.678-14.68c0-8.094,6.584-14.678,14.678-14.678h14.679
			l-1.734,3.58H96.545c-6.12,0-11.099,4.979-11.099,11.098c0,6.12,4.979,11.099,11.099,11.099h1.79L96.601,98.283z"/>
		<polygon fill="#C6C6C6" points="111.225,96.549 107.645,98.283 107.645,85.395 94.756,85.395 96.49,81.814 111.225,81.814 		"/>
	</g>
	<polygon fill="#C6C6C6" points="120.623,81.814 120.623,68.925 117.042,68.925 117.042,81.814 117.042,85.395 117.042,98.283 
		120.623,98.283 120.623,85.395 131.777,85.395 133.511,81.814 	"/>
	<g>
		<rect x="139.418" y="81.814" fill="#C6C6C6" width="3.581" height="16.469"/>
		<rect x="139.418" y="68.925" fill="#C6C6C6" width="3.581" height="16.469"/>
	</g>
	<polygon fill="#C6C6C6" points="163.498,98.283 159.917,98.283 159.917,72.505 148.818,72.505 148.818,68.925 176.387,68.925 
		174.652,72.505 163.498,72.505 	"/>
</g>
<g>
	<path d="M234.856,98.283h-1.79v-3.581h1.79c6.119,0,11.099-4.979,11.099-11.099c0-6.12-4.979-11.098-11.099-11.098h-1.79v-3.58
		h1.79c8.094,0,14.679,6.584,14.679,14.678C249.535,91.698,242.95,98.283,234.856,98.283z"/>
	<polygon points="236.646,98.283 220.178,98.283 220.178,68.925 236.646,68.925 236.646,72.505 223.758,72.505 223.758,94.703 
		236.646,94.703 	"/>
	<g>
		<path d="M284.711,85.395h-3.58v-1.791c0-6.12-4.979-11.098-11.1-11.098c-6.119,0-11.098,4.979-11.098,11.098v1.791h-3.58v-1.791
			c0-8.094,6.585-14.678,14.678-14.678c8.096,0,14.68,6.584,14.68,14.678V85.395z"/>
		<polygon points="258.934,98.283 255.354,98.283 255.354,85.395 259.079,81.814 271.822,81.814 270.094,85.395 258.934,85.395 		
			"/>
		<rect x="281.131" y="85.395" width="3.58" height="12.889"/>
	</g>
	<rect x="324.494" y="68.925" width="3.58" height="29.358"/>
	<g>
		<path d="M307.9,85.402h-1.79v-3.582h1.79c2.566,0,4.655-2.087,4.655-4.654c0-2.566-2.089-4.654-4.655-4.654h-1.79v-3.581h1.79
			c4.541,0,8.234,3.694,8.234,8.235C316.135,81.707,312.441,85.402,307.9,85.402z"/>
		<g>
			<polygon points="307.005,68.932 286.777,68.932 288.308,72.513 307.005,72.513 			"/>
			<polygon points="305.777,85.402 307.005,85.402 307.906,81.821 297.134,81.821 313.596,98.283 318.659,98.283 			"/>
		</g>
	</g>
	<polygon points="348.8,98.283 334.121,83.604 348.799,68.926 353.862,68.927 339.186,83.604 353.874,98.292 	"/>
</g>
<g>
	<path fill="#EACE76" d="M331.925,116.736h-5.365v-10.73h5.365c2.958,0,5.364,2.407,5.364,5.366
		C337.289,114.33,334.883,116.736,331.925,116.736z M328.409,114.886h3.516c1.938,0,3.515-1.577,3.515-3.514
		c0-1.938-1.577-3.516-3.515-3.516h-3.516V114.886z"/>
	<path fill="#EACE76" d="M319.189,116.736c-2.958,0-5.364-2.406-5.364-5.364v-5.366h1.85v5.366c0,1.938,1.577,3.514,3.515,3.514
		c1.938,0,3.516-1.577,3.516-3.514v-5.366h1.85v5.366C324.555,114.33,322.148,116.736,319.189,116.736z"/>
	<path fill="#EACE76" d="M296.866,116.736h-7.585l0.598-1.85h6.987c0.714,0,1.295-0.581,1.295-1.295s-0.581-1.295-1.295-1.295h-4.44
		c-1.733,0-3.145-1.411-3.145-3.145c0-1.734,1.411-3.146,3.145-3.146h7.585l-0.597,1.851h-6.988c-0.714,0-1.295,0.581-1.295,1.295
		c0,0.714,0.581,1.295,1.295,1.295h4.44c1.734,0,3.145,1.41,3.145,3.145S298.601,116.736,296.866,116.736z"/>
	<polygon fill="#EACE76" points="307.381,116.736 305.53,116.736 305.53,107.856 302.016,107.856 302.016,106.006 311.82,106.006 
		311.224,107.856 307.381,107.856 	"/>
	<rect x="339.294" y="106.006" fill="#EACE76" width="1.85" height="10.73"/>
	<path fill="#EACE76" d="M348.514,116.736c-2.958,0-5.366-2.406-5.366-5.364c0-2.959,2.408-5.366,5.366-5.366
		s5.364,2.407,5.364,5.366C353.878,114.33,351.472,116.736,348.514,116.736z M348.514,107.856c-1.938,0-3.516,1.577-3.516,3.516
		c0,1.938,1.577,3.514,3.516,3.514s3.515-1.577,3.515-3.514C352.028,109.434,350.452,107.856,348.514,107.856z"/>
</g>
</svg>
