<?xml version="1.0" encoding="utf-8"?>
<!-- Generator: Adobe Illustrator 16.0.0, SVG Export Plug-In . SVG Version: 6.00 Build 0)  -->
<!DOCTYPE svg PUBLIC "-//W3C//DTD SVG 1.1//EN" "http://www.w3.org/Graphics/SVG/1.1/DTD/svg11.dtd">
<svg version="1.1" id="Layer_1" xmlns="http://www.w3.org/2000/svg" xmlns:xlink="http://www.w3.org/1999/xlink" x="0px" y="0px"
	 width="841.89px" height="595.28px" viewBox="0 0 841.89 595.28" enable-background="new 0 0 841.89 595.28" xml:space="preserve">
<g>
	
		<rect x="361.407" y="240.759" transform="matrix(-0.7071 0.7071 -0.7071 -0.7071 926.8685 213.3041)" width="115.703" height="115.702"/>
	
		<rect x="390.333" y="269.685" transform="matrix(-0.7071 0.7071 -0.7071 -0.7071 926.8699 213.3051)" fill="#FFFFFF" width="57.851" height="57.851"/>
	<polygon fill="#EDEDED" points="501.072,298.61 460.166,298.61 419.259,257.704 419.259,216.797 	"/>
	<polygon points="419.259,380.424 419.259,339.518 378.352,298.61 337.444,298.61 	"/>
	<polygon fill="#C6C6C6" points="501.072,298.61 460.166,298.61 419.259,339.518 419.259,380.424 	"/>
	<polygon points="378.352,298.61 337.444,298.61 419.259,216.797 419.259,257.704 	"/>
	<polygon fill="#3C3C3B" points="419.259,298.61 419.259,257.704 378.352,298.61 	"/>
	<polygon fill="#EDEDED" points="419.257,298.61 419.257,339.518 460.165,298.61 	"/>
	<polygon fill="#FFFFFF" points="419.259,298.61 460.165,298.61 419.259,257.703 	"/>
	<polygon fill="#575756" points="419.259,298.61 378.352,298.61 419.259,339.518 	"/>
</g>
<g>
	<polygon fill="#C6C6C6" points="288.491,315.079 262.802,315.079 262.802,285.722 266.383,287.456 266.383,311.5 286.756,311.5 	
		"/>
	<rect x="294.309" y="285.722" fill="#C6C6C6" width="3.58" height="29.358"/>
	<g>
		<path fill="#C6C6C6" d="M318.441,315.08h-0.056c-8.094,0-14.678-6.585-14.678-14.68c0-8.094,6.584-14.678,14.678-14.678h14.679
			l-1.734,3.58h-12.945c-6.12,0-11.099,4.979-11.099,11.098c0,6.12,4.979,11.1,11.099,11.1h1.79L318.441,315.08z"/>
		<polygon fill="#C6C6C6" points="333.064,313.346 329.484,315.08 329.484,302.191 316.596,302.191 318.33,298.611 333.064,298.611 
					"/>
	</g>
	<polygon fill="#C6C6C6" points="342.462,298.611 342.462,285.722 338.882,285.722 338.882,298.611 338.882,302.191 338.882,315.08 
		342.462,315.08 342.462,302.191 353.617,302.191 355.351,298.611 	"/>
	<g>
		<rect x="361.258" y="298.611" fill="#C6C6C6" width="3.581" height="16.469"/>
		<rect x="361.258" y="285.722" fill="#C6C6C6" width="3.581" height="16.469"/>
	</g>
	<polygon fill="#C6C6C6" points="385.338,315.08 381.757,315.08 381.757,289.302 370.658,289.302 370.658,285.722 398.227,285.722 
		396.492,289.302 385.338,289.302 	"/>
</g>
<g>
	<path d="M456.696,315.08h-1.79v-3.58h1.79c6.119,0,11.099-4.979,11.099-11.1c0-6.12-4.979-11.098-11.099-11.098h-1.79v-3.58h1.79
		c8.094,0,14.679,6.584,14.679,14.678C471.375,308.495,464.79,315.08,456.696,315.08z"/>
	<polygon points="458.486,315.08 442.018,315.08 442.018,285.722 458.486,285.722 458.486,289.302 445.598,289.302 445.598,311.5 
		458.486,311.5 	"/>
	<g>
		<path d="M506.551,302.191h-3.58V300.4c0-6.12-4.979-11.098-11.1-11.098c-6.119,0-11.098,4.979-11.098,11.098v1.791h-3.58V300.4
			c0-8.094,6.585-14.678,14.678-14.678c8.096,0,14.68,6.584,14.68,14.678V302.191z"/>
		<polygon points="480.773,315.08 477.193,315.08 477.193,302.191 480.919,298.611 493.662,298.611 491.934,302.191 
			480.773,302.191 		"/>
		<rect x="502.971" y="302.191" width="3.58" height="12.889"/>
	</g>
	<rect x="546.334" y="285.722" width="3.58" height="29.358"/>
	<g>
		<path d="M529.74,302.199h-1.789v-3.582h1.789c2.566,0,4.656-2.087,4.656-4.654c0-2.566-2.09-4.654-4.656-4.654h-1.789v-3.581
			h1.789c4.541,0,8.234,3.694,8.234,8.235C537.975,298.504,534.281,302.199,529.74,302.199z"/>
		<g>
			<polygon points="528.846,285.729 508.617,285.729 510.148,289.31 528.846,289.31 			"/>
			<polygon points="527.617,302.199 528.846,302.199 529.746,298.618 518.975,298.618 535.436,315.08 540.5,315.08 			"/>
		</g>
	</g>
	<polygon points="570.641,315.08 555.961,300.4 570.639,285.723 575.703,285.724 561.025,300.4 575.715,315.089 	"/>
</g>
<g>
	<path fill="#EACE76" d="M553.766,333.533H548.4v-10.73h5.365c2.957,0,5.363,2.407,5.363,5.366
		C559.129,331.127,556.723,333.533,553.766,333.533z M550.25,331.684h3.516c1.938,0,3.514-1.577,3.514-3.515
		c0-1.938-1.576-3.516-3.514-3.516h-3.516V331.684z"/>
	<path fill="#EACE76" d="M541.029,333.533c-2.957,0-5.363-2.406-5.363-5.364v-5.366h1.85v5.366c0,1.938,1.576,3.515,3.514,3.515
		c1.939,0,3.516-1.577,3.516-3.515v-5.366h1.85v5.366C546.395,331.127,543.988,333.533,541.029,333.533z"/>
	<path fill="#EACE76" d="M518.707,333.533h-7.586l0.598-1.85h6.988c0.713,0,1.295-0.581,1.295-1.295
		c0-0.715-0.582-1.295-1.295-1.295h-4.441c-1.732,0-3.145-1.412-3.145-3.146c0-1.734,1.412-3.146,3.145-3.146h7.586l-0.598,1.851
		h-6.988c-0.713,0-1.295,0.581-1.295,1.295s0.582,1.296,1.295,1.296h4.441c1.734,0,3.145,1.41,3.145,3.145
		S520.441,333.533,518.707,333.533z"/>
	<polygon fill="#EACE76" points="529.221,333.533 527.371,333.533 527.371,324.653 523.855,324.653 523.855,322.803 533.66,322.803 
		533.064,324.653 529.221,324.653 	"/>
	<rect x="561.135" y="322.803" fill="#EACE76" width="1.85" height="10.73"/>
	<path fill="#EACE76" d="M570.354,333.533c-2.957,0-5.365-2.406-5.365-5.364c0-2.959,2.408-5.366,5.365-5.366
		c2.959,0,5.365,2.407,5.365,5.366C575.719,331.127,573.312,333.533,570.354,333.533z M570.354,324.653
		c-1.938,0-3.516,1.577-3.516,3.516c0,1.938,1.578,3.515,3.516,3.515c1.939,0,3.516-1.577,3.516-3.515
		C573.869,326.23,572.293,324.653,570.354,324.653z"/>
</g>
<line fill="none" stroke="#000000" stroke-width="0.5" stroke-miterlimit="10" x1="378.352" y1="175.89" x2="573.5" y2="371.039"/>
<line fill="none" stroke="#000000" stroke-width="0.5" stroke-miterlimit="10" x1="357.926" y1="196.316" x2="553.074" y2="391.465"/>
<line fill="none" stroke="#000000" stroke-width="0.5" stroke-miterlimit="10" x1="534.591" y1="265.092" x2="364.509" y2="435.175"/>
<line fill="none" stroke="#000000" stroke-width="0.5" stroke-miterlimit="10" x1="534.845" y1="223.92" x2="364.763" y2="394.003"/>
<line fill="none" stroke="#000000" stroke-width="0.5" stroke-miterlimit="10" x1="493.541" y1="183.396" x2="323.459" y2="353.479"/>
<line fill="none" stroke="#000000" stroke-width="0.5" stroke-miterlimit="10" x1="146" y1="285.722" x2="727.333" y2="285.722"/>
<line fill="none" stroke="#000000" stroke-width="0.5" stroke-miterlimit="10" x1="146" y1="315.08" x2="727.333" y2="315.08"/>
<line fill="none" stroke="#000000" stroke-width="0.5" stroke-miterlimit="10" x1="429.056" y1="207" x2="241.527" y2="394.527"/>
<line fill="none" stroke="#000000" stroke-width="0.5" stroke-miterlimit="10" x1="293.881" y1="255.048" x2="471.375" y2="432.539"/>
<line fill="none" stroke="#000000" stroke-width="0.5" stroke-miterlimit="10" x1="314.377" y1="234.645" x2="491.871" y2="412.136"/>
<line fill="none" stroke="#000000" stroke-width="0.25" stroke-miterlimit="10" x1="262.802" y1="276.625" x2="262.802" y2="324.375"/>
<line fill="none" stroke="#000000" stroke-width="0.25" stroke-miterlimit="10" x1="266.375" y1="276.625" x2="266.375" y2="324.375"/>
<line fill="none" stroke="#000000" stroke-width="0.25" stroke-miterlimit="10" x1="294.312" y1="276.625" x2="294.312" y2="324.375"/>
<line fill="none" stroke="#000000" stroke-width="0.25" stroke-miterlimit="10" x1="297.885" y1="276.625" x2="297.885" y2="324.375"/>
<line fill="none" stroke="#000000" stroke-width="0.25" stroke-miterlimit="10" x1="329.492" y1="276.625" x2="329.492" y2="324.375"/>
<line fill="none" stroke="#000000" stroke-width="0.25" stroke-miterlimit="10" x1="333.064" y1="276.625" x2="333.064" y2="324.375"/>
<line fill="none" stroke="#000000" stroke-width="0.25" stroke-miterlimit="10" x1="338.882" y1="276.625" x2="338.882" y2="324.375"/>
<line fill="none" stroke="#000000" stroke-width="0.25" stroke-miterlimit="10" x1="342.455" y1="276.625" x2="342.455" y2="324.375"/>
<line fill="none" stroke="#000000" stroke-width="0.25" stroke-miterlimit="10" x1="338.882" y1="276.625" x2="338.882" y2="324.375"/>
<line fill="none" stroke="#000000" stroke-width="0.25" stroke-miterlimit="10" x1="342.455" y1="276.625" x2="342.455" y2="324.375"/>
<line fill="none" stroke="#000000" stroke-width="0.25" stroke-miterlimit="10" x1="361.262" y1="276.625" x2="361.262" y2="324.375"/>
<line fill="none" stroke="#000000" stroke-width="0.25" stroke-miterlimit="10" x1="364.835" y1="276.625" x2="364.835" y2="324.375"/>
<line fill="none" stroke="#000000" stroke-width="0.25" stroke-miterlimit="10" x1="381.677" y1="276.625" x2="381.677" y2="324.375"/>
<line fill="none" stroke="#000000" stroke-width="0.25" stroke-miterlimit="10" x1="385.25" y1="276.625" x2="385.25" y2="324.375"/>
<line fill="none" stroke="#000000" stroke-width="0.25" stroke-miterlimit="10" x1="442.018" y1="276.625" x2="442.018" y2="324.375"/>
<line fill="none" stroke="#000000" stroke-width="0.25" stroke-miterlimit="10" x1="445.59" y1="276.625" x2="445.59" y2="324.375"/>
<line fill="none" stroke="#000000" stroke-width="0.25" stroke-miterlimit="10" x1="546.338" y1="276.625" x2="546.338" y2="324.375"/>
<line fill="none" stroke="#000000" stroke-width="0.25" stroke-miterlimit="10" x1="549.91" y1="276.625" x2="549.91" y2="324.375"/>
<circle fill="none" stroke="#000000" stroke-width="0.25" stroke-miterlimit="10" cx="318.386" cy="300.4" r="11.106"/>
<circle fill="none" stroke="#000000" stroke-width="0.25" stroke-miterlimit="10" cx="456.696" cy="300.4" r="11.106"/>
<circle fill="none" stroke="#000000" stroke-width="0.25" stroke-miterlimit="10" cx="491.873" cy="300.4" r="11.106"/>
<circle fill="none" stroke="#000000" stroke-width="0.25" stroke-miterlimit="10" cx="529.736" cy="293.957" r="4.61"/>
<line fill="none" stroke="#000000" stroke-width="0.25" stroke-miterlimit="10" x1="313.565" y1="298.583" x2="370.352" y2="298.583"/>
<line fill="none" stroke="#000000" stroke-width="0.25" stroke-miterlimit="10" x1="313.565" y1="302.188" x2="370.352" y2="302.188"/>
<line fill="none" stroke="#000000" stroke-width="0.25" stroke-miterlimit="10" x1="474.003" y1="298.599" x2="530.789" y2="298.599"/>
<line fill="none" stroke="#000000" stroke-width="0.25" stroke-miterlimit="10" x1="474.003" y1="302.203" x2="530.789" y2="302.203"/>
<line fill="none" stroke="#000000" stroke-width="0.25" stroke-miterlimit="10" x1="551.375" y1="304.986" x2="574.777" y2="281.583"/>
<line fill="none" stroke="#000000" stroke-width="0.25" stroke-miterlimit="10" x1="553.979" y1="307.485" x2="577.381" y2="284.083"/>
<line fill="none" stroke="#000000" stroke-width="0.25" stroke-miterlimit="10" x1="553.926" y1="293.233" x2="577.329" y2="316.635"/>
<line fill="none" stroke="#000000" stroke-width="0.25" stroke-miterlimit="10" x1="551.428" y1="295.836" x2="574.83" y2="319.238"/>
<line fill="none" stroke="#000000" stroke-width="0.5" stroke-miterlimit="10" x1="419.257" y1="118.333" x2="419.257" y2="464.334"/>
<line fill="none" stroke="#000000" stroke-width="0.5" stroke-miterlimit="10" x1="170.999" y1="298.611" x2="652.668" y2="298.611"/>
<line fill="none" stroke="#000000" stroke-width="0.25" stroke-miterlimit="10" x1="495.875" y1="322.803" x2="586.75" y2="322.803"/>
<line fill="none" stroke="#000000" stroke-width="0.25" stroke-miterlimit="10" x1="495.875" y1="333.533" x2="586.75" y2="333.533"/>
<line fill="none" stroke="#000000" stroke-width="0.25" stroke-miterlimit="10" x1="529.219" y1="319.254" x2="529.219" y2="336.953"/>
<line fill="none" stroke="#000000" stroke-width="0.25" stroke-miterlimit="10" x1="527.375" y1="319.254" x2="527.375" y2="336.953"/>
<line fill="none" stroke="#000000" stroke-width="0.25" stroke-miterlimit="10" x1="548.399" y1="319.254" x2="548.399" y2="336.953"/>
<line fill="none" stroke="#000000" stroke-width="0.25" stroke-miterlimit="10" x1="544.583" y1="319.254" x2="544.583" y2="336.953"/>
<line fill="none" stroke="#000000" stroke-width="0.25" stroke-miterlimit="10" x1="537.476" y1="319.254" x2="537.476" y2="336.953"/>
<line fill="none" stroke="#000000" stroke-width="0.25" stroke-miterlimit="10" x1="561.134" y1="319.254" x2="561.134" y2="336.953"/>
<line fill="none" stroke="#000000" stroke-width="0.25" stroke-miterlimit="10" x1="562.983" y1="319.254" x2="562.983" y2="336.953"/>
<line fill="none" stroke="#000000" stroke-width="0.25" stroke-miterlimit="10" x1="521.851" y1="319.238" x2="521.851" y2="336.938"/>
<line fill="none" stroke="#000000" stroke-width="0.25" stroke-miterlimit="10" x1="511.121" y1="319.238" x2="511.121" y2="336.938"/>
<circle fill="none" stroke="#000000" stroke-width="0.25" stroke-miterlimit="10" cx="570.353" cy="328.168" r="3.554"/>
<circle fill="none" stroke="#000000" stroke-width="0.25" stroke-miterlimit="10" cx="553.764" cy="328.168" r="3.554"/>
<circle fill="none" stroke="#000000" stroke-width="0.25" stroke-miterlimit="10" cx="541.029" cy="328.168" r="3.554"/>
<circle fill="none" stroke="#000000" stroke-width="0.25" stroke-miterlimit="10" cx="570.353" cy="328.168" r="5.399"/>
<line fill="none" stroke="#000000" stroke-width="0.25" stroke-miterlimit="10" x1="508.479" y1="327.244" x2="524.583" y2="327.244"/>
<line fill="none" stroke="#000000" stroke-width="0.25" stroke-miterlimit="10" x1="508.479" y1="329.042" x2="524.583" y2="329.042"/>
</svg>
