<?xml version="1.0" encoding="utf-8"?>
<!-- Generator: Adobe Illustrator 16.0.0, SVG Export Plug-In . SVG Version: 6.00 Build 0)  -->
<!DOCTYPE svg PUBLIC "-//W3C//DTD SVG 1.1//EN" "http://www.w3.org/Graphics/SVG/1.1/DTD/svg11.dtd">
<svg version="1.1" id="Layer_1" xmlns="http://www.w3.org/2000/svg" xmlns:xlink="http://www.w3.org/1999/xlink" x="0px" y="0px"
	 width="300px" height="300px" viewBox="0 0 300 300" enable-background="new 0 0 300 300" xml:space="preserve">
<rect x="96.978" y="96.976" transform="matrix(-0.7071 0.7071 -0.7071 -0.7071 362.1339 149.9987)" fill="#FFFFFF" width="106.046" height="106.047"/>
<polygon fill="#EDEDED" points="299.973,149.999 224.988,149.999 150.001,75.014 150.001,0.027 "/>
<polygon points="150.001,299.973 150.001,224.986 75.015,149.999 0.027,149.999 "/>
<polygon fill="#C6C6C6" points="299.973,149.999 224.988,149.999 150.001,224.986 150.001,299.973 "/>
<polygon points="75.015,149.999 0.027,149.999 150.001,0.027 150.001,75.014 "/>
<polygon fill="#3C3C3B" points="150.001,149.999 150.001,75.014 75.015,149.999 "/>
<polygon fill="#EDEDED" points="149.999,149.999 149.999,224.986 224.986,149.999 "/>
<polygon fill="#FFFFFF" points="150.001,149.999 224.986,149.999 150.001,75.012 "/>
<polygon fill="#575756" points="150.001,149.999 75.015,149.999 150.001,224.986 "/>
</svg>
