<?xml version="1.0" encoding="utf-8"?>
<!-- Generator: Adobe Illustrator 16.0.0, SVG Export Plug-In . SVG Version: 6.00 Build 0)  -->
<!DOCTYPE svg PUBLIC "-//W3C//DTD SVG 1.1//EN" "http://www.w3.org/Graphics/SVG/1.1/DTD/svg11.dtd">
<svg version="1.1" id="Layer_1" xmlns="http://www.w3.org/2000/svg" xmlns:xlink="http://www.w3.org/1999/xlink" x="0px" y="0px"
	 width="1198.282px" height="771.491px" viewBox="0 0 1198.282 771.491" enable-background="new 0 0 1198.282 771.491"
	 xml:space="preserve">
<linearGradient id="SVGID_1_" gradientUnits="userSpaceOnUse" x1="-0.8589" y1="385.4854" x2="1199.1406" y2="385.4854">
	<stop  offset="0" style="stop-color:#000000"/>
	<stop  offset="0.9104" style="stop-color:#000000;stop-opacity:0.0896"/>
	<stop  offset="1" style="stop-color:#000000;stop-opacity:0"/>
</linearGradient>
<rect x="-0.859" y="-0.521" fill="url(#SVGID_1_)" width="1200" height="772.012"/>
<g>
	<polygon fill="#2D261A" points="809.074,360.479 790.574,319.729 794.574,289.979 	"/>
	<polygon fill="#45381F" points="794.574,289.979 814.907,278.396 834.241,288.396 	"/>
	<polygon fill="#1C1A15" points="794.574,289.979 820.574,338.729 834.241,288.396 	"/>
	<polygon fill="#1F1E17" points="794.574,289.979 820.574,338.729 809.074,360.479 	"/>
	<polygon fill="#725225" points="814.907,278.396 843.574,277.729 834.241,288.396 	"/>
	<polygon fill="#5F4924" points="814.907,278.396 829.24,264.229 843.574,277.729 	"/>
	<polygon fill="#765526" points="829.24,264.229 854.262,269.041 843.574,277.729 	"/>
	<polygon fill="#1D1B16" points="834.241,288.396 875.074,329.729 820.574,338.729 	"/>
	<polygon fill="#9F6828" points="854.262,269.041 877.908,273.229 843.574,277.729 	"/>
	<polygon fill="#2D281A" points="843.574,277.729 866.075,284.188 834.241,288.396 	"/>
	<polygon fill="#191813" points="866.075,284.188 875.074,329.729 834.241,288.396 	"/>
	<polygon fill="#715023" points="877.908,273.229 866.075,284.188 843.574,277.729 	"/>
	<polygon fill="#1B1A15" points="820.574,338.729 826.574,416.395 875.074,329.729 	"/>
	<polygon fill="#674B24" points="794.574,289.979 783.408,301.812 790.574,319.729 	"/>
	<polygon fill="#8F6027" points="877.908,273.229 881.824,287.604 866.075,284.188 	"/>
	<polygon fill="#4F3C21" points="881.824,287.604 890.199,285.229 897.887,296.229 	"/>
	<polygon fill="#382F1C" points="866.075,284.188 894.449,304.604 881.824,287.604 	"/>
	<polygon fill="#211E18" points="894.449,304.604 875.074,329.729 866.075,284.188 	"/>
	<polygon fill="#594723" points="897.887,296.229 881.824,287.604 894.449,304.604 	"/>
	<polygon fill="#584426" points="897.887,296.229 907.909,291.646 894.449,304.604 	"/>
	<polygon fill="#624A20" points="907.909,291.646 927.492,291.312 922.742,297.146 	"/>
	<polygon fill="#2A241A" points="894.449,304.604 914.41,318.729 907.909,291.646 	"/>
	<polygon fill="#2E2A1C" points="875.074,329.729 914.41,318.729 894.449,304.604 	"/>
	<polygon fill="#2A251A" points="914.41,318.729 922.742,297.146 907.909,291.646 	"/>
	<polygon fill="#483A1F" points="927.492,291.312 933.408,300.396 922.742,297.146 	"/>
	<polygon fill="#403724" points="922.742,297.146 914.41,318.729 933.408,334.563 	"/>
	<polygon fill="#735525" points="933.408,300.396 942.741,301.063 950.908,313.562 	"/>
	<polygon fill="#42351F" points="933.408,300.396 933.408,334.563 922.742,297.146 	"/>
	<polygon fill="#5E4924" points="933.408,300.396 933.408,334.563 950.908,313.562 	"/>
	<polygon fill="#2D281A" points="809.074,360.479 799.824,428.229 820.574,338.729 	"/>
	<polygon fill="#211F19" points="799.824,428.229 820.574,338.729 826.574,416.395 	"/>
	<polygon fill="#322A1D" points="799.824,428.229 777.824,444.729 797.324,463.229 	"/>
	<polygon fill="#453A21" points="809.074,360.479 777.824,396.229 799.824,428.229 	"/>
	<polygon fill="#4C3E20" points="809.074,360.479 781.074,363.979 777.824,396.229 	"/>
	<polygon fill="#5C4826" points="781.074,363.979 767.574,400.229 777.824,396.229 	"/>
	<polygon fill="#5B4723" points="767.574,400.229 770.824,436.479 777.824,396.229 	"/>
	<polygon fill="#493B21" points="770.824,436.479 799.824,428.229 777.824,396.229 	"/>
	<polygon fill="#4C3C23" points="770.824,436.479 777.824,444.729 799.824,428.229 	"/>
	<polygon fill="#533F23" points="777.824,444.729 785.324,484.562 797.324,463.229 	"/>
	<polygon fill="#443821" points="785.324,484.562 813.908,496.06 797.324,463.229 	"/>
	<polygon fill="#725025" points="813.908,496.06 813.199,510.729 834.408,512.896 	"/>
	<polygon fill="#2F291B" points="813.908,496.06 799.824,428.229 797.324,463.229 	"/>
	<polygon fill="#8D602A" points="950.908,313.562 949.699,326.479 933.408,334.563 	"/>
	<polygon fill="#6D5130" points="949.699,326.479 958.449,353.979 932.949,334.563 	"/>
	<polygon fill="#413722" points="949.699,326.479 963.824,328.479 973.824,340.229 	"/>
	<polygon fill="#5E4B2B" points="949.699,326.479 958.449,353.979 973.824,340.229 	"/>
	<polygon fill="#3F361F" points="973.824,340.229 988.949,335.104 1010.949,360.354 	"/>
	<polygon fill="#1F1F1A" points="826.574,416.395 850.199,475.104 897.887,406.229 	"/>
	<polygon fill="#201E18" points="826.574,416.395 875.074,329.729 897.887,406.229 	"/>
	<polygon fill="#433825" points="875.074,329.729 914.41,318.729 928.075,388.229 	"/>
	<polygon fill="#403726" points="875.074,329.729 928.075,388.229 897.887,406.229 	"/>
	<polygon fill="#6C5434" points="914.41,318.729 955.074,394.354 958.449,353.979 	"/>
	<polygon fill="#624F31" points="914.41,318.729 928.075,388.229 955.074,394.354 	"/>
	<polygon fill="#544328" points="958.449,353.979 973.824,340.229 1010.949,360.354 	"/>
	<polygon fill="#564225" points="988.949,335.104 1021.243,353.479 1010.949,360.354 	"/>
	<polygon fill="#413823" points="1010.949,360.354 1013.243,409.729 965.41,404.895 	"/>
	<polygon fill="#74582A" points="1021.243,353.479 1013.243,409.729 1010.949,360.354 	"/>
	<polygon fill="#604C2E" points="958.449,353.979 1010.949,360.354 965.41,404.895 	"/>
	<polygon fill="#24221A" points="799.824,428.229 834.408,512.896 826.574,416.395 	"/>
	<polygon fill="#2D281B" points="799.824,428.229 813.908,496.06 834.408,512.896 	"/>
	<polygon fill="#25221B" points="826.574,416.395 834.408,512.896 850.199,475.104 	"/>
	<polygon fill="#584425" points="834.408,512.896 875.074,508.227 850.199,475.104 	"/>
	<polygon fill="#5A4B2F" points="958.449,353.979 965.41,404.895 955.074,394.354 	"/>
	<polygon fill="#1F1E19" points="897.887,406.229 887.57,479.645 850.199,475.104 	"/>
	<polygon fill="#574629" points="875.074,508.227 887.57,479.645 850.199,475.104 	"/>
	<polygon fill="#332D20" points="897.887,406.229 957.407,448.894 887.57,479.645 	"/>
	<polygon fill="#2B281E" points="897.887,406.229 928.075,388.229 957.407,448.894 	"/>
	<polygon fill="#373022" points="928.075,388.229 955.074,394.354 957.407,448.894 	"/>
	<polygon fill="#25221B" points="965.41,404.895 957.407,448.894 1013.243,409.729 	"/>
	<polygon fill="#23211A" points="955.074,394.354 965.41,404.895 957.407,448.894 	"/>
	<polygon fill="#805D2E" points="875.074,508.476 957.407,448.894 887.57,479.773 	"/>
</g>
</svg>
