<?xml version="1.0" encoding="utf-8"?>
<!-- Generator: Adobe Illustrator 22.0.0, SVG Export Plug-In . SVG Version: 6.00 Build 0)  -->
<svg version="1.1" id="Layer_1" xmlns="http://www.w3.org/2000/svg" xmlns:xlink="http://www.w3.org/1999/xlink" x="0px" y="0px"
	 viewBox="0 0 727.174 472.506" style="enable-background:new 0 0 727.174 472.506;" xml:space="preserve">
<style type="text/css">
	.st0{fill:none;}
	.st1{fill:#F6F6F6;}
	.st2{fill:#EDEDED;}
	.st3{fill:#1D1D1B;}
</style>
<rect x="-136.413" class="st0" width="1000" height="472.506"/>
<g>
	<path class="st0" d="M581.988,202.266c0.052-0.101,0.103-0.214,0.151-0.347C582.091,202.052,582.04,202.166,581.988,202.266z"/>
	<path class="st0" d="M581.527,202.691c0.071,0,0.139-0.035,0.205-0.086C581.666,202.656,581.598,202.691,581.527,202.691z"/>
	<path class="st0" d="M582.341,201.229c0.041-0.169,0.08-0.35,0.117-0.543C582.421,200.879,582.382,201.06,582.341,201.229z"/>
	<path class="st0" d="M582.168,201.837c0.045-0.133,0.088-0.281,0.13-0.44C582.256,201.555,582.214,201.704,582.168,201.837z"/>
	<path class="st0" d="M581.083,202.861c0.044-0.026,0.091-0.059,0.131-0.078C581.174,202.802,581.126,202.835,581.083,202.861z"/>
	<path class="st0" d="M580.642,203.178c0.062-0.051,0.124-0.103,0.182-0.147C580.765,203.075,580.704,203.127,580.642,203.178z"/>
	<path class="st0" d="M582.626,199.633c0.024-0.182,0.047-0.369,0.069-0.56C582.673,199.264,582.65,199.451,582.626,199.633z"/>
	<path class="st0" d="M582.499,200.455c0.029-0.163,0.056-0.332,0.082-0.508C582.555,200.123,582.528,200.292,582.499,200.455z"/>
	<path class="st0" d="M582.875,196.868c0.016-0.296,0.029-0.596,0.04-0.897C582.904,196.273,582.891,196.573,582.875,196.868z"/>
	<path class="st0" d="M582.816,197.762c0.018-0.24,0.035-0.484,0.049-0.731C582.851,197.279,582.834,197.522,582.816,197.762z"/>
	<path class="st0" d="M580.15,203.627c0.074-0.074,0.146-0.142,0.217-0.208C580.296,203.485,580.225,203.553,580.15,203.627z"/>
	<path class="st0" d="M582.727,198.774c0.024-0.237,0.047-0.48,0.067-0.728C582.774,198.295,582.752,198.537,582.727,198.774z"/>
	<path class="st0" d="M582.109,218.7c-0.007,0.014-0.013,0.029-0.019,0.043C582.097,218.729,582.103,218.715,582.109,218.7z"/>
	<path class="st0" d="M581.663,219.792c-0.037,0.103-0.069,0.206-0.103,0.31C581.594,219.998,581.627,219.894,581.663,219.792z"/>
	<path class="st0" d="M581.47,220.378c-0.043,0.142-0.08,0.284-0.117,0.427C581.39,220.663,581.428,220.52,581.47,220.378z"/>
	<path class="st0" d="M581.879,219.23c-0.025,0.06-0.048,0.122-0.072,0.183C581.831,219.352,581.854,219.291,581.879,219.23z"/>
	<path class="st0" d="M587.309,215.224c-0.015-0.007-0.03-0.013-0.045-0.02C587.279,215.21,587.294,215.217,587.309,215.224z"/>
	<path class="st0" d="M586.271,214.832c-0.038-0.01-0.08-0.024-0.116-0.032C586.191,214.808,586.233,214.822,586.271,214.832z"/>
	<path class="st0" d="M576.426,208.482c-0.163,0.257-0.322,0.512-0.473,0.765C576.105,208.995,576.264,208.739,576.426,208.482z"/>
	<path class="st0" d="M586.763,214.994c-0.039-0.015-0.077-0.03-0.115-0.043C586.686,214.964,586.725,214.979,586.763,214.994z"/>
	<path class="st0" d="M574.479,212.228c-0.051,0.151-0.084,0.285-0.115,0.417C574.394,212.514,574.428,212.379,574.479,212.228z"/>
	<path class="st0" d="M575.72,209.65c-0.105,0.182-0.207,0.361-0.303,0.538C575.513,210.012,575.615,209.832,575.72,209.65z"/>
	<path class="st0" d="M579.612,204.192c0.086-0.096,0.169-0.182,0.252-0.27C579.78,204.01,579.698,204.096,579.612,204.192z"/>
	<path class="st0" d="M576.547,208.288c0.448-0.695,0.929-1.392,1.414-2.046c0.473-0.643,0.945-1.237,1.393-1.756
		C578.447,205.535,577.433,206.909,576.547,208.288z"/>
	<path class="st0" d="M574.311,212.863c-0.03,0.187-0.039,0.352-0.014,0.481C574.272,213.214,574.281,213.049,574.311,212.863z"/>
	<path class="st0" d="M574.779,211.471c-0.068,0.154-0.126,0.299-0.182,0.442C574.652,211.77,574.71,211.625,574.779,211.471z"/>
	<path class="st0" d="M575.194,210.61c-0.084,0.163-0.163,0.32-0.237,0.475C575.031,210.931,575.11,210.772,575.194,210.61z"/>
	<path class="st0" d="M582.921,195.81c0.011-0.33,0.019-0.661,0.023-0.992C582.939,195.149,582.931,195.48,582.921,195.81z"/>
	<path class="st0" d="M459.184,124.533c0.003,0.025,0.001,0.05,0.006,0.075C459.185,124.583,459.187,124.558,459.184,124.533z"/>
	<path class="st0" d="M459.554,108.366c0.08-0.291,0.17-0.563,0.273-0.804C459.724,107.804,459.634,108.075,459.554,108.366z"/>
	<path class="st0" d="M459.228,124.14c-0.001,0.003-0.002,0.005-0.003,0.008C459.226,124.145,459.228,124.143,459.228,124.14z"/>
	<path class="st0" d="M459.341,109.307c0.037-0.2,0.084-0.385,0.128-0.573C459.425,108.922,459.379,109.106,459.341,109.307z"/>
	<path class="st0" d="M459.177,110.353c0.029-0.224,0.066-0.44,0.101-0.656C459.242,109.914,459.207,110.129,459.177,110.353z"/>
	<path class="st0" d="M461.131,121.49c0.047-0.113,0.088-0.227,0.111-0.344C461.219,121.263,461.178,121.377,461.131,121.49z"/>
	<path class="st0" d="M458.73,114.898c-0.009,0.098-0.022,0.217-0.038,0.307c0.17-1.017,0.241-2.842,0.451-4.569
		C458.951,112.204,458.872,113.849,458.73,114.898z"/>
	<path class="st0" d="M529.094,144.805c0.01-0.008,0.019-0.015,0.029-0.023C529.113,144.79,529.104,144.798,529.094,144.805z"/>
	<path class="st0" d="M543.426,111.761c0.002-0.006,0.003-0.011,0.005-0.017C543.429,111.75,543.427,111.755,543.426,111.761z"/>
	<path class="st0" d="M602.659,234.955c-0.204,0.006-0.405,0.008-0.605,0.01C602.254,234.964,602.456,234.961,602.659,234.955z"/>
	<path class="st0" d="M459.177,124.381c0.001-0.014,0.006-0.028,0.007-0.042C459.183,124.353,459.178,124.367,459.177,124.381z"/>
	<path class="st0" d="M460.93,121.876c0.062-0.098,0.115-0.198,0.162-0.299C461.045,121.678,460.991,121.778,460.93,121.876z"/>
	<path class="st0" d="M528.474,145.442c0.02-0.031,0.045-0.06,0.068-0.09C528.519,145.382,528.494,145.411,528.474,145.442z"/>
	<path class="st0" d="M528.728,145.129c0.025-0.026,0.052-0.052,0.079-0.078C528.78,145.077,528.754,145.103,528.728,145.129z"/>
	<path class="st0" d="M473.543,150.897c0.02-0.158,0.043-0.313,0.066-0.466C473.585,150.585,473.563,150.739,473.543,150.897z"/>
	<path class="st0" d="M468.879,181.43c-1.033-0.631-1.845-2.083-1.084-4.52c0.011-0.062,0.011-0.093,0.024-0.151
		C466.969,179.307,467.82,180.79,468.879,181.43z"/>
	<path class="st0" d="M550.724,171.625c1.65-0.741,4.206-2.93,4.959-3.588c0.133-0.115,0.217-0.195,0.217-0.195
		S552.675,170.743,550.724,171.625z"/>
	<path class="st0" d="M519.755,166.308c-0.018-0.007-0.039-0.014-0.057-0.021C519.716,166.294,519.736,166.301,519.755,166.308z"/>
	<path class="st0" d="M520.149,166.44c-0.01-0.003-0.02-0.006-0.03-0.009C520.13,166.434,520.139,166.437,520.149,166.44z"/>
	<path class="st0" d="M460.684,122.224c0.081-0.105,0.159-0.211,0.228-0.319C460.843,122.014,460.765,122.119,460.684,122.224z"/>
	<path class="st0" d="M550.297,171.792c-0.121,0.038-0.234,0.065-0.337,0.078C550.062,171.857,550.177,171.829,550.297,171.792z"/>
	<path class="st0" d="M550.691,171.64c-0.122,0.054-0.238,0.098-0.348,0.135C550.453,171.739,550.57,171.694,550.691,171.64z"/>
	<path class="st0" d="M582.4,188.177c-0.036-0.116-0.074-0.224-0.114-0.318C582.327,187.951,582.364,188.062,582.4,188.177z"/>
	<path class="st0" d="M473.64,150.234c0.038-0.223,0.078-0.44,0.126-0.647C473.718,149.793,473.677,150.012,473.64,150.234z"/>
	<path class="st0" d="M472.055,156.71c0.028-0.012,0.054-0.027,0.08-0.042C472.108,156.683,472.082,156.698,472.055,156.71z"/>
	<path class="st0" d="M460.423,122.542c0.064-0.074,0.126-0.148,0.186-0.224C460.549,122.394,460.487,122.468,460.423,122.542z"/>
	<path class="st0" d="M464.081,133.549c-0.008-0.006-0.019-0.012-0.028-0.019C464.062,133.537,464.073,133.542,464.081,133.549z"/>
	<path class="st0" d="M582.511,188.593c-0.017-0.075-0.035-0.147-0.054-0.216C582.476,188.446,582.494,188.518,582.511,188.593z"/>
	<path class="st0" d="M473.482,151.408c0.007-0.065,0.014-0.13,0.022-0.195C473.496,151.278,473.489,151.343,473.482,151.408z"/>
	<path class="st0" d="M660.211,26.51c0.168,0.208,0.349,0.411,0.542,0.605C660.56,26.921,660.38,26.717,660.211,26.51z"/>
	<path class="st0" d="M612.312,147.431c0.15,0.099,0.299,0.188,0.45,0.271C612.612,147.62,612.462,147.529,612.312,147.431z"/>
	<path class="st0" d="M611.707,146.99c0.109,0.087,0.217,0.173,0.329,0.254C611.924,147.163,611.816,147.076,611.707,146.99z"/>
	<path class="st0" d="M613.631,148.099c0.208,0.069,0.391,0.149,0.563,0.233C614.024,148.248,613.838,148.17,613.631,148.099z"/>
	<path class="st0" d="M612.964,147.813c0.226,0.114,0.45,0.215,0.667,0.286C613.413,148.027,613.189,147.927,612.964,147.813z"/>
	<path class="st0" d="M610.315,145.593c0.112,0.145,0.232,0.288,0.358,0.428C610.547,145.881,610.427,145.738,610.315,145.593z"/>
	<path class="st0" d="M609.514,144.148c0.062,0.194,0.143,0.39,0.246,0.588C609.658,144.538,609.575,144.342,609.514,144.148z"/>
	<path class="st0" d="M609.849,144.894c0.088,0.154,0.185,0.308,0.293,0.461C610.035,145.202,609.936,145.048,609.849,144.894z"/>
	<path class="st0" d="M649.211,147.21c0.061-0.039,0.134-0.078,0.202-0.117C649.345,147.132,649.271,147.172,649.211,147.21z"/>
	<path class="st0" d="M649.706,146.93c0.109-0.056,0.228-0.113,0.35-0.171C649.935,146.816,649.815,146.873,649.706,146.93z"/>
	<path class="st0" d="M650.278,146.655c0.179-0.08,0.365-0.161,0.563-0.242C650.644,146.494,650.455,146.575,650.278,146.655z"/>
	<path class="st0" d="M609.386,143.428c0,0.192,0.038,0.392,0.094,0.595C609.424,143.82,609.386,143.619,609.386,143.428z"/>
	<path class="st0" d="M648.828,147.488c0.029-0.025,0.071-0.052,0.103-0.077C648.899,147.436,648.857,147.463,648.828,147.488z"/>
	<path class="st0" d="M614.566,148.551c0.023,0.015,0.048,0.029,0.07,0.045C614.615,148.581,614.589,148.567,614.566,148.551z"/>
	<path class="st0" d="M614.956,148.875c0.002,0.002,0.004,0.004,0.005,0.006C614.96,148.879,614.958,148.877,614.956,148.875z"/>
	<path class="st0" d="M659.479,22.022c-0.14,0.118-0.246,0.255-0.335,0.4C659.234,22.277,659.339,22.139,659.479,22.022z"/>
	<path class="st0" d="M658.899,23.137c-0.015,0.121-0.021,0.246-0.016,0.375C658.879,23.384,658.883,23.258,658.899,23.137z"/>
	<path class="st0" d="M658.921,23.889c0.001,0.008,0.003,0.016,0.005,0.024C658.924,23.905,658.922,23.897,658.921,23.889z"/>
	<path class="st0" d="M659.085,22.515c-0.068,0.13-0.115,0.271-0.149,0.418C658.971,22.787,659.016,22.645,659.085,22.515z"/>
	<path class="st0" d="M658.181,144.175c0.23-0.053,0.444-0.1,0.651-0.144C658.625,144.075,658.41,144.122,658.181,144.175z"/>
	<path class="st0" d="M659.77,25.907c0.029,0.045,0.064,0.088,0.094,0.132C659.834,25.995,659.8,25.952,659.77,25.907z"/>
	<path class="st0" d="M613.404,130.151c0.001,0.074,0.003,0.152,0.01,0.239C613.407,130.302,613.405,130.225,613.404,130.151z"/>
	<path class="st0" d="M622.399,107.129c0.03,0.099,0.061,0.196,0.093,0.284C622.46,107.324,622.429,107.229,622.399,107.129z"/>
	<path class="st0" d="M665.596,39.348c0.041,0.111,0.078,0.227,0.115,0.343C665.675,39.575,665.637,39.46,665.596,39.348z"/>
	<path class="st0" d="M622.556,107.575c0.021,0.05,0.041,0.104,0.062,0.149C622.597,107.678,622.576,107.625,622.556,107.575z"/>
	<path class="st0" d="M543.555,111.243c0.013-0.06,0.021-0.121,0.031-0.182C543.576,111.123,543.568,111.183,543.555,111.243z"/>
	<path class="st0" d="M664.79,37.941c0.14,0.14,0.259,0.308,0.371,0.487C665.049,38.248,664.929,38.08,664.79,37.941z"/>
	<path class="st0" d="M665.239,38.553c0.094,0.165,0.179,0.345,0.257,0.533C665.418,38.897,665.333,38.718,665.239,38.553z"/>
	<path class="st0" d="M672.588,172.444c-0.008,0.032-0.024,0.07-0.033,0.103C672.564,172.513,672.58,172.475,672.588,172.444z"/>
	<path class="st0" d="M658.99,143.997c0.186-0.039,0.353-0.071,0.515-0.101C659.344,143.926,659.176,143.958,658.99,143.997z"/>
	<path class="st0" d="M611.152,218.289c0.033,0.116,0.08,0.213,0.148,0.281C611.232,218.502,611.189,218.399,611.152,218.289z"/>
	<path class="st0" d="M649.46,223.448C649.46,223.448,649.46,223.447,649.46,223.448C649.46,223.447,649.46,223.448,649.46,223.448z
		"/>
	<path class="st0" d="M611.781,192.946c0.018,0.116,0.039,0.23,0.064,0.343C611.82,193.176,611.798,193.062,611.781,192.946z"/>
	<path class="st0" d="M649.416,223.124c-0.002-0.018-0.005-0.037-0.006-0.054C649.411,223.087,649.414,223.106,649.416,223.124z"/>
	<path class="st0" d="M611.3,213.898c0.028,0.168,0.036,0.365,0.033,0.576C611.336,214.262,611.328,214.066,611.3,213.898z"/>
	<path class="st0" d="M611.804,197.119c-0.087,0.076-0.182,0.151-0.291,0.225C611.624,197.27,611.719,197.195,611.804,197.119z"/>
	<path class="st0" d="M604.932,234.697c-0.248,0.065-0.512,0.105-0.777,0.144C604.423,234.804,604.685,234.759,604.932,234.697z"/>
	<path class="st0" d="M649.403,222.805c0-0.017-0.001-0.036,0-0.052C649.402,222.769,649.404,222.788,649.403,222.805z"/>
	<path class="st0" d="M650.315,226.754c0.07,0.301,0.132,0.599,0.175,0.888C650.446,227.353,650.385,227.055,650.315,226.754z"/>
	<path class="st0" d="M611.722,192.251c0,0.181,0.016,0.358,0.037,0.533C611.738,192.609,611.722,192.432,611.722,192.251z"/>
	<path class="st0" d="M650.495,227.682c0.044,0.299,0.072,0.589,0.072,0.861C650.567,228.271,650.539,227.981,650.495,227.682z"/>
	<path class="st0" d="M650.093,225.884c0.071,0.26,0.14,0.521,0.202,0.781C650.233,226.405,650.164,226.144,650.093,225.884z"/>
	<path class="st0" d="M649.442,222.52c0.002-0.008,0.003-0.018,0.005-0.026C649.444,222.503,649.444,222.513,649.442,222.52z"/>
	<path class="st0" d="M611.308,214.929c-0.004,0.061-0.006,0.119-0.012,0.182C611.302,215.048,611.303,214.991,611.308,214.929z"/>
	<path class="st0" d="M597.17,171.466c-0.144,0.103-0.285,0.198-0.424,0.292C596.885,171.665,597.026,171.568,597.17,171.466z"/>
	<path class="st0" d="M671.881,174.004c-0.006,0.011-0.013,0.022-0.019,0.033C671.868,174.026,671.875,174.015,671.881,174.004z"/>
	<path class="st0" d="M672.438,172.888c-0.013,0.033-0.032,0.071-0.047,0.106C672.406,172.96,672.424,172.922,672.438,172.888z"/>
	<path class="st0" d="M658.079,144.199c-2.15,0.5-5.132,1.353-7.197,2.197c0.695-0.282,1.495-0.566,2.331-0.837
		C654.866,145.019,656.656,144.531,658.079,144.199z"/>
	<path class="st0" d="M659.664,143.866c0.199-0.035,0.377-0.063,0.525-0.082C660.041,143.802,659.862,143.83,659.664,143.866z"/>
	<path class="st0" d="M603.489,234.914c-0.104,0.007-0.209,0.013-0.312,0.02C603.281,234.928,603.385,234.922,603.489,234.914z"/>
	<path class="st0" d="M672.199,173.412c-0.013,0.026-0.029,0.054-0.042,0.081C672.171,173.466,672.186,173.438,672.199,173.412z"/>
	<path class="st0" d="M614.767,150.849c-0.139,0.145-0.298,0.292-0.492,0.438C614.47,151.141,614.628,150.995,614.767,150.849z"/>
	<path class="st0" d="M599.204,169.751c-0.28,0.281-0.558,0.531-0.832,0.769C598.647,170.282,598.924,170.031,599.204,169.751z"/>
	<path class="st0" d="M598.182,170.685c-0.241,0.203-0.478,0.388-0.711,0.562C597.704,171.074,597.941,170.887,598.182,170.685z"/>
	<path class="st0" d="M615.312,149.629c0.003,0.036,0.005,0.072,0.003,0.109C615.316,149.702,615.315,149.666,615.312,149.629z"/>
	<path class="st0" d="M615.289,149.973c-0.023,0.098-0.057,0.197-0.107,0.298C615.23,150.171,615.267,150.071,615.289,149.973z"/>
	<path class="st0" d="M615.118,150.394c-0.076,0.129-0.169,0.26-0.288,0.391C614.949,150.653,615.044,150.523,615.118,150.394z"/>
	<path class="st0" d="M495.019,351.356c0.126-0.094,0.249-0.189,0.371-0.286C495.268,351.167,495.144,351.262,495.019,351.356z"/>
	<path class="st0" d="M622.605,73.359c0.005,0.029,0.008,0.058,0.012,0.087c-0.002-0.019,0-0.037-0.003-0.056
		C622.612,73.379,622.607,73.369,622.605,73.359z"/>
	<path class="st0" d="M409.325,445.369c0.234,0.168,0.445,0.321,0.64,0.463C409.771,445.69,409.559,445.536,409.325,445.369z"/>
	<path class="st0" d="M491.456,354.009c0.047-0.053,0.096-0.105,0.15-0.159C491.551,353.904,491.502,353.957,491.456,354.009z"/>
	<path class="st0" d="M405.107,442.42c0.369,0.254,0.725,0.5,1.064,0.735C405.831,442.92,405.477,442.675,405.107,442.42z"/>
	<path class="st0" d="M491.097,354.625c0.017-0.083,0.051-0.167,0.095-0.252C491.147,354.458,491.113,354.542,491.097,354.625z"/>
	<path class="st0" d="M410.639,446.333c0.109,0.083,0.199,0.154,0.281,0.22C410.839,446.488,410.747,446.416,410.639,446.333z"/>
	<path class="st0" d="M491.245,354.288c0.035-0.057,0.073-0.114,0.119-0.172C491.318,354.174,491.281,354.231,491.245,354.288z"/>
	<path class="st0" d="M403.754,441.49c0.382,0.262,0.753,0.517,1.11,0.762C404.507,442.007,404.136,441.752,403.754,441.49z"/>
	<path class="st0" d="M411.015,446.628c0.097,0.08,0.175,0.147,0.223,0.194C411.19,446.775,411.112,446.708,411.015,446.628z"/>
	<path class="st0" d="M410.091,445.924c0.152,0.112,0.289,0.213,0.413,0.307C410.38,446.138,410.242,446.035,410.091,445.924z"/>
	<path class="st0" d="M621.916,100.597c-0.235,1.968-0.011,4.867,0.468,6.482c-0.183-0.628-0.328-1.451-0.427-2.337
		C621.805,103.35,621.774,101.801,621.916,100.597z"/>
	<path class="st0" d="M581.176,221.598c0.037-0.205,0.08-0.41,0.13-0.614C581.256,221.188,581.212,221.393,581.176,221.598z"/>
	<path class="st0" d="M622.634,73.777c-0.011,0.152-0.031,0.304-0.086,0.46C622.605,74.08,622.628,73.928,622.634,73.777z"/>
	<path class="st0" d="M653.054,49.792c0.197-0.178,0.399-0.356,0.63-0.528C653.452,49.438,653.244,49.614,653.054,49.792z"/>
	<path class="st0" d="M400.68,439.391c0.157,0.107,0.307,0.209,0.461,0.314C400.987,439.6,400.838,439.498,400.68,439.391z"/>
	<path class="st0" d="M543.658,109.86c-0.011-0.172-0.032-0.342-0.065-0.509C543.626,109.517,543.647,109.688,543.658,109.86z"/>
	<path class="st0" d="M402.369,440.542c0.384,0.262,0.765,0.523,1.128,0.771C403.132,441.064,402.755,440.806,402.369,440.542z"/>
	<path class="st0" d="M318.84,385.19c-0.083-0.051-0.165-0.101-0.233-0.142C318.676,385.09,318.755,385.137,318.84,385.19z"/>
	<path class="st0" d="M349.803,405.424c-15.094-9.973-27.836-18.313-30.913-20.204C321.986,387.128,334.731,395.47,349.803,405.424z
		"/>
	<path class="st0" d="M406.309,443.251c1.189,0.825,2.193,1.529,2.98,2.092C408.503,444.78,407.499,444.075,406.309,443.251z"/>
	<path class="st0" d="M526.998,424.078c0.038,0.012,0.075,0.025,0.112,0.037C527.072,424.103,527.036,424.09,526.998,424.078z"/>
	<path class="st0" d="M525.959,423.779c0.038,0.01,0.076,0.02,0.114,0.03C526.036,423.799,525.998,423.789,525.959,423.779z"/>
	<path class="st0" d="M524.889,423.527c0.03,0.006,0.06,0.013,0.089,0.019C524.949,423.539,524.919,423.533,524.889,423.527z"/>
	<polygon class="st0" points="551.869,422.591 535.723,431.338 543.317,427.226 	"/>
	<path class="st0" d="M441.23,467.203c-3.194,0.655-7.751,1.664-8.386,1.804c0.6-0.133,4.895-1.081,8.072-1.737
		C441.022,467.246,441.125,467.226,441.23,467.203z"/>
	<path class="st0" d="M523.81,423.315c0.014,0.002,0.027,0.005,0.041,0.007C523.837,423.32,523.824,423.318,523.81,423.315z"/>
	<path class="st0" d="M528.874,424.826c0.017,0.008,0.032,0.017,0.049,0.026C528.906,424.844,528.891,424.835,528.874,424.826z"/>
	<path class="st0" d="M527.978,424.426c0.03,0.012,0.058,0.024,0.087,0.036C528.036,424.45,528.008,424.438,527.978,424.426z"/>
	<path class="st0" d="M492.429,353.169c0.041-0.03,0.086-0.061,0.128-0.092C492.515,353.107,492.471,353.138,492.429,353.169z"/>
	<path class="st0" d="M491.727,353.735c0.057-0.052,0.118-0.105,0.181-0.158C491.845,353.63,491.784,353.683,491.727,353.735z"/>
	<path class="st0" d="M494.132,351.992c0.054-0.037,0.107-0.073,0.161-0.111C494.239,351.919,494.186,351.955,494.132,351.992z"/>
	<path class="st0" d="M494.477,351.751c0.127-0.089,0.253-0.18,0.378-0.271C494.729,351.571,494.603,351.662,494.477,351.751z"/>
	<path class="st0" d="M515.643,422.591c-0.066,0-0.102,0-0.102,0s0.079,0,0.218,0.002
		C515.723,422.592,515.67,422.591,515.643,422.591z"/>
	<path class="st0" d="M492.052,353.457c0.066-0.053,0.136-0.106,0.207-0.16C492.188,353.351,492.118,353.404,492.052,353.457z"/>
	<path class="st0" d="M496.366,350.191c-0.102,0.106-0.206,0.211-0.317,0.313C496.16,350.402,496.264,350.297,496.366,350.191z"/>
	<path class="st0" d="M496.878,349.592c0.116-0.159,0.221-0.321,0.309-0.486C497.099,349.271,496.994,349.433,496.878,349.592z"/>
	<path class="st0" d="M495.553,350.937c0.118-0.097,0.232-0.195,0.343-0.294C495.784,350.742,495.67,350.841,495.553,350.937z"/>
	<path class="st0" d="M496.494,350.057c0.106-0.116,0.203-0.235,0.296-0.355C496.697,349.822,496.6,349.941,496.494,350.057z"/>
	<path class="st0" d="M615.104,62.542c0.001-0.021,0.003-0.044,0.004-0.064C615.107,62.498,615.105,62.521,615.104,62.542z"/>
	<path class="st0" d="M611.284,146.634c-0.121-0.11-0.239-0.222-0.353-0.337C611.045,146.412,611.163,146.524,611.284,146.634z"/>
	<path class="st0" d="M613.822,136.128c-0.058,0.107-0.102,0.231-0.191,0.302c0.926-0.741-0.075-4.364-0.213-5.997
		C613.539,131.913,614.363,135.015,613.822,136.128z"/>
	<path class="st0" d="M613.402,130.077c0.001-0.089,0.008-0.168,0.02-0.232C613.41,129.909,613.403,129.988,613.402,130.077z"/>
	<path class="st0" d="M592.9,218.602c0.467,0.321,0.87,0.604,1.162,0.811c0.075,0.051,0.144,0.1,0.209,0.145
		C593.967,219.342,593.489,219.005,592.9,218.602z"/>
	<path class="st0" d="M621.921,100.55c0.022-0.176,0.048-0.343,0.077-0.502C621.969,100.207,621.943,100.374,621.921,100.55z"/>
	<path class="st0" d="M617.347,69.506c-0.106-0.037-0.208-0.072-0.31-0.106C617.138,69.434,617.241,69.469,617.347,69.506z"/>
	<path class="st0" d="M618.568,69.98c-0.068-0.029-0.135-0.058-0.202-0.086C618.433,69.922,618.501,69.952,618.568,69.98z"/>
	<path class="st0" d="M582.556,188.791c0.068,0.333,0.126,0.708,0.174,1.12c0.168,1.363,0.237,3.119,0.214,4.891
		C582.975,192.491,582.851,190.209,582.556,188.791z"/>
	<path class="st0" d="M617.958,69.731c-0.092-0.036-0.182-0.07-0.272-0.104C617.776,69.661,617.867,69.696,617.958,69.731z"/>
	<path class="st0" d="M622.01,99.98c0.034-0.174,0.072-0.338,0.116-0.486C622.082,99.642,622.044,99.806,622.01,99.98z"/>
	<path class="st0" d="M619.132,70.233c-0.026-0.012-0.052-0.026-0.078-0.038C619.08,70.207,619.106,70.221,619.132,70.233z"/>
	<path class="st0" d="M622.477,72.934c-0.005-0.012-0.011-0.024-0.016-0.036C622.466,72.91,622.472,72.922,622.477,72.934z"/>
	<path class="st0" d="M581.948,202.342c-0.057,0.098-0.116,0.176-0.178,0.233C581.831,202.518,581.891,202.44,581.948,202.342z"/>
	<path class="st0" d="M574.871,126.626c0.118,0.12,0.232,0.251,0.341,0.397C575.103,126.877,574.989,126.747,574.871,126.626z"/>
	<path class="st0" d="M543.672,110.023c0.006,0.207-0.003,0.415-0.023,0.623C543.67,110.438,543.677,110.23,543.672,110.023z"/>
	<path class="st0" d="M575.288,127.132c0.08,0.111,0.158,0.228,0.235,0.349C575.446,127.359,575.368,127.243,575.288,127.132z"/>
	<path class="st0" d="M502.72,164.423c0.413,0.204,0.817,0.435,1.184,0.657c-1.133-0.709-2.55-1.403-3.937-1.542
		C500.902,163.634,501.852,163.983,502.72,164.423z"/>
	<path class="st0" d="M543.55,109.168c-0.041-0.16-0.095-0.315-0.16-0.467C543.454,108.852,543.509,109.007,543.55,109.168z"/>
	<path class="st0" d="M559.704,141.587c-0.019-0.054-0.037-0.106-0.052-0.152C559.669,141.483,559.684,141.528,559.704,141.587z"/>
	<path class="st0" d="M543.32,108.539c-0.098-0.195-0.212-0.383-0.359-0.555C543.107,108.156,543.222,108.344,543.32,108.539z"/>
	<path class="st0" d="M559.64,141.399c-0.067-0.195-0.103-0.307-0.103-0.307S559.575,141.209,559.64,141.399z"/>
	<path class="st0" d="M499.299,163.515c0.104-0.004,0.208-0.007,0.312-0.004C499.507,163.508,499.403,163.51,499.299,163.515z"/>
	<path class="st0" d="M498.62,163.599c0.083-0.018,0.167-0.028,0.251-0.041C498.787,163.571,498.703,163.58,498.62,163.599z"/>
	<path class="st0" d="M493.063,161.015c0.008,0.095,0.014,0.183,0.014,0.247C493.077,161.197,493.071,161.111,493.063,161.015z"/>
	<path class="st0" d="M533.619,141.523c0.041,0.072,0.055,0.141,0.067,0.21C533.679,141.664,533.66,141.594,533.619,141.523z"/>
	<path class="st0" d="M574.395,126.235c0.138,0.083,0.267,0.192,0.392,0.311C574.662,126.426,574.533,126.318,574.395,126.235z"/>
	<path class="st0" d="M615.752,69.034c-0.1-0.022-0.185-0.038-0.267-0.053C615.567,68.996,615.652,69.012,615.752,69.034z"/>
	<path class="st0" d="M615.378,68.961c-0.106-0.016-0.195-0.026-0.259-0.026C615.183,68.935,615.272,68.945,615.378,68.961z"/>
	<path class="st0" d="M616.22,69.152c-0.108-0.029-0.206-0.054-0.302-0.077C616.014,69.098,616.113,69.123,616.22,69.152z"/>
	<path class="st0" d="M616.76,69.311c-0.111-0.035-0.216-0.066-0.32-0.096C616.543,69.245,616.649,69.276,616.76,69.311z"/>
	<path class="st0" d="M615.119,68.935c-0.048,0-0.087-0.022-0.126-0.042C615.031,68.919,615.072,68.935,615.119,68.935z"/>
	<path class="st1" d="M316.494,383.191c-0.156-6.266-0.369-12.447-0.216-13.05c0.313-1.252,13.102-8.739,15.291-9.991
		c2.18-1.243,6.234,0.626,6.234-1.865c0-2.495,5.304-1.248,8.428-1.874c3.119-0.622,4.989-2.806,4.989-5.617
		c0-2.811,4.369-2.185,7.178-2.5c2.809-0.311,2.491-2.806,4.369-2.806c1.87,0,0.935-2.802,1.246-5.924
		c0.313-3.117,0.313-2.495,3.115-2.495c2.809,0,5.626-1.563,5.626-3.432c0-1.874,12.16-0.626,14.039-0.626
		c1.87,0,2.494-2.184,2.18-3.748c-0.31-1.554-1.867-6.234-3.745-6.545c-1.874-0.311-0.624-4.991-0.624-8.739
		c0-3.739-0.622-7.176-2.804-9.982c-0.46-0.595-1.003-1.67-1.574-2.949c-3.417,0.071-7.547-2.495-11.108-2.602
		c-4.951-0.138-12.589,2.415-16.265-1.697c-3.681-4.103-6.23-5.377-8.912-4.103c-2.686,1.27-7.642,15.426-10.48,19.524
		c-2.826,4.108-10.748,6.941-14.569,6.941c-3.821,0-4.245,5.799-7.216,8.206c-2.975,2.402-1.841,6.23-5.382,9.049
		c-3.534,2.833-1.838,11.465,0,14.583c1.841,3.108-6.51,12.877-11.317,15.706c-4.811,2.828-6.365,8.201-14.007,9.48
		c-2.971,0.497-5.202,1.772-6.931,3.393c11.9,0,29.544,0,35.588,0C317.004,379.527,315.312,381.184,316.494,383.191z"/>
	<path class="st1" d="M481.612,294.63c2.269,3.397-0.557,9.054-2.826,10.186c-2.263,1.133-3.961,6.23-6.224,6.23
		c-2.26,0,0,8.49,3.961,10.186s3.961,4.52,3.961,6.225c0,1.696,5.666,3.393,7.358,5.657c1.701,2.264,4.529,13.019,4.529,16.984
		c0,1.017,0.343,1.842,0.845,2.516c0.296-0.201,0.604-0.41,0.916-0.624c0.054-0.037,0.107-0.073,0.161-0.111
		c0.061-0.043,0.122-0.087,0.184-0.13c0.127-0.089,0.253-0.18,0.378-0.271c0.055-0.041,0.109-0.082,0.164-0.123
		c0.125-0.094,0.249-0.19,0.371-0.286c0.055-0.044,0.109-0.088,0.163-0.133c0.118-0.097,0.232-0.195,0.343-0.294
		c0.052-0.046,0.103-0.092,0.153-0.139c0.11-0.103,0.215-0.208,0.317-0.313c0.043-0.045,0.087-0.089,0.128-0.134
		c0.106-0.116,0.203-0.235,0.296-0.355c0.029-0.037,0.061-0.073,0.088-0.11c0.116-0.159,0.221-0.321,0.309-0.486
		c1.275-2.402,2.258-6.505,1.692-7.642c-0.566-1.128-0.417-3.108,0.855-4.245c1.27-1.128,6.365-6.51,7.356-6.932
		c0.986-0.431,4.238,0.146,4.101-2.971c-0.058-1.243,0.093-3.144,0.289-4.991c-2.298-1.474-3.683-3.21-3.683-4.067
		c0-1.834-2.547-4.955-3.961-3.25c-1.412,1.696-6.787,0.284-7.502-3.255c-0.708-3.539,3.537-3.397,7.502-6.647
		c3.961-3.259,4.529-9.489,0.28-12.886c-4.245-3.397-1.275-5.231,1.701-8.339c2.971-3.113,0.284-4.814-1.275-3.402
		c-1.561,1.412-4.098,1.838-4.527-1.559c-0.417-3.393-9.622-3.956-13.157-0.706c-1.241,1.137-3.137,1.487-5.147,1.474
		C480.868,285.314,480.107,292.361,481.612,294.63z"/>
	<path class="st1" d="M384.604,313.977c0,3.748-1.25,8.428,0.624,8.739c1.878,0.311,3.435,4.991,3.745,6.545
		c0.313,1.563-0.31,3.748-2.18,3.748c-1.878,0-14.039-1.248-14.039,0.626c0,1.87-2.817,3.432-5.626,3.432
		c-2.802,0-2.802-0.622-3.115,2.495c-0.311,3.122,0.624,5.924-1.246,5.924c-1.878,0-1.56,2.495-4.369,2.806
		c-2.809,0.315-7.178-0.311-7.178,2.5c0,2.81-1.87,4.995-4.989,5.617c-3.124,0.626-8.428-0.622-8.428,1.874
		c0,2.491-4.054,0.622-6.234,1.865c-2.189,1.252-14.977,8.739-15.291,9.991c-0.153,0.604,0.06,6.785,0.216,13.05
		c0.328,0.559,0.859,1.132,1.878,1.718c0.063,0.036,0.143,0.084,0.235,0.139c0.068,0.041,0.15,0.091,0.233,0.142
		c0.017,0.01,0.032,0.02,0.05,0.03c3.077,1.891,15.819,10.231,30.913,20.204c0.799,0.527,1.601,1.058,2.412,1.594
		c17.133,11.326,36.702,24.367,48.466,32.373c0.157,0.107,0.307,0.209,0.461,0.314c0.418,0.285,0.83,0.566,1.227,0.837
		c0.386,0.263,0.763,0.522,1.128,0.771c0.088,0.06,0.171,0.117,0.257,0.176c0.382,0.262,0.753,0.517,1.11,0.762
		c0.082,0.057,0.163,0.112,0.243,0.168c0.369,0.255,0.724,0.5,1.064,0.735c0.046,0.032,0.092,0.064,0.137,0.095
		c1.19,0.825,2.194,1.529,2.98,2.092c0.013,0.009,0.024,0.017,0.036,0.026c0.234,0.167,0.446,0.321,0.64,0.463
		c0.044,0.032,0.084,0.062,0.126,0.092c0.152,0.111,0.289,0.214,0.413,0.307c0.046,0.035,0.093,0.07,0.135,0.102
		c0.108,0.082,0.2,0.154,0.281,0.22c0.031,0.025,0.067,0.053,0.094,0.075c0.097,0.079,0.175,0.147,0.223,0.194
		c2.691,2.686,6.053,8.743,6.053,8.743s6.059,0.675,10.768,3.366c4.713,2.695,4.709,10.093,4.709,10.093s0.03-0.007,0.077-0.017
		c0.635-0.141,5.192-1.149,8.386-1.804c0.335-0.072,0.663-0.137,0.96-0.195c3.366-0.679,14.802-4.716,14.802-4.716l17.493-14.121
		l41.056-25.582c0,0,0.035,0,0.102,0c-1.265-4.525-2.629-8.161-4.827-8.161c-2.469,0-4.23-2.114-7.056-2.114
		c-2.826,0-6.361-1.412-6.709-3.89c-0.353-2.464,1.055-4.236-1.064-7.407c-2.112-3.179-4.232-4.592-4.232-6.003
		c0-1.412,3.59-4.166,4.156-4.734c0.562-0.564-1.423-2.828-1.423-4.387c0-1.554-1.412-4.245,0-5.941
		c1.423-1.696,2.269-3.397,0.708-6.505c-1.554-3.113,2.129-5.946,0.286-10.049c-1.841-4.107-4.667-7.358-4.387-8.774
		c0.016-0.083,0.05-0.167,0.095-0.252c0.015-0.028,0.036-0.057,0.054-0.085c0.035-0.057,0.073-0.114,0.119-0.172
		c0.028-0.035,0.06-0.071,0.091-0.106c0.047-0.053,0.096-0.105,0.15-0.159c0.039-0.038,0.079-0.077,0.122-0.116
		c0.057-0.052,0.118-0.105,0.181-0.158c0.047-0.04,0.094-0.079,0.144-0.12c0.066-0.053,0.136-0.106,0.207-0.16
		c0.056-0.043,0.111-0.085,0.17-0.129c0.041-0.03,0.086-0.061,0.128-0.092c0.208-0.15,0.428-0.303,0.659-0.46
		c-0.501-0.674-0.845-1.5-0.845-2.516c0-3.965-2.829-14.72-4.529-16.984c-1.692-2.265-7.358-3.961-7.358-5.657
		c0-1.705,0-4.529-3.961-6.225s-6.221-10.186-3.961-10.186c2.263,0,3.961-5.098,6.224-6.23c2.269-1.132,5.095-6.789,2.826-10.186
		c-1.506-2.269-0.744-9.316,0.097-14.942c-3.745-0.027-7.897-1.39-9.009-1.75c-1.697-0.568-6.643,0.844-9.763,0.981
		c-3.111,0.147-10.752,5.094-13.299,2.687c-2.549-2.398-28.588,1.842-35.941,2.123c-7.36,0.284-10.475,7.93-14.858,7.93
		c-4.385,0-11.325,3.677-15.002,7.78c-1.037,1.159-2.269,1.59-3.612,1.607c0.571,1.279,1.115,2.354,1.574,2.949
		C383.982,306.802,384.604,310.238,384.604,313.977z"/>
	<path class="st1" d="M511.19,327.316c0.138,3.117-3.115,2.54-4.101,2.971c-0.99,0.422-6.086,5.804-7.356,6.932
		c-1.272,1.137-1.421,3.117-0.855,4.245c0.566,1.137-0.417,5.24-1.692,7.642c-0.088,0.166-0.193,0.327-0.309,0.486
		c-0.027,0.037-0.059,0.073-0.088,0.11c-0.093,0.12-0.19,0.239-0.296,0.355c-0.041,0.045-0.085,0.089-0.128,0.134
		c-0.102,0.106-0.206,0.21-0.317,0.313c-0.05,0.047-0.101,0.093-0.153,0.139c-0.112,0.099-0.226,0.198-0.343,0.294
		c-0.054,0.044-0.108,0.089-0.163,0.133c-0.122,0.097-0.245,0.192-0.371,0.286c-0.055,0.041-0.109,0.083-0.164,0.123
		c-0.125,0.092-0.251,0.182-0.378,0.271c-0.061,0.043-0.122,0.088-0.184,0.13c-0.054,0.038-0.107,0.074-0.161,0.111
		c-0.312,0.215-0.62,0.423-0.916,0.624c-0.231,0.157-0.45,0.31-0.659,0.46c-0.042,0.031-0.087,0.062-0.128,0.092
		c-0.059,0.043-0.114,0.086-0.17,0.129c-0.071,0.054-0.141,0.107-0.207,0.16c-0.05,0.04-0.097,0.08-0.144,0.12
		c-0.063,0.053-0.124,0.106-0.181,0.158c-0.042,0.039-0.083,0.077-0.122,0.116c-0.054,0.053-0.103,0.106-0.15,0.159
		c-0.031,0.035-0.064,0.071-0.091,0.106c-0.046,0.058-0.083,0.115-0.119,0.172c-0.018,0.028-0.039,0.057-0.054,0.085
		c-0.044,0.085-0.078,0.169-0.095,0.252c-0.28,1.417,2.546,4.667,4.387,8.774c1.843,4.103-1.841,6.936-0.286,10.049
		c1.561,3.108,0.715,4.809-0.708,6.505c-1.412,1.696,0,4.387,0,5.941c0,1.559,1.985,3.823,1.423,4.387
		c-0.566,0.568-4.156,3.322-4.156,4.734c0,1.412,2.12,2.824,4.232,6.003c2.118,3.17,0.71,4.942,1.064,7.407
		c0.348,2.478,3.883,3.89,6.709,3.89c2.826,0,4.587,2.114,7.056,2.114c2.198,0,3.561,3.637,4.827,8.161
		c0.026,0,0.08,0.001,0.116,0.002c0.903,0.011,4.527,0.096,8.05,0.723c0.014,0.002,0.027,0.005,0.041,0.007
		c0.349,0.062,0.695,0.131,1.039,0.204c0.03,0.006,0.06,0.013,0.089,0.019c0.332,0.072,0.659,0.15,0.981,0.234
		c0.038,0.01,0.076,0.02,0.114,0.03c0.315,0.084,0.624,0.173,0.924,0.268c0.038,0.012,0.075,0.024,0.112,0.037
		c0.299,0.098,0.59,0.201,0.868,0.311c0.03,0.012,0.058,0.024,0.087,0.036c0.282,0.115,0.554,0.235,0.809,0.364
		c0.017,0.008,0.032,0.018,0.049,0.026c0.263,0.135,0.512,0.277,0.739,0.429c4.041,2.695,6.061,6.057,6.061,6.057l16.146-8.748
		l73.059,39.294v-5.066h8.859c0,0,0-8.372,0-20.12c0-26.21,0-69.244,0-73.73c0-6.487-2.953-10.626,0-14.165
		c2.953-3.539-1.181-5.306,1.181-11.803c0.28-0.764,0.564-1.563,0.875-2.384c-0.089-0.116-0.226-0.24-0.271-0.369
		c-0.71-1.976-4.533-2.127-12.877-3.397c-8.352-1.27-5.24-6.936-14.578-7.495c-9.342-0.573-21.225,6.931-21.363,10.892
		c-0.142,3.965,4.378,8.352,1.27,12.456c-3.113,4.098-9.898,4.52-14.72,0.137c-4.804-4.382-11.883-6.368-17.677-6.368
		c-5.804,0-9.907-3.681-9.489-6.789c0.426-3.108-1.412-4.529-6.217-5.515c-4.813-0.995-8.912-4.956-17.402-3.539
		c-4.547,0.75-8.401-0.608-11.039-2.305C511.283,324.173,511.132,326.073,511.19,327.316z"/>
	<path class="st1" d="M274.15,429.731c0-2.184,9.991-4.991,9.991-7.176c0-2.18,0-25.577,0-25.577s31.203,0.622,32.138,0
		c0.484-0.329,0.382-7.114,0.216-13.788c-1.181-2.007,0.511-3.664-6.867-3.664c-6.043,0-23.688,0-35.588,0
		c-2.725,2.558-4.199,6.008-5.24,8.779c-1.696,4.525-12.309,11.177-12.733,17.544c-0.426,6.368-10.339,16.27-16.843,29.853
		c-1.789,3.748-2.609,6.656-2.817,9.009h37.744C274.15,444.713,274.15,431.916,274.15,429.731z"/>
	<path class="st1" d="M336.091,407.018h16.123c-0.81-0.536-1.613-1.066-2.412-1.594c-15.072-9.955-27.817-18.297-30.913-20.204
		c-0.018-0.011-0.033-0.02-0.05-0.03c-0.085-0.052-0.164-0.1-0.233-0.142c-0.092-0.055-0.172-0.103-0.235-0.139
		c-1.019-0.586-1.55-1.159-1.878-1.718c0.166,6.674,0.269,13.459-0.216,13.788c-0.935,0.622-32.138,0-32.138,0s0,23.397,0,25.577
		c0,2.185-9.991,4.991-9.991,7.176c0,2.185,0,14.982,0,14.982h-37.744c-0.544,6.164,3.212,8.348,5.364,10.804
		c2.971,3.393-2.263,9.334,2.125,15.426c0.36,0.5,0.649,1.024,0.885,1.564h98.293L336.091,407.018z"/>
	<path class="st1" d="M432.844,469.007c-0.046,0.01-0.077,0.017-0.077,0.017s0.004-7.398-4.709-10.093
		c-4.709-2.691-10.768-3.366-10.768-3.366s-3.362-6.057-6.053-8.743c-0.047-0.047-0.125-0.114-0.223-0.194
		c-0.027-0.022-0.064-0.051-0.094-0.075c-0.082-0.066-0.173-0.137-0.281-0.22c-0.042-0.032-0.089-0.067-0.135-0.102
		c-0.124-0.094-0.261-0.195-0.413-0.307c-0.042-0.031-0.082-0.06-0.126-0.092c-0.194-0.142-0.406-0.295-0.64-0.463
		c-0.013-0.009-0.023-0.017-0.036-0.026c-0.787-0.563-1.791-1.268-2.98-2.092c-0.045-0.031-0.092-0.063-0.137-0.095
		c-0.34-0.235-0.696-0.481-1.064-0.735c-0.081-0.056-0.161-0.111-0.243-0.168c-0.357-0.245-0.728-0.501-1.11-0.762
		c-0.086-0.059-0.169-0.116-0.257-0.176c-0.363-0.249-0.744-0.509-1.128-0.771c-0.397-0.271-0.809-0.552-1.227-0.837
		c-0.154-0.105-0.304-0.207-0.461-0.314c-11.764-8.006-31.333-21.047-48.466-32.373h-16.123l6.98,65.488h97.908
		c-0.018-2.023-0.043-3.844-0.064-5.236C437.739,467.926,433.444,468.875,432.844,469.007z"/>
	<path class="st1" d="M549.533,455.654c1.132-3.961-1.976-3.672-1.696-7.353c0.284-3.672-3.956-6.51-3.956-8.774
		c0-1.385-0.32-7.646-0.564-12.3l-7.594,4.112c0,0-2.02-3.361-6.061-6.057c-0.227-0.152-0.476-0.294-0.739-0.429
		c-0.017-0.009-0.032-0.018-0.049-0.026c-0.255-0.129-0.526-0.25-0.809-0.364c-0.029-0.012-0.058-0.024-0.087-0.036
		c-0.278-0.111-0.569-0.214-0.868-0.311c-0.037-0.012-0.075-0.025-0.112-0.037c-0.3-0.096-0.609-0.185-0.924-0.268
		c-0.038-0.01-0.076-0.02-0.114-0.03c-0.322-0.084-0.649-0.161-0.981-0.234c-0.03-0.006-0.06-0.013-0.089-0.019
		c-0.344-0.074-0.69-0.142-1.039-0.204c-0.014-0.002-0.027-0.005-0.041-0.007c-3.523-0.627-7.147-0.712-8.05-0.723
		c-0.139-0.002-0.218-0.002-0.218-0.002l-41.056,25.582l-17.493,14.121c0,0-11.436,4.036-14.802,4.716
		c-0.297,0.057-0.625,0.123-0.96,0.195c-0.105,0.023-0.208,0.043-0.314,0.067c0.022,1.392,0.046,3.212,0.064,5.236h106.824
		c0.034-3.171,0.033-5.771,0.033-6.661C547.837,463.021,548.41,459.628,549.533,455.654z"/>
	<path class="st1" d="M551.869,422.591l-8.552,4.636c0.244,4.654,0.564,10.915,0.564,12.3c0,2.265,4.241,5.102,3.956,8.774
		c-0.28,3.681,2.829,3.393,1.696,7.353c-1.124,3.974-1.696,7.367-1.696,10.191c0,0.89,0.001,3.49-0.033,6.661h77.124v-10.622
		L551.869,422.591z"/>
	<path class="st1" d="M633.786,348.804c-2.953,3.539,0,7.678,0,14.165c0,4.486,0,47.519,0,73.73h58.379c0,0,1.705-1.133,3.402-2.269
		c1.701-1.128,4.529,1.701,4.529,1.701h12.447c0,0,2.273,2.837,5.098,2.837c2.828,0,1.132-4.538,5.666-4.538
		c0.489,0,0.901-0.092,1.27-0.234v-35.923c-2.178-3.488-4.107-6.632-4.241-8.416c-0.288-3.668-4.671-5.795-4.533-9.76
		c0.137-3.961-2.118-4.387-6.51-10.613c-4.387-6.221-5.666-17.122-4.387-17.548c1.274-0.417,4.951,9.2,6.363,12.313
		c1.421,3.122,6.23,12.598,9.627,12.598c1.654,0,2.805-3.382,3.681-6.775v-22.955l-2.744-6.732c-0.493,0.768-0.87,1.305-1.074,1.506
		c-1.132,1.137-5.804-1.697-10.191-0.568c-4.387,1.137-7.784-0.422-12.029-2.54c-4.245-2.123-18.108,0.559-19.956,3.25
		c-1.834,2.691-6.51,2.691-10.75,0.995c-4.241-1.705-9.76-4.245-17.544-4.956c-7.274-0.657-13.126-1.705-14.445-3.454
		c-0.311,0.821-0.595,1.621-0.875,2.384C632.605,343.497,636.739,345.265,633.786,348.804z"/>
	<path class="st1" d="M717.64,438.967c-2.824,0-5.098-2.837-5.098-2.837h-12.447c0,0-2.829-2.829-4.529-1.701
		c-1.697,1.137-3.402,2.269-3.402,2.269h-58.379c0,11.748,0,20.12,0,20.12h-8.859v5.066v10.622h99.648v-38.312
		c-0.369,0.142-0.781,0.234-1.27,0.234C718.772,434.429,720.468,438.967,717.64,438.967z"/>
	<path class="st1" d="M724.576,335.588c-1.021,1.938-2.009,3.64-2.744,4.797l2.744,6.732V335.588z"/>
	<path class="st1" d="M659.479,222.175c-2.54-1.27-8.703-0.422-9.76,0c-0.137,0.057-0.224,0.167-0.272,0.32
		c-0.002,0.008-0.003,0.018-0.005,0.026c-0.02,0.07-0.034,0.146-0.039,0.232c-0.001,0.016,0.001,0.036,0,0.052
		c-0.003,0.083-0.002,0.169,0.006,0.264c0.001,0.017,0.005,0.037,0.006,0.054c0.01,0.103,0.024,0.209,0.044,0.323
		c0,0,0,0.001,0,0.001c0.069,0.392,0.191,0.849,0.33,1.338c0.097,0.354,0.201,0.724,0.303,1.098c0.071,0.26,0.14,0.521,0.202,0.781
		c0.007,0.03,0.013,0.059,0.02,0.089c0.07,0.301,0.131,0.599,0.175,0.888c0.002,0.013,0.003,0.026,0.005,0.04
		c0.044,0.299,0.072,0.589,0.072,0.861c0,2.336-2.762,2.975-2.762,4.458c0,1.15-1.008,1.932-2.238,3.286
		c1.865,1.39,3.668,2.735,5.564,2.735c3.97,0,5.52-4.245,8.916-5.524c3.392-1.27,11.03,0.426,12.882-1.27
		c1.838-1.696-4.822-3.823-7.22-5.804c-1.399-1.159-1.888-3.304-2.363-4.969C662.227,222.211,660.771,222.828,659.479,222.175z"/>
	<path class="st1" d="M652.836,269.866c-2.695,0.427,4.667,3.535,4.809,4.951c0.138,1.416,6.23,2.127,6.23,3.823
		c0,1.696,1.834,2.265,4.809,1.421c2.971-0.853,4.107,3.251,5.941,6.079c1.838,2.829,12.304,0.848,12.304-2.26
		c0-3.113,3.113-3.97,7.784-3.544c4.671,0.422,10.764,6.789,13.024,7.637c2.256,0.848,6.931-1.696,9.903-1.696
		c2.128,0,4.903-2.393,6.936-4.115v-60.125c-13.308-1.701-24.764,5.235-29.009,8.912c-4.245,3.686-19.529,0.138-20.941,1.137
		c-1.416,0.986,0.28,5.373-4.813,7.353c-5.098,1.981-16.274,0-20.093,1.705c-3.824,1.692-5.231,7.353-1.981,7.074
		c3.255-0.289,4.951,1.275,3.965,2.686c-0.99,1.412,2.682,5.373,0.843,7.078c-1.834,1.696-1.98,4.947,0.289,6.643
		C655.1,266.327,655.518,269.448,652.836,269.866z"/>
	<path class="st1" d="M536.798,76.786c0.639,1.697,1.279,7.638-0.209,9.978c-1.483,2.331-0.844,2.971,0.639,3.814
		c1.487,0.853,2.123,2.975,2.123,4.672c0,1.696,1.061,1.492,1.274,5.098c0.209,3.605,1.061,6.15,2.335,7.638
		c0.147,0.172,0.261,0.36,0.359,0.555c0.026,0.053,0.046,0.108,0.07,0.162c0.065,0.151,0.119,0.306,0.16,0.467
		c0.016,0.061,0.031,0.121,0.043,0.182c0.033,0.167,0.054,0.337,0.065,0.509c0.004,0.055,0.012,0.108,0.014,0.163
		c0.005,0.207-0.002,0.415-0.023,0.623c-0.013,0.14-0.039,0.277-0.063,0.416c-0.011,0.061-0.019,0.121-0.031,0.182
		c-0.035,0.171-0.077,0.336-0.125,0.501c-0.002,0.006-0.003,0.011-0.005,0.017c-0.052,0.178-0.108,0.35-0.172,0.515
		c1.78,1.314,3.777,2.582,5.529,3.208c4.427,1.585,6.013,2.846,6.319,4.427c0.324,1.581,4.116,4.432,5.066,2.216
		c0.946-2.207,3.473-0.946,5.373-0.946c1.9,0,2.216,2.211,2.522,3.473c0.32,1.265,4.743,0.639,6.332,1.581
		c0.138,0.083,0.267,0.192,0.392,0.311c0.028,0.027,0.056,0.053,0.084,0.081c0.117,0.12,0.232,0.251,0.341,0.397
		c0.026,0.034,0.051,0.073,0.076,0.108c0.079,0.111,0.158,0.227,0.235,0.349c0.635,0.997,1.207,2.302,2.038,3.319
		c0.36,0.449,0.768,0.848,1.257,1.128c2.216,1.261,4.103-1.581,5.692-0.631c1.576,0.946,5.693,1.892,8.22,0.946
		c2.522-0.946,4.107,0.946,7.269,0.635c3.152-0.32,7.269,0.941,8.215,1.892c0.502,0.497,3.175,0.994,5.608,1.359
		c0.541-1.113-0.283-4.215-0.404-5.695c-0.001-0.014-0.003-0.03-0.004-0.043c-0.006-0.087-0.009-0.164-0.01-0.239
		c0-0.024-0.002-0.051-0.002-0.073c0.002-0.089,0.008-0.168,0.02-0.232c0.209-1.057,7.638-7.638,8.912-9.125
		c1.275-1.483,3.188-1.483,4.245-3.393c1.066-1.914-2.971-8.068-3.819-9.342c-0.049-0.073-0.097-0.162-0.143-0.261
		c-0.021-0.045-0.041-0.099-0.062-0.149c-0.022-0.053-0.043-0.104-0.064-0.162c-0.032-0.088-0.063-0.185-0.093-0.284
		c-0.005-0.017-0.01-0.032-0.015-0.049c-0.478-1.615-0.703-4.515-0.468-6.482c0.002-0.016,0.003-0.032,0.005-0.047
		c0.022-0.176,0.048-0.343,0.077-0.502c0.004-0.022,0.007-0.046,0.011-0.068c0.034-0.174,0.072-0.338,0.116-0.486
		c0.635-2.123-3.184-3.397-3.184-4.88c0-1.487,3.606-4.036,5.52-4.88c1.909-0.853,1.274-6.798-0.427-8.281
		c-1.701-1.487-2.544-4.241-1.487-7.216c0.056-0.155,0.075-0.308,0.086-0.46c0.005-0.111-0.004-0.221-0.017-0.332
		c-0.004-0.029-0.007-0.058-0.012-0.087c-0.026-0.144-0.068-0.285-0.128-0.425c-0.005-0.012-0.011-0.024-0.016-0.036
		c-0.478-1.057-1.871-1.978-3.328-2.665c-0.026-0.012-0.052-0.026-0.078-0.038c-0.162-0.075-0.324-0.145-0.485-0.215
		c-0.067-0.029-0.135-0.059-0.202-0.086c-0.137-0.057-0.273-0.11-0.408-0.163c-0.091-0.035-0.183-0.071-0.272-0.104
		c-0.115-0.043-0.228-0.083-0.339-0.122c-0.105-0.037-0.209-0.072-0.31-0.106c-0.094-0.031-0.186-0.061-0.276-0.089
		c-0.111-0.034-0.216-0.066-0.32-0.096c-0.074-0.022-0.15-0.044-0.22-0.063c-0.107-0.029-0.206-0.054-0.302-0.077
		c-0.055-0.014-0.115-0.029-0.166-0.041c-0.1-0.022-0.185-0.038-0.267-0.053c-0.034-0.006-0.076-0.015-0.107-0.02
		c-0.106-0.016-0.195-0.026-0.259-0.026c-0.047,0-0.088-0.016-0.126-0.042c-0.115-0.059-0.198-0.194-0.252-0.398
		c-6.648,1.221-23.576-0.543-24.857-1.053c-0.839-0.337-2.989-1.11-4.836-1.767c-0.843,1.403-2.598,2.691-5.235,2.691
		c-4.098,0-4.387-4.103-4.525-5.942c-0.133-1.838-16.554,1.559-20.945,5.942c-4.383,4.387-14.574,2.686-14.849,5.089
		c-0.213,1.75-1.741,2.655-2.735,2.167C536.687,76.048,536.673,76.448,536.798,76.786z"/>
	<path class="st1" d="M574.297,213.343c-0.026-0.129-0.017-0.294,0.014-0.481c0.011-0.066,0.036-0.145,0.052-0.218
		c0.031-0.132,0.064-0.266,0.115-0.417c0.034-0.1,0.077-0.208,0.118-0.316c0.055-0.143,0.113-0.287,0.182-0.442
		c0.055-0.125,0.115-0.253,0.178-0.385c0.074-0.155,0.153-0.312,0.237-0.475c0.072-0.14,0.144-0.278,0.223-0.422
		c0.096-0.176,0.199-0.356,0.303-0.538c0.078-0.135,0.152-0.266,0.233-0.403c0.151-0.253,0.31-0.508,0.473-0.765
		c0.041-0.065,0.079-0.129,0.121-0.194c0.886-1.379,1.899-2.753,2.807-3.801c0.086-0.1,0.173-0.201,0.257-0.295
		c0.086-0.096,0.169-0.182,0.252-0.27c0.098-0.103,0.193-0.203,0.286-0.295c0.074-0.074,0.146-0.142,0.217-0.208
		c0.095-0.089,0.186-0.167,0.274-0.241c0.062-0.051,0.123-0.103,0.182-0.147c0.093-0.07,0.177-0.122,0.259-0.171
		c0.044-0.026,0.091-0.059,0.131-0.078c0.117-0.056,0.224-0.092,0.313-0.092c0.071,0,0.139-0.035,0.205-0.086
		c0.013-0.01,0.026-0.018,0.038-0.03c0.062-0.057,0.121-0.136,0.178-0.233c0.013-0.023,0.027-0.05,0.04-0.076
		c0.052-0.1,0.103-0.214,0.151-0.347c0.01-0.027,0.02-0.054,0.029-0.083c0.045-0.132,0.088-0.281,0.13-0.44
		c0.014-0.055,0.029-0.109,0.043-0.168c0.041-0.169,0.08-0.351,0.117-0.543c0.014-0.075,0.028-0.153,0.042-0.231
		c0.029-0.163,0.056-0.332,0.082-0.508c0.015-0.103,0.03-0.207,0.044-0.314c0.024-0.182,0.047-0.369,0.069-0.56
		c0.011-0.099,0.022-0.197,0.033-0.298c0.024-0.237,0.047-0.479,0.067-0.728c0.008-0.094,0.015-0.189,0.022-0.284
		c0.018-0.24,0.035-0.484,0.049-0.731c0.003-0.054,0.007-0.108,0.01-0.163c0.016-0.296,0.029-0.596,0.04-0.897
		c0.002-0.054,0.004-0.108,0.006-0.162c0.011-0.33,0.019-0.661,0.023-0.992c0-0.006,0-0.011,0-0.016
		c0.023-1.771-0.046-3.528-0.214-4.891c-4.716-3.259-8.637-4.369-8.637-4.369s-12.673-0.626-14.786-1.474
		c-2.114-0.844-4.227,2.749-6.128,1.27c-1.901-1.474-4.653,0.417-4.227,2.535c0.422,2.109,4.436,3.383,4.436,6.55
		c0,3.166,8.033,7.82,7.819,9.507c-0.146,1.186,4.818,4.41,7.78,8.753c1.576,0.994,3.255,2.291,4.915,3.628
		C574.231,214.915,574.395,213.827,574.297,213.343z"/>
	<path class="st1" d="M561.207,203.929c0.213-1.687-7.819-6.341-7.819-9.507c0-3.166-4.014-4.44-4.436-6.55
		c-0.426-2.118,2.327-4.01,4.227-2.535c1.901,1.479,4.014-2.114,6.128-1.27c2.113,0.848,14.786,1.474,14.786,1.474
		s3.921,1.11,8.637,4.369c-0.048-0.412-0.106-0.787-0.174-1.12c-0.014-0.069-0.029-0.133-0.045-0.198
		c-0.017-0.075-0.035-0.147-0.054-0.216c-0.019-0.069-0.037-0.137-0.057-0.2c-0.036-0.115-0.074-0.227-0.114-0.318
		c-1.137-2.669,0-5.706-3.042-6.847c-1.566-0.586-2.219-3.29-2.495-5.783c-1.436,0.437-2.651,0.794-3.309,0.956
		c-2.527,0.631-7.9,0.311-9.8-2.216c-1.412-1.883-5.804-4.645-7.957-5.932c-0.753,0.658-3.31,2.847-4.959,3.588
		c-0.011,0.005-0.022,0.01-0.033,0.015c-0.122,0.054-0.238,0.099-0.348,0.135c-0.015,0.005-0.031,0.012-0.046,0.016
		c-0.12,0.037-0.234,0.065-0.337,0.078c-1.701,0.217-0.635,4.676-2.336,4.676c-1.696,0-2.971,2.966-3.397,4.245
		c-0.422,1.27-4.236-0.853-5.942-0.218c-1.212,0.462-4.791,1.017-6.745,1.301c0.298,1.936,0.182,4.076,1.727,4.076
		c2.549,0,7.22-0.275,7.358,3.117c0.133,3.393,6.225,10.897,8.481,13.446c2.264,2.549,7.362,1.981,7.642,4.103
		c0.288,2.123,3.965,4.103,8.215,4.387c1.15,0.076,2.535,0.742,4.023,1.679C566.025,208.339,561.061,205.115,561.207,203.929z"/>
	<path class="st1" d="M592.623,244.671c2.123-0.417,0.848-2.118,2.336-3.606c1.483-1.483,3.179-4.454,3.397-5.515
		c0.022-0.114,0.093-0.201,0.191-0.276c-2.875-2.157-4.886-3.711-5.525-5.932c-0.644-2.264,0.022-6.696,1.039-9.929
		c-0.292-0.208-0.694-0.49-1.162-0.811c-1.582-1.083-3.924-2.611-5.591-3.378c-0.015-0.007-0.03-0.013-0.045-0.02
		c-0.176-0.08-0.342-0.149-0.5-0.21c-0.038-0.015-0.077-0.03-0.115-0.043c-0.135-0.049-0.259-0.087-0.378-0.118
		c-0.038-0.01-0.08-0.024-0.116-0.032c-0.144-0.033-0.276-0.054-0.388-0.054c-0.093,0-0.195,0.057-0.293,0.084
		c-1.079,0.259-2.437,1.869-3.365,3.87c-0.007,0.014-0.013,0.029-0.019,0.043c-0.073,0.16-0.144,0.322-0.211,0.487
		c-0.025,0.06-0.048,0.122-0.072,0.183c-0.049,0.125-0.098,0.251-0.144,0.378c-0.036,0.103-0.069,0.206-0.103,0.31
		c-0.03,0.092-0.062,0.184-0.09,0.277c-0.043,0.142-0.08,0.284-0.117,0.427c-0.015,0.06-0.033,0.119-0.048,0.178
		c-0.049,0.205-0.093,0.41-0.13,0.614c3.712,1.98,5.173,3.393,2.602,5.959c-2.682,2.691-3.25,11.745-0.284,14.148
		c2.829,2.291,3.641,6.838,6.376,8.135C590.643,247.557,591.225,244.964,592.623,244.671z"/>
	<path class="st1" d="M555.155,162.007c1.55-0.213,0.44-2.877,1.55-4.205c1.11-1.323-0.888-3.983,1.11-3.765
		c1.989,0.226,4.201,0.448,4.201-2.429c0-0.968,0.52-1.821,1.273-2.534c-1.317-1.843-2.401-4.343-3.063-6.05
		c-0.225-0.593-0.402-1.093-0.521-1.437c-0.02-0.058-0.036-0.103-0.052-0.152c-0.004-0.012-0.008-0.024-0.012-0.035
		c-0.065-0.19-0.103-0.307-0.103-0.307s-4.742,1.901-7.277-0.941c-2.527-2.851-8.846-2.851-8.846-2.851s-0.635,2.851-1.585,4.427
		c-0.792,1.318-5.349,1.305-8.294,0.52c-0.651,0.838-3.086,1.537-4.412,2.535c-0.01,0.008-0.02,0.015-0.029,0.023
		c-0.104,0.08-0.198,0.162-0.286,0.246c-0.027,0.026-0.054,0.052-0.079,0.078c-0.07,0.072-0.131,0.147-0.187,0.223
		c-0.022,0.03-0.048,0.06-0.068,0.09c-0.068,0.104-0.125,0.211-0.161,0.322c-0.64,1.914-5.306,0.853-3.819,5.941
		c1.483,5.098-2.331,3.401-3.819,2.762c-1.488-0.635-8.068,0.213-9.765,1.909c-1.701,1.701-4.036,1.27-5.524,0.427
		c-1.483-0.844-4.452-1.275-5.726,0.843c-1.275,2.127-3.608-1.687-5.524-1.483c-0.575,0.071-0.877,0.506-1.05,1.074
		c-0.357,1.178-0.085,2.982-0.023,3.777c0.008,0.096,0.014,0.183,0.014,0.247c0,0.844,2.975,3.393,4.88,2.549
		c0.216-0.096,0.438-0.161,0.663-0.211c0.083-0.018,0.167-0.028,0.251-0.041c0.142-0.021,0.284-0.037,0.428-0.043
		c0.104-0.005,0.207-0.007,0.312-0.004c0.118,0.004,0.236,0.014,0.355,0.026c1.387,0.139,2.804,0.834,3.937,1.542
		c1.698,1.066,4.882-0.848,5.941-1.909c1.066-1.066,7.007-1.066,7.642-1.066c0.639,0,0.848,3.402,1.914,4.041
		c0.082,0.048,0.183,0.095,0.298,0.141c0.018,0.007,0.038,0.014,0.057,0.021c0.11,0.042,0.23,0.083,0.365,0.122
		c0.01,0.003,0.02,0.006,0.03,0.009c0.94,0.273,2.44,0.497,4.118,0.669c1.235,0.129,2.562,0.235,3.837,0.306
		c3.605,0.213,8.912,1.909,10.612,1.909c1.696,0,4.454-2.975,8.268-2.975c3.823,0,5.946-2.331,6.585-2.118
		c0.012,0.004,0.026,0.016,0.038,0.022C553.883,163.077,554.327,162.127,555.155,162.007z"/>
	<path class="st1" d="M596.518,141.728c-0.942-0.324-6.954,5.688-8.854,5.688c-1.896,0-10.115,0.95-10.115,3.157
		c0,2.216-10.107,2.54-12.957,0c-0.454-0.403-0.889-0.921-1.302-1.499c-0.754,0.713-1.273,1.566-1.273,2.534
		c0,2.877-2.212,2.655-4.201,2.429c-1.998-0.218,0,2.442-1.11,3.765c-1.11,1.328,0,3.992-1.55,4.205
		c-0.828,0.12-1.272,1.07-1.547,2.247c0.661,0.325,2.293,3.588,2.293,3.588s-0.084,0.08-0.217,0.195
		c2.154,1.288,6.545,4.05,7.957,5.932c1.901,2.526,7.273,2.846,9.8,2.216c0.658-0.163,1.873-0.519,3.309-0.956
		c0-0.002-0.001-0.005-0.001-0.007c4.085-1.244,9.973-3.144,9.973-3.144s2.531,0.946,4.107,1.256
		c0.372,0.08,1.377,0.243,2.683,0.439c0.513-0.532,1.73-1.015,3.232-2.015c0.14-0.093,0.28-0.189,0.424-0.292
		c0.099-0.071,0.2-0.143,0.301-0.219c0.233-0.174,0.47-0.36,0.711-0.562c0.063-0.053,0.127-0.11,0.19-0.165
		c0.275-0.238,0.552-0.488,0.832-0.769c2.971-2.971,7.429-13.587,8.699-14.431c1.274-0.853,4.676-2.762,6.372-4.032
		c0.194-0.147,0.353-0.293,0.492-0.438c0.02-0.021,0.043-0.043,0.063-0.064c0.12-0.132,0.212-0.262,0.288-0.391
		c0.024-0.041,0.045-0.082,0.064-0.123c0.049-0.101,0.083-0.2,0.107-0.298c0.018-0.079,0.026-0.157,0.027-0.235
		c0.001-0.037-0.001-0.073-0.003-0.109c-0.013-0.148-0.051-0.292-0.123-0.429c-0.058-0.111-0.135-0.218-0.228-0.32
		c-0.002-0.002-0.004-0.004-0.005-0.006c-0.09-0.098-0.198-0.19-0.32-0.279c-0.022-0.015-0.047-0.03-0.07-0.045
		c-0.113-0.077-0.234-0.151-0.373-0.219c-0.172-0.083-0.354-0.164-0.563-0.233c-0.217-0.071-0.441-0.172-0.667-0.286
		c-0.068-0.034-0.134-0.073-0.202-0.111c-0.151-0.084-0.3-0.173-0.45-0.271c-0.093-0.061-0.184-0.122-0.276-0.188
		c-0.112-0.081-0.22-0.166-0.329-0.254c-0.108-0.086-0.216-0.167-0.321-0.259c-2.664-0.595-5.233-1.376-6.019-2.157
		C603.791,142.993,597.472,142.043,596.518,141.728z"/>
	<path class="st1" d="M541.829,141.728c0.95-1.576,1.585-4.427,1.585-4.427s6.319,0,8.846,2.851
		c2.535,2.842,7.277,0.941,7.277,0.941s0.036,0.111,0.103,0.307c0.004,0.011,0.008,0.024,0.012,0.035
		c0.016,0.046,0.034,0.098,0.052,0.152c0.119,0.345,0.297,0.845,0.521,1.437c0.684-1.563,1.576-2.935,2.66-3.095
		c2.669-0.378,6.465-0.759,9.13-4.565c1.381-1.958,3.654-3.517,5.546-4.565c-0.832-1.017-1.404-2.322-2.038-3.319
		c-0.077-0.121-0.155-0.238-0.235-0.349c-0.025-0.035-0.05-0.074-0.076-0.108c-0.11-0.146-0.224-0.277-0.341-0.397
		c-0.028-0.028-0.056-0.055-0.084-0.081c-0.125-0.119-0.254-0.227-0.392-0.311c-1.59-0.941-6.012-0.315-6.332-1.581
		c-0.306-1.261-0.622-3.473-2.522-3.473c-1.901,0-4.427-1.261-5.373,0.946c-0.95,2.216-4.742-0.635-5.066-2.216
		c-0.307-1.581-1.892-2.842-6.319-4.427c-1.753-0.626-3.749-1.894-5.529-3.208c-0.149,0.38-0.321,0.73-0.51,1.01
		c-0.848,1.279-3.819-1.057-5.093,0.217c-1.275,1.275-5.52,1.483-7.851,3.61c-2.336,2.122-7.22,3.179-9.978,3.819
		c-2.762,0.639-0.422,3.184,0.635,5.098c1.066,1.901,1.066,6.576,3.188,8.064c2.122,1.483,9.125,5.942,9.973,7.429
		c0.041,0.071,0.06,0.141,0.067,0.21c0.033,0.179-0.023,0.35-0.151,0.515C536.48,143.033,541.037,143.046,541.829,141.728z"/>
	<path class="st1" d="M608.214,134.769c-0.946-0.95-5.062-2.211-8.215-1.892c-3.162,0.311-4.747-1.581-7.269-0.635
		c-2.527,0.946-6.643,0-8.22-0.946c-1.59-0.95-3.477,1.892-5.692,0.631c-0.488-0.28-0.897-0.679-1.257-1.128
		c-1.892,1.048-4.165,2.607-5.546,4.565c-2.664,3.806-6.461,4.187-9.13,4.565c-1.084,0.16-1.976,1.532-2.66,3.095
		c0.662,1.707,1.746,4.207,3.063,6.05c0.413,0.578,0.848,1.096,1.302,1.499c2.851,2.54,12.957,2.216,12.957,0
		c0-2.207,8.219-3.157,10.115-3.157c1.901,0,7.913-6.012,8.854-5.688c0.954,0.315,7.273,1.265,8.849,2.846
		c0.786,0.781,3.355,1.563,6.019,2.157c-0.035-0.031-0.067-0.066-0.102-0.097c-0.121-0.11-0.239-0.222-0.353-0.337
		c-0.089-0.091-0.174-0.181-0.258-0.275c-0.126-0.14-0.246-0.283-0.358-0.428c-0.061-0.079-0.117-0.158-0.173-0.238
		c-0.108-0.153-0.205-0.307-0.293-0.461c-0.03-0.053-0.062-0.105-0.089-0.158c-0.103-0.198-0.184-0.394-0.246-0.588
		c-0.013-0.042-0.023-0.083-0.034-0.125c-0.055-0.203-0.094-0.404-0.094-0.595c0-1.692,3.193-6.15,4.245-6.998
		c0.089-0.071,0.133-0.195,0.191-0.302C611.389,135.764,608.716,135.267,608.214,134.769z"/>
	<path class="st1" d="M332.049,268.591c3.783-0.688-1.037-3.788-2.074-4.818c-1.032-1.035,0.344-5.169,2.414-5.169
		c2.062,0,0-2.407-2.758-5.169c-2.753-2.753,0-3.783,2.418-3.783c2.402,0-0.693-4.134,1.71-6.545
		c2.413-2.416-0.688-6.883-0.688-8.952c0-2.06,3.446-2.753,6.203-5.506c2.751-2.758-2.409-1.723-2.409-3.784
		c0-2.069-3.45-2.762-5.853-1.034c-2.418,1.727-1.725,0-3.789,0c-2.069,0-5.857,0.688-5.857-1.381c0-2.074-1.721-2.407-3.442-0.346
		c-0.506,0.613-1.374,0.937-2.546,1.084c-0.251,2.7-0.531,5.218,0.26,6.492c1.836,2.971-2.269,18.677-5.946,22.922
		c-3.681,4.245-0.133,5.382,3.677,8.353c3.823,2.971,1.279,13.725,1.279,16.27c0,2.549,3.395,1.843,7.356,1.843
		c2.36,0,5.024-1.048,7.642-1.51c-0.775-1.181-1.39-2.344-1.39-3.112C328.254,272.375,328.254,269.279,332.049,268.591z"/>
	<path class="st1" d="M443.231,107.465c1.73-1.727,4.756-0.866,6.49,0.866c1.73,1.732,4.325,2.158,6.922,4.752
		c0.666,0.675,1.385,1.279,2.087,1.816c0.142-1.05,0.221-2.694,0.413-4.262c0.011-0.095,0.021-0.189,0.034-0.283
		c0.03-0.224,0.066-0.439,0.101-0.656c0.021-0.13,0.04-0.264,0.063-0.39c0.038-0.2,0.083-0.385,0.128-0.573
		c0.029-0.122,0.053-0.252,0.085-0.367c0.08-0.291,0.17-0.563,0.273-0.804c0.846-1.976-0.85-4.529,0.568-4.529
		c1.408,0,5.373,0,5.373-2.544c0-2.544,1.135-1.696,1.985-3.117c0.853-1.412-2.547-4.245-3.119-5.098
		c-0.557-0.844,2.549-1.128,4.818-4.516c0.817-1.239,0.477-3.761-0.28-6.487c-0.375,1.004-1.135,1.732-2.413,0.964
		c-2.125-1.275-5.369-0.564-9.618,0.284c-4.245,0.848-5.517,4.951-3.97,6.647c1.56,1.705-4.096,2.549-4.518,0.289
		c-0.428-2.273-4.669-0.711-4.394,2.26c0.289,2.971-4.671,4.103-4.385,7.78c0.288,3.685-4.527,7.078-7.642,8.916
		c-0.484,0.293-0.986,0.586-1.496,0.879c1.565,0.719,2.817,1.199,3.413,1.199C436.746,110.489,441.501,109.201,443.231,107.465z"/>
	<path class="st1" d="M459.19,124.608c-0.005-0.025-0.003-0.05-0.006-0.075c-0.005-0.05-0.011-0.101-0.007-0.151
		c0.001-0.014,0.005-0.028,0.007-0.042c0.008-0.064,0.021-0.127,0.041-0.191c0.001-0.003,0.002-0.005,0.003-0.008
		c0.024-0.074,0.056-0.148,0.095-0.222c-1.886,1.057-3.604,3.32-3.344,8.117c1.834-0.055,4.436,0.158,6.311,0.704
		c-0.458-5.219-2.499-6.839-3.025-7.917C459.229,124.751,459.204,124.679,459.19,124.608z"/>
	<path class="st1" d="M425.585,113.286c0.209,1.492,2.546,5.098,3.393,3.614c0.85-1.488,2.975,1.909,4.882,2.971
		c1.909,1.061,5.728,2.336,5.941,3.61c0.213,1.27,0.851,4.032,2.762,3.184c1.909-0.853,4.243-3.824,4.243-2.127
		c0,1.696,0.637,4.884,2.757,4.458c2.125-0.427,2.762,3.61,4.887,3.179c0.383-0.075,0.914-0.122,1.529-0.141
		c-0.26-4.798,1.458-7.06,3.344-8.117c0.229-0.442,0.685-0.895,1.1-1.376c0.064-0.074,0.126-0.148,0.186-0.224
		c0.025-0.031,0.05-0.062,0.075-0.094c0.081-0.105,0.159-0.211,0.228-0.319c0.006-0.01,0.011-0.02,0.017-0.03
		c0.062-0.098,0.115-0.198,0.162-0.299c0.014-0.029,0.027-0.058,0.039-0.087c0.047-0.113,0.088-0.227,0.111-0.344
		c0.284-1.412-2.826-4.245-2.549-5.941c0.015-0.089,0.029-0.209,0.038-0.307c-0.702-0.537-1.421-1.141-2.087-1.816
		c-2.597-2.594-5.193-3.02-6.922-4.752c-1.734-1.732-4.76-2.593-6.49-0.866c-1.729,1.736-6.485,3.024-9.083,3.024
		c-0.595,0-1.847-0.479-3.413-1.199c-2.045,1.177-4.221,2.3-6.388,2.735C424.778,112.616,425.445,112.305,425.585,113.286z"/>
	<path class="st1" d="M670.664,183.121c-1.98-0.28-4.534-1.124-3.681-2.26c0.062-0.083,0.15-0.197,0.25-0.327
		c-2.648-2.148-3.344-9.082-1.653-10.778c2.158-2.163-3.468-10.382-6.057-13.406c-1.217-1.426-3.85-6.154-6.31-10.791
		c-0.836,0.271-1.636,0.555-2.331,0.837c-0.014,0.006-0.028,0.011-0.042,0.017c-0.198,0.081-0.384,0.161-0.563,0.242
		c-0.077,0.035-0.149,0.069-0.222,0.104c-0.121,0.057-0.24,0.114-0.35,0.171c-0.106,0.055-0.2,0.109-0.293,0.163
		c-0.068,0.039-0.141,0.079-0.202,0.117c-0.107,0.068-0.195,0.134-0.279,0.2c-0.033,0.026-0.075,0.052-0.103,0.077
		c-0.104,0.091-0.186,0.18-0.237,0.265c-0.848,1.407-3.685,2.833-5.377,2.833c-1.696,0-3.397-0.853-4.813,0.559
		c-1.416,1.412-3.393,1.981-4.245,1.137c-0.848-0.853-3.681-1.696-5.666-1.696c-1.972,0-8.197-1.705-9.613-1.705
		c-0.839,0-2.203,0.116-3.686,0.32c0.072,0.137,0.11,0.281,0.123,0.429c0.003,0.036,0.004,0.073,0.003,0.109
		c-0.001,0.077-0.009,0.155-0.027,0.235c-0.022,0.098-0.059,0.197-0.107,0.298c-0.019,0.041-0.041,0.082-0.064,0.123
		c-0.074,0.129-0.17,0.26-0.288,0.391c-0.019,0.021-0.042,0.043-0.063,0.064c-0.139,0.145-0.297,0.291-0.492,0.438
		c-1.696,1.27-5.098,3.179-6.372,4.032c-1.27,0.844-5.728,11.461-8.699,14.431c-0.28,0.28-0.557,0.531-0.832,0.769
		c-0.063,0.055-0.127,0.112-0.19,0.165c-0.241,0.202-0.478,0.389-0.711,0.562c-0.101,0.075-0.201,0.148-0.301,0.219
		c-0.144,0.102-0.285,0.199-0.424,0.292c-1.503,1-2.719,1.483-3.232,2.015c0.003,0,0.005,0.001,0.008,0.001
		c-0.129,0.142-0.231,0.284-0.262,0.431c-0.213,1.061,3.397,3.824,3.397,5.52c0,1.705,0.844,3.397,3.184,3.397
		c2.336,0-0.213,5.519,1.27,5.946c1.492,0.422,10.613,1.057,10.613,3.184c0,0.181,0.016,0.358,0.037,0.533
		c0.007,0.054,0.013,0.109,0.022,0.162c0.018,0.116,0.04,0.23,0.064,0.343c0.259,1.207,0.808,2.257,0.453,3.151
		c2.563,0.432,4.443,3.914,5.445,3.666c1.133-0.284,8.774,1.412,10.187,1.132c1.412-0.284,7.926,0,10.191,0.28
		c2.26,0.284,4.804-0.848,6.785-2.829c1.985-1.985,9.067-2.264,11.328-1.985c2.256,0.289,6.789,0.853,7.642,2.273
		c0.444,0.737,3.108,1.847,5.804,2.753c0.32-1.403-0.093-3.232-0.009-5.026c0.142-2.971,1.838-7.496,4.809-7.78
		c2.971-0.284,5.377-0.284,4.955-5.23c-0.009-0.173-0.009-0.302-0.022-0.457c-1.505-1.288-2.913-2.376-3.375-2.376
		C674.909,180.861,671.508,183.241,670.664,183.121z"/>
	<path class="st1" d="M659.523,156.35c2.589,3.024,8.215,11.243,6.057,13.406c-1.691,1.696-0.995,8.63,1.653,10.778
		c0.93-1.207,3.368-4.294,4.629-6.496c0.006-0.011,0.013-0.022,0.019-0.033c0.101-0.178,0.192-0.347,0.276-0.512
		c0.014-0.027,0.029-0.055,0.042-0.081c0.074-0.147,0.135-0.284,0.192-0.417c0.015-0.034,0.033-0.072,0.047-0.106
		c0.05-0.123,0.085-0.234,0.117-0.342c0.01-0.033,0.025-0.071,0.033-0.103c0.034-0.133,0.053-0.253,0.053-0.357
		c0-1.696,0.288-5.098,3.677-4.245c3.401,0.848,6.51,2.265,6.51,1.132c0-1.132-0.848-4.809-2.26-6.23
		c-1.412-1.407-4.804-5.937-5.941-9.618c-1.137-3.677-4.804-5.098-6.794-5.098c-1.981,0-5.378-4.52-7.642-4.245
		c-0.149,0.019-0.327,0.047-0.525,0.082c-0.048,0.009-0.108,0.021-0.159,0.03c-0.162,0.03-0.329,0.062-0.515,0.101
		c-0.05,0.01-0.107,0.023-0.159,0.034c-0.207,0.044-0.421,0.091-0.651,0.144c-0.033,0.008-0.068,0.016-0.102,0.024
		c-1.422,0.332-3.213,0.82-4.865,1.36C655.673,150.196,658.306,154.924,659.523,156.35z"/>
	<path class="st1" d="M663.875,198.978c-0.853-1.421-5.386-1.985-7.642-2.273c-2.26-0.28-9.343,0-11.328,1.985
		c-1.981,1.98-4.525,3.113-6.785,2.829c-2.265-0.28-8.779-0.564-10.191-0.28c-1.412,0.28-9.054-1.416-10.187-1.132
		c-1.003,0.248-2.882-3.234-5.445-3.666c-0.094,0.237-0.248,0.464-0.493,0.679c-0.085,0.076-0.181,0.151-0.291,0.225
		c-1.909,1.279-2.127,4.663,0,6.581c2.118,1.909,4.88,6.154,2.971,6.154c-1.905,0-3.397,2.544-3.184,3.819
		c0.028,0.168,0.036,0.364,0.033,0.576c-0.002,0.143-0.014,0.3-0.025,0.456c-0.005,0.062-0.006,0.119-0.012,0.182
		c-0.048,0.544-0.13,1.135-0.183,1.687c-0.04,0.382-0.058,0.733-0.04,1.035c0,0.026,0.014,0.053,0.014,0.08
		c0.013,0.139,0.033,0.266,0.065,0.377c0.037,0.111,0.08,0.213,0.148,0.281c0.64,0.635,5.094,4.884,5.302,6.154
		c0.19,1.119,2.016,1.701,1.878,2.682c3.566-0.266,11.128-0.702,12.842,0.151c2.264,1.137,10.195,1.696,10.195,1.696
		c2.256,0,4.241-0.848,3.677-2.26c-0.479-1.195,2.469-1.985,4.596-2.207c-0.138-0.489-0.26-0.946-0.33-1.338c0,0,0-0.001,0-0.001
		c-0.02-0.114-0.034-0.221-0.044-0.323c-0.002-0.018-0.005-0.037-0.006-0.054c-0.008-0.095-0.009-0.182-0.006-0.264
		c0-0.017-0.001-0.036,0-0.052c0.005-0.086,0.019-0.162,0.039-0.232c0.002-0.008,0.003-0.018,0.005-0.026
		c0.048-0.152,0.135-0.262,0.272-0.32c1.057-0.422,7.22-1.27,9.76,0c1.292,0.653,2.749,0.036,3.868-0.719
		c-0.337-1.19-0.666-2.131-1.319-2.251c-1.563-0.28-3.956-6.789-1.981-7.216c1.981-0.422,4.529-7.22,7.642-8.206
		c1.239-0.391,1.767-1.137,1.989-2.052C666.983,200.825,664.319,199.715,663.875,198.978z"/>
	<path class="st1" d="M594.626,219.813c0,0-0.133-0.097-0.355-0.255c-0.064-0.045-0.133-0.093-0.209-0.145
		c-1.017,3.233-1.683,7.664-1.039,9.929c0.638,2.221,2.65,3.775,5.525,5.932c0.507-0.382,1.942-0.299,3.506-0.309
		c0.2-0.002,0.401-0.004,0.605-0.01c0.173-0.005,0.346-0.012,0.518-0.022c0.103-0.007,0.208-0.013,0.312-0.02
		c0.226-0.017,0.448-0.042,0.666-0.073c0.264-0.039,0.529-0.079,0.777-0.144c2.545-0.63,3.184-3.392,4.454-2.757
		c1.275,0.635,8.069-2.829,8.917-4.099c0.111-0.151,0.16-0.293,0.177-0.435c0.138-0.981-1.687-1.563-1.878-2.682
		c-0.209-1.27-4.662-5.52-5.302-6.154c-0.068-0.068-0.115-0.165-0.148-0.281c-0.032-0.11-0.052-0.238-0.065-0.377
		c0-0.026-0.014-0.053-0.014-0.08c-0.018-0.302,0-0.653,0.04-1.035C604.475,217.761,594.626,219.813,594.626,219.813z"/>
	<path class="st1" d="M722.311,103.317c0.843-1.488-0.213-5.524-1.275-7.22c-1.065-1.696-6.368-1.483-7.85-0.848
		c-1.488,0.635-4.889-0.635-6.372,0.213c-1.488,0.853-2.331,2.331-4.458,2.331c-1.192,0-1.984-0.134-2.638-1.083
		c-2.298,1.027-6.128,1.234-6.128,1.234s-5.671,4.525-5.671,6.221c0,1.697-0.271,4.529-1.696,3.117
		c-1.412-1.417-7.353-1.421-8.766-0.568c-1.421,0.848-3.681-3.397-6.23-1.981c-2.544,1.412-5.941-1.98-6.23-0.568
		c-0.28,1.421-3.956,0.284-6.51-0.848c-2.54-1.132-7.074,0.568-8.77-1.416c-1.696-1.981-12.735-1.981-16.412-1.981
		c-3.677,0-4.529,1.981-6.23,3.681c-1.532,1.541-3.313,1.221-5.12,1.141c0.099,0.885,0.244,1.709,0.427,2.337
		c0.005,0.017,0.01,0.032,0.015,0.049c0.03,0.1,0.061,0.195,0.093,0.284c0.021,0.058,0.043,0.109,0.064,0.162
		c0.021,0.051,0.041,0.104,0.062,0.149c0.046,0.099,0.093,0.187,0.143,0.261c0.848,1.274,4.885,7.429,3.819,9.342
		c-1.057,1.91-2.971,1.91-4.245,3.393c-1.275,1.488-8.703,8.069-8.912,9.125c-0.013,0.064-0.019,0.143-0.02,0.232
		c0,0.022,0.002,0.05,0.002,0.073c0.001,0.075,0.003,0.151,0.01,0.239c0.001,0.014,0.003,0.029,0.004,0.043
		c0.138,1.633,1.14,5.256,0.213,5.997c-1.052,0.848-4.245,5.306-4.245,6.998c0,0.191,0.039,0.392,0.094,0.595
		c0.011,0.042,0.021,0.083,0.034,0.125c0.061,0.193,0.144,0.39,0.246,0.588c0.027,0.053,0.059,0.105,0.089,0.158
		c0.087,0.154,0.186,0.308,0.293,0.461c0.056,0.08,0.112,0.159,0.173,0.238c0.112,0.145,0.232,0.288,0.358,0.428
		c0.084,0.094,0.169,0.184,0.258,0.275c0.114,0.116,0.232,0.228,0.353,0.337c0.035,0.032,0.067,0.066,0.102,0.097
		c0.104,0.091,0.213,0.173,0.321,0.259c0.109,0.087,0.217,0.174,0.329,0.254c0.092,0.066,0.183,0.127,0.276,0.188
		c0.149,0.098,0.3,0.189,0.45,0.271c0.068,0.037,0.134,0.077,0.202,0.111c0.225,0.113,0.449,0.214,0.667,0.286
		c0.207,0.071,0.393,0.149,0.563,0.233c0.138,0.069,0.259,0.143,0.373,0.219c0.023,0.015,0.049,0.029,0.07,0.045
		c0.122,0.088,0.23,0.181,0.32,0.279c0.002,0.002,0.004,0.004,0.005,0.006c0.093,0.102,0.17,0.209,0.228,0.32
		c1.483-0.204,2.846-0.32,3.686-0.32c1.416,0,7.642,1.705,9.613,1.705c1.985,0,4.818,0.844,5.666,1.696
		c0.853,0.844,2.829,0.276,4.245-1.137c1.416-1.412,3.117-0.559,4.813-0.559c1.692,0,4.529-1.425,5.377-2.833
		c0.051-0.085,0.133-0.174,0.237-0.265c0.029-0.025,0.071-0.052,0.103-0.077c0.084-0.066,0.172-0.132,0.279-0.2
		c0.061-0.039,0.134-0.078,0.202-0.117c0.094-0.054,0.187-0.108,0.293-0.163c0.109-0.056,0.229-0.113,0.35-0.171
		c0.073-0.035,0.145-0.069,0.222-0.104c0.178-0.08,0.366-0.161,0.563-0.242c0.014-0.006,0.028-0.011,0.042-0.017
		c2.064-0.844,5.047-1.697,7.197-2.197c0.034-0.008,0.069-0.016,0.102-0.024c0.229-0.053,0.444-0.1,0.651-0.144
		c0.052-0.011,0.109-0.024,0.159-0.034c0.186-0.039,0.354-0.071,0.515-0.101c0.051-0.009,0.11-0.022,0.159-0.03
		c0.199-0.035,0.377-0.064,0.525-0.082c2.264-0.275,5.661,4.245,7.642,4.245c1.989,0,5.657,1.421,6.794,5.098
		c1.137,3.681,4.529,8.211,5.941,9.618c1.412,1.421,2.26,5.098,2.26,6.23c0,1.133-3.108-0.284-6.51-1.132
		c-3.388-0.853-3.677,2.549-3.677,4.245c0,0.104-0.019,0.224-0.053,0.357c-0.008,0.032-0.024,0.07-0.033,0.103
		c-0.032,0.108-0.067,0.219-0.117,0.342c-0.013,0.034-0.032,0.071-0.047,0.106c-0.057,0.133-0.118,0.27-0.192,0.417
		c-0.013,0.026-0.029,0.054-0.042,0.081c-0.084,0.164-0.175,0.334-0.276,0.512c-0.006,0.011-0.013,0.022-0.019,0.033
		c-1.261,2.202-3.698,5.29-4.629,6.496c-0.1,0.13-0.188,0.245-0.25,0.327c-0.853,1.137,1.701,1.981,3.681,2.26
		c0.843,0.12,4.245-2.26,5.373-2.26c0.462,0,1.87,1.088,3.375,2.376c-0.324-4.427,0.595-4.179,4.547-7.18
		c4.107-3.113,4.529-8.917,8.206-9.627c3.686-0.711,5.235-2.411,10.617-1.563c5.377,0.853-2.686,4.245,0.981,6.226
		c3.69,1.989,15.009-0.56,15.577,2.264c0.559,2.833-13.024,5.666-12.74,7.082c0.284,1.408,7.22,2.829,9.622,4.378
		c2.411,1.563-0.706,5.946,0.431,7.367c1.132,1.412,4.804,0.276,7.78-1.842c0.048-0.034,0.094-0.062,0.142-0.095V108.84
		c-0.049-0.071-0.102-0.137-0.142-0.217C723.368,106.497,721.459,104.801,722.311,103.317z"/>
	<path class="st1" d="M660.189,48.411c-1.981,0-4.241-0.844-6.505,0.853c-0.231,0.173-0.433,0.35-0.63,0.528
		c-0.538,0.503-0.925,1.019-1.231,1.541c-0.657,1.088-0.857,2.163-0.688,3.019c0.28,1.417,0.568,3.686-1.132,3.686
		c-1.701,0-1.412,1.985-3.113,2.549c-1.697,0.564-4.529,3.113-4.813,4.521c-0.28,1.421-0.28,4.533-1.416,4.533
		c-1.133,0-5.089,0.564-6.226,1.981c-1.128,1.416-2.535,2.829-4.804,2.264c-1.164-0.293-4.276-0.431-7.016-0.497
		c0.003,0.019,0.001,0.038,0.003,0.056c0.014,0.111,0.022,0.221,0.017,0.332c-0.006,0.15-0.029,0.302-0.086,0.46
		c-1.057,2.975-0.213,5.728,1.487,7.216c1.701,1.483,2.336,7.429,0.427,8.281c-1.914,0.843-5.52,3.393-5.52,4.88
		c0,1.483,3.819,2.758,3.184,4.88c-0.044,0.148-0.082,0.312-0.116,0.486c-0.004,0.022-0.007,0.046-0.011,0.068
		c-0.029,0.159-0.056,0.326-0.077,0.502c-0.002,0.016-0.003,0.032-0.005,0.047c-0.142,1.204-0.111,2.753,0.041,4.146
		c1.807,0.08,3.588,0.4,5.12-1.141c1.701-1.701,2.553-3.681,6.23-3.681c3.677,0,14.716,0,16.412,1.981
		c1.696,1.985,6.23,0.284,8.77,1.416c2.553,1.132,6.23,2.269,6.51,0.848c0.289-1.412,3.686,1.981,6.23,0.568
		c2.549-1.416,4.809,2.829,6.23,1.981c1.412-0.853,7.353-0.848,8.766,0.568c1.425,1.412,1.696-1.421,1.696-3.117
		c0-1.696,5.671-6.221,5.671-6.221s3.829-0.208,6.128-1.234c-0.508-0.737-0.933-1.966-1.399-4.005
		c-1.052-4.676-2.753-7.429-1.479-8.916c1.27-1.488,4.88,1.909,6.785,1.061c1.914-0.849,5.311-2.549,4.884-4.458
		c-0.422-1.909-3.605-4.458-5.302-4.88c-1.701-0.427-2.762-4.241-5.524-5.306c-2.758-1.061-2.118-4.458-4.454-5.942
		c-2.331-1.492-0.853-4.458-1.066-6.798c-0.209-2.331,0.431-5.941-0.843-6.576c-1.279-0.639-6.586-3.61-8.912-2.544
		c-2.34,1.061-4.036,1.905-5.102,0c-1.057-1.913-2.54-2.975-4.875-2.34c-2.34,0.639-3.828-0.422-5.098-1.487
		c-0.198-0.164-0.357-0.407-0.495-0.695c-0.94,0.196-2.172,0.559-2.964,1.196C662.454,46.151,662.174,48.411,660.189,48.411z"/>
	<path class="st1" d="M620.154,41.28c2.593,0,8.659,1.297,12.118,0c3.455-1.296,3.455,2.602,5.622,2.158
		c2.158-0.431,6.487,2.602,9.085,4.769c1.381,1.15,3.024,2.069,4.844,3.126c0.305-0.522,0.692-1.038,1.231-1.541
		c0.19-0.178,0.398-0.354,0.63-0.528c2.265-1.696,4.525-0.853,6.505-0.853c1.985,0,2.264-2.26,3.685-3.393
		c0.792-0.637,2.024-1,2.964-1.196c-0.497-1.038-0.69-2.735-1.128-4.131c-0.037-0.116-0.074-0.231-0.115-0.343
		c-0.032-0.089-0.066-0.177-0.101-0.263c-0.078-0.188-0.162-0.367-0.257-0.533c-0.025-0.043-0.052-0.083-0.078-0.125
		c-0.112-0.179-0.232-0.348-0.371-0.487c-1.487-1.483-3.61-4.036-2.971-5.52c0.635-1.488,0.635-3.61-1.066-5.306
		c-0.194-0.194-0.374-0.397-0.542-0.605c-0.126-0.154-0.236-0.312-0.346-0.471c-0.031-0.044-0.065-0.087-0.094-0.132
		c-0.273-0.41-0.485-0.825-0.638-1.235c-3.449-0.444-8.091-0.941-9.129-0.595c-1.701,0.568-8.486-4.813-9.623-5.666
		c-0.741-0.551-5.777-0.262-10.31,0.16c-2.611,2.895-0.728,5.022-0.866,9.467c-0.142,4.529-5.098,3.681-7.78,3.681
		c-2.695,0-7.082-8.068-8.49-9.911c-1.421-1.834-5.955,2.269-9.205,4.245c-3.255,1.985-1.554,5.804-3.819,7.642
		c-2.26,1.838-3.677,4.955-1.421,9.059c0.093,0.169,0.155,0.342,0.244,0.506c2.828-0.222,5.843-0.746,7.58-1.981
		C609.342,39.113,617.566,41.28,620.154,41.28z"/>
	<path class="st1" d="M604.084,56.83c1.061,1.492,4.458,2.762,5.733,2.127c1.27-0.635,5.302,1.483,5.302,3.18
		c0,0.102-0.005,0.218-0.011,0.341c-0.001,0.02-0.003,0.043-0.004,0.064c-0.097,1.617-0.661,4.814-0.336,5.949
		c-0.009,0.002-0.018,0.003-0.027,0.004c0.054,0.204,0.137,0.339,0.252,0.398c0.039,0.02,0.078,0.042,0.126,0.042
		c0.064,0,0.153,0.01,0.259,0.026c0.031,0.005,0.072,0.014,0.107,0.02c0.083,0.015,0.167,0.031,0.267,0.053
		c0.051,0.012,0.111,0.027,0.166,0.041c0.097,0.024,0.194,0.048,0.302,0.077c0.07,0.019,0.145,0.041,0.22,0.063
		c0.104,0.03,0.209,0.061,0.32,0.096c0.09,0.028,0.182,0.058,0.276,0.089c0.102,0.034,0.204,0.069,0.31,0.106
		c0.112,0.039,0.224,0.079,0.339,0.122c0.09,0.033,0.18,0.068,0.272,0.104c0.135,0.052,0.271,0.106,0.408,0.163
		c0.067,0.028,0.134,0.057,0.202,0.086c0.162,0.069,0.324,0.139,0.485,0.215c0.026,0.012,0.052,0.025,0.078,0.038
		c1.457,0.687,2.851,1.607,3.328,2.665c0.005,0.012,0.011,0.024,0.016,0.036c0.06,0.139,0.102,0.281,0.128,0.425
		c0.002,0.01,0.008,0.02,0.009,0.03c2.74,0.066,5.852,0.204,7.016,0.497c2.269,0.564,3.677-0.848,4.804-2.264
		c1.137-1.416,5.093-1.981,6.226-1.981c1.137,0,1.137-3.112,1.416-4.533c0.284-1.408,3.117-3.956,4.813-4.521
		c1.701-0.564,1.412-2.549,3.113-2.549c1.701,0,1.412-2.269,1.132-3.686c-0.169-0.857,0.031-1.932,0.688-3.019
		c-1.82-1.057-3.463-1.976-4.844-3.126c-2.598-2.167-6.927-5.2-9.085-4.769c-2.167,0.444-2.167-3.454-5.622-2.158
		c-3.459,1.297-9.525,0-12.118,0c-2.589,0-10.812-2.167-13.841,0c-1.737,1.234-4.752,1.759-7.58,1.981
		c1.932,3.952,1.225,7.948-0.946,10.39c-1.541,1.741-0.644,1.972,0.484,2.655C600.598,56.089,603.232,55.64,604.084,56.83z"/>
	<path class="st1" d="M499.611,163.511c-0.104-0.003-0.208,0-0.312,0.004c-0.144,0.006-0.286,0.022-0.428,0.043
		c-0.084,0.013-0.168,0.023-0.251,0.041c-0.225,0.05-0.447,0.115-0.663,0.211c-1.905,0.844-4.88-1.705-4.88-2.549
		c0-0.063-0.006-0.151-0.014-0.247c-0.062-0.795-0.334-2.599,0.023-3.777c-1.581-0.808-3.841-1.909-5.528-2.411
		c-2.831-0.848-4.243-0.848-6.503,0.28c-1.444,0.719-5.423,0.52-8.114,0.285c-0.174,0.611-0.426,1.068-0.806,1.277
		c-0.026,0.015-0.053,0.029-0.08,0.042c-0.125,0.055-0.259,0.093-0.414,0.093c-1.912,0-4.458,1.909-4.882,4.036
		c-0.422,2.118-4.88,3.815-6.159,7.638c-1.27,3.823-0.633,5.519,1.279,3.184c1.909-2.336,4.245-1.483,4.245,0.426
		c0,1.909,2.547,2.118,1.696,4.672c-0.013,0.058-0.013,0.089-0.024,0.151c2.902-0.258,6.936-0.578,8.164-0.578
		c1.98,0,3.961-6.225,4.807-6.794c0.846-0.564,3.12,4.529,5.384,6.519c2.26,1.98,2.547-1.705,2.547-3.402
		c0-1.701,1.98-2.264,3.394-1.98c1.412,0.28,4.527,0.848,4.527-1.137c0-1.972,1.703-1.128,2.826-1.128
		c1.134,0,1.423-2.264,1.423-2.264l1.852-1.723c-0.868-0.44-1.817-0.788-2.753-0.885
		C499.848,163.525,499.729,163.515,499.611,163.511z"/>
	<path class="st1" d="M469.452,87.758c-2.269,3.388-5.375,3.672-4.818,4.516c0.572,0.853,3.972,3.685,3.119,5.098
		c-0.85,1.421-1.985,0.573-1.985,3.117c0,2.544-3.965,2.544-5.373,2.544c-1.419,0,0.278,2.553-0.568,4.529
		c-0.103,0.241-0.193,0.512-0.273,0.804c-0.032,0.115-0.056,0.245-0.085,0.367c-0.044,0.188-0.09,0.373-0.128,0.573
		c-0.024,0.127-0.042,0.26-0.063,0.39c-0.035,0.217-0.072,0.432-0.101,0.656c-0.012,0.094-0.022,0.188-0.034,0.283
		c-0.209,1.727-0.281,3.551-0.451,4.569c-0.277,1.696,2.833,4.529,2.549,5.941c-0.023,0.117-0.063,0.231-0.111,0.344
		c-0.012,0.029-0.025,0.058-0.039,0.087c-0.047,0.101-0.101,0.201-0.162,0.299c-0.006,0.01-0.011,0.02-0.017,0.03
		c-0.069,0.108-0.147,0.214-0.228,0.319c-0.024,0.031-0.049,0.063-0.075,0.094c-0.061,0.075-0.123,0.15-0.186,0.224
		c-0.415,0.481-0.871,0.935-1.1,1.376c-0.039,0.074-0.07,0.148-0.095,0.222c-0.001,0.003-0.002,0.005-0.003,0.008
		c-0.021,0.064-0.033,0.128-0.041,0.191c-0.002,0.014-0.006,0.028-0.007,0.042c-0.004,0.051,0.001,0.101,0.007,0.151
		c0.003,0.025,0,0.05,0.006,0.075c0.015,0.072,0.039,0.143,0.076,0.215c0.526,1.078,2.567,2.697,3.025,7.917
		c0.729,0.212,1.346,0.473,1.763,0.791c0.009,0.006,0.019,0.012,0.028,0.019c0.135,0.105,0.252,0.215,0.34,0.332
		c1.279,1.696,3.399,2.966,6.154,2.966c2.762,0,3.823,1.918,5.095,1.701c1.274-0.209,4.673,0.857,1.916,3.188
		c-2.762,2.331-3.188,5.093-3.821,7.851c-0.048,0.207-0.089,0.425-0.126,0.647c-0.011,0.065-0.021,0.131-0.031,0.197
		c-0.024,0.153-0.046,0.308-0.066,0.466c-0.013,0.105-0.027,0.209-0.039,0.316c-0.008,0.065-0.015,0.13-0.022,0.195
		c-0.155,1.419-0.238,2.922-0.541,3.983c2.691,0.235,6.67,0.434,8.114-0.285c2.26-1.128,3.672-1.128,6.503-0.28
		c1.687,0.502,3.947,1.603,5.528,2.411c0.173-0.568,0.475-1.004,1.05-1.074c1.916-0.205,4.25,3.61,5.524,1.483
		c1.275-2.118,4.243-1.687,5.726-0.843c1.487,0.843,3.823,1.275,5.524-0.427c1.696-1.696,8.277-2.544,9.765-1.909
		c1.487,0.639,5.302,2.336,3.819-2.762c-1.487-5.089,3.179-4.027,3.819-5.941c0.037-0.111,0.094-0.218,0.161-0.322
		c0.02-0.031,0.045-0.06,0.068-0.09c0.056-0.076,0.117-0.15,0.187-0.223c0.025-0.026,0.052-0.052,0.079-0.078
		c0.088-0.084,0.182-0.166,0.286-0.246c0.01-0.008,0.019-0.015,0.029-0.023c1.326-0.999,3.76-1.697,4.412-2.535
		c0.128-0.165,0.184-0.336,0.151-0.515c-0.013-0.069-0.026-0.138-0.067-0.21c-0.848-1.487-7.851-5.946-9.973-7.429
		c-2.123-1.487-2.123-6.163-3.188-8.064c-1.057-1.914-3.397-4.458-0.635-5.098c2.757-0.639,7.642-1.696,9.978-3.819
		c2.331-2.127,6.576-2.336,7.851-3.61c1.274-1.274,4.245,1.061,5.093-0.217c0.188-0.28,0.361-0.63,0.51-1.01
		c0.065-0.166,0.12-0.338,0.172-0.515c0.002-0.006,0.003-0.011,0.005-0.017c0.048-0.164,0.09-0.33,0.125-0.501
		c0.012-0.06,0.021-0.121,0.031-0.182c0.024-0.139,0.049-0.275,0.063-0.416c0.02-0.208,0.029-0.416,0.023-0.623
		c-0.002-0.055-0.01-0.108-0.014-0.163c-0.012-0.172-0.032-0.343-0.065-0.509c-0.012-0.062-0.028-0.122-0.043-0.182
		c-0.041-0.16-0.095-0.316-0.16-0.467c-0.023-0.054-0.043-0.109-0.07-0.162c-0.098-0.196-0.213-0.384-0.359-0.555
		c-1.274-1.488-2.127-4.032-2.335-7.638c-0.213-3.606-1.274-3.402-1.274-5.098c0-1.696-0.635-3.819-2.123-4.672
		c-1.483-0.843-2.123-1.483-0.639-3.814c1.487-2.34,0.848-8.281,0.209-9.978c-0.125-0.337-0.111-0.737-0.04-1.163
		c-0.382-0.178-0.684-0.551-0.804-1.172c-0.426-2.265-1.976-3.113-5.657-3.113s2.26-3.681,0.844-5.52
		c-1.407-1.834-5.093,3.393-8.481,2.26c-3.402-1.124-7.784,3.97-10.755,6.23c-2.975,2.269-7.22-0.422-4.956-3.681
		c2.26-3.25,0-2.971-3.399-1.691c-3.397,1.27-7.498-0.284-7.076-3.402c0.109-0.782-0.142-1.514-0.557-2.203
		c-1.658,0.231-2.933,0.284-3.541,0.08c-1.521-0.502-4.971-0.777-8.736-0.853c1.125,1.647,2.344,3.259,1.656,4.534
		c-1.27,2.411,0.715,4.676,2.547,8.206c1.841,3.544-3.956,1.559-4.101,3.823c-0.144,2.265-5.373-0.142-7.076-0.994
		c-1.692-0.844-7.358-0.28-7.214,1.137c0.055,0.564-0.033,1.341-0.28,2.007C469.929,83.997,470.269,86.519,469.452,87.758z"/>
	<path class="st1" d="M469.945,197.131c-2.125-0.213-3.608-2.335-2.125-4.671c1.488-2.336-1.27-2.549-2.757-4.88
		c-1.487-2.331,0.637-1.696,1.907-2.331c1.272-0.639,2.975-3.188,1.91-3.819c-1.06-0.639-1.91-2.123-1.06-4.671
		c0.851-2.554-1.696-2.762-1.696-4.672c0-1.909-2.336-2.762-4.245-0.426c-1.912,2.335-2.549,0.639-1.279-3.184
		c1.279-3.823,5.737-5.52,6.159-7.638c0.424-2.127,2.971-4.036,4.882-4.036c0.154,0,0.288-0.038,0.414-0.093
		c0.028-0.012,0.054-0.027,0.08-0.042c0.38-0.209,0.631-0.666,0.806-1.277c0.303-1.061,0.386-2.564,0.541-3.983
		c0.007-0.065,0.014-0.13,0.022-0.195c0.012-0.106,0.026-0.211,0.039-0.316c0.02-0.158,0.043-0.313,0.066-0.466
		c0.01-0.066,0.02-0.133,0.031-0.197c0.037-0.223,0.078-0.441,0.126-0.647c0.633-2.758,1.059-5.52,3.821-7.851
		c2.757-2.331-0.642-3.397-1.916-3.188c-1.272,0.218-2.333-1.701-5.095-1.701c-2.755,0-4.876-1.27-6.154-2.966
		c-0.088-0.117-0.205-0.227-0.34-0.332c-0.008-0.007-0.019-0.012-0.028-0.019c-0.417-0.318-1.035-0.579-1.763-0.791
		c-1.875-0.546-4.476-0.758-6.311-0.704c-0.615,0.018-1.146,0.065-1.529,0.141c-2.125,0.431-2.762-3.606-4.887-3.179
		c-2.12,0.426-2.757-2.762-2.757-4.458c0-1.697-2.334,1.275-4.243,2.127c-1.912,0.848-2.549-1.914-2.762-3.184
		c-0.213-1.275-4.032-2.549-5.941-3.61c-1.907-1.061-4.032-4.458-4.882-2.971c-0.846,1.483-3.184-2.123-3.393-3.614
		c-0.14-0.981-0.806-0.671-1.237-1.261c-0.726,0.151-1.446,0.24-2.163,0.205c-3.397-0.142-6.368,2.549-5.797,8.215
		c0.562,5.653-4.11,6.221-9.911,6.643c-5.802,0.427-3.816,4.956-6.221,6.794c-2.407,1.847-10.897-0.986-12.031-4.094
		c-1.134-3.113-8.768,0-5.517,3.668c3.259,3.686,3.111,8.779,1.275,10.191c-1.838,1.417-5.808-2.26-8.355-0.426
		c-2.544,1.843-2.687-1.696-5.793-2.82c-3.115-1.141-4.394,1.403-9.341,0.986c-4.96-0.431-7.786,2.398-5.946,4.525
		c1.836,2.118-0.284,4.098,1.13,5.946c1.419,1.838,7.926,1.55,12.733,4.103c4.816,2.54,5.942,0.417,8.351,2.265
		c2.407,1.838,2.975,0.702,3.115,4.245c0.145,3.534,2.831,6.927,7.502,8.206c4.667,1.274,1.13,4.387,2.549,7.5
		c1.407,3.113-2.125,7.638-1.419,11.461c0.71,3.819-2.265,16.128-4.527,17.26c-0.145,0.076-0.377,0.076-0.564,0.111
		c2.12,1.057,4.352,1.981,5.44,2.7c2.069,1.385,6.536,2.753,9.298,4.476c2.751,1.727,7.574,1.385,7.574-0.693
		c0-2.056,2.751-0.675,4.476,1.039c1.721,1.723,8.266,2.069,11.363,2.753c2.611,0.577,6.423,0.213,9.831,0.284
		c-0.133-0.773-0.306-1.576-0.575-2.456c-1.698-5.524,3.248-8.779,7.915-9.489c4.669-0.702,14.86,2.123,17.556,3.819
		c2.682,1.701,6.365,1.279,11.036-3.677c2.351-2.505,4.285-3.41,5.993-3.903c0.124-1.11,0.702-2.243,1.074-3.237
		C475.04,196.918,472.065,197.344,469.945,197.131z"/>
	<path class="st1" d="M488.832,228.405c4.106-0.564,3.539-17.687,1.985-17.828c-1.561-0.142-1.985,2.682-5.942,5.098
		C480.915,218.081,484.905,228.942,488.832,228.405z"/>
	<path class="st2" d="M423.882,251.331c4.249,2.828,9.056,1.98,8.35-2.833C431.526,243.685,421.799,249.937,423.882,251.331z"/>
	<path class="st2" d="M421.568,217.282c-3.097-0.684-9.642-1.03-11.363-2.753c-1.725-1.714-4.476-3.095-4.476-1.039
		c0,2.078-4.823,2.42-7.574,0.693c-2.762-1.723-7.229-3.091-9.298-4.476c-1.088-0.719-3.319-1.643-5.44-2.7
		c-1.591,0.31-4.833-0.482-8.331-1.137l-8.122,8.122l-8.288-8.288l0.358-0.358c-7.915-0.174-18.642-0.83-23.734-0.426
		c-7.213,0.56-7.642-2.971-11.603-2.971c-3.96,0-2.26,4.8-7.921,4.947c-5.662,0.146-6.219,3.681-2.125,6.941
		c2.338,1.856,2.056,5.763,1.725,9.351c1.172-0.146,2.04-0.471,2.546-1.084c1.721-2.06,3.442-1.727,3.442,0.346
		c0,2.069,3.788,1.381,5.857,1.381c2.065,0,1.372,1.727,3.789,0c2.403-1.727,5.853-1.034,5.853,1.034
		c0,2.061,5.159,1.026,2.409,3.784c-2.757,2.753-6.203,3.446-6.203,5.506c0,2.069,3.102,6.536,0.688,8.952
		c-2.403,2.411,0.693,6.545-1.71,6.545c-2.418,0-5.171,1.03-2.418,3.783c2.758,2.762,4.82,5.169,2.758,5.169
		c-2.069,0-3.446,4.134-2.414,5.169c1.037,1.03,5.857,4.13,2.074,4.818c-3.794,0.688-3.794,3.784-3.794,5.853
		c0,0.768,0.615,1.932,1.39,3.112c1.758-0.311,3.492-0.364,5.091,0.382c3.961,1.834,6.257,11.696,11.603,11.03
		c2.269-0.284,1.135-1.981,2.269-3.117c1.135-1.128,3.25-0.275,5.519-0.275c2.258,0,3.397-3.259,8.768-3.397
		c5.377-0.137,8.776-0.573,12.169-0.426c3.399,0.138,6.086-0.995,6.931-3.397c0.849-2.407,3.684-4.525,7.504-5.093
		c3.821-0.564,3.255-4.534,3.533-6.79c0.289-2.264,6.659-5.666,7.076-7.362c0.429-1.701-3.681-8.206,0.14-14.01
		c3.821-5.799,7.93-6.079,7.93-9.338c0-2.984,3.957-4.098,8.772-4.676c4.814-0.555,6.37-3.815,10.475-5.51
		c3.439-1.43,4.667-3.97,3.974-8.01C427.991,217.495,424.179,217.859,421.568,217.282z"/>
	<path class="st1" d="M544.227,180.79c0.426-1.279,1.701-4.245,3.397-4.245c1.701,0,0.635-4.458,2.336-4.676
		c0.103-0.013,0.217-0.04,0.337-0.078c0.015-0.005,0.031-0.011,0.046-0.016c0.111-0.037,0.226-0.081,0.348-0.135
		c0.011-0.005,0.022-0.01,0.033-0.015c1.951-0.882,5.177-3.784,5.177-3.784s-1.633-3.263-2.293-3.588
		c-0.012-0.006-0.027-0.018-0.038-0.022c-0.639-0.213-2.762,2.118-6.585,2.118c-3.815,0-6.572,2.975-8.268,2.975
		c-1.701,0-7.007-1.696-10.612-1.909c-1.275-0.071-2.602-0.178-3.837-0.306c-0.351,3.21-0.737,8.157-0.502,12.695
		c2.282-0.919,4.853-1.288,6.11-0.782c1.106,0.444,1.466,1.607,1.665,2.851c1.954-0.284,5.533-0.839,6.745-1.301
		C539.991,179.938,543.805,182.06,544.227,180.79z"/>
	<path class="st1" d="M641.797,296.189c-2.269-1.27-12.456,0.848-15.138-1.696c-2.691-2.549-8.18,2.007-5.808,2.403
		c3.393,0.564,8.49,3.539,14.01,3.677c5.519,0.146,13.015-2.544,12.882-3.961C647.596,295.194,644.062,297.459,641.797,296.189z"/>
	<path class="st1" d="M650.567,228.543c0-0.272-0.028-0.562-0.072-0.861c-0.002-0.013-0.003-0.026-0.005-0.04
		c-0.044-0.288-0.106-0.587-0.175-0.888c-0.007-0.03-0.013-0.059-0.02-0.089c-0.062-0.26-0.132-0.521-0.202-0.781
		c-0.102-0.374-0.205-0.744-0.303-1.098c-2.127,0.222-5.075,1.012-4.596,2.207c0.564,1.412-1.421,2.26-3.677,2.26
		c0,0-7.93-0.56-10.195-1.696c-1.714-0.853-9.276-0.417-12.842-0.151c-0.018,0.142-0.066,0.284-0.177,0.435
		c-0.848,1.27-7.642,4.734-8.917,4.099c-1.27-0.635-1.909,2.127-4.454,2.757c-0.248,0.062-0.51,0.107-0.777,0.144
		c-0.218,0.03-0.44,0.055-0.666,0.073c-0.104,0.008-0.208,0.014-0.312,0.02c-0.172,0.01-0.345,0.017-0.518,0.022
		c-0.203,0.006-0.405,0.009-0.605,0.01c-1.564,0.009-2.998-0.074-3.506,0.309c-0.098,0.074-0.169,0.162-0.191,0.276
		c-0.218,1.061-1.914,4.032-3.397,5.515c-1.488,1.488-0.213,3.188-2.336,3.606c-1.399,0.293-1.98,2.886-2.753,5.169
		c0.138,0.071,0.267,0.169,0.417,0.218c3.108,0.986,5.515,4.671,5.094,8.201c-0.422,3.544,4.529,4.822,6.794,2.264
		c2.26-2.54,8.632,1.421,8.632,3.117c0,1.696-6.51-1.838-10.195,0.853c-3.673,2.682,2.833,5.231,1.989,8.064
		c-0.857,2.833,1.696,6.785,4.951,6.652c3.259-0.138,6.932,5.235,8.912,4.241c1.985-0.986-2.402-8.486-1.696-9.618
		c0.711-1.132,4.667,1.98,6.647-0.289c1.985-2.26-1.412-3.956-4.382-3.819c-2.971,0.142-0.142-3.961,3.397-1.838
		c3.535,2.118,5.235-0.564,6.927-0.853c1.696-0.284,2.123-6.363-3.113-7.78c-5.226-1.412-4.525,3.828-7.926,0.276
		c-3.393-3.526,3.117-2.118,3.117-5.089c0-2.971-5.235-7.216-7.784-10.755c-2.544-3.53,3.544-5.231,4.951-2.682
		c1.421,2.544,5.235,2.123,7.642,1.128c2.416-0.986-2.545-5.52,1.838-7.216c4.391-1.701,4.391,1.275,5.808,1.843
		c1.412,0.559,2.686-3.543,7.211-3.543c2.358,0,4.445,1.563,6.465,3.073c1.23-1.355,2.238-2.136,2.238-3.286
		C647.805,231.518,650.567,230.878,650.567,228.543z"/>
	<path class="st1" d="M706.463,303.116c5.094,2.975,13.299-1.412,13.015-2.966c-0.28-1.563,1.842-4.813,5.097-6.088v-1.951
		c-0.048,0.038-0.093,0.066-0.142,0.108c-2.123,1.843-7.225,3.819-13.583,4.108C704.483,296.611,702.494,300.802,706.463,303.116z"
		/>
	<path class="st1" d="M306.86,92.567c0,3.815-5.235,3.677-6.37,6.226c-1.123,2.549,4.529,7.638,9.485,7.638
		c3.537,0,11.743-2.265,16.558-6.79c4.807-4.529,7.356-0.146,11.738-2.402c4.394-2.265,1.699-18.819,0-22.22
		c-0.297-0.604-0.291-1.066-0.162-1.475c-1.19-0.888-2.305-1.856-3.166-2.877c-3.634-4.276-5.138-0.853-5.555,1.714
		c-0.437,2.566-3.85-0.857-5.993-1.279c-2.133-0.435,0.642-4.493,2.143-5.568c0.999-0.71,1.989-2.691,2.605-5.453
		c-0.4,0-0.799-0.053-1.186-0.204c-3.96-1.554-9.485-1.554-9.622,1.98c-0.144,3.539,4.383,2.265,4.527,4.525
		c0.14,2.269-4.527,1.697-7.786,3.966c-3.25,2.265-6.791-1.554-10.186,0.142c-3.399,1.696,3.677,3.685,1.13,7.22
		c-2.549,3.539,0.14,3.393,4.387,6.789C313.652,87.896,306.86,88.744,306.86,92.567z"/>
	<path class="st1" d="M332.475,22.235c3.823-0.138,8.206-6.648,6.37-8.495C337.004,11.906,329.631,22.337,332.475,22.235z"/>
	<path class="st1" d="M342.239,28.598c-1.415-1.27-2.971-4.383-5.804-2.118c-2.835,2.269,3.255,5.24,6.927,5.67
		c3.683,0.417-2.822,3.108-3.533,7.061c-0.706,3.97,4.807,2.273,5.095,5.098c0.289,2.833-7.926,3.259-7.926,5.941
		c0,2.7,4.672-1.27,6.792-2.398c2.125-1.137-1.126,6.643,3.97,5.799c5.091-0.853,3.673-7.78,5.513-7.5
		c1.843,0.28-0.846,3.677,0.713,6.647c1.547,2.971-3.684,7.504-3.399,9.627c0.28,2.123,10.471,2.123,13.723-1.274
		c3.259-3.397,4.807,0.284,2.549,2.833c-2.26,2.545-1.274,4.951,1.561,5.946c2.826,0.986,3.823,1.27,2.549,3.526
		c-1.274,2.273-0.149,6.51-0.857,8.632c-0.706,2.123-9.478,1.843-9.762,0.431c-0.282-1.416-3.966-0.431-2.966,1.55
		c0.985,1.989-3.12,4.107-2.836,5.95c0.289,1.847,5.52,1.412,5.657,3.681c0.14,2.26-3.821,4.946-9.19,6.505
		c-5.384,1.554,1.125,5.804,3.672,3.961c2.546-1.838,1.985,1.27,5.662,1.27c3.679,0,5.953,2.975,10.047,1.421
		c4.105-1.559,3.965,0,0.85,2.402c-3.115,2.411-7.782-0.137-10.613,1.417c-2.831,1.554-14.343,12.349-12.167,15.004
		c1.275,1.55,2.966-2.265,7.067-3.965c4.11-1.697,4.811,1.128,7.085,1.412c2.26,0.289,2.4-4.667,4.241-4.245
		c1.841,0.427,3.537-1.554,6.931-0.986c3.397,0.564,5.806-0.71,7.503-2.122c1.698-1.412,6.221,2.824,7.644,1.838
		c1.408-0.994,7.638-2.127,10.753-1.989c3.104,0.151,11.177-3.534,13.295-5.515c2.125-1.981-1.272-2.398-4.099-1.981
		c-2.833,0.431-2.269-2.829,0.706-5.657c2.971-2.829,7.642-4.956,7.922-9.201c0.288-4.245-9.052-7.211-10.047-4.955
		c-0.99,2.264-3.111,1.989-4.673-0.555c-1.552-2.553,1.423-4.96-0.133-5.24c-1.563-0.284-3.539-3.823-3.111-5.235
		c0.424-1.412-2.409-10.47-7.22-11.603c-4.811-1.132-5.517-7.926-6.363-11.603c-0.853-3.677-3.972-1.705-6.37-4.814
		c-2.409-3.113-6.514-1.554-8.637-1.412c-2.12,0.142,0-3.97,3.393-6.226c3.399-2.264,7.364-14.298,7.364-16.696
		c0-2.411-14.858-2.273-17.688-0.853c-2.833,1.412-5.66-2.123-3.259-3.117c2.407-0.986,7.502-5.942,7.22-7.922
		c-0.28-1.98,3.541-3.819,1.416-5.661c-2.12-1.834-2.407,2.411-4.245,3.823c-1.836,1.416-5.946,0.995-10.333,0.142
		c-4.385-0.853-6.081,5.373-5.941,8.064c0.144,2.691-5.095,4.245-4.25,6.51C345.487,28.181,343.651,29.877,342.239,28.598z"/>
	<path class="st1" d="M325.539,65.534c-1.501,1.075-4.276,5.133-2.143,5.568c2.143,0.422,5.555,3.845,5.993,1.279
		c0.417-2.567,1.921-5.99,5.555-1.714c0.861,1.021,1.976,1.989,3.166,2.877c0.586-1.94,5.058-2.274,7.378-4.609
		c2.831-2.833-1.407-6.936-5.368-10.755c-3.581-3.454-8.193,1.963-11.976,1.901C327.528,62.843,326.538,64.823,325.539,65.534z"/>
	<path class="st1" d="M495.917,63.331c-1.245-2.025-4.038-3.672-3.825-5.151c0.284-1.972,2.971-0.715,4.956,0.986
		c1.972,1.696,6.37,1.985,6.787-0.137c0.26-1.31-0.706-7.358-3.393-5.942c-2.693,1.416-3.395,0.848-4.39-0.568
		c-0.99-1.416,1.981-3.677,2.691-5.941c0.702-2.269,5.371-1.426,6.081-3.259c0.713-1.834-3.119-3.815-4.527-4.525
		c-1.419-0.702-1.985-5.24-0.288-6.643c1.696-1.416,2.413-6.803,0.994-8.215c-1.408-1.416-6.514,0-6.936,3.819
		c-0.424,3.819-4.525,2.123-5.657,2.971c-1.135,0.849,2.258,2.545,0.421,4.245c-1.836,1.696-2.546-2.549-5.517-2.82
		c-2.971-0.293-3.255,4.516-4.807,6.927c-1.563,2.407-0.573,7.5,0,10.896c0.562,3.393,4.667,5.515,3.673,8.348
		c-0.455,1.314,0.473,2.793,1.459,4.236c3.765,0.076,7.216,0.351,8.736,0.853C492.984,63.615,494.258,63.562,495.917,63.331z"/>
	<path class="st1" d="M521.669,47.425c-1.137-0.71-1.985,1.98-3.259,2.264c-1.274,0.284-2.686-5.381-3.255-2.264
		c-0.568,3.113-3.397-1.275-6.225,2.682c-2.831,3.97,1.696,7.504,3.677,8.784c1.98,1.27-0.142,3.108-2.687,2.544
		c-2.546-0.564-0.99,3.672,2.545,4.245c3.535,0.564,7.358-6.225,6.936-7.926C518.97,56.058,523.006,48.26,521.669,47.425z"/>
	<path class="st1" d="M511.35,6.48c-0.715-0.533-1.863-0.573-2.986-0.422c0.004,0.284,0.009,0.568,0,0.897
		c-0.14,3.535,1.134,7.078,4.243,9.618c3.112,2.554,0.706,6.368,3.393,9.907c2.69,3.543,1.838,6.088,4.809,8.637
		c2.975,2.544,3.259,3.961,1.985,7.216c-1.27,3.259,2.549,2.402,2.686,4.383c0.151,1.989-0.839,6.083,0.151,8.068
		c0.986,1.98,2.971,0,7.496-0.138c4.525-0.142,3.397-2.975,3.534-5.666c0.138-2.686,2.411-1.412,2.971-3.108
		c0.568-1.701,4.672-2.123,7.926-0.719c3.25,1.426,4.947-0.981,5.519-4.378c0.56-3.397,2.398,0.711,3.393,1.412
		c0.99,0.71,3.965-5.231,5.373-9.05c1.416-3.828-0.138-3.112-3.393,0.56c-3.255,3.681-1.412-3.672-0.138-6.647
		c1.265-2.971,1.132-11.612,1.554-13.583c0.431-1.981,1.275-4.956,5.377-5.804c3.866-0.799,8.858-5.364,8.717-7.661h-60.325
		c-0.001,0.038-0.012,0.085-0.012,0.121C513.623,1.937,513.17,7.848,511.35,6.48z"/>
	<path class="st1" d="M572.033,33.847c1.137,1.412,11.883-12.602,6.51-12.46C573.17,21.533,570.652,32.11,572.033,33.847z"/>
	<path class="st1" d="M640.38,18.411c1.137,0.853,7.922,6.234,9.623,5.666c1.039-0.346,5.68,0.151,9.129,0.595
		c-0.097-0.259-0.166-0.512-0.207-0.759c-0.001-0.008-0.003-0.016-0.005-0.024c-0.02-0.128-0.035-0.254-0.038-0.377
		c-0.005-0.129,0.001-0.254,0.016-0.375c0.009-0.07,0.022-0.137,0.038-0.204c0.033-0.147,0.081-0.288,0.149-0.418
		c0.017-0.032,0.039-0.062,0.059-0.093c0.089-0.146,0.195-0.283,0.335-0.4c1.274-1.061,4.036-1.061,2.549-3.184
		c-1.483-2.123-1.909-2.544-2.118-5.098c-0.218-2.54-0.853-3.815-0.64-5.515c0.209-1.696,1.91-2.123,3.184-4.884
		c0.698-1.505,2.062-2.269,2.572-3.341h-38.94c-2.561,2.332-8.108,3.072-5.519,5.255c2.695,2.269,0,3.397,1.981,6.088
		c1.985,2.691,2.975,3.823,5.666,3.25c2.691-0.559,4.809,0.844,1.972,3.819c-0.04,0.062-0.067,0.111-0.115,0.16
		C634.603,18.149,639.639,17.861,640.38,18.411z"/>
	<path class="st1" d="M616.602,6.103c1.141-2.123-8.171-1.19-6.079,0.711C612.081,8.234,615.478,8.225,616.602,6.103z"/>
	<path class="st1" d="M608.542,18.562c2.545-0.151,8.348-4.96,9.907-6.518c1.554-1.554-0.994-3.251-6.092-1.834
		C607.268,11.627,606.513,18.669,608.542,18.562z"/>
	<path class="st1" d="M455.244,0h-5.137c-0.025,0.145-0.042,0.292-0.042,0.446C450.065,2.486,453.59,2.165,455.244,0z"/>
	<path class="st1" d="M460.531,0.308c0.995,2.402-2.404,0.564-2.404,3.815c0,3.255-2.12,0.426-3.966,2.975
		c-1.836,2.549,7.22,7.216,10.051,7.921c2.831,0.711,5.517,3.819,11.177,2.975c5.666-0.853,16.414-11.318,17.828-13.161
		c1.421-1.843,4.532,0.284,6.652-1.416C500.841,2.64,501.1,1.304,501.246,0h-40.861C460.436,0.1,460.486,0.2,460.531,0.308z"/>
	<path class="st1" d="M506.099,1.72c1.279,0.507,2.207,1.515,2.265,4.338c1.123-0.151,2.271-0.111,2.986,0.422
		c1.821,1.368,2.273-4.542,2.273-6.359c0-0.036,0.011-0.084,0.012-0.121h-8.776C505.242,0.835,505.64,1.537,506.099,1.72z"/>
	<path class="st1" d="M614.741,68.495c0.009-0.002,0.018-0.003,0.027-0.004c-0.326-1.135,0.239-4.332,0.336-5.949
		c0.001-0.021,0.003-0.044,0.004-0.064c0.007-0.123,0.011-0.239,0.011-0.341c0-1.696-4.032-3.815-5.302-3.18
		c-1.275,0.635-4.672-0.635-5.733-2.127c-0.853-1.19-3.486-0.742-5.812-0.524c0.528,0.32,1.088,0.728,1.492,1.448
		c1.275,2.269-5.093,2.549-3.108,5.235c1.981,2.69-4.529,2.828-4.529,0c0-2.829-6.798-1.417-6.51,0.422
		c0.111,0.666-0.102,1.479-0.568,2.265c1.847,0.657,3.996,1.43,4.836,1.767C591.165,67.953,608.093,69.716,614.741,68.495z"/>
	<path class="st1" d="M662.454,3.341c-1.274,2.762-2.975,3.188-3.184,4.884c-0.213,1.701,0.422,2.975,0.64,5.515
		c0.209,2.553,0.635,2.975,2.118,5.098c1.487,2.123-1.275,2.123-2.549,3.184c-0.14,0.117-0.244,0.255-0.335,0.4
		c-0.019,0.031-0.042,0.061-0.059,0.093c-0.069,0.13-0.114,0.272-0.149,0.418c-0.016,0.067-0.029,0.134-0.038,0.204
		c-0.016,0.121-0.02,0.247-0.016,0.375c0.003,0.123,0.018,0.248,0.038,0.377c0.001,0.008,0.003,0.016,0.005,0.024
		c0.041,0.247,0.11,0.499,0.207,0.759c0.153,0.41,0.365,0.826,0.638,1.235c0.03,0.044,0.063,0.088,0.094,0.132
		c0.111,0.159,0.221,0.317,0.346,0.471c0.17,0.207,0.349,0.411,0.542,0.605c1.701,1.696,1.701,3.819,1.066,5.306
		c-0.639,1.483,1.483,4.036,2.971,5.52c0.139,0.14,0.259,0.307,0.371,0.487c0.026,0.042,0.053,0.081,0.078,0.125
		c0.094,0.166,0.179,0.344,0.257,0.533c0.035,0.086,0.068,0.174,0.101,0.263c0.04,0.112,0.078,0.226,0.115,0.343
		c0.438,1.396,0.63,3.093,1.128,4.131c0.138,0.288,0.297,0.531,0.495,0.695c1.27,1.065,2.757,2.127,5.098,1.487
		c2.335-0.635,3.819,0.427,4.875,2.34c1.066,1.905,2.762,1.061,5.102,0c2.327-1.065,7.633,1.905,8.912,2.544
		c1.274,0.635,0.635,4.245,0.843,6.576c0.213,2.34-1.265,5.306,1.066,6.798c2.336,1.483,1.696,4.88,4.454,5.942
		c2.762,1.065,3.823,4.88,5.524,5.306c1.696,0.422,4.88,2.971,5.302,4.88c0.427,1.909-2.971,3.61-4.884,4.458
		c-1.905,0.848-5.515-2.549-6.785-1.061c-1.274,1.487,0.427,4.241,1.479,8.916c0.466,2.04,0.891,3.268,1.399,4.005
		c0.654,0.949,1.445,1.083,2.638,1.083c2.127,0,2.971-1.478,4.458-2.331c1.483-0.848,4.884,0.422,6.372-0.213
		c1.483-0.635,6.785-0.848,7.85,0.848c1.061,1.696,2.118,5.732,1.275,7.22c-0.853,1.483,1.057,3.179,2.123,5.306
		c0.04,0.079,0.093,0.146,0.142,0.217V0h-59.55C664.515,1.072,663.152,1.836,662.454,3.341z"/>
	<path class="st1" d="M524.267,167.109c-1.677-0.172-3.178-0.397-4.118-0.669c-0.01-0.003-0.02-0.006-0.03-0.009
		c-0.135-0.04-0.255-0.081-0.365-0.122c-0.019-0.007-0.039-0.014-0.057-0.021c-0.115-0.046-0.217-0.093-0.298-0.141
		c-1.066-0.639-1.274-4.041-1.914-4.041c-0.635,0-6.576,0-7.642,1.066c-1.059,1.061-4.243,2.975-5.941,1.909
		c-0.367-0.222-0.77-0.453-1.184-0.657l-1.852,1.723c0,0-0.289,2.264-1.423,2.264c-1.123,0-2.826-0.843-2.826,1.128
		c0,1.985-3.115,1.416-4.527,1.137c-1.414-0.284-3.394,0.28-3.394,1.98c0,1.696-0.286,5.382-2.547,3.402
		c-2.264-1.989-4.538-7.083-5.384-6.519c-0.846,0.568-2.826,6.794-4.807,6.794c-1.228,0-5.262,0.32-8.164,0.578
		c-0.762,2.438,0.051,3.89,1.084,4.52c1.065,0.631-0.638,3.179-1.91,3.819c-1.27,0.635-3.394,0-1.907,2.331
		c1.488,2.331,4.245,2.544,2.757,4.88c-1.483,2.336,0,4.458,2.125,4.671c2.12,0.213,5.095-0.213,4.454,1.492
		c-0.373,0.994-0.95,2.127-1.074,3.237c1.67-0.484,3.146-0.564,4.616-1.337c2.975-1.545,1.701-4.241,6.647-5.657
		c4.956-1.412,11.465,2.691,13.446,5.657c1.98,2.975,2.546,3.259,2.971,5.671c0.428,2.398,2.264,7.216,9.054,11.599
		c6.794,4.391,9.489,9.338,13.02,11.177c3.539,1.847,7.078,1.421,9.2,3.965c2.123,2.544,4.951,3.96,8.348,5.519
		c3.393,1.563,3.534,5.231,6.789,5.661c3.251,0.422,1.133,3.255,3.113,5.657c1.976,2.402,2.549,7.5,0.427,10.333
		c-2.123,2.833-0.995,7.638,0.426,7.638c1.412,0,4.383-5.093,4.809-7.922c0.417-2.833,3.255-2.682,5.515-5.661
		c2.265-2.971-3.392-3.681-4.378-7.5c-0.994-3.823,4.245-7.22,9.192-4.107c4.947,3.113,6.936,5.24,7.211,0.431
		c0.289-4.809-15.279-11.181-18.956-13.446c-3.677-2.256-1.275-5.942-7.074-5.666c-5.803,0.293-12.735-6.927-14.857-15.28
		c-2.122-8.339-11.172-8.77-13.441-13.725c-2.264-4.956,2.123-5.515,0.146-9.618c-1.105-2.282,1.337-4.302,4.219-5.444
		C523.53,175.266,523.916,170.319,524.267,167.109z"/>
	<path class="st1" d="M485.435,234.067c-3.106,2.691-5.673-0.471-6.927,1.696c-1.563,2.691,4.807,6.79,3.533,12.309
		c-1.274,5.515,0.706,12.451,3.961,9.2c3.255-3.251,4.816-1.696,6.652-4.107c1.836-2.398,0.284-11.314,1.558-15.56
		C495.484,233.361,488.548,231.376,485.435,234.067z"/>
	<path class="st1" d="M540.199,266.189c-5.808,1.27-8.206,1.697-11.599,0c-3.401-1.696-8.899,1.546-8.068,3.815
		c0.564,1.563,2.833,3.539,9.902,5.386c7.078,1.834,7.926,6.643,10.897,6.789c2.971,0.138,3.255-2.695,2.549-6.514
		c-0.711-3.819,3.534-8.206,3.956-8.916C548.259,266.047,545.994,264.915,540.199,266.189z"/>
	<path class="st1" d="M581.353,220.805c0.037-0.143,0.074-0.285,0.117-0.427c0.028-0.093,0.06-0.184,0.09-0.277
		c0.034-0.104,0.067-0.207,0.103-0.31c0.045-0.127,0.094-0.253,0.144-0.378c0.024-0.061,0.047-0.122,0.072-0.183
		c0.068-0.164,0.138-0.327,0.211-0.487c0.007-0.014,0.013-0.029,0.019-0.043c0.927-2.001,2.286-3.611,3.365-3.87
		c-2.198-2.695-5.431-6.501-7.513-8.588c-0.485,0.654-0.966,1.35-1.414,2.046c-0.042,0.065-0.08,0.129-0.121,0.194
		c-0.163,0.257-0.322,0.512-0.473,0.765c-0.082,0.137-0.156,0.268-0.233,0.403c-0.105,0.182-0.207,0.362-0.303,0.538
		c-0.079,0.144-0.151,0.283-0.223,0.422c-0.084,0.162-0.163,0.32-0.237,0.475c-0.063,0.132-0.123,0.26-0.178,0.385
		c-0.068,0.154-0.126,0.299-0.182,0.442c-0.042,0.108-0.085,0.216-0.118,0.316c-0.051,0.151-0.084,0.285-0.115,0.417
		c-0.017,0.072-0.042,0.152-0.052,0.218c-0.03,0.186-0.039,0.352-0.014,0.481c0.098,0.484-0.066,1.572-0.395,2.966
		c2.522,2.038,4.964,4.09,6.763,5.022c0.182,0.098,0.338,0.178,0.511,0.266c0.036-0.205,0.08-0.41,0.13-0.614
		C581.32,220.924,581.338,220.865,581.353,220.805z"/>
	<path class="st1" d="M586.722,172.078c0,0-5.888,1.9-9.973,3.144c0,0.002,0.001,0.005,0.001,0.007
		c0.276,2.493,0.929,5.198,2.495,5.783c3.042,1.141,1.905,4.179,3.042,6.847c0.04,0.094,0.078,0.202,0.114,0.318
		c0.02,0.063,0.038,0.131,0.057,0.2c0.019,0.069,0.036,0.141,0.054,0.216c0.015,0.065,0.03,0.129,0.045,0.198
		c0.295,1.418,0.419,3.7,0.388,6.011c0,0.005,0,0.011,0,0.016c-0.005,0.331-0.012,0.662-0.023,0.992
		c-0.002,0.054-0.004,0.108-0.006,0.162c-0.011,0.301-0.024,0.601-0.04,0.897c-0.003,0.055-0.007,0.108-0.01,0.163
		c-0.014,0.247-0.031,0.491-0.049,0.731c-0.007,0.095-0.014,0.19-0.022,0.284c-0.02,0.248-0.043,0.491-0.067,0.728
		c-0.01,0.101-0.022,0.199-0.033,0.298c-0.022,0.192-0.045,0.379-0.069,0.56c-0.014,0.107-0.029,0.211-0.044,0.314
		c-0.026,0.176-0.053,0.345-0.082,0.508c-0.014,0.078-0.027,0.157-0.042,0.231c-0.037,0.192-0.076,0.373-0.117,0.543
		c-0.014,0.058-0.029,0.112-0.043,0.168c-0.042,0.158-0.084,0.307-0.13,0.44c-0.01,0.028-0.019,0.056-0.029,0.083
		c-0.048,0.133-0.099,0.246-0.151,0.347c-0.013,0.025-0.026,0.052-0.04,0.076c-0.057,0.098-0.116,0.176-0.178,0.233
		c-0.013,0.012-0.026,0.02-0.038,0.03c-0.066,0.051-0.134,0.086-0.205,0.086c-0.088,0-0.195,0.035-0.313,0.092
		c-0.041,0.019-0.088,0.052-0.131,0.078c-0.083,0.049-0.167,0.101-0.259,0.171c-0.058,0.044-0.12,0.095-0.182,0.147
		c-0.089,0.074-0.179,0.152-0.274,0.241c-0.071,0.066-0.143,0.134-0.217,0.208c-0.093,0.092-0.189,0.192-0.286,0.295
		c-0.083,0.088-0.166,0.175-0.252,0.27c-0.084,0.094-0.171,0.195-0.257,0.295c-0.448,0.519-0.921,1.112-1.393,1.756
		c2.083,2.087,5.315,5.892,7.513,8.588c0.098-0.027,0.2-0.084,0.293-0.084c0.112,0,0.243,0.021,0.388,0.054
		c0.036,0.008,0.078,0.022,0.116,0.032c0.119,0.032,0.243,0.069,0.378,0.118c0.037,0.014,0.076,0.029,0.115,0.043
		c0.159,0.061,0.324,0.13,0.5,0.21c0.015,0.007,0.03,0.013,0.045,0.02c1.668,0.767,4.009,2.295,5.591,3.378
		c0.589,0.403,1.067,0.74,1.37,0.956c0.222,0.158,0.355,0.255,0.355,0.255s9.849-2.052,16.488-3.015
		c0.053-0.552,0.135-1.143,0.183-1.687c0.006-0.063,0.007-0.12,0.012-0.182c0.011-0.156,0.023-0.313,0.025-0.456
		c0.002-0.21-0.005-0.407-0.033-0.576c-0.213-1.274,1.279-3.819,3.184-3.819c1.91,0-0.853-4.245-2.971-6.154
		c-2.127-1.918-1.909-5.302,0-6.581c0.11-0.073,0.205-0.149,0.291-0.225c0.245-0.215,0.399-0.442,0.493-0.679
		c0.354-0.894-0.195-1.943-0.453-3.151c-0.024-0.113-0.046-0.227-0.064-0.343c-0.008-0.054-0.015-0.108-0.022-0.162
		c-0.022-0.175-0.037-0.352-0.037-0.533c0-2.127-9.12-2.762-10.613-3.184c-1.483-0.427,1.066-5.946-1.27-5.946
		c-2.34,0-3.184-1.692-3.184-3.397c0-1.696-3.61-4.458-3.397-5.52c0.031-0.146,0.133-0.288,0.262-0.431
		c-0.003,0-0.005-0.001-0.008-0.001c-1.306-0.195-2.311-0.359-2.683-0.439C589.253,173.024,586.722,172.078,586.722,172.078z"/>
	<polygon class="st3" points="366.965,213.991 375.087,205.869 375.252,205.704 366.965,197.416 359.035,205.345 358.677,205.704 	
		"/>
</g>
</svg>
