<?xml version="1.0" encoding="utf-8"?>
<!-- Generator: Adobe Illustrator 16.0.0, SVG Export Plug-In . SVG Version: 6.00 Build 0)  -->
<!DOCTYPE svg PUBLIC "-//W3C//DTD SVG 1.1//EN" "http://www.w3.org/Graphics/SVG/1.1/DTD/svg11.dtd">
<svg version="1.1" id="Layer_1" xmlns="http://www.w3.org/2000/svg" xmlns:xlink="http://www.w3.org/1999/xlink" x="0px" y="0px"
	 width="800px" height="800px" viewBox="0 0 800 800" enable-background="new 0 0 800 800" xml:space="preserve">
<g>
	<g>
		<defs>
			<path id="SVGID_1_" d="M1431.52,394.931c26.142,100.5,27.41,214.74,25.602,276.83v0.141c-0.761,26.029-2.05,42.859-2.28,45.62
				c-0.01,0.141-0.01,0.239-0.02,0.311c-0.013,0.069-0.013,0.1-0.013,0.1H980.439V54.46h507.618
				C1488.059,54.46,1393.33,248.101,1431.52,394.931z"/>
		</defs>
		<clipPath id="SVGID_2_">
			<use xlink:href="#SVGID_1_"  overflow="visible"/>
		</clipPath>
		<g clip-path="url(#SVGID_2_)">
			
				<rect x="427.414" y="-110.863" transform="matrix(-0.7071 -0.7071 0.7071 -0.7071 500.0468 981.9767)" fill="#FFFFFF" width="51.967" height="996.577"/>
			
				<rect x="574.874" y="-110.863" transform="matrix(-0.7071 -0.7071 0.7071 -0.7071 751.7732 1086.2487)" fill="#FFFFFF" width="51.969" height="996.578"/>
			
				<rect x="722.341" y="-110.862" transform="matrix(-0.7071 -0.7071 0.7071 -0.7071 1003.5184 1190.5234)" fill="#FFFFFF" width="51.968" height="996.576"/>
			
				<rect x="869.807" y="-110.861" transform="matrix(-0.7071 -0.7071 0.7071 -0.7071 1255.2595 1294.7996)" fill="#FFFFFF" width="51.968" height="996.576"/>
			
				<rect x="1017.288" y="-110.867" transform="matrix(-0.7071 -0.7071 0.7071 -0.7071 1507.0212 1399.0758)" fill="#FFFFFF" width="51.967" height="996.576"/>
			
				<rect x="1164.742" y="-110.862" transform="matrix(-0.7071 -0.7071 0.7071 -0.7071 1758.7375 1503.3542)" fill="#FFFFFF" width="51.969" height="996.578"/>
			
				<rect x="1312.224" y="-110.869" transform="matrix(-0.7071 -0.7071 0.7071 -0.7071 2010.5251 1607.6178)" fill="#FFFFFF" width="51.968" height="996.577"/>
			
				<rect x="1459.713" y="-110.88" transform="matrix(-0.7071 -0.7071 0.7071 -0.7071 2262.2947 1711.8978)" fill="#FFFFFF" width="51.967" height="996.576"/>
			
				<rect x="1607.143" y="-110.859" transform="matrix(-0.7071 -0.7071 0.7071 -0.7071 2513.9692 1816.178)" fill="#FFFFFF" width="51.968" height="996.576"/>
		</g>
	</g>
</g>
<g>
	<path d="M1600.256,418.972c0,0,25.975,33.662,26.111,260.478l35.389-89.062l18.748-138.541l-94.748-91.167L1600.256,418.972z"/>
	<polygon fill="#D8D1D0" points="1521.461,385.763 1505.256,412.264 1513.357,405.764 1544.256,405.764 1565.756,402.701 
		1584.09,392.263 1589.006,380.763 1571.756,373.638 1549.65,371.272 1537.006,373.638 	"/>
	<circle fill="#482D21" cx="1552.13" cy="385.763" r="19.5"/>
	<circle fill="#221103" cx="1552.13" cy="385.763" r="5.874"/>
	<polygon fill="#572F16" points="1469.756,208.263 1524.256,199.263 1570.256,223.763 	"/>
	<path fill="#A7623A" d="M1487.76,305.261L1446.55,270c0.97-8.73,2.159-17.4,3.55-25.96l19.66-35.78L1487.76,305.261z"/>
	<polygon fill="#975B30" points="1469.756,208.263 1487.756,305.263 1507.256,238.763 	"/>
	<path fill="#341E12" d="M1524.26,199.261l-33.31,5.5l-21.19,3.5l-12.06-3.13c0.68-2.97,1.37-5.92,2.08-8.84l26.659,1.23
		L1524.26,199.261z"/>
	<path fill="#18100A" d="M1524.26,199.261l-37.819-1.74l-26.659-1.23c2.188-9.03,4.509-17.83,6.909-26.33
		c0.939-3.32,1.891-6.59,2.851-9.81l7.72-4.89L1524.26,199.261z"/>
	<polygon fill="#170F09" points="1477.256,155.263 1545.506,143.763 1524.256,199.263 	"/>
	<path fill="#221911" d="M1545.51,143.761l-13.859,2.34h-0.012l-38.18,6.43l-16.199,2.729l-3.6-8.53c0.09-0.29,0.18-0.57,0.27-0.85
		c0.48-1.51,0.96-3,1.44-4.47c2.04-6.31,4.089-12.36,6.108-18.13c0.62-1.75,1.229-3.47,1.842-5.17L1545.51,143.761z"/>
	<polygon fill="#2A170D" points="1570.256,223.763 1524.256,199.263 1568.756,204.513 	"/>
	<polygon fill="#331C11" points="1568.756,204.513 1605.006,258.513 1570.256,223.763 	"/>
	<polygon fill="#2B1A0F" points="1605.006,258.513 1631.59,288.597 1633.256,328.93 	"/>
	<polygon fill="#59331B" points="1605.006,258.513 1583.256,288.263 1633.256,328.93 	"/>
	<polygon fill="#23170E" points="1631.59,288.597 1613.256,235.93 1605.006,258.513 	"/>
	<polygon fill="#2A1E17" points="1545.506,143.763 1612.588,141.263 1614.922,173.597 	"/>
	<polygon fill="#160E08" points="1545.506,143.763 1524.256,199.263 1568.756,204.513 	"/>
	<polygon fill="#150F09" points="1545.506,143.763 1614.922,173.597 1568.756,204.513 	"/>
	<polygon fill="#17110B" points="1568.756,204.513 1614.922,173.597 1613.256,235.93 	"/>
	<polygon fill="#1A150F" points="1613.256,235.93 1614.922,173.597 1631.59,288.597 	"/>
	<polygon fill="#6B3919" points="1469.756,208.263 1570.256,223.763 1507.256,238.763 	"/>
	<polygon fill="#5E3421" points="1570.256,223.763 1605.006,258.513 1583.256,288.263 	"/>
	<polygon fill="#744124" points="1507.256,238.763 1570.256,223.763 1583.256,288.263 	"/>
	<polygon fill="#985732" points="1487.756,305.263 1583.256,288.263 1507.256,238.763 	"/>
	<polygon fill="#824A2C" points="1583.256,288.263 1565.256,324.264 1516.588,314.598 	"/>
	<polygon fill="#A66139" points="1487.756,305.263 1516.588,314.598 1583.256,288.263 	"/>
	<polygon fill="#6A3E23" points="1583.256,288.263 1587.631,324.264 1614.922,336.015 	"/>
	<polygon fill="#764529" points="1565.256,324.264 1587.631,324.264 1583.256,288.263 	"/>
	<path fill="#B96C40" d="M1444.35,338.741v-0.01c-1.01-17.66-0.648-35.54,0.74-53.28l24.67,91.81L1444.35,338.741z"/>
	<polygon fill="#1D140D" points="1631.59,288.597 1654.006,341.013 1633.256,328.93 	"/>
	<polygon fill="#A06040" points="1516.588,314.598 1565.256,324.264 1507.256,336.015 	"/>
	<path fill="#B26A40" d="M1492.76,401.011l-13.451,14.59l-17.509,18.99c-0.229-1.189-0.46-2.359-0.7-3.55v-0.01l8.66-53.771
		L1492.76,401.011z"/>
	<path fill="#96582E" d="M1469.76,208.261l-19.66,35.78c1.66-10.34,3.602-20.52,5.73-30.49L1469.76,208.261z"/>
	<polygon fill="#4E2817" points="1507.256,336.015 1565.256,324.264 1556.506,343.806 	"/>
	<polygon fill="#4D2714" points="1565.256,324.264 1587.631,324.264 1576.443,336.763 	"/>
	<polygon fill="#522C16" points="1565.256,324.264 1556.506,343.806 1576.443,336.763 	"/>
	<polygon fill="#4E2917" points="1576.443,336.763 1597.756,339.597 1587.631,324.264 	"/>
	<polygon fill="#502913" points="1587.631,324.264 1614.922,336.015 1597.756,339.597 	"/>
	<polygon fill="#8C5431" points="1492.756,401.014 1512.006,393.138 1505.256,412.264 	"/>
	<polygon fill="#9F6847" points="1512.006,393.138 1521.461,385.763 1505.256,412.264 	"/>
	<polygon fill="#945631" points="1601.381,398.763 1607.006,446.513 1611.506,390.763 	"/>
	<polygon fill="#91502E" points="1611.506,390.763 1607.006,446.513 1650.924,439.763 	"/>
	<polygon fill="#945837" points="1607.006,446.513 1631.59,479.263 1650.924,439.763 	"/>
	<polygon fill="#563228" points="1650.924,439.763 1659.006,462.013 1648.006,482.763 	"/>
	<polygon fill="#905A3D" points="1650.924,439.763 1648.006,482.763 1631.59,479.263 	"/>
	<polygon fill="#3D1F13" points="1650.924,400.764 1661.756,415.096 1650.924,439.763 	"/>
	<path fill="#DB8C5F" d="M1469.76,377.261l-17.836,7.003l-5.854-25.713c-0.781-6.56-1.352-13.17-1.722-19.81L1469.76,377.261z"/>
	<path fill="#DA9161" d="M1469.76,377.261l-8.66,53.771c-0.869-4.371-1.791-8.73-2.739-13.08l-0.011-0.041l-6.426-33.646
		L1469.76,377.261z"/>
	<path fill="#D17B4C" d="M1469.5,481.661v-0.011c-1.75-12.939-3.78-25.96-6.17-38.92l11,23.109v0.01h0.01l10.42,21.91
		L1469.5,481.661z"/>
	<path fill="#BF704B" d="M1479.309,415.601l-4.979,50.24l-11-23.109v-0.021c-0.49-2.71-1-5.41-1.53-8.12L1479.309,415.601z"/>
	<polygon fill="#88492E" points="1484.756,487.763 1512.006,467.763 1474.33,465.847 	"/>
	<polygon fill="#8A4C2D" points="1479.307,415.6 1492.756,401.014 1505.256,412.264 	"/>
	<polygon fill="#88492E" points="1479.307,415.6 1505.256,412.264 1492.281,434.764 	"/>
	<polygon fill="#8E4D34" points="1479.307,415.6 1474.33,465.847 1492.281,434.764 	"/>
	<polygon fill="#82432A" points="1474.33,465.847 1492.281,434.764 1512.006,467.763 	"/>
	<polygon fill="#83452B" points="1492.281,434.764 1505.256,412.264 1512.006,467.763 	"/>
	<path fill="#DB885D" d="M1484.76,487.761l-10.43,10.021l-2.53,2.431c-0.7-6.15-1.47-12.351-2.3-18.55L1484.76,487.761z"/>
	<path fill="#CC7C56" d="M1479.309,518.141l-5.789-1.699c-0.528-5.381-1.1-10.79-1.72-16.221v-0.01l2.53-2.431L1479.309,518.141z"/>
	<polygon fill="#AF6848" points="1474.33,497.78 1484.756,487.763 1501.131,502.888 	"/>
	<polygon fill="#884528" points="1484.756,487.763 1512.006,467.763 1515.881,492.388 	"/>
	<polygon fill="#A76141" points="1484.756,487.763 1515.881,492.388 1501.131,502.888 	"/>
	<polygon fill="#904B35" points="1474.33,497.78 1501.131,502.888 1479.307,518.138 	"/>
	<polygon fill="#956040" points="1505.256,412.264 1513.357,405.764 1524.506,413.389 	"/>
	<polygon fill="#A76C50" points="1513.357,405.764 1544.256,405.764 1524.506,413.389 	"/>
	<polygon fill="#9A5B34" points="1524.506,413.389 1512.006,467.763 1505.256,412.264 	"/>
	<polygon fill="#BA6B42" points="1524.506,413.389 1537.006,477.763 1514.881,455.257 	"/>
	<polygon fill="#AB6F4C" points="1544.256,405.764 1565.756,402.701 1561.756,414.43 	"/>
	<polygon fill="#895238" points="1565.756,402.701 1584.09,392.263 1577.422,412.264 	"/>
	<polygon fill="#78452A" points="1584.09,392.263 1601.381,398.763 1589.006,413.389 	"/>
	<polygon fill="#81482A" points="1584.09,392.263 1577.422,412.264 1589.006,413.389 	"/>
	<polygon fill="#A6633E" points="1601.381,398.763 1607.006,446.513 1589.006,413.389 	"/>
	<polygon fill="#C1744A" points="1589.006,413.389 1567.254,432.43 1607.006,446.513 	"/>
	<polygon fill="#B2724F" points="1524.506,413.389 1544.256,405.764 1561.756,414.43 	"/>
	<polygon fill="#9B5E3A" points="1565.756,402.701 1577.422,412.264 1561.756,414.43 	"/>
	<polygon fill="#A96140" points="1524.506,413.389 1561.756,414.43 1555.006,425.93 	"/>
	<polygon fill="#B46841" points="1524.506,413.389 1537.006,477.763 1555.006,425.93 	"/>
	<polygon fill="#B36A44" points="1561.756,414.43 1567.254,432.43 1555.006,425.93 	"/>
	<polygon fill="#A15C36" points="1577.422,412.264 1567.254,432.43 1561.756,414.43 	"/>
	<polygon fill="#9D5C36" points="1577.422,412.264 1589.006,413.389 1567.254,432.43 	"/>
	<path fill="#C3754C" d="M1479.309,518.141l-5.009,6.57c-0.25-2.75-0.511-5.5-0.78-8.271L1479.309,518.141z"/>
	<polygon fill="#7F3C2C" points="1479.307,518.138 1503.256,526.388 1501.131,502.888 	"/>
	<polygon fill="#9B5838" points="1479.307,518.138 1502.143,541.763 1503.256,526.388 	"/>
	<path fill="#C46F4D" d="M1483.3,540.511h-7.7c-0.391-5.21-0.829-10.479-1.3-15.79v-0.01l5.009-6.57L1483.3,540.511z"/>
	<polygon fill="#B16446" points="1479.307,518.138 1502.143,541.763 1483.305,540.513 	"/>
	<polygon fill="#C8754D" points="1555.006,425.93 1537.006,477.763 1567.254,432.43 	"/>
	<polygon fill="#C77349" points="1567.254,432.43 1607.006,446.513 1537.006,477.763 	"/>
	<polygon fill="#A15935" points="1607.006,446.513 1589.006,477.763 1631.59,479.263 	"/>
	<polygon fill="#7C3F29" points="1537.006,477.763 1512.006,467.763 1514.881,455.257 	"/>
	<polygon fill="#914A2C" points="1512.006,467.763 1515.881,492.388 1524.506,500.888 	"/>
	<polygon fill="#AB6244" points="1515.881,492.388 1501.131,502.888 1514.381,507.958 	"/>
	<polygon fill="#A55E46" points="1515.881,492.388 1514.381,507.958 1524.506,500.888 	"/>
	<polygon fill="#753620" points="1512.006,467.763 1537.006,477.763 1524.506,500.888 	"/>
	<polygon fill="#C6734E" points="1537.006,477.763 1589.006,477.763 1607.006,446.513 	"/>
	<polygon fill="#8D5837" points="1648.006,482.763 1642.088,531.763 1631.59,479.263 	"/>
	<polygon fill="#D37D59" points="1589.006,477.763 1569.59,529.95 1537.006,477.763 	"/>
	<polygon fill="#935232" points="1502.143,541.763 1533.506,546.763 1503.256,526.388 	"/>
	<polygon fill="#9E623D" points="1642.088,531.763 1618.506,587.263 1603.006,526.388 	"/>
	<polygon fill="#A8603F" points="1631.59,479.263 1589.006,477.763 1603.006,526.388 	"/>
	<polygon fill="#9A5E3D" points="1603.006,526.388 1642.088,531.763 1631.59,479.263 	"/>
	<polygon fill="#BC714C" points="1589.006,477.763 1569.59,529.95 1603.006,526.388 	"/>
	<polygon fill="#9A603C" points="1618.506,587.263 1594.506,619.263 1603.006,526.388 	"/>
	<polygon fill="#8F5736" points="1594.506,619.263 1547.256,662.263 1554.006,610.763 	"/>
	<polygon fill="#945C39" points="1554.006,610.763 1577.756,558.763 1594.506,619.263 	"/>
	<polygon fill="#9E5B38" points="1569.59,529.95 1603.006,526.388 1577.756,558.763 	"/>
	<polygon fill="#9A5B37" points="1577.756,558.763 1603.006,526.388 1594.506,619.263 	"/>
	<polygon fill="#7B3828" points="1501.131,502.888 1514.381,507.958 1503.256,526.388 	"/>
	<polygon fill="#84452A" points="1524.506,500.888 1537.006,477.763 1569.59,529.95 	"/>
	<polygon fill="#7D3C29" points="1524.506,500.888 1514.381,507.958 1539.756,531.763 	"/>
	<polygon fill="#7D3D27" points="1514.381,507.958 1503.256,526.388 1539.756,531.763 	"/>
	<polygon fill="#7F4129" points="1524.506,500.888 1569.59,529.95 1539.756,531.763 	"/>
	<polygon fill="#87472D" points="1503.256,526.388 1539.756,531.763 1533.506,546.763 	"/>
	<polygon fill="#844930" points="1539.756,531.763 1562.256,540.513 1569.59,529.95 	"/>
	<polygon fill="#925536" points="1569.59,529.95 1562.256,540.513 1577.756,558.763 	"/>
	<path fill="#AC5741" d="M1483.3,540.511l-6.511,17.71c-0.35-5.83-0.739-11.729-1.189-17.71H1483.3z"/>
	<path fill="#A25540" d="M1514.88,553.511l-11.63,1.59h-0.03l-1.63,0.23c-0.01,0-0.02,0-0.031,0.01l-0.429,0.061l-14.33,1.96
		l-8.02,1.101l-1.96,0.271c-0.012-0.17-0.021-0.341-0.031-0.511l6.511-17.71L1514.88,553.511z"/>
	<polygon fill="#964F34" points="1514.881,553.513 1483.305,540.513 1502.143,541.763 	"/>
	<polygon fill="#86452A" points="1514.881,553.513 1533.506,546.763 1502.143,541.763 	"/>
	<polygon fill="#81472F" points="1533.506,546.763 1539.756,531.763 1562.256,540.513 	"/>
	<polygon fill="#82482E" points="1514.881,553.513 1550.381,556.013 1533.506,546.763 	"/>
	<polygon fill="#7F4730" points="1533.506,546.763 1562.256,540.513 1550.381,556.013 	"/>
	<polygon fill="#774025" points="1550.381,556.013 1562.256,540.513 1565.812,584.913 	"/>
	<polygon fill="#965834" points="1562.256,540.513 1577.756,558.763 1565.812,584.913 	"/>
	<polygon fill="#824A31" points="1550.381,556.013 1527.068,590.388 1565.812,584.913 	"/>
	<polygon fill="#8B5030" points="1527.068,590.388 1554.006,610.763 1565.812,584.913 	"/>
	<polygon fill="#894E2D" points="1527.068,590.388 1508.088,648.931 1554.006,610.763 	"/>
	<polygon fill="#935738" points="1508.088,648.931 1547.256,662.263 1554.006,610.763 	"/>
	<polygon fill="#A35D41" points="1508.088,648.931 1489.422,618.265 1527.068,590.388 	"/>
	<path fill="#894829" d="M1501.13,555.4l-0.08,0.17l-4.29,9.569l-1.39-0.439l-3.79-1.199l-13.621-4.311l-1.129-0.351v-0.01
		c0-0.03-0.01-0.07-0.01-0.101l1.96-0.271l8.02-1.101L1501.13,555.4z"/>
	<polygon fill="#834225" points="1501.131,555.396 1512.506,563.856 1514.881,553.513 	"/>
	<polygon fill="#98664A" points="1514.881,553.513 1534.123,554.868 1540.293,570.888 	"/>
	<polygon fill="#371313" points="1534.123,554.868 1550.381,556.013 1540.293,570.888 	"/>
	<polygon fill="#9D6B4A" points="1514.881,553.513 1512.506,563.856 1521.506,578.013 	"/>
	<polygon fill="#9C6F4C" points="1521.506,578.013 1514.881,553.513 1540.293,570.888 	"/>
	<polygon fill="#9F603F" points="1508.088,648.931 1494.756,690.929 1547.256,662.263 	"/>
	<path fill="#BC6947" d="M1489.42,618.261l-10.43,16.25c0-5.439-0.031-11.069-0.091-16.87L1489.42,618.261z"/>
	<path fill="#B76945" d="M1508.09,648.931l-29.109-9.3c0-1.689,0.011-3.391,0.011-5.12l10.43-16.25L1508.09,648.931z"/>
	<path fill="#C7724E" d="M1508.09,648.931l-29.631,22.271c0.271-9.409,0.471-20.01,0.521-31.569L1508.09,648.931z"/>
	<path fill="#AD6743" d="M1508.09,648.931l-13.33,42l-17-0.489c0.24-5.49,0.48-11.7,0.681-18.54v-0.141
		c0.011-0.18,0.011-0.37,0.02-0.561L1508.09,648.931z"/>
	<path fill="#EA856C" d="M1489.42,618.261l-10.521-0.62c-0.051-3.189-0.101-6.439-0.159-9.729L1489.42,618.261z"/>
	<path fill="#E07D66" d="M1493.26,592.101l-3.84,26.16l-10.68-10.35c-0.11-5.87-0.271-11.91-0.48-18.07L1493.26,592.101z"/>
	<polygon fill="#B4654D" points="1493.256,592.097 1521.506,578.013 1489.422,618.265 	"/>
	<polygon fill="#763925" points="1521.506,578.013 1527.068,590.388 1540.293,570.888 	"/>
	<polygon fill="#8E4934" points="1521.506,578.013 1489.422,618.265 1527.068,590.388 	"/>
	<polygon fill="#E4BC8A" points="1496.76,565.141 1494.49,582.641 1493.26,592.101 1489.45,584.48 1489.109,583.801 1477.18,559.95 
		1476.85,559.28 1476.83,558.841 1477.959,559.19 1491.58,563.501 1495.37,564.7 	"/>
	<path fill="#EFC899" d="M1489.109,583.801l-10.972,2.59c-0.309-8.489-0.709-17.22-1.229-26.149c-0.021-0.319-0.04-0.641-0.062-0.96
		l0.33,0.67L1489.109,583.801z"/>
	<path fill="#993D20" d="M1493.26,592.101l-15-2.26c-0.029-0.979-0.069-1.96-0.1-2.939c-0.011-0.17-0.011-0.341-0.021-0.511
		l10.972-2.59l0.341,0.68L1493.26,592.101z"/>
	<polygon fill="#A8754F" points="1496.756,565.138 1501.131,555.396 1512.506,563.856 	"/>
	<polygon fill="#B0845A" points="1496.756,565.138 1521.506,578.013 1512.506,563.856 	"/>
	<polygon fill="#A67751" points="1493.256,592.097 1496.756,565.138 1521.506,578.013 	"/>
	<polygon fill="#5A351E" points="1633.256,328.93 1646.256,367.932 1625.256,351.598 	"/>
	<polygon fill="#62381D" points="1583.256,288.263 1633.256,328.93 1625.256,351.598 	"/>
	<path fill="#C77F4D" d="M1487.76,305.261v43.17l-41.79-72.95c0.19-1.83,0.38-3.66,0.58-5.48L1487.76,305.261z"/>
	<path fill="#CC8254" d="M1487.76,348.431l-18,28.83l-24.67-91.81c0.26-3.33,0.549-6.65,0.88-9.97L1487.76,348.431z"/>
	<polygon fill="#C6784F" points="1487.756,348.431 1487.756,305.263 1516.588,314.598 	"/>
	<polygon fill="#1E130C" points="1633.256,328.93 1654.006,341.013 1646.256,367.932 	"/>
	<polygon fill="#A5603D" points="1487.756,348.431 1507.256,336.015 1516.588,314.598 	"/>
	<polygon fill="#AD663E" points="1469.756,377.263 1505.256,378.513 1487.756,348.431 	"/>
	<polygon fill="#AA6642" points="1487.756,348.431 1527.756,351.598 1505.256,378.513 	"/>
	<polygon fill="#9D5C36" points="1469.756,377.263 1492.756,401.014 1505.256,378.513 	"/>
	<polygon fill="#714526" points="1646.256,367.932 1630.256,381.763 1625.256,351.598 	"/>
	<polygon fill="#8A4C30" points="1507.256,336.015 1527.756,351.598 1487.756,348.431 	"/>
	<polygon fill="#6D3D26" points="1527.756,351.598 1556.506,343.806 1507.256,336.015 	"/>
	<polygon fill="#633C22" points="1597.756,339.597 1625.256,351.598 1614.922,336.015 	"/>
	<polygon fill="#683C21" points="1625.256,351.598 1630.256,381.763 1597.756,339.597 	"/>
	<polygon fill="#6C3E21" points="1646.256,367.932 1650.924,400.764 1630.256,381.763 	"/>
	<polygon fill="#9E623B" points="1527.756,351.598 1556.506,343.806 1572.422,366.681 	"/>
	<polygon fill="#AE7040" points="1527.756,351.598 1505.256,378.513 1545.633,357.635 	"/>
	<polygon fill="#A46541" points="1505.256,378.513 1518.922,381.763 1492.756,401.014 	"/>
	<polygon fill="#C28657" points="1505.256,378.513 1518.922,381.763 1545.633,357.635 	"/>
	<polygon fill="#8B5936" points="1556.506,343.806 1576.443,336.763 1572.422,366.681 	"/>
	<polygon fill="#77462E" points="1576.443,336.763 1597.756,339.597 1599.088,367.932 	"/>
	<polygon fill="#84522F" points="1597.756,339.597 1599.088,367.932 1630.256,381.763 	"/>
	<polygon fill="#844C2D" points="1576.443,336.763 1572.422,366.681 1599.088,367.932 	"/>
	<polygon fill="#7A4A31" points="1650.924,400.764 1650.924,439.763 1630.256,381.763 	"/>
	<polygon fill="#AA6C46" points="1545.633,357.635 1572.422,366.681 1549.65,371.272 	"/>
	<polygon fill="#BD7D4F" points="1545.633,357.635 1549.65,371.272 1537.006,373.638 	"/>
	<polygon fill="#824A2F" points="1572.422,366.681 1589.006,380.763 1599.088,367.932 	"/>
	<polygon fill="#7A4722" points="1599.088,367.932 1630.256,381.763 1589.006,380.763 	"/>
	<polygon fill="#7E4926" points="1589.006,380.763 1611.506,390.763 1630.256,381.763 	"/>
	<polygon fill="#814C2D" points="1611.506,390.763 1650.924,439.763 1630.256,381.763 	"/>
	<polygon fill="#BE8250" points="1545.633,357.635 1518.922,381.763 1537.006,373.638 	"/>
	<polygon fill="#8C5335" points="1572.422,366.681 1589.006,380.763 1571.756,373.638 	"/>
	<polygon fill="#985E3F" points="1549.65,371.272 1571.756,373.638 1572.422,366.681 	"/>
	<polygon fill="#B5784C" points="1518.922,381.763 1537.006,373.638 1512.006,393.138 	"/>
	<polygon fill="#9C613F" points="1492.756,401.014 1518.922,381.763 1512.006,393.138 	"/>
	<polygon fill="#623215" points="1611.506,390.763 1589.006,380.763 1601.381,398.763 	"/>
	<polygon fill="#431D12" points="1584.09,392.263 1589.006,380.763 1601.381,398.763 	"/>
	<polygon fill="#1F130C" points="1568.756,204.513 1613.256,235.93 1605.006,258.513 	"/>
	<path opacity="0.7" fill="#FFFFFF" enable-background="new    " d="M1493.979,575.761c-0.028,1.311-0.318,2.72-0.89,4.08
		l-0.01,0.01c-0.721,1.721-1.91,3.36-3.63,4.631c-2.062,1.54-4.9,2.55-8.62,2.51c-0.98-0.01-1.871-0.04-2.67-0.09
		c-0.011-0.17-0.011-0.341-0.021-0.511c-0.309-8.489-0.709-17.22-1.229-26.149c0.09-0.101,0.18-0.189,0.27-0.29
		c0.261-0.26,0.521-0.521,0.779-0.76c0.271-0.261,0.541-0.5,0.821-0.729c2.47-2.03,5.199-3,8.02-1.101
		c0.07,0.04,0.15,0.101,0.221,0.149c2.011,1.45,3.489,3.601,4.561,5.99c1.43,3.18,2.12,6.779,2.33,9.72c0.01,0.01,0.01,0.021,0,0.03
		C1493.979,574.171,1494,575.011,1493.979,575.761z"/>
	<path opacity="0.7" fill="#FFFFFF" enable-background="new    " d="M1495.727,562.714c0,0,6.391-16.076,13.179-1.576
		c6.789,14.5,1.775,16.625-3.904,20.125s-10.889,1.597-11.803,0.625C1492.284,580.917,1495.727,562.714,1495.727,562.714z"/>
	<path opacity="0.7" fill="#FFFFFF" enable-background="new    " d="M1523.753,554.034c0,0,8.319,4.322,2.327,17.373
		c-5.993,13.051-20.278,0.957-14.805-1.146C1511.275,570.263,1504.835,562.737,1523.753,554.034z"/>
	<path opacity="0.7" fill="#FFFFFF" enable-background="new    " d="M1534.096,555.079c0,0-6.199,2.918-5.699,7.635
		s-0.161,7.551,2.836,6.467s6.33-6.467,6.33-6.467S1539.63,554.894,1534.096,555.079z"/>
	<path fill="#221915" d="M1751.07,669.501C1717.3,845.94,1708.8,895.57,1706.97,908.751c0.521-49.03-4.42-65.271-37.8-130.58
		c-7.561-14.76-16.561-32.03-27.28-52.76c-0.06-0.131-0.13-0.261-0.2-0.392c-16.64-32.14-19.238-61.358-15.67-88.08
		c0-0.01,0-0.01,0-0.02s0-0.01,0-0.021c8.552-64.3,52.771-114.238,23.119-156.27c-0.289-0.42-0.589-0.83-0.897-1.25
		c-1.9-2.55-4.07-5.08-6.552-7.57c-1.448-1.46-2.881-2.93-4.278-4.43c-6.75-7.12-13.121-14.67-19.182-22.601
		c-3.421-4.46-6.729-9.04-9.97-13.729c-1.26-1.82-2.5-3.65-3.72-5.5c-1.19-1.78-2.36-3.57-3.53-5.37
		c-0.03-0.06-0.07-0.13-0.109-0.189c-0.041-0.061-0.069-0.109-0.101-0.17c-0.11-0.171-0.22-0.351-0.319-0.521
		c-0.051-0.07-0.091-0.141-0.141-0.21c0-0.011,0-0.011-0.01-0.021c-0.01-0.021-0.03-0.051-0.041-0.07h-0.009
		c-0.012-0.021-0.021-0.029-0.021-0.029v-0.02c-2.29-3.57-4.54-7.19-6.75-10.881c-3.08-5.131-6.09-10.351-9.04-15.669
		c-0.09-0.14-0.17-0.29-0.25-0.44c-3.09-5.55-6.109-11.2-9.1-16.93c-0.981-1.9-1.971-3.81-2.95-5.73c-0.4-0.77-0.79-1.55-1.19-2.33
		c-0.148-0.31-0.31-0.62-0.47-0.93v-0.01c-1.26-2.48-2.52-4.98-3.76-7.5c-2.562-5.16-5.111-10.37-7.63-15.64
		c-0.391-0.79-0.761-1.58-1.141-2.37c-2.141-4.47-4.271-8.96-6.399-13.49c-0.95-2.01-1.9-4.03-2.84-6.05
		c-2.5-5.34-5-10.71-7.521-16.11c-1.3-2.8-2.609-5.61-3.931-8.43c-8.549-18.34-17.311-36.94-26.68-55.5
		c-0.449-0.89-0.891-1.78-1.341-2.66c-2.211-4.33-4.438-8.66-6.711-12.98c-2.389-4.54-4.789-8.9-7.198-13.09
		c-1.471-2.55-2.931-5.03-4.409-7.45c-1.5-2.48-3-4.89-4.512-7.24c-6.64-10.39-13.278-19.53-19.75-27.56
		c0.94-3.32,1.892-6.59,2.852-9.81c1.358-4.57,2.739-9.05,4.12-13.42c0.09-0.29,0.18-0.57,0.27-0.85c0.48-1.51,0.96-3,1.44-4.47
		c2.04-6.311,4.089-12.36,6.108-18.13c0.62-1.75,1.229-3.47,1.841-5.17c2.988-8.35,5.899-16.05,8.63-23
		c49.489-0.33,110.729,16.94,161.25,85.57C1653.2,180.681,1802.89,398.821,1751.07,669.501z"/>
	<path fill="#2F2119" d="M1711.24,709.24c-15.781,39.37-30.271,60.391-42.07,68.931c-7.561-14.76-16.561-32.03-27.28-52.76
		c3.36-12.761,9.511-25.801,18.971-36.99c60.021-71.05,116.579-188.88,35.979-249.26c-21.229-15.911-36.17-33.8-48-53.07
		c-2.76-4.48-5.34-9.03-7.79-13.65c-2.45-4.6-4.77-9.27-7-14c-2.16-4.59-4.25-9.24-6.29-13.93c-4.29-9.91-8.39-20.04-12.63-30.32
		c-5.83-14.19-11.93-28.67-19.18-43.28c-6.91-13.9-14.86-27.91-24.63-41.89c-1.102-1.57-2.222-3.14-3.37-4.71
		c-0.25-0.34-0.5-0.68-0.741-1.02c-0.479-0.64-0.959-1.28-1.439-1.92c-3.979-5.31-8.25-10.62-12.85-15.9
		c-0.93-1.07-1.861-2.12-2.79-3.16c-6.45-7.23-12.94-13.88-19.4-19.96c-12.659-11.93-25.22-21.74-37.271-29.82
		c-6.189-4.15-12.239-7.85-18.089-11.12c2.04-6.31,4.089-12.36,6.108-18.13c15.159,4.99,32.012,12.28,50.159,22.82h0.011
		c3.461,2,6.972,4.13,10.521,6.38c2.939,1.87,5.92,3.82,8.92,5.86c12.811,8.71,26.15,19.03,39.9,31.29
		c7.52,6.7,15.17,13.98,22.92,21.88c2.54,2.59,5.1,5.26,7.66,7.99c8.67,9.22,17.46,19.23,26.34,30.09
		C1781.76,413.281,1770.25,562.001,1711.24,709.24z"/>
	<path fill="#160E08" d="M1477.26,155.261l-7.72,4.89c1.359-4.57,2.74-9.05,4.12-13.42c0.09-0.29,0.18-0.57,0.27-0.85
		L1477.26,155.261z"/>
	<path fill="#23170E" d="M1505.256,412.264"/>
	<path fill="#914A27" d="M1513.357,405.764h30.897l21.5-3.062l18.334-10.438c-25.039,12.75-73.062,10.563-73.062,10.563
		l-5.771,9.438L1513.357,405.764z"/>
	<polygon fill="#623215" points="1521.461,385.764 1511.027,402.826 1505.256,412.264 1513.357,405.764 	"/>
	<path fill="#4E2817" d="M1469.76,208.261l-13.93,5.29c0.609-2.82,1.229-5.63,1.87-8.42L1469.76,208.261z"/>
</g>
<path fill="#B2B2B2" d="M1454.82,717.831l2.3-45.931C1456.32,699.211,1454.939,716.391,1454.82,717.831z"/>
<g>
	<g>
		<defs>
			<rect id="SVGID_3_" y="0.192" width="488.218" height="799.808"/>
		</defs>
		<clipPath id="SVGID_4_">
			<use xlink:href="#SVGID_3_"  overflow="visible"/>
		</clipPath>
		<g clip-path="url(#SVGID_4_)">
			
				<rect x="-528.68" y="-204.674" transform="matrix(-0.7071 -0.7071 0.7071 -0.7071 -1131.5793 331.4541)" fill="#FFFFFF" width="63.072" height="1209.514"/>
			
				<rect x="-349.703" y="-204.675" transform="matrix(-0.7071 -0.7071 0.7071 -0.7071 -826.0468 458.0038)" fill="#FFFFFF" width="63.071" height="1209.514"/>
			
				<rect x="-170.728" y="-204.671" transform="matrix(-0.7071 -0.7071 0.7071 -0.7071 -520.5195 584.5651)" fill="#FFFFFF" width="63.071" height="1209.514"/>
			
				<rect x="8.247" y="-204.67" transform="matrix(-0.7071 -0.7071 0.7071 -0.7071 -214.9904 711.1219)" fill="#FFFFFF" width="63.072" height="1209.513"/>
			
				<rect x="187.224" y="-204.666" transform="matrix(-0.7071 -0.7071 0.7071 -0.7071 90.5421 837.6841)" fill="#FFFFFF" width="63.072" height="1209.513"/>
			
				<rect x="366.201" y="-204.666" transform="matrix(-0.7071 -0.7071 0.7071 -0.7071 396.0688 964.24)" fill="#FFFFFF" width="63.071" height="1209.514"/>
			
				<rect x="545.171" y="-204.664" transform="matrix(-0.7071 -0.7071 0.7071 -0.7071 701.5959 1090.7938)" fill="#FFFFFF" width="63.072" height="1209.513"/>
			
				<rect x="724.157" y="-204.667" transform="matrix(-0.7071 -0.7071 0.7071 -0.7071 1007.141 1217.3522)" fill="#FFFFFF" width="63.071" height="1209.514"/>
			
				<rect x="903.133" y="-204.666" transform="matrix(-0.7071 -0.7071 0.7071 -0.7071 1312.6663 1343.9091)" fill="#FFFFFF" width="63.07" height="1209.513"/>
		</g>
	</g>
</g>
<rect x="488.218" y="0.192" fill="#FFFFFF" width="6.16" height="799.808"/>
<g>
	<polygon fill="#C6C6C6" points="467.487,273.604 467.487,285.752 417.965,335.275 201.849,551.138 140.164,612.821 97.434,612.821 
		97.434,566.265 328.423,335.275 390.094,273.604 	"/>
	<polygon fill="#C6C6C6" points="470.281,551.138 470.167,612.821 50.876,612.821 97.434,566.265 112.559,551.138 	"/>
	<polygon fill="#C6C6C6" points="479.637,273.604 417.965,335.275 60.009,335.275 60.009,273.604 	"/>
</g>
<path d="M630.295,408.639c0,0,25.975,33.663,26.111,260.479l35.389-89.062l18.748-138.541l-94.748-91.167L630.295,408.639z"/>
<polygon fill="#D8D1D0" points="551.5,375.431 535.295,401.931 543.396,395.431 574.295,395.431 595.795,392.368 614.129,381.931 
	619.045,370.431 601.795,363.306 579.689,360.939 567.045,363.306 "/>
<circle fill="#482D21" cx="582.17" cy="375.431" r="19.5"/>
<circle fill="#221103" cx="582.169" cy="375.431" r="5.874"/>
<polygon fill="#572F16" points="499.795,197.931 554.295,188.931 600.295,213.431 "/>
<polygon fill="#A7623A" points="517.798,294.93 494.378,274.89 494.378,207.79 499.798,197.93 "/>
<polygon fill="#975B30" points="499.795,197.931 517.795,294.931 537.295,228.431 "/>
<polygon fill="#341E12" points="554.298,188.93 520.998,194.43 499.798,197.93 494.378,196.52 494.378,186.17 516.479,187.19 "/>
<polygon fill="#18100A" points="554.298,188.93 516.479,187.19 494.378,186.17 494.378,153.12 507.298,144.93 "/>
<polygon fill="#170F09" points="507.295,144.931 575.545,133.431 554.295,188.931 "/>
<polygon fill="#221911" points="575.548,133.43 561.698,135.76 561.688,135.76 523.498,142.2 507.298,144.93 500.27,128.26 
	494.378,114.3 494.378,99.95 "/>
<polygon fill="#2A170D" points="600.295,213.431 554.295,188.931 598.795,194.181 "/>
<polygon fill="#331C11" points="598.795,194.181 635.045,248.181 600.295,213.431 "/>
<polygon fill="#2B1A0F" points="635.045,248.181 661.629,278.264 663.295,318.597 "/>
<polygon fill="#59331B" points="635.045,248.181 613.295,277.931 663.295,318.597 "/>
<polygon fill="#23170E" points="661.629,278.264 643.295,225.597 635.045,248.181 "/>
<polygon fill="#2A1E17" points="575.545,133.431 642.627,130.931 644.961,163.264 "/>
<polygon fill="#160E08" points="575.545,133.431 554.295,188.931 598.795,194.181 "/>
<polygon fill="#150F09" points="575.545,133.431 644.961,163.264 598.795,194.181 "/>
<polygon fill="#17110B" points="598.795,194.181 644.961,163.264 643.295,225.597 "/>
<polygon fill="#1A150F" points="643.295,225.597 644.961,163.264 661.629,278.264 "/>
<polygon fill="#6B3919" points="499.795,197.931 600.295,213.431 537.295,228.431 "/>
<polygon fill="#5E3421" points="600.295,213.431 635.045,248.181 613.295,277.931 "/>
<polygon fill="#744124" points="537.295,228.431 600.295,213.431 613.295,277.931 "/>
<polygon fill="#985732" points="517.795,294.931 613.295,277.931 537.295,228.431 "/>
<polygon fill="#824A2C" points="613.295,277.931 595.295,313.932 546.627,304.265 "/>
<polygon fill="#A66139" points="517.795,294.931 546.627,304.265 613.295,277.931 "/>
<polygon fill="#6A3E23" points="613.295,277.931 617.67,313.932 644.961,325.682 "/>
<polygon fill="#764529" points="595.295,313.932 617.67,313.932 613.295,277.931 "/>
<polygon fill="#B96C40" points="499.798,366.93 494.378,358.71 494.378,346.76 "/>
<polygon fill="#1D140D" points="661.629,278.264 684.045,330.681 663.295,318.597 "/>
<polygon fill="#A06040" points="546.627,304.265 595.295,313.932 537.295,325.682 "/>
<polygon fill="#B26A40" points="522.798,390.68 509.348,405.27 494.378,421.5 494.378,400.59 499.798,366.93 "/>
<polygon fill="#2E1D12" points="499.798,197.93 494.378,198.5 494.378,196.52 "/>
<polygon fill="#5B3619" points="499.798,197.93 494.378,199.99 494.378,198.5 "/>
<polygon fill="#96582E" points="499.798,197.93 494.378,207.79 494.378,199.99 "/>
<polygon fill="#4E2817" points="537.295,325.682 595.295,313.932 586.545,333.474 "/>
<polygon fill="#4D2714" points="595.295,313.932 617.67,313.932 606.482,326.431 "/>
<polygon fill="#522C16" points="595.295,313.932 586.545,333.474 606.482,326.431 "/>
<polygon fill="#4E2917" points="606.482,326.431 627.795,329.264 617.67,313.932 "/>
<polygon fill="#502913" points="617.67,313.932 644.961,325.682 627.795,329.264 "/>
<polygon fill="#8C5431" points="522.795,390.681 542.045,382.806 535.295,401.931 "/>
<polygon fill="#9F6847" points="542.045,382.806 551.5,375.431 535.295,401.931 "/>
<polygon fill="#945631" points="631.42,388.431 637.045,436.181 641.545,380.431 "/>
<polygon fill="#91502E" points="641.545,380.431 637.045,436.181 680.963,429.431 "/>
<polygon fill="#945837" points="637.045,436.181 661.629,468.931 680.963,429.431 "/>
<polygon fill="#563228" points="680.963,429.431 689.045,451.681 678.045,472.431 "/>
<polygon fill="#905A3D" points="680.963,429.431 678.045,472.431 661.629,468.931 "/>
<polygon fill="#3D1F13" points="680.963,390.432 691.795,404.764 680.963,429.431 "/>
<polygon fill="#DB8C5F" points="499.798,366.93 494.378,369.14 494.378,358.71 "/>
<polygon fill="#DA9161" points="499.798,366.93 494.378,400.59 494.378,369.14 "/>
<polygon fill="#D17B4C" points="514.798,477.43 494.378,469.26 494.378,434.51 504.368,455.51 "/>
<polygon fill="#BF704B" points="509.348,405.27 504.368,455.51 494.378,434.51 494.378,421.5 "/>
<polygon fill="#88492E" points="514.795,477.431 542.045,457.431 504.369,455.515 "/>
<polygon fill="#8A4C2D" points="509.346,405.268 522.795,390.681 535.295,401.931 "/>
<polygon fill="#88492E" points="509.346,405.268 535.295,401.931 522.32,424.431 "/>
<polygon fill="#8E4D34" points="509.346,405.268 504.369,455.515 522.32,424.431 "/>
<polygon fill="#82432A" points="504.369,455.515 522.32,424.431 542.045,457.431 "/>
<polygon fill="#83452B" points="522.32,424.431 535.295,401.931 542.045,457.431 "/>
<polygon fill="#DB885D" points="514.798,477.43 504.368,487.45 494.378,497.05 494.378,469.26 "/>
<polygon fill="#CC7C56" points="509.348,507.81 494.378,503.42 494.378,497.05 504.368,487.45 "/>
<polygon fill="#AF6848" points="504.369,487.447 514.795,477.431 531.17,492.556 "/>
<polygon fill="#884528" points="514.795,477.431 542.045,457.431 545.92,482.056 "/>
<polygon fill="#A76141" points="514.795,477.431 545.92,482.056 531.17,492.556 "/>
<polygon fill="#904B35" points="504.369,487.447 531.17,492.556 509.346,507.806 "/>
<polygon fill="#956040" points="535.295,401.931 543.396,395.431 554.545,403.056 "/>
<polygon fill="#A76C50" points="543.396,395.431 574.295,395.431 554.545,403.056 "/>
<polygon fill="#9A5B34" points="554.545,403.056 542.045,457.431 535.295,401.931 "/>
<polygon fill="#BA6B42" points="554.545,403.056 567.045,467.431 544.92,444.925 "/>
<polygon fill="#AB6F4C" points="574.295,395.431 595.795,392.368 591.795,404.098 "/>
<polygon fill="#895238" points="595.795,392.368 614.129,381.931 607.461,401.931 "/>
<polygon fill="#78452A" points="614.129,381.931 631.42,388.431 619.045,403.056 "/>
<polygon fill="#81482A" points="614.129,381.931 607.461,401.931 619.045,403.056 "/>
<polygon fill="#A6633E" points="631.42,388.431 637.045,436.181 619.045,403.056 "/>
<polygon fill="#C1744A" points="619.045,403.056 597.293,422.098 637.045,436.181 "/>
<polygon fill="#B2724F" points="554.545,403.056 574.295,395.431 591.795,404.098 "/>
<polygon fill="#9B5E3A" points="595.795,392.368 607.461,401.931 591.795,404.098 "/>
<polygon fill="#A96140" points="554.545,403.056 591.795,404.098 585.045,415.598 "/>
<polygon fill="#B46841" points="554.545,403.056 567.045,467.431 585.045,415.598 "/>
<polygon fill="#B36A44" points="591.795,404.098 597.293,422.098 585.045,415.598 "/>
<polygon fill="#A15C36" points="607.461,401.931 597.293,422.098 591.795,404.098 "/>
<polygon fill="#9D5C36" points="607.461,401.931 619.045,403.056 597.293,422.098 "/>
<polygon fill="#C3754C" points="509.348,507.81 494.378,527.45 494.378,503.42 "/>
<polygon fill="#7F3C2C" points="509.346,507.806 533.295,516.056 531.17,492.556 "/>
<polygon fill="#9B5838" points="509.346,507.806 532.182,531.431 533.295,516.056 "/>
<polygon fill="#C46F4D" points="513.348,530.18 494.378,530.18 494.378,527.45 509.348,507.81 "/>
<polygon fill="#B16446" points="509.346,507.806 532.182,531.431 513.344,530.181 "/>
<polygon fill="#C8754D" points="585.045,415.598 567.045,467.431 597.293,422.098 "/>
<polygon fill="#C77349" points="597.293,422.098 637.045,436.181 567.045,467.431 "/>
<polygon fill="#A15935" points="637.045,436.181 619.045,467.431 661.629,468.931 "/>
<polygon fill="#7C3F29" points="567.045,467.431 542.045,457.431 544.92,444.925 "/>
<polygon fill="#914A2C" points="542.045,457.431 545.92,482.056 554.545,490.556 "/>
<polygon fill="#AB6244" points="545.92,482.056 531.17,492.556 544.42,497.626 "/>
<polygon fill="#A55E46" points="545.92,482.056 544.42,497.626 554.545,490.556 "/>
<polygon fill="#753620" points="542.045,457.431 567.045,467.431 554.545,490.556 "/>
<polygon fill="#C6734E" points="567.045,467.431 619.045,467.431 637.045,436.181 "/>
<polygon fill="#8D5837" points="678.045,472.431 672.127,521.431 661.629,468.931 "/>
<polygon fill="#D37D59" points="619.045,467.431 599.629,519.618 567.045,467.431 "/>
<polygon fill="#935232" points="532.182,531.431 563.545,536.431 533.295,516.056 "/>
<polygon fill="#9E623D" points="672.127,521.431 648.545,576.931 633.045,516.056 "/>
<polygon fill="#A8603F" points="661.629,468.931 619.045,467.431 633.045,516.056 "/>
<polygon fill="#9A5E3D" points="633.045,516.056 672.127,521.431 661.629,468.931 "/>
<polygon fill="#BC714C" points="619.045,467.431 599.629,519.618 633.045,516.056 "/>
<polygon fill="#9A603C" points="648.545,576.931 624.545,608.931 633.045,516.056 "/>
<polygon fill="#8F5736" points="624.545,608.931 577.295,651.931 584.045,600.431 "/>
<polygon fill="#945C39" points="584.045,600.431 607.795,548.431 624.545,608.931 "/>
<polygon fill="#9E5B38" points="599.629,519.618 633.045,516.056 607.795,548.431 "/>
<polygon fill="#9A5B37" points="607.795,548.431 633.045,516.056 624.545,608.931 "/>
<polygon fill="#7B3828" points="531.17,492.556 544.42,497.626 533.295,516.056 "/>
<polygon fill="#84452A" points="554.545,490.556 567.045,467.431 599.629,519.618 "/>
<polygon fill="#7D3C29" points="554.545,490.556 544.42,497.626 569.795,521.431 "/>
<polygon fill="#7D3D27" points="544.42,497.626 533.295,516.056 569.795,521.431 "/>
<polygon fill="#7F4129" points="554.545,490.556 599.629,519.618 569.795,521.431 "/>
<polygon fill="#87472D" points="533.295,516.056 569.795,521.431 563.545,536.431 "/>
<polygon fill="#844930" points="569.795,521.431 592.295,530.181 599.629,519.618 "/>
<polygon fill="#925536" points="599.629,519.618 592.295,530.181 607.795,548.431 "/>
<polygon fill="#BF684B" points="506.628,548.43 494.378,547.28 494.378,532.83 "/>
<polygon fill="#AC5741" points="513.348,530.18 506.628,548.43 494.378,532.83 494.378,530.18 "/>
<polygon fill="#A25540" points="506.629,548.431 544.92,543.181 513.344,530.181 "/>
<polygon fill="#964F34" points="544.92,543.181 513.344,530.181 532.182,531.431 "/>
<polygon fill="#86452A" points="544.92,543.181 563.545,536.431 532.182,531.431 "/>
<polygon fill="#81472F" points="563.545,536.431 569.795,521.431 592.295,530.181 "/>
<polygon fill="#82482E" points="544.92,543.181 580.42,545.681 563.545,536.431 "/>
<polygon fill="#7F4730" points="563.545,536.431 592.295,530.181 580.42,545.681 "/>
<polygon fill="#774025" points="580.42,545.681 592.295,530.181 595.852,574.581 "/>
<polygon fill="#965834" points="592.295,530.181 607.795,548.431 595.852,574.581 "/>
<polygon fill="#824A31" points="580.42,545.681 557.107,580.056 595.852,574.581 "/>
<polygon fill="#8B5030" points="557.107,580.056 584.045,600.431 595.852,574.581 "/>
<polygon fill="#894E2D" points="557.107,580.056 538.127,638.598 584.045,600.431 "/>
<polygon fill="#935738" points="538.127,638.598 577.295,651.931 584.045,600.431 "/>
<polygon fill="#A35D41" points="538.127,638.598 519.461,607.932 557.107,580.056 "/>
<polygon fill="#D28B63" points="506.628,548.43 498.338,560.32 498.168,560.56 494.378,556.16 494.378,547.28 "/>
<polygon fill="#894829" points="506.629,548.431 526.795,554.806 531.17,545.065 "/>
<polygon fill="#834225" points="531.17,545.065 542.545,553.524 544.92,543.181 "/>
<polygon fill="#98664A" points="544.92,543.181 564.162,544.536 570.332,560.556 "/>
<polygon fill="#371313" points="564.162,544.536 580.42,545.681 570.332,560.556 "/>
<polygon fill="#9D6B4A" points="544.92,543.181 542.545,553.524 551.545,567.681 "/>
<polygon fill="#9C6F4C" points="551.545,567.681 544.92,543.181 570.332,560.556 "/>
<polygon fill="#9F603F" points="538.127,638.598 524.795,680.597 577.295,651.931 "/>
<polygon fill="#BC6947" points="519.458,607.93 506.298,628.43 494.378,620.48 494.378,606.46 "/>
<polygon fill="#B76945" points="519.461,607.932 538.127,638.598 506.295,628.43 "/>
<polygon fill="#C7724E" points="538.128,638.6 494.378,671.48 494.378,655.45 506.298,628.43 "/>
<polygon fill="#AD6743" points="538.128,638.6 524.798,680.6 494.378,679.73 494.378,671.48 "/>
<polygon fill="#EA856C" points="519.458,607.93 494.378,606.46 494.378,583.61 "/>
<polygon fill="#E07D66" points="523.298,581.76 519.458,607.93 494.378,583.61 494.378,577.4 499.318,578.15 499.328,578.15 "/>
<polygon fill="#B4654D" points="523.295,581.764 551.545,567.681 519.461,607.932 "/>
<polygon fill="#763925" points="551.545,567.681 557.107,580.056 570.332,560.556 "/>
<polygon fill="#8E4934" points="551.545,567.681 519.461,607.932 557.107,580.056 "/>
<polygon fill="#E18B67" points="506.298,628.43 494.378,655.45 494.378,620.48 "/>
<polygon fill="#FEF9D4" points="498.168,560.56 494.378,565.79 494.378,556.16 "/>
<polygon fill="#FDD9AB" points="498.17,560.556 506.629,548.431 499.32,578.151 "/>
<polygon fill="#F4CB9B" points="499.318,578.15 494.378,577.4 494.378,565.79 498.168,560.56 498.758,569.63 498.758,569.66 "/>
<polygon fill="#E4BC8A" points="506.629,548.431 526.795,554.806 523.295,581.764 "/>
<polygon fill="#EFC899" points="506.629,548.431 499.32,578.151 519.145,573.464 "/>
<polygon fill="#993D20" points="499.32,578.151 519.145,573.464 523.295,581.764 "/>
<polygon fill="#A8754F" points="526.795,554.806 531.17,545.065 542.545,553.524 "/>
<polygon fill="#B0845A" points="526.795,554.806 551.545,567.681 542.545,553.524 "/>
<polygon fill="#A67751" points="523.295,581.764 526.795,554.806 551.545,567.681 "/>
<polygon fill="#5A351E" points="663.295,318.597 676.295,357.599 655.295,341.266 "/>
<polygon fill="#62381D" points="613.295,277.931 663.295,318.597 655.295,341.266 "/>
<polygon fill="#C77F4D" points="517.798,294.93 517.798,338.1 494.378,297.21 494.378,274.89 "/>
<polygon fill="#CC8254" points="517.798,338.1 499.798,366.93 494.378,346.76 494.378,297.21 "/>
<polygon fill="#C6784F" points="517.795,338.098 517.795,294.931 546.627,304.265 "/>
<polygon fill="#1E130C" points="663.295,318.597 684.045,330.681 676.295,357.599 "/>
<polygon fill="#A5603D" points="517.795,338.098 537.295,325.682 546.627,304.265 "/>
<polygon fill="#AD663E" points="499.795,366.931 535.295,368.181 517.795,338.098 "/>
<polygon fill="#AA6642" points="517.795,338.098 557.795,341.266 535.295,368.181 "/>
<polygon fill="#9D5C36" points="499.795,366.931 522.795,390.681 535.295,368.181 "/>
<polygon fill="#714526" points="676.295,357.599 660.295,371.431 655.295,341.266 "/>
<polygon fill="#8A4C30" points="537.295,325.682 557.795,341.266 517.795,338.098 "/>
<polygon fill="#6D3D26" points="557.795,341.266 586.545,333.474 537.295,325.682 "/>
<polygon fill="#633C22" points="627.795,329.264 655.295,341.266 644.961,325.682 "/>
<polygon fill="#683C21" points="655.295,341.266 660.295,371.431 627.795,329.264 "/>
<polygon fill="#6C3E21" points="676.295,357.599 680.963,390.432 660.295,371.431 "/>
<polygon fill="#9E623B" points="557.795,341.266 586.545,333.474 602.461,356.348 "/>
<polygon fill="#AE7040" points="557.795,341.266 535.295,368.181 575.672,347.302 "/>
<polygon fill="#A46541" points="535.295,368.181 548.961,371.431 522.795,390.681 "/>
<polygon fill="#C28657" points="535.295,368.181 548.961,371.431 575.672,347.302 "/>
<polygon fill="#8B5936" points="586.545,333.474 606.482,326.431 602.461,356.348 "/>
<polygon fill="#77462E" points="606.482,326.431 627.795,329.264 629.127,357.599 "/>
<polygon fill="#84522F" points="627.795,329.264 629.127,357.599 660.295,371.431 "/>
<polygon fill="#844C2D" points="606.482,326.431 602.461,356.348 629.127,357.599 "/>
<polygon fill="#7A4A31" points="680.963,390.432 680.963,429.431 660.295,371.431 "/>
<polygon fill="#AA6C46" points="575.672,347.302 602.461,356.348 579.689,360.939 "/>
<polygon fill="#BD7D4F" points="575.672,347.302 579.689,360.939 567.045,363.306 "/>
<polygon fill="#824A2F" points="602.461,356.348 619.045,370.431 629.127,357.599 "/>
<polygon fill="#7A4722" points="629.127,357.599 660.295,371.431 619.045,370.431 "/>
<polygon fill="#7E4926" points="619.045,370.431 641.545,380.431 660.295,371.431 "/>
<polygon fill="#814C2D" points="641.545,380.431 680.963,429.431 660.295,371.431 "/>
<polygon fill="#BE8250" points="575.672,347.302 548.961,371.431 567.045,363.306 "/>
<polygon fill="#8C5335" points="602.461,356.348 619.045,370.431 601.795,363.306 "/>
<polygon fill="#985E3F" points="579.689,360.939 601.795,363.306 602.461,356.348 "/>
<polygon fill="#B5784C" points="548.961,371.431 567.045,363.306 542.045,382.806 "/>
<polygon fill="#9C613F" points="522.795,390.681 548.961,371.431 542.045,382.806 "/>
<polygon fill="#623215" points="641.545,380.431 619.045,370.431 631.42,388.431 "/>
<polygon fill="#431D12" points="614.129,381.931 619.045,370.431 631.42,388.431 "/>
<polygon fill="#1F130C" points="598.795,194.181 643.295,225.597 635.045,248.181 "/>
<path opacity="0.7" fill="#FFFFFF" enable-background="new    " d="M498.958,565.56c-0.03,1.562-0.1,2.91-0.2,4.07v0.03
	c-0.77,9.41-3.51,6.6-3.51,6.6s-0.26,0.09-0.87,0.142v-23.23c1.69,1.84,3.16,4.2,3.96,7.15
	C498.77,561.89,498.998,563.63,498.958,565.56z"/>
<path opacity="0.7" fill="#FFFFFF" enable-background="new    " d="M500.451,574.581c0,0-1.269-14.525,2.297-19.4
	c3.564-4.875,8.779-12,14.307-8c5.528,4,7.082,13.25,6.963,18.25c-0.118,5-3.923,11.322-13.146,11.225
	C501.649,576.557,500.451,574.581,500.451,574.581z"/>
<path opacity="0.7" fill="#FFFFFF" enable-background="new    " d="M525.766,552.381c0,0,6.39-16.075,13.179-1.575
	s1.774,16.625-3.904,20.125s-10.889,1.597-11.803,0.625C522.323,570.585,525.766,552.381,525.766,552.381z"/>
<path opacity="0.7" fill="#FFFFFF" enable-background="new    " d="M553.793,543.701c0,0,8.318,4.323,2.326,17.374
	s-20.278,0.956-14.805-1.146C541.314,559.931,534.874,552.404,553.793,543.701z"/>
<path opacity="0.7" fill="#FFFFFF" enable-background="new    " d="M564.135,544.746c0,0-6.2,2.918-5.7,7.635
	s-0.16,7.552,2.835,6.468c2.998-1.084,6.33-6.468,6.33-6.468S569.67,544.561,564.135,544.746z"/>
<path fill="#221915" d="M781.12,659.17c-0.96,4.99-1.89,9.89-2.8,14.68h-0.012c0,0-0.01,0.03-0.02,0.092
	c-0.03,0.148-0.061,0.31-0.09,0.46c-2.25,10.72-37.4,174.688-73.102,105.06v-0.01c-1.858-3.69-3.818-7.562-5.89-11.61
	c-7.56-14.76-16.56-32.03-27.28-52.76c-0.06-0.13-0.13-0.26-0.199-0.39c-16.631-32.12-19.239-61.342-15.671-88.04
	c0-0.012,0-0.012,0-0.021s0-0.01,0-0.02c0-0.012,0-0.012,0-0.021s0-0.01,0-0.02c8.562-64.302,52.771-114.24,23.12-156.271
	c0,0,0-0.01-0.01-0.01c-0.28-0.42-0.58-0.82-0.89-1.24c0,0,0-0.01-0.012-0.01c-1.898-2.55-4.06-5.07-6.539-7.561
	c-1.449-1.461-2.881-2.931-4.279-4.431c-6.75-7.12-13.12-14.67-19.182-22.6c-3.409-4.46-6.729-9.04-9.97-13.73
	c0-0.01-0.01-0.01-0.01-0.02c-1.25-1.812-2.49-3.65-3.71-5.49c0,0,0-0.01-0.011-0.01c-1.221-1.83-2.431-3.67-3.63-5.54
	c-0.029-0.05-0.069-0.11-0.101-0.17c-0.021-0.03-0.04-0.07-0.061-0.102c-0.011-0.01-0.021-0.01-0.021-0.02
	c-0.01-0.011-0.021-0.03-0.021-0.04c-0.061-0.09-0.119-0.17-0.159-0.26c-0.03-0.03-0.051-0.07-0.07-0.102
	c-0.04-0.06-0.08-0.12-0.109-0.188c-0.011-0.012-0.021-0.03-0.029-0.04c-0.01-0.011-0.021-0.03-0.03-0.04
	c-0.009-0.011-0.021-0.021-0.03-0.03c0-0.01-0.01-0.01-0.01-0.021v-0.011c-0.01-0.01-0.01-0.01-0.021-0.02v-0.011
	c-2.279-3.569-4.529-7.189-6.729-10.869v-0.011c-3.069-5.13-6.09-10.34-9.04-15.66c-0.09-0.15-0.17-0.3-0.25-0.45
	c-3.09-5.55-6.109-11.18-9.09-16.91v-0.01c-0.99-1.9-1.979-3.82-2.96-5.74c-0.4-0.77-0.79-1.55-1.181-2.32
	c-0.16-0.31-0.319-0.62-0.471-0.93c-1.27-2.49-2.52-4.99-3.779-7.52v-0.01c-0.011-0.01-0.011-0.01-0.011-0.02
	c-2.56-5.15-5.09-10.35-7.619-15.61c-0.381-0.79-0.75-1.57-1.131-2.36l-0.01-0.01c-2.13-4.47-4.26-8.95-6.391-13.48
	c-0.939-2.01-1.89-4.03-2.84-6.05c-2.5-5.34-5-10.71-7.521-16.11c-1.3-2.8-2.609-5.61-3.92-8.43
	c-8.561-18.34-17.32-36.93-26.681-55.48v-0.01c-0.449-0.89-0.899-1.78-1.351-2.67c-2.21-4.33-4.439-8.66-6.71-12.98
	c-2.39-4.54-4.79-8.9-7.199-13.09c-1.46-2.55-2.931-5.03-4.399-7.45c-1.511-2.48-3.011-4.89-4.521-7.24
	c-7.45-11.65-14.891-21.74-22.101-30.45V86.75c52.659-7.1,128.43,1.5,188.869,83.6C683.25,170.35,832.93,388.49,781.12,659.17z"/>
<path fill="#2F2119" d="M741.288,698.91c-15.78,39.37-30.28,60.39-42.08,68.93c-7.56-14.76-16.56-32.03-27.28-52.76
	c3.36-12.76,9.521-25.8,18.98-36.99c60.01-71.05,116.58-188.88,35.97-249.26c-21.229-15.91-36.17-33.81-48-53.08v-0.01
	c-2.76-4.48-5.34-9.02-7.79-13.64c-2.439-4.6-4.76-9.26-6.979-13.98c-2.17-4.6-4.262-9.26-6.301-13.96
	c-4.301-9.9-8.391-20.02-12.619-30.29c-5.842-14.2-11.94-28.69-19.2-43.3c-6.9-13.9-14.852-27.91-24.63-41.88
	c-1.102-1.57-2.222-3.14-3.37-4.71c-0.24-0.34-0.49-0.68-0.74-1.02c-0.479-0.64-0.96-1.28-1.439-1.92
	c-3.979-5.31-8.25-10.62-12.851-15.9c-0.93-1.07-1.86-2.12-2.78-3.16c-6.46-7.24-12.949-13.87-19.409-19.96
	c-12.659-11.93-25.221-21.74-37.271-29.82c-8.021-5.38-15.8-9.99-23.229-13.94c-1.989-1.06-3.949-2.07-5.891-3.03v-17.16
	c19.19,4.62,41.99,13,67.311,27.69h0.011c3.46,2.01,6.96,4.14,10.51,6.39c2.94,1.86,5.91,3.81,8.91,5.85h0.01
	c12.811,8.71,26.15,19.04,39.9,31.29c7.52,6.71,15.17,13.99,22.92,21.89c2.54,2.59,5.1,5.25,7.659,7.98
	c8.671,9.229,17.461,19.24,26.341,30.1C811.798,402.95,800.288,551.67,741.288,698.91z"/>
<polygon fill="#160E08" points="507.298,144.93 494.378,153.12 494.378,114.3 500.27,128.26 "/>
<path fill="#23170E" d="M535.295,401.931L535.295,401.931z"/>
<path fill="#914A27" d="M543.396,395.431h30.897l21.5-3.062l18.334-10.438c-25.039,12.75-73.062,10.562-73.062,10.562l-5.771,9.438
	L543.396,395.431z"/>
<polygon fill="#623215" points="551.5,375.432 541.066,392.493 535.295,401.931 543.396,395.431 "/>
<polygon fill="#935738" points="524.798,680.6 494.378,682.167 494.378,679.73 "/>
<g opacity="0.4">
	
		<image overflow="visible" enable-background="new    " width="1225" height="1708" xlink:href="42064CD45274D4CF.png"  transform="matrix(0.2395 0 0 0.2395 458.3223 106.1309)">
	</image>
</g>
</svg>
