<?xml version="1.0" encoding="utf-8"?>
<!-- Generator: Adobe Illustrator 16.0.0, SVG Export Plug-In . SVG Version: 6.00 Build 0)  -->
<!DOCTYPE svg PUBLIC "-//W3C//DTD SVG 1.1//EN" "http://www.w3.org/Graphics/SVG/1.1/DTD/svg11.dtd">
<svg version="1.1" id="Layer_1" xmlns="http://www.w3.org/2000/svg" xmlns:xlink="http://www.w3.org/1999/xlink" x="0px" y="0px"
	 width="800px" height="800px" viewBox="0 0 800 800" enable-background="new 0 0 800 800" xml:space="preserve">
<polygon fill="#FFFFFF" points="1989.374,399.5 1995.208,389.667 2006.782,380 2034.541,380.979 2060.857,399.5 2037.874,411 
	2013.041,412.875 "/>
<ellipse fill="#485F4D" cx="2021.824" cy="396.484" rx="16" ry="15.505"/>
<polygon fill="#0A0C0E" points="1923.991,77 1998.991,89 1994.491,114 "/>
<polygon fill="#0B0E10" points="1994.491,114 2071.991,127.5 1998.991,89 "/>
<polygon fill="#090B0D" points="1923.991,77 1994.491,114 1947.491,114 "/>
<polygon fill="#111212" points="1947.491,114 1934.991,154 1994.491,159.5 "/>
<polygon fill="#43342D" points="1934.991,154 1919.991,174 1974.491,184 "/>
<polygon fill="#5B3C2E" points="1919.991,174 1928.991,201.5 1974.491,184 "/>
<polygon fill="#0E1012" points="2071.991,127.5 2111.991,177.5 2086.991,208.5 "/>
<polygon fill="#604B3B" points="2086.991,208.5 2027.991,187.75 2060.991,224 "/>
<polygon fill="#2A201B" points="1974.491,184 2027.991,187.75 1994.491,159.5 "/>
<polygon fill="#1D1512" points="1934.991,154 1974.491,184 1994.491,159.5 "/>
<polygon fill="#0D0F0F" points="1947.491,114 1994.491,114 1994.491,159.5 "/>
<polygon fill="#0A0C0F" points="1994.491,114 2071.991,127.5 2027.991,187.75 "/>
<polygon fill="#181818" points="1994.491,114 1994.491,159.5 2027.991,187.75 "/>
<polygon fill="#1F1F1F" points="2071.991,127.5 2086.991,208.5 2027.991,187.75 "/>
<polygon fill="#1D1D1D" points="2111.991,177.5 2136.491,250.75 2086.991,208.5 "/>
<polygon fill="#A47C60" points="1928.991,201.5 1981.991,226.5 1974.491,184 "/>
<polygon fill="#C19276" points="1981.991,226.5 1928.991,201.5 1919.991,260 "/>
<polygon fill="#9B7156" points="1974.491,184 1981.991,226.5 2027.991,187.75 "/>
<polygon fill="#996C55" points="2027.991,187.75 2060.991,224 1981.991,226.5 "/>
<polygon fill="#5A4B45" points="2086.991,208.5 2136.491,250.75 2093.991,235 "/>
<polygon fill="#3A3835" points="2136.491,250.75 2139.741,318 2114.491,272 "/>
<polygon fill="#917253" points="2060.991,224 2086.991,208.5 2093.991,235 "/>
<polygon fill="#C8946F" points="1981.991,226.5 2060.991,224 2023.241,280.25 "/>
<polygon fill="#C79979" points="1919.991,260 2023.241,280.25 1981.991,226.5 "/>
<polygon fill="#D49E80" points="1919.991,260 1924.241,319.5 2023.241,280.25 "/>
<polygon fill="#D7A286" points="1924.241,319.5 1946.491,348.25 2023.241,280.25 "/>
<polygon fill="#F8CD9A" points="1946.491,348.25 1943.241,422.25 1971.616,366 "/>
<polygon fill="#BBA88D" points="2139.741,318 2117.491,387.333 2110.158,338 "/>
<polygon fill="#A5967F" points="2114.491,272 2110.158,338 2139.741,318 "/>
<polygon fill="#302E29" points="2114.491,272 2093.991,235 2136.491,250.75 "/>
<polygon fill="#D6B18E" points="2060.991,224 2093.991,235 2114.491,272 "/>
<polygon fill="#DCAA7E" points="2060.991,224 2023.241,280.25 2073.825,319.5 "/>
<polygon fill="#DAA585" points="2023.241,280.25 1995.826,324.834 1946.491,348.25 "/>
<polygon fill="#65483C" points="1995.826,324.834 1971.616,366 2001.992,352.001 "/>
<polygon fill="#B5896F" points="1946.491,348.25 1995.826,324.834 1971.616,366 "/>
<polygon fill="#E7C19A" points="2060.991,224 2073.825,319.5 2093.732,253.375 "/>
<polygon fill="#BCA586" points="2093.732,253.375 2114.491,272 2110.158,338 "/>
<polygon fill="#FEE9CB" points="2073.825,319.5 2093.732,253.375 2110.158,338 "/>
<polygon fill="#FCE7BD" points="1943.241,422.25 1933.824,461 1951.491,495.333 "/>
<polygon fill="#DFB08C" points="1995.826,324.834 2023.241,280.25 2029.158,319.5 "/>
<polygon fill="#F0BE91" points="2023.241,280.25 2073.825,319.5 2029.158,319.5 "/>
<polygon fill="#432F25" points="1995.826,324.834 2025.491,352.667 2001.992,352.001 "/>
<polygon fill="#97735B" points="1995.826,324.834 2005.706,334.104 2035.158,334.104 "/>
<polygon fill="#CA9E7F" points="2029.158,319.5 1995.826,324.834 2035.158,334.104 "/>
<polygon fill="#FCDAB3" points="2073.825,319.5 2072.158,342.667 2029.158,319.5 "/>
<polygon fill="#9B785D" points="2029.158,319.5 2072.158,342.667 2035.158,334.104 "/>
<polygon fill="#422E2A" points="2005.706,334.104 2035.158,334.104 2025.491,352.667 "/>
<polygon fill="#A18066" points="2035.158,334.104 2072.158,342.667 2070.991,364.333 "/>
<polygon fill="#4F3A30" points="2025.491,352.667 2070.991,364.333 2035.158,334.104 "/>
<polygon fill="#FDDFB7" points="2073.825,319.5 2110.158,338 2091.991,358.833 "/>
<path fill="none" stroke="#FFFFFF" stroke-miterlimit="10" d="M2088.491,362.5"/>
<polygon fill="#F8E2C1" points="2073.825,319.5 2072.158,342.667 2091.991,358.833 "/>
<polygon fill="#C7AB90" points="2072.158,342.667 2070.991,364.333 2091.991,358.833 "/>
<polygon fill="#A38068" points="1971.616,366 1971.616,394 1989.991,373.5 "/>
<polygon fill="#F6C48F" points="1971.616,366 1943.241,422.25 1962.741,420.5 "/>
<polygon fill="#B18A6F" points="1971.616,366 1971.616,394 1962.741,420.5 "/>
<polygon fill="#8E6954" points="1971.616,366 2001.992,352.001 1989.991,373.5 "/>
<polygon fill="#5C392B" points="2001.992,352.001 2025.491,352.667 1989.991,373.5 "/>
<polygon fill="#805845" points="2025.491,352.667 2070.991,364.333 2058.991,373.5 "/>
<polygon fill="#FFEAC7" points="2091.991,358.833 2108.991,420.5 2110.158,338 "/>
<polygon fill="#B49475" points="2110.158,338 2108.991,420.5 2117.491,387.333 "/>
<polygon fill="#AFA48F" points="2139.741,318 2139.741,374.75 2117.491,387.333 "/>
<polygon fill="#EBCCA8" points="2108.991,420.5 2117.491,387.333 2139.741,374.75 "/>
<polygon fill="#FFEDD3" points="2139.741,374.75 2148.991,380 2139.741,385.25 "/>
<polygon fill="#FCD5B7" points="2139.741,374.75 2108.991,420.5 2139.741,385.25 "/>
<polygon fill="#F7B08F" points="2148.991,380 2147.241,409.75 2129.991,451.25 "/>
<polygon fill="#E77F52" points="2148.991,380 2139.741,385.25 2129.991,451.25 "/>
<polygon fill="#FCFAE4" points="2139.741,385.25 2108.991,420.5 2125.991,426.25 "/>
<polygon fill="#CB7149" points="2139.741,385.25 2129.991,451.25 2125.991,426.25 "/>
<polygon fill="#F7B6A0" points="2129.991,451.25 2128.616,475 2113.241,486.75 "/>
<polygon fill="#FEE7CE" points="2108.991,420.5 2110.158,454.5 2101.075,486.75 "/>
<polygon fill="#DF9672" points="2108.991,420.5 2125.991,426.25 2110.158,454.5 "/>
<polygon fill="#F1AE8B" points="2125.991,426.25 2129.991,451.25 2110.158,454.5 "/>
<polygon fill="#FBCFAF" points="2110.158,454.5 2129.991,451.25 2113.241,486.75 "/>
<polygon fill="#FCFAE2" points="2101.075,486.75 2110.158,454.5 2113.241,486.75 "/>
<polygon fill="#FDFAE2" points="2101.075,486.75 2102.824,526.167 2115.824,514.5 "/>
<polygon fill="#FDFAE0" points="2101.075,486.75 2113.241,486.75 2115.824,514.5 "/>
<polygon fill="#FDF5E1" points="2113.241,486.75 2128.616,475 2115.824,514.5 "/>
<polygon fill="#754838" points="2025.491,352.667 2025.491,364.333 1989.991,373.5 "/>
<polygon fill="#64382C" points="2058.991,373.5 2025.491,364.333 2025.491,352.667 "/>
<polygon fill="#AB8D70" points="2091.991,358.833 2070.991,364.333 2093.866,397.625 "/>
<polygon fill="#FDFAE5" points="2091.991,358.833 2108.991,420.5 2093.866,397.625 "/>
<polygon fill="#9F785C" points="2058.991,373.5 2070.991,364.333 2093.866,397.625 "/>
<polygon fill="#F2B69B" points="1951.491,495.333 1933.824,525 1924.241,489 "/>
<polygon fill="#FAD1C1" points="1933.824,461 1924.241,489 1951.491,495.333 "/>
<polygon fill="#CE9477" points="1933.824,525 1942.658,526.167 1951.491,495.333 "/>
<polygon fill="#AF7A5F" points="1942.658,526.167 1973.491,514.5 1960.991,507 "/>
<polygon fill="#E9AE8F" points="1960.991,507 1951.491,495.333 1942.658,526.167 "/>
<polygon fill="#FCFBE9" points="2093.866,397.625 2082.429,431.25 2108.991,420.5 "/>
<polygon fill="#FBFAE7" points="2082.429,431.25 2101.075,486.75 2108.991,420.5 "/>
<polygon fill="#F8C38E" points="1962.741,420.5 1978.491,436.166 1971.616,394 "/>
<polygon fill="#AF846E" points="1978.491,436.166 1999.657,426.25 1971.616,394 "/>
<polygon fill="#CCA08A" points="1978.491,436.166 2036.324,441.834 1999.657,426.25 "/>
<polygon fill="#F7F0C4" points="2082.429,431.25 2075.491,409.834 2093.866,397.625 "/>
<polygon fill="#96644F" points="1971.616,394 1989.991,373.5 1995.158,389.667 "/>
<polygon fill="#986857" points="1989.991,373.5 2025.491,364.333 1995.158,389.667 "/>
<polygon fill="#B1826B" points="2025.491,364.333 2058.991,373.5 2034.491,380.979 "/>
<polygon fill="#A67B67" points="2025.491,364.333 2034.491,380.979 2006.732,380 "/>
<polygon fill="#CC9F76" points="2058.991,373.5 2075.491,409.834 2093.866,397.625 "/>
<polygon fill="#FBCEA6" points="2075.491,409.834 2082.429,431.25 2048.241,426.25 "/>
<polygon fill="#CD9879" points="2048.241,426.25 1999.657,426.25 2036.324,441.834 "/>
<polygon fill="#F7CAA3" points="2036.324,441.834 2048.241,426.25 2082.429,431.25 "/>
<polygon fill="#FEE1AF" points="1943.241,422.25 1962.741,420.5 1967.179,463.5 "/>
<polygon fill="#FCEDC6" points="1943.241,422.25 1967.179,463.5 1951.491,495.333 "/>
<polygon fill="#7F4B3A" points="1971.616,394 1995.158,389.667 1989.324,399.5 "/>
<polygon fill="#925E4A" points="1989.324,399.5 1999.657,426.25 1971.616,394 "/>
<polygon fill="#D5A785" points="2058.991,373.5 2075.491,409.834 2034.491,380.979 "/>
<polygon fill="#EEC298" points="2075.491,409.834 2048.241,426.25 2060.808,399.5 "/>
<polygon fill="#A36D5A" points="1989.324,399.5 2012.991,412.875 1999.657,426.25 "/>
<polygon fill="#875947" points="2012.991,412.875 2037.824,411 2048.241,426.25 "/>
<polygon fill="#A46F5C" points="2012.991,412.875 1999.657,426.25 2048.241,426.25 "/>
<polygon fill="#A5745E" points="2037.824,411 2060.808,399.5 2048.241,426.25 "/>
<polygon fill="#FEE5B2" points="1962.741,420.5 1978.491,436.166 1967.179,463.5 "/>
<polygon fill="#FCD6B3" points="2082.429,431.25 2036.324,441.834 2053.824,478 "/>
<polygon fill="#FDFCEE" points="2082.429,431.25 2101.075,486.75 2066.741,514.5 "/>
<polygon fill="#FBF9DC" points="2082.429,431.25 2053.824,478 2066.741,514.5 "/>
<polygon fill="#FFE7BA" points="1978.491,436.166 1989.991,478 2036.324,441.834 "/>
<polygon fill="#FBD0AD" points="1989.991,478 2053.824,478 2036.324,441.834 "/>
<polygon fill="#FACCAD" points="1989.991,478 2045.991,516.584 2053.824,478 "/>
<polygon fill="#FFEAB7" points="1989.991,478 1967.179,463.5 1978.491,436.166 "/>
<polygon fill="#F8D5B6" points="1967.179,463.5 1951.491,495.333 1980.804,483.25 "/>
<polygon fill="#F0BC92" points="1960.991,507 1983.388,498.75 1951.491,495.333 "/>
<polygon fill="#FBF9DF" points="1980.804,483.25 1983.388,498.75 1951.491,495.333 "/>
<polygon fill="#FDECCD" points="2053.824,478 2066.741,514.5 2045.991,516.584 "/>
<polygon fill="#FCF6D9" points="2101.075,486.75 2102.824,526.167 2066.741,514.5 "/>
<polygon fill="#FBDFAF" points="1967.179,463.5 1989.991,478 1980.804,483.25 "/>
<polygon fill="#E8AE87" points="1980.804,483.25 1989.991,478 2003.991,507 "/>
<polygon fill="#E5A282" points="1973.491,514.5 1960.991,507 1983.388,498.75 "/>
<polygon fill="#E7AA89" points="1980.804,483.25 2003.991,507 1983.388,498.75 "/>
<polygon fill="#DA9E7E" points="1989.991,478 2045.991,516.584 2003.991,507 "/>
<polygon fill="#EACBA8" points="2102.824,526.167 2068.126,536.334 2066.741,514.5 "/>
<polygon fill="#FEE0BC" points="2045.991,516.584 2066.741,514.5 2068.126,536.334 "/>
<polygon fill="#E8AF8F" points="2003.991,507 2045.991,516.584 2045.991,545 "/>
<polygon fill="#F8C6A7" points="1983.388,498.75 2003.991,507 2001.157,537.667 "/>
<polygon fill="#FAC8A6" points="1973.491,514.5 1983.388,498.75 2001.157,537.667 "/>
<polygon fill="#DAA47C" points="1942.658,526.167 1973.491,514.5 2001.157,537.667 "/>
<polygon fill="#96705B" points="1933.824,525 1924.241,568 1938.491,576.333 "/>
<polygon fill="#A07A62" points="1933.824,525 1953.491,568 1938.491,576.333 "/>
<polygon fill="#B58461" points="1953.491,568 1996.825,573.333 2001.157,537.667 "/>
<polygon fill="#8A684E" points="1942.658,526.167 1933.824,525 1953.491,568 "/>
<polygon fill="#92684B" points="1942.658,526.167 1953.491,568 1975.516,532.626 "/>
<polygon fill="#976344" points="2001.157,537.667 1975.516,532.626 1953.491,568 "/>
<polygon fill="#F9D7B1" points="2003.991,507 2045.991,545 2001.157,537.667 "/>
<polygon fill="#C89A70" points="2001.157,537.667 2045.991,545 2024.991,568 "/>
<polygon fill="#CD9B71" points="1996.825,573.333 2024.991,568 2001.157,537.667 "/>
<polygon fill="#F0C4A0" points="2045.991,516.584 2068.126,536.334 2045.991,545 "/>
<polygon fill="#F1DEB7" points="2102.824,526.167 2086.491,598.25 2068.126,536.334 "/>
<polygon fill="#E5C59C" points="2086.491,598.25 2042.991,662.25 2077.905,569.303 "/>
<polygon fill="#EFD2A4" points="2068.126,536.334 2045.991,545 2077.905,569.303 "/>
<polygon fill="#C89E73" points="2024.991,568 2045.991,545 2041.741,602.5 "/>
<polygon fill="#F3CBA8" points="2024.991,568 2001.157,621 2041.741,602.5 "/>
<polygon fill="#F0CEA9" points="2045.991,545 2077.905,569.303 2041.741,602.5 "/>
<polygon fill="#D8B78F" points="2077.905,569.303 2041.741,602.5 2042.991,662.25 "/>
<polygon fill="#D2A981" points="2001.157,621 2041.741,602.5 2042.991,662.25 "/>
<polygon fill="#E3A394" points="1938.491,576.333 1953.491,568 1959.087,584.75 "/>
<polygon fill="#D49083" points="1938.491,576.333 1924.241,568 1915.991,581 "/>
<polygon fill="#CA7B6F" points="1915.991,581 1938.491,587 1938.491,576.333 "/>
<polygon fill="#D6847A" points="1938.491,576.333 1959.087,584.75 1938.491,587 "/>
<polygon fill="#F6CEBD" points="2024.991,568 1981.741,614.75 1996.825,573.333 "/>
<polygon fill="#FEEACE" points="2001.157,621 2024.991,568 1981.741,614.75 "/>
<polygon fill="#E8C4A3" points="2001.157,621 1964.991,656.25 1996.825,678.75 "/>
<polygon fill="#C6A27B" points="2001.157,621 2042.991,662.25 1996.825,678.75 "/>
<polygon fill="#BB9C80" points="1996.825,678.75 1993.991,724 2027.741,693.5 "/>
<polygon fill="#998268" points="2042.991,662.25 2027.741,693.5 1996.825,678.75 "/>
<polygon fill="#86694E" points="1993.991,724 1948.789,736 1956.741,698.25 "/>
<polygon fill="#927558" points="1956.741,698.25 1996.825,678.75 1993.991,724 "/>
<polygon fill="#C79E79" points="1964.991,656.25 1956.741,698.25 1996.825,678.75 "/>
<polygon fill="#EEC2A5" points="1981.741,614.75 2001.157,621 1943.658,635.25 "/>
<polygon fill="#DFA698" points="1959.087,584.75 1996.825,573.333 1953.491,568 "/>
<polygon fill="#F4B7B5" points="1938.491,587 1921.241,623 1915.991,581 "/>
<polygon fill="#F5B0AF" points="1938.491,587 1981.741,614.75 1921.241,623 "/>
<polygon fill="#F7BBC0" points="1938.491,587 1959.087,584.75 1981.741,614.75 "/>
<polygon fill="#FAD4CD" points="1959.087,584.75 1996.825,573.333 1981.741,614.75 "/>
<polygon fill="#C3A28A" points="1921.241,623 1943.658,635.25 1981.741,614.75 "/>
<polygon fill="#81624D" points="1921.241,623 1936.491,693.5 1943.658,635.25 "/>
<polygon fill="#95795F" points="1936.491,693.5 1948.789,736 1956.741,698.25 "/>
<polygon fill="#9E704F" points="1943.658,635.25 1964.991,656.25 1936.491,693.5 "/>
<polygon fill="#AC8767" points="1936.491,693.5 1964.991,656.25 1956.741,698.25 "/>
<polygon fill="#AC8460" points="1943.658,635.25 1964.991,656.25 2001.157,621 "/>
<polygon fill="#C5B4A2" points="1995.158,389.667 1989.324,399.5 2012.991,412.875 "/>
<polygon fill="#CE9986" points="1995.158,389.667 2006.732,380 2034.491,380.979 "/>
<polygon fill="#FFF9E7" points="2034.491,380.979 2060.808,399.5 2037.824,411 "/>
<polygon fill="#FAD5C2" points="2012.991,412.875 1989.324,399.5 2037.824,411 "/>
<polygon fill="#FFFAEC" points="2012.991,412.875 2060.808,399.5 2037.824,411 "/>
<polygon fill="#E5CDB7" points="1989.324,399.5 2006.732,380 1995.158,389.667 "/>
<polygon fill="#CCC3B6" points="2006.732,380 2034.491,380.979 2060.808,399.5 "/>
<polygon fill="#FFFFFF" points="2005.706,408.758 2006.732,380 1989.324,399.5 "/>
<ellipse opacity="0.4" fill="#75987D" cx="2021.824" cy="396.438" rx="13.764" ry="13.338"/>
<ellipse opacity="0.3" fill="#FFFFFF" cx="2026.572" cy="390.593" rx="1.081" ry="1.729"/>
<ellipse opacity="0.3" fill="#FFFFFF" cx="2023.259" cy="389.938" rx="1.081" ry="1.729"/>
<ellipse opacity="0.3" fill="#FFFFFF" cx="2030.527" cy="391.906" rx="1.844" ry="1.729"/>
<circle cx="2021.824" cy="395.989" r="3.667"/>
<g>
	<defs>
		<polygon id="SVGID_1_" points="1925.816,693.188 1938.116,735.688 1530.872,735.688 1526.725,76.688 1913.316,76.688 
			1936.816,113.688 1924.316,153.688 1909.316,173.688 1918.316,201.188 1909.316,259.688 1913.566,319.188 1935.816,347.938 
			1932.566,421.938 1923.156,460.688 1913.566,488.688 1923.156,524.688 1913.566,567.688 1905.316,580.688 1910.566,622.688 		"/>
	</defs>
	<clipPath id="SVGID_2_">
		<use xlink:href="#SVGID_1_"  overflow="visible"/>
	</clipPath>
	<g clip-path="url(#SVGID_2_)">
		
			<rect x="1107.115" y="-92.105" transform="matrix(0.7071 0.7071 -0.7071 0.7071 619.0948 -682.2522)" width="51.968" height="996.586"/>
		
			<rect x="1254.584" y="-92.106" transform="matrix(0.7071 0.7071 -0.7071 0.7071 662.2719 -786.5209)" width="51.969" height="996.586"/>
		
			<rect x="1402.054" y="-92.106" transform="matrix(0.7071 0.7071 -0.7071 0.7071 705.4634 -890.7963)" width="51.969" height="996.586"/>
		
			<rect x="1549.523" y="-92.106" transform="matrix(0.7071 0.7071 -0.7071 0.7071 748.6549 -995.0718)" width="51.969" height="996.586"/>
		
			<rect x="1696.992" y="-92.105" transform="matrix(0.7071 0.7071 -0.7071 0.7071 791.8661 -1099.3588)" width="51.968" height="996.586"/>
		
			<rect x="1844.463" y="-92.106" transform="matrix(0.7071 0.7071 -0.7071 0.7071 835.0591 -1203.636)" width="51.968" height="996.586"/>
		
			<rect x="1991.932" y="-92.106" transform="matrix(0.7071 0.7071 -0.7071 0.7071 878.229 -1307.8975)" width="51.969" height="996.586"/>
		
			<rect x="2139.402" y="-92.105" transform="matrix(0.7071 0.7071 -0.7071 0.7071 921.4447 -1412.1893)" width="51.968" height="996.586"/>
		
			<rect x="2286.871" y="-92.106" transform="matrix(0.7071 0.7071 -0.7071 0.7071 964.6121 -1516.4484)" width="51.969" height="996.586"/>
	</g>
</g>
<polygon fill="#FFFFFF" points="1904.355,261.601 1764.93,401.026 1904.93,541.026 1867.689,540.536 1830.949,540.536 
	1728.18,437.776 1625.42,540.536 1588.68,540.536 1552.273,540.183 1691.43,401.026 1552.18,261.776 1588.68,261.517 
	1625.42,261.517 1728.18,364.276 1830.949,261.517 1867.689,261.517 "/>
<polygon fill="#B2B2B2" points="1765.594,401.026 1765.79,401.224 1727.758,439.256 1727.562,439.059 1621.217,545.402 
	1583.194,545.402 1545.896,545.041 1727.945,362.994 1834.301,256.649 1871.93,256.649 1909.879,256.732 "/>
<polygon fill="#FFFFFF" points="554.315,1348.75 560.149,1338.917 571.724,1329.25 599.482,1330.229 625.799,1348.75 
	602.815,1360.25 577.982,1362.125 "/>
<ellipse fill="#485F4D" cx="586.766" cy="1345.734" rx="16" ry="15.505"/>
<polygon fill="#0A0C0E" points="488.933,1026.25 563.933,1038.25 559.433,1063.25 "/>
<polygon fill="#0B0E10" points="559.433,1063.25 636.933,1076.75 563.933,1038.25 "/>
<polygon fill="#090B0D" points="488.933,1026.25 559.433,1063.25 512.433,1063.25 "/>
<polygon fill="#111212" points="512.433,1063.25 499.933,1103.25 559.433,1108.75 "/>
<polygon fill="#43342D" points="499.933,1103.25 484.933,1123.25 539.433,1133.25 "/>
<polygon fill="#5B3C2E" points="484.933,1123.25 493.933,1150.75 539.433,1133.25 "/>
<polygon fill="#0E1012" points="636.933,1076.75 676.933,1126.75 651.933,1157.75 "/>
<polygon fill="#604B3B" points="651.933,1157.75 592.933,1137 625.933,1173.25 "/>
<polygon fill="#2A201B" points="539.433,1133.25 592.933,1137 559.433,1108.75 "/>
<polygon fill="#1D1512" points="499.933,1103.25 539.433,1133.25 559.433,1108.75 "/>
<polygon fill="#0D0F0F" points="512.433,1063.25 559.433,1063.25 559.433,1108.75 "/>
<polygon fill="#0A0C0F" points="559.433,1063.25 636.933,1076.75 592.933,1137 "/>
<polygon fill="#181818" points="559.433,1063.25 559.433,1108.75 592.933,1137 "/>
<polygon fill="#1F1F1F" points="636.933,1076.75 651.933,1157.75 592.933,1137 "/>
<polygon fill="#1D1D1D" points="676.933,1126.75 701.433,1200 651.933,1157.75 "/>
<polygon fill="#A47C60" points="493.933,1150.75 546.933,1175.75 539.433,1133.25 "/>
<polygon fill="#C19276" points="546.933,1175.75 493.933,1150.75 484.933,1209.25 "/>
<polygon fill="#9B7156" points="539.433,1133.25 546.933,1175.75 592.933,1137 "/>
<polygon fill="#996C55" points="592.933,1137 625.933,1173.25 546.933,1175.75 "/>
<polygon fill="#5A4B45" points="651.933,1157.75 701.433,1200 658.933,1184.25 "/>
<polygon fill="#3A3835" points="701.433,1200 704.683,1267.25 679.433,1221.25 "/>
<polygon fill="#917253" points="625.933,1173.25 651.933,1157.75 658.933,1184.25 "/>
<polygon fill="#C8946F" points="546.933,1175.75 625.933,1173.25 588.183,1229.5 "/>
<polygon fill="#C79979" points="484.933,1209.25 588.183,1229.5 546.933,1175.75 "/>
<polygon fill="#D49E80" points="484.933,1209.25 489.183,1268.75 588.183,1229.5 "/>
<polygon fill="#D7A286" points="489.183,1268.75 511.433,1297.5 588.183,1229.5 "/>
<polygon fill="#F8CD9A" points="511.433,1297.5 508.183,1371.5 536.558,1315.25 "/>
<polygon fill="#BBA88D" points="704.683,1267.25 682.433,1336.584 675.1,1287.25 "/>
<polygon fill="#A5967F" points="679.433,1221.25 675.1,1287.25 704.683,1267.25 "/>
<polygon fill="#302E29" points="679.433,1221.25 658.933,1184.25 701.433,1200 "/>
<polygon fill="#D6B18E" points="625.933,1173.25 658.933,1184.25 679.433,1221.25 "/>
<polygon fill="#DCAA7E" points="625.933,1173.25 588.183,1229.5 638.767,1268.75 "/>
<polygon fill="#DAA585" points="588.183,1229.5 560.768,1274.084 511.433,1297.5 "/>
<polygon fill="#65483C" points="560.768,1274.084 536.558,1315.25 566.934,1301.251 "/>
<polygon fill="#B5896F" points="511.433,1297.5 560.768,1274.084 536.558,1315.25 "/>
<polygon fill="#E7C19A" points="625.933,1173.25 638.767,1268.75 658.674,1202.625 "/>
<polygon fill="#BCA586" points="658.674,1202.625 679.433,1221.25 675.1,1287.25 "/>
<polygon fill="#FEE9CB" points="638.767,1268.75 658.674,1202.625 675.1,1287.25 "/>
<polygon fill="#FCE7BD" points="508.183,1371.5 498.766,1410.25 516.433,1444.583 "/>
<polygon fill="#DFB08C" points="560.768,1274.084 588.183,1229.5 594.1,1268.75 "/>
<polygon fill="#F0BE91" points="588.183,1229.5 638.767,1268.75 594.1,1268.75 "/>
<polygon fill="#432F25" points="560.768,1274.084 590.433,1301.917 566.934,1301.251 "/>
<polygon fill="#97735B" points="560.768,1274.084 570.647,1283.354 600.1,1283.354 "/>
<polygon fill="#CA9E7F" points="594.1,1268.75 560.768,1274.084 600.1,1283.354 "/>
<polygon fill="#FCDAB3" points="638.767,1268.75 637.1,1291.916 594.1,1268.75 "/>
<polygon fill="#9B785D" points="594.1,1268.75 637.1,1291.916 600.1,1283.354 "/>
<polygon fill="#422E2A" points="570.647,1283.354 600.1,1283.354 590.433,1301.917 "/>
<polygon fill="#A18066" points="600.1,1283.354 637.1,1291.916 635.933,1313.583 "/>
<polygon fill="#4F3A30" points="590.433,1301.917 635.933,1313.583 600.1,1283.354 "/>
<polygon fill="#FDDFB7" points="638.767,1268.75 675.1,1287.25 656.933,1308.084 "/>
<path fill="none" stroke="#FFFFFF" stroke-miterlimit="10" d="M653.433,1311.75"/>
<polygon fill="#F8E2C1" points="638.767,1268.75 637.1,1291.916 656.933,1308.084 "/>
<polygon fill="#C7AB90" points="637.1,1291.916 635.933,1313.583 656.933,1308.084 "/>
<polygon fill="#A38068" points="536.558,1315.25 536.558,1343.25 554.933,1322.75 "/>
<polygon fill="#F6C48F" points="536.558,1315.25 508.183,1371.5 527.683,1369.75 "/>
<polygon fill="#B18A6F" points="536.558,1315.25 536.558,1343.25 527.683,1369.75 "/>
<polygon fill="#8E6954" points="536.558,1315.25 566.934,1301.251 554.933,1322.75 "/>
<polygon fill="#5C392B" points="566.934,1301.251 590.433,1301.917 554.933,1322.75 "/>
<polygon fill="#805845" points="590.433,1301.917 635.933,1313.583 623.933,1322.75 "/>
<polygon fill="#FFEAC7" points="656.933,1308.084 673.933,1369.75 675.1,1287.25 "/>
<polygon fill="#B49475" points="675.1,1287.25 673.933,1369.75 682.433,1336.584 "/>
<polygon fill="#AFA48F" points="704.683,1267.25 704.683,1324 682.433,1336.584 "/>
<polygon fill="#EBCCA8" points="673.933,1369.75 682.433,1336.584 704.683,1324 "/>
<polygon fill="#FFEDD3" points="704.683,1324 713.933,1329.25 704.683,1334.5 "/>
<polygon fill="#FCD5B7" points="704.683,1324 673.933,1369.75 704.683,1334.5 "/>
<polygon fill="#F7B08F" points="713.933,1329.25 712.183,1359 694.933,1400.5 "/>
<polygon fill="#E77F52" points="713.933,1329.25 704.683,1334.5 694.933,1400.5 "/>
<polygon fill="#FCFAE4" points="704.683,1334.5 673.933,1369.75 690.933,1375.5 "/>
<polygon fill="#CB7149" points="704.683,1334.5 694.933,1400.5 690.933,1375.5 "/>
<polygon fill="#F7B6A0" points="694.933,1400.5 693.558,1424.25 678.183,1436 "/>
<polygon fill="#FEE7CE" points="673.933,1369.75 675.1,1403.75 666.017,1436 "/>
<polygon fill="#DF9672" points="673.933,1369.75 690.933,1375.5 675.1,1403.75 "/>
<polygon fill="#F1AE8B" points="690.933,1375.5 694.933,1400.5 675.1,1403.75 "/>
<polygon fill="#FBCFAF" points="675.1,1403.75 694.933,1400.5 678.183,1436 "/>
<polygon fill="#FCFAE2" points="666.017,1436 675.1,1403.75 678.183,1436 "/>
<polygon fill="#FDFAE2" points="666.017,1436 667.766,1475.417 680.766,1463.75 "/>
<polygon fill="#FDFAE0" points="666.017,1436 678.183,1436 680.766,1463.75 "/>
<polygon fill="#FDF5E1" points="678.183,1436 693.558,1424.25 680.766,1463.75 "/>
<polygon fill="#754838" points="590.433,1301.917 590.433,1313.583 554.933,1322.75 "/>
<polygon fill="#64382C" points="623.933,1322.75 590.433,1313.583 590.433,1301.917 "/>
<polygon fill="#AB8D70" points="656.933,1308.084 635.933,1313.583 658.808,1346.875 "/>
<polygon fill="#FDFAE5" points="656.933,1308.084 673.933,1369.75 658.808,1346.875 "/>
<polygon fill="#9F785C" points="623.933,1322.75 635.933,1313.583 658.808,1346.875 "/>
<polygon fill="#F2B69B" points="516.433,1444.583 498.766,1474.25 489.183,1438.25 "/>
<polygon fill="#FAD1C1" points="498.766,1410.25 489.183,1438.25 516.433,1444.583 "/>
<polygon fill="#CE9477" points="498.766,1474.25 507.6,1475.417 516.433,1444.583 "/>
<polygon fill="#AF7A5F" points="507.6,1475.417 538.433,1463.75 525.933,1456.25 "/>
<polygon fill="#E9AE8F" points="525.933,1456.25 516.433,1444.583 507.6,1475.417 "/>
<polygon fill="#FCFBE9" points="658.808,1346.875 647.37,1380.5 673.933,1369.75 "/>
<polygon fill="#FBFAE7" points="647.37,1380.5 666.017,1436 673.933,1369.75 "/>
<polygon fill="#F8C38E" points="527.683,1369.75 543.433,1385.416 536.558,1343.25 "/>
<polygon fill="#AF846E" points="543.433,1385.416 564.599,1375.5 536.558,1343.25 "/>
<polygon fill="#CCA08A" points="543.433,1385.416 601.266,1391.084 564.599,1375.5 "/>
<polygon fill="#F7F0C4" points="647.37,1380.5 640.433,1359.084 658.808,1346.875 "/>
<polygon fill="#96644F" points="536.558,1343.25 554.933,1322.75 560.1,1338.917 "/>
<polygon fill="#986857" points="554.933,1322.75 590.433,1313.583 560.1,1338.917 "/>
<polygon fill="#B1826B" points="590.433,1313.583 623.933,1322.75 599.433,1330.229 "/>
<polygon fill="#A67B67" points="590.433,1313.583 599.433,1330.229 571.674,1329.25 "/>
<polygon fill="#CC9F76" points="623.933,1322.75 640.433,1359.084 658.808,1346.875 "/>
<polygon fill="#FBCEA6" points="640.433,1359.084 647.37,1380.5 613.183,1375.5 "/>
<polygon fill="#CD9879" points="613.183,1375.5 564.599,1375.5 601.266,1391.084 "/>
<polygon fill="#F7CAA3" points="601.266,1391.084 613.183,1375.5 647.37,1380.5 "/>
<polygon fill="#FEE1AF" points="508.183,1371.5 527.683,1369.75 532.12,1412.75 "/>
<polygon fill="#FCEDC6" points="508.183,1371.5 532.12,1412.75 516.433,1444.583 "/>
<polygon fill="#7F4B3A" points="536.558,1343.25 560.1,1338.917 554.266,1348.75 "/>
<polygon fill="#925E4A" points="554.266,1348.75 564.599,1375.5 536.558,1343.25 "/>
<polygon fill="#D5A785" points="623.933,1322.75 640.433,1359.084 599.433,1330.229 "/>
<polygon fill="#EEC298" points="640.433,1359.084 613.183,1375.5 625.749,1348.75 "/>
<polygon fill="#A36D5A" points="554.266,1348.75 577.933,1362.125 564.599,1375.5 "/>
<polygon fill="#875947" points="577.933,1362.125 602.766,1360.25 613.183,1375.5 "/>
<polygon fill="#A46F5C" points="577.933,1362.125 564.599,1375.5 613.183,1375.5 "/>
<polygon fill="#A5745E" points="602.766,1360.25 625.749,1348.75 613.183,1375.5 "/>
<polygon fill="#FEE5B2" points="527.683,1369.75 543.433,1385.416 532.12,1412.75 "/>
<polygon fill="#FCD6B3" points="647.37,1380.5 601.266,1391.084 618.766,1427.25 "/>
<polygon fill="#FDFCEE" points="647.37,1380.5 666.017,1436 631.683,1463.75 "/>
<polygon fill="#FBF9DC" points="647.37,1380.5 618.766,1427.25 631.683,1463.75 "/>
<polygon fill="#FFE7BA" points="543.433,1385.416 554.933,1427.25 601.266,1391.084 "/>
<polygon fill="#FBD0AD" points="554.933,1427.25 618.766,1427.25 601.266,1391.084 "/>
<polygon fill="#FACCAD" points="554.933,1427.25 610.933,1465.834 618.766,1427.25 "/>
<polygon fill="#FFEAB7" points="554.933,1427.25 532.12,1412.75 543.433,1385.416 "/>
<polygon fill="#F8D5B6" points="532.12,1412.75 516.433,1444.583 545.745,1432.5 "/>
<polygon fill="#F0BC92" points="525.933,1456.25 548.329,1448 516.433,1444.583 "/>
<polygon fill="#FBF9DF" points="545.745,1432.5 548.329,1448 516.433,1444.583 "/>
<polygon fill="#FDECCD" points="618.766,1427.25 631.683,1463.75 610.933,1465.834 "/>
<polygon fill="#FCF6D9" points="666.017,1436 667.766,1475.417 631.683,1463.75 "/>
<polygon fill="#FBDFAF" points="532.12,1412.75 554.933,1427.25 545.745,1432.5 "/>
<polygon fill="#E8AE87" points="545.745,1432.5 554.933,1427.25 568.933,1456.25 "/>
<polygon fill="#E5A282" points="538.433,1463.75 525.933,1456.25 548.329,1448 "/>
<polygon fill="#E7AA89" points="545.745,1432.5 568.933,1456.25 548.329,1448 "/>
<polygon fill="#DA9E7E" points="554.933,1427.25 610.933,1465.834 568.933,1456.25 "/>
<polygon fill="#EACBA8" points="667.766,1475.417 633.067,1485.584 631.683,1463.75 "/>
<polygon fill="#FEE0BC" points="610.933,1465.834 631.683,1463.75 633.067,1485.584 "/>
<polygon fill="#E8AF8F" points="568.933,1456.25 610.933,1465.834 610.933,1494.25 "/>
<polygon fill="#F8C6A7" points="548.329,1448 568.933,1456.25 566.099,1486.917 "/>
<polygon fill="#FAC8A6" points="538.433,1463.75 548.329,1448 566.099,1486.917 "/>
<polygon fill="#DAA47C" points="507.6,1475.417 538.433,1463.75 566.099,1486.917 "/>
<polygon fill="#96705B" points="498.766,1474.25 489.183,1517.25 503.433,1525.583 "/>
<polygon fill="#A07A62" points="498.766,1474.25 518.433,1517.25 503.433,1525.583 "/>
<polygon fill="#B58461" points="518.433,1517.25 561.767,1522.583 566.099,1486.917 "/>
<polygon fill="#8A684E" points="507.6,1475.417 498.766,1474.25 518.433,1517.25 "/>
<polygon fill="#92684B" points="507.6,1475.417 518.433,1517.25 540.457,1481.876 "/>
<polygon fill="#976344" points="566.099,1486.917 540.457,1481.876 518.433,1517.25 "/>
<polygon fill="#F9D7B1" points="568.933,1456.25 610.933,1494.25 566.099,1486.917 "/>
<polygon fill="#C89A70" points="566.099,1486.917 610.933,1494.25 589.933,1517.25 "/>
<polygon fill="#CD9B71" points="561.767,1522.583 589.933,1517.25 566.099,1486.917 "/>
<polygon fill="#F0C4A0" points="610.933,1465.834 633.067,1485.584 610.933,1494.25 "/>
<polygon fill="#F1DEB7" points="667.766,1475.417 651.433,1547.5 633.067,1485.584 "/>
<polygon fill="#E5C59C" points="651.433,1547.5 607.933,1611.5 642.847,1518.553 "/>
<polygon fill="#EFD2A4" points="633.067,1485.584 610.933,1494.25 642.847,1518.553 "/>
<polygon fill="#C89E73" points="589.933,1517.25 610.933,1494.25 606.683,1551.75 "/>
<polygon fill="#F3CBA8" points="589.933,1517.25 566.099,1570.25 606.683,1551.75 "/>
<polygon fill="#F0CEA9" points="610.933,1494.25 642.847,1518.553 606.683,1551.75 "/>
<polygon fill="#D8B78F" points="642.847,1518.553 606.683,1551.75 607.933,1611.5 "/>
<polygon fill="#D2A981" points="566.099,1570.25 606.683,1551.75 607.933,1611.5 "/>
<polygon fill="#E3A394" points="503.433,1525.583 518.433,1517.25 524.028,1534 "/>
<polygon fill="#D49083" points="503.433,1525.583 489.183,1517.25 480.933,1530.25 "/>
<polygon fill="#CA7B6F" points="480.933,1530.25 503.433,1536.25 503.433,1525.583 "/>
<polygon fill="#D6847A" points="503.433,1525.583 524.028,1534 503.433,1536.25 "/>
<polygon fill="#F6CEBD" points="589.933,1517.25 546.683,1564 561.767,1522.583 "/>
<polygon fill="#FEEACE" points="566.099,1570.25 589.933,1517.25 546.683,1564 "/>
<polygon fill="#E8C4A3" points="566.099,1570.25 529.933,1605.5 561.767,1628 "/>
<polygon fill="#C6A27B" points="566.099,1570.25 607.933,1611.5 561.767,1628 "/>
<polygon fill="#BB9C80" points="561.767,1628 558.933,1673.25 592.683,1642.75 "/>
<polygon fill="#998268" points="607.933,1611.5 592.683,1642.75 561.767,1628 "/>
<polygon fill="#86694E" points="558.933,1673.25 513.73,1685.25 521.683,1647.5 "/>
<polygon fill="#927558" points="521.683,1647.5 561.767,1628 558.933,1673.25 "/>
<polygon fill="#C79E79" points="529.933,1605.5 521.683,1647.5 561.767,1628 "/>
<polygon fill="#EEC2A5" points="546.683,1564 566.099,1570.25 508.6,1584.5 "/>
<polygon fill="#DFA698" points="524.028,1534 561.767,1522.583 518.433,1517.25 "/>
<polygon fill="#F4B7B5" points="503.433,1536.25 486.183,1572.25 480.933,1530.25 "/>
<polygon fill="#F5B0AF" points="503.433,1536.25 546.683,1564 486.183,1572.25 "/>
<polygon fill="#F7BBC0" points="503.433,1536.25 524.028,1534 546.683,1564 "/>
<polygon fill="#FAD4CD" points="524.028,1534 561.767,1522.583 546.683,1564 "/>
<polygon fill="#C3A28A" points="486.183,1572.25 508.6,1584.5 546.683,1564 "/>
<polygon fill="#81624D" points="486.183,1572.25 501.433,1642.75 508.6,1584.5 "/>
<polygon fill="#95795F" points="501.433,1642.75 513.73,1685.25 521.683,1647.5 "/>
<polygon fill="#9E704F" points="508.6,1584.5 529.933,1605.5 501.433,1642.75 "/>
<polygon fill="#AC8767" points="501.433,1642.75 529.933,1605.5 521.683,1647.5 "/>
<polygon fill="#AC8460" points="508.6,1584.5 529.933,1605.5 566.099,1570.25 "/>
<polygon fill="#C5B4A2" points="560.1,1338.917 554.266,1348.75 577.933,1362.125 "/>
<polygon fill="#CE9986" points="560.1,1338.917 571.674,1329.25 599.433,1330.229 "/>
<polygon fill="#FFF9E7" points="599.433,1330.229 625.749,1348.75 602.766,1360.25 "/>
<polygon fill="#FAD5C2" points="577.933,1362.125 554.266,1348.75 602.766,1360.25 "/>
<polygon fill="#FFFAEC" points="577.933,1362.125 625.749,1348.75 602.766,1360.25 "/>
<polygon fill="#E5CDB7" points="554.266,1348.75 571.674,1329.25 560.1,1338.917 "/>
<polygon fill="#CCC3B6" points="571.674,1329.25 599.433,1330.229 625.749,1348.75 "/>
<polygon fill="#FFFFFF" points="570.647,1358.008 571.674,1329.25 554.266,1348.75 "/>
<ellipse opacity="0.4" fill="#75987D" cx="586.766" cy="1345.688" rx="13.764" ry="13.338"/>
<ellipse opacity="0.3" fill="#FFFFFF" cx="591.513" cy="1339.844" rx="1.081" ry="1.729"/>
<ellipse opacity="0.3" fill="#FFFFFF" cx="588.201" cy="1339.188" rx="1.081" ry="1.729"/>
<ellipse opacity="0.3" fill="#FFFFFF" cx="595.469" cy="1341.156" rx="1.844" ry="1.729"/>
<circle cx="586.766" cy="1345.239" r="3.667"/>
<g>
	
		<rect x="-327.944" y="857.145" transform="matrix(0.7071 0.7071 -0.7071 0.7071 869.9921 610.5085)" width="51.969" height="996.586"/>
	
		<rect x="-180.475" y="857.144" transform="matrix(0.7071 0.7071 -0.7071 0.7071 913.1786 506.2253)" width="51.969" height="996.586"/>
	
		<rect x="-33.005" y="857.144" transform="matrix(0.7071 0.7071 -0.7071 0.7071 956.3701 401.9499)" width="51.969" height="996.586"/>
	
		<rect x="114.465" y="857.144" transform="matrix(0.7071 0.7071 -0.7071 0.7071 999.5686 297.6803)" width="51.969" height="996.586"/>
	
		<rect x="261.934" y="857.145" transform="matrix(0.7071 0.7071 -0.7071 0.7071 1042.7606 193.4045)" width="51.969" height="996.586"/>
	
		<rect x="409.404" y="857.144" transform="matrix(0.7071 0.7071 -0.7071 0.7071 1085.9529 89.1282)" width="51.969" height="996.587"/>
	
		<rect x="556.873" y="857.145" transform="matrix(0.7071 0.7071 -0.7071 0.7071 1129.1449 -15.1476)" width="51.969" height="996.586"/>
	
		<rect x="704.343" y="857.145" transform="matrix(0.7071 0.7071 -0.7071 0.7071 1172.3372 -119.4238)" width="51.969" height="996.586"/>
	
		<rect x="851.812" y="857.144" transform="matrix(0.7071 0.7071 -0.7071 0.7071 1215.5188 -223.7021)" width="51.969" height="996.586"/>
</g>
<polygon fill="#FFFFFF" points="469.297,1210.851 329.871,1350.276 469.871,1490.276 432.631,1489.786 395.89,1489.786 
	293.121,1387.026 190.361,1489.786 153.621,1489.786 117.214,1489.433 256.371,1350.276 117.121,1211.026 153.621,1210.767 
	190.361,1210.767 293.121,1313.526 395.89,1210.767 432.631,1210.767 "/>
<polygon fill="#B2B2B2" points="330.536,1350.276 330.731,1350.474 292.699,1388.506 292.503,1388.309 186.158,1494.652 
	148.136,1494.652 110.838,1494.291 292.886,1312.244 399.242,1205.898 436.871,1205.898 474.82,1205.982 "/>
<rect x="107.667" y="1025.938" fill="none" width="402.266" height="659"/>
<g>
	<defs>
		<rect id="SVGID_3_" x="107.667" y="1830.546" width="402.266" height="659"/>
	</defs>
	<clipPath id="SVGID_4_">
		<use xlink:href="#SVGID_3_"  overflow="visible"/>
	</clipPath>
	<g clip-path="url(#SVGID_4_)">
		
			<rect x="-327.944" y="1661.753" transform="matrix(0.7071 0.7071 -0.7071 0.7071 1438.9324 846.1692)" width="51.969" height="996.586"/>
		
			<rect x="-180.475" y="1661.753" transform="matrix(0.7071 0.7071 -0.7071 0.7071 1482.1152 741.8821)" width="51.969" height="996.586"/>
		
			<rect x="-33.005" y="1661.753" transform="matrix(0.7071 0.7071 -0.7071 0.7071 1525.3068 637.6067)" width="51.969" height="996.586"/>
		
			<rect x="114.465" y="1661.753" transform="matrix(0.7071 0.7071 -0.7071 0.7071 1568.5088 533.3409)" width="51.969" height="996.586"/>
		
			<rect x="261.934" y="1661.753" transform="matrix(0.7071 0.7071 -0.7071 0.7071 1611.7009 429.0652)" width="51.969" height="996.586"/>
		
			<rect x="409.404" y="1661.753" transform="matrix(0.7071 0.7071 -0.7071 0.7071 1654.8931 324.7888)" width="51.969" height="996.587"/>
		
			<rect x="556.873" y="1661.753" transform="matrix(0.7071 0.7071 -0.7071 0.7071 1698.0852 220.5131)" width="51.969" height="996.586"/>
		
			<rect x="704.343" y="1661.753" transform="matrix(0.7071 0.7071 -0.7071 0.7071 1741.2773 116.2368)" width="51.969" height="996.586"/>
		
			<rect x="851.812" y="1661.753" transform="matrix(0.7071 0.7071 -0.7071 0.7071 1784.4553 11.9546)" width="51.969" height="996.586"/>
	</g>
</g>
<polygon fill="#FFFFFF" points="554.315,2150.788 560.149,2140.955 571.724,2131.288 599.482,2132.267 625.799,2150.788 
	602.815,2162.288 577.982,2164.163 "/>
<ellipse fill="#485F4D" cx="586.766" cy="2147.772" rx="16" ry="15.505"/>
<polygon fill="#0A0C0E" points="563.93,1840.29 559.43,1865.29 509.93,1839.31 509.93,1831.65 "/>
<polygon fill="#0B0E10" points="559.433,1865.288 636.933,1878.788 563.933,1840.288 "/>
<polygon fill="#090B0D" points="559.43,1865.29 509.93,1865.29 509.93,1861.35 509.93,1839.31 "/>
<polygon fill="#111212" points="559.43,1910.79 509.93,1906.21 509.93,1873.29 509.93,1865.29 "/>
<polygon fill="#43342D" points="539.43,1935.29 509.93,1929.88 509.93,1912.88 "/>
<polygon fill="#5B3C2E" points="539.43,1935.29 509.93,1946.64 509.93,1929.88 "/>
<polygon fill="#0E1012" points="636.933,1878.788 676.933,1928.788 651.933,1959.788 "/>
<polygon fill="#604B3B" points="651.933,1959.788 592.933,1939.038 625.933,1975.288 "/>
<polygon fill="#2A201B" points="539.433,1935.288 592.933,1939.038 559.433,1910.788 "/>
<polygon fill="#1D1512" points="559.43,1910.79 539.43,1935.29 509.93,1912.88 509.93,1906.21 "/>
<polygon fill="#0D0F0F" points="509.93,1865.29 559.433,1865.288 559.433,1910.788 "/>
<polygon fill="#0A0C0F" points="559.433,1865.288 636.933,1878.788 592.933,1939.038 "/>
<polygon fill="#181818" points="559.433,1865.288 559.433,1910.788 592.933,1939.038 "/>
<polygon fill="#1F1F1F" points="636.933,1878.788 651.933,1959.788 592.933,1939.038 "/>
<polygon fill="#1D1D1D" points="676.933,1928.788 701.433,2002.038 651.933,1959.788 "/>
<polygon fill="#A47C60" points="546.93,1977.79 509.93,1960.34 509.93,1946.64 539.43,1935.29 "/>
<polygon fill="#C19276" points="546.93,1977.79 509.93,1997.78 509.93,1960.34 "/>
<polygon fill="#9B7156" points="539.433,1935.288 546.933,1977.788 592.933,1939.038 "/>
<polygon fill="#996C55" points="592.933,1939.038 625.933,1975.288 546.933,1977.788 "/>
<polygon fill="#5A4B45" points="651.933,1959.788 701.433,2002.038 658.933,1986.288 "/>
<polygon fill="#3A3835" points="701.433,2002.038 704.683,2069.288 679.433,2023.288 "/>
<polygon fill="#917253" points="625.933,1975.288 651.933,1959.788 658.933,1986.288 "/>
<polygon fill="#C8946F" points="546.933,1977.788 625.933,1975.288 588.183,2031.538 "/>
<polygon fill="#C79979" points="588.18,2031.54 509.93,2016.19 509.93,1997.78 546.93,1977.79 "/>
<polygon fill="#D49E80" points="588.18,2031.54 509.93,2062.56 509.93,2016.19 "/>
<polygon fill="#D7A286" points="588.18,2031.54 511.43,2099.54 509.93,2097.6 509.93,2062.56 "/>
<polygon fill="#F8CD9A" points="536.56,2117.29 509.93,2170.07 509.93,2133.69 509.93,2097.6 "/>
<polygon fill="#BBA88D" points="704.683,2069.288 682.433,2138.622 675.1,2089.288 "/>
<polygon fill="#A5967F" points="679.433,2023.288 675.1,2089.288 704.683,2069.288 "/>
<polygon fill="#302E29" points="679.433,2023.288 658.933,1986.288 701.433,2002.038 "/>
<polygon fill="#D6B18E" points="625.933,1975.288 658.933,1986.288 679.433,2023.288 "/>
<polygon fill="#DCAA7E" points="625.933,1975.288 588.183,2031.538 638.767,2070.788 "/>
<polygon fill="#DAA585" points="588.183,2031.538 560.768,2076.122 509.93,2097.6 "/>
<polygon fill="#65483C" points="560.768,2076.122 536.558,2117.288 566.934,2103.289 "/>
<polygon fill="#B5896F" points="509.93,2097.6 560.768,2076.122 536.558,2117.288 "/>
<polygon fill="#E7C19A" points="625.933,1975.288 638.767,2070.788 658.674,2004.663 "/>
<polygon fill="#BCA586" points="658.674,2004.663 679.433,2023.288 675.1,2089.288 "/>
<polygon fill="#FEE9CB" points="638.767,2070.788 658.674,2004.663 675.1,2089.288 "/>
<polygon fill="#FCE7BD" points="516.43,2246.62 509.93,2233.98 509.93,2189.04 "/>
<polygon fill="#DFB08C" points="560.768,2076.122 588.183,2031.538 594.1,2070.788 "/>
<polygon fill="#F0BE91" points="588.183,2031.538 638.767,2070.788 594.1,2070.788 "/>
<polygon fill="#432F25" points="560.768,2076.122 590.433,2103.955 566.934,2103.289 "/>
<polygon fill="#97735B" points="560.768,2076.122 570.647,2085.392 600.1,2085.392 "/>
<polygon fill="#CA9E7F" points="594.1,2070.788 560.768,2076.122 600.1,2085.392 "/>
<polygon fill="#FCDAB3" points="638.767,2070.788 637.1,2093.954 594.1,2070.788 "/>
<polygon fill="#9B785D" points="594.1,2070.788 637.1,2093.954 600.1,2085.392 "/>
<polygon fill="#422E2A" points="570.647,2085.392 600.1,2085.392 590.433,2103.955 "/>
<polygon fill="#A18066" points="600.1,2085.392 637.1,2093.954 635.933,2115.621 "/>
<polygon fill="#4F3A30" points="590.433,2103.955 635.933,2115.621 600.1,2085.392 "/>
<polygon fill="#FDDFB7" points="638.767,2070.788 675.1,2089.288 656.933,2110.122 "/>
<path fill="none" stroke="#FFFFFF" stroke-miterlimit="10" d="M653.433,2113.788"/>
<polygon fill="#F8E2C1" points="638.767,2070.788 637.1,2093.954 656.933,2110.122 "/>
<polygon fill="#C7AB90" points="637.1,2093.954 635.933,2115.621 656.933,2110.122 "/>
<polygon fill="#A38068" points="536.558,2117.288 536.558,2145.288 554.933,2124.788 "/>
<polygon fill="#F6C48F" points="536.56,2117.29 527.68,2171.79 509.93,2173.38 509.93,2170.07 "/>
<polygon fill="#B18A6F" points="536.558,2117.288 536.558,2145.288 527.683,2171.788 "/>
<polygon fill="#8E6954" points="536.558,2117.288 566.934,2103.289 554.933,2124.788 "/>
<polygon fill="#5C392B" points="566.934,2103.289 590.433,2103.955 554.933,2124.788 "/>
<polygon fill="#805845" points="590.433,2103.955 635.933,2115.621 623.933,2124.788 "/>
<polygon fill="#FFEAC7" points="656.933,2110.122 673.933,2171.788 675.1,2089.288 "/>
<polygon fill="#B49475" points="675.1,2089.288 673.933,2171.788 682.433,2138.622 "/>
<polygon fill="#AFA48F" points="704.683,2069.288 704.683,2126.038 682.433,2138.622 "/>
<polygon fill="#EBCCA8" points="673.933,2171.788 682.433,2138.622 704.683,2126.038 "/>
<polygon fill="#FFEDD3" points="704.683,2126.038 713.933,2131.288 704.683,2136.538 "/>
<polygon fill="#FCD5B7" points="704.683,2126.038 673.933,2171.788 704.683,2136.538 "/>
<polygon fill="#F7B08F" points="713.933,2131.288 712.183,2161.038 694.933,2202.538 "/>
<polygon fill="#E77F52" points="713.933,2131.288 704.683,2136.538 694.933,2202.538 "/>
<polygon fill="#FCFAE4" points="704.683,2136.538 673.933,2171.788 690.933,2177.538 "/>
<polygon fill="#CB7149" points="704.683,2136.538 694.933,2202.538 690.933,2177.538 "/>
<polygon fill="#F7B6A0" points="694.933,2202.538 693.558,2226.288 678.183,2238.038 "/>
<polygon fill="#FEE7CE" points="673.933,2171.788 675.1,2205.788 666.017,2238.038 "/>
<polygon fill="#DF9672" points="673.933,2171.788 690.933,2177.538 675.1,2205.788 "/>
<polygon fill="#F1AE8B" points="690.933,2177.538 694.933,2202.538 675.1,2205.788 "/>
<polygon fill="#FBCFAF" points="675.1,2205.788 694.933,2202.538 678.183,2238.038 "/>
<polygon fill="#FCFAE2" points="666.017,2238.038 675.1,2205.788 678.183,2238.038 "/>
<polygon fill="#FDFAE2" points="666.017,2238.038 667.766,2277.455 680.766,2265.788 "/>
<polygon fill="#FDFAE0" points="666.017,2238.038 678.183,2238.038 680.766,2265.788 "/>
<polygon fill="#FDF5E1" points="678.183,2238.038 693.558,2226.288 680.766,2265.788 "/>
<polygon fill="#754838" points="590.433,2103.955 590.433,2115.621 554.933,2124.788 "/>
<polygon fill="#64382C" points="623.933,2124.788 590.433,2115.621 590.433,2103.955 "/>
<polygon fill="#AB8D70" points="656.933,2110.122 635.933,2115.621 658.808,2148.913 "/>
<polygon fill="#FDFAE5" points="656.933,2110.122 673.933,2171.788 658.808,2148.913 "/>
<polygon fill="#9F785C" points="623.933,2124.788 635.933,2115.621 658.808,2148.913 "/>
<polygon fill="#F2B69B" points="516.43,2246.62 509.93,2257.54 509.93,2245.11 "/>
<polygon fill="#FAD1C1" points="516.43,2246.62 509.93,2245.11 509.93,2233.98 "/>
<polygon fill="#CE9477" points="516.43,2246.62 509.93,2269.32 509.93,2257.54 "/>
<polygon fill="#AF7A5F" points="538.43,2265.79 509.93,2276.58 509.93,2275.02 525.93,2258.29 "/>
<polygon fill="#E9AE8F" points="525.93,2258.29 509.93,2275.02 509.93,2269.32 516.43,2246.62 "/>
<polygon fill="#FCFBE9" points="658.808,2148.913 647.37,2182.538 673.933,2171.788 "/>
<polygon fill="#FBFAE7" points="647.37,2182.538 666.017,2238.038 673.933,2171.788 "/>
<polygon fill="#F8C38E" points="527.683,2171.788 543.433,2187.454 536.558,2145.288 "/>
<polygon fill="#AF846E" points="543.433,2187.454 564.599,2177.538 536.558,2145.288 "/>
<polygon fill="#CCA08A" points="543.433,2187.454 601.266,2193.122 564.599,2177.538 "/>
<polygon fill="#F7F0C4" points="647.37,2182.538 640.433,2161.122 658.808,2148.913 "/>
<polygon fill="#96644F" points="536.558,2145.288 554.933,2124.788 560.1,2140.955 "/>
<polygon fill="#986857" points="554.933,2124.788 590.433,2115.621 560.1,2140.955 "/>
<polygon fill="#B1826B" points="590.433,2115.621 623.933,2124.788 599.433,2132.267 "/>
<polygon fill="#A67B67" points="590.433,2115.621 599.433,2132.267 571.674,2131.288 "/>
<polygon fill="#CC9F76" points="623.933,2124.788 640.433,2161.122 658.808,2148.913 "/>
<polygon fill="#FBCEA6" points="640.433,2161.122 647.37,2182.538 613.183,2177.538 "/>
<polygon fill="#CD9879" points="613.183,2177.538 564.599,2177.538 601.266,2193.122 "/>
<polygon fill="#F7CAA3" points="601.266,2193.122 613.183,2177.538 647.37,2182.538 "/>
<polygon fill="#FEE1AF" points="532.12,2214.79 509.93,2176.56 509.93,2173.38 527.68,2171.79 "/>
<polygon fill="#FCEDC6" points="532.12,2214.79 516.43,2246.62 509.93,2189.04 509.93,2176.56 "/>
<polygon fill="#7F4B3A" points="536.558,2145.288 560.1,2140.955 554.266,2150.788 "/>
<polygon fill="#925E4A" points="554.266,2150.788 564.599,2177.538 536.558,2145.288 "/>
<polygon fill="#D5A785" points="623.933,2124.788 640.433,2161.122 599.433,2132.267 "/>
<polygon fill="#EEC298" points="640.433,2161.122 613.183,2177.538 625.749,2150.788 "/>
<polygon fill="#A36D5A" points="554.266,2150.788 577.933,2164.163 564.599,2177.538 "/>
<polygon fill="#875947" points="577.933,2164.163 602.766,2162.288 613.183,2177.538 "/>
<polygon fill="#A46F5C" points="577.933,2164.163 564.599,2177.538 613.183,2177.538 "/>
<polygon fill="#A5745E" points="602.766,2162.288 625.749,2150.788 613.183,2177.538 "/>
<polygon fill="#FEE5B2" points="527.683,2171.788 543.433,2187.454 532.12,2214.788 "/>
<polygon fill="#FCD6B3" points="647.37,2182.538 601.266,2193.122 618.766,2229.288 "/>
<polygon fill="#FDFCEE" points="647.37,2182.538 666.017,2238.038 631.683,2265.788 "/>
<polygon fill="#FBF9DC" points="647.37,2182.538 618.766,2229.288 631.683,2265.788 "/>
<polygon fill="#FFE7BA" points="543.433,2187.454 554.933,2229.288 601.266,2193.122 "/>
<polygon fill="#FBD0AD" points="554.933,2229.288 618.766,2229.288 601.266,2193.122 "/>
<polygon fill="#FACCAD" points="554.933,2229.288 610.933,2267.872 618.766,2229.288 "/>
<polygon fill="#FFEAB7" points="554.933,2229.288 532.12,2214.788 543.433,2187.454 "/>
<polygon fill="#F8D5B6" points="532.12,2214.788 516.433,2246.621 545.745,2234.538 "/>
<polygon fill="#F0BC92" points="525.933,2258.288 548.329,2250.038 516.433,2246.621 "/>
<polygon fill="#FBF9DF" points="545.745,2234.538 548.329,2250.038 516.433,2246.621 "/>
<polygon fill="#FDECCD" points="618.766,2229.288 631.683,2265.788 610.933,2267.872 "/>
<polygon fill="#FCF6D9" points="666.017,2238.038 667.766,2277.455 631.683,2265.788 "/>
<polygon fill="#FBDFAF" points="532.12,2214.788 554.933,2229.288 545.745,2234.538 "/>
<polygon fill="#E8AE87" points="545.745,2234.538 554.933,2229.288 568.933,2258.288 "/>
<polygon fill="#E5A282" points="538.433,2265.788 525.933,2258.288 548.329,2250.038 "/>
<polygon fill="#E7AA89" points="545.745,2234.538 568.933,2258.288 548.329,2250.038 "/>
<polygon fill="#DA9E7E" points="554.933,2229.288 610.933,2267.872 568.933,2258.288 "/>
<polygon fill="#EACBA8" points="667.766,2277.455 633.067,2287.622 631.683,2265.788 "/>
<polygon fill="#FEE0BC" points="610.933,2267.872 631.683,2265.788 633.067,2287.622 "/>
<polygon fill="#E8AF8F" points="568.933,2258.288 610.933,2267.872 610.933,2296.288 "/>
<polygon fill="#F8C6A7" points="548.329,2250.038 568.933,2258.288 566.099,2288.955 "/>
<polygon fill="#FAC8A6" points="538.433,2265.788 548.329,2250.038 566.099,2288.955 "/>
<polygon fill="#DAA47C" points="566.1,2288.96 540.45,2283.92 515.09,2278.93 509.93,2277.92 509.93,2276.58 538.43,2265.79 "/>
<polygon fill="#A07A62" points="518.43,2319.29 509.93,2324.01 509.93,2300.7 "/>
<polygon fill="#B58461" points="518.433,2319.288 561.767,2324.621 566.099,2288.955 "/>
<polygon fill="#8A684E" points="518.43,2319.29 509.93,2300.7 509.93,2286.46 "/>
<polygon fill="#92684B" points="540.46,2283.91 540.45,2283.92 518.43,2319.29 509.93,2286.46 509.93,2277.92 515.09,2278.93 "/>
<polygon fill="#976344" points="566.099,2288.955 540.457,2283.914 518.433,2319.288 "/>
<polygon fill="#F9D7B1" points="568.933,2258.288 610.933,2296.288 566.099,2288.955 "/>
<polygon fill="#C89A70" points="566.099,2288.955 610.933,2296.288 589.933,2319.288 "/>
<polygon fill="#CD9B71" points="561.767,2324.621 589.933,2319.288 566.099,2288.955 "/>
<polygon fill="#F0C4A0" points="610.933,2267.872 633.067,2287.622 610.933,2296.288 "/>
<polygon fill="#F1DEB7" points="667.766,2277.455 651.433,2349.538 633.067,2287.622 "/>
<polygon fill="#E5C59C" points="651.433,2349.538 607.933,2413.538 642.847,2320.591 "/>
<polygon fill="#EFD2A4" points="633.067,2287.622 610.933,2296.288 642.847,2320.591 "/>
<polygon fill="#C89E73" points="589.933,2319.288 610.933,2296.288 606.683,2353.788 "/>
<polygon fill="#F3CBA8" points="589.933,2319.288 566.099,2372.288 606.683,2353.788 "/>
<polygon fill="#F0CEA9" points="610.933,2296.288 642.847,2320.591 606.683,2353.788 "/>
<polygon fill="#D8B78F" points="642.847,2320.591 606.683,2353.788 607.933,2413.538 "/>
<polygon fill="#D2A981" points="566.099,2372.288 606.683,2353.788 607.933,2413.538 "/>
<polygon fill="#E3A394" points="524.03,2336.04 509.93,2330.28 509.93,2324.01 518.43,2319.29 "/>
<polygon fill="#D6847A" points="524.03,2336.04 509.93,2337.58 509.93,2330.28 "/>
<polygon fill="#F6CEBD" points="589.933,2319.288 546.683,2366.038 561.767,2324.621 "/>
<polygon fill="#FEEACE" points="566.099,2372.288 589.933,2319.288 546.683,2366.038 "/>
<polygon fill="#E8C4A3" points="566.099,2372.288 529.933,2407.538 561.767,2430.038 "/>
<polygon fill="#C6A27B" points="566.099,2372.288 607.933,2413.538 561.767,2430.038 "/>
<polygon fill="#BB9C80" points="561.767,2430.038 558.933,2475.288 592.683,2444.788 "/>
<polygon fill="#998268" points="607.933,2413.538 592.683,2444.788 561.767,2430.038 "/>
<polygon fill="#86694E" points="558.933,2475.288 513.73,2487.288 521.683,2449.538 "/>
<polygon fill="#927558" points="521.683,2449.538 561.767,2430.038 558.933,2475.288 "/>
<polygon fill="#C79E79" points="529.933,2407.538 521.683,2449.538 561.767,2430.038 "/>
<polygon fill="#EEC2A5" points="566.1,2372.29 509.93,2386.21 509.93,2385.82 546.68,2366.04 "/>
<polygon fill="#DFA698" points="524.028,2336.038 561.767,2324.621 518.433,2319.288 "/>
<polygon fill="#F5B0AF" points="546.68,2366.04 509.93,2371.05 509.93,2342.46 "/>
<polygon fill="#F7BBC0" points="546.68,2366.04 509.93,2342.46 509.93,2337.58 524.03,2336.04 "/>
<polygon fill="#FAD4CD" points="524.028,2336.038 561.767,2324.621 546.683,2366.038 "/>
<polygon fill="#C3A28A" points="546.68,2366.04 509.93,2385.82 509.93,2371.05 "/>
<polygon fill="#95795F" points="521.68,2449.54 513.73,2487.29 509.93,2474.16 509.93,2446.78 "/>
<polygon fill="#9E704F" points="529.93,2407.54 509.93,2433.68 509.93,2387.85 "/>
<polygon fill="#AC8767" points="529.93,2407.54 521.68,2449.54 509.93,2446.78 509.93,2433.68 "/>
<polygon fill="#AC8460" points="566.1,2372.29 529.93,2407.54 509.93,2387.85 509.93,2386.21 "/>
<polygon fill="#C5B4A2" points="560.1,2140.955 554.266,2150.788 577.933,2164.163 "/>
<polygon fill="#FFF9E7" points="599.433,2132.267 625.749,2150.788 602.766,2162.288 "/>
<polygon fill="#FAD5C2" points="577.933,2164.163 554.266,2150.788 578.833,2160.046 602.766,2162.288 "/>
<polygon fill="#FFFAEC" points="577.933,2164.163 625.749,2150.788 602.766,2162.288 "/>
<polygon fill="#E5CDB7" points="554.266,2150.788 571.674,2131.288 560.1,2140.955 "/>
<polygon fill="#CCC3B6" points="571.674,2131.288 599.433,2132.267 625.749,2150.788 597.875,2136.25 "/>
<polygon fill="#FFFFFF" points="570.647,2160.046 571.674,2131.288 554.266,2150.788 "/>
<ellipse opacity="0.4" fill="#75987D" cx="586.766" cy="2147.726" rx="13.764" ry="13.338"/>
<ellipse opacity="0.3" fill="#FFFFFF" cx="591.513" cy="2141.882" rx="1.081" ry="1.729"/>
<ellipse opacity="0.3" fill="#FFFFFF" cx="588.201" cy="2141.226" rx="1.081" ry="1.729"/>
<ellipse opacity="0.3" fill="#FFFFFF" cx="595.469" cy="2143.194" rx="1.844" ry="1.729"/>
<circle cx="586.766" cy="2147.277" r="3.667"/>
<polygon fill="#FFFFFF" points="502.398,2056.288 362.704,2195.798 502.223,2335.316 465.464,2335.308 428.724,2335.308 
	325.954,2232.548 223.367,2335.32 149.395,2335.316 289.204,2195.798 149.703,2056.288 186.454,2056.288 223.194,2056.288 
	325.954,2159.048 428.424,2056.288 465.464,2056.288 "/>
<polygon fill="#FFFFFF" points="1544.398,2056.288 1404.703,2195.798 1544.223,2335.316 1507.464,2335.308 1470.724,2335.308 
	1367.953,2232.548 1265.367,2335.32 1191.395,2335.316 1331.203,2195.798 1191.703,2056.288 1228.453,2056.288 1265.193,2056.288 
	1367.953,2159.048 1470.424,2056.288 1507.464,2056.288 "/>
<polygon fill="#EDEDED" points="252.074,2085.168 215.327,2121.916 149.703,2056.288 223.194,2056.288 "/>
<polygon fill="#EDEDED" points="399.785,2306.371 436.227,2269.32 502.223,2335.316 428.729,2335.32 "/>
<g>
	<defs>
		<rect id="SVGID_5_" width="488.218" height="799.808"/>
	</defs>
	<clipPath id="SVGID_6_">
		<use xlink:href="#SVGID_5_"  overflow="visible"/>
	</clipPath>
	<g clip-path="url(#SVGID_6_)">
		
			<rect x="-528.687" y="-204.859" transform="matrix(0.7071 0.7071 -0.7071 0.7071 137.1639 468.6537)" width="63.072" height="1209.525"/>
		
			<rect x="-349.707" y="-204.859" transform="matrix(0.7071 0.7071 -0.7071 0.7071 189.5828 342.0961)" width="63.072" height="1209.526"/>
		
			<rect x="-170.728" y="-204.859" transform="matrix(0.7071 0.7071 -0.7071 0.7071 242.002 215.5444)" width="63.072" height="1209.526"/>
		
			<rect x="8.251" y="-204.859" transform="matrix(0.7071 0.7071 -0.7071 0.7071 294.4211 88.9897)" width="63.072" height="1209.525"/>
		
			<rect x="187.23" y="-204.858" transform="matrix(0.7071 0.7071 -0.7071 0.7071 346.8422 -37.5635)" width="63.072" height="1209.524"/>
		
			<rect x="366.21" y="-204.859" transform="matrix(0.7071 0.7071 -0.7071 0.7071 399.2622 -164.1194)" width="63.072" height="1209.526"/>
		
			<rect x="545.188" y="-204.859" transform="matrix(0.7071 0.7071 -0.7071 0.7071 451.6779 -290.6736)" width="63.072" height="1209.525"/>
		
			<rect x="724.168" y="-204.859" transform="matrix(0.7071 0.7071 -0.7071 0.7071 504.1017 -417.2302)" width="63.072" height="1209.525"/>
		
			<rect x="903.146" y="-204.859" transform="matrix(0.7071 0.7071 -0.7071 0.7071 556.5262 -543.7869)" width="63.071" height="1209.525"/>
	</g>
</g>
<g>
	<polygon fill="#FFFFFF" points="535.224,391.216 540.593,382.167 551.243,373.271 576.786,374.172 601.003,391.216 
		579.854,401.798 557.002,403.523 	"/>
	<ellipse fill="#485F4D" cx="565.084" cy="388.44" rx="14.724" ry="14.268"/>
	<polygon fill="#0A0C0E" points="544.07,105.491 539.93,128.497 494.378,104.589 494.378,97.541 	"/>
	<polygon fill="#0B0E10" points="539.933,128.495 611.249,140.917 544.073,105.489 	"/>
	<polygon fill="#090B0D" points="539.93,128.497 494.378,128.497 494.378,124.871 494.378,104.589 	"/>
	<polygon fill="#111212" points="539.93,170.367 494.378,166.151 494.378,135.858 494.378,128.497 	"/>
	<polygon fill="#43342D" points="521.525,192.912 494.378,187.933 494.378,172.289 	"/>
	<polygon fill="#5B3C2E" points="521.525,192.912 494.378,203.355 494.378,187.933 	"/>
	<polygon fill="#0E1012" points="611.249,140.917 648.058,186.929 625.053,215.455 	"/>
	<polygon fill="#604B3B" points="625.053,215.455 570.761,196.36 601.127,229.718 	"/>
	<polygon fill="#2A201B" points="521.528,192.91 570.761,196.36 539.933,170.365 	"/>
	<polygon fill="#1D1512" points="539.93,170.367 521.525,192.912 494.378,172.289 494.378,166.151 	"/>
	<polygon fill="#0D0F0F" points="494.378,128.497 539.933,128.495 539.933,170.365 	"/>
	<polygon fill="#0A0C0F" points="539.933,128.495 611.249,140.917 570.761,196.36 	"/>
	<polygon fill="#181818" points="539.933,128.495 539.933,170.365 570.761,196.36 	"/>
	<polygon fill="#1F1F1F" points="611.249,140.917 625.053,215.455 570.761,196.36 	"/>
	<polygon fill="#1D1D1D" points="648.058,186.929 670.603,254.334 625.053,215.455 	"/>
	<polygon fill="#A47C60" points="528.427,232.021 494.378,215.963 494.378,203.355 521.525,192.912 	"/>
	<polygon fill="#C19276" points="528.427,232.021 494.378,250.416 494.378,215.963 	"/>
	<polygon fill="#9B7156" points="521.528,192.91 528.431,232.019 570.761,196.36 	"/>
	<polygon fill="#996C55" points="570.761,196.36 601.127,229.718 528.431,232.019 	"/>
	<polygon fill="#5A4B45" points="625.053,215.455 670.603,254.334 631.494,239.841 	"/>
	<polygon fill="#3A3835" points="670.603,254.334 673.594,316.218 650.358,273.889 	"/>
	<polygon fill="#917253" points="601.127,229.718 625.053,215.455 631.494,239.841 	"/>
	<polygon fill="#C8946F" points="528.431,232.019 601.127,229.718 566.39,281.48 	"/>
	<polygon fill="#C79979" points="566.386,281.482 494.378,267.357 494.378,250.416 528.427,232.021 	"/>
	<polygon fill="#D49E80" points="566.386,281.482 494.378,310.026 494.378,267.357 	"/>
	<polygon fill="#D7A286" points="566.386,281.482 495.76,344.056 494.378,342.271 494.378,310.026 	"/>
	<polygon fill="#F8CD9A" points="518.885,360.39 494.378,408.96 494.378,375.482 494.378,342.271 	"/>
	<polygon fill="#BBA88D" points="673.594,316.218 653.119,380.021 646.37,334.623 	"/>
	<polygon fill="#A5967F" points="650.358,273.889 646.37,334.623 673.594,316.218 	"/>
	<polygon fill="#302E29" points="650.358,273.889 631.494,239.841 670.603,254.334 	"/>
	<polygon fill="#D6B18E" points="601.127,229.718 631.494,239.841 650.358,273.889 	"/>
	<polygon fill="#DCAA7E" points="601.127,229.718 566.39,281.48 612.938,317.599 	"/>
	<polygon fill="#DAA585" points="566.39,281.48 541.161,322.507 494.378,342.271 	"/>
	<polygon fill="#65483C" points="541.161,322.507 518.883,360.388 546.835,347.506 	"/>
	<polygon fill="#B5896F" points="494.378,342.271 541.161,322.507 518.883,360.388 	"/>
	<polygon fill="#E7C19A" points="601.127,229.718 612.938,317.599 631.255,256.75 	"/>
	<polygon fill="#BCA586" points="631.255,256.75 650.358,273.889 646.37,334.623 	"/>
	<polygon fill="#FEE9CB" points="612.938,317.599 631.255,256.75 646.37,334.623 	"/>
	<polygon fill="#FCE7BD" points="500.359,479.401 494.378,467.771 494.378,426.415 	"/>
	<polygon fill="#DFB08C" points="541.161,322.507 566.39,281.48 571.833,317.599 	"/>
	<polygon fill="#F0BE91" points="566.39,281.48 612.938,317.599 571.833,317.599 	"/>
	<polygon fill="#432F25" points="541.161,322.507 568.459,348.119 546.835,347.506 	"/>
	<polygon fill="#97735B" points="541.161,322.507 550.253,331.037 577.354,331.037 	"/>
	<polygon fill="#CA9E7F" points="571.833,317.599 541.161,322.507 577.354,331.037 	"/>
	<polygon fill="#FCDAB3" points="612.938,317.599 611.402,338.917 571.833,317.599 	"/>
	<polygon fill="#9B785D" points="571.833,317.599 611.402,338.917 577.354,331.037 	"/>
	<polygon fill="#422E2A" points="550.253,331.037 577.354,331.037 568.459,348.119 	"/>
	<polygon fill="#A18066" points="577.354,331.037 611.402,338.917 610.329,358.854 	"/>
	<polygon fill="#4F3A30" points="568.459,348.119 610.329,358.854 577.354,331.037 	"/>
	<polygon fill="#FDDFB7" points="612.938,317.599 646.37,334.623 629.653,353.794 	"/>
	<path fill="none" stroke="#FFFFFF" stroke-miterlimit="10" d="M626.434,357.168"/>
	<polygon fill="#F8E2C1" points="612.938,317.599 611.402,338.917 629.653,353.794 	"/>
	<polygon fill="#C7AB90" points="611.402,338.917 610.329,358.854 629.653,353.794 	"/>
	<polygon fill="#A38068" points="518.883,360.388 518.883,386.154 535.792,367.29 	"/>
	<polygon fill="#F6C48F" points="518.885,360.39 510.713,410.542 494.378,412.005 494.378,408.96 	"/>
	<polygon fill="#B18A6F" points="518.883,360.388 518.883,386.154 510.716,410.54 	"/>
	<polygon fill="#8E6954" points="518.883,360.388 546.835,347.506 535.792,367.29 	"/>
	<polygon fill="#5C392B" points="546.835,347.506 568.459,348.119 535.792,367.29 	"/>
	<polygon fill="#805845" points="568.459,348.119 610.329,358.854 599.286,367.29 	"/>
	<polygon fill="#FFEAC7" points="629.653,353.794 645.298,410.54 646.37,334.623 	"/>
	<polygon fill="#B49475" points="646.37,334.623 645.298,410.54 653.119,380.021 	"/>
	<polygon fill="#AFA48F" points="673.594,316.218 673.594,368.44 653.119,380.021 	"/>
	<polygon fill="#EBCCA8" points="645.298,410.54 653.119,380.021 673.594,368.44 	"/>
	<polygon fill="#FFEDD3" points="673.594,368.44 682.106,373.271 673.594,378.102 	"/>
	<polygon fill="#FCD5B7" points="673.594,368.44 645.298,410.54 673.594,378.102 	"/>
	<polygon fill="#F7B08F" points="682.106,373.271 680.495,400.647 664.621,438.837 	"/>
	<polygon fill="#E77F52" points="682.106,373.271 673.594,378.102 664.621,438.837 	"/>
	<polygon fill="#FCFAE4" points="673.594,378.102 645.298,410.54 660.94,415.832 	"/>
	<polygon fill="#CB7149" points="673.594,378.102 664.621,438.837 660.94,415.832 	"/>
	<polygon fill="#F7B6A0" points="664.621,438.837 663.356,460.691 649.208,471.504 	"/>
	<polygon fill="#FEE7CE" points="645.298,410.54 646.37,441.827 638.013,471.504 	"/>
	<polygon fill="#DF9672" points="645.298,410.54 660.94,415.832 646.37,441.827 	"/>
	<polygon fill="#F1AE8B" points="660.94,415.832 664.621,438.837 646.37,441.827 	"/>
	<polygon fill="#FBCFAF" points="646.37,441.827 664.621,438.837 649.208,471.504 	"/>
	<polygon fill="#FCFAE2" points="638.013,471.504 646.37,441.827 649.208,471.504 	"/>
	<polygon fill="#FDFAE2" points="638.013,471.504 639.622,507.776 651.584,497.04 	"/>
	<polygon fill="#FDFAE0" points="638.013,471.504 649.208,471.504 651.584,497.04 	"/>
	<polygon fill="#FDF5E1" points="649.208,471.504 663.356,460.691 651.584,497.04 	"/>
	<polygon fill="#754838" points="568.459,348.119 568.459,358.854 535.792,367.29 	"/>
	<polygon fill="#64382C" points="599.286,367.29 568.459,358.854 568.459,348.119 	"/>
	<polygon fill="#AB8D70" points="629.653,353.794 610.329,358.854 631.379,389.49 	"/>
	<polygon fill="#FDFAE5" points="629.653,353.794 645.298,410.54 631.379,389.49 	"/>
	<polygon fill="#9F785C" points="599.286,367.29 610.329,358.854 631.379,389.49 	"/>
	<polygon fill="#F2B69B" points="500.359,479.401 494.378,489.45 494.378,478.012 	"/>
	<polygon fill="#FAD1C1" points="500.359,479.401 494.378,478.012 494.378,467.771 	"/>
	<polygon fill="#CE9477" points="500.359,479.401 494.378,500.291 494.378,489.45 	"/>
	<polygon fill="#AF7A5F" points="520.605,497.041 494.378,506.972 494.378,505.535 509.103,490.141 	"/>
	<polygon fill="#E9AE8F" points="509.103,490.141 494.378,505.535 494.378,500.291 500.359,479.401 	"/>
	<polygon fill="#FCFBE9" points="631.379,389.49 620.854,420.433 645.298,410.54 	"/>
	<polygon fill="#FBFAE7" points="620.854,420.433 638.013,471.504 645.298,410.54 	"/>
	<polygon fill="#F8C38E" points="510.716,410.54 525.21,424.957 518.883,386.154 	"/>
	<polygon fill="#AF846E" points="525.21,424.957 544.687,415.832 518.883,386.154 	"/>
	<polygon fill="#CCA08A" points="525.21,424.957 578.427,430.172 544.687,415.832 	"/>
	<polygon fill="#F7F0C4" points="620.854,420.433 614.471,400.725 631.379,389.49 	"/>
	<polygon fill="#96644F" points="518.883,386.154 535.792,367.29 540.546,382.167 	"/>
	<polygon fill="#986857" points="535.792,367.29 568.459,358.854 540.546,382.167 	"/>
	<polygon fill="#B1826B" points="568.459,358.854 599.286,367.29 576.741,374.172 	"/>
	<polygon fill="#A67B67" points="568.459,358.854 576.741,374.172 551.196,373.271 	"/>
	<polygon fill="#CC9F76" points="599.286,367.29 614.471,400.725 631.379,389.49 	"/>
	<polygon fill="#FBCEA6" points="614.471,400.725 620.854,420.433 589.395,415.832 	"/>
	<polygon fill="#CD9879" points="589.395,415.832 544.687,415.832 578.427,430.172 	"/>
	<polygon fill="#F7CAA3" points="578.427,430.172 589.395,415.832 620.854,420.433 	"/>
	<polygon fill="#FEE1AF" points="514.8,450.111 494.378,414.931 494.378,412.005 510.713,410.542 	"/>
	<polygon fill="#FCEDC6" points="514.8,450.111 500.359,479.401 494.378,426.415 494.378,414.931 	"/>
	<polygon fill="#7F4B3A" points="518.883,386.154 540.546,382.167 535.177,391.216 	"/>
	<polygon fill="#925E4A" points="535.177,391.216 544.687,415.832 518.883,386.154 	"/>
	<polygon fill="#D5A785" points="599.286,367.29 614.471,400.725 576.741,374.172 	"/>
	<polygon fill="#EEC298" points="614.471,400.725 589.395,415.832 600.958,391.216 	"/>
	<polygon fill="#A36D5A" points="535.177,391.216 556.957,403.523 544.687,415.832 	"/>
	<polygon fill="#875947" points="556.957,403.523 579.808,401.798 589.395,415.832 	"/>
	<polygon fill="#A46F5C" points="556.957,403.523 544.687,415.832 589.395,415.832 	"/>
	<polygon fill="#A5745E" points="579.808,401.798 600.958,391.216 589.395,415.832 	"/>
	<polygon fill="#FEE5B2" points="510.716,410.54 525.21,424.957 514.8,450.109 	"/>
	<polygon fill="#FCD6B3" points="620.854,420.433 578.427,430.172 594.53,463.452 	"/>
	<polygon fill="#FDFCEE" points="620.854,420.433 638.013,471.504 606.419,497.04 	"/>
	<polygon fill="#FBF9DC" points="620.854,420.433 594.53,463.452 606.419,497.04 	"/>
	<polygon fill="#FFE7BA" points="525.21,424.957 535.792,463.452 578.427,430.172 	"/>
	<polygon fill="#FBD0AD" points="535.792,463.452 594.53,463.452 578.427,430.172 	"/>
	<polygon fill="#FACCAD" points="535.792,463.452 587.324,498.957 594.53,463.452 	"/>
	<polygon fill="#FFEAB7" points="535.792,463.452 514.8,450.109 525.21,424.957 	"/>
	<polygon fill="#F8D5B6" points="514.8,450.109 500.363,479.402 527.338,468.283 	"/>
	<polygon fill="#F0BC92" points="509.105,490.138 529.716,482.547 500.363,479.402 	"/>
	<polygon fill="#FBF9DF" points="527.338,468.283 529.716,482.547 500.363,479.402 	"/>
	<polygon fill="#FDECCD" points="594.53,463.452 606.419,497.04 587.324,498.957 	"/>
	<polygon fill="#FCF6D9" points="638.013,471.504 639.622,507.776 606.419,497.04 	"/>
	<polygon fill="#FBDFAF" points="514.8,450.109 535.792,463.452 527.338,468.283 	"/>
	<polygon fill="#E8AE87" points="527.338,468.283 535.792,463.452 548.676,490.138 	"/>
	<polygon fill="#E5A282" points="520.608,497.04 509.105,490.138 529.716,482.547 	"/>
	<polygon fill="#E7AA89" points="527.338,468.283 548.676,490.138 529.716,482.547 	"/>
	<polygon fill="#DA9E7E" points="535.792,463.452 587.324,498.957 548.676,490.138 	"/>
	<polygon fill="#EACBA8" points="639.622,507.776 607.692,517.132 606.419,497.04 	"/>
	<polygon fill="#FEE0BC" points="587.324,498.957 606.419,497.04 607.692,517.132 	"/>
	<polygon fill="#E8AF8F" points="548.676,490.138 587.324,498.957 587.324,525.106 	"/>
	<polygon fill="#F8C6A7" points="529.716,482.547 548.676,490.138 546.067,518.358 	"/>
	<polygon fill="#FAC8A6" points="520.608,497.04 529.716,482.547 546.067,518.358 	"/>
	<polygon fill="#DAA47C" points="546.067,518.363 522.465,513.726 499.127,509.134 494.378,508.203 494.378,506.972 
		520.605,497.041 	"/>
	<polygon fill="#A07A62" points="502.201,546.273 494.378,550.616 494.378,529.167 	"/>
	<polygon fill="#B58461" points="502.204,546.271 542.08,551.179 546.067,518.358 	"/>
	<polygon fill="#8A684E" points="502.201,546.273 494.378,529.167 494.378,516.062 	"/>
	<polygon fill="#92684B" points="522.475,513.716 522.465,513.726 502.201,546.273 494.378,516.062 494.378,508.203 
		499.127,509.134 	"/>
	<polygon fill="#976344" points="546.067,518.358 522.471,513.72 502.204,546.271 	"/>
	<polygon fill="#F9D7B1" points="548.676,490.138 587.324,525.106 546.067,518.358 	"/>
	<polygon fill="#C89A70" points="546.067,518.358 587.324,525.106 567.999,546.271 	"/>
	<polygon fill="#CD9B71" points="542.08,551.179 567.999,546.271 546.067,518.358 	"/>
	<polygon fill="#F0C4A0" points="587.324,498.957 607.692,517.132 587.324,525.106 	"/>
	<polygon fill="#F1DEB7" points="639.622,507.776 624.593,574.108 607.692,517.132 	"/>
	<polygon fill="#E5C59C" points="624.593,574.108 584.563,633.001 616.691,547.471 	"/>
	<polygon fill="#EFD2A4" points="607.692,517.132 587.324,525.106 616.691,547.471 	"/>
	<polygon fill="#C89E73" points="567.999,546.271 587.324,525.106 583.413,578.019 	"/>
	<polygon fill="#F3CBA8" points="567.999,546.271 546.067,595.043 583.413,578.019 	"/>
	<polygon fill="#F0CEA9" points="587.324,525.106 616.691,547.471 583.413,578.019 	"/>
	<polygon fill="#D8B78F" points="616.691,547.471 583.413,578.019 584.563,633.001 	"/>
	<polygon fill="#D2A981" points="546.067,595.043 583.413,578.019 584.563,633.001 	"/>
	<polygon fill="#E3A394" points="507.355,561.687 494.378,556.387 494.378,550.616 502.201,546.273 	"/>
	<polygon fill="#D6847A" points="507.355,561.687 494.378,563.104 494.378,556.387 	"/>
	<polygon fill="#F6CEBD" points="567.999,546.271 528.2,589.292 542.08,551.179 	"/>
	<polygon fill="#FEEACE" points="546.067,595.043 567.999,546.271 528.2,589.292 	"/>
	<polygon fill="#E8C4A3" points="546.067,595.043 512.786,627.48 542.08,648.186 	"/>
	<polygon fill="#C6A27B" points="546.067,595.043 584.563,633.001 542.08,648.186 	"/>
	<polygon fill="#BB9C80" points="542.08,648.186 539.473,689.824 570.53,661.758 	"/>
	<polygon fill="#998268" points="584.563,633.001 570.53,661.758 542.08,648.186 	"/>
	<polygon fill="#86694E" points="539.473,689.824 497.877,700.867 505.194,666.129 	"/>
	<polygon fill="#927558" points="505.194,666.129 542.08,648.186 539.473,689.824 	"/>
	<polygon fill="#C79E79" points="512.786,627.48 505.194,666.129 542.08,648.186 	"/>
	<polygon fill="#EEC2A5" points="546.067,595.045 494.378,607.854 494.378,607.494 528.196,589.293 	"/>
	<polygon fill="#DFA698" points="507.354,561.686 542.08,551.179 502.204,546.271 	"/>
	<polygon fill="#F5B0AF" points="528.196,589.293 494.378,593.903 494.378,567.594 	"/>
	<polygon fill="#F7BBC0" points="528.196,589.293 494.378,567.594 494.378,563.104 507.355,561.687 	"/>
	<polygon fill="#FAD4CD" points="507.354,561.686 542.08,551.179 528.2,589.292 	"/>
	<polygon fill="#C3A28A" points="528.196,589.293 494.378,607.494 494.378,593.903 	"/>
	<polygon fill="#95795F" points="505.191,666.131 497.877,700.869 494.378,688.787 494.378,663.592 	"/>
	<polygon fill="#9E704F" points="512.782,627.482 494.378,651.536 494.378,609.362 	"/>
	<polygon fill="#AC8767" points="512.782,627.482 505.191,666.131 494.378,663.592 494.378,651.536 	"/>
	<polygon fill="#AC8460" points="546.067,595.045 512.782,627.482 494.378,609.362 494.378,607.854 	"/>
	<polygon fill="#C5B4A2" points="540.546,382.167 535.177,391.216 556.957,403.523 	"/>
	<polygon fill="#FFF9E7" points="576.741,374.172 600.958,391.216 579.808,401.798 	"/>
	<polygon fill="#FAD5C2" points="556.957,403.523 535.177,391.216 557.786,399.735 579.808,401.798 	"/>
	<polygon fill="#FFFAEC" points="556.957,403.523 600.958,391.216 579.808,401.798 	"/>
	<polygon fill="#E5CDB7" points="535.177,391.216 551.196,373.271 540.546,382.167 	"/>
	<polygon fill="#CCC3B6" points="551.196,373.271 576.741,374.172 600.958,391.216 575.308,377.837 	"/>
	<polygon fill="#FFFFFF" points="550.253,399.735 551.196,373.271 535.177,391.216 	"/>
	<ellipse opacity="0.4" fill="#75987D" cx="565.083" cy="388.397" rx="12.666" ry="12.273"/>
	<ellipse opacity="0.3" fill="#FFFFFF" cx="569.453" cy="383.02" rx="0.994" ry="1.591"/>
	<ellipse opacity="0.3" fill="#FFFFFF" cx="566.405" cy="382.416" rx="0.994" ry="1.591"/>
	<ellipse opacity="0.3" fill="#FFFFFF" cx="573.093" cy="384.228" rx="1.697" ry="1.591"/>
	<circle cx="565.085" cy="387.985" r="3.374"/>
</g>
<polygon fill="#FFFFFF" points="479.073,273.976 309.53,443.294 478.86,612.624 434.248,612.613 389.657,612.613 264.928,487.896 
	140.422,612.629 50.645,612.624 220.326,443.294 51.019,273.976 95.621,273.976 140.212,273.976 264.928,398.692 389.293,273.976 
	434.248,273.976 "/>
<polygon fill="#EDEDED" points="175.263,309.026 130.664,353.626 51.019,273.976 140.212,273.976 "/>
<polygon fill="#EDEDED" points="354.535,577.493 398.763,532.527 478.86,612.624 389.664,612.629 "/>
<rect x="488.218" width="6.16" height="799.808"/>
</svg>
