<?xml version="1.0" encoding="utf-8"?>
<!-- Generator: Adobe Illustrator 16.0.0, SVG Export Plug-In . SVG Version: 6.00 Build 0)  -->
<!DOCTYPE svg PUBLIC "-//W3C//DTD SVG 1.1//EN" "http://www.w3.org/Graphics/SVG/1.1/DTD/svg11.dtd">
<svg version="1.1" id="Layer_1" xmlns="http://www.w3.org/2000/svg" xmlns:xlink="http://www.w3.org/1999/xlink" x="0px" y="0px"
	 width="800px" height="800px" viewBox="0 0 800 800" enable-background="new 0 0 800 800" xml:space="preserve">
<g>
	<polygon fill="#0B0F10" points="520.454,56.543 554.782,61.246 504.937,112.033 	"/>
	<polygon fill="#0B0E10" points="554.782,61.246 612.154,61.246 517.632,136.016 	"/>
	<polygon fill="#14181C" points="612.154,61.246 639.25,96 646.013,120.027 	"/>
	<polygon fill="#141719" points="646.013,120.027 626.263,136.016 664.353,169.875 	"/>
	<polygon fill="#0E1012" points="612.154,61.246 517.632,136.016 646.013,120.027 	"/>
	<polygon fill="#0E1215" points="520.458,56.547 504.938,112.034 494.378,60.958 494.378,43.512 	"/>
	<polygon fill="#0B0F10" points="504.937,112.033 517.632,136.016 554.782,61.246 	"/>
	<polygon fill="#181717" points="664.353,169.875 671.878,196.68 602.748,218.781 	"/>
	<polygon fill="#0F1111" points="602.748,218.781 626.263,136.016 664.353,169.875 	"/>
	<polygon fill="#141617" points="646.013,120.027 517.632,136.016 626.263,136.016 	"/>
	<polygon fill="#111213" points="517.632,136.016 554.782,192.448 626.263,136.016 	"/>
	<polygon fill="#151514" points="626.263,136.016 554.782,192.448 602.748,218.781 	"/>
	<polygon fill="#121011" points="671.878,196.68 693.979,257.342 649.305,293.552 	"/>
	<polygon fill="#0B1113" points="504.938,112.034 494.378,87.586 494.378,60.958 	"/>
	<polygon fill="#181617" points="554.778,192.447 494.378,223.58 494.378,221.305 517.635,136.014 	"/>
	<polygon fill="#141616" points="517.635,136.014 494.378,149.271 494.378,123.178 504.938,112.034 	"/>
	<polygon fill="#1F201F" points="517.635,136.014 494.378,221.305 494.378,149.271 	"/>
	<polygon fill="#352A27" points="564.896,278.508 494.378,224.502 494.378,223.58 554.778,192.447 	"/>
	<polygon fill="#161413" points="671.878,196.68 602.748,218.781 649.305,293.552 	"/>
	<polygon fill="#1A1715" points="693.979,257.342 681.752,350.924 649.305,293.552 	"/>
	<polygon fill="#121313" points="681.752,350.924 652.126,404.533 649.305,293.552 	"/>
	<polygon fill="#1A1514" points="649.305,293.552 586.916,273.801 602.748,218.781 	"/>
	<polygon fill="#26201B" points="602.748,218.781 554.782,192.448 564.894,278.504 	"/>
	<polygon fill="#241D19" points="564.894,278.504 586.916,273.801 602.748,218.781 	"/>
	<polygon fill="#44261A" points="652.126,404.533 637.312,511.752 658.71,458.141 	"/>
	<polygon fill="#68392D" points="665.64,380.08 677.99,386.193 674.463,406.414 	"/>
	<polygon fill="#944E35" points="674.463,406.414 662.236,438.627 665.64,380.08 	"/>
	<polygon fill="#AF846C" points="662.236,438.627 658.71,458.141 674.463,406.414 	"/>
	<polygon fill="#8D664F" points="665.64,380.08 652.126,404.533 662.236,438.627 	"/>
	<polygon fill="#AA846A" points="652.126,404.533 662.236,438.627 658.71,458.141 	"/>
	<polygon fill="#423530" points="637.312,511.752 639.585,579.781 652.126,504.541 	"/>
	<polygon fill="#624332" points="652.126,504.541 658.71,458.141 637.312,511.752 	"/>
	<polygon fill="#49372A" points="639.585,579.781 628.299,620.225 606.98,597.338 	"/>
	<polygon fill="#3E2F26" points="628.299,620.225 599.457,636.527 606.98,597.338 	"/>
	<polygon fill="#644028" points="639.585,579.781 637.312,511.752 613.878,559.717 	"/>
	<polygon fill="#0F1315" points="504.938,112.034 494.378,123.178 494.378,87.586 	"/>
	<polygon fill="#8D6B57" points="564.896,278.508 494.378,308.754 494.378,224.502 	"/>
	<polygon fill="#503627" points="649.305,293.552 652.126,404.533 632.376,301.546 	"/>
	<polygon fill="#66493A" points="649.305,293.552 586.916,273.801 632.376,301.546 	"/>
	<polygon fill="#694E42" points="586.916,273.801 564.894,278.504 583.821,290.496 	"/>
	<polygon fill="#765540" points="632.376,301.546 586.916,273.801 583.821,290.496 	"/>
	<polygon fill="#A67F62" points="583.823,290.492 494.378,309.618 494.378,308.754 564.896,278.508 	"/>
	<polygon fill="#9B755D" points="632.376,301.546 589.347,324.119 583.821,290.496 	"/>
	<polygon fill="#B68B74" points="589.343,324.123 537.087,316.923 494.378,311.042 494.378,309.618 583.823,290.492 	"/>
	<polygon fill="#8D6A53" points="632.376,301.546 589.347,324.119 638.629,334.158 	"/>
	<polygon fill="#795F4D" points="652.126,404.533 635.667,393.246 638.629,334.158 	"/>
	<polygon fill="#8B6652" points="638.629,334.158 589.347,324.119 610.744,350.924 	"/>
	<polygon fill="#705243" points="638.629,334.158 610.744,350.924 636.668,373.265 	"/>
	<polygon fill="#CDA38B" points="537.087,316.923 494.378,353.203 494.378,311.042 	"/>
	<polygon fill="#B18B75" points="589.347,324.119 551.491,341.519 537.09,316.92 	"/>
	<polygon fill="#BD8F79" points="537.087,316.923 522.338,357.193 494.378,358.466 494.378,353.203 	"/>
	<polygon fill="#AD876D" points="522.338,357.193 507.914,386.658 494.378,367.836 494.378,358.466 	"/>
	<polygon fill="#AD846E" points="537.09,316.92 551.491,341.519 522.335,357.194 	"/>
	<polygon fill="#A27C64" points="610.744,350.924 551.491,341.519 589.347,324.119 	"/>
	<polygon fill="#654B3D" points="636.668,373.265 635.667,393.246 618.11,383.255 	"/>
	<polygon fill="#926D54" points="652.126,404.533 635.667,393.246 622.655,446.541 	"/>
	<polygon fill="#A88364" points="652.126,404.533 622.655,446.541 645.244,454.338 	"/>
	<polygon fill="#C09071" points="645.244,454.338 637.312,511.752 622.655,446.541 	"/>
	<polygon fill="#A7745A" points="507.914,386.663 522.335,404.533 509.169,440.271 	"/>
	<polygon fill="#D7B191" points="507.914,386.658 494.378,395.06 494.378,367.836 	"/>
	<polygon fill="#DCA389" points="509.163,440.268 494.378,411.736 494.378,395.06 507.914,386.658 	"/>
	<polygon fill="#85604B" points="507.914,386.663 529.154,369.345 524.216,386.663 	"/>
	<polygon fill="#4C392F" points="618.11,383.255 610.744,350.924 636.668,373.265 	"/>
	<polygon fill="#8D6957" points="618.11,383.255 619.208,409.354 635.667,393.246 	"/>
	<polygon fill="#A67F64" points="619.208,409.354 622.655,446.541 635.667,393.246 	"/>
	<polygon fill="#A87B63" points="619.208,409.354 596.399,422.168 601.103,432.277 	"/>
	<polygon fill="#A87C62" points="596.399,422.168 571.007,422.168 601.103,432.277 	"/>
	<polygon fill="#392920" points="610.744,350.924 593.814,368.324 618.11,383.255 	"/>
	<polygon fill="#59453C" points="610.744,350.924 571.007,359.624 593.814,368.324 	"/>
	<polygon fill="#785645" points="529.154,369.345 507.914,386.663 522.335,357.194 	"/>
	<polygon fill="#332723" points="571.007,359.624 551.491,341.519 610.744,350.924 	"/>
	<polygon fill="#2C221F" points="571.007,359.624 547.259,361.74 551.491,341.519 	"/>
	<polygon fill="#41312A" points="551.491,341.519 547.259,361.74 529.154,369.345 	"/>
	<polygon fill="#52382C" points="551.491,341.519 522.335,357.194 529.154,369.345 	"/>
	<polygon fill="#7D5F4F" points="618.11,383.255 593.814,368.324 605.962,386.663 	"/>
	<polygon fill="#563429" points="593.814,368.324 571.007,359.624 564.894,370.674 	"/>
	<polygon fill="#8D6B5A" points="605.962,386.663 619.208,409.354 618.11,383.255 	"/>
	<polygon fill="#9F7163" points="571.007,422.168 539.853,409.354 553.137,425.695 	"/>
	<polygon fill="#462B21" points="564.894,370.674 571.007,359.624 547.259,361.74 	"/>
	<polygon fill="#745142" points="529.154,369.345 537.09,377.493 524.216,386.663 	"/>
	<polygon fill="#69473B" points="547.259,361.74 537.09,377.493 529.154,369.345 	"/>
	<polygon fill="#624033" points="547.259,361.74 564.894,370.674 537.09,377.493 	"/>
	<polygon fill="#8A624C" points="507.914,386.663 524.216,386.663 522.335,404.533 	"/>
	<polygon fill="#9A6F5B" points="522.335,404.533 539.853,409.354 526.097,422.168 	"/>
	<polygon fill="#A37059" points="526.097,422.168 522.335,404.533 509.169,440.271 	"/>
	<polygon fill="#C79B7D" points="601.103,432.277 619.208,409.354 622.655,446.541 	"/>
	<polygon fill="#A27A62" points="601.103,432.277 571.007,422.168 553.137,425.695 	"/>
	<polygon fill="#9C6F5F" points="539.853,409.354 553.137,425.695 526.097,422.168 	"/>
	<polygon fill="#AF785C" points="526.097,422.168 509.169,440.271 531.093,466.135 	"/>
	<polygon fill="#D3A588" points="601.103,432.277 622.655,446.541 598.752,463.08 	"/>
	<polygon fill="#C69B84" points="601.103,432.277 553.137,425.695 574.769,456.025 	"/>
	<polygon fill="#B68468" points="553.137,425.695 526.097,422.168 531.093,466.135 	"/>
	<polygon fill="#D1A182" points="553.137,425.695 574.769,456.025 531.093,466.135 	"/>
	<polygon fill="#CDA07C" points="622.655,446.541 637.312,511.752 612.584,509.164 	"/>
	<polygon fill="#C19771" points="637.312,511.752 612.584,509.164 598.752,552.43 	"/>
	<polygon fill="#B68A65" points="637.312,511.752 598.752,552.43 613.878,559.717 	"/>
	<polygon fill="#6C4A33" points="639.585,579.781 613.878,559.717 606.98,597.338 	"/>
	<polygon fill="#C89C70" points="613.878,559.717 598.752,552.43 586.055,587.932 	"/>
	<polygon fill="#372318" points="599.457,636.527 582.058,668.111 559.485,647.656 	"/>
	<polygon fill="#A27B56" points="586.055,587.932 606.98,597.338 613.878,559.717 	"/>
	<polygon fill="#9C7758" points="586.055,587.932 581.823,624.379 606.98,597.338 	"/>
	<polygon fill="#533A25" points="606.98,597.338 599.457,636.527 581.823,624.379 	"/>
	<polygon fill="#634630" points="599.457,636.527 581.823,624.379 559.485,647.656 	"/>
	<polygon fill="#E1AC8C" points="622.655,446.541 598.752,463.08 612.584,509.164 	"/>
	<polygon fill="#D5A588" points="601.103,432.277 574.769,456.025 598.752,463.08 	"/>
	<polygon fill="#DFA88C" points="574.769,456.025 531.093,466.135 579.354,479.146 	"/>
	<polygon fill="#CD9073" points="531.093,466.135 539.617,487.533 550.991,471.5 	"/>
	<polygon fill="#E2AE91" points="598.752,463.08 574.769,456.025 579.354,479.146 	"/>
	<polygon fill="#E7B095" points="598.752,463.08 579.354,479.146 612.584,509.164 	"/>
	<polygon fill="#ECB795" points="612.584,509.164 579.354,479.146 583.233,529.621 	"/>
	<polygon fill="#E2A88C" points="579.354,479.146 550.991,471.5 559.485,519.275 	"/>
	<polygon fill="#D99979" points="550.991,471.5 539.617,487.533 559.485,519.275 	"/>
	<polygon fill="#946F62" points="593.814,368.324 564.894,370.674 605.962,386.663 	"/>
	<polygon fill="#6F483D" points="564.894,370.674 524.216,386.663 537.09,377.493 	"/>
	<polygon fill="#926753" points="524.216,386.663 522.335,404.533 539.853,409.354 	"/>
	<polygon fill="#795447" points="619.208,409.354 596.399,422.168 596.399,405.943 	"/>
	<polygon fill="#6D4C3E" points="596.399,405.943 619.208,409.354 605.962,386.663 	"/>
	<polygon fill="#916E60" points="605.962,386.663 564.894,370.674 583.939,385.096 	"/>
	<polygon fill="#886357" points="564.894,370.674 524.216,386.663 531.398,397.086 	"/>
	<polygon fill="#825B48" points="531.398,397.086 539.853,409.354 548.982,404.533 	"/>
	<polygon fill="#866257" points="564.894,370.674 531.398,397.086 554.624,386.663 	"/>
	<polygon fill="#A3766B" points="571.007,422.168 548.982,404.533 539.853,409.354 	"/>
	<polygon fill="#855D50" points="596.399,405.943 571.007,422.168 596.399,422.168 	"/>
	<polygon fill="#8B615A" points="556.645,410.668 586.924,411.998 571.007,422.168 	"/>
	<polygon fill="#6C4D42" points="600.336,398.008 583.939,385.096 605.962,386.663 	"/>
	<polygon fill="#E5B58D" points="612.584,509.164 583.233,529.621 598.752,552.43 	"/>
	<polygon fill="#E9AF8F" points="579.354,479.146 559.485,519.275 583.233,529.621 	"/>
	<polygon fill="#D99874" points="539.617,487.533 532.916,509.164 559.485,519.275 	"/>
	<polygon fill="#CF9069" points="532.916,509.164 514.576,513.162 535.032,527.977 	"/>
	<polygon fill="#DDAC83" points="586.055,587.932 598.752,552.43 583.233,529.621 	"/>
	<polygon fill="#E8AE89" points="583.233,529.621 559.485,519.275 563.248,542.162 	"/>
	<polygon fill="#E4A580" points="559.485,519.275 532.916,509.164 535.032,527.977 	"/>
	<polygon fill="#E7AE8A" points="559.485,519.275 535.032,527.977 563.248,542.162 	"/>
	<polygon fill="#E4AD85" points="583.233,529.621 563.248,542.162 584.553,556.9 	"/>
	<polygon fill="#C0866B" points="531.093,466.135 526.097,495.389 539.617,487.533 	"/>
	<polygon fill="#CA8771" points="509.169,440.271 506.582,484.947 531.093,466.135 	"/>
	<polygon fill="#CA8F76" points="526.097,495.389 506.582,484.947 531.093,466.135 	"/>
	<polygon fill="#E9A082" points="509.163,440.268 506.584,484.949 494.378,429.053 494.378,411.736 	"/>
	<polygon fill="#B67F65" points="539.617,487.533 526.097,495.389 532.916,509.164 	"/>
	<polygon fill="#804936" points="526.097,495.389 514.576,513.162 532.916,509.164 	"/>
	<polygon fill="#D29A7F" points="526.097,495.389 506.582,484.947 507.914,502.346 	"/>
	<polygon fill="#82513B" points="526.097,495.389 507.914,502.346 514.576,513.162 	"/>
	<polygon fill="#FFE7BF" points="506.584,484.949 494.378,484.949 494.378,429.053 	"/>
	<polygon fill="#9B6E55" points="535.032,527.977 539.617,561.285 563.248,542.162 	"/>
	<polygon fill="#967157" points="584.553,556.9 563.248,542.162 559.485,576.018 	"/>
	<polygon fill="#977358" points="584.553,556.9 559.485,576.018 586.055,587.932 	"/>
	<polygon fill="#A17B61" points="559.485,576.018 539.617,561.285 563.248,542.162 	"/>
	<polygon fill="#BB9072" points="559.485,576.018 586.055,587.932 563.248,620.225 	"/>
	<polygon fill="#A37B5A" points="586.055,587.932 563.248,620.225 581.823,624.379 	"/>
	<polygon fill="#977251" points="581.823,624.379 559.485,647.656 563.248,620.225 	"/>
	<polygon fill="#DAAB86" points="559.485,576.018 527.664,611.131 563.248,620.225 	"/>
	<polygon fill="#C89A71" points="563.248,620.225 559.485,647.656 519.513,639.031 	"/>
	<polygon fill="#2E2C26" points="582.058,668.111 628.299,620.225 599.457,636.527 	"/>
	<polygon fill="#443227" points="582.058,668.111 557.134,697.973 559.485,647.656 	"/>
	<polygon fill="#8A6748" points="557.134,697.973 559.485,647.656 519.513,639.031 	"/>
	<polygon fill="#B28761" points="563.248,620.225 527.664,611.131 519.513,639.031 	"/>
	<polygon fill="#9D7C62" points="527.658,611.129 519.514,639.029 494.378,622.471 494.378,615.762 	"/>
	<polygon fill="#473222" points="519.514,639.029 494.378,646.859 494.378,622.471 	"/>
	<polygon fill="#422D1C" points="557.134,697.973 517.317,714.588 526.096,678.221 	"/>
	<polygon fill="#99775A" points="519.513,639.031 526.096,678.221 557.134,697.973 	"/>
	<polygon fill="#473323" points="526.095,678.227 517.32,714.588 494.378,714.588 494.378,701.658 	"/>
	<polygon fill="#8D684E" points="526.095,678.227 494.378,661.527 494.378,646.859 519.514,639.029 	"/>
	<polygon fill="#A37F64" points="526.095,678.227 494.378,684.504 494.378,661.527 	"/>
	<polygon fill="#5C4434" points="526.095,678.227 494.378,701.658 494.378,684.504 	"/>
	<polygon fill="#E8AE92" points="506.584,484.949 494.39,514.891 494.378,514.879 494.378,484.949 	"/>
	<polygon fill="#D8A388" points="507.914,502.346 506.582,484.947 494.393,514.887 	"/>
	<polygon fill="#A37C62" points="507.914,502.346 514.576,513.162 494.393,514.887 	"/>
	<polygon fill="#704C36" points="494.39,514.891 494.378,515.277 494.378,514.926 	"/>
	<polygon fill="#8E6D58" points="514.577,513.164 494.378,561.416 494.378,515.277 494.39,514.891 	"/>
	<polygon fill="#674333" points="535.032,527.977 514.576,513.162 510.733,556.9 	"/>
	<polygon fill="#805948" points="535.032,527.977 539.617,561.285 510.733,556.9 	"/>
	<polygon fill="#7A5742" points="514.577,513.164 510.738,556.9 494.378,564.357 494.378,561.416 	"/>
	<polygon fill="#A66A5B" points="559.485,576.018 531.093,574.139 539.617,561.285 	"/>
	<polygon fill="#E09086" points="559.485,576.018 531.093,574.139 527.664,611.131 	"/>
	<polygon fill="#F4A59D" points="531.093,574.139 506.816,581.977 527.664,611.131 	"/>
	<polygon fill="#A57161" points="539.617,561.285 510.733,556.9 531.093,574.139 	"/>
	<polygon fill="#CB8778" points="510.738,556.9 506.817,581.979 494.378,566.891 494.378,564.357 	"/>
	<polygon fill="#C18271" points="531.093,574.139 506.816,581.977 510.733,556.9 	"/>
	<polygon fill="#EF9D98" points="527.658,611.129 494.378,615.762 494.378,602.832 506.817,581.979 	"/>
	<polygon fill="#F6B0B2" points="506.817,581.979 494.378,602.832 494.378,581.5 	"/>
	<polygon fill="#C3786F" points="506.817,581.979 494.378,581.5 494.378,566.891 	"/>
	<polygon fill="#EEDFD8" points="531.398,397.086 554.624,386.663 583.939,385.096 600.336,398.008 596.399,405.943 
		586.924,411.998 556.645,410.668 548.982,404.533 	"/>
	<circle fill="#544136" cx="570.456" cy="395.598" r="15.832"/>
	<circle fill="#291E15" cx="570.457" cy="395.598" r="5.309"/>
	<ellipse opacity="0.2" fill="#FFFFFF" cx="563.638" cy="390.288" rx="1.51" ry="3.037"/>
	<ellipse opacity="0.2" fill="#FFFFFF" cx="568.642" cy="389.402" rx="3.143" ry="2.149"/>
	<polygon fill="#2F1F16" points="583.939,385.096 554.624,386.663 568.106,380.08 	"/>
	<polygon fill="#A38C7F" points="568.106,380.08 564.894,370.674 583.939,385.096 	"/>
	<polygon fill="#9C7E73" points="568.106,380.08 564.894,370.674 554.624,386.663 	"/>
	<polygon fill="#C0B7B4" points="531.398,397.086 548.982,404.533 545.6,390.714 	"/>
	<polygon fill="#DCC9BE" points="600.336,398.008 596.399,405.943 586.924,411.998 	"/>
	<polygon opacity="0.5" fill="#DCC9BE" points="583.939,385.096 596.399,405.943 600.336,398.008 	"/>
</g>
<g>
	
		<rect x="1336.714" y="-58.044" transform="matrix(0.7071 0.7071 -0.7071 0.7071 754.0641 -812.3378)" width="41.885" height="1124.308"/>
	
		<rect x="1479.326" y="-81.799" transform="matrix(0.7071 0.7071 -0.7071 0.7071 779.0576 -920.1462)" width="41.887" height="1124.307"/>
	
		<rect x="1621.939" y="-105.557" transform="matrix(0.7071 0.7071 -0.7071 0.7071 804.0034 -1027.9312)" width="41.886" height="1124.309"/>
	
		<rect x="1764.554" y="-129.313" transform="matrix(0.7071 0.7071 -0.7071 0.7071 828.9729 -1135.7285)" width="41.885" height="1124.309"/>
	
		<rect x="1907.165" y="-153.068" transform="matrix(0.7071 0.7071 -0.7071 0.7071 854.024 -1243.5775)" width="41.886" height="1124.306"/>
	
		<rect x="2049.779" y="-176.825" transform="matrix(0.7071 0.7071 -0.7071 0.7071 878.9692 -1351.3606)" width="41.885" height="1124.308"/>
	
		<rect x="2192.391" y="-200.581" transform="matrix(0.7071 0.7071 -0.7071 0.7071 903.9412 -1459.1611)" width="41.886" height="1124.308"/>
	
		<rect x="2335.005" y="-224.336" transform="matrix(0.7071 0.7071 -0.7071 0.7071 928.9452 -1566.9858)" width="41.886" height="1124.307"/>
	
		<rect x="2477.618" y="-248.094" transform="matrix(0.7071 0.7071 -0.7071 0.7071 953.7872 -1674.6868)" width="41.884" height="1124.309"/>
</g>
<polygon fill="none" points="2125.292,589.991 2109.813,587.766 2121.809,666.484 2105.964,678.033 2133.898,686.899 
	1757.396,686.899 1757.396,140.312 2120.802,140.312 2102.74,228.767 2148.277,266.446 2115.096,316.691 2143.305,381.975 
	2143.305,416.559 2138.469,490.104 2130.675,499.06 2148.914,515.767 2134.979,551.77 2134.979,572.313 "/>
<polygon fill="#FFFFFF" points="2081.891,314.571 2052.278,314.571 1969.447,397.393 1886.626,314.571 1857.015,314.571 
	1827.596,314.781 1947.643,434.501 1947.512,436.379 1947.445,438.135 1947.445,478.635 1947.445,538.223 1989.331,538.466 
	1989.331,476.516 1989.331,445.236 1989.331,437.515 2111.437,314.636 "/>
<polygon fill="#E0E0E0" points="2052.278,314.571 2111.437,314.636 1947.445,478.635 1947.643,434.501 1939.966,426.845 "/>
<g>
	<defs>
		<rect id="SVGID_1_" y="0.192" width="488.218" height="799.808"/>
	</defs>
	<clipPath id="SVGID_2_">
		<use xlink:href="#SVGID_1_"  overflow="visible"/>
	</clipPath>
	<g clip-path="url(#SVGID_2_)">
		
			<rect x="-528.686" y="-204.667" transform="matrix(0.7071 0.7071 -0.7071 0.7071 137.3 468.7099)" fill="#9D9D9C" width="63.072" height="1209.525"/>
		
			<rect x="-349.707" y="-204.667" transform="matrix(0.7071 0.7071 -0.7071 0.7071 189.7188 342.1525)" fill="#9D9D9C" width="63.072" height="1209.526"/>
		
			<rect x="-170.728" y="-204.667" transform="matrix(0.7071 0.7071 -0.7071 0.7071 242.1382 215.6006)" fill="#9D9D9C" width="63.072" height="1209.526"/>
		
			<rect x="8.251" y="-204.667" transform="matrix(0.7071 0.7071 -0.7071 0.7071 294.5571 89.0461)" fill="#9D9D9C" width="63.072" height="1209.525"/>
		
			<rect x="187.229" y="-204.666" transform="matrix(0.7071 0.7071 -0.7071 0.7071 346.9806 -37.5063)" fill="#9D9D9C" width="63.071" height="1209.524"/>
		
			<rect x="366.209" y="-204.667" transform="matrix(0.7071 0.7071 -0.7071 0.7071 399.4012 -164.0629)" fill="#9D9D9C" width="63.071" height="1209.526"/>
		
			<rect x="545.188" y="-204.666" transform="matrix(0.7071 0.7071 -0.7071 0.7071 451.814 -290.6174)" fill="#9D9D9C" width="63.072" height="1209.524"/>
		
			<rect x="724.168" y="-204.667" transform="matrix(0.7071 0.7071 -0.7071 0.7071 504.242 -417.175)" fill="#9D9D9C" width="63.071" height="1209.525"/>
		
			<rect x="903.146" y="-204.667" transform="matrix(0.7071 0.7071 -0.7071 0.7071 556.6622 -543.7306)" fill="#9D9D9C" width="63.071" height="1209.525"/>
	</g>
</g>
<rect x="488.218" y="0.192" fill="#9D9D9C" width="6.16" height="799.808"/>
<polygon points="386.527,276.934 252.254,410.838 118.351,276.934 110.487,284.797 73.348,321.937 218.771,468.125 218.771,472.84 
	218.771,534.475 218.771,623.668 282.514,559.925 282.514,531.249 282.514,483.647 282.514,471.896 476.31,276.934 "/>
<polygon fill="#575756" points="282.514,559.925 282.514,623.668 218.771,623.668 "/>
<polygon fill="#575756" points="73.271,322.014 118.351,276.934 28.457,277.045 "/>
</svg>
