<?xml version="1.0" encoding="utf-8"?>
<!-- Generator: Adobe Illustrator 22.0.0, SVG Export Plug-In . SVG Version: 6.00 Build 0)  -->
<svg version="1.1" id="Layer_1" xmlns="http://www.w3.org/2000/svg" xmlns:xlink="http://www.w3.org/1999/xlink" x="0px" y="0px"
	 viewBox="0 0 200 100" style="enable-background:new 0 0 200 100;" xml:space="preserve">
<style type="text/css">
	.st0{fill:#E3E3E3;}
	.st1{fill:#272827;}
	.st2{fill:#FF007E;}
	.st3{fill:#9D9D9C;}
	.st4{fill:none;stroke:#000000;stroke-width:6;stroke-miterlimit:10;}
	.st5{fill:#00FF1B;}
	.st6{fill:#EDEDED;}
</style>
<g>
	<g>
		<circle class="st0" cx="99.567" cy="62.811" r="14.88"/>
	</g>
	<g>
		<circle class="st0" cx="99.567" cy="62.811" r="14.88"/>
	</g>
	<circle class="st1" cx="99.567" cy="36.288" r="8.434"/>
	<rect x="84.688" y="62.811" class="st0" width="29.759" height="17.662"/>
</g>
<g>
	<g>
		<circle class="st0" cx="61.291" cy="62.811" r="14.88"/>
	</g>
	<g>
		<circle class="st0" cx="61.291" cy="62.811" r="14.88"/>
	</g>
	<circle class="st2" cx="61.291" cy="36.288" r="8.434"/>
	<rect x="46.411" y="62.811" class="st0" width="29.759" height="17.662"/>
</g>
<g>
	<g>
		<circle class="st0" cx="23.014" cy="62.811" r="14.88"/>
	</g>
	<g>
		<circle class="st0" cx="23.014" cy="62.811" r="14.88"/>
	</g>
	<circle class="st3" cx="23.014" cy="36.288" r="8.434"/>
	<rect x="8.134" y="62.811" class="st0" width="29.759" height="17.662"/>
</g>
<circle class="st4" cx="176.12" cy="36.288" r="20.013"/>
<g>
	<g>
		<circle class="st0" cx="137.844" cy="62.811" r="14.88"/>
	</g>
	<g>
		<circle class="st0" cx="137.844" cy="62.811" r="14.88"/>
	</g>
	<circle class="st5" cx="137.844" cy="36.288" r="8.434"/>
	<rect x="122.964" y="62.811" class="st0" width="29.759" height="17.662"/>
</g>
<g>
	<g>
		<circle class="st0" cx="176.12" cy="62.811" r="14.88"/>
	</g>
	<circle class="st6" cx="176.12" cy="62.811" r="14.88"/>
	<circle class="st6" cx="176.12" cy="36.288" r="8.434"/>
	<rect x="161.241" y="62.811" class="st6" width="29.759" height="17.662"/>
</g>
</svg>
