<?xml version="1.0" encoding="utf-8"?>
<!-- Generator: Adobe Illustrator 22.0.0, SVG Export Plug-In . SVG Version: 6.00 Build 0)  -->
<svg version="1.1" id="Layer_1" xmlns="http://www.w3.org/2000/svg" xmlns:xlink="http://www.w3.org/1999/xlink" x="0px" y="0px"
	 viewBox="0 0 97.333 62.333" style="enable-background:new 0 0 97.333 62.333;" xml:space="preserve">
<style type="text/css">
	.st0{fill:none;}
	.st1{fill:#FF0000;}
	.st2{fill:#1D1D1B;}
	.st3{opacity:0.15;fill:url(#New_Pattern_2);}
</style>
<pattern  x="-2" y="-18.438" width="2" height="2" patternUnits="userSpaceOnUse" id="New_Pattern_2" viewBox="0 -2 2 2" style="overflow:visible;">
	<g>
		<rect y="-2" class="st0" width="2" height="2"/>
		<rect y="-2" class="st1" width="0.23" height="0.24"/>
		<rect y="-0.24" class="st1" width="0.23" height="0.24"/>
		<rect x="0.76" y="-1.24" class="st1" width="0.47" height="0.48"/>
		<rect x="1.76" y="-2" class="st1" width="0.24" height="0.24"/>
		<rect x="1.76" y="-0.24" class="st1" width="0.24" height="0.24"/>
		<rect y="-2" class="st1" width="0.23" height="0.24"/>
		<rect y="-0.24" class="st1" width="0.23" height="0.24"/>
		<rect x="1.76" y="-2" class="st1" width="0.24" height="0.24"/>
		<rect x="0.76" y="-1.24" class="st2" width="0.47" height="0.48"/>
		<rect x="1.76" y="-0.24" class="st1" width="0.24" height="0.24"/>
	</g>
</pattern>
<path class="st3" d="M52.263,33.719h12.96c9.145,0,16.559-7.414,16.559-16.559c0-9.145-7.413-16.559-16.559-16.559H0.744
	l14.258,9.162h35.402h14.82c4.098,0,7.418,3.312,7.418,7.396c0,4.089-3.321,7.401-7.418,7.401h-14.82h-8.868
	c-3.378,0-6.115,2.736-6.115,6.109c0,1.111,0.299,2.153,0.817,3.048c0.062,0.11,0.127,0.216,0.198,0.321
	c0.422,0.642,0.957,1.195,1.581,1.63l0.497,0.316L78.98,61.808H96L52.263,33.719z"/>
</svg>
