<?xml version="1.0" encoding="utf-8"?>
<!-- Generator: Adobe Illustrator 22.0.0, SVG Export Plug-In . SVG Version: 6.00 Build 0)  -->
<svg version="1.1" id="Layer_1" xmlns="http://www.w3.org/2000/svg" xmlns:xlink="http://www.w3.org/1999/xlink" x="0px" y="0px"
	 viewBox="0 0 50 7.583" style="enable-background:new 0 0 50 7.583;" xml:space="preserve">
<style type="text/css">
	.st0{fill:none;}
	.st1{fill:#1D1D1B;}
	.st2{fill:#FF0000;}
</style>
<rect x="0" y="0.001" class="st0" width="50" height="7.583"/>
<g>
	<polygon class="st1" points="19.471,2.569 19.471,2.571 16.136,2.571 15.406,2.05 15.406,2.047 18.741,2.047 	"/>
	<polygon class="st1" points="15.546,5.536 15.546,5.538 18.881,5.538 19.611,5.017 19.611,5.014 15.546,5.014 	"/>
	<polygon class="st1" points="19.611,4.055 19.611,3.531 15.546,3.531 15.546,4.053 15.546,4.055 	"/>
	<path class="st2" d="M3.943,3.936h0.739c0.521,0,0.944-0.423,0.944-0.944c0-0.521-0.423-0.944-0.944-0.944H1.005L1.818,2.57h2.019
		h0.845c0.234,0,0.423,0.189,0.423,0.422c0,0.233-0.189,0.422-0.423,0.422H3.837H3.331c-0.192,0-0.349,0.156-0.349,0.348
		c0,0.063,0.017,0.123,0.047,0.174C3.032,3.943,3.036,3.949,3.04,3.955c0.024,0.036,0.055,0.068,0.09,0.093l0.028,0.018l2.308,1.473
		h0.971L3.943,3.936z"/>
	<path class="st2" d="M22.782,3.936h0.739c0.522,0,0.944-0.423,0.944-0.944c0-0.521-0.423-0.944-0.944-0.944h-3.677l0.813,0.522
		h2.019h0.845c0.234,0,0.423,0.189,0.423,0.422c0,0.233-0.189,0.422-0.423,0.422h-0.845H22.17c-0.192,0-0.349,0.156-0.349,0.348
		c0,0.063,0.017,0.123,0.047,0.174c0.003,0.006,0.007,0.012,0.011,0.018c0.024,0.036,0.055,0.068,0.09,0.093l0.028,0.018
		l2.308,1.473h0.971L22.782,3.936z"/>
	<path class="st1" d="M14.477,4.022v0.992h-0.521h-1.248V5.013c-0.674,0-1.221-0.546-1.221-1.22c0-0.674,0.547-1.221,1.221-1.221
		V2.571h1.248h0.954l-0.718-0.524h-1.483c-0.247,0-0.482,0.051-0.695,0.144c-0.592,0.257-1.014,0.833-1.049,1.512
		c-0.001,0.029-0.002,0.059-0.002,0.09c0,0.03,0.001,0.06,0.002,0.089c0.034,0.671,0.446,1.242,1.028,1.502
		c0.002,0.001,0.003,0.002,0.006,0.002c0.217,0.097,0.456,0.151,0.71,0.151h1.769v0H15V3.51L14.477,4.022z"/>
	<path class="st1" d="M8.643,2.047H8.096c-0.964,0-1.746,0.782-1.746,1.746c0,0.964,0.782,1.745,1.746,1.745v0h0.547v0
		c0.964,0,1.746-0.781,1.746-1.745C10.388,2.829,9.606,2.047,8.643,2.047z M8.643,5.013L8.643,5.013l-0.547,0v0
		c-0.674,0-1.221-0.546-1.221-1.22c0-0.674,0.547-1.221,1.221-1.221h0.547c0.673,0,1.219,0.547,1.219,1.221
		C9.862,4.467,9.316,5.013,8.643,5.013z"/>
	<path class="st2" d="M42.833,3.936h0.739c0.521,0,0.944-0.423,0.944-0.944c0-0.521-0.423-0.944-0.944-0.944h-3.677l0.813,0.522
		h2.019h0.845c0.234,0,0.423,0.189,0.423,0.422c0,0.233-0.189,0.422-0.423,0.422h-0.845h-0.506c-0.193,0-0.349,0.156-0.349,0.348
		c0,0.063,0.017,0.123,0.047,0.174c0.003,0.006,0.007,0.012,0.011,0.018c0.024,0.036,0.055,0.068,0.09,0.093l0.028,0.018
		l2.308,1.473h0.971L42.833,3.936z"/>
	<path class="st1" d="M38.517,2.047h-0.546c-0.964,0-1.746,0.782-1.746,1.746c0,0.964,0.782,1.745,1.746,1.745v0h0.546v0
		c0.964,0,1.746-0.781,1.746-1.745C40.263,2.829,39.481,2.047,38.517,2.047z M38.517,5.013L38.517,5.013l-0.546,0v0
		c-0.674,0-1.221-0.546-1.221-1.22c0-0.674,0.547-1.221,1.221-1.221h0.546c0.674,0,1.22,0.547,1.22,1.221
		C39.737,4.467,39.191,5.013,38.517,5.013z"/>
	<g>
		<path class="st1" d="M30.12,2.047h-2.342c-0.247,0-0.475,0.095-0.645,0.251c-0.163,0.15-0.274,0.357-0.301,0.588v0.002v0.775
			l0.272,0.203l0.251,0.188V2.996c0-0.232,0.19-0.425,0.423-0.425h3.072V2.569L30.12,2.047z"/>
		<path class="st1" d="M27.563,5.538h2.342c0.247,0,0.475-0.095,0.645-0.251c0.163-0.15,0.274-0.356,0.301-0.588V4.697V3.922
			l-0.272-0.203l-0.251-0.188v1.058c0,0.232-0.19,0.425-0.423,0.425h-3.072v0.002L27.563,5.538z"/>
	</g>
	<path class="st1" d="M34.978,2.047h-3.677l0.813,0.523h2.864c0.233,0,0.423,0.189,0.423,0.422c0,0.233-0.189,0.423-0.423,0.423
		h-1.351h-1.784v2.123h0.587V3.938h1.812l0.736-0.002c0.369,0,0.69-0.213,0.845-0.522c0.064-0.126,0.1-0.27,0.1-0.423
		C35.922,2.47,35.499,2.047,34.978,2.047z"/>
	<polygon class="st1" points="48.995,2.05 48.879,2.047 44.814,2.047 44.698,2.05 45.428,2.571 46.585,2.571 46.585,5.538 
		47.109,5.538 47.107,2.571 48.265,2.571 	"/>
</g>
</svg>
