<?xml version="1.0" encoding="utf-8"?>
<!-- Generator: Adobe Illustrator 22.0.0, SVG Export Plug-In . SVG Version: 6.00 Build 0)  -->
<svg version="1.1" id="Layer_1" xmlns="http://www.w3.org/2000/svg" xmlns:xlink="http://www.w3.org/1999/xlink" x="0px" y="0px"
	 viewBox="0 0 1500 1608" style="enable-background:new 0 0 1500 1608;" xml:space="preserve">
<style type="text/css">
	.st0{fill:none;}
	.st1{fill:#FF0000;}
</style>
<g>
	<rect class="st0" width="1500" height="1000"/>
</g>
<path class="st1" d="M124,531L124,531c-3.866,0-7-3.134-7-7V112c0-3.866,3.134-7,7-7h0c3.866,0,7,3.134,7,7v412
	C131,527.866,127.866,531,124,531z"/>
<path d="M124,1191L124,1191c-3.866,0-7-3.134-7-7V772c0-3.866,3.134-7,7-7h0c3.866,0,7,3.134,7,7v412
	C131,1187.866,127.866,1191,124,1191z"/>
<path d="M124,635L124,635c-3.866,0-7-3.134-7-7v-56c0-3.866,3.134-7,7-7h0c3.866,0,7,3.134,7,7v56C131,631.866,127.866,635,124,635z
	"/>
<path class="st1" d="M124,1392L124,1392c-3.866,0-7-3.134-7-7v-161c0-3.866,3.134-7,7-7h0c3.866,0,7,3.134,7,7v161
	C131,1388.866,127.866,1392,124,1392z"/>
<path d="M124,71L124,71c-3.866,0-7-3.134-7-7V8c0-3.866,3.134-7,7-7h0c3.866,0,7,3.134,7,7v56C131,67.866,127.866,71,124,71z"/>
<path class="st1" d="M124,739L124,739c-3.866,0-7-3.134-7-7v-56c0-3.866,3.134-7,7-7h0c3.866,0,7,3.134,7,7v56
	C131,735.866,127.866,739,124,739z"/>
<path d="M124,1488L124,1488c-3.866,0-7-3.134-7-7v-56c0-3.866,3.134-7,7-7h0c3.866,0,7,3.134,7,7v56
	C131,1484.866,127.866,1488,124,1488z"/>
<path class="st1" d="M124,1576L124,1576c-3.866,0-7-3.134-7-7v-48c0-3.866,3.134-7,7-7h0c3.866,0,7,3.134,7,7v48
	C131,1572.866,127.866,1576,124,1576z"/>
</svg>
