<?xml version="1.0" encoding="utf-8"?>
<!-- Generator: Adobe Illustrator 22.0.0, SVG Export Plug-In . SVG Version: 6.00 Build 0)  -->
<svg version="1.1" id="Layer_1" xmlns="http://www.w3.org/2000/svg" xmlns:xlink="http://www.w3.org/1999/xlink" x="0px" y="0px"
	 viewBox="0 0 400 400" style="enable-background:new 0 0 400 400;" xml:space="preserve">
<style type="text/css">
	.st0{fill:#FFFFFF;}
	.st1{fill:none;stroke:#000000;stroke-miterlimit:10;}
	.st2{fill:none;}
	.st3{fill:#F6F6F6;}
	.st4{fill:#FAFAFA;}
</style>
<g>
	<polygon points="400.004,349.832 400.004,362.547 362.556,399.994 349.842,399.996 	"/>
	<polygon points="400.004,375.26 400.004,387.975 387.983,399.994 375.27,399.994 	"/>
	<g>
		<polygon points="400.004,146.44 400.004,159.155 159.156,400.002 146.442,400.002 		"/>
		<polygon points="400.004,171.869 400.004,184.582 184.584,400.002 171.87,400.002 		"/>
		<polygon points="400.004,197.295 400.004,209.996 210.005,399.996 197.297,400.002 		"/>
		<polygon points="400.003,222.709 400.004,235.422 235.432,399.994 222.718,399.994 		"/>
		<polygon points="400.004,121.014 400.003,133.727 133.729,400.002 121.016,400.002 		"/>
		<polygon points="400.003,44.745 400.004,57.458 57.46,400.002 44.746,400.002 		"/>
		<polygon points="400.004,19.317 400.004,32.031 32.032,400.002 19.318,400.002 		"/>
		<polygon points="400.003,95.6 400.004,108.299 108.302,400.002 95.602,400.002 		"/>
		<polygon points="400.004,70.172 400.003,82.886 82.888,400.002 70.174,400.002 		"/>
		<polygon points="400.004,273.564 400.004,286.279 286.287,399.994 273.572,399.994 		"/>
		<polygon points="400.004,248.137 400.004,260.852 260.859,399.996 248.147,399.994 		"/>
		<polygon points="400.004,298.992 400.003,311.691 311.699,399.994 299.001,399.994 		"/>
		<polygon points="400.003,324.406 400.004,337.119 337.128,399.994 324.414,399.994 		"/>
		<polygon points="126.947,-0.001 0.008,126.939 0.008,114.225 114.233,-0.001 		"/>
		<polygon points="101.52,-0.001 0.008,101.511 0.008,88.797 88.807,-0.002 		"/>
		<polygon points="400.004,-0.001 400.004,6.603 6.605,400.002 0.001,400.002 0.001,393.906 393.908,-0.001 		"/>
		<polygon points="152.375,-0.001 0.008,152.366 0.008,139.652 139.661,-0.002 		"/>
		<polygon points="177.803,-0.001 0.008,177.794 0.008,165.08 165.089,-0.001 		"/>
		<polygon points="76.107,-0.001 0.008,76.098 0.008,63.384 63.393,-0.001 		"/>
		<polygon points="50.679,-0.002 0.008,50.67 0.008,37.957 37.966,-0.001 		"/>
		<polygon points="25.251,-0.001 0.008,25.257 0.008,12.543 12.552,-0.002 		"/>
		<polygon points="355.768,-0.001 0.001,355.766 0.001,343.051 343.054,-0.001 		"/>
		<polygon points="330.34,-0.002 0,330.338 0.001,317.625 317.626,-0.001 		"/>
		<polygon points="304.912,-0.001 0.001,304.91 0.001,292.21 292.213,-0.002 		"/>
		<polygon points="381.195,-0.002 0,381.193 0.001,368.48 368.483,-0.001 		"/>
		<polygon points="203.216,-0.001 0.001,203.214 0.008,190.494 190.502,-0.001 		"/>
		<polygon points="228.645,-0.001 0.001,228.643 0.001,215.928 215.93,-0.001 		"/>
		<polygon points="279.499,-0.001 0.001,279.498 0.001,266.784 266.785,-0.001 		"/>
		<polygon points="254.07,-0.001 0.001,254.07 0.001,241.355 241.358,-0.001 		"/>
	</g>
</g>
</svg>
