<?xml version="1.0" encoding="utf-8"?>
<!-- Generator: Adobe Illustrator 16.0.0, SVG Export Plug-In . SVG Version: 6.00 Build 0)  -->
<!DOCTYPE svg PUBLIC "-//W3C//DTD SVG 1.1//EN" "http://www.w3.org/Graphics/SVG/1.1/DTD/svg11.dtd">
<svg version="1.1" id="Layer_1" xmlns="http://www.w3.org/2000/svg" xmlns:xlink="http://www.w3.org/1999/xlink" x="0px" y="0px"
	 width="400px" height="400px" viewBox="0 0 400 400" enable-background="new 0 0 400 400" xml:space="preserve">
<image overflow="visible" enable-background="new    " width="400" height="400" xlink:href="stripes-light.png"  transform="matrix(0.7071 0.7071 -0.7071 0.7071 936.3945 -32.4316)">
</image>
<image overflow="visible" enable-background="new    " width="400" height="400" xlink:href="stripes-light.png"  transform="matrix(0.7071 0.7071 -0.7071 0.7071 936.3945 -32.4316)">
</image>
<rect x="736.406" y="50.408" transform="matrix(0.7071 -0.7071 0.7071 0.7071 97.2025 735.4801)" fill="#FFFFFF" width="399.996" height="399.996"/>
<rect x="736.406" y="50.408" transform="matrix(0.7071 -0.7071 0.7071 0.7071 97.2025 735.4801)" fill="#FFFFFF" width="399.996" height="399.996"/>
<image overflow="visible" enable-background="new    " width="400" height="400" xlink:href="stripes-light.png"  transform="matrix(0.7071 0.7071 -0.7071 0.7071 76.3945 -1028.4316)">
</image>
<line fill="none" stroke="#000000" stroke-miterlimit="10" x1="-288.383" y1="-1010.575" x2="444.972" y2="-1010.579"/>
<line fill="none" stroke="#000000" stroke-miterlimit="10" x1="-293.6" y1="-1001.59" x2="446.889" y2="-1001.59"/>
<line fill="none" stroke="#000000" stroke-miterlimit="10" x1="-288.383" y1="-1019.559" x2="444.972" y2="-1019.563"/>
<line fill="none" stroke="#000000" stroke-miterlimit="10" x1="-293.6" y1="-1010.575" x2="446.889" y2="-1010.575"/>
<line fill="none" stroke="#000000" stroke-miterlimit="10" x1="-293.6" y1="-992.602" x2="446.889" y2="-992.602"/>
<line fill="none" stroke="#000000" stroke-miterlimit="10" x1="-293.6" y1="-983.613" x2="446.889" y2="-983.613"/>
<line fill="none" stroke="#000000" stroke-miterlimit="10" x1="-293.6" y1="-974.624" x2="446.889" y2="-974.624"/>
<line fill="none" stroke="#000000" stroke-miterlimit="10" x1="-293.6" y1="-965.635" x2="446.889" y2="-965.635"/>
<line fill="none" stroke="#000000" stroke-miterlimit="10" x1="-293.6" y1="-956.646" x2="446.889" y2="-956.646"/>
<line fill="none" stroke="#000000" stroke-miterlimit="10" x1="-293.6" y1="-947.658" x2="446.889" y2="-947.658"/>
<line fill="none" stroke="#000000" stroke-miterlimit="10" x1="-293.6" y1="-938.669" x2="446.889" y2="-938.669"/>
<line fill="none" stroke="#000000" stroke-miterlimit="10" x1="-293.6" y1="-929.68" x2="446.889" y2="-929.68"/>
<line fill="none" stroke="#000000" stroke-miterlimit="10" x1="-293.6" y1="-920.691" x2="446.889" y2="-920.691"/>
<line fill="none" stroke="#000000" stroke-miterlimit="10" x1="-293.6" y1="-911.703" x2="446.889" y2="-911.703"/>
<line fill="none" stroke="#000000" stroke-miterlimit="10" x1="-293.6" y1="-902.714" x2="446.889" y2="-902.714"/>
<line fill="none" stroke="#000000" stroke-miterlimit="10" x1="-293.6" y1="-893.725" x2="446.889" y2="-893.725"/>
<line fill="none" stroke="#000000" stroke-miterlimit="10" x1="-293.6" y1="-884.736" x2="446.889" y2="-884.736"/>
<line fill="none" stroke="#000000" stroke-miterlimit="10" x1="-293.6" y1="-875.748" x2="446.889" y2="-875.748"/>
<line fill="none" stroke="#000000" stroke-miterlimit="10" x1="-293.6" y1="-866.759" x2="446.889" y2="-866.759"/>
<line fill="none" stroke="#000000" stroke-miterlimit="10" x1="-293.6" y1="-857.77" x2="446.889" y2="-857.77"/>
<line fill="none" stroke="#000000" stroke-miterlimit="10" x1="-293.6" y1="-848.781" x2="446.889" y2="-848.781"/>
<line fill="none" stroke="#000000" stroke-miterlimit="10" x1="-293.6" y1="-839.792" x2="446.889" y2="-839.792"/>
<line fill="none" stroke="#000000" stroke-miterlimit="10" x1="-293.6" y1="-830.804" x2="446.889" y2="-830.804"/>
<line fill="none" stroke="#000000" stroke-miterlimit="10" x1="-293.6" y1="-821.815" x2="446.889" y2="-821.815"/>
<line fill="none" stroke="#000000" stroke-miterlimit="10" x1="-293.6" y1="-812.826" x2="446.889" y2="-812.826"/>
<line fill="none" stroke="#000000" stroke-miterlimit="10" x1="-293.6" y1="-803.837" x2="446.889" y2="-803.837"/>
<line fill="none" stroke="#000000" stroke-miterlimit="10" x1="-293.6" y1="-794.849" x2="446.889" y2="-794.849"/>
<line fill="none" stroke="#000000" stroke-miterlimit="10" x1="-293.6" y1="-785.86" x2="446.889" y2="-785.86"/>
<line fill="none" stroke="#000000" stroke-miterlimit="10" x1="-293.6" y1="-776.871" x2="446.889" y2="-776.871"/>
<line fill="none" stroke="#000000" stroke-miterlimit="10" x1="-293.6" y1="-767.882" x2="446.889" y2="-767.882"/>
<line fill="none" stroke="#000000" stroke-miterlimit="10" x1="-293.6" y1="-758.894" x2="446.889" y2="-758.894"/>
<line fill="none" stroke="#000000" stroke-miterlimit="10" x1="-293.6" y1="-749.905" x2="446.889" y2="-749.905"/>
<line fill="none" stroke="#000000" stroke-miterlimit="10" x1="-293.6" y1="-740.916" x2="446.889" y2="-740.916"/>
<line fill="none" stroke="#000000" stroke-miterlimit="10" x1="-293.6" y1="-731.927" x2="446.889" y2="-731.927"/>
<line fill="none" stroke="#000000" stroke-miterlimit="10" x1="-293.6" y1="-722.938" x2="446.889" y2="-722.938"/>
<line fill="none" stroke="#000000" stroke-miterlimit="10" x1="-293.6" y1="-713.95" x2="446.889" y2="-713.95"/>
<line fill="none" stroke="#000000" stroke-miterlimit="10" x1="-293.6" y1="-704.961" x2="446.889" y2="-704.961"/>
<line fill="none" stroke="#000000" stroke-miterlimit="10" x1="-293.6" y1="-695.973" x2="446.889" y2="-695.973"/>
<line fill="none" stroke="#000000" stroke-miterlimit="10" x1="-293.6" y1="-686.983" x2="446.889" y2="-686.983"/>
<line fill="none" stroke="#000000" stroke-miterlimit="10" x1="-293.6" y1="-677.994" x2="446.889" y2="-677.994"/>
<line fill="none" stroke="#000000" stroke-miterlimit="10" x1="-293.6" y1="-669.006" x2="446.889" y2="-669.006"/>
<line fill="none" stroke="#000000" stroke-miterlimit="10" x1="-293.6" y1="-660.018" x2="446.889" y2="-660.018"/>
<line fill="none" stroke="#000000" stroke-miterlimit="10" x1="-293.6" y1="-651.028" x2="446.889" y2="-651.028"/>
<line fill="none" stroke="#000000" stroke-miterlimit="10" x1="-293.6" y1="-642.039" x2="446.889" y2="-642.039"/>
<line fill="none" stroke="#000000" stroke-miterlimit="10" x1="-293.6" y1="-633.051" x2="446.889" y2="-633.051"/>
<line fill="none" stroke="#000000" stroke-miterlimit="10" x1="-293.6" y1="-624.062" x2="446.889" y2="-624.062"/>
<line fill="none" stroke="#000000" stroke-miterlimit="10" x1="-293.6" y1="-615.073" x2="446.889" y2="-615.073"/>
<line fill="none" stroke="#000000" stroke-miterlimit="10" x1="-293.6" y1="-606.084" x2="446.889" y2="-606.084"/>
<line fill="none" stroke="#000000" stroke-miterlimit="10" x1="-293.6" y1="-597.096" x2="446.889" y2="-597.096"/>
<line fill="none" stroke="#000000" stroke-miterlimit="10" x1="-293.6" y1="-588.107" x2="446.889" y2="-588.107"/>
<line fill="none" stroke="#000000" stroke-miterlimit="10" x1="-293.6" y1="-579.118" x2="446.889" y2="-579.118"/>
<line fill="none" stroke="#000000" stroke-miterlimit="10" x1="-293.6" y1="-570.129" x2="446.889" y2="-570.129"/>
<line fill="none" stroke="#000000" stroke-miterlimit="10" x1="-293.6" y1="-561.141" x2="446.889" y2="-561.141"/>
<line fill="none" stroke="#000000" stroke-miterlimit="10" x1="-293.6" y1="-552.152" x2="446.889" y2="-552.152"/>
<line fill="none" stroke="#000000" stroke-miterlimit="10" x1="-293.6" y1="-543.163" x2="446.889" y2="-543.163"/>
<line fill="none" stroke="#000000" stroke-miterlimit="10" x1="-293.6" y1="-534.174" x2="446.889" y2="-534.174"/>
<line fill="none" stroke="#000000" stroke-miterlimit="10" x1="-293.6" y1="-525.186" x2="446.889" y2="-525.186"/>
<line fill="none" stroke="#000000" stroke-miterlimit="10" x1="-293.6" y1="-516.197" x2="446.889" y2="-516.197"/>
<line fill="none" stroke="#000000" stroke-miterlimit="10" x1="-293.6" y1="-507.208" x2="446.889" y2="-507.208"/>
<line fill="none" stroke="#000000" stroke-miterlimit="10" x1="-293.6" y1="-498.219" x2="446.889" y2="-498.219"/>
<line fill="none" stroke="#000000" stroke-miterlimit="10" x1="-293.6" y1="-489.23" x2="446.889" y2="-489.23"/>
<line fill="none" stroke="#000000" stroke-miterlimit="10" x1="-293.6" y1="-480.242" x2="446.889" y2="-480.242"/>
<line fill="none" stroke="#000000" stroke-miterlimit="10" x1="-293.6" y1="-471.253" x2="446.889" y2="-471.253"/>
<line fill="none" stroke="#000000" stroke-miterlimit="10" x1="-293.6" y1="-462.264" x2="446.889" y2="-462.264"/>
<line fill="none" stroke="#000000" stroke-miterlimit="10" x1="-293.6" y1="-453.275" x2="446.889" y2="-453.275"/>
<line fill="none" stroke="#000000" stroke-miterlimit="10" x1="-293.6" y1="-444.287" x2="446.889" y2="-444.287"/>
<line fill="none" stroke="#000000" stroke-miterlimit="10" x1="-293.6" y1="-435.298" x2="446.889" y2="-435.298"/>
<rect x="607.081" y="362.949" fill="#FFFFFF" width="674.967" height="8.988"/>
<rect x="607.081" y="353.961" width="674.967" height="8.988"/>
<rect x="607.081" y="344.972" fill="#FFFFFF" width="674.967" height="8.989"/>
<rect x="607.081" y="371.938" width="674.967" height="8.989"/>
<rect x="607.081" y="389.916" width="674.967" height="8.988"/>
<rect x="607.081" y="398.904" fill="#FFFFFF" width="674.967" height="8.987"/>
<rect x="607.081" y="407.893" width="674.967" height="8.989"/>
<rect x="607.081" y="380.927" fill="#FFFFFF" width="674.967" height="8.989"/>
<rect x="607.081" y="335.982" width="674.967" height="8.988"/>
<rect x="607.081" y="282.05" width="674.967" height="8.989"/>
<rect x="607.081" y="273.062" fill="#FFFFFF" width="674.967" height="8.988"/>
<rect x="607.081" y="264.073" width="674.967" height="8.989"/>
<rect x="607.081" y="291.039" fill="#FFFFFF" width="674.967" height="8.988"/>
<rect x="607.081" y="326.994" fill="#FFFFFF" width="674.967" height="8.988"/>
<rect x="607.081" y="318.006" width="674.967" height="8.988"/>
<rect x="607.081" y="300.027" width="674.967" height="8.988"/>
<rect x="607.081" y="309.017" fill="#FFFFFF" width="674.967" height="8.989"/>
<rect x="607.081" y="497.781" width="674.967" height="8.987"/>
<rect x="607.081" y="488.792" fill="#FFFFFF" width="674.967" height="8.989"/>
<rect x="607.081" y="515.758" width="674.967" height="8.989"/>
<rect x="607.081" y="506.77" fill="#FFFFFF" width="674.967" height="8.988"/>
<rect x="607.081" y="255.084" fill="#FFFFFF" width="674.967" height="8.989"/>
<rect x="607.081" y="524.747" fill="#FFFFFF" width="674.967" height="8.989"/>
<rect x="607.081" y="533.736" width="674.967" height="8.987"/>
<rect x="607.081" y="551.713" fill="none" width="674.967" height="8.989"/>
<rect x="607.081" y="542.725" fill="#FFFFFF" width="674.967" height="8.988"/>
<rect x="607.081" y="452.837" fill="#FFFFFF" width="674.967" height="8.989"/>
<rect x="607.081" y="434.859" fill="#FFFFFF" width="674.967" height="8.987"/>
<rect x="607.081" y="443.848" width="674.967" height="8.989"/>
<rect x="607.081" y="425.871" width="674.967" height="8.988"/>
<rect x="607.081" y="461.826" width="674.967" height="8.988"/>
<rect x="607.081" y="470.814" fill="#FFFFFF" width="674.967" height="8.987"/>
<rect x="607.081" y="479.803" width="674.967" height="8.989"/>
<rect x="607.081" y="416.882" fill="#FFFFFF" width="674.967" height="8.989"/>
<rect x="607.081" y="48.342" width="674.967" height="8.989"/>
<rect x="607.081" y="39.354" fill="#F6F6F6" width="674.967" height="8.989"/>
<rect x="607.081" y="30.365" width="674.967" height="8.989"/>
<rect x="607.081" y="246.096" width="674.967" height="8.988"/>
<rect x="607.081" y="57.331" fill="#F6F6F6" width="674.967" height="8.989"/>
<rect x="607.081" y="75.309" fill="#F6F6F6" width="674.967" height="8.989"/>
<rect x="607.081" y="66.32" width="674.967" height="8.989"/>
<rect x="607.081" y="84.297" width="674.967" height="8.989"/>
<rect x="607.081" y="93.286" fill="#F6F6F6" width="674.967" height="8.989"/>
<rect x="607.081" y="12.387" width="674.967" height="8.989"/>
<rect x="607.081" y="-5.59" width="674.967" height="8.989"/>
<rect x="607.081" y="-14.575" fill="#F6F6F6" width="674.967" height="8.984"/>
<polygon fill="none" points="571.617,-14.575 607.081,-14.575 607.081,-14.575 "/>
<rect x="607.081" y="3.398" fill="#F6F6F6" width="674.967" height="8.989"/>
<rect x="607.081" y="-23.561" width="674.967" height="8.984"/>
<polygon fill="none" points="607.081,-14.577 1282.048,-14.577 1282.048,-14.577 "/>
<rect x="607.081" y="21.376" fill="#F6F6F6" width="674.967" height="8.989"/>
<rect x="607.081" y="210.141" width="674.967" height="8.988"/>
<rect x="607.081" y="192.163" width="674.967" height="8.989"/>
<rect x="607.081" y="201.15" fill="#FFFFFF" width="674.967" height="8.99"/>
<rect x="607.081" y="183.174" fill="#FFFFFF" width="674.967" height="8.989"/>
<rect x="607.081" y="219.129" fill="#FFFFFF" width="674.967" height="8.989"/>
<rect x="607.081" y="237.105" fill="#FFFFFF" width="674.967" height="8.99"/>
<rect x="607.081" y="174.185" width="674.967" height="8.989"/>
<rect x="607.081" y="228.118" width="674.967" height="8.989"/>
<rect x="607.081" y="129.241" fill="#FFFFFF" width="674.967" height="8.989"/>
<rect x="607.081" y="102.275" width="674.967" height="8.989"/>
<rect x="607.081" y="120.252" width="674.967" height="8.989"/>
<rect x="607.081" y="111.264" fill="#F6F6F6" width="674.967" height="8.989"/>
<rect x="607.081" y="156.208" width="674.967" height="8.989"/>
<rect x="607.081" y="138.23" width="674.967" height="8.989"/>
<rect x="607.081" y="165.196" fill="#FFFFFF" width="674.967" height="8.989"/>
<rect x="607.081" y="147.219" fill="#FFFFFF" width="674.967" height="8.989"/>
<image overflow="visible" enable-background="new    " width="400" height="400" xlink:href="stripes-light.png"  transform="matrix(1 0 0 1 1493.8555 50.4082)">
</image>
<polygon fill="#FFFFFF" points="1893.855,50.409 1893.855,57.013 1893.855,69.727 1893.855,82.441 1893.855,95.154 
	1893.855,107.868 1893.855,120.582 1893.855,133.295 1893.855,146.01 1893.855,158.709 1893.855,171.423 1893.855,184.137 
	1893.855,196.85 1893.855,222.277 1893.855,234.992 1893.855,247.705 1893.855,260.404 1893.855,273.119 1893.855,285.832 
	1893.855,311.261 1893.855,323.974 1893.855,336.688 1893.855,349.401 1893.855,362.102 1893.855,374.815 1893.855,387.528 
	1893.855,400.242 1893.855,412.956 1893.855,425.67 1893.855,438.384 1893.855,450.404 1856.408,450.404 1843.694,450.405 
	1830.98,450.404 1767.426,450.404 1754.712,450.405 1741.998,450.404 1716.57,450.404 1703.857,450.405 1691.149,450.412 
	1678.438,450.411 1665.723,450.412 1640.295,450.412 1627.581,450.411 1614.868,450.412 1602.154,450.412 1589.454,450.411 
	1576.74,450.411 1564.026,450.412 1551.312,450.412 1538.599,450.411 1525.885,450.412 1513.171,450.412 1500.457,450.412 
	1493.854,450.412 1493.854,444.316 1493.854,431.604 1493.854,418.89 1493.854,406.175 1493.854,393.461 1493.854,380.748 
	1493.854,368.034 1493.854,355.32 1493.854,342.62 1493.854,329.907 1493.854,317.193 1493.854,304.479 1493.854,291.766 
	1493.854,279.052 1493.854,253.624 1493.86,240.902 1493.86,228.204 1493.86,215.49 1493.86,202.775 1493.86,190.062 
	1493.86,177.349 1493.86,164.635 1493.86,151.921 1493.86,139.207 1493.86,126.508 1493.86,113.794 1493.86,101.08 1493.86,88.367 
	1493.86,75.667 1493.86,50.408 1506.404,50.408 1519.104,50.409 1519.118,50.409 1531.818,50.409 1544.531,50.408 1557.245,50.409 
	1569.959,50.409 1582.659,50.408 1595.372,50.409 1608.086,50.409 1620.8,50.409 1633.514,50.408 1646.229,50.409 1658.941,50.409 
	1671.655,50.409 1684.354,50.409 1697.068,50.409 1722.496,50.409 1735.21,50.409 1747.924,50.409 1760.638,50.409 1773.352,50.409 
	1786.064,50.408 1798.765,50.409 1811.479,50.409 1824.192,50.408 1836.906,50.409 1849.62,50.409 1862.334,50.409 1875.048,50.408 
	1887.761,50.409 "/>
<polygon fill="#FFFFFF" points="1893.855,50.409 1893.855,57.013 1893.855,69.727 1893.855,82.441 1893.855,95.154 
	1893.855,107.868 1893.855,120.582 1893.855,133.295 1893.855,146.01 1893.855,158.709 1893.855,171.423 1893.855,184.137 
	1893.855,196.85 1893.855,222.277 1893.855,234.992 1893.855,247.705 1893.855,260.404 1893.855,273.119 1893.855,285.832 
	1893.855,311.261 1893.855,323.974 1893.855,336.688 1893.855,349.401 1893.855,362.102 1893.855,374.815 1893.855,387.528 
	1893.855,400.242 1893.855,412.956 1893.855,425.67 1893.855,438.384 1893.855,450.404 1856.408,450.404 1843.694,450.405 
	1830.98,450.404 1767.426,450.404 1754.712,450.405 1741.998,450.404 1716.57,450.404 1703.857,450.405 1691.149,450.412 
	1678.438,450.411 1665.723,450.412 1640.295,450.412 1627.581,450.411 1614.868,450.412 1602.154,450.412 1589.454,450.411 
	1576.74,450.411 1564.026,450.412 1551.312,450.412 1538.599,450.411 1525.885,450.412 1513.171,450.412 1500.457,450.412 
	1493.854,450.412 1493.854,444.316 1493.854,431.604 1493.854,418.89 1493.854,406.175 1493.854,393.461 1493.854,380.748 
	1493.854,368.034 1493.854,355.32 1493.854,342.62 1493.854,329.907 1493.854,317.193 1493.854,304.479 1493.854,291.766 
	1493.854,279.052 1493.854,253.624 1493.86,240.902 1493.86,228.204 1493.86,215.49 1493.86,202.775 1493.86,190.062 
	1493.86,177.349 1493.86,164.635 1493.86,151.921 1493.86,139.207 1493.86,126.508 1493.86,113.794 1493.86,101.08 1493.86,88.367 
	1493.86,75.667 1493.86,50.408 1506.404,50.408 1519.104,50.409 1519.118,50.409 1531.818,50.409 1544.531,50.408 1557.245,50.409 
	1569.959,50.409 1582.659,50.408 1595.372,50.409 1608.086,50.409 1620.8,50.409 1633.514,50.408 1646.229,50.409 1658.941,50.409 
	1671.655,50.409 1684.354,50.409 1697.068,50.409 1722.496,50.409 1735.21,50.409 1747.924,50.409 1760.638,50.409 1773.352,50.409 
	1786.064,50.408 1798.765,50.409 1811.479,50.409 1824.192,50.408 1836.906,50.409 1849.62,50.409 1862.334,50.409 1875.048,50.408 
	1887.761,50.409 "/>
<polygon fill="#FFFFFF" points="1893.855,209.564 1893.855,222.277 1665.723,450.412 1653.009,450.412 "/>
<polygon points="1893.855,196.85 1893.855,209.564 1653.009,450.412 1640.295,450.412 "/>
<polygon fill="#FFFFFF" points="1893.855,184.137 1893.855,196.85 1640.295,450.412 1627.581,450.411 "/>
<polygon points="1893.855,222.277 1893.855,234.992 1678.438,450.411 1665.723,450.412 "/>
<polygon points="1893.855,247.705 1893.855,260.404 1703.857,450.405 1691.149,450.412 "/>
<polygon fill="#FFFFFF" points="1893.855,260.404 1893.855,273.119 1716.57,450.404 1703.857,450.405 "/>
<polygon points="1893.855,273.119 1893.855,285.832 1729.284,450.404 1716.57,450.404 "/>
<polygon fill="#FFFFFF" points="1893.855,234.992 1893.855,247.705 1691.149,450.412 1678.438,450.411 "/>
<polygon points="1893.855,171.423 1893.855,184.137 1627.581,450.411 1614.868,450.412 "/>
<polygon points="1893.855,95.154 1893.855,107.868 1551.312,450.412 1538.599,450.411 "/>
<polygon fill="#FFFFFF" points="1893.855,82.441 1893.855,95.154 1538.599,450.411 1525.885,450.412 "/>
<polygon points="1893.855,69.727 1893.855,82.441 1525.885,450.412 1513.171,450.412 "/>
<polygon fill="#FFFFFF" points="1893.855,107.868 1893.855,120.582 1564.026,450.412 1551.312,450.412 "/>
<polygon fill="#FFFFFF" points="1893.855,158.709 1893.855,171.423 1614.868,450.412 1602.154,450.412 "/>
<polygon points="1893.855,146.01 1893.855,158.709 1602.154,450.412 1589.454,450.411 "/>
<polygon points="1893.855,120.582 1893.855,133.295 1576.74,450.411 1564.026,450.412 "/>
<polygon fill="#FFFFFF" points="1893.855,133.295 1893.855,146.01 1589.454,450.411 1576.74,450.411 "/>
<polygon points="1893.855,400.242 1893.855,412.956 1856.408,450.404 1843.694,450.405 "/>
<polygon fill="#FFFFFF" points="1893.855,387.528 1893.855,400.242 1843.694,450.405 1830.98,450.404 "/>
<polygon points="1893.855,425.67 1893.855,438.384 1881.836,450.404 1869.122,450.404 "/>
<polygon fill="#FFFFFF" points="1893.855,412.956 1893.855,425.67 1869.122,450.404 1856.408,450.404 "/>
<polygon fill="#FFFFFF" points="1893.855,57.013 1893.855,69.727 1513.171,450.412 1500.457,450.412 "/>
<polygon fill="#FFFFFF" points="1893.855,438.384 1893.855,450.404 1881.836,450.404 "/>
<polygon fill="#FFFFFF" points="1893.855,336.688 1893.855,349.401 1792.854,450.404 1780.14,450.404 "/>
<polygon fill="#FFFFFF" points="1893.855,311.261 1893.855,323.974 1767.426,450.404 1754.712,450.405 "/>
<polygon points="1893.855,323.974 1893.855,336.688 1780.14,450.404 1767.426,450.404 "/>
<polygon points="1893.855,298.546 1893.855,311.261 1754.712,450.405 1741.998,450.404 "/>
<polygon points="1893.855,349.401 1893.855,362.102 1805.553,450.404 1792.854,450.404 "/>
<polygon fill="#FFFFFF" points="1893.855,362.102 1893.855,374.815 1818.267,450.404 1805.553,450.404 "/>
<polygon points="1893.855,374.815 1893.855,387.528 1830.98,450.404 1818.267,450.404 "/>
<polygon fill="#FFFFFF" points="1893.855,285.832 1893.855,298.546 1741.998,450.404 1729.284,450.404 "/>
<polygon points="1620.8,50.409 1493.86,177.349 1493.86,164.635 1608.086,50.409 "/>
<polygon fill="#F6F6F6" points="1608.086,50.409 1493.86,164.635 1493.86,151.921 1595.372,50.409 "/>
<polygon points="1595.372,50.409 1493.86,151.921 1493.86,139.207 1582.659,50.408 "/>
<polygon points="1893.855,50.409 1893.855,57.013 1500.457,450.412 1493.854,450.412 1493.854,444.316 1887.761,50.409 "/>
<polygon fill="#F6F6F6" points="1633.514,50.408 1493.86,190.062 1493.86,177.349 1620.8,50.409 "/>
<polygon fill="#F6F6F6" points="1658.941,50.409 1493.86,215.49 1493.86,202.775 1646.229,50.409 "/>
<polygon points="1646.229,50.409 1493.86,202.775 1493.86,190.062 1633.514,50.408 "/>
<polygon points="1671.655,50.409 1493.86,228.204 1493.86,215.49 1658.941,50.409 "/>
<polygon fill="#F6F6F6" points="1684.354,50.409 1493.86,240.902 1493.86,228.204 1671.655,50.409 "/>
<polygon points="1569.959,50.409 1493.86,126.508 1493.86,113.794 1557.245,50.409 "/>
<polygon points="1544.531,50.408 1493.86,101.08 1493.86,88.367 1531.818,50.409 "/>
<polygon fill="#F6F6F6" points="1531.818,50.409 1493.86,88.367 1493.86,75.667 1519.118,50.409 "/>
<polygon fill="#F6F6F6" points="1557.245,50.409 1493.86,113.794 1493.86,101.08 1544.531,50.408 "/>
<polygon points="1519.104,50.409 1493.86,75.667 1493.86,62.953 1506.404,50.408 "/>
<polygon fill="none" points="1519.118,50.409 1493.86,75.667 1519.104,50.409 "/>
<polygon fill="#F6F6F6" points="1582.659,50.408 1493.86,139.207 1493.86,126.508 1569.959,50.409 "/>
<polygon points="1849.62,50.409 1493.854,406.175 1493.854,393.461 1836.906,50.409 "/>
<polygon points="1824.192,50.408 1493.854,380.748 1493.854,368.034 1811.479,50.409 "/>
<polygon fill="#FFFFFF" points="1836.906,50.409 1493.854,393.461 1493.854,380.748 1824.192,50.408 "/>
<polygon fill="#FFFFFF" points="1811.479,50.409 1493.854,368.034 1493.854,355.32 1798.765,50.409 "/>
<polygon fill="#FFFFFF" points="1862.334,50.409 1493.854,418.89 1493.854,406.175 1849.62,50.409 "/>
<polygon fill="#FFFFFF" points="1887.761,50.409 1493.854,444.316 1493.854,431.604 1875.048,50.408 "/>
<polygon points="1798.765,50.409 1493.854,355.32 1493.854,342.62 1786.064,50.408 "/>
<polygon points="1875.048,50.408 1493.854,431.604 1493.854,418.89 1862.334,50.409 "/>
<polygon fill="#FFFFFF" points="1735.21,50.409 1493.854,291.766 1493.854,279.052 1722.496,50.409 "/>
<polygon points="1697.068,50.409 1493.854,253.624 1493.86,240.902 1684.354,50.409 "/>
<polygon points="1722.496,50.409 1493.854,279.052 1493.854,266.338 1709.782,50.409 "/>
<polygon fill="#F6F6F6" points="1709.782,50.409 1493.854,266.338 1493.854,253.624 1697.068,50.409 "/>
<polygon points="1773.352,50.409 1493.854,329.907 1493.854,317.193 1760.638,50.409 "/>
<polygon points="1747.924,50.409 1493.854,304.479 1493.854,291.766 1735.21,50.409 "/>
<polygon fill="#FFFFFF" points="1786.064,50.408 1493.854,342.62 1493.854,329.907 1773.352,50.409 "/>
<polygon fill="#FFFFFF" points="1760.638,50.409 1493.854,317.193 1493.854,304.479 1747.924,50.409 "/>
<image overflow="visible" enable-background="new    " width="400" height="400" xlink:href="stripes-light.png" >
</image>
<polygon fill="#FFFFFF" points="400,0.001 400,6.605 400,19.319 400,32.033 399.999,44.747 400,57.46 400,70.174 399.999,82.888 
	399.999,95.602 400,108.301 400,121.016 399.999,133.729 400,146.442 400,171.871 400,184.584 400,197.297 400,209.998 
	399.999,222.711 400,235.424 400,260.854 400,273.566 400,286.281 400,298.994 399.999,311.693 399.999,324.408 400,337.121 
	400,349.834 400,362.549 400,375.262 400,387.977 400,399.996 362.552,399.996 349.838,399.998 337.124,399.996 273.568,399.996 
	260.855,399.998 248.143,399.996 222.714,399.996 210.001,399.998 197.293,400.004 184.58,400.004 171.866,400.004 146.438,400.004 
	133.725,400.004 121.012,400.004 108.298,400.004 95.598,400.004 82.884,400.004 70.17,400.004 57.456,400.004 44.742,400.004 
	32.028,400.004 19.314,400.004 6.601,400.004 -0.003,400.004 -0.003,393.908 -0.004,381.195 -0.003,368.482 -0.003,355.768 
	-0.003,343.053 -0.004,330.34 -0.003,317.627 -0.003,304.912 -0.003,292.212 -0.003,279.5 -0.003,266.786 -0.003,254.072 
	-0.003,241.357 -0.003,228.645 -0.003,203.216 0.004,190.496 0.004,177.796 0.004,165.082 0.004,152.368 0.004,139.654 
	0.004,126.941 0.004,114.227 0.004,101.513 0.004,88.799 0.004,76.1 0.004,63.386 0.004,50.672 0.004,37.959 0.004,25.259 0.004,0 
	12.548,0 25.247,0.001 25.262,0.001 37.962,0.001 50.675,0 63.389,0.001 76.103,0.001 88.803,0 101.516,0.001 114.229,0.001 
	126.943,0.001 139.657,0 152.371,0.001 165.085,0.001 177.799,0.001 190.498,0.001 203.212,0.001 228.641,0.001 241.354,0.001 
	254.066,0.001 266.781,0.001 279.495,0.001 292.209,0 304.908,0.001 317.622,0.001 330.336,0 343.05,0.001 355.764,0.001 
	368.479,0.001 381.191,0 393.904,0.001 "/>
<polygon fill="#FFFFFF" points="400,159.157 400,171.871 171.866,400.004 159.152,400.004 "/>
<polygon fill="#FFFFFF" points="399.999,133.729 400,146.442 146.438,400.004 133.725,400.004 "/>
<polygon fill="#FFFFFF" points="400,209.998 399.999,222.711 222.714,399.996 210.001,399.998 "/>
<polygon fill="#FFFFFF" points="400,184.584 400,197.297 197.293,400.004 184.58,400.004 "/>
<polygon fill="#FFFFFF" points="400,32.033 399.999,44.747 44.742,400.004 32.028,400.004 "/>
<polygon fill="#FFFFFF" points="400,57.46 400,70.174 70.17,400.004 57.456,400.004 "/>
<polygon fill="#FFFFFF" points="400,108.301 400,121.016 121.012,400.004 108.298,400.004 "/>
<polygon fill="#FFFFFF" points="399.999,82.888 399.999,95.602 95.598,400.004 82.884,400.004 "/>
<polygon fill="#FFFFFF" points="400,337.121 400,349.834 349.838,399.998 337.124,399.996 "/>
<polygon fill="#FFFFFF" points="400,362.549 400,375.262 375.266,399.996 362.552,399.996 "/>
<polygon fill="#FFFFFF" points="400,6.605 400,19.319 19.314,400.004 6.601,400.004 "/>
<polygon fill="#FFFFFF" points="400,387.977 400,399.996 387.979,399.996 "/>
<polygon fill="#FFFFFF" points="400,286.281 400,298.994 298.997,399.996 286.283,399.996 "/>
<polygon fill="#FFFFFF" points="400,260.854 400,273.566 273.568,399.996 260.855,399.998 "/>
<polygon fill="#FFFFFF" points="399.999,311.693 399.999,324.408 324.41,399.996 311.695,399.996 "/>
<polygon fill="#FFFFFF" points="400,235.424 400,248.139 248.143,399.996 235.428,399.996 "/>
<polygon fill="#FFFFFF" points="114.229,0.001 0.004,114.227 0.004,101.513 101.516,0.001 "/>
<polygon fill="#FFFFFF" points="139.657,0 0.004,139.654 0.004,126.941 126.943,0.001 "/>
<polygon fill="#FFFFFF" points="165.085,0.001 0.004,165.082 0.004,152.368 152.371,0.001 "/>
<polygon fill="#FFFFFF" points="190.498,0.001 0.004,190.496 0.004,177.796 177.799,0.001 "/>
<polygon fill="#FFFFFF" points="37.962,0.001 0.004,37.959 0.004,25.259 25.262,0.001 "/>
<polygon fill="#FFFFFF" points="63.389,0.001 0.004,63.386 0.004,50.672 50.675,0 "/>
<polygon fill="none" points="25.262,0.001 0.004,25.259 25.247,0.001 "/>
<polygon fill="#FFFFFF" points="88.803,0 0.004,88.799 0.004,76.1 76.103,0.001 "/>
<polygon fill="#FFFFFF" points="343.05,0.001 -0.003,343.053 -0.004,330.34 330.336,0 "/>
<polygon fill="#FFFFFF" points="317.622,0.001 -0.003,317.627 -0.003,304.912 304.908,0.001 "/>
<polygon fill="#FFFFFF" points="368.479,0.001 -0.003,368.482 -0.003,355.768 355.764,0.001 "/>
<polygon fill="#FFFFFF" points="393.904,0.001 -0.003,393.908 -0.004,381.195 381.191,0 "/>
<polygon fill="#FFFFFF" points="241.354,0.001 -0.003,241.357 -0.003,228.645 228.641,0.001 "/>
<polygon fill="#FFFFFF" points="215.926,0.001 -0.003,215.93 -0.003,203.216 203.212,0.001 "/>
<g>
	<polygon fill="#FAFAFA" points="400,349.834 400,362.549 362.552,399.996 349.838,399.998 	"/>
	<polygon fill="#FAFAFA" points="400,375.262 400,387.977 387.979,399.996 375.266,399.996 	"/>
	<g>
		<polygon fill="#FAFAFA" points="400,146.442 400,159.157 159.152,400.004 146.438,400.004 		"/>
		<polygon fill="#FAFAFA" points="400,171.871 400,184.584 184.58,400.004 171.866,400.004 		"/>
		<polygon fill="#FAFAFA" points="400,197.297 400,209.998 210.001,399.998 197.293,400.004 		"/>
		<polygon fill="#FAFAFA" points="399.999,222.711 400,235.424 235.428,399.996 222.714,399.996 		"/>
		<polygon fill="#FAFAFA" points="400,121.016 399.999,133.729 133.725,400.004 121.012,400.004 		"/>
		<polygon fill="#FAFAFA" points="399.999,44.747 400,57.46 57.456,400.004 44.742,400.004 		"/>
		<polygon fill="#FAFAFA" points="400,19.319 400,32.033 32.028,400.004 19.314,400.004 		"/>
		<polygon fill="#FAFAFA" points="399.999,95.602 400,108.301 108.298,400.004 95.598,400.004 		"/>
		<polygon fill="#FAFAFA" points="400,70.174 399.999,82.888 82.884,400.004 70.17,400.004 		"/>
		<polygon fill="#FAFAFA" points="400,273.566 400,286.281 286.283,399.996 273.568,399.996 		"/>
		<polygon fill="#FAFAFA" points="400,248.139 400,260.854 260.855,399.998 248.143,399.996 		"/>
		<polygon fill="#FAFAFA" points="400,298.994 399.999,311.693 311.695,399.996 298.997,399.996 		"/>
		<polygon fill="#FAFAFA" points="399.999,324.408 400,337.121 337.124,399.996 324.41,399.996 		"/>
		<polygon fill="#FAFAFA" points="126.943,0.001 0.004,126.941 0.004,114.227 114.229,0.001 		"/>
		<polygon fill="#FAFAFA" points="101.516,0.001 0.004,101.513 0.004,88.799 88.803,0 		"/>
		<polygon fill="#FAFAFA" points="400,0.001 400,6.605 6.601,400.004 -0.003,400.004 -0.003,393.908 393.904,0.001 		"/>
		<polygon fill="#FAFAFA" points="152.371,0.001 0.004,152.368 0.004,139.654 139.657,0 		"/>
		<polygon fill="#FAFAFA" points="177.799,0.001 0.004,177.796 0.004,165.082 165.085,0.001 		"/>
		<polygon fill="#FAFAFA" points="76.103,0.001 0.004,76.1 0.004,63.386 63.389,0.001 		"/>
		<polygon fill="#FAFAFA" points="50.675,0 0.004,50.672 0.004,37.959 37.962,0.001 		"/>
		<polygon fill="#FAFAFA" points="25.247,0.001 0.004,25.259 0.004,12.545 12.548,0 		"/>
		<polygon fill="#FAFAFA" points="355.764,0.001 -0.003,355.768 -0.003,343.053 343.05,0.001 		"/>
		<polygon fill="#FAFAFA" points="330.336,0 -0.004,330.34 -0.003,317.627 317.622,0.001 		"/>
		<polygon fill="#FAFAFA" points="304.908,0.001 -0.003,304.912 -0.003,292.212 292.209,0 		"/>
		<polygon fill="#FAFAFA" points="381.191,0 -0.004,381.195 -0.003,368.482 368.479,0.001 		"/>
		<polygon fill="#FAFAFA" points="203.212,0.001 -0.003,203.216 0.004,190.496 190.498,0.001 		"/>
		<polygon fill="#FAFAFA" points="228.641,0.001 -0.003,228.645 -0.003,215.93 215.926,0.001 		"/>
		<polygon fill="#FAFAFA" points="279.495,0.001 -0.003,279.5 -0.003,266.786 266.781,0.001 		"/>
		<polygon fill="#FAFAFA" points="254.066,0.001 -0.003,254.072 -0.003,241.357 241.354,0.001 		"/>
	</g>
</g>
<g>
	<polygon fill="#FAFAFA" points="400,349.834 400,362.549 362.552,399.996 349.838,399.998 	"/>
	<polygon fill="#FAFAFA" points="400,375.262 400,387.977 387.979,399.996 375.266,399.996 	"/>
	<g>
		<polygon fill="#FAFAFA" points="400,146.442 400,159.157 159.152,400.004 146.438,400.004 		"/>
		<polygon fill="#FAFAFA" points="400,171.871 400,184.584 184.58,400.004 171.866,400.004 		"/>
		<polygon fill="#FAFAFA" points="400,197.297 400,209.998 210.001,399.998 197.293,400.004 		"/>
		<polygon fill="#FAFAFA" points="399.999,222.711 400,235.424 235.428,399.996 222.714,399.996 		"/>
		<polygon fill="#FAFAFA" points="400,121.016 399.999,133.729 133.725,400.004 121.012,400.004 		"/>
		<polygon fill="#FAFAFA" points="399.999,44.747 400,57.46 57.456,400.004 44.742,400.004 		"/>
		<polygon fill="#FAFAFA" points="400,19.319 400,32.033 32.028,400.004 19.314,400.004 		"/>
		<polygon fill="#FAFAFA" points="399.999,95.602 400,108.301 108.298,400.004 95.598,400.004 		"/>
		<polygon fill="#FAFAFA" points="400,70.174 399.999,82.888 82.884,400.004 70.17,400.004 		"/>
		<polygon fill="#FAFAFA" points="400,273.566 400,286.281 286.283,399.996 273.568,399.996 		"/>
		<polygon fill="#FAFAFA" points="400,248.139 400,260.854 260.855,399.998 248.143,399.996 		"/>
		<polygon fill="#FAFAFA" points="400,298.994 399.999,311.693 311.695,399.996 298.997,399.996 		"/>
		<polygon fill="#FAFAFA" points="399.999,324.408 400,337.121 337.124,399.996 324.41,399.996 		"/>
		<polygon fill="#FAFAFA" points="126.943,0.001 0.004,126.941 0.004,114.227 114.229,0.001 		"/>
		<polygon fill="#FAFAFA" points="101.516,0.001 0.004,101.513 0.004,88.799 88.803,0 		"/>
		<polygon fill="#FAFAFA" points="400,0.001 400,6.605 6.601,400.004 -0.003,400.004 -0.003,393.908 393.904,0.001 		"/>
		<polygon fill="#FAFAFA" points="152.371,0.001 0.004,152.368 0.004,139.654 139.657,0 		"/>
		<polygon fill="#FAFAFA" points="177.799,0.001 0.004,177.796 0.004,165.082 165.085,0.001 		"/>
		<polygon fill="#FAFAFA" points="76.103,0.001 0.004,76.1 0.004,63.386 63.389,0.001 		"/>
		<polygon fill="#FAFAFA" points="50.675,0 0.004,50.672 0.004,37.959 37.962,0.001 		"/>
		<polygon fill="#FAFAFA" points="25.247,0.001 0.004,25.259 0.004,12.545 12.548,0 		"/>
		<polygon fill="#FAFAFA" points="355.764,0.001 -0.003,355.768 -0.003,343.053 343.05,0.001 		"/>
		<polygon fill="#FAFAFA" points="330.336,0 -0.004,330.34 -0.003,317.627 317.622,0.001 		"/>
		<polygon fill="#FAFAFA" points="304.908,0.001 -0.003,304.912 -0.003,292.212 292.209,0 		"/>
		<polygon fill="#FAFAFA" points="381.191,0 -0.004,381.195 -0.003,368.482 368.479,0.001 		"/>
		<polygon fill="#FAFAFA" points="203.212,0.001 -0.003,203.216 0.004,190.496 190.498,0.001 		"/>
		<polygon fill="#FAFAFA" points="228.641,0.001 -0.003,228.645 -0.003,215.93 215.926,0.001 		"/>
		<polygon fill="#FAFAFA" points="279.495,0.001 -0.003,279.5 -0.003,266.786 266.781,0.001 		"/>
		<polygon fill="#FAFAFA" points="254.066,0.001 -0.003,254.072 -0.003,241.357 241.354,0.001 		"/>
	</g>
</g>
<polygon fill="#FFFFFF" points="292.209,0 -0.003,292.212 -0.003,279.5 279.495,0.001 "/>
<polygon fill="#FFFFFF" points="266.781,0.001 -0.003,266.786 -0.003,254.072 254.066,0.001 "/>
</svg>
