<?xml version="1.0" encoding="utf-8"?>
<!-- Generator: Adobe Illustrator 16.0.0, SVG Export Plug-In . SVG Version: 6.00 Build 0)  -->
<!DOCTYPE svg PUBLIC "-//W3C//DTD SVG 1.1//EN" "http://www.w3.org/Graphics/SVG/1.1/DTD/svg11.dtd">
<svg version="1.1" id="Layer_1" xmlns="http://www.w3.org/2000/svg" xmlns:xlink="http://www.w3.org/1999/xlink" x="0px" y="0px"
	 width="300px" height="50px" viewBox="0 0 300 50" enable-background="new 0 0 300 50" xml:space="preserve">
<rect fill="none" width="300" height="50"/>
<polygon fill="#F6F6F6" points="0,50 50.016,0 0,0 "/>
<polygon fill="#FFFFFF" points="0.017,-0.001 -49.999,49.999 0.017,49.999 "/>
<polygon fill="#EDEDED" points="50.016,-0.001 0,49.999 50.016,49.999 "/>
<polygon fill="#E3E3E3" points="50.016,50 100.031,0 50.016,0 "/>
<polygon fill="#DADADA" points="100.031,-0.001 50.016,49.999 100.031,49.999 "/>
<polygon fill="#D0D0D0" points="99.984,50 150,0 99.984,0 "/>
<polygon fill="#C6C6C6" points="150,-0.001 99.984,49.999 150,49.999 "/>
<polygon fill="#C6C6C6" points="150,50 200.016,0 150,0 "/>
<polygon fill="#D0D0D0" points="200.016,-0.001 150,49.999 200.016,49.999 "/>
<polygon fill="#DADADA" points="199.968,50 249.983,0 199.968,0 "/>
<polygon fill="#E3E3E3" points="249.983,-0.001 199.968,49.999 249.983,49.999 "/>
<polygon fill="#EDEDED" points="249.983,50 299.999,0 249.983,0 "/>
<polygon fill="#F6F6F6" points="299.999,-0.001 249.983,49.999 299.999,49.999 "/>
<polygon fill="#FFFFFF" points="299.999,49.999 350.015,-0.001 299.999,-0.001 "/>
<line fill="none" stroke="#BE1622" stroke-width="0.25" stroke-miterlimit="10" x1="50.016" y1="0" x2="0" y2="50"/>
<line fill="none" stroke="#F39200" stroke-width="0.25" stroke-miterlimit="10" x1="100.031" y1="0" x2="50.016" y2="50"/>
<line fill="none" stroke="#DEDC00" stroke-width="0.25" stroke-miterlimit="10" x1="150.031" y1="0" x2="100.016" y2="50"/>
<line fill="none" stroke="#951B81" stroke-width="0.25" stroke-miterlimit="10" x1="200.031" y1="0" x2="150.016" y2="50"/>
<line fill="#0095D4" stroke="#951B81" stroke-width="0.25" stroke-miterlimit="10" x1="250.031" y1="0" x2="200.016" y2="50"/>
</svg>
