<?xml version="1.0" encoding="utf-8"?>
<!-- Generator: Adobe Illustrator 22.0.0, SVG Export Plug-In . SVG Version: 6.00 Build 0)  -->
<svg version="1.1" id="Layer_1" xmlns="http://www.w3.org/2000/svg" xmlns:xlink="http://www.w3.org/1999/xlink" x="0px" y="0px"
	 viewBox="0 0 916.26 333.504" style="enable-background:new 0 0 916.26 333.504;" xml:space="preserve">
<style type="text/css">
	.st0{fill:#D0D0D0;}
	.st1{fill:#2E2D2C;}
	.st2{fill:#9D9D9C;}
	.st3{fill:#FF0000;}
	.st4{fill:#FF0082;}
	.st5{fill:#00FF00;}
</style>
<g>
	<polygon class="st0" points="240.605,174.695 168.146,247.154 148.077,227.084 200.466,174.695 147.379,121.608 167.449,101.539 	
		"/>
	<polygon class="st0" points="200.466,160.673 200.466,188.717 48.04,188.717 48.04,160.994 	"/>
</g>
<g>
	<polygon class="st1" points="762.671,80.064 835.13,152.522 815.06,172.592 762.671,120.203 709.584,173.29 689.515,153.22 	"/>
	<polygon class="st1" points="748.649,120.203 776.693,120.203 776.693,272.629 748.97,272.629 	"/>
</g>
<g>
	<polygon class="st2" points="526.249,108.511 526.249,210.983 497.866,210.983 497.866,136.894 422.79,136.894 422.79,108.511 	"/>
	<polygon class="st2" points="487.951,126.979 507.781,146.808 399.999,254.59 380.396,234.987 	"/>
</g>
<rect x="422.79" y="108.511" class="st3" width="103.459" height="28.383"/>
<polygon class="st4" points="167.449,101.539 147.379,121.608 220.679,194.621 240.605,174.695 "/>
<polygon class="st5" points="689.515,153.22 709.584,173.29 782.78,100.172 762.671,80.064 "/>
</svg>
